<svg width="40" height="40" viewBox="0 0 40 40" fill="none" xmlns="http://www.w3.org/2000/svg">
<path d="M20 0.799805C8.97188 0.799805 0 8.76856 0 18.5592C0 23.2904 2.05938 27.7154 5.80938 31.0686C5.11562 33.1154 3.3375 34.5248 2.01562 35.5717C0.803125 36.5311 -0.075 37.2248 0.1875 38.2061L0.271875 38.5279L0.559375 38.6936C1.2875 39.1092 2.25625 39.3217 3.44688 39.3217C7.40625 39.3217 13.0969 37.0498 15.6031 35.9561C17.0281 36.2529 18.4438 36.3998 19.9188 36.3998C30.95 36.3998 39.9188 28.4311 39.9188 18.6404C39.9188 8.80293 30.9844 0.799805 20 0.799805ZM21.2812 27.1998C21.2812 27.3592 21.2 27.5186 20.9594 27.5186H19.1219V27.4404C18.9594 27.4404 18.8 27.3592 18.8 27.1217V16.3998C18.8 16.2404 18.8813 16.0811 19.1219 16.0811H20.9594C21.1219 16.0811 21.2812 16.1592 21.2812 16.3998V27.1998ZM21.2812 12.6404C21.2812 12.7998 21.2 12.9592 20.9594 12.9592H19.0406C18.8813 12.9592 18.7219 12.8811 18.7219 12.6404V10.5592C18.7219 10.3998 18.8 10.2404 19.0406 10.2404H20.9594C21.1219 10.2404 21.2812 10.3186 21.2812 10.5592V12.6404Z" fill="white" fill-opacity="0.6"/>
</svg>
