<svg width="22" height="22" viewBox="0 0 22 22" fill="none" xmlns="http://www.w3.org/2000/svg">
<path d="M8.86856 5.7611C9.03356 5.79032 9.1659 5.91063 9.21231 6.07047C9.25871 6.23204 9.21059 6.40391 9.08856 6.51735L5.04606 10.5599H18.0398C18.0536 10.5599 18.0673 10.5599 18.0811 10.5599C18.3234 10.5719 18.5125 10.7781 18.5004 11.0205C18.4884 11.2628 18.2822 11.4519 18.0398 11.4399H5.04606L9.08856 15.4824C9.21918 15.5889 9.27934 15.7591 9.24153 15.9241C9.20371 16.0874 9.07481 16.2163 8.91153 16.2541C8.74653 16.2919 8.57637 16.2317 8.46981 16.1011L3.67106 11.3161L3.36856 10.9999L3.67106 10.6836L8.46981 5.8986C8.5609 5.80063 8.69324 5.75079 8.82731 5.7611C8.84106 5.7611 8.85481 5.7611 8.86856 5.7611Z" fill="black"/>
</svg>
