<svg width="22" height="22" viewBox="0 0 22 22" fill="none" xmlns="http://www.w3.org/2000/svg">
<g opacity="0.5">
<path d="M17.1601 2.64014C16.3729 2.64014 15.5857 2.93576 14.9876 3.53389L6.25635 12.2789C6.22541 12.3029 6.19791 12.3304 6.17385 12.3614C6.16354 12.37 6.15494 12.3786 6.14635 12.3889C6.12572 12.4061 6.10854 12.4233 6.09135 12.4439C6.09135 12.449 6.09135 12.4525 6.09135 12.4576C5.3265 13.317 5.35057 14.6456 6.17385 15.4689C7.02807 16.3231 8.42713 16.3231 9.28135 15.4689L15.9226 8.81389C16.0532 8.68842 16.0928 8.4942 16.0223 8.32748C15.9535 8.16076 15.7868 8.0542 15.6063 8.05764C15.4912 8.06279 15.3829 8.11092 15.3038 8.19514L8.6626 14.8364C8.14525 15.3537 7.30994 15.3537 6.7926 14.8364C6.29244 14.3362 6.28385 13.5542 6.75135 13.0351C6.76682 13.0179 6.78057 12.999 6.7926 12.9801C6.80291 12.9715 6.8115 12.9629 6.8201 12.9526L6.86135 12.9251C6.86135 12.92 6.86135 12.9165 6.86135 12.9114L15.6201 4.16639C16.4795 3.30701 17.8528 3.30529 18.7138 4.16639C19.5732 5.02576 19.5732 6.40076 18.7138 7.26014L7.87885 18.0951C6.67572 19.2983 4.73697 19.2983 3.53385 18.0951C2.33072 16.892 2.33072 14.9533 3.53385 13.7501L12.1963 5.08764C12.327 4.98107 12.3871 4.81092 12.3493 4.64592C12.3115 4.48264 12.1826 4.35373 12.0193 4.31592C11.8543 4.27811 11.6842 4.33826 11.5776 4.46889L2.9151 13.1314C1.37682 14.6697 1.3751 17.1894 2.9151 18.7276C4.4551 20.2659 6.95932 20.2659 8.4976 18.7276L19.3463 7.89264C20.5426 6.69639 20.5426 4.73014 19.3463 3.53389C18.7482 2.93576 17.9473 2.64014 17.1601 2.64014Z" fill="#0B111A"/>
</g>
</svg>
