<svg width="18" height="21" viewBox="0 0 18 21" fill="none" xmlns="http://www.w3.org/2000/svg">
<path opacity="0.5" d="M5.72727 0C4.82318 0 4.09091 0.732273 4.09091 1.63636V14.7273C4.09091 15.6314 4.82318 16.3636 5.72727 16.3636H16.3636C17.2677 16.3636 18 15.6314 18 14.7273V5.31818C18 5.10136 17.9141 4.89352 17.7603 4.7397L13.2603 0.239702C13.1065 0.0858834 12.8986 0 12.6818 0H5.72727ZM12.2727 1.55806L16.4419 5.72727H13.0909C12.6393 5.72727 12.2727 5.36073 12.2727 4.90909V1.55806ZM1.63636 4.09091C0.732273 4.09091 0 4.82318 0 5.72727V18.8182C0 19.7223 0.732273 20.4545 1.63636 20.4545H12.2727C13.1768 20.4545 13.9091 19.7223 13.9091 18.8182V18H5.72727C3.92236 18 2.45455 16.5322 2.45455 14.7273V4.09091H1.63636Z" fill="#2864FF"/>
</svg>
