<svg width="22" height="22" viewBox="0 0 22 22" fill="none" xmlns="http://www.w3.org/2000/svg">
<g clip-path="url(#clip0)">
<path d="M16.6511 0.0413726C16.4861 0.0705913 16.3538 0.190904 16.3074 0.350748C16.261 0.51231 16.3091 0.684185 16.4311 0.797623L20.4736 4.84012H0.439883C0.426133 4.84012 0.412383 4.84012 0.398633 4.84012C0.156289 4.85215 -0.0327735 5.0584 -0.0207422 5.30075C-0.00871095 5.54309 0.197539 5.73215 0.439883 5.72012H20.4736L16.4311 9.76262C16.3005 9.86919 16.2404 10.0393 16.2782 10.2043C16.316 10.3676 16.4449 10.4965 16.6082 10.5343C16.7732 10.5722 16.9433 10.512 17.0499 10.3814L21.8486 5.59637L22.1511 5.28012L21.8486 4.96387L17.0499 0.178873C16.9588 0.080904 16.8264 0.0310601 16.6924 0.0413726C16.6786 0.0413726 16.6649 0.0413726 16.6511 0.0413726ZM5.19738 11.4814C5.10113 11.4986 5.0152 11.5467 4.94988 11.6189L0.151133 16.4039L-0.151367 16.7201L0.151133 17.0364L4.94988 21.8214C5.05645 21.952 5.2266 22.0122 5.3916 21.9743C5.55488 21.9365 5.68379 21.8076 5.7216 21.6443C5.75941 21.4793 5.69926 21.3092 5.56863 21.2026L1.52613 17.1601H21.5599C21.718 17.1618 21.8658 17.0793 21.9466 16.9418C22.0257 16.8043 22.0257 16.6359 21.9466 16.4984C21.8658 16.3609 21.718 16.2784 21.5599 16.2801H1.52613L5.56863 12.2376C5.71129 12.1053 5.7491 11.8956 5.66316 11.722C5.57895 11.5467 5.38816 11.4504 5.19738 11.4814Z" fill="#0B111A"/>
</g>
<defs>
<clipPath id="clip0">
<rect width="22" height="22" fill="white"/>
</clipPath>
</defs>
</svg>
