<svg width="40" height="40" viewBox="0 0 40 40" fill="none" xmlns="http://www.w3.org/2000/svg">
<path d="M27.2 14.4C20.1424 14.4 14.4 20.1424 14.4 27.2C14.4 34.2576 20.1424 40 27.2 40C34.2576 40 40 34.2576 40 27.2C40 20.1424 34.2576 14.4 27.2 14.4Z" fill="white" fill-opacity="0.6"/>
<path d="M12.8 0C5.7424 0 0 5.7424 0 12.8C0 19.8576 5.7424 25.6 12.8 25.6C12.8328 25.6 12.8609 25.5969 12.8938 25.5969C13.6329 18.9257 18.9257 13.6329 25.5969 12.8938C25.5969 12.8609 25.6 12.8328 25.6 12.8C25.6 5.7424 19.8576 0 12.8 0Z" fill="white" fill-opacity="0.6"/>
<path d="M0.8 25.6V30.4C0.8 33.4764 3.32364 36 6.4 36H9.26875L6.63438 38.6344L7.76562 39.7656L12.3312 35.2L7.76562 30.6344L6.63438 31.7656L9.26875 34.4H6.4C4.19636 34.4 2.4 32.6036 2.4 30.4V25.6H0.8Z" fill="white" fill-opacity="0.6"/>
<path d="M31.4344 0.234375L26.8687 4.8L31.4344 9.36563L32.5656 8.23438L29.9312 5.6H33.6C35.8036 5.6 37.6 7.39636 37.6 9.6V14.4H39.2V9.6C39.2 6.52364 36.6764 4 33.6 4H29.9312L32.5656 1.36563L31.4344 0.234375Z" fill="white" fill-opacity="0.6"/>
</svg>
