<?xml version="1.0" encoding="utf-8"?><svg viewBox="0 0 70 70" xmlns="http://www.w3.org/2000/svg" xmlns:xlink="http://www.w3.org/1999/xlink"><style>:root>svg{display:none}:root>svg:target{display:block}</style><svg viewBox="0 0 44 44" id="advanced" xmlns="http://www.w3.org/2000/svg"><path d="M4.262 5.28c-1.385 0-2.502 1.162-2.502 2.544V37.84c0 .485.395.88.88.88h38.72c.484 0 .88-.395.88-.88V7.824c0-1.382-1.117-2.544-2.503-2.544H4.262zm0 1.76h35.475c.41 0 .743.33.743.784v8.016H3.52V7.824c0-.454.333-.784.742-.784zM16.72 8.8v5.28h21.12V8.8H16.72zm-9.68.88a1.759 1.759 0 100 3.52 1.759 1.759 0 100-3.52zm5.28 0a1.759 1.759 0 100 3.52 1.759 1.759 0 100-3.52zm6.16.88h17.6v1.76h-17.6v-1.76zM3.52 17.6h36.96v19.36H3.52V17.6zm2.64 2.64v6.16h19.36v-6.16H6.16zm22 0v14.08h9.68V20.24h-9.68zM7.92 22h15.84v2.64H7.92V22zm22 0h6.16v10.56h-6.16V22zM6.16 28.16v6.16h19.36v-6.16H6.16zm1.76 1.76h15.84v2.64H7.92v-2.64z"/></svg><svg viewBox="0 0 22 22" id="approval" xmlns="http://www.w3.org/2000/svg"><path d="M21.062 10.782L20.02 8.96l.13-2.128a.44.44 0 00-.187-.387l-1.736-1.216-.78-1.953a.44.44 0 00-.337-.27l-2.084-.347-1.563-1.433a.44.44 0 00-.423-.097L11 1.736 8.959 1.13a.44.44 0 00-.423.097L6.973 2.66l-2.084.347a.44.44 0 00-.336.27L3.772 5.23 2.036 6.445a.44.44 0 00-.187.388l.13 2.127-1.041 1.822a.44.44 0 000 .437l1.041 1.822-.13 2.127a.44.44 0 00.187.387l1.736 1.216.78 1.953a.44.44 0 00.337.27l2.084.347 1.563 1.433a.44.44 0 00.423.098l2.04-.609 2.042.608a.438.438 0 00.423-.098l1.563-1.433 2.084-.347a.44.44 0 00.336-.27l.78-1.953 1.737-1.216a.44.44 0 00.187-.387l-.13-2.127 1.04-1.822a.438.438 0 000-.436zm-10.72 4.411L6.348 11.59l.59-.653 3.224 2.91 4.823-7.486.74.477-5.385 8.355z"/></svg><svg viewBox="0 0 10 18" id="arrow-down" xmlns="http://www.w3.org/2000/svg"><path d="M5 17.5L9.33 10H.67L5 17.5zm.75-6.75V0h-1.5v10.75h1.5z"/></svg><svg viewBox="0 0 12 13" id="arrow-down-two" xmlns="http://www.w3.org/2000/svg"><path d="M.931.655H11.07L6 6.448.931.655zM.931 6.448H11.07L6 12.241.931 6.449z"/></svg><svg viewBox="0 0 30 14" id="arrow-left" xmlns="http://www.w3.org/2000/svg"><path d="M7.174.393a.598.598 0 00-.405.192L.609 7l6.16 6.415a.595.595 0 001.01-.246.59.59 0 00-.148-.584L2.848 7.6H28.8a.603.603 0 00.527-.298.605.605 0 000-.604.603.603 0 00-.527-.298H2.848L7.63 1.415A.6.6 0 007.174.393z"/></svg><svg viewBox="0 0 57 12" id="arrow-left2" xmlns="http://www.w3.org/2000/svg"><path opacity=".2" d="M.47 5.47a.75.75 0 000 1.06l4.772 4.773a.75.75 0 001.061-1.06L2.06 6l4.243-4.243a.75.75 0 00-1.06-1.06L.468 5.468zm55.915-.22H1v1.5h55.385v-1.5z"/></svg><svg viewBox="0 0 26 18" id="arrow-left3" xmlns="http://www.w3.org/2000/svg"><path d="M9.265.427a.712.712 0 00-.405.225l-7.852 7.83L.513 9l.495.517 7.852 7.83a.723.723 0 00.723.25.724.724 0 00.54-.54.723.723 0 00-.25-.722L3.258 9.72H24.52c.259.003.5-.132.633-.357.13-.225.13-.501 0-.726a.724.724 0 00-.633-.357H3.258l6.615-6.615a.717.717 0 00.154-.844.717.717 0 00-.762-.394z"/></svg><svg viewBox="0 0 8 17" id="arrow-right" xmlns="http://www.w3.org/2000/svg"><path d="M0 16.82v-16l8 8-8 8z"/></svg><svg viewBox="0 0 57 12" id="arrow-right2" xmlns="http://www.w3.org/2000/svg"><path d="M56.301 6.53a.75.75 0 000-1.06L51.528.695a.75.75 0 00-1.06 1.061L54.71 6l-4.243 4.242a.75.75 0 001.061 1.061l4.773-4.773zM.385 6.75h55.386v-1.5H.385v1.5z"/></svg><svg viewBox="0 0 36 31" id="bank-safe" xmlns="http://www.w3.org/2000/svg"><path d="M20.87.59a.72.72 0 00-.105.01H3.601A2.89 2.89 0 00.72 3.48v23.04A2.89 2.89 0 003.6 29.4h.72v.72h3.6v-.72H20.76a.723.723 0 00.235 0h7.086v.72h3.6v-.72h.72a2.89 2.89 0 002.88-2.88V3.48A2.89 2.89 0 0032.4.6H20.99a.72.72 0 00-.122-.01zM3.6 2.04h16.56V4.2H5.04a.72.72 0 00-.72.72v20.16a.72.72 0 00.72.72h15.12v2.16H3.6c-.803 0-1.44-.636-1.44-1.44V3.48c0-.804.637-1.44 1.44-1.44zm18 0h2.16v25.92H21.6V2.04zm0 10.08a.72.72 0 101.441 0 .72.72 0 00-1.44 0zm0 2.88a.72.72 0 101.441 0 .72.72 0 00-1.44 0zm0 2.88a.72.72 0 101.441 0 .72.72 0 00-1.44 0zm5.66-15.84h5.14c.805 0 1.44.636 1.44 1.44v23.04c0 .804-.635 1.44-1.44 1.44H27.26l4.05-2.25a.72.72 0 00.37-.63v-5.42c.25-.56.492-1.103.55-1.241.16-.117.274-.269.35-.398.145-.245.233-.508.309-.81.15-.605.232-1.367.232-2.21 0-.845-.081-1.607-.232-2.211a2.958 2.958 0 00-.308-.81 1.338 1.338 0 00-.342-.393 69.063 69.063 0 00-.558-1.316v-5.35a.72.72 0 00-.37-.63l-4.05-2.25zm-2.06.505l5.04 2.798v2.13c-.044-.056-.085-.11-.151-.168-.099-.086-.24-.225-.568-.225-.343 0-.627.18-.806.363-.18.183-.299.387-.407.615-.215.456-.374 1.024-.511 1.71-.275 1.371-.436 3.205-.436 5.232s.161 3.86.436 5.233c.137.686.296 1.254.511 1.71.108.228.228.43.407.614.18.184.463.363.806.363.409 0 .503-.175.587-.259.058-.057.093-.109.133-.161v2.157l-5.04 2.798V2.545zM5.76 5.64h14.4v18.72H5.76V5.64zm23.748 3.385c.187.356.393.775.598 1.23.31.691.55 1.265.715 1.665-.012.02-.03.04-.04.06a2.958 2.958 0 00-.308.81c-.151.604-.232 1.366-.232 2.21 0 .844.08 1.606.232 2.21.075.303.163.566.308.81.008.015.021.031.03.046-.138.325-.354.84-.739 1.673-.201.437-.398.83-.58 1.183-.096-.276-.196-.536-.284-.972-.246-1.234-.407-3-.407-4.95 0-1.95.16-3.716.408-4.95.091-.46.197-.745.299-1.025z"/></svg><svg viewBox="0 0 30 17" id="burger" xmlns="http://www.w3.org/2000/svg"><path d="M0 0h30v3H0zM0 7h30v3H0zM0 14h30v3H0z"/></svg><svg viewBox="0 0 43 41" id="chart" xmlns="http://www.w3.org/2000/svg"><path d="M13.2.64a.882.882 0 00-.88.88c0 .485.395.88.88.88.484 0 .88-.395.88-.88a.882.882 0 00-.88-.88zm17.6 0a.882.882 0 00-.88.88c0 .485.395.88.88.88.484 0 .88-.395.88-.88a.882.882 0 00-.88-.88zM13.2 3.28a.882.882 0 00-.88.88c0 .485.395.88.88.88.484 0 .88-.395.88-.88a.882.882 0 00-.88-.88zm17.6 0a.882.882 0 00-.88.88c0 .485.395.88.88.88.484 0 .88-.395.88-.88a.882.882 0 00-.88-.88zm9.542 0a.875.875 0 00-.715.66s-.516 1.97-1.1 3.932c-.292.98-.591 1.96-.853 2.668-.048.134-.092.19-.137.303-.117-.104-.224-.183-.358-.303a9.006 9.006 0 00-.825-.66c-.299-.206-.622-.44-1.155-.44-.708 0-.983.382-1.265.688-.281.305-.553.656-.797.99-.244.333-.46.66-.633.852-.037.045-.051.034-.082.055-.103-.03-.31-.09-.66-.33-.423-.289-.935-.718-1.43-1.155-.495-.437-.983-.873-1.458-1.237-.474-.365-.842-.743-1.595-.743-.598 0-.732.227-.962.412-.23.186-.46.427-.715.688a44.222 44.222 0 00-1.678 1.842c-.57.66-1.124 1.317-1.567 1.788-.21.223-.399.388-.523.495-.11-.038-.495-.148-.935-.33-.257-.107-.505-.21-.742-.303-.237-.092-.364-.192-.798-.192-.388 0-.46.072-.605.137-.144.066-.275.159-.44.248-.33.175-.718.385-1.1.605-.381.22-.776.426-1.072.578-.138.072-.251.161-.33.192.038 0 .027.003-.083-.027-.14-.042-.343-.114-.577-.193-.464-.162-1.052-.385-1.65-.605a83.633 83.633 0 00-1.705-.605c-.248-.086-.444-.165-.633-.22-.189-.055-.278-.11-.605-.11-.457 0-.615.179-.77.302a3.341 3.341 0 00-.412.413c-.251.285-.516.608-.77.935-.254.327-.495.657-.688.853-.072.075-.12.089-.165.11-.089-.014-.154-.031-.357-.083-.292-.076-.657-.193-1.018-.303-.36-.11-.718-.213-1.045-.302-.326-.09-.563-.165-.935-.165-.416 0-.57.134-.742.247a4.352 4.352 0 00-.495.385c-.316.286-.63.647-.935.99-.612.685-1.155 1.348-1.155 1.348a.88.88 0 101.375 1.1s.505-.657 1.072-1.293c.286-.316.592-.615.825-.825.083-.075.138-.123.193-.165.062.014.13.028.33.083.282.076.626.192.99.302.364.11.756.214 1.1.303.344.09.601.165.962.165.746 0 .977-.388 1.265-.688.29-.299.564-.629.825-.962.262-.333.506-.67.688-.88.027-.03.03-.03.055-.055.134.041.296.096.495.165.464.162 1.052.385 1.65.605.598.22 1.182.437 1.677.605.248.086.471.165.66.22.19.055.286.11.605.11.32 0 .444-.072.605-.137.162-.066.32-.131.495-.22.351-.18.767-.413 1.155-.633.389-.22.757-.45 1.045-.605.12-.065.203-.103.275-.137.007.006-.017.006.11.055.19.072.444.189.715.302.544.227 1.039.495 1.76.495.334 0 .475-.113.605-.192.131-.08.251-.155.358-.248.216-.182.416-.399.66-.66.488-.52 1.08-1.182 1.65-1.842.57-.66 1.117-1.32 1.567-1.788.21-.217.396-.388.523-.495-.045.02.113.052.44.303.385.295.866.739 1.375 1.182.299.261.619.523.935.77.09.113.223.19.357.247.107.08.196.176.303.248.54.371 1.069.715 1.787.715.74 0 .966-.412 1.238-.715s.53-.636.77-.963c.24-.326.485-.635.66-.825.041-.044.052-.034.082-.054.031.017-.01 0 .028.027.179.124.416.333.66.55.244.217.509.433.77.633.261.199.47.467 1.072.467.554 0 .715-.275.825-.413.11-.137.152-.274.22-.412a9.05 9.05 0 00.44-.99c.286-.777.581-1.777.88-2.777.595-1.998 1.128-3.988 1.128-3.988a.882.882 0 00-.99-1.1zM13.199 5.92a.882.882 0 00-.88.88c0 .485.396.88.88.88.485 0 .88-.395.88-.88a.882.882 0 00-.88-.88zm17.6 0a.882.882 0 00-.88.88c0 .485.396.88.88.88.485 0 .88-.395.88-.88a.882.882 0 00-.88-.88zM13.2 8.56a.882.882 0 00-.88.88c0 .485.396.88.88.88.485 0 .88-.395.88-.88a.882.882 0 00-.88-.88zm17.6 0a.882.882 0 00-.88.88c0 .485.396.88.88.88.485 0 .88-.395.88-.88a.882.882 0 00-.88-.88zM13.2 11.2a.882.882 0 00-.88.88c0 .485.396.88.88.88.485 0 .88-.395.88-.88a.882.882 0 00-.88-.88zm17.6 2.64a.882.882 0 00-.88.88c0 .485.396.88.88.88.485 0 .88-.395.88-.88a.882.882 0 00-.88-.88zm-17.6 2.64a.882.882 0 00-.88.88c0 .485.396.88.88.88.485 0 .88-.395.88-.88a.882.882 0 00-.88-.88zm17.6 0a.882.882 0 00-.88.88c0 .485.396.88.88.88.485 0 .88-.395.88-.88a.882.882 0 00-.88-.88zm-17.6 2.64a.882.882 0 00-.88.88c0 .485.396.88.88.88.485 0 .88-.395.88-.88a.882.882 0 00-.88-.88zm17.6 0a.882.882 0 00-.88.88c0 .485.396.88.88.88.485 0 .88-.395.88-.88a.882.882 0 00-.88-.88zm-17.6 2.64a.882.882 0 00-.88.88c0 .485.396.88.88.88.485 0 .88-.395.88-.88a.882.882 0 00-.88-.88zm17.6 0a.882.882 0 00-.88.88c0 .485.396.88.88.88.485 0 .88-.395.88-.88a.882.882 0 00-.88-.88zM13.2 24.4a.882.882 0 00-.88.88c0 .485.396.88.88.88.485 0 .88-.395.88-.88a.882.882 0 00-.88-.88zm17.6 0a.882.882 0 00-.88.88c0 .485.396.88.88.88.485 0 .88-.395.88-.88a.882.882 0 00-.88-.88zm-17.6 2.64a.882.882 0 00-.88.88c0 .485.396.88.88.88.485 0 .88-.395.88-.88a.882.882 0 00-.88-.88zm17.6 0a.882.882 0 00-.88.88c0 .485.396.88.88.88.485 0 .88-.395.88-.88a.882.882 0 00-.88-.88zm-17.6 2.64a.882.882 0 00-.88.88c0 .485.396.88.88.88.485 0 .88-.395.88-.88a.882.882 0 00-.88-.88zm17.6 0a.882.882 0 00-.88.88c0 .485.396.88.88.88.485 0 .88-.395.88-.88a.882.882 0 00-.88-.88zm-17.6 2.64a.882.882 0 00-.88.88c0 .485.396.88.88.88.485 0 .88-.395.88-.88a.882.882 0 00-.88-.88zm17.6 0a.882.882 0 00-.88.88c0 .485.396.88.88.88.485 0 .88-.395.88-.88a.882.882 0 00-.88-.88zm-17.6 2.64a.882.882 0 00-.88.88c0 .485.396.88.88.88.485 0 .88-.395.88-.88a.882.882 0 00-.88-.88zm17.6 0a.882.882 0 00-.88.88c0 .485.396.88.88.88.485 0 .88-.395.88-.88a.882.882 0 00-.88-.88zM13.2 37.6a.882.882 0 00-.88.88H2.474a.886.886 0 00-.797.963.886.886 0 00.962.797h38.72a.885.885 0 00.774-.437.888.888 0 000-.886.885.885 0 00-.774-.437h-9.68a.882.882 0 00-.88-.88.882.882 0 00-.88.88H14.08a.882.882 0 00-.88-.88z"/><path d="M13.2.64a.882.882 0 00-.88.88c0 .485.395.88.88.88.484 0 .88-.395.88-.88a.882.882 0 00-.88-.88zm17.6 0a.882.882 0 00-.88.88c0 .485.395.88.88.88.484 0 .88-.395.88-.88a.882.882 0 00-.88-.88zM13.2 3.28a.882.882 0 00-.88.88c0 .485.395.88.88.88.484 0 .88-.395.88-.88a.882.882 0 00-.88-.88zm17.6 0a.882.882 0 00-.88.88c0 .485.395.88.88.88.484 0 .88-.395.88-.88a.882.882 0 00-.88-.88zm9.542 0a.875.875 0 00-.715.66s-.516 1.97-1.1 3.932c-.292.98-.591 1.96-.853 2.668-.048.134-.092.19-.137.303-.117-.104-.224-.183-.358-.303a9.006 9.006 0 00-.825-.66c-.299-.206-.622-.44-1.155-.44-.708 0-.983.382-1.265.688-.281.305-.553.656-.797.99-.244.333-.46.66-.633.852-.037.045-.051.034-.082.055-.103-.03-.31-.09-.66-.33-.423-.289-.935-.718-1.43-1.155-.495-.437-.983-.873-1.458-1.237-.474-.365-.842-.743-1.595-.743-.598 0-.732.227-.962.412-.23.186-.46.427-.715.688a44.222 44.222 0 00-1.678 1.842c-.57.66-1.124 1.317-1.567 1.788-.21.223-.399.388-.523.495-.11-.038-.495-.148-.935-.33-.257-.107-.505-.21-.742-.303-.237-.092-.364-.192-.798-.192-.388 0-.46.072-.605.137-.144.066-.275.159-.44.248-.33.175-.718.385-1.1.605-.381.22-.776.426-1.072.578-.138.072-.251.161-.33.192.038 0 .027.003-.083-.027-.14-.042-.343-.114-.577-.193-.464-.162-1.052-.385-1.65-.605a83.633 83.633 0 00-1.705-.605c-.248-.086-.444-.165-.633-.22-.189-.055-.278-.11-.605-.11-.457 0-.615.179-.77.302a3.341 3.341 0 00-.412.413c-.251.285-.516.608-.77.935-.254.327-.495.657-.688.853-.072.075-.12.089-.165.11-.089-.014-.154-.031-.357-.083-.292-.076-.657-.193-1.018-.303-.36-.11-.718-.213-1.045-.302-.326-.09-.563-.165-.935-.165-.416 0-.57.134-.742.247a4.352 4.352 0 00-.495.385c-.316.286-.63.647-.935.99-.612.685-1.155 1.348-1.155 1.348a.88.88 0 101.375 1.1s.505-.657 1.072-1.293c.286-.316.592-.615.825-.825.083-.075.138-.123.193-.165.062.014.13.028.33.083.282.076.626.192.99.302.364.11.756.214 1.1.303.344.09.601.165.962.165.746 0 .977-.388 1.265-.688.29-.299.564-.629.825-.962.262-.333.506-.67.688-.88.027-.03.03-.03.055-.055.134.041.296.096.495.165.464.162 1.052.385 1.65.605.598.22 1.182.437 1.677.605.248.086.471.165.66.22.19.055.286.11.605.11.32 0 .444-.072.605-.137.162-.066.32-.131.495-.22.351-.18.767-.413 1.155-.633.389-.22.757-.45 1.045-.605.12-.065.203-.103.275-.137.007.006-.017.006.11.055.19.072.444.189.715.302.544.227 1.039.495 1.76.495.334 0 .475-.113.605-.192.131-.08.251-.155.358-.248.216-.182.416-.399.66-.66.488-.52 1.08-1.182 1.65-1.842.57-.66 1.117-1.32 1.567-1.788.21-.217.396-.388.523-.495-.045.02.113.052.44.303.385.295.866.739 1.375 1.182.299.261.619.523.935.77.09.113.223.19.357.247.107.08.196.176.303.248.54.371 1.069.715 1.787.715.74 0 .966-.412 1.238-.715s.53-.636.77-.963c.24-.326.485-.635.66-.825.041-.044.052-.034.082-.054.031.017-.01 0 .028.027.179.124.416.333.66.55.244.217.509.433.77.633.261.199.47.467 1.072.467.554 0 .715-.275.825-.413.11-.137.152-.274.22-.412a9.05 9.05 0 00.44-.99c.286-.777.581-1.777.88-2.777.595-1.998 1.128-3.988 1.128-3.988a.882.882 0 00-.99-1.1zM13.199 5.92a.882.882 0 00-.88.88c0 .485.396.88.88.88.485 0 .88-.395.88-.88a.882.882 0 00-.88-.88zm17.6 0a.882.882 0 00-.88.88c0 .485.396.88.88.88.485 0 .88-.395.88-.88a.882.882 0 00-.88-.88zM13.2 8.56a.882.882 0 00-.88.88c0 .485.396.88.88.88.485 0 .88-.395.88-.88a.882.882 0 00-.88-.88zm17.6 0a.882.882 0 00-.88.88c0 .485.396.88.88.88.485 0 .88-.395.88-.88a.882.882 0 00-.88-.88zM13.2 11.2a.882.882 0 00-.88.88c0 .485.396.88.88.88.485 0 .88-.395.88-.88a.882.882 0 00-.88-.88zm17.6 2.64a.882.882 0 00-.88.88c0 .485.396.88.88.88.485 0 .88-.395.88-.88a.882.882 0 00-.88-.88zm-17.6 2.64a.882.882 0 00-.88.88c0 .485.396.88.88.88.485 0 .88-.395.88-.88a.882.882 0 00-.88-.88zm17.6 0a.882.882 0 00-.88.88c0 .485.396.88.88.88.485 0 .88-.395.88-.88a.882.882 0 00-.88-.88zm-17.6 2.64a.882.882 0 00-.88.88c0 .485.396.88.88.88.485 0 .88-.395.88-.88a.882.882 0 00-.88-.88zm17.6 0a.882.882 0 00-.88.88c0 .485.396.88.88.88.485 0 .88-.395.88-.88a.882.882 0 00-.88-.88zm-17.6 2.64a.882.882 0 00-.88.88c0 .485.396.88.88.88.485 0 .88-.395.88-.88a.882.882 0 00-.88-.88zm17.6 0a.882.882 0 00-.88.88c0 .485.396.88.88.88.485 0 .88-.395.88-.88a.882.882 0 00-.88-.88zM13.2 24.4a.882.882 0 00-.88.88c0 .485.396.88.88.88.485 0 .88-.395.88-.88a.882.882 0 00-.88-.88zm17.6 0a.882.882 0 00-.88.88c0 .485.396.88.88.88.485 0 .88-.395.88-.88a.882.882 0 00-.88-.88zm-17.6 2.64a.882.882 0 00-.88.88c0 .485.396.88.88.88.485 0 .88-.395.88-.88a.882.882 0 00-.88-.88zm17.6 0a.882.882 0 00-.88.88c0 .485.396.88.88.88.485 0 .88-.395.88-.88a.882.882 0 00-.88-.88zm-17.6 2.64a.882.882 0 00-.88.88c0 .485.396.88.88.88.485 0 .88-.395.88-.88a.882.882 0 00-.88-.88zm17.6 0a.882.882 0 00-.88.88c0 .485.396.88.88.88.485 0 .88-.395.88-.88a.882.882 0 00-.88-.88zm-17.6 2.64a.882.882 0 00-.88.88c0 .485.396.88.88.88.485 0 .88-.395.88-.88a.882.882 0 00-.88-.88zm17.6 0a.882.882 0 00-.88.88c0 .485.396.88.88.88.485 0 .88-.395.88-.88a.882.882 0 00-.88-.88zm-17.6 2.64a.882.882 0 00-.88.88c0 .485.396.88.88.88.485 0 .88-.395.88-.88a.882.882 0 00-.88-.88zm17.6 0a.882.882 0 00-.88.88c0 .485.396.88.88.88.485 0 .88-.395.88-.88a.882.882 0 00-.88-.88zM13.2 37.6a.882.882 0 00-.88.88H2.474a.886.886 0 00-.797.963.886.886 0 00.962.797h38.72a.885.885 0 00.774-.437.888.888 0 000-.886.885.885 0 00-.774-.437h-9.68a.882.882 0 00-.88-.88.882.882 0 00-.88.88H14.08a.882.882 0 00-.88-.88z"/></svg><svg viewBox="0 0 22 22" id="check" xmlns="http://www.w3.org/2000/svg"><path d="M11 .88C5.42.88.88 5.42.88 11c0 5.581 4.54 10.12 10.12 10.12 5.58 0 10.12-4.539 10.12-10.12 0-2.006-.59-3.876-1.6-5.45l-.603.711a9.172 9.172 0 011.323 4.74c0 5.094-4.145 9.24-9.24 9.24-5.095 0-9.24-4.146-9.24-9.24 0-5.095 4.145-9.24 9.24-9.24 2.395 0 4.573.923 6.217 2.424l.575-.68A10.081 10.081 0 0011 .881zm8.024 2.532l-8.502 10.033-3.578-3.338-.6.644 4.253 3.966 9.099-10.736-.672-.569z"/></svg><svg viewBox="0 0 14 11" id="check2" xmlns="http://www.w3.org/2000/svg"><path fill-rule="evenodd" clip-rule="evenodd" d="M13.496.303c.594.463.675 1.288.18 1.843L5.778 11 .504 6.892C-.09 6.429-.17 5.605.324 5.049c.496-.555 1.378-.63 1.972-.167l3.125 2.433L11.524.471c.496-.555 1.378-.63 1.972-.168z"/></svg><svg viewBox="0 0 14 14" id="close" xmlns="http://www.w3.org/2000/svg"><g opacity=".3"><path d="M13.464 10.879a1.829 1.829 0 01-2.585 2.585L.536 3.121A1.828 1.828 0 013.12.536l10.344 10.343z"/><path d="M3.121 13.464A1.829 1.829 0 01.536 10.88L10.879.536a1.828 1.828 0 012.585 2.585L3.121 13.465z"/></g></svg><svg viewBox="0 0 24 25" id="close-burger" xmlns="http://www.w3.org/2000/svg"><path d="M.333 22.046L21.546.833l2.122 2.121L2.454 24.167z"/><path d="M2.454.833l21.213 21.213-2.121 2.121L.332 2.954z"/></svg><svg viewBox="0 0 16 18" id="copy" xmlns="http://www.w3.org/2000/svg"><path opacity=".3" d="M5.09 0c-.803 0-1.454.644-1.454 1.44v11.52c0 .796.651 1.44 1.455 1.44h9.454c.804 0 1.455-.644 1.455-1.44V4.68a.715.715 0 00-.213-.51l-4-3.96a.73.73 0 00-.514-.21H5.09zm5.82 1.371l3.705 3.669h-2.979a.724.724 0 01-.727-.72V1.371zM1.454 3.6C.65 3.6 0 4.244 0 5.04v11.52C0 17.356.65 18 1.455 18h9.454c.804 0 1.455-.644 1.455-1.44v-.72H5.09c-1.604 0-2.91-1.292-2.91-2.88V3.6h-.726z"/></svg><svg viewBox="0 0 44 44" id="create-doc" xmlns="http://www.w3.org/2000/svg"><path d="M4.4 0C3.073 0 1.935.825 1.182 1.952.43 3.08 0 4.548 0 6.16s.43 3.08 1.183 4.207c.752 1.128 1.89 1.953 3.217 1.953h2.64v23.76c0 4.352 3.568 7.92 7.92 7.92H26.4a.885.885 0 00.773-.437.888.888 0 000-.886.885.885 0 00-.773-.437H14.96c-3.393 0-6.16-2.767-6.16-6.16V12.32h20.24v-1.76c-.608 0-1.238-.368-1.76-1.155-.523-.787-.88-1.952-.88-3.245 0-1.293.358-2.458.88-3.245.516-.773 1.13-1.145 1.732-1.155h.028c1.946 0 4.4 2.124 4.4 6.16v15.84a.885.885 0 00.437.773.888.888 0 00.886 0 .885.885 0 00.437-.773V7.92c0-4.764-3-7.92-6.16-7.92H4.4zm0 1.76h21.615c-.055.076-.14.113-.192.192C25.07 3.08 24.64 4.548 24.64 6.16s.43 3.08 1.183 4.207c.051.08.137.117.192.193H4.4c-.608 0-1.238-.368-1.76-1.155s-.88-1.952-.88-3.245c0-1.293.358-2.458.88-3.245.522-.787 1.152-1.155 1.76-1.155zm8.553 16.72a.89.89 0 00-.757 1.004.89.89 0 001.004.756h1.76a.885.885 0 00.773-.437.888.888 0 000-.886.885.885 0 00-.773-.437h-2.007zm5.28 0a.89.89 0 00-.757 1.004.89.89 0 001.004.756h10.56a.885.885 0 00.773-.437.888.888 0 000-.886.885.885 0 00-.773-.437H18.233zm-5.28 5.28a.89.89 0 00-.757 1.004.89.89 0 001.004.756h1.76a.885.885 0 00.773-.437.888.888 0 000-.886.885.885 0 00-.773-.437h-2.007zm5.28 0a.89.89 0 00-.757 1.004.89.89 0 001.004.756h10.56a.885.885 0 00.773-.437.888.888 0 000-.886.885.885 0 00-.773-.437H18.233zM35.2 26.4c-4.85 0-8.8 3.95-8.8 8.8 0 4.85 3.95 8.8 8.8 8.8 4.85 0 8.8-3.95 8.8-8.8 0-4.85-3.95-8.8-8.8-8.8zm0 1.76a7.027 7.027 0 017.04 7.04 7.027 7.027 0 01-7.04 7.04 7.027 7.027 0 01-7.04-7.04 7.027 7.027 0 017.04-7.04zm-22.248.88a.89.89 0 00-.756 1.004.89.89 0 001.004.756h1.76a.885.885 0 00.773-.437.888.888 0 000-.886.885.885 0 00-.773-.437h-2.007zm5.28 0a.89.89 0 00-.756 1.004.89.89 0 001.004.756h7.04a.885.885 0 00.773-.437.888.888 0 000-.886.885.885 0 00-.773-.437h-7.287zM34.32 30.8v3.52H30.8v1.76h3.52v3.52h1.76v-3.52h3.52v-1.76h-3.52V30.8h-1.76zm-21.367 3.52a.89.89 0 00-.757 1.004.89.89 0 001.004.756h1.76a.885.885 0 00.773-.437.888.888 0 000-.886.885.885 0 00-.773-.437h-2.007zm5.28 0a.89.89 0 00-.757 1.004.89.89 0 001.004.756h5.28a.885.885 0 00.773-.437.888.888 0 000-.886.885.885 0 00-.773-.437h-5.527z"/><path d="M4.4 0C3.073 0 1.935.825 1.182 1.952.43 3.08 0 4.548 0 6.16s.43 3.08 1.183 4.207c.752 1.128 1.89 1.953 3.217 1.953h2.64v23.76c0 4.352 3.568 7.92 7.92 7.92H26.4a.885.885 0 00.773-.437.888.888 0 000-.886.885.885 0 00-.773-.437H14.96c-3.393 0-6.16-2.767-6.16-6.16V12.32h20.24v-1.76c-.608 0-1.238-.368-1.76-1.155-.523-.787-.88-1.952-.88-3.245 0-1.293.358-2.458.88-3.245.516-.773 1.13-1.145 1.732-1.155h.028c1.946 0 4.4 2.124 4.4 6.16v15.84a.885.885 0 00.437.773.888.888 0 00.886 0 .885.885 0 00.437-.773V7.92c0-4.764-3-7.92-6.16-7.92H4.4zm0 1.76h21.615c-.055.076-.14.113-.192.192C25.07 3.08 24.64 4.548 24.64 6.16s.43 3.08 1.183 4.207c.051.08.137.117.192.193H4.4c-.608 0-1.238-.368-1.76-1.155s-.88-1.952-.88-3.245c0-1.293.358-2.458.88-3.245.522-.787 1.152-1.155 1.76-1.155zm8.553 16.72a.89.89 0 00-.757 1.004.89.89 0 001.004.756h1.76a.885.885 0 00.773-.437.888.888 0 000-.886.885.885 0 00-.773-.437h-2.007zm5.28 0a.89.89 0 00-.757 1.004.89.89 0 001.004.756h10.56a.885.885 0 00.773-.437.888.888 0 000-.886.885.885 0 00-.773-.437H18.233zm-5.28 5.28a.89.89 0 00-.757 1.004.89.89 0 001.004.756h1.76a.885.885 0 00.773-.437.888.888 0 000-.886.885.885 0 00-.773-.437h-2.007zm5.28 0a.89.89 0 00-.757 1.004.89.89 0 001.004.756h10.56a.885.885 0 00.773-.437.888.888 0 000-.886.885.885 0 00-.773-.437H18.233zM35.2 26.4c-4.85 0-8.8 3.95-8.8 8.8 0 4.85 3.95 8.8 8.8 8.8 4.85 0 8.8-3.95 8.8-8.8 0-4.85-3.95-8.8-8.8-8.8zm0 1.76a7.027 7.027 0 017.04 7.04 7.027 7.027 0 01-7.04 7.04 7.027 7.027 0 01-7.04-7.04 7.027 7.027 0 017.04-7.04zm-22.248.88a.89.89 0 00-.756 1.004.89.89 0 001.004.756h1.76a.885.885 0 00.773-.437.888.888 0 000-.886.885.885 0 00-.773-.437h-2.007zm5.28 0a.89.89 0 00-.756 1.004.89.89 0 001.004.756h7.04a.885.885 0 00.773-.437.888.888 0 000-.886.885.885 0 00-.773-.437h-7.287zM34.32 30.8v3.52H30.8v1.76h3.52v3.52h1.76v-3.52h3.52v-1.76h-3.52V30.8h-1.76zm-21.367 3.52a.89.89 0 00-.757 1.004.89.89 0 001.004.756h1.76a.885.885 0 00.773-.437.888.888 0 000-.886.885.885 0 00-.773-.437h-2.007zm5.28 0a.89.89 0 00-.757 1.004.89.89 0 001.004.756h5.28a.885.885 0 00.773-.437.888.888 0 000-.886.885.885 0 00-.773-.437h-5.527z"/></svg><svg viewBox="0 0 34 24" id="credit-card" xmlns="http://www.w3.org/2000/svg"><path d="M4.04.48a3.61 3.61 0 00-3.6 3.6v15.84c0 1.98 1.62 3.6 3.6 3.6h25.92c1.98 0 3.6-1.62 3.6-3.6V4.08c0-1.98-1.62-3.6-3.6-3.6H4.04zm0 1.44h25.92c1.201 0 2.16.959 2.16 2.16v1.44H1.88V4.08c0-1.201.96-2.16 2.16-2.16zm-2.16 7.2h30.24v10.8c0 1.2-.959 2.16-2.16 2.16H4.04c-1.2 0-2.16-.96-2.16-2.16V9.12zm3.6 2.16v1.44H17v-1.44H5.48z"/></svg><svg viewBox="0 0 36 36" id="currency" xmlns="http://www.w3.org/2000/svg"><path d="M11.52 0C5.155 0 0 5.155 0 11.52c0 6.365 5.155 11.52 11.52 11.52.529 0 1.043-.02 1.553-.09-.068.503-.113 1.01-.113 1.53 0 6.353 5.167 11.52 11.52 11.52S36 30.833 36 24.48s-5.167-11.52-11.52-11.52c-.52 0-1.027.045-1.53.112.07-.509.09-1.023.09-1.552C23.04 5.155 17.885 0 11.52 0zm17.483.203l-3.6 3.6-.495.517.494.518 3.6 3.6 1.036-1.036-2.363-2.362h3.285c1.983 0 3.6 1.617 3.6 3.6v4.32H36V8.64c0-2.768-2.273-5.04-5.04-5.04h-3.285l2.363-2.363L29.003.203zM11.52 1.44c5.588 0 10.08 4.492 10.08 10.08 0 .678-.053 1.277-.18 1.867a11.54 11.54 0 00-8.033 8.033c-.59.127-1.19.18-1.867.18A10.053 10.053 0 011.44 11.52c0-5.588 4.492-10.08 10.08-10.08zM24.48 14.4a10.07 10.07 0 0110.08 10.08 10.07 10.07 0 01-10.08 10.08A10.07 10.07 0 0114.4 24.48 10.07 10.07 0 0124.48 14.4zM0 23.04v4.32c0 2.768 2.272 5.04 5.04 5.04h3.285l-2.362 2.363 1.034 1.035 3.6-3.6.495-.518-.495-.517-3.6-3.6-1.034 1.035 2.362 2.362H5.04a3.607 3.607 0 01-3.6-3.6v-4.32H0z"/></svg><svg viewBox="0 0 36 36" id="developers" xmlns="http://www.w3.org/2000/svg"><path d="M21.645 5.512l-8.64 24.48 1.35.495 8.64-24.48-1.35-.495zM7.155 9.607l-6.638 7.92L.135 18l.382.473 6.638 7.92 1.102-.945L2.047 18l6.21-7.447-1.102-.946zm21.69 0l-1.103.946L33.952 18l-6.21 7.448 1.103.944 6.637-7.92.383-.472-.383-.473-6.637-7.92z"/></svg><svg viewBox="0 0 22 22" id="devpost" xmlns="http://www.w3.org/2000/svg"><path d="M6.133 3.08l-4.438 7.922 4.553 7.918h9.62L20.304 11l-4.436-7.92H6.133zm.516.88h8.703L19.297 11l-3.945 7.04H6.757l-4.051-7.042L6.649 3.96zm.832 2.2v9.68H11A4.838 4.838 0 0015.84 11 4.838 4.838 0 0011 6.16H7.48zm.88.88H11A3.963 3.963 0 0114.96 11 3.963 3.963 0 0111 14.96H8.36V7.04zm.88.88v6.16h1.906c1.617 0 2.934-1.382 2.934-3.08 0-1.698-1.317-3.08-2.934-3.08H9.24zm.88.88h1.026c1.132 0 2.054.987 2.054 2.2s-.922 2.2-2.054 2.2H10.12V8.8z"/></svg><svg viewBox="0 0 38 38" id="dircetory" xmlns="http://www.w3.org/2000/svg"><path d="M18.999 0c-2.09 0-3.8 1.71-3.8 3.8 0 1.056.436 2.015 1.14 2.707l-5.842 8.977a3.744 3.744 0 00-1.378-.284c-2.09 0-3.8 1.71-3.8 3.8 0 1.383.763 2.588 1.876 3.253l-2.85 8.194A3.701 3.701 0 003.8 30.4c-2.09 0-3.8 1.71-3.8 3.8s1.71 3.8 3.8 3.8 3.8-1.71 3.8-3.8c0-1.363-.742-2.56-1.829-3.23l2.874-8.218c.157.02.312.047.475.047.163 0 .318-.026.475-.047l2.898 8.194c-1.102.668-1.853 1.879-1.853 3.253 0 2.09 1.71 3.8 3.8 3.8s3.8-1.71 3.8-3.8-1.71-3.8-3.8-3.8c-.172 0-.332.024-.499.048l-2.897-8.194c1.113-.665 1.876-1.87 1.876-3.253a3.788 3.788 0 00-1.14-2.708l5.843-8.977c.43.169.887.285 1.377.285s.947-.116 1.378-.285l5.842 8.977a3.788 3.788 0 00-1.14 2.707c0 1.384.763 2.59 1.876 3.254l-2.897 8.194c-.166-.024-.327-.047-.499-.047-2.09 0-3.8 1.71-3.8 3.8s1.71 3.8 3.8 3.8 3.8-1.71 3.8-3.8c0-1.375-.751-2.586-1.853-3.254l2.898-8.194c.157.02.312.047.475.047.163 0 .318-.026.475-.047l2.874 8.218c-1.087.67-1.829 1.867-1.829 3.23 0 2.09 1.71 3.8 3.8 3.8s3.8-1.71 3.8-3.8-1.71-3.8-3.8-3.8a3.7 3.7 0 00-.546.047l-2.85-8.194c1.113-.665 1.876-1.87 1.876-3.253 0-2.09-1.71-3.8-3.8-3.8-.49 0-.947.115-1.378.285L21.66 6.507a3.788 3.788 0 001.14-2.707c0-2.09-1.71-3.8-3.8-3.8zm0 1.52a2.27 2.27 0 012.28 2.28 2.27 2.27 0 01-2.28 2.28 2.27 2.27 0 01-2.28-2.28 2.27 2.27 0 012.28-2.28zm-9.88 15.2a2.27 2.27 0 012.28 2.28 2.27 2.27 0 01-2.28 2.28A2.27 2.27 0 016.839 19a2.27 2.27 0 012.28-2.28zm19.76 0a2.27 2.27 0 012.28 2.28 2.27 2.27 0 01-2.28 2.28 2.27 2.27 0 01-2.28-2.28 2.27 2.27 0 012.28-2.28zm-25.08 15.2a2.27 2.27 0 012.28 2.28 2.27 2.27 0 01-2.28 2.28 2.27 2.27 0 01-2.28-2.28 2.27 2.27 0 012.28-2.28zm10.64 0a2.27 2.27 0 012.28 2.28 2.27 2.27 0 01-2.28 2.28 2.27 2.27 0 01-2.28-2.28 2.27 2.27 0 012.28-2.28zm9.12 0a2.27 2.27 0 012.28 2.28 2.27 2.27 0 01-2.28 2.28 2.27 2.27 0 01-2.28-2.28 2.27 2.27 0 012.28-2.28zm10.64 0a2.27 2.27 0 012.28 2.28 2.27 2.27 0 01-2.28 2.28 2.27 2.27 0 01-2.28-2.28 2.27 2.27 0 012.28-2.28z"/></svg><svg viewBox="0 0 36 36" id="dividends" xmlns="http://www.w3.org/2000/svg"><path d="M18 3.6C10.056 3.6 3.6 10.056 3.6 18a.72.72 0 101.44 0c0-7.166 5.794-12.96 12.96-12.96 4.496 0 8.444 2.29 10.769 5.76h-3.57a.719.719 0 00-.278 1.388.72.72 0 00.279.052h6.48V5.76a.72.72 0 10-1.44 0v4.655C27.698 6.325 23.163 3.6 18 3.6zm3.564 7.912a.719.719 0 00-.575.347l-7.2 11.52a.721.721 0 00.772 1.103.72.72 0 00.449-.34l7.2-11.52a.72.72 0 00-.646-1.11zm-7.164.008c-1.185 0-2.16.976-2.16 2.16v2.16h.3c.319.797.955 1.44 1.86 1.44 1.184 0 2.16-.976 2.16-2.16v-1.44c0-1.184-.976-2.16-2.16-2.16zm0 1.44c.406 0 .72.313.72.72v1.44c0 .407-.313.72-.72.72a.709.709 0 01-.72-.72v-1.44c0-.407.313-.72.72-.72zm17.268 4.31a.72.72 0 00-.708.73c0 7.166-5.794 12.96-12.96 12.96-4.497 0-8.445-2.29-10.77-5.76l3.57.002a.72.72 0 100-1.44l-4.72-.002a.72.72 0 00-.278 0H4.32v6.48a.72.72 0 101.44 0v-4.657C8.3 29.675 12.835 32.4 18 32.4c7.944 0 14.4-6.456 14.4-14.4a.72.72 0 00-.732-.73zM21.6 18.72c-1.185 0-2.16.976-2.16 2.16v2.16h.3c.319.797.955 1.44 1.86 1.44 1.184 0 2.16-.976 2.16-2.16v-1.44c0-1.184-.976-2.16-2.16-2.16zm0 1.44c.406 0 .72.313.72.72v1.44c0 .407-.314.72-.72.72a.709.709 0 01-.72-.72v-1.44c0-.407.313-.72.72-.72z"/></svg><svg viewBox="0 0 19 9" id="drop_down" xmlns="http://www.w3.org/2000/svg"><path d="M9.156.326a.5.5 0 01.688 0l8.245 7.811a.5.5 0 01-.344.863H1.255a.5.5 0 01-.344-.863L9.156.326z"/></svg><svg viewBox="0 0 19 9" id="drop_up" xmlns="http://www.w3.org/2000/svg"><path d="M9.156 8.674a.5.5 0 00.688 0L18.089.863A.5.5 0 0017.745 0H1.255A.5.5 0 00.91.863l8.245 7.811z"/></svg><svg viewBox="0 0 50 50" id="earnmore" xmlns="http://www.w3.org/2000/svg"><path d="M39 0v2h7.563L34 14.563l-3.281-3.282-.719-.687-.719.687L18 22.562l-3.281-3.28-.719-.688-.719.687-13 13L1.72 33.72 14 21.437l3.281 3.282.719.687.719-.687L30 13.437l3.281 3.282.719.687.719-.687L48 3.437V11h2V0H39zm3 14v36h2V14h-2zm6 1v35h2V15h-2zm-18 5v30h2V20h-2zm6 0v30h2V20h-2zm-12 4v26h2V24h-2zm-12 4v22h2V28h-2zm6 2v20h2V30h-2zM6 34v16h2V34H6zm-6 4v12h2V38H0z"/></svg><svg viewBox="0 0 36 36" id="earth" xmlns="http://www.w3.org/2000/svg"><path d="M18 .72a.72.72 0 100 1.44.72.72 0 000-1.44zm-4.286.564a.72.72 0 100 1.44.72.72 0 000-1.44zm8.573 0a.72.72 0 100 1.44.72.72 0 000-1.44zM9.721 2.938a.72.72 0 100 1.44.72.72 0 000-1.44zm16.56 0a.72.72 0 100 1.44.72.72 0 000-1.44zM18 3.6C10.056 3.6 3.6 10.056 3.6 18c0 7.945 6.455 14.4 14.4 14.4 7.944 0 14.4-6.455 14.4-14.4 0-7.944-6.456-14.4-14.4-14.4zm0 1.44c2.534 0 4.89.736 6.885 1.99-.164.4-.41.99-.746 1.728a22.65 22.65 0 01-.774 1.566c-.123.219-.239.406-.33.533-.09.126-.182.19-.106.143l-1.487.911a.722.722 0 00-.132.104 1.5 1.5 0 00-.384 1.397.72.72 0 00.183.329l.41.42c-.212.072-.427.137-.652.262a1.516 1.516 0 00-.446.355c-.142.17-.261.432-.261.702 0 .47.141.876.31 1.323.083.224.174.434.29.63.059.097.12.191.224.296A.792.792 0 0021.6 18c1.165 0 1.95-.501 2.396-1.033.446-.533.651-.963 1.073-1.255.484-.335.788-.376 1.042-.441.052.076.049.043.115.171.197.379.4.963.41 1.78-.008-.007-.032.099-.128.22a3.13 3.13 0 01-.632.57c-.556.39-1.331.708-2.116.708-1.438 0-2.408.424-2.962 1.06-.554.634-.638 1.373-.638 1.82 0 1.386.864 2.34 1.673 2.86.405.258.805.43 1.128.545.13.046.192.05.287.077.114.212.27.544.699 1.558.217.515.716 1.593 1.03 2.274a12.895 12.895 0 01-6.977 2.046c-.748 0-1.476-.077-2.188-.198.148-.842.429-1.817.713-2.652.3-.884.538-1.46.66-1.805.424-.281 1.535-1.112 1.535-2.995 0-.38-.11-.67-.364-1.018-.256-.348-.743-.692-1.346-.692-.334 0-.354-.009-.48-.086-.126-.076-.38-.308-.838-.72h-.001c-.593-.532-1.31-.634-1.831-.634H10.89c-.525 0-.59-.156-.695-.367a1.237 1.237 0 01-.115-.443V18h.45c.098 0 .063-.004.062-.005.019.064.03.154.172.336.174.223.552.39.846.39.476 0 .959-.276 1.157-.62.198-.342.193-.644.193-.82 0-.363.042-.753.19-.987.148-.233.373-.454 1.25-.454.418 0 .933-.079 1.392-.427.459-.349.768-.982.768-1.733v-2.52c0-.121.008-.546-.258-.986-.266-.44-.872-.814-1.632-.814-.505 0-.842-.073-.937-.122-.094-.05-.053.053-.053-.148 0 .02.032-.255.112-.566.08-.312.2-.702.346-1.113.256-.72.604-1.493.935-2.028a12.997 12.997 0 012.927-.343zm-11.71.53a.72.72 0 100 1.44.72.72 0 000-1.44zm23.42 0a.72.72 0 100 1.44.72.72 0 000-1.44zm-16.558.414c-.134.315-.26.634-.37.943-.16.449-.291.875-.385 1.238-.093.362-.157.62-.157.925 0 .577.346 1.175.83 1.426.486.252 1.003.284 1.6.284.39 0 .37.068.4.12a.58.58 0 01.05.24v2.52c0 .42-.096.506-.2.585-.104.08-.308.135-.52.135-1.197 0-2.052.47-2.466 1.122-.324.512-.377 1.01-.392 1.418-.05-.052-.05-.102-.116-.146-.257-.171-.564-.234-.896-.234H9.9c-.456 0-.956.304-1.124.658-.168.355-.136.631-.136.782v1.301c-.6-.44-1.033-.758-1.415-1.433a2.216 2.216 0 00-.45-.57h-.001l-.216-.192h-.001a2.16 2.16 0 00-1.429-.546 12.945 12.945 0 018.024-10.576zM26.091 7.88A12.921 12.921 0 0130.96 18c0 4.065-1.868 7.685-4.79 10.06-.328-.716-.733-1.593-.897-1.982-.49-1.16-.677-1.618-.903-1.98a.72.72 0 00-.519-.333c.076.01-.17-.034-.412-.12a4.103 4.103 0 01-.828-.4c-.566-.362-1.011-.831-1.011-1.646 0-.265.05-.606.284-.873.233-.267.704-.567 1.876-.567 1.158 0 2.184-.436 2.942-.966.378-.265.692-.553.932-.854.24-.3.446-.591.446-1.06 0-1.094-.283-1.934-.577-2.5-.293-.566-.638-.903-.638-.903a.72.72 0 00-.619-.186s-1.03.169-1.995.837c-.749.518-1.07 1.168-1.359 1.513-.236.282-.473.42-.977.471-.034-.072-.064-.122-.099-.215-.1-.268-.143-.51-.171-.644.122-.058.306-.13.543-.21a.722.722 0 00.171-.084c.427-.284.494-.614.57-.856.075-.242.104-.451.104-.451a.721.721 0 00-.199-.605l-.427-.439 1.28-.785.004-.003c.255-.159.374-.328.514-.524.141-.196.278-.42.417-.67.278-.498.565-1.093.828-1.671.25-.548.469-1.065.64-1.474zM3.658 9a.72.72 0 100 1.44.72.72 0 000-1.44zm28.685 0a.72.72 0 100 1.44.72.72 0 000-1.44zM2.005 12.993a.72.72 0 100 1.44.72.72 0 000-1.44zm31.992 0a.72.72 0 100 1.44.72.72 0 000-1.44zM1.44 17.28a.72.72 0 100 1.44.72.72 0 000-1.44zm33.12 0a.72.72 0 100 1.44.72.72 0 000-1.44zM5.04 18h.083a.72.72 0 01.478.182l.215.19a.84.84 0 01.156.205c.6 1.06 1.378 1.552 2.071 2.073.384.287.892.541 1.336.901.445.36.702.726.702 1.04 0 1.258.394 2.463.76 3.504.365 1.04.68 1.964.68 2.345v.78A12.93 12.93 0 015.041 18zm-3.036 3.567a.72.72 0 100 1.44.72.72 0 000-1.44zm31.992 0a.72.72 0 100 1.44.72.72 0 000-1.44zm-22.712.033h2.576c.384 0 .603.03.867.266.443.398.699.662 1.054.878.354.215.784.296 1.229.296.116 0 .124.021.184.103.06.082.086.288.086.167 0 1.524-1.042 1.966-1.042 1.966a.718.718 0 00-.362.416c-.024.073-.373.95-.714 1.954-.29.85-.587 1.847-.76 2.8a12.863 12.863 0 01-1.44-.52V28.44c0-.915-.407-1.814-.762-2.824-.354-1.009-.679-2.081-.679-3.026 0-.369-.092-.698-.238-.99zm-7.627 3.96a.72.72 0 100 1.44.72.72 0 000-1.44zm28.685 0a.72.72 0 100 1.44.72.72 0 000-1.44zM6.291 28.99a.72.72 0 100 1.44.72.72 0 000-1.44zm23.42 0a.72.72 0 100 1.44.72.72 0 000-1.44zM9.72 31.623a.72.72 0 100 1.44.72.72 0 000-1.44zm16.56 0a.72.72 0 100 1.44.72.72 0 000-1.44zm-12.566 1.653a.72.72 0 100 1.441.72.72 0 000-1.44zm8.572 0a.72.72 0 100 1.441.72.72 0 000-1.44zm-4.286.564a.72.72 0 100 1.44.72.72 0 000-1.44z"/></svg><svg viewBox="0 0 28 22" id="exchange" xmlns="http://www.w3.org/2000/svg"><path d="M13.44.36v1.713c-2.051.162-3.26 1.182-3.847 2.21-.64 1.119-.633 2.237-.633 2.237 0 1.426.68 2.498 1.607 3.252.927.753 2.089 1.251 3.209 1.741 1.12.49 2.198.972 2.95 1.584.754.611 1.194 1.289 1.194 2.383 0 0-.007.842-.487 1.682S16.077 18.84 14 18.84c-2.053 0-2.926-.944-3.42-1.93-.492-.987-.5-1.99-.5-1.99H8.96s-.008 1.237.62 2.49c.576 1.154 1.781 2.34 3.86 2.523v1.707h1.12v-1.713c2.051-.162 3.26-1.181 3.847-2.21.64-1.119.633-2.237.633-2.237 0-1.426-.68-2.498-1.607-3.252-.927-.753-2.089-1.25-3.209-1.74s-2.198-.973-2.95-1.585c-.753-.611-1.194-1.289-1.194-2.383 0 0 .006-.842.487-1.682.48-.84 1.356-1.678 3.433-1.678 2.053 0 2.926.944 3.42 1.93.492.987.5 1.99.5 1.99h1.12s.008-1.237-.62-2.49c-.576-1.154-1.782-2.34-3.86-2.523V.36h-1.12zm9.495 1.675a.56.56 0 00-.357.974L25.74 5.96h-5.687c.07.388.108.767.108 1.12h5.58l-3.162 2.951a.56.56 0 10.764.818L27.98 6.52l-4.638-4.329a.56.56 0 00-.407-.156zM1.12 5.96a.56.56 0 100 1.12h6.75a5.821 5.821 0 01-.03-.56c0-.18.014-.368.036-.56H1.12zm3.91 5.035a.56.56 0 00-.386.17L.328 15.48l4.316 4.316a.56.56 0 10.792-.792L2.472 16.04h5.476a6.317 6.317 0 01-.108-1.12H2.472l2.964-2.964a.56.56 0 00-.407-.961zm15.1 3.925c.017.181.03.366.03.56a5 5 0 01-.036.56h7.036a.56.56 0 100-1.12h-7.03z"/></svg><svg viewBox="0 0 26 26" id="geo" xmlns="http://www.w3.org/2000/svg"><path d="M13 .12C5.893.12.12 5.893.12 13c0 7.107 5.773 12.88 12.88 12.88 7.107 0 12.88-5.773 12.88-12.88C25.88 5.893 20.107.12 13 .12zm-.56 1.186v4.962H8.433c.211-.624.45-1.204.713-1.73.921-1.842 2.09-2.964 3.294-3.232zm1.12 0c1.205.268 2.373 1.39 3.295 3.233.262.525.501 1.105.713 1.73H13.56V1.305zm-3.818.393c-.604.634-1.142 1.427-1.598 2.339a15.384 15.384 0 00-.885 2.23H3.362A11.756 11.756 0 019.742 1.7zm6.516 0c2.62.753 4.857 2.391 6.38 4.57h-3.897a15.392 15.392 0 00-.885-2.231c-.456-.912-.994-1.705-1.598-2.339zM2.648 7.412h4.29c-.38 1.534-.601 3.233-.641 5.028h-5.04c.086-1.814.577-3.52 1.39-5.028zm5.446 0h4.346v5.028H7.418c.043-1.813.28-3.522.676-5.028zm5.466 0h4.347c.396 1.506.633 3.215.676 5.028H13.56V7.412zm5.503 0h4.29a11.707 11.707 0 011.39 5.028h-5.04c-.04-1.795-.26-3.494-.64-5.028zm-17.8 6.148h5.031c.04 1.796.263 3.494.643 5.028H2.65a11.699 11.699 0 01-1.386-5.028zm6.151 0h5.026v5.028H8.094c-.397-1.506-.637-3.214-.68-5.028zm6.146 0h5.026c-.042 1.814-.283 3.522-.68 5.028H13.56V13.56zm6.146 0h5.031a11.699 11.699 0 01-1.386 5.028h-4.288c.38-1.534.604-3.232.643-5.028zm-16.34 6.172h3.893c.254.802.547 1.554.885 2.23.456.913.994 1.705 1.598 2.339a11.76 11.76 0 01-6.377-4.569zm5.067 0h4.007v4.963c-1.205-.268-2.373-1.39-3.294-3.234a13.746 13.746 0 01-.713-1.729zm5.127 0h4.008c-.212.624-.45 1.204-.713 1.73-.922 1.843-2.09 2.965-3.295 3.233v-4.963zm5.181 0h3.894a11.761 11.761 0 01-6.377 4.569c.604-.634 1.142-1.426 1.598-2.339.338-.676.631-1.428.885-2.23z"/></svg><svg viewBox="0 0 36 36" id="gg" xmlns="http://www.w3.org/2000/svg"><path d="M18 1C8.863 1 1.44 8.423 1.44 17.56c0 9.137 7.423 16.56 16.56 16.56 9.138 0 16.56-7.423 16.56-16.56C34.56 8.423 27.138 1 18 1zm0 1.44c8.36 0 15.12 6.76 15.12 15.12S26.36 32.68 18 32.68c-8.359 0-15.12-6.76-15.12-15.12S9.641 2.44 18 2.44z"/><path fill-rule="evenodd" clip-rule="evenodd" d="M7.127 20.771L11.28 25v-2.033l-3.155-3.213a2.516 2.516 0 010-3.51l3.156-3.211V11l-4.153 4.228a3.971 3.971 0 000 5.543zm3.884-9.106l-3.696 3.763a3.683 3.683 0 000 5.143l3.695 3.764v-1.25l-3.074-3.13a2.804 2.804 0 010-3.912l3.075-3.128v-1.25zM28.873 20.771L24.72 25v-2.033l3.155-3.213a2.516 2.516 0 000-3.51l-3.156-3.211V11l4.153 4.228a3.97 3.97 0 010 5.543zm-3.884-9.106l3.696 3.763a3.683 3.683 0 010 5.143l-3.695 3.764v-1.25l3.074-3.13a2.804 2.804 0 000-3.912l-3.075-3.128v-1.25z"/><path d="M12.24 22.975V25l4.158-4.239a3.96 3.96 0 000-5.522L12.241 11v2.025l3.164 3.227a2.508 2.508 0 010 3.497l-3.165 3.226zM23.76 22.975V25l-4.158-4.239a3.96 3.96 0 010-5.522L23.759 11v2.025l-3.164 3.227a2.508 2.508 0 000 3.497l3.165 3.226z"/></svg><svg viewBox="0 0 22 20" id="high-risk" xmlns="http://www.w3.org/2000/svg"><path d="M11 .76c-.485 0-.919.254-1.16.679L.619 17.654a1.35 1.35 0 00.007 1.36c.243.417.674.666 1.154.666h18.44c.48 0 .91-.25 1.154-.667a1.35 1.35 0 00.007-1.359L12.161 1.44A1.322 1.322 0 0011 .76zm-7.04.875a.44.44 0 00-.344.72l1.76 2.2a.44.44 0 10.688-.55l-1.76-2.2a.44.44 0 00-.343-.17zm14.066 0a.44.44 0 00-.33.17l-1.76 2.2a.44.44 0 00.688.55l1.76-2.2a.44.44 0 00-.358-.72zM1.305 4.718a.44.44 0 00-.182.837l2.64 1.32a.44.44 0 10.394-.788l-2.64-1.32a.44.44 0 00-.212-.049zm19.377 0a.44.44 0 00-.199.05l-2.64 1.32a.44.44 0 10.394.787l2.64-1.32a.44.44 0 00-.195-.837zM10.559 6.92h.882a.44.44 0 01.439.44v6.16a.44.44 0 01-.44.44h-.882a.438.438 0 01-.438-.44V7.36a.44.44 0 01.44-.44zM.44 8.68a.44.44 0 100 .88h2.64a.44.44 0 100-.88H.44zm18.48 0a.44.44 0 100 .88h2.64a.44.44 0 100-.88h-2.64zm-8.36 6.6h.88a.44.44 0 01.44.44v.88a.44.44 0 01-.44.44h-.88a.44.44 0 01-.44-.44v-.88a.44.44 0 01.44-.44z"/></svg><svg viewBox="0 0 34 24" id="individuals" xmlns="http://www.w3.org/2000/svg"><path d="M3.32.48A2.89 2.89 0 00.44 3.36v17.28a2.89 2.89 0 002.88 2.88h27.36a2.89 2.89 0 002.88-2.88V3.36A2.89 2.89 0 0030.68.48H3.32zm0 1.44h27.36c.804 0 1.44.636 1.44 1.44v17.28c0 .804-.636 1.44-1.44 1.44H3.32c-.804 0-1.44-.636-1.44-1.44V3.36c0-.804.636-1.44 1.44-1.44zm7.852 2.88C9.575 4.828 8.447 5.585 8 6.645c-.397.945-.318 2.01-.09 3.037-.006.009.006.015 0 .023-.127.217-.24.537-.225.922.02.554.225.97.45 1.238.118.14.169.155.27.225.115.357.242.72.427.967.124.166.265.245.383.36.008.307.017.591 0 .878-.06.115-.163.239-.495.405-.363.183-.892.368-1.44.607-.549.24-1.13.538-1.62 1.036-.49.497-.847 1.212-.9 2.092a.724.724 0 00.72.765H17a.72.72 0 00.72-.765c-.053-.88-.41-1.595-.9-2.092-.49-.498-1.072-.796-1.62-1.036-.548-.239-1.077-.424-1.44-.607-.346-.174-.467-.31-.518-.427-.014-.279.014-.557.023-.855.135-.13.306-.211.427-.383.178-.256.284-.619.383-.967.242-.18.697-.569.697-1.373 0-.338-.168-.543-.27-.788.17-.554.383-1.38.293-2.272-.05-.487-.186-.987-.54-1.418-.293-.357-.782-.554-1.305-.63-.416-.455-.996-.787-1.755-.787h-.023zm.023 1.44h.022c.456.011.763.276.81.36a.726.726 0 00.608.36c.323 0 .402.067.495.18.093.112.194.34.225.652.062.625-.13 1.488-.248 1.845a.715.715 0 00.135.698c-.008.008.09.171.09.36 0 .132-.225.338-.225.338a.72.72 0 00-.337.495 1.634 1.634 0 01-.27.675c-.132.188-.31.334-.27.315a.719.719 0 00-.405.63c0 .421-.053.832 0 1.417.008.062.022.12.045.18.236.63.762.987 1.26 1.238.498.25 1.007.444 1.485.652.478.208.892.436 1.17.72.096.098.11.287.18.405h-9.45c.07-.118.084-.307.18-.405.278-.284.692-.512 1.17-.72.478-.208.987-.402 1.485-.653.498-.25 1.027-.604 1.26-1.237a.802.802 0 00.045-.18c.053-.588 0-.996 0-1.417a.719.719 0 00-.36-.63c.011.01.006.013-.023 0-.042-.04-.182-.17-.292-.316-.155-.205-.29-.483-.315-.675a.717.717 0 00-.405-.54s.025.012-.023-.044c-.047-.057-.104-.144-.112-.383-.003-.073.067-.18.067-.18.18-.183.25-.45.18-.698-.253-.973-.286-1.9-.045-2.475.24-.568.664-.939 1.868-.967zm8.55 1.44a.725.725 0 00-.653.787c.037.397.391.69.788.653h8.64c.259.003.5-.132.633-.357.13-.225.13-.5 0-.726a.724.724 0 00-.633-.357h-8.775zm0 3.6a.725.725 0 00-.653.788.725.725 0 00.788.652h8.64c.259.003.5-.132.633-.357.13-.225.13-.5 0-.726a.724.724 0 00-.633-.357h-8.775zm0 3.6a.725.725 0 00-.653.787.725.725 0 00.788.653h8.64c.259.003.5-.132.633-.357.13-.225.13-.5 0-.726a.724.724 0 00-.633-.357h-8.775z"/></svg><svg viewBox="0 0 24 26" id="intelligence" xmlns="http://www.w3.org/2000/svg"><path d="M9.962.12C6.91.12 4.948 1.53 4.335 3.044 1.931 3.555.24 6.185.24 9.079c0 1.191.346 2.384.944 3.708-.489.598-.944 1.348-.944 2.453 0 1.45.949 2.845 2.64 3.623-.532 1.235-.418 2.427.215 3.274.657.88 1.76 1.34 2.946 1.43.36.944 1.007 1.6 1.724 1.912.817.355 1.652.401 2.197.401.834 0 1.564-.393 2.04-1.002a2.593 2.593 0 002.031 1.002h.001c.516.004 1.348-.043 2.171-.398.711-.306 1.357-.95 1.728-1.87.895-.03 1.82-.162 2.606-.604.882-.497 1.541-1.438 1.541-2.728 0-.504-.182-.97-.397-1.438.72-.358 1.286-.815 1.596-1.38.39-.713.481-1.494.481-2.222 0-1.116-.527-1.788-1.04-2.336.608-1.324 1.06-2.604 1.04-3.834-.052-3.267-2.254-5.56-4.642-6.035C18.586 1.636 17.073.12 14.038.12c-.764 0-1.506.196-1.975.8-.023.03-.041.063-.063.094-.022-.031-.04-.065-.063-.094-.469-.604-1.21-.8-1.975-.8zm0 1.12c.604 0 .88.096 1.09.365.209.27.388.873.388 1.979v3.162a.56.56 0 000 .183V9.08H9.76v-2.8H7.415A1.685 1.685 0 005.84 5.16c-.921 0-1.68.759-1.68 1.68 0 .921.759 1.68 1.68 1.68.724 0 1.341-.472 1.575-1.12H8.64v2.8h2.8v4.48H7.52v3.465c-.648.234-1.12.85-1.12 1.575 0 .921.759 1.68 1.68 1.68.921 0 1.68-.759 1.68-1.68 0-.724-.472-1.341-1.12-1.575V15.8h2.8v3.826a.56.56 0 000 .183v3.457c0 .917-.593 1.494-1.478 1.494-.472 0-1.166-.054-1.75-.308-.584-.255-1.058-.653-1.268-1.506l-.105-.426H6.4c-1.027 0-1.941-.427-2.407-1.052-.467-.625-.59-1.442.088-2.581l.355-.596-.658-.221c-1.709-.575-2.418-1.723-2.418-2.83 0-.963.357-1.449.863-2.001L2.441 13h1.824c.234.648.85 1.12 1.575 1.12.921 0 1.68-.759 1.68-1.68 0-.921-.759-1.68-1.68-1.68-.724 0-1.341.472-1.575 1.12h-2.27C1.57 10.846 1.36 9.954 1.36 9.08c0-2.57 1.61-4.82 3.428-5.043l.37-.045.1-.358c.25-.881 1.836-2.393 4.704-2.393zm4.076 0c2.868 0 3.85 1.362 4.144 2.393l.102.358.368.045c1.888.232 3.942 2.149 3.988 5.053.017 1.03-.405 2.287-1.065 3.67l-.17.355.276.279c.584.592.959.907.959 1.847 0 .631-.086 1.213-.343 1.682-.164.3-.412.563-.777.791V15.24h-5.04v-1.785a1.685 1.685 0 001.12-1.575c0-.921-.759-1.68-1.68-1.68-.921 0-1.68.759-1.68 1.68 0 .724.472 1.341 1.12 1.575v2.905h5.04v2.16a.56.56 0 00.073.371c.29.593.487 1.095.487 1.39 0 .949-.362 1.408-.971 1.751-.61.343-1.507.488-2.389.488h-.439l-.105.426c-.209.847-.698 1.251-1.294 1.508-.595.256-1.292.31-1.72.306-.889-.006-1.482-.578-1.482-1.494V20.28h2.345c.234.648.85 1.12 1.575 1.12.921 0 1.68-.759 1.68-1.68 0-.921-.759-1.68-1.68-1.68-.724 0-1.341.472-1.575 1.12H12.56v-3.826a.56.56 0 000-.182V9.733a.56.56 0 000-.182V7.4h4.585c.234.648.85 1.12 1.575 1.12.921 0 1.68-.759 1.68-1.68 0-.921-.759-1.68-1.68-1.68-.724 0-1.341.472-1.575 1.12H12.56V3.584c0-1.106.18-1.71.388-1.979.209-.269.486-.365 1.09-.365zM5.84 6.28a.548.548 0 01.553.593.548.548 0 01-.553.527.552.552 0 01-.56-.56c0-.316.244-.56.56-.56zm12.88 0c.316 0 .56.244.56.56 0 .316-.244.56-.56.56a.548.548 0 01-.553-.593.548.548 0 01.553-.527zm-2.8 5.04c.316 0 .56.244.56.56a.548.548 0 01-.593.554.548.548 0 01-.527-.554c0-.316.244-.56.56-.56zm-10.08.56c.316 0 .56.244.56.56 0 .316-.244.56-.56.56a.548.548 0 01-.553-.593.548.548 0 01.553-.527zm10.64 7.28c.316 0 .56.244.56.56 0 .316-.244.56-.56.56a.548.548 0 01-.553-.593.548.548 0 01.553-.527zm-8.432.007a.548.548 0 01.592.553c0 .316-.244.56-.56.56a.552.552 0 01-.56-.56c0-.304.229-.537.528-.553z"/></svg><svg viewBox="0 0 34 34" id="low-price" xmlns="http://www.w3.org/2000/svg"><path d="M7.505.44a.72.72 0 00-.585.72v15.12H1.16a.721.721 0 00-.517 1.237l15.84 15.84a.719.719 0 001.035 0l15.84-15.84a.721.721 0 00-.517-1.237h-5.76V1.16a.721.721 0 00-.72-.72H7.504zm.855 1.44h17.28V17c0 .396.323.72.72.72h4.725L17 31.805 2.915 17.72H7.64c.397 0 .72-.323.72-.72V1.88zm7.92 5.04v1.597c-1.187.141-3.262 1.12-3.262 3.6 0 4.616 6.727 2.222 6.727 5.715 0 1.176-.517 2.205-2.745 2.205-2.25 0-2.86-1.71-2.857-2.677h-1.485c.241 3.113 2.387 3.822 3.622 4.005v1.395h1.44v-1.373c1.069-.104 3.578-.877 3.578-3.712 0-2.382-1.938-3.049-3.803-3.488-1.536-.36-2.902-.756-2.902-2.227 0-.655.258-2.093 2.407-2.093 1.485 0 2.222.929 2.453 2.07h1.462c-.433-1.597-1.114-3.026-3.195-3.375V6.92h-1.44z"/></svg><svg viewBox="0 0 22 16" id="mail" xmlns="http://www.w3.org/2000/svg"><path d="M0 .08v15.84h22V.08H0zm.88.88h20.24v14.08H.88V.96zm.88 2.164v1.038L11 9.399l9.24-5.237V3.124L11 8.36 1.76 3.124z"/></svg><svg viewBox="0 0 22 22" id="male-user" xmlns="http://www.w3.org/2000/svg"><path d="M11 .884C5.416.884.88 5.42.88 11.004c0 5.325 4.128 9.695 9.354 10.088l.031.002c.243.018.488.03.735.03a10.212 10.212 0 00.766-.032c5.226-.393 9.354-4.762 9.354-10.088C21.12 5.42 16.584.884 11 .884zm0 .88a9.233 9.233 0 019.24 9.24 9.206 9.206 0 01-2.644 6.469c-.7-.51-1.564-.813-2.338-1.085-.917-.32-1.784-.625-2.024-1.155-.038-.452-.035-.804-.031-1.21v-.171c.391-.372.883-1.157 1.05-1.882.291-.155.646-.526.753-1.415.053-.441-.073-.783-.249-1.012.238-.817.71-2.883-.117-4.216-.35-.564-.88-.92-1.574-1.06-.39-.483-1.127-.747-2.112-.747-1.496.028-2.593.486-3.258 1.362-.785 1.034-.933 2.596-.442 4.646-.182.23-.313.576-.259 1.026.107.89.461 1.26.751 1.415.168.726.66 1.51 1.05 1.883l.001.167c.004.407.007.76-.03 1.214-.242.531-1.113.839-2.035 1.164-.77.272-1.628.576-2.326 1.079a9.207 9.207 0 01-2.646-6.472A9.233 9.233 0 0111 1.764z"/></svg><svg viewBox="0 0 22 22" id="manager" xmlns="http://www.w3.org/2000/svg"><path d="M11.88 1.76c-2.181 0-3.762.856-4.593 2.118-.78 1.185-.856 2.693-.33 4.083-.194.24-.357.554-.316 1.045v.028c.074.536.236.914.44 1.182.1.13.248.134.371.207.074.476.215.959.413 1.347.112.22.223.414.344.578.055.075.134.116.192.178.005.57.028 1.018-.041 1.595-.136.36-.462.633-.99.908-.55.285-1.274.546-2.008.866-.733.32-1.478.708-2.076 1.32-.598.612-1.026 1.45-1.086 2.558a.442.442 0 00.44.467h16.72a.44.44 0 00.44-.467c-.06-1.107-.478-1.946-1.073-2.558-.594-.612-1.342-1.002-2.076-1.32-.734-.318-1.46-.557-2.021-.839a3.374 3.374 0 01-.564-.357.21.21 0 00-.027-.028.427.427 0 00-.138-.11 1.275 1.275 0 01-.302-.412c-.035-.59-.042-1.071-.042-1.595.054-.062.13-.107.18-.179.116-.167.236-.371.343-.591.189-.389.337-.846.426-1.293.141-.072.303-.077.413-.22.211-.276.335-.67.385-1.21.027-.32.005-.608-.097-.852-.032-.078-.087-.15-.137-.22a3.31 3.31 0 00.275-1.059 5.22 5.22 0 00-.124-1.829c-.16-.622-.457-1.227-.935-1.691-.412-.4-.992-.646-1.664-.715l-.343-.687a.437.437 0 00-.4-.248zm-.261.908l.302.605c.074.152.229.249.399.247.612 0 1.035.205 1.361.523.327.317.557.773.688 1.278.13.506.158 1.047.11 1.513-.048.466-.194.852-.303.99a.439.439 0 00.206.687c-.001.004-.008.009 0 .028a.988.988 0 01.055.44c-.04.428-.146.66-.22.756-.074.096-.111.083-.096.083a.439.439 0 00-.426.37c-.057.375-.23.838-.413 1.21-.09.188-.18.351-.26.468-.082.117-.168.19-.125.165a.444.444 0 00-.22.371c0 .616-.003 1.166.042 1.884a.428.428 0 00.027.124c.048.127.11.248.179.357l-1.54.633h-.77l-1.581-.646c.074-.122.132-.256.178-.399a.462.462 0 00.028-.082c.093-.746.041-1.27.041-1.912a.44.44 0 00-.22-.385c.033.02-.053-.038-.137-.151a3.132 3.132 0 01-.275-.454c-.184-.362-.35-.828-.385-1.21a.44.44 0 00-.4-.398c.016.003.006 0-.027 0a.25.25 0 01-.068-.07c-.078-.1-.188-.35-.248-.755v-.014c-.002-.007.002-.007 0-.014-.007-.333.2-.519.165-.495a.439.439 0 00.151-.536c-.54-1.22-.462-2.527.193-3.52.622-.946 1.796-1.624 3.589-1.691zM8.359 15.44l1.802.729.399.99-.729 2.2H3.19c.12-.638.34-1.143.715-1.526.467-.48 1.124-.825 1.815-1.128.69-.302 1.411-.562 2.049-.893.208-.109.405-.238.59-.372zm5.226.014c.2.146.42.272.646.385.643.323 1.372.567 2.063.866.69.3 1.335.65 1.8 1.128.372.381.596.888.716 1.526h-6.641l-.73-2.2.4-.99 1.746-.715z"/></svg><svg viewBox="0 0 22 22" id="market" xmlns="http://www.w3.org/2000/svg"><g clip-path="url(#bmclip0)"><path d="M10.999 0a3.093 3.093 0 00-3.08 3.08H5.636l-.041.385-1.196 10.56-.055.495h13.31l-.055-.495-1.197-10.56-.04-.385h-2.283A3.093 3.093 0 0010.999 0zm0 .88c1.211 0 2.2.988 2.2 2.2h-4.4c0-1.212.988-2.2 2.2-2.2zM6.42 3.96h1.499v.564a.872.872 0 00-.44.756.88.88 0 101.76 0 .872.872 0 00-.44-.756V3.96h4.4v.564a.872.872 0 00-.44.756.88.88 0 101.76 0 .872.872 0 00-.44-.756V3.96h1.498l1.087 9.68H5.334L6.42 3.96zm-2.97 7.824a.422.422 0 00-.11.041L.37 13.2a.37.37 0 00-.041.014l-.041.013a.444.444 0 00-.124.056.196.196 0 00-.028.013v.014a.44.44 0 00-.137.536V15.4a.44.44 0 00.22.385l10.56 6.16c.136.08.304.08.44 0l10.56-6.16a.44.44 0 00.22-.385v-1.54a.44.44 0 00-.165-.564.408.408 0 00-.096-.055l-.014-.014a.47.47 0 00-.083-.027l-2.983-1.375a.427.427 0 00-.207-.041.442.442 0 00-.431.362c-.036.21.08.416.28.49l2.296 1.045L11 19.291 1.4 13.681l2.296-1.045a.44.44 0 00-.206-.852H3.45zM.879 14.41l9.9 5.775c.136.08.304.08.44 0l9.9-5.775v.729l-10.12 5.912L.879 15.14v-.729z"/></g><defs><clipPath id="bmclip0"><path d="M0 0h22v22H0z"/></clipPath></defs></svg><svg viewBox="0 0 36 28" id="megaphone" xmlns="http://www.w3.org/2000/svg"><path d="M33.84.32c-.987 0-1.817.686-2.07 1.598L4.095 10.22c-.346-.737-1.074-1.26-1.935-1.26C.976 8.96 0 9.936 0 11.12v4.32c0 1.184.976 2.16 2.16 2.16.847 0 1.58-.498 1.935-1.215l5.737 2.003-.562 1.485v.022a3.211 3.211 0 002.025 4.05l2.992 1.013a3.211 3.211 0 004.05-2.025l.473-1.418 12.96 4.545c.247.923 1.077 1.62 2.07 1.62 1.184 0 2.16-.976 2.16-2.16V2.48c0-1.184-.976-2.16-2.16-2.16zm0 1.44a.71.71 0 01.72.72v23.04a.71.71 0 01-.72.72.708.708 0 01-.72-.697V2.48v-.067a.711.711 0 01.72-.653zm-2.16 1.688v21.06L4.32 14.923V11.66l27.36-8.212zM2.16 10.4c.382 0 .686.278.72.653.003.022 0 .045 0 .067v4.388a.711.711 0 01-.72.652.71.71 0 01-.72-.72v-4.32a.71.71 0 01.72-.72zm9.022 8.46l6.255 2.183-.472 1.417a1.75 1.75 0 01-2.227 1.125l-2.993-.99c-.922-.31-1.398-1.302-1.102-2.227.002-.009-.003-.014 0-.023l.54-1.485z"/></svg><svg viewBox="0 0 50 50" id="mind-map" xmlns="http://www.w3.org/2000/svg"><path d="M6 0C2.7 0 0 2.7 0 6s2.7 6 6 6a5.935 5.935 0 003.469-1.125l7.781 7.813a9.922 9.922 0 00-.656 11.687l-6.563 5.188A5.986 5.986 0 006 34c-3.3 0-6 2.7-6 6s2.7 6 6 6 6-2.7 6-6a5.881 5.881 0 00-.75-2.875l6.594-5.188C19.664 33.813 22.187 35 25 35c1.328 0 2.59-.246 3.75-.719l2.625 4.969C29.941 40.348 29 42.063 29 44c0 3.3 2.7 6 6 6s6-2.7 6-6-2.7-6-6-6c-.652 0-1.285.117-1.875.313l-2.625-4.97a10.058 10.058 0 004.031-5.312L38 28.75c-.004.082 0 .168 0 .25 0 3.3 2.7 6 6 6s6-2.7 6-6-2.7-6-6-6a6.013 6.013 0 00-5.594 3.813l-3.468-.75c.035-.348.062-.707.062-1.063 0-3.934-2.309-7.34-5.625-8.969l1.531-4.125c.352.063.727.094 1.094.094 3.3 0 6-2.7 6-6s-2.7-6-6-6-6 2.7-6 6c0 2.215 1.234 4.148 3.031 5.188L27.5 15.343A9.797 9.797 0 0025 15c-2.395 0-4.59.84-6.313 2.25l-7.812-7.781A5.935 5.935 0 0012 6c0-3.3-2.7-6-6-6zm0 2c2.223 0 4 1.777 4 4s-1.777 4-4 4-4-1.777-4-4 1.777-4 4-4zm26 0c2.223 0 4 1.777 4 4s-1.777 4-4 4-4-1.777-4-4 1.777-4 4-4zm-7 15c4.434 0 8 3.574 8 8 0 4.434-3.566 8-8 8-4.43 0-8-3.566-8-8 0-2.152.844-4.094 2.219-5.531.082-.063.156-.137.218-.219A7.968 7.968 0 0125 17zm19 8c2.223 0 4 1.777 4 4s-1.777 4-4 4-4-1.777-4-4 1.777-4 4-4zM6 36c2.223 0 4 1.777 4 4s-1.777 4-4 4-4-1.777-4-4 1.777-4 4-4zm29 4c2.223 0 4 1.777 4 4s-1.777 4-4 4-4-1.777-4-4c0-1.516.828-2.82 2.063-3.5.03-.008.062-.02.093-.031.012-.008.02-.024.032-.032A4.03 4.03 0 0135 40z"/></svg><svg viewBox="0 0 34 32" id="online-payment" xmlns="http://www.w3.org/2000/svg"><path d="M10.88.16a2.53 2.53 0 00-2.52 2.52v14.76H8a1.08 1.08 0 000 2.16h18a1.08 1.08 0 000-2.16h-.36V2.68A2.53 2.53 0 0023.12.16H10.88zm0 1.44h1.08v16.56H9.8V2.68c0-.605.475-1.08 1.08-1.08zm3.24 0h9c.604 0 1.08.475 1.08 1.08v15.48H14.12V1.6zM2.6 5.92c-1.184 0-2.16.976-2.16 2.16v15.615a.738.738 0 000 .427v1.238c0 1.184.976 2.16 2.16 2.16h9.945l-.473 2.88h-1.62a.722.722 0 00-.686.754c.02.396.357.706.754.686h12.96c.259.003.5-.132.633-.357.129-.225.129-.5 0-.726a.724.724 0 00-.633-.357h-1.553l-.472-2.88H31.4c1.184 0 2.16-.976 2.16-2.16v-1.305a.731.731 0 000-.293V8.08c0-1.184-.976-2.16-2.16-2.16h-5.04v1.44h5.04c.408 0 .72.312.72.72V23.2H1.88V8.08c0-.408.312-.72.72-.72h5.04V5.92H2.6zm-.72 18.72h30.24v.72c0 .408-.312.72-.72.72H2.6a.707.707 0 01-.72-.72v-.72zm12.15 2.88h5.94l.495 2.88h-6.93l.495-2.88z"/></svg><svg viewBox="0 0 50 50" id="paper-plane" xmlns="http://www.w3.org/2000/svg"><path d="M48.907 0a.99.99 0 00-.375.125l-48 26a.996.996 0 00-.52.957c.035.395.3.73.676.855l13.625 4.47L13 45.906a.995.995 0 00.594 1.034.983.983 0 001.156-.285l8.594-9.718 12.969 12.78c.254.25.62.344.965.247a.985.985 0 00.691-.715l12-48A.99.99 0 0048.906 0zm-1.438 2.937L36.438 47.063 24.594 35.374l17.219-23.781a.994.994 0 10-1.438-1.375L15.22 30.594 3.5 26.78 47.47 2.937zM35.781 16.5L22.657 34.719a.95.95 0 00-.094.125l-.063.062c-.023.032-.043.063-.062.094l-7.156 8.031 1.062-10.812L35.782 16.5z"/></svg><svg viewBox="0 0 21 19" id="pass-window" xmlns="http://www.w3.org/2000/svg"><path d="M2.08.08C1.352.08.76.672.76 1.4v13.2c0 .728.592 1.32 1.32 1.32h7.863l.88-.88H2.08a.44.44 0 01-.44-.44v-11h16.72V8.09h.003c.15.031.297.07.44.116l.066.024a4.362 4.362 0 01.37.14V1.4A1.32 1.32 0 0017.92.08H2.08zm.44 1.32a.44.44 0 110 .88.44.44 0 010-.88zm1.32 0a.44.44 0 110 .88.44.44 0 010-.88zm1.32 0a.44.44 0 110 .88.44.44 0 010-.88zM17.7 8.836c-1.804 0-3.3 1.496-3.3 3.3 0 1.804 1.496 3.3 3.3 3.3 1.804 0 3.3-1.496 3.3-3.3 0-1.804-1.452-3.3-3.3-3.3zM4.28 10.2a.88.88 0 100 1.76.88.88 0 000-1.76zm3.52 0a.88.88 0 100 1.76.88.88 0 000-1.76zm3.52 0a.88.88 0 100 1.76.88.88 0 000-1.76zm7.04.396c.484 0 .88.396.88.88s-.396.88-.88.88a.883.883 0 01-.88-.88c0-.484.396-.88.88-.88zm-4.664 2.772l-2.684 2.684a.4.4 0 00-.132.308v2.2c0 .264.176.44.44.44h2.156c.132 0 .22-.044.308-.132l.308-.308h1.232c.264 0 .44-.176.44-.44v-.88h.88c.264 0 .44-.176.44-.44v-.484c-.704-.176-1.364-.44-1.936-.88l-1.716 1.628a.477.477 0 01-.308.132.399.399 0 01-.308-.132.426.426 0 010-.616l1.716-1.628c-.352-.44-.66-.924-.836-1.452z"/></svg><svg viewBox="0 0 22 24" id="percent" xmlns="http://www.w3.org/2000/svg"><path d="M3.8.48c-1.137 0-2.057.796-2.656 1.845C.545 3.374.2 4.738.2 6.24c0 1.502.346 2.866.945 3.915C1.744 11.204 2.663 12 3.8 12s2.056-.796 2.655-1.845c.6-1.05.945-2.413.945-3.915 0-1.502-.346-2.866-.945-3.915C5.855 1.275 4.935.48 3.8.48zm13.612.067L2.854 23.452H4.52L19.054.547h-1.642zM3.799 1.92c.456 0 .976.326 1.418 1.102.441.777.742 1.938.742 3.218s-.3 2.441-.742 3.217c-.442.777-.962 1.103-1.418 1.103-.455 0-.976-.326-1.417-1.103-.442-.776-.743-1.937-.743-3.217s.301-2.441.743-3.218c.441-.776.962-1.102 1.417-1.102zM18.2 12c-1.136 0-2.056.796-2.655 1.845-.599 1.049-.945 2.413-.945 3.915 0 1.502.346 2.866.945 3.915.6 1.049 1.519 1.845 2.655 1.845s2.056-.796 2.655-1.845c.6-1.05.945-2.413.945-3.915 0-1.502-.346-2.866-.945-3.915C20.255 12.795 19.336 12 18.2 12zm0 1.44c.456 0 .976.326 1.418 1.103.441.776.742 1.937.742 3.217s-.3 2.441-.742 3.217c-.442.777-.962 1.103-1.418 1.103-.455 0-.976-.326-1.417-1.102-.442-.777-.743-1.938-.743-3.218s.301-2.441.743-3.218c.441-.776.962-1.102 1.417-1.102z"/></svg><svg viewBox="0 0 44 44" id="practice" xmlns="http://www.w3.org/2000/svg"><g clip-path="url(#btclip0)"><path d="M21.89 6.16a.942.942 0 00-.275.082L.495 16.802a.883.883 0 00-.509.798c0 .34.2.653.51.797L3.52 19.91v12.815c-1.017.368-1.76 1.337-1.76 2.475 0 .509.172.897.358 1.32.185.423.402.839.632 1.237.46.794.935 1.458.935 1.458L4.4 40.26l.715-1.045s.474-.664.935-1.458c.23-.398.447-.814.633-1.237.185-.423.357-.811.357-1.32 0-1.138-.742-2.107-1.76-2.475V20.79l3.52 1.76v2.97c0 .536.354.877.633 1.072.278.196.577.32.935.44.715.241 1.66.44 2.805.605 2.292.327 5.39.523 8.827.523 3.438 0 6.535-.196 8.828-.523 1.144-.165 2.09-.364 2.805-.605.357-.12.656-.244.935-.44.278-.195.632-.536.632-1.072v-2.97l8.305-4.153a.883.883 0 00.509-.797c0-.34-.2-.653-.509-.798l-21.12-10.56a.882.882 0 00-.495-.082zM22 8.03l19.14 9.57-5.94 2.97v-1.21c0-.54-.354-.88-.632-1.073-.279-.192-.578-.32-.935-.44-.719-.24-1.657-.44-2.805-.605-2.297-.326-5.404-.522-8.828-.522-3.424 0-6.531.196-8.827.522-1.149.165-2.087.365-2.805.605-.358.12-.657.248-.935.44-.279.193-.633.533-.633 1.073v1.21L2.86 17.6 22 8.03zm0 10.45c3.355 0 6.408.186 8.58.495 1.086.155 1.942.344 2.475.522.196.066.3.12.385.165v4.29c-.69-.216-1.557-.398-2.612-.55-2.293-.326-5.39-.522-8.828-.522-3.437 0-6.535.196-8.827.522-1.056.152-1.922.334-2.613.55v-4.29c.086-.044.19-.1.385-.165.533-.178 1.389-.367 2.475-.522 2.173-.31 5.225-.495 8.58-.495zm0 6.16c3.369 0 6.411.186 8.58.495.798.113 1.327.25 1.843.385-.516.134-1.045.271-1.843.385-2.169.31-5.211.495-8.58.495-3.369 0-6.41-.186-8.58-.495a14.994 14.994 0 01-1.842-.385 15.031 15.031 0 011.842-.385c2.17-.31 5.211-.495 8.58-.495zM4.4 34.32c.488 0 .88.392.88.88 0-.024-.048.278-.192.605-.145.327-.368.712-.578 1.072-.058.104-.051.097-.11.193-.058-.096-.051-.09-.11-.193-.21-.36-.433-.745-.577-1.072-.145-.327-.193-.63-.193-.605 0-.488.392-.88.88-.88z"/></g><defs><clipPath id="btclip0"><path d="M0 0h44v44H0z"/></clipPath></defs></svg><svg viewBox="0 0 46 46" id="process" xmlns="http://www.w3.org/2000/svg"><path d="M23 0c-1.06 0-2.11.087-3.135.227a1 1 0 10.27 1.982A21.27 21.27 0 0123 2c7.576 0 14.148 4.015 17.848 10H34a1 1 0 100 2h9a1 1 0 001-1V4a1.001 1.001 0 10-2 0v6.107C37.865 4.026 30.923 0 23 0zM4 2a1 1 0 100 2h6.023A23.01 23.01 0 000 23c0 1.083.063 2.11.19 3.123a1 1 0 101.984-.246A23.066 23.066 0 012 23C2 15.468 5.98 8.787 12 5.092V12a1 1 0 102 0V3a1 1 0 00-1-1H4zm40.748 16.986a1 1 0 00-.945 1.143c.123.947.197 1.914.197 2.871 0 7.99-4.467 14.859-11 18.424V34a1 1 0 10-2 0v9a1 1 0 001 1h9a1 1 0 100-2h-5.107C41.974 37.865 46 30.923 46 23c0-1.059-.08-2.11-.213-3.129a1 1 0 00-1.039-.885zM3 32a1 1 0 00-1 1v9a1 1 0 102 0v-6.08C8.15 42.006 15.135 46 23 46c.713 0 1.404-.027 2.082-.082a1.002 1.002 0 00.224-1.95 1 1 0 00-.388-.044A23.49 23.49 0 0123 44c-7.527 0-14.16-3.999-17.865-10H12a1 1 0 100-2H3z"/></svg><svg viewBox="0 0 34 32" id="profit-money" xmlns="http://www.w3.org/2000/svg"><path d="M1.88.88C1.086.88.44 1.526.44 2.32v21.6c0 .794.646 1.44 1.44 1.44h10.8v2.16h-2.16c-1.19 0-2.16.969-2.16 2.16v1.44h17.28v-1.44c0-1.191-.97-2.16-2.16-2.16h-2.16v-2.16h10.8c.794 0 1.44-.646 1.44-1.44V2.32c0-.794-.646-1.44-1.44-1.44H1.88zm0 1.44h30.24l.001 21.6H1.88v-2.88h30.24V19.6H1.88V2.32zm14.4.72v1.502c-1.231.196-2.033.873-2.424 1.555-.463.808-.456 1.614-.456 1.614 0 1.11.581 1.97 1.313 2.494.732.523 1.594.814 2.398 1.11.805.295 1.548.595 2.03.975.48.38.739.765.739 1.55 0 0-.005.522-.34 1.059-.336.537-.932 1.1-2.54 1.1-1.56 0-2.142-.673-2.506-1.401a3.808 3.808 0 01-.374-1.478h-1.44s-.01 1.05.526 2.122c.47.939 1.463 1.919 3.074 2.147v1.49h1.44V17.4c1.567-.182 2.548-.95 3.04-1.738.565-.903.56-1.821.56-1.821 0-1.18-.552-2.099-1.285-2.679-.734-.58-1.61-.898-2.426-1.198-.816-.3-1.575-.584-2.057-.93-.483-.345-.712-.649-.712-1.322 0 0 .007-.449.264-.897S15.77 5.92 17 5.92c1.2 0 1.602.494 1.876 1.042.274.548.284 1.118.284 1.118h1.44s.01-.87-.436-1.762c-.378-.756-1.186-1.544-2.444-1.77V3.04h-1.44zm12.24 18.72v1.44h1.44v-1.44h-1.44zm-14.4 3.6h5.76v2.16h-5.76v-2.16zm-3.6 3.6h12.96c.397 0 .72.323.72.72H9.8c0-.397.323-.72.72-.72z"/></svg><svg viewBox="0 0 32 36" id="protect" xmlns="http://www.w3.org/2000/svg"><path d="M16 0c-1.766 0-3.257.976-5.467 2.115-2.211 1.14-5.178 2.514-9.81 3.532l-.563.135v.563c0 11.03 3.867 18.402 7.74 22.973 3.873 4.57 7.808 6.39 7.808 6.39l.315.157.315-.157S31.84 27.698 31.84 6.345v-.563l-.562-.135c-4.633-1.018-7.6-2.393-9.81-3.532C19.257.975 17.766 0 16 0zm0 1.44c1.184 0 2.557.796 4.815 1.958 2.146 1.102 5.164 2.455 9.54 3.487-.264 19.524-13.452 26.848-14.377 27.337-.447-.216-3.564-1.774-6.998-5.827-3.62-4.272-7.203-11.143-7.335-21.51C6.021 5.853 9.04 4.5 11.185 3.398 13.444 2.236 14.816 1.44 16 1.44zm5.535 9.09l-.382.607-5.85 9.09-3.87-3.487-.518-.473-.967 1.058.54.495 4.455 4.05.63.563.472-.72 6.323-9.81.382-.608-1.215-.765z"/></svg><svg viewBox="0 0 48 44" id="replace" xmlns="http://www.w3.org/2000/svg"><path d="M24 0C11.855 0 2 9.855 2 22c0 5.033 1.673 9.64 4.473 13.344l-5.18-1.584a1.001 1.001 0 00-.586 1.914l8.937 2.73 1.243-9.195a1 1 0 10-1.983-.268l-.72 5.344A19.987 19.987 0 014 22C4 10.935 12.935 2 24 2V0zm2.111.076l-.283 1.977.994.146c.993.136 0 0 .992.137l.284-1.977-.995-.146-.992-.137zm4.12.799l-.655 1.889.943.322.946.322.654-1.888L30.23.875zm3.878 1.56l-.996 1.727.864.502.875.504.995-1.738-1.738-.994zm4.246 3.16l-1.242 9.196a1.002 1.002 0 001.598.93 1 1 0 00.385-.662l.72-5.344A19.987 19.987 0 0144 22c0 11.065-8.935 20-20 20v2c12.145 0 22-9.855 22-22 0-5.033-1.674-9.64-4.473-13.344l5.18 1.584a1.001 1.001 0 00.586-1.914l-8.938-2.73zM13.08 38.79l-1.002 1.733 1.734 1.001 1.004-1.722-1.736-1.012zm3.38 1.773l-.661 1.885 1.884.653.663-1.885-.942-.326-.943-.327zm3.645 1.086l-.289 1.977.992.15.993.14.29-1.975-.994-.15-.992-.142z"/></svg><svg viewBox="0 0 35 33" id="request-money" xmlns="http://www.w3.org/2000/svg"><path d="M3.32.16v2.16H.44v18.72H13.4v2.88H8.9l1.08 1.193 5.76 6.457.54.585.54-.585 5.76-6.457 1.08-1.193h-4.5v-2.88h12.96v-2.16h2.16V.16H3.32zM4.76 1.6h28.08v15.84h-.72V2.32H4.76V1.6zM1.88 3.76h1.665c-.155.284-.27.557-.36.765-.101.23-.211.391-.18.36.03-.03-.118.068-.338.158-.216.087-.492.182-.787.315V3.76zm4.005 0h20.79c.636 0 .796.22 1.035.63.118.205.228.467.337.72.11.253.197.512.473.788.273.272.565.365.832.472.268.107.518.214.743.315.225.101.413.211.495.293.082.081.09.1.09.202v9c0 .101-.008.121-.09.203-.082.081-.27.19-.495.292-.225.101-.475.208-.743.315-.267.107-.56.2-.832.473-.276.275-.363.534-.473.787-.11.253-.219.515-.337.72-.24.41-.4.63-1.035.63H14.277a.672.672 0 00-.225-.022.614.614 0 00-.067.022h-8.1c-.636 0-.796-.22-1.035-.63-.118-.205-.228-.464-.338-.72-.106-.244-.196-.5-.45-.765l-.022-.022c-.273-.273-.565-.366-.833-.473a19.283 19.283 0 01-.742-.315c-.225-.101-.413-.21-.495-.292-.082-.082-.09-.102-.09-.203v-9a.252.252 0 01.09-.203c.081-.08.27-.19.495-.292.225-.101.475-.208.742-.315.268-.107.56-.2.833-.472.276-.276.363-.532.472-.788.11-.256.22-.515.338-.72.059-.101.12-.191.18-.27.059-.079.104-.149.18-.202.149-.107.357-.158.675-.158zm23.13 0h1.665v1.598c-.295-.133-.571-.228-.788-.315-.222-.09-.368-.189-.337-.158.03.031-.079-.13-.18-.36-.09-.208-.205-.48-.36-.765zm-12.735.72c-3.62 0-6.48 3.277-6.48 7.2 0 3.924 2.86 7.2 6.48 7.2 3.62 0 6.48-3.276 6.48-7.2 0-3.923-2.86-7.2-6.48-7.2zm0 1.44c2.742 0 5.04 2.529 5.04 5.76 0 3.232-2.298 5.76-5.04 5.76s-5.04-2.528-5.04-5.76c0-3.231 2.298-5.76 5.04-5.76zM5.84 10.24c-.984 0-1.8.816-1.8 1.8 0 .985.816 1.8 1.8 1.8.984 0 1.8-.816 1.8-1.8 0-.984-.816-1.8-1.8-1.8zm20.88 0c-.984 0-1.8.816-1.8 1.8 0 .985.816 1.8 1.8 1.8.984 0 1.8-.816 1.8-1.8 0-.984-.816-1.8-1.8-1.8zM5.84 11.68c.208 0 .36.152.36.36s-.152.36-.36.36a.349.349 0 01-.36-.36c0-.208.152-.36.36-.36zm20.88 0c.208 0 .36.152.36.36s-.152.36-.36.36a.349.349 0 01-.36-.36c0-.208.152-.36.36-.36zM1.88 18.003c.295.132.57.227.787.315.22.09.369.188.338.157-.031-.03.079.13.18.36.09.208.205.481.36.765H1.88v-1.597zm28.8 0V19.6h-1.665c.155-.284.27-.557.36-.765.101-.23.21-.39.18-.36-.031.031.115-.067.337-.157.217-.088.493-.183.788-.315zM14.84 21.04h2.88v4.32h2.722l-4.162 4.635-4.163-4.635h2.723v-4.32z"/></svg><svg viewBox="0 0 26 28" id="security" xmlns="http://www.w3.org/2000/svg"><path d="M13 .055c-1.373 0-2.533.764-4.254 1.65-1.72.884-4.024 1.952-7.626 2.743l-.44.097v.45c0 8.58 3 14.308 6.012 17.863 3.013 3.555 6.073 4.974 6.073 4.974l.247.113.242-.123S25.32 21.603 25.32 4.995v-.45l-.44-.097c-3.603-.79-5.906-1.859-7.627-2.744C15.533.82 14.373.054 13 .054zm0 1.12c.922 0 1.985.622 3.742 1.525 1.668.858 4.02 1.899 7.422 2.7-.199 15.195-10.448 20.885-11.173 21.267-.35-.17-2.774-1.382-5.443-4.533C4.73 18.81 1.935 13.472 1.835 5.401c3.402-.802 5.755-1.842 7.423-2.7 1.757-.904 2.82-1.526 3.742-1.526zm0 4.985c-1.848 0-3.36 1.568-3.36 3.472v1.008h-.616c-.616 0-1.064.504-1.064 1.064v5.656c0 .616.448 1.12 1.064 1.12h7.952c.56 0 1.064-.504 1.064-1.064v-5.712c0-.56-.448-1.064-1.064-1.064h-.616V9.632c0-1.904-1.512-3.472-3.36-3.472zm0 1.12c1.232 0 2.24 1.064 2.24 2.352v1.008h-4.48V9.632c0-1.288 1.008-2.352 2.24-2.352zm-3.92 4.48h7.84v5.6H9.08v-5.6zM13 13.44a.766.766 0 00-.784.784c0 .224.112.392.28.56v.728c0 .28.224.504.504.504s.504-.224.504-.504v-.728c.168-.168.28-.336.28-.56A.766.766 0 0013 13.44z"/></svg><svg viewBox="0 0 28 28" id="send-letter" xmlns="http://www.w3.org/2000/svg"><path d="M26.88 14c0-7.107-5.773-12.88-12.88-12.88C6.893 1.12 1.12 6.893 1.12 14c0 7.107 5.773 12.88 12.88 12.88 7.107 0 12.88-5.773 12.88-12.88zm-1.12 0c0 6.502-5.259 11.76-11.76 11.76A11.752 11.752 0 012.24 14C2.24 7.5 7.498 2.24 14 2.24 20.5 2.24 25.76 7.5 25.76 14zm-3.913-.009a.56.56 0 00-.218-.435l-.004-.002-5.55-5.55a.56.56 0 10-.791.792l4.644 4.644H6.72a.562.562 0 00-.568.56.56.56 0 00.568.56h13.208l-4.644 4.644a.561.561 0 10.792.792l5.55-5.55a.56.56 0 00.221-.455z"/></svg><svg viewBox="0 0 47 46" id="service" xmlns="http://www.w3.org/2000/svg"><path d="M22.598 0a.998.998 0 00-.988.82l-.547 2.993c-.47.152-.922.335-1.368.554l-2.457-1.773a.992.992 0 00-1.285.101l-2.136 2.102a1.002 1.002 0 00-.118 1.281l1.727 2.5a9.351 9.351 0 00-.57 1.36l-2.996.484a.995.995 0 00-.84.98l-.02 3a.998.998 0 00.82.989l3.004.546c.149.465.336.915.555 1.356l-1.785 2.469c-.285.394-.246.941.098 1.289l2.109 2.133a.996.996 0 001.277.117l2.532-1.742c.437.222.886.406 1.347.558l.516 3.031c.082.48.492.832.98.836L25.45 26a1 1 0 00.992-.832l.512-3.027a9.421 9.421 0 001.336-.547l2.512 1.785a1 1 0 001.281-.106l2.137-2.105c.347-.344.394-.89.11-1.293l-1.782-2.5c.223-.434.41-.875.563-1.328l3.043-.516c.476-.082.828-.496.831-.984L37 11.55a.995.995 0 00-.832-.989l-3.015-.511c-.149-.461-.333-.91-.547-1.352l1.773-2.504a.991.991 0 00-.101-1.28l-2.11-2.134a1.002 1.002 0 00-1.289-.11L28.402 4.43a9.733 9.733 0 00-1.34-.563L26.579.86a1.002 1.002 0 00-.984-.843L22.598 0zm.828 2.004l1.312.008.434 2.703c.063.394.355.71.738.808a7.776 7.776 0 012.106.891c.34.211.773.195 1.097-.035l2.23-1.582.923.93-1.606 2.25c-.226.324-.246.75-.043 1.09.395.667.684 1.378.856 2.109.094.39.41.687.808.758l2.715.457-.008 1.308-2.742.461c-.39.067-.707.36-.805.742a7.503 7.503 0 01-.878 2.086 1 1 0 00.043 1.102l1.597 2.254-.926.918-2.27-1.61a.995.995 0 00-1.089-.043 7.68 7.68 0 01-2.098.856.995.995 0 00-.75.805l-.46 2.726-1.305-.012-.461-2.734a.995.995 0 00-.75-.8 7.715 7.715 0 01-2.098-.876.996.996 0 00-1.086.035l-2.277 1.57-.922-.933 1.606-2.219a1 1 0 00.046-1.101 7.798 7.798 0 01-.863-2.113 1.008 1.008 0 00-.793-.75l-2.703-.489.012-1.312 2.691-.434a1 1 0 00.813-.742 7.64 7.64 0 01.886-2.113.995.995 0 00-.03-1.09l-1.552-2.25.93-.922 2.211 1.594c.32.234.75.254 1.094.054a7.636 7.636 0 012.125-.867.992.992 0 00.75-.789l.492-2.7zm.562 6.031a4.988 4.988 0 00-3.554 1.445c-1.961 1.938-1.977 5.13-.04 7.094 1.938 1.961 5.134 1.977 7.094.04 1.961-1.938 1.977-5.134.04-7.094a5.006 5.006 0 00-3.54-1.485zm-.007 1.989c.77.003 1.535.304 2.125.902a2.998 2.998 0 01-.024 4.261 3.003 3.003 0 01-4.265-.019 3.003 3.003 0 01.023-4.266 3.012 3.012 0 012.14-.878zM13.422 26c-2.61 0-3.813.625-5.11 1.125v.004c-2.488.969-6.745 2.976-6.745 2.976-.5.235-.715.832-.48 1.332.237.5.835.715 1.335.481 0 0 4.285-2.02 6.613-2.926 1.438-.558 2.063-.992 4.387-.992 5.129 0 4.922 2.227 7.086 3.5a.49.49 0 00.102.05C23.293 32.755 26.175 33 28.5 33c1.027 0 1.676.238 2.027.504.348.27.473.547.473.996 0 .527-.133.777-.48 1.031-.344.25-1.008.469-2.02.469h-5.25c-2.203 0-5.996-.969-5.996-.969a1.002 1.002 0 10-.508 1.938S20.508 38 23.25 38h5.25c1.02 0 1.906-.168 2.649-.535a.88.88 0 00.273-.129l9.484-6.223c1.426-.824 2.399-1.054 2.97-1.047.57.012.765.184.937.403.253.328.27.453.105.832-.168.383-.656.973-1.535 1.582h-.004c-1.086.758-13.23 8.672-14.633 9.469-1.058.601-1.898 1.234-2.855 1.504-.957.265-2.086.265-3.953-.626-1.246-.597-6.551-3.316-8.27-4.187-.957-.484-1.773-.758-2.605-.71-.836.046-1.543.401-2.274.862-.004 0-.008.004-.008.008l-2.476 1.582a1.004 1.004 0 00-.485.895.998.998 0 001.563.79l2.465-1.58c.636-.398.996-.542 1.324-.562.328-.02.777.086 1.594.5 1.703.863 6.926 3.543 8.312 4.203 2.176 1.043 3.938 1.14 5.348.75 1.41-.394 2.414-1.183 3.309-1.691 1.93-1.098 13.394-8.598 14.789-9.567 1.058-.738 1.835-1.507 2.23-2.43a2.867 2.867 0 00-.363-2.85v-.005c-.496-.633-1.375-1.148-2.48-1.172-.63-.011-1.329.133-2.106.418a3.202 3.202 0 00-.664-.66c-.582-.433-1.508-.824-2.766-.824-.644 0-1.172.148-1.594.324-.601-.574-1.668-1.304-3.218-1.304-1.258 0-2.438.421-3.258.906-.152.09-.52.32-1.145.71-.625.391-1.441.895-2.246 1.4-1.285.8-2.082 1.3-2.543 1.589-.98-.195-1.96-.473-2.886-.879-.79-.508-2.31-3.746-8.063-3.746zm20.14 2.02c.633 0 1.087.16 1.407.347l-4.625 2.867A6.765 6.765 0 0028.5 31c-.289 0-.605-.02-.906-.031l.379-.235c.805-.504 1.617-1.011 2.246-1.402.625-.387 1.137-.703 1.101-.684.473-.28 1.5-.628 2.243-.628zm4.813.98c.813 0 1.25.207 1.516.39a.259.259 0 00-.043.028l-6.91 4.531a3.262 3.262 0 00-.692-1.539l4.832-2.996.004-.008c.04-.02.875-.406 1.293-.406z"/></svg><svg viewBox="0 0 50 50" id="shield" xmlns="http://www.w3.org/2000/svg"><path d="M25 0c-2.453 0-4.523 1.355-7.594 2.938-3.07 1.582-7.191 3.492-13.625 4.906L3 8.03v.781c0 15.32 5.371 25.56 10.75 31.907 5.379 6.347 10.844 8.875 10.844 8.875l.437.218.438-.218S47 38.469 47 8.812v-.78l-.781-.188C39.785 6.43 35.664 4.52 32.594 2.937 29.524 1.355 27.454 0 25 0zm0 2c1.645 0 3.55 1.105 6.688 2.719 2.98 1.531 7.171 3.41 13.25 4.843-.368 27.118-18.684 37.29-19.97 37.97-.62-.301-4.948-2.466-9.718-8.094C10.223 33.504 5.246 23.96 5.062 9.561c6.079-1.433 10.27-3.312 13.25-4.843C21.45 3.105 23.355 2 25 2z"/><path d="M24 8v2.8c-5.6.3-6.55 4.5-6.55 6.4 0 9.4 13.7 4.4 13.7 11.5 0 .9-.2 4.9-6.1 4.9-.2 0-6.3 0-6.1-6.3h-2.1c.2 6.7 4.45 7.6 7.15 7.9V38h2v-2.8c6.7-.5 7.15-5.5 7.15-6.5 0-9-13.7-4.4-13.7-11.3 0-2.3.9-5 5.6-5 4.8 0 5.4 3.8 5.5 5.5h2.1c.2-2.8-1.8-6.9-6.6-7.1V8H24z"/></svg><svg viewBox="0 0 70 70" id="smartphone" xmlns="http://www.w3.org/2000/svg"><g clip-path="url(#cdclip0)"><path d="M5.6 1.4C2.521 1.4 0 3.92 0 7v53.2c0 3.079 2.521 5.6 5.6 5.6H35V63H5.6a2.778 2.778 0 01-2.8-2.8V7c0-1.564 1.236-2.8 2.8-2.8h39.2c1.564 0 2.8 1.236 2.8 2.8v12.6h2.8V7c0-3.079-2.521-5.6-5.6-5.6H5.6zM6.738 7A1.4 1.4 0 005.6 8.4v46.2c0 .771.629 1.4 1.4 1.4h28v-2.8H8.4V9.8H42v9.8h2.8V8.4c0-.771-.629-1.4-1.4-1.4H6.738zM40.6 21c-2.302 0-4.2 1.898-4.2 4.2v40.6c0 2.302 1.898 4.2 4.2 4.2h25.2c2.302 0 4.2-1.898 4.2-4.2V25.2c0-2.302-1.898-4.2-4.2-4.2H40.6zm0 2.8h25.2c.793 0 1.4.607 1.4 1.4v40.6c0 .793-.607 1.4-1.4 1.4H40.6c-.793 0-1.4-.607-1.4-1.4V25.2c0-.793.607-1.4 1.4-1.4zm2.538 2.8A1.4 1.4 0 0042 28v30.8c0 .771.629 1.4 1.4 1.4H63c.771 0 1.4-.629 1.4-1.4V28c0-.771-.629-1.4-1.4-1.4H43.138zm1.662 2.8h16.8v28H44.8v-28zm-19.6 28a2.1 2.1 0 10.001 4.2 2.1 2.1 0 00-.001-4.2zm28 4.2a2.1 2.1 0 10.001 4.2 2.1 2.1 0 00-.001-4.2z"/></g><defs><clipPath id="cdclip0"><path d="M0 0h70v70H0z"/></clipPath></defs></svg><svg viewBox="0 0 36 36" id="states" xmlns="http://www.w3.org/2000/svg"><path d="M22.32 0c-3.673 0-6.98 1.432-9.428 3.735 1.154-.36 2.31-.644 3.533-.788A12.347 12.347 0 0122.32 1.44c6.767 0 12.24 5.473 12.24 12.24 0 2.16-.57 4.168-1.508 5.895-.143 1.223-.427 2.38-.787 3.533A13.699 13.699 0 0036 13.68C36 6.12 29.88 0 22.32 0zM18 4.32c-3.673 0-6.98 1.432-9.428 3.735 1.154-.36 2.31-.644 3.533-.787A12.347 12.347 0 0118 5.76c6.767 0 12.24 5.473 12.24 12.24 0 2.16-.57 4.168-1.507 5.895-.144 1.223-.428 2.38-.788 3.532A13.699 13.699 0 0031.68 18c0-7.56-6.12-13.68-13.68-13.68zm-4.32 4.32C6.134 8.64 0 14.774 0 22.32 0 29.866 6.134 36 13.68 36c7.546 0 13.68-6.134 13.68-13.68 0-7.546-6.134-13.68-13.68-13.68zm0 1.44c6.77 0 12.24 5.47 12.24 12.24 0 6.77-5.47 12.24-12.24 12.24-6.77 0-12.24-5.47-12.24-12.24 0-6.77 5.47-12.24 12.24-12.24z"/></svg><svg viewBox="0 0 42 42" id="student" xmlns="http://www.w3.org/2000/svg"><path d="M21 .732c-.44 0-.884.114-1.275.344-.007 0-.01.004-.018.007 0 0-4.63 2.819-9.267 5.703a443.537 443.537 0 00-6.387 4.039 77.522 77.522 0 00-2.131 1.43c-.265.19-.478.344-.646.481-.083.069-.155.13-.234.213a1.105 1.105 0 00-.138.165c-.051.08-.154.18-.172.495-.03.55.131.578.214.709.079.13.171.247.278.385.217.268.498.587.835.952.12.127.3.306.433.447 0 2.918.007 9.016.01 10.425a1.76 1.76 0 00-.756 2.111c-.594.481-.986 1.2-.986 2.014 0 1.039.54 1.922 1.007 2.699.468.78.935 1.385.935 1.385a.874.874 0 00.694.344.89.89 0 00.698-.337s.468-.598.939-1.371c.47-.777 1.007-1.671 1.007-2.72 0-.814-.392-1.533-.987-2.014.07-.192.107-.395.107-.598 0-.612-.32-1.18-.839-1.499 0-1.141-.007-5.19-.01-8.563.069.07.124.131.196.2 1.633 1.636 3.021 2.97 3.265 3.207-.883.467-1.732 1.578-1.732 3.33 0 1.806 1.117 3.52 2.863 4.016 1.124 2.85 2.554 5.84 4.448 8.205 1.946 2.43 4.449 4.239 7.501 4.294.048.007.093.01.141.01h.02a.622.622 0 00.11-.01c3.063-.045 5.573-1.857 7.525-4.294 1.894-2.365 3.324-5.355 4.448-8.205 1.747-.495 2.864-2.21 2.864-4.015 0-1.753-.85-2.864-1.733-3.331.245-.237 1.633-1.57 3.27-3.207.883-.887 1.77-1.795 2.444-2.523.336-.365.618-.684.835-.952.106-.138.2-.255.282-.385.079-.131.24-.159.21-.709-.018-.32-.12-.419-.176-.498a1.033 1.033 0 00-.134-.162 2.283 2.283 0 00-.237-.213 11.533 11.533 0 00-.643-.481 73.325 73.325 0 00-2.135-1.43 423.344 423.344 0 00-6.383-4.04c-4.637-2.883-9.268-5.702-9.268-5.702-.007-.003-.01-.007-.017-.007A2.52 2.52 0 0021 .732zm0 1.815c.124 0 .247.035.36.1.018.01 4.62 2.809 9.237 5.682a415.523 415.523 0 016.356 4.022 80.314 80.314 0 012.077 1.389c.048.034.062.048.103.08-.155.181-.303.357-.53.6a90.433 90.433 0 01-2.396 2.472 166.914 166.914 0 01-2.86 2.805V15.72a.9.9 0 00-.433-.773S28.34 12.173 21 12.173c-7.34 0-11.914 2.774-11.914 2.774a.9.9 0 00-.434.773v3.977a166.643 166.643 0 01-2.86-2.805c-.598-.595-1.106-1.13-1.629-1.677a.85.85 0 00-.244-.251c-.162-.172-.385-.389-.526-.54-.223-.247-.371-.426-.53-.605l.107-.079c.492-.347 1.21-.828 2.076-1.389a390.112 390.112 0 016.356-4.022c4.617-2.873 9.22-5.671 9.237-5.682a.723.723 0 01.36-.1zm0 11.44c6.373 0 9.972 1.998 10.532 2.32v3.497c-1.385-.46-4.778-1.471-10.532-1.471-5.755 0-9.147 1.01-10.533 1.47v-3.495c.56-.323 4.16-2.32 10.533-2.32zm0 6.16c5.624 0 9.36 1.104 10.56 1.513v1.2l.976-.103s.433-.035.839.165c.409.195.825.48.825 1.794 0 1.234-.798 2.34-1.85 2.447l-.54.055-.192.506c-1.106 2.867-2.557 5.878-4.345 8.112-1.787 2.231-3.836 3.644-6.27 3.644h-.006c-2.434 0-4.483-1.413-6.27-3.644-1.788-2.234-3.239-5.245-4.345-8.112l-.193-.506-.54-.055c-1.052-.106-1.85-1.213-1.85-2.447 0-1.313.417-1.599.826-1.794.406-.2.839-.165.839-.165l.976.103v-1.2c1.2-.41 4.936-1.512 10.56-1.512zM3.4 29.8c.505 0 .88.382.88.852 0 .251-.344 1.128-.753 1.802-.062.103-.062.09-.124.182-.062-.1-.065-.086-.13-.193-.413-.68-.753-1.574-.753-1.79 0-.471.375-.853.88-.853z"/><path d="M21 .732c-.44 0-.884.114-1.275.344-.007 0-.01.004-.018.007 0 0-4.63 2.819-9.267 5.703a443.537 443.537 0 00-6.387 4.039 77.522 77.522 0 00-2.131 1.43c-.265.19-.478.344-.646.481-.083.069-.155.13-.234.213a1.105 1.105 0 00-.138.165c-.051.08-.154.18-.172.495-.03.55.131.578.214.709.079.13.171.247.278.385.217.268.498.587.835.952.12.127.3.306.433.447 0 2.918.007 9.016.01 10.425a1.76 1.76 0 00-.756 2.111c-.594.481-.986 1.2-.986 2.014 0 1.039.54 1.922 1.007 2.699.468.78.935 1.385.935 1.385a.874.874 0 00.694.344.89.89 0 00.698-.337s.468-.598.939-1.371c.47-.777 1.007-1.671 1.007-2.72 0-.814-.392-1.533-.987-2.014.07-.192.107-.395.107-.598 0-.612-.32-1.18-.839-1.499 0-1.141-.007-5.19-.01-8.563.069.07.124.131.196.2 1.633 1.636 3.021 2.97 3.265 3.207-.883.467-1.732 1.578-1.732 3.33 0 1.806 1.117 3.52 2.863 4.016 1.124 2.85 2.554 5.84 4.448 8.205 1.946 2.43 4.449 4.239 7.501 4.294.048.007.093.01.141.01h.02a.622.622 0 00.11-.01c3.063-.045 5.573-1.857 7.525-4.294 1.894-2.365 3.324-5.355 4.448-8.205 1.747-.495 2.864-2.21 2.864-4.015 0-1.753-.85-2.864-1.733-3.331.245-.237 1.633-1.57 3.27-3.207.883-.887 1.77-1.795 2.444-2.523.336-.365.618-.684.835-.952.106-.138.2-.255.282-.385.079-.131.24-.159.21-.709-.018-.32-.12-.419-.176-.498a1.033 1.033 0 00-.134-.162 2.283 2.283 0 00-.237-.213 11.533 11.533 0 00-.643-.481 73.325 73.325 0 00-2.135-1.43 423.344 423.344 0 00-6.383-4.04c-4.637-2.883-9.268-5.702-9.268-5.702-.007-.003-.01-.007-.017-.007A2.52 2.52 0 0021 .732zm0 1.815c.124 0 .247.035.36.1.018.01 4.62 2.809 9.237 5.682a415.523 415.523 0 016.356 4.022 80.314 80.314 0 012.077 1.389c.048.034.062.048.103.08-.155.181-.303.357-.53.6a90.433 90.433 0 01-2.396 2.472 166.914 166.914 0 01-2.86 2.805V15.72a.9.9 0 00-.433-.773S28.34 12.173 21 12.173c-7.34 0-11.914 2.774-11.914 2.774a.9.9 0 00-.434.773v3.977a166.643 166.643 0 01-2.86-2.805c-.598-.595-1.106-1.13-1.629-1.677a.85.85 0 00-.244-.251c-.162-.172-.385-.389-.526-.54-.223-.247-.371-.426-.53-.605l.107-.079c.492-.347 1.21-.828 2.076-1.389a390.112 390.112 0 016.356-4.022c4.617-2.873 9.22-5.671 9.237-5.682a.723.723 0 01.36-.1zm0 11.44c6.373 0 9.972 1.998 10.532 2.32v3.497c-1.385-.46-4.778-1.471-10.532-1.471-5.755 0-9.147 1.01-10.533 1.47v-3.495c.56-.323 4.16-2.32 10.533-2.32zm0 6.16c5.624 0 9.36 1.104 10.56 1.513v1.2l.976-.103s.433-.035.839.165c.409.195.825.48.825 1.794 0 1.234-.798 2.34-1.85 2.447l-.54.055-.192.506c-1.106 2.867-2.557 5.878-4.345 8.112-1.787 2.231-3.836 3.644-6.27 3.644h-.006c-2.434 0-4.483-1.413-6.27-3.644-1.788-2.234-3.239-5.245-4.345-8.112l-.193-.506-.54-.055c-1.052-.106-1.85-1.213-1.85-2.447 0-1.313.417-1.599.826-1.794.406-.2.839-.165.839-.165l.976.103v-1.2c1.2-.41 4.936-1.512 10.56-1.512zM3.4 29.8c.505 0 .88.382.88.852 0 .251-.344 1.128-.753 1.802-.062.103-.062.09-.124.182-.062-.1-.065-.086-.13-.193-.413-.68-.753-1.574-.753-1.79 0-.471.375-.853.88-.853z"/></svg><svg viewBox="0 0 44 43" id="support" xmlns="http://www.w3.org/2000/svg"><path d="M22 .88C13.808.88 7.054 7.119 6.242 15.097c-.804.262-1.443.901-1.705 1.705-1.254.251-2.344 1.11-3.107 2.255C.52 20.422 0 22.22 0 24.2s.52 3.778 1.43 5.142c.763 1.145 1.853 2.004 3.107 2.255.344 1.06 1.334 1.843 2.503 1.843a2.654 2.654 0 002.64-2.64V17.6c0-1.093-.69-2.021-1.65-2.42C8.8 8.126 14.74 2.64 22 2.64c7.26 0 13.2 5.486 13.97 12.54-.96.399-1.65 1.327-1.65 2.42v13.2c0 1.124.732 2.07 1.733 2.447-.12 1.681-.691 2.946-1.595 3.85-1.021 1.021-2.513 1.623-4.538 1.623h-2.805c-.368-1.018-1.337-1.76-2.475-1.76h-4.4a2.654 2.654 0 00-2.64 2.64 2.654 2.654 0 002.64 2.64h4.4c1.138 0 2.107-.743 2.475-1.76h2.805c2.375 0 4.403-.719 5.802-2.118 1.259-1.258 1.96-3.018 2.09-5.087a2.66 2.66 0 001.65-1.678c1.255-.25 2.345-1.11 3.108-2.255C43.48 27.978 44 26.18 44 24.2c0-1.98-.52-3.778-1.43-5.143-.763-1.144-1.853-2.004-3.108-2.255a2.667 2.667 0 00-1.705-1.705C36.947 7.12 30.192.88 22 .88zM7.04 16.72c.495 0 .88.385.88.88v13.2c0 .495-.385.88-.88.88a.869.869 0 01-.88-.88V17.6c0-.495.385-.88.88-.88zm29.92 0c.495 0 .88.385.88.88v13.2c0 .495-.385.88-.88.88a.869.869 0 01-.88-.88V17.6c0-.495.385-.88.88-.88zM4.4 18.672v11.055c-.547-.233-1.066-.677-1.513-1.347-.68-1.021-1.127-2.516-1.127-4.18 0-1.664.447-3.16 1.128-4.18.446-.67.965-1.114 1.512-1.348zm35.2 0c.547.234 1.066.678 1.512 1.348.681 1.02 1.128 2.516 1.128 4.18 0 1.664-.447 3.159-1.128 4.18-.446.67-.965 1.114-1.512 1.347V18.672zM20.24 38.72h4.4c.495 0 .88.385.88.88s-.385.88-.88.88h-4.4a.869.869 0 01-.88-.88c0-.495.385-.88.88-.88z"/></svg><svg viewBox="0 0 38 38" id="sync-settings" xmlns="http://www.w3.org/2000/svg"><path d="M19 3.8C10.614 3.8 3.8 10.616 3.8 19a.76.76 0 101.52 0c0-7.563 6.116-13.68 13.68-13.68 5.067 0 9.477 2.755 11.842 6.84H27.36a.76.76 0 100 1.52h6.08V7.6a.758.758 0 00-.772-.77.76.76 0 00-.748.77v3.403C29.238 6.68 24.453 3.8 19 3.8zm-1.52 6.84l-.456 2.432c-.228.076-.532.152-.76.304l-2.053-1.444-2.28 2.28 1.369 1.9c-.076.304-.228.533-.304.837l-2.356.38v3.191l2.356.38c.076.229.152.533.304.76l-1.369 2.052 2.28 2.28 2.053-1.367c.304.152.532.228.836.304l.38 2.431h3.116l.455-2.355c.228-.076.456-.152.76-.304l2.053 1.368 2.28-2.28-1.444-1.977c.152-.304.228-.608.304-.836l2.356-.456v-3.19l-2.431-.38c-.076-.229-.153-.533-.305-.76l1.367-2.054-2.203-2.204-1.977 1.444c-.228-.152-.532-.228-.76-.304l-.38-2.431H17.48zm1.291 1.52h.609l.304 2.052.456.153c.456.152.911.303 1.291.531l2.205-.987.38.38-1.216 1.747.229.38c.227.456.379.913.53 1.369l.152.456 2.129.304v.607l-2.052.457-.152.456c-.152.456-.304.911-.532 1.291l-.304.456 1.291 1.748-.455.456-1.747-1.215-.38.228c-.457.228-.913.38-1.37.532l-.455.15-.38 2.13h-.608l-.305-2.052-.455-.153c-.456-.152-.912-.303-1.292-.531l-.455-.305-1.825 1.216-.456-.455 1.216-1.75-.228-.38c-.228-.455-.38-.986-.532-1.366l-.153-.456-2.051-.38v-.608l2.129-.38.075-.532c.076-.38.228-.837.456-1.217l.304-.38-1.216-1.747.456-.456 1.747 1.216.38-.153c.532-.228.989-.455 1.445-.607l.455-.076.38-2.128zM19 15.886a3.049 3.049 0 00-3.04 3.04 3.049 3.049 0 003.04 3.04c1.672 0 3.04-1.292 3.04-3.04a3.049 3.049 0 00-3.04-3.04zm0 1.595c.836 0 1.52.608 1.52 1.52 0 .837-.684 1.52-1.52 1.52s-1.52-.683-1.52-1.52c0-.835.684-1.52 1.52-1.52zm14.428.75a.76.76 0 00-.748.77c0 7.564-6.116 13.68-13.68 13.68-5.067 0-9.476-2.754-11.841-6.84l3.48.002a.761.761 0 100-1.52l-6.08-.002v6.08a.76.76 0 101.52 0v-3.402C8.763 31.32 13.548 34.2 19 34.2c8.386 0 15.2-6.814 15.2-15.2a.76.76 0 00-.771-.77z"/></svg><svg viewBox="0 0 34 34" id="time" xmlns="http://www.w3.org/2000/svg"><path d="M17 .44C7.862.44.44 7.862.44 17c0 9.138 7.422 16.56 16.56 16.56 9.137 0 16.56-7.422 16.56-16.56C33.56 7.862 26.136.44 17 .44zm0 1.44c8.358 0 15.12 6.761 15.12 15.12 0 8.359-6.762 15.12-15.12 15.12-8.36 0-15.12-6.761-15.12-15.12 0-3.535 1.212-6.787 3.24-9.36H17V6.2H6.424a14.944 14.944 0 011.71-1.44H17V3.32h-6.413A15.047 15.047 0 0117 1.88zM6.132 9.08l1.867 1.372-.427.585 7.987 5.828c-.002.045 0 .09 0 .135 0 .796.644 1.44 1.44 1.44.704 0 1.291-.504 1.418-1.17l6.795-2.25-.45-1.373-6.817 2.295A1.415 1.415 0 0017 15.56v-.72h-1.755l-1.98-1.44H17v-1.44h-5.716l-1.957-1.44H17V9.08H6.132z"/></svg><svg viewBox="0 0 34 34" id="up-price" xmlns="http://www.w3.org/2000/svg"><path d="M16.28 11.24v1.598c-1.187.14-3.263 1.12-3.263 3.6 0 4.615 6.728 2.222 6.728 5.715 0 1.175-.518 2.205-2.745 2.205-2.25 0-2.86-1.71-2.857-2.678h-1.486c.242 3.114 2.388 3.822 3.623 4.005v1.395h1.44v-1.372c1.069-.104 3.578-.878 3.578-3.713 0-2.382-1.938-3.049-3.803-3.487-1.536-.36-2.903-.757-2.903-2.228 0-.655.26-2.092 2.408-2.092 1.485 0 2.222.928 2.453 2.07h1.462c-.433-1.598-1.114-3.026-3.195-3.375V11.24h-1.44z"/><path d="M7.505 33.577a.72.72 0 01-.585-.72v-15.12H1.16a.721.721 0 01-.518-1.238L16.482.66a.719.719 0 011.035 0l15.84 15.84a.721.721 0 01-.517 1.237h-5.76v15.12c0 .397-.324.72-.72.72H7.505zm.855-1.44h17.28v-15.12c0-.397.323-.72.72-.72h4.725L17 2.212 2.915 16.297H7.64c.396 0 .72.323.72.72v15.12z"/></svg><svg viewBox="0 0 18 18" id="user" xmlns="http://www.w3.org/2000/svg"><path d="M11.2 11.933v-1.467c.33-.163 1.274-1.287 1.373-2.165.26-.02.667-.258.788-1.199.064-.505-.193-.789-.348-.878 0 0 .387-.736.387-1.624 0-1.78-.699-3.3-2.2-3.3 0 0-.521-1.1-2.2-1.1-3.11 0-4.4 1.996-4.4 4.4 0 .81.387 1.624.387 1.624-.155.09-.412.374-.347.878.12.941.528 1.18.787 1.2.1.877 1.043 2 1.373 2.164v1.467c-.733 2.2-6.6.733-6.6 5.866h17.6c0-5.133-5.867-3.666-6.6-5.866z"/></svg><svg viewBox="0 0 20 22" id="user-shield" xmlns="http://www.w3.org/2000/svg"><path d="M10 0c-.871 0-1.66.416-2.75.99-1.404.74-3.33 1.746-6.586 2.461l-.344.083v.344c0 13.404 9.407 17.9 9.501 17.943l.193.096.178-.096c.095-.048 9.488-4.986 9.488-17.944v-.343l-.344-.083C16.08 2.736 14.154 1.73 12.75.99 11.66.416 10.87 0 10 0zm0 5.72a4.4 4.4 0 110 8.8 4.4 4.4 0 010-8.8zm-.014 1.169c-1.622.029-1.827 1.229-1.471 2.599-.064.039-.163.152-.138.37.049.406.212.515.317.523.04.378.292.823.426.894 0 .27.014.474-.014.77-.154.414-.734.588-1.306.825a3.504 3.504 0 004.4-.014c-.569-.237-1.14-.397-1.293-.811-.027-.296-.013-.5-.013-.77.134-.07.373-.516.412-.894.105-.008.268-.117.316-.522.026-.219-.073-.332-.137-.371.172-.516.524-2.104-.66-2.27-.122-.214-.433-.33-.839-.33z"/></svg><svg viewBox="0 0 32 32" id="wallet" xmlns="http://www.w3.org/2000/svg"><path d="M22.93.183c-.563.008-1.184.132-1.958.337-2.219.585-14.985 4.118-14.985 4.118a.633.633 0 00-.067.022c-2.022.762-3.296 1.48-4.073 2.52-.77 1.035-.942 2.278-.945 3.758V11.41c-.008.09-.022.18-.022.27v15.39a4.066 4.066 0 004.05 4.05h22.14a4.066 4.066 0 004.05-4.05V11.568c0-2.295-2.053-4.208-4.32-4.208H5.2c-.807 0-1.533.23-2.138.608.524-.644 1.51-1.252 3.308-1.935.02-.009.025-.014.045-.023.081-.022 12.771-3.53 14.917-4.095.715-.188 1.25-.287 1.62-.292.372-.006.546.05.63.112.085.062.155.183.225.473s.113.73.113 1.305V5.92h1.44V3.513c0-.625-.04-1.154-.158-1.643-.118-.49-.348-.97-.765-1.282-.416-.313-.945-.414-1.507-.405zM5.2 8.8h21.6c1.403 0 2.88 1.395 2.88 2.768V27.07a2.605 2.605 0 01-2.61 2.61H4.93a2.601 2.601 0 01-2.61-2.61V12.738l.022-1.193c.043-.49.293-1.187.765-1.732C3.622 9.216 4.325 8.8 5.2 8.8zm20.52 8.64c-.996 0-1.8.804-1.8 1.8s.804 1.8 1.8 1.8a1.8 1.8 0 100-3.6z"/></svg></svg>