<svg width="40" height="40" viewBox="0 0 40 40" fill="none" xmlns="http://www.w3.org/2000/svg">
<g opacity="0.3">
<path d="M20 4C16.5934 4 13.4444 5.09143 10.862 6.90885C10.7187 7.00957 10.5966 7.13752 10.5028 7.2854C10.409 7.43329 10.3452 7.5982 10.3151 7.77074C10.285 7.94328 10.2891 8.12006 10.3273 8.29098C10.3655 8.46191 10.4371 8.62364 10.5378 8.76693C10.6385 8.91022 10.7664 9.03227 10.9143 9.12611C11.0622 9.21995 11.2271 9.28375 11.3997 9.31386C11.5722 9.34396 11.749 9.33979 11.9199 9.30158C12.0908 9.26337 12.2526 9.19186 12.3958 9.09115C14.5574 7.5699 17.1612 6.66667 20 6.66667C27.3794 6.66667 33.3333 12.6206 33.3333 20C33.3333 27.3794 27.3794 33.3333 20 33.3333C17.1612 33.3333 14.5574 32.4301 12.3958 30.9089C12.1065 30.7055 11.7481 30.6253 11.3997 30.6861C11.0512 30.7469 10.7412 30.9437 10.5378 31.2331C10.3344 31.5225 10.2543 31.8808 10.3151 32.2293C10.3759 32.5777 10.5726 32.8877 10.862 33.0911C13.4444 34.9086 16.5934 36 20 36C28.8206 36 36 28.8206 36 20C36 11.1794 28.8206 4 20 4ZM9.3073 13.3203C8.9609 13.3306 8.63213 13.4754 8.39063 13.724L3.17449 18.9401C3.01114 19.0647 2.87879 19.2254 2.78777 19.4096C2.69675 19.5938 2.64953 19.7965 2.64978 20.0019C2.65003 20.2074 2.69776 20.41 2.78923 20.594C2.88069 20.7779 3.01344 20.9383 3.17709 21.0625L8.39063 26.276C8.51349 26.404 8.66065 26.5062 8.82349 26.5766C8.98633 26.6469 9.16157 26.6841 9.33896 26.6859C9.51635 26.6877 9.69231 26.6541 9.85655 26.5871C10.0208 26.52 10.17 26.4209 10.2954 26.2954C10.4209 26.17 10.52 26.0208 10.5871 25.8565C10.6541 25.6923 10.6877 25.5163 10.6859 25.339C10.6841 25.1616 10.6469 24.9863 10.5766 24.8235C10.5062 24.6606 10.404 24.5135 10.276 24.3906L7.21876 21.3333H21.3333C21.51 21.3358 21.6854 21.3032 21.8494 21.2373C22.0134 21.1714 22.1626 21.0736 22.2884 20.9495C22.4142 20.8255 22.5142 20.6777 22.5824 20.5146C22.6505 20.3516 22.6857 20.1767 22.6857 20C22.6857 19.8233 22.6505 19.6484 22.5824 19.4854C22.5142 19.3223 22.4142 19.1745 22.2884 19.0505C22.1626 18.9264 22.0134 18.8286 21.8494 18.7627C21.6854 18.6968 21.51 18.6642 21.3333 18.6667H7.21876L10.276 15.6094C10.4687 15.4221 10.6003 15.181 10.6536 14.9176C10.7069 14.6543 10.6793 14.3809 10.5746 14.1335C10.4699 13.886 10.2929 13.676 10.0667 13.5309C9.84058 13.3858 9.57588 13.3124 9.3073 13.3203Z" fill="white"/>
</g>
</svg>
