<svg width="40" height="40" viewBox="0 0 40 40" fill="none" xmlns="http://www.w3.org/2000/svg">
<path d="M7.20002 15.2C4.55315 15.2 2.40002 17.3531 2.40002 20C2.40002 22.6469 4.55315 24.8 7.20002 24.8C9.8469 24.8 12 22.6469 12 20C12 17.3531 9.8469 15.2 7.20002 15.2ZM20 15.2C17.3531 15.2 15.2 17.3531 15.2 20C15.2 22.6469 17.3531 24.8 20 24.8C22.6469 24.8 24.8 22.6469 24.8 20C24.8 17.3531 22.6469 15.2 20 15.2ZM32.8 15.2C30.1531 15.2 28 17.3531 28 20C28 22.6469 30.1531 24.8 32.8 24.8C35.4469 24.8 37.6 22.6469 37.6 20C37.6 17.3531 35.4469 15.2 32.8 15.2Z" fill="white" fill-opacity="0.6"/>
</svg>
