<svg width="31" height="31" viewBox="0 0 31 31" fill="none" xmlns="http://www.w3.org/2000/svg">
<path d="M15.4328 3.17407C8.70845 3.17407 3.23532 8.64721 3.23532 15.3715C3.23532 22.0958 8.70845 27.569 15.4328 27.569C18.0297 27.569 20.4304 26.7369 22.3991 25.3514C22.6197 25.1964 22.7697 24.96 22.816 24.6944C22.8624 24.4287 22.8013 24.1556 22.6462 23.935C22.4912 23.7143 22.2548 23.5644 21.9892 23.518C21.7235 23.4717 21.4504 23.5327 21.2297 23.6878C19.5819 24.8475 17.5969 25.5361 15.4328 25.5361C9.80717 25.5361 5.26823 20.9971 5.26823 15.3715C5.26823 9.74592 9.80717 5.20698 15.4328 5.20698C17.5969 5.20698 19.5819 5.89555 21.2297 7.05526C21.339 7.13204 21.4623 7.18655 21.5926 7.21568C21.7229 7.24481 21.8576 7.24799 21.9892 7.22504C22.1207 7.20209 22.2464 7.15346 22.3592 7.08192C22.4719 7.01038 22.5695 6.91733 22.6462 6.8081C22.723 6.69886 22.7775 6.57557 22.8067 6.44527C22.8358 6.31496 22.839 6.1802 22.816 6.04866C22.7931 5.91713 22.7444 5.79141 22.6729 5.67867C22.6013 5.56593 22.5083 5.46839 22.3991 5.39161C20.4304 4.00612 18.0297 3.17407 15.4328 3.17407ZM18.4905 10.2793C18.6927 10.2794 18.8903 10.3397 19.058 10.4527C19.2257 10.5656 19.356 10.726 19.432 10.9134C19.5081 11.1007 19.5266 11.3065 19.4851 11.5044C19.4437 11.7023 19.3441 11.8833 19.1992 12.0244L16.8685 14.3551H27.6286C27.7633 14.3532 27.8971 14.3781 28.022 14.4283C28.147 14.4785 28.2608 14.5531 28.3567 14.6476C28.4526 14.7422 28.5288 14.8549 28.5808 14.9792C28.6328 15.1035 28.6596 15.2368 28.6596 15.3715C28.6596 15.5062 28.6328 15.6396 28.5808 15.7639C28.5288 15.8881 28.4526 16.0008 28.3567 16.0954C28.2608 16.19 28.147 16.2645 28.022 16.3148C27.8971 16.365 27.7633 16.3899 27.6286 16.388H16.8685L19.1992 18.7187C19.2968 18.8123 19.3746 18.9245 19.4283 19.0487C19.482 19.1728 19.5103 19.3064 19.5117 19.4416C19.5131 19.5769 19.4874 19.711 19.4363 19.8362C19.3852 19.9614 19.3096 20.0752 19.214 20.1708C19.1184 20.2664 19.0046 20.342 18.8794 20.3931C18.7542 20.4442 18.6201 20.4699 18.4848 20.4685C18.3496 20.4671 18.216 20.4388 18.0919 20.3851C17.9677 20.3314 17.8555 20.2536 17.7619 20.156L13.7854 16.1795C13.6609 16.0845 13.56 15.9621 13.4906 15.8216C13.4212 15.6812 13.3852 15.5267 13.3854 15.37C13.3856 15.2134 13.422 15.059 13.4917 14.9187C13.5614 14.7785 13.6626 14.6562 13.7874 14.5615L17.7619 10.587C17.8566 10.4897 17.9699 10.4123 18.095 10.3594C18.2202 10.3066 18.3546 10.2793 18.4905 10.2793Z" fill="white"/>
<path d="M15.4328 3.17407C8.70845 3.17407 3.23532 8.64721 3.23532 15.3715C3.23532 22.0958 8.70845 27.569 15.4328 27.569C18.0297 27.569 20.4304 26.7369 22.3991 25.3514C22.6197 25.1964 22.7697 24.96 22.816 24.6944C22.8624 24.4287 22.8013 24.1556 22.6462 23.935C22.4912 23.7143 22.2548 23.5644 21.9892 23.518C21.7235 23.4717 21.4504 23.5327 21.2297 23.6878C19.5819 24.8475 17.5969 25.5361 15.4328 25.5361C9.80717 25.5361 5.26823 20.9971 5.26823 15.3715C5.26823 9.74592 9.80717 5.20698 15.4328 5.20698C17.5969 5.20698 19.5819 5.89555 21.2297 7.05526C21.339 7.13204 21.4623 7.18655 21.5926 7.21568C21.7229 7.24481 21.8576 7.24799 21.9892 7.22504C22.1207 7.20209 22.2464 7.15346 22.3592 7.08192C22.4719 7.01038 22.5695 6.91733 22.6462 6.8081C22.723 6.69886 22.7775 6.57557 22.8067 6.44527C22.8358 6.31496 22.839 6.1802 22.816 6.04866C22.7931 5.91713 22.7444 5.79141 22.6729 5.67867C22.6013 5.56593 22.5083 5.46839 22.3991 5.39161C20.4304 4.00612 18.0297 3.17407 15.4328 3.17407ZM18.4905 10.2793C18.6927 10.2794 18.8903 10.3397 19.058 10.4527C19.2257 10.5656 19.356 10.726 19.432 10.9134C19.5081 11.1007 19.5266 11.3065 19.4851 11.5044C19.4437 11.7023 19.3441 11.8833 19.1992 12.0244L16.8685 14.3551H27.6286C27.7633 14.3532 27.8971 14.3781 28.022 14.4283C28.147 14.4785 28.2608 14.5531 28.3567 14.6476C28.4526 14.7422 28.5288 14.8549 28.5808 14.9792C28.6328 15.1035 28.6596 15.2368 28.6596 15.3715C28.6596 15.5062 28.6328 15.6396 28.5808 15.7639C28.5288 15.8881 28.4526 16.0008 28.3567 16.0954C28.2608 16.19 28.147 16.2645 28.022 16.3148C27.8971 16.365 27.7633 16.3899 27.6286 16.388H16.8685L19.1992 18.7187C19.2968 18.8123 19.3746 18.9245 19.4283 19.0487C19.482 19.1728 19.5103 19.3064 19.5117 19.4416C19.5131 19.5769 19.4874 19.711 19.4363 19.8362C19.3852 19.9614 19.3096 20.0752 19.214 20.1708C19.1184 20.2664 19.0046 20.342 18.8794 20.3931C18.7542 20.4442 18.6201 20.4699 18.4848 20.4685C18.3496 20.4671 18.216 20.4388 18.0919 20.3851C17.9677 20.3314 17.8555 20.2536 17.7619 20.156L13.7854 16.1795C13.6609 16.0845 13.56 15.9621 13.4906 15.8216C13.4212 15.6812 13.3852 15.5267 13.3854 15.37C13.3856 15.2134 13.422 15.059 13.4917 14.9187C13.5614 14.7785 13.6626 14.6562 13.7874 14.5615L17.7619 10.587C17.8566 10.4897 17.9699 10.4123 18.095 10.3594C18.2202 10.3066 18.3546 10.2793 18.4905 10.2793Z" fill="url(#paint0_linear)"/>
<defs>
<linearGradient id="paint0_linear" x1="3.23532" y1="3.17407" x2="29.3051" y2="3.88917" gradientUnits="userSpaceOnUse">
<stop stop-color="#2864FF"/>
<stop offset="1" stop-color="#2898FF"/>
</linearGradient>
</defs>
</svg>
