<svg width="22" height="22" viewBox="0 0 22 22" fill="none" xmlns="http://www.w3.org/2000/svg">
<path d="M10.9983 0.880005C10.6116 0.880005 10.2348 0.905558 9.86563 0.947036L9.96445 1.82188C10.3081 1.78328 10.651 1.76 10.9983 1.76C16.1065 1.76 20.2383 5.89181 20.2383 11C20.2383 16.1082 16.1065 20.24 10.9983 20.24C10.6526 20.24 10.3118 20.2171 9.97133 20.179L9.87336 21.0538C10.2404 21.0949 10.6144 21.12 10.9983 21.12C16.5821 21.12 21.1183 16.5838 21.1183 11C21.1183 5.4162 16.5821 0.880005 10.9983 0.880005ZM7.65789 1.45579C6.93692 1.70822 6.25433 2.03839 5.61773 2.43977L6.08695 3.18399C6.6674 2.81801 7.29035 2.51663 7.94922 2.28594L7.65789 1.45579ZM3.84141 3.84485C3.30415 4.3821 2.83805 4.98248 2.43547 5.62204L3.18055 6.0904C3.55236 5.49972 3.97829 4.95234 4.46359 4.46704L3.84141 3.84485ZM10.56 5.72001L10.5583 14.1728L8.08242 11.697L7.46023 12.32L10.9983 15.8572L14.5363 12.32L13.9141 11.697L11.4383 14.1728L11.44 5.72001H10.56ZM1.4532 7.66305C1.20801 8.36518 1.03069 9.10193 0.945312 9.87079L1.82016 9.9679C1.89758 9.27068 2.05861 8.59869 2.28422 7.95266L1.4532 7.66305ZM1.82102 12.0381L0.946172 12.1352C1.03157 12.9038 1.21013 13.6409 1.45578 14.343L2.28594 14.0525C2.05991 13.4065 1.89842 12.7347 1.82102 12.0381ZM3.18398 15.9139L2.43977 16.3831C2.8429 17.0228 3.30905 17.6224 3.84656 18.1595L4.46875 17.5373C3.98282 17.0518 3.55613 16.5044 3.18398 15.9139ZM6.09211 18.8195L5.62375 19.5645C6.25996 19.9643 6.94353 20.2947 7.66477 20.5468L7.95438 19.7158C7.29577 19.4856 6.67294 19.1844 6.09211 18.8195Z" fill="#2864FF"/>
</svg>
