<svg width="40" height="40" viewBox="0 0 40 40" fill="none" xmlns="http://www.w3.org/2000/svg">
<path d="M27.6519 2.42505C27.0582 2.42505 26.3582 2.54692 25.4019 2.80005C22.9957 3.43442 8.88628 7.33755 8.67691 7.40005C6.58316 8.18755 5.25816 8.96255 4.4269 9.87505C5.4019 9.21567 6.5644 8.80005 7.8769 8.80005H30.2769V6.12505C30.2769 4.8313 30.2675 2.42505 27.6519 2.42505ZM7.8769 10.4C4.9019 10.4 3.0769 13.1969 3.0769 15.2V32.3C3.0769 34.7782 5.09878 36.8 7.57691 36.8H32.1769C34.655 36.8 36.6769 34.7782 36.6769 32.3V15.075C36.6769 12.6282 34.3894 10.4 31.8769 10.4H7.8769ZM30.6769 21.6C31.78 21.6 32.6769 22.4938 32.6769 23.6C32.6769 24.7063 31.78 25.6 30.6769 25.6C29.5707 25.6 28.6769 24.7063 28.6769 23.6C28.6769 22.4938 29.5707 21.6 30.6769 21.6Z" fill="white" fill-opacity="0.6"/>
</svg>
