<svg width="40" height="40" viewBox="0 0 40 40" fill="none" xmlns="http://www.w3.org/2000/svg">
<path d="M5.59998 4.7998C3.40036 4.7998 1.59998 6.60019 1.59998 8.7998V13.5998V18.3998V19.9998V23.9389V31.1998C1.59998 33.4086 3.39118 35.1998 5.59998 35.1998H34.4C36.6088 35.1998 38.4 33.4086 38.4 31.1998V23.9389V19.9998V18.3998V13.5998V8.7998C38.4 6.60019 36.5996 4.7998 34.4 4.7998H5.59998ZM5.59998 6.3998H34.4C35.7348 6.3998 36.8 7.46502 36.8 8.7998V10.4232C36.1287 9.914 35.3023 9.5998 34.4 9.5998H5.59998C4.69763 9.5998 3.87122 9.914 3.19998 10.4232V8.7998C3.19998 7.46502 4.26519 6.3998 5.59998 6.3998ZM5.59998 11.1998H34.4C35.7348 11.1998 36.8 12.265 36.8 13.5998V15.2232C36.1287 14.714 35.3023 14.3998 34.4 14.3998H5.59998C4.69763 14.3998 3.87122 14.714 3.19998 15.2232V13.5998C3.19998 12.265 4.26519 11.1998 5.59998 11.1998ZM5.59998 15.9998H34.4C35.7348 15.9998 36.8 17.065 36.8 18.3998V19.9998H28.4922C26.7578 19.9998 25.1721 20.9799 24.3969 22.5311L24.0969 23.1295C23.3201 24.6807 21.7352 25.6607 20 25.6607C18.2648 25.6607 16.6799 24.6807 15.9047 23.1295L15.6062 22.5311C14.8302 20.9791 13.243 19.9998 11.5078 19.9998H3.19998V18.3998C3.19998 17.065 4.26519 15.9998 5.59998 15.9998Z" fill="white" fill-opacity="0.6"/>
</svg>
