<svg width="22" height="22" viewBox="0 0 22 22" fill="none" xmlns="http://www.w3.org/2000/svg">
<path d="M13.1312 5.7611C12.9662 5.79032 12.8339 5.91063 12.7874 6.07047C12.741 6.23204 12.7892 6.40391 12.9112 6.51735L16.9537 10.5599H3.95995C3.9462 10.5599 3.93245 10.5599 3.9187 10.5599C3.67635 10.5719 3.48729 10.7781 3.49932 11.0205C3.51135 11.2628 3.7176 11.4519 3.95995 11.4399H16.9537L12.9112 15.4824C12.7806 15.5889 12.7204 15.7591 12.7582 15.9241C12.796 16.0874 12.9249 16.2163 13.0882 16.2541C13.2532 16.2919 13.4234 16.2317 13.5299 16.1011L18.3287 11.3161L18.6312 10.9999L18.3287 10.6836L13.5299 5.8986C13.4389 5.80063 13.3065 5.75079 13.1724 5.7611C13.1587 5.7611 13.1449 5.7611 13.1312 5.7611Z" fill="black"/>
</svg>
