<svg width="22" height="22" viewBox="0 0 22 22" fill="none" xmlns="http://www.w3.org/2000/svg">
<g clip-path="url(#clip0)">
<path d="M17.5589 3.50614C17.54 3.50958 17.5211 3.51473 17.5039 3.51989C17.2993 3.56629 17.155 3.7502 17.1601 3.95989V16.9536L13.9976 13.7911C13.9151 13.7035 13.8017 13.6554 13.6814 13.6536C13.5026 13.6554 13.3428 13.7636 13.2758 13.9304C13.2104 14.0954 13.25 14.2861 13.3789 14.4099L17.2839 18.3286L17.6001 18.6311L17.9164 18.3286L21.8214 14.4099C21.952 14.3033 22.0122 14.1332 21.9743 13.9682C21.9365 13.8049 21.8076 13.676 21.6443 13.6382C21.4793 13.6004 21.3092 13.6605 21.2026 13.7911L18.0401 16.9536V3.95989C18.0453 3.8327 17.9937 3.71067 17.9026 3.62473C17.8098 3.53708 17.6843 3.49411 17.5589 3.50614ZM0.357628 3.53364C0.135909 3.57145 -0.0170597 3.77426 0.00356529 3.9977C0.0259091 4.22114 0.214971 4.39129 0.440128 4.38614H3.08013C3.24513 4.40676 3.40669 4.32942 3.49607 4.1902C3.58372 4.04926 3.58372 3.87051 3.49607 3.72958C3.40669 3.59036 3.24513 3.51301 3.08013 3.53364H0.440128C0.412628 3.5302 0.385128 3.5302 0.357628 3.53364ZM0.357628 7.05364C0.149659 7.1052 0.0104403 7.30114 0.0310653 7.51598C0.0516905 7.72911 0.225284 7.89583 0.440128 7.90614H4.84013C5.01028 7.93536 5.18216 7.86145 5.27669 7.71708C5.37122 7.5727 5.37122 7.38708 5.27669 7.2427C5.18216 7.09833 5.01028 7.02442 4.84013 7.05364H0.440128C0.412628 7.0502 0.385128 7.0502 0.357628 7.05364ZM0.357628 10.5599C0.115284 10.5822 -0.0634658 10.7988 -0.0411222 11.0411C-0.0187785 11.2835 0.197784 11.4622 0.440128 11.4399H6.60013C6.84247 11.4399 7.04013 11.2422 7.04013 10.9999C7.04013 10.7575 6.84247 10.5599 6.60013 10.5599H0.440128C0.426378 10.5599 0.412628 10.5599 0.398878 10.5599C0.385128 10.5599 0.371378 10.5599 0.357628 10.5599ZM0.316378 14.0799C0.0740341 14.1143 -0.0961222 14.3394 -0.0617472 14.5818C-0.0273722 14.8241 0.197784 14.9943 0.440128 14.9599H8.36013C8.60247 14.9599 8.80013 14.7622 8.80013 14.5199C8.80013 14.2775 8.60247 14.0799 8.36013 14.0799H0.440128C0.426378 14.0799 0.412628 14.0799 0.398878 14.0799C0.385128 14.0799 0.371378 14.0799 0.357628 14.0799C0.343878 14.0799 0.330128 14.0799 0.316378 14.0799ZM0.316378 17.5999C0.0740341 17.6343 -0.0961222 17.8594 -0.0617472 18.1018C-0.0273722 18.3441 0.197784 18.5143 0.440128 18.4799H11.4401C11.6825 18.4799 11.8801 18.2822 11.8801 18.0399C11.8801 17.7975 11.6825 17.5999 11.4401 17.5999H0.440128C0.426378 17.5999 0.412628 17.5999 0.398878 17.5999C0.385128 17.5999 0.371378 17.5999 0.357628 17.5999C0.343878 17.5999 0.330128 17.5999 0.316378 17.5999Z" fill="#0B111A"/>
</g>
<defs>
<clipPath id="clip0">
<rect width="22" height="22" fill="white"/>
</clipPath>
</defs>
</svg>
