<svg width="22" height="22" viewBox="0 0 22 22" fill="none" xmlns="http://www.w3.org/2000/svg">
<g clip-path="url(#clip0)">
<path d="M17.625 18.998C17.6061 18.9946 17.5872 18.9894 17.57 18.9843C17.3655 18.9379 17.2211 18.7539 17.2263 18.5443V5.55051L14.0638 8.71301C13.9813 8.80067 13.8679 8.84879 13.7475 8.85051C13.5688 8.84879 13.4089 8.74051 13.3419 8.57379C13.2766 8.40879 13.3161 8.21801 13.445 8.09426L17.35 4.17551L17.6663 3.87301L17.9825 4.17551L21.8875 8.09426C22.0182 8.20083 22.0783 8.37098 22.0405 8.53598C22.0027 8.69926 21.8738 8.82817 21.7105 8.86598C21.5455 8.90379 21.3754 8.84364 21.2688 8.71301L18.1063 5.55051V18.5443C18.1114 18.6714 18.0599 18.7935 17.9688 18.8794C17.876 18.9671 17.7505 19.01 17.625 18.998ZM0.42379 18.9705C0.202071 18.9327 0.0491024 18.7299 0.0697274 18.5064C0.0920712 18.283 0.281134 18.1129 0.50629 18.118H3.14629C3.31129 18.0974 3.47285 18.1747 3.56223 18.3139C3.64988 18.4549 3.64988 18.6336 3.56223 18.7746C3.47285 18.9138 3.31129 18.9911 3.14629 18.9705H0.50629C0.47879 18.9739 0.45129 18.9739 0.42379 18.9705ZM0.42379 15.4505C0.215821 15.3989 0.0766024 15.203 0.0972274 14.9882C0.117853 14.775 0.291446 14.6083 0.50629 14.598H4.90629C5.07645 14.5688 5.24832 14.6427 5.34285 14.7871C5.43738 14.9314 5.43738 15.1171 5.34285 15.2614C5.24832 15.4058 5.07645 15.4797 4.90629 15.4505H0.50629C0.47879 15.4539 0.45129 15.4539 0.42379 15.4505ZM0.42379 11.9443C0.181446 11.9219 0.00269626 11.7054 0.0250399 11.463C0.0473836 11.2207 0.263946 11.0419 0.50629 11.0643H6.66629C6.90863 11.0643 7.10629 11.2619 7.10629 11.5043C7.10629 11.7466 6.90863 11.9443 6.66629 11.9443H0.50629C0.49254 11.9443 0.47879 11.9443 0.46504 11.9443C0.45129 11.9443 0.43754 11.9443 0.42379 11.9443ZM0.38254 8.42426C0.140196 8.38989 -0.0299601 8.16473 0.0044149 7.92239C0.0387899 7.68004 0.263946 7.50989 0.50629 7.54426H8.42629C8.66863 7.54426 8.86629 7.74192 8.86629 7.98426C8.86629 8.22661 8.66863 8.42426 8.42629 8.42426H0.50629C0.49254 8.42426 0.47879 8.42426 0.46504 8.42426C0.45129 8.42426 0.43754 8.42426 0.42379 8.42426C0.41004 8.42426 0.39629 8.42426 0.38254 8.42426ZM0.38254 4.90426C0.140196 4.86989 -0.0299601 4.64473 0.0044149 4.40239C0.0387899 4.16004 0.263946 3.98989 0.50629 4.02426H11.5063C11.7486 4.02426 11.9463 4.22192 11.9463 4.46426C11.9463 4.70661 11.7486 4.90426 11.5063 4.90426H0.50629C0.49254 4.90426 0.47879 4.90426 0.46504 4.90426C0.45129 4.90426 0.43754 4.90426 0.42379 4.90426C0.41004 4.90426 0.39629 4.90426 0.38254 4.90426Z" fill="#0B111A"/>
</g>
<defs>
<clipPath id="clip0">
<rect width="22" height="22" fill="white" transform="matrix(1 0 0 -1 0 22)"/>
</clipPath>
</defs>
</svg>
