<svg width="22" height="22" viewBox="0 0 22 22" fill="none" xmlns="http://www.w3.org/2000/svg">
<path d="M0.879883 6.6V20.24C0.879883 20.7264 1.27348 21.12 1.75988 21.12H20.2399C20.7263 21.12 21.1199 20.7264 21.1199 20.24V6.6H0.879883Z" fill="white"/>
<path fill-rule="evenodd" clip-rule="evenodd" d="M5.27988 0C4.79863 0 4.39988 0.39875 4.39988 0.88V1.76H1.75988C1.24941 1.76 0.879883 2.12953 0.879883 2.64V5.72H21.1199V2.64C21.1199 2.12953 20.7504 1.76 20.2399 1.76H17.5999V0.88C17.5999 0.39875 17.2011 0 16.7199 0H15.8399C15.3586 0 14.9599 0.39875 14.9599 0.88V1.76H7.03988V0.88C7.03988 0.39875 6.64113 0 6.15988 0H5.27988ZM6.15988 0.88H5.27988V3.52H6.15988V0.88ZM16.7199 0.88H15.8399V3.52H16.7199V0.88Z" fill="white"/>
</svg>
