<svg width="40" height="40" viewBox="0 0 40 40" fill="none" xmlns="http://www.w3.org/2000/svg">
<path d="M35.2 0V3.2H33.6C32.7188 3.2 32 3.91875 32 4.8V12.8C32 13.6813 32.7188 14.4 33.6 14.4H38.4C39.2812 14.4 40 13.6813 40 12.8V4.8C40 3.91875 39.2812 3.2 38.4 3.2H36.8V0H35.2ZM13.6 10.4V13.6H12C11.1188 13.6 10.4 14.3188 10.4 15.2V23.2C10.4 24.0813 11.1188 24.8 12 24.8H16.8C17.6813 24.8 18.4 24.0813 18.4 23.2V15.2C18.4 14.3188 17.6813 13.6 16.8 13.6H15.2V10.4H13.6ZM25.6 12V15.2H24C23.1188 15.2 22.4 15.9188 22.4 16.8V24.8C22.4 25.6813 23.1188 26.4 24 26.4H28.8C29.6813 26.4 30.4 25.6813 30.4 24.8V16.8C30.4 15.9188 29.6813 15.2 28.8 15.2H27.2V12H25.6ZM35.2 15.2V17.6H36.8V15.2H35.2ZM3.2 22.4V25.6H1.6C0.71875 25.6 0 26.3188 0 27.2V35.2C0 36.0812 0.71875 36.8 1.6 36.8H6.4C7.28125 36.8 8 36.0812 8 35.2V27.2C8 26.3188 7.28125 25.6 6.4 25.6H4.8V22.4H3.2ZM13.6 25.6V28H15.2V25.6H13.6ZM1.6 27.2H6.4V35.2H1.6V27.2ZM25.6 27.2V29.6H27.2V27.2H25.6ZM3.2 37.6V40H4.8V37.6H3.2Z" fill="black"/>
<path d="M35.2 0V3.2H33.6C32.7188 3.2 32 3.91875 32 4.8V12.8C32 13.6813 32.7188 14.4 33.6 14.4H38.4C39.2812 14.4 40 13.6813 40 12.8V4.8C40 3.91875 39.2812 3.2 38.4 3.2H36.8V0H35.2ZM13.6 10.4V13.6H12C11.1188 13.6 10.4 14.3188 10.4 15.2V23.2C10.4 24.0813 11.1188 24.8 12 24.8H16.8C17.6813 24.8 18.4 24.0813 18.4 23.2V15.2C18.4 14.3188 17.6813 13.6 16.8 13.6H15.2V10.4H13.6ZM25.6 12V15.2H24C23.1188 15.2 22.4 15.9188 22.4 16.8V24.8C22.4 25.6813 23.1188 26.4 24 26.4H28.8C29.6813 26.4 30.4 25.6813 30.4 24.8V16.8C30.4 15.9188 29.6813 15.2 28.8 15.2H27.2V12H25.6ZM35.2 15.2V17.6H36.8V15.2H35.2ZM3.2 22.4V25.6H1.6C0.71875 25.6 0 26.3188 0 27.2V35.2C0 36.0812 0.71875 36.8 1.6 36.8H6.4C7.28125 36.8 8 36.0812 8 35.2V27.2C8 26.3188 7.28125 25.6 6.4 25.6H4.8V22.4H3.2ZM13.6 25.6V28H15.2V25.6H13.6ZM1.6 27.2H6.4V35.2H1.6V27.2ZM25.6 27.2V29.6H27.2V27.2H25.6ZM3.2 37.6V40H4.8V37.6H3.2Z" fill="white" fill-opacity="0.6"/>
</svg>
