<svg width="58" height="58" viewBox="0 0 58 58" fill="none" xmlns="http://www.w3.org/2000/svg">
<path d="M28.9998 2.32C14.2875 2.32 2.31982 14.2877 2.31982 29C2.31982 43.7123 14.2875 55.68 28.9998 55.68C43.7121 55.68 55.6798 43.7123 55.6798 29C55.6798 23.7104 54.1257 18.7796 51.4612 14.6291L49.873 16.5051C52.0712 20.1637 53.3598 24.4296 53.3598 29C53.3598 42.4316 42.4315 53.36 28.9998 53.36C15.5682 53.36 4.63982 42.4316 4.63982 29C4.63982 15.5684 15.5682 4.64 28.9998 4.64C35.3137 4.64 41.0568 7.07573 45.3894 11.0313L46.9073 9.23922C42.1687 4.94142 35.8844 2.32 28.9998 2.32ZM50.154 8.99453L27.7401 35.4434L18.3061 26.6438L16.7247 28.3407L27.9372 38.7988L51.9257 10.4944L50.154 8.99453Z" fill="#2864FF"/>
</svg>
