<svg width="18" height="18" viewBox="0 0 18 18" fill="none" xmlns="http://www.w3.org/2000/svg">
<g opacity="0.5">
<path d="M9.05227 2.87988C6.87767 2.87988 4.88236 3.75539 3.34078 5.19809C3.3048 5.23001 3.27558 5.26883 3.25485 5.31223C3.23411 5.35564 3.22229 5.40276 3.22008 5.45082C3.21786 5.49887 3.2253 5.54688 3.24195 5.59202C3.2586 5.63715 3.28412 5.67848 3.31702 5.71359C3.34991 5.74869 3.3895 5.77684 3.43346 5.79639C3.47742 5.81593 3.52484 5.82647 3.57294 5.82737C3.62104 5.82828 3.66883 5.81954 3.71349 5.80167C3.75815 5.7838 3.79878 5.75716 3.83297 5.72332C5.25492 4.39258 7.07031 3.59988 9.05227 3.59988C11.0243 3.59988 12.831 4.38474 14.2498 5.70363C14.2842 5.737 14.3249 5.76316 14.3695 5.78059C14.4142 5.79801 14.4619 5.80634 14.5098 5.8051C14.5577 5.80386 14.6049 5.79306 14.6485 5.77334C14.6922 5.75363 14.7315 5.72539 14.7642 5.69028C14.7968 5.65517 14.8221 5.61391 14.8385 5.5689C14.855 5.52389 14.8623 5.47605 14.8601 5.42817C14.8578 5.3803 14.846 5.33336 14.8254 5.29011C14.8047 5.24686 14.7756 5.20816 14.7398 5.17629C13.2015 3.74623 11.2159 2.87988 9.05227 2.87988ZM16.3767 7.53738C16.3019 7.53861 16.2294 7.56311 16.1692 7.60746C16.1089 7.65181 16.064 7.71383 16.0406 7.78488C14.5967 10.4658 12.0017 12.2399 9.04243 12.2399C6.08972 12.2399 3.5 10.4729 2.05407 7.80176C2.02661 7.72073 1.97119 7.65212 1.89774 7.60824C1.82429 7.56436 1.73762 7.54806 1.65325 7.56228C1.56888 7.5765 1.49234 7.62029 1.43733 7.68582C1.38232 7.75135 1.35244 7.83433 1.35305 7.91988V7.93746C1.35288 7.99679 1.36737 8.05524 1.39524 8.10762C1.88419 9.02058 2.50268 9.83886 3.22125 10.5327L1.17727 12.7138C1.112 12.7835 1.07711 12.8763 1.08028 12.9718C1.08344 13.0673 1.1244 13.1576 1.19414 13.2229C1.26389 13.2881 1.3567 13.323 1.45217 13.3198C1.54764 13.3167 1.63794 13.2757 1.70321 13.206L3.75914 11.0115C4.35293 11.5013 5.00218 11.9132 5.69625 12.2286L4.3568 14.9617C4.33601 15.0042 4.3238 15.0503 4.32085 15.0975C4.3179 15.1447 4.32428 15.192 4.33962 15.2368C4.35496 15.2815 4.37896 15.3228 4.41026 15.3582C4.44155 15.3937 4.47952 15.4226 4.522 15.4434C4.56448 15.4642 4.61064 15.4764 4.65784 15.4793C4.70504 15.4822 4.75235 15.4759 4.79708 15.4605C4.84181 15.4452 4.88307 15.4211 4.91852 15.3898C4.95397 15.3585 4.98291 15.3206 5.00368 15.2781L6.36633 12.4965C7.08907 12.7514 7.85112 12.9057 8.64094 12.9451C8.64061 12.95 8.64037 12.955 8.64024 12.9599V15.8399C8.63956 15.8876 8.64838 15.9349 8.66617 15.9792C8.68395 16.0235 8.71036 16.0638 8.74386 16.0978C8.77736 16.1317 8.81727 16.1587 8.86128 16.1771C8.9053 16.1955 8.95253 16.205 9.00024 16.205C9.04795 16.205 9.09518 16.1955 9.13919 16.1771C9.18321 16.1587 9.22312 16.1317 9.25662 16.0978C9.29011 16.0638 9.31652 16.0235 9.33431 15.9792C9.3521 15.9349 9.36091 15.8876 9.36024 15.8399V12.9599C9.36007 12.9559 9.35984 12.9519 9.35953 12.9479C10.1753 12.9158 10.9621 12.7588 11.7073 12.4979L12.994 15.2711C13.0122 15.3163 13.0395 15.3574 13.0741 15.3918C13.1088 15.4263 13.15 15.4533 13.1954 15.4712C13.2408 15.4892 13.2894 15.4977 13.3382 15.4964C13.387 15.495 13.435 15.4837 13.4793 15.4631C13.5236 15.4426 13.5632 15.4133 13.5959 15.377C13.6285 15.3406 13.6533 15.298 13.669 15.2518C13.6846 15.2056 13.6907 15.1566 13.6868 15.1079C13.683 15.0593 13.6692 15.0119 13.6465 14.9687L12.3759 12.2286C13.0266 11.9348 13.6386 11.5588 14.202 11.1107L16.3057 13.2144C16.3433 13.2536 16.3893 13.2837 16.4402 13.3026C16.4911 13.3214 16.5456 13.3286 16.5996 13.3234C16.6114 13.3223 16.6231 13.3207 16.6348 13.3185C16.6995 13.3058 16.7594 13.2756 16.8081 13.2312C16.8568 13.1868 16.8924 13.1298 16.911 13.0666C16.9295 13.0033 16.9304 12.9362 16.9134 12.8725C16.8965 12.8088 16.8623 12.751 16.8148 12.7054L14.7476 10.6382C15.5197 9.91749 16.1834 9.05779 16.6995 8.08934C16.7275 8.03723 16.7422 7.97903 16.7423 7.91988V7.9023C16.743 7.85414 16.734 7.80633 16.7158 7.76172C16.6977 7.7171 16.6708 7.67657 16.6367 7.64255C16.6026 7.60852 16.562 7.58168 16.5174 7.56361C16.4727 7.54555 16.4249 7.53663 16.3767 7.53738Z" fill="#231F20"/>
</g>
</svg>
