<svg width="25" height="25" viewBox="0 0 25 25" fill="none" xmlns="http://www.w3.org/2000/svg">
<path opacity="0.3" fill-rule="evenodd" clip-rule="evenodd" d="M22.1968 22.1968C23.2678 21.1256 23.2678 19.3891 22.1968 18.3181L16.3787 12.5L22.1968 6.68198C23.2678 5.61092 23.2678 3.87437 22.1968 2.8033C21.1256 1.73223 19.3891 1.73223 18.3181 2.8033L12.5 8.62134L6.68198 2.8033C5.61092 1.73223 3.87437 1.73223 2.8033 2.8033C1.73223 3.87437 1.73223 5.61092 2.8033 6.68198L8.62133 12.5L2.8033 18.3181C1.73223 19.3891 1.73223 21.1256 2.8033 22.1968C3.87437 23.2678 5.61091 23.2678 6.68198 22.1968L12.5 16.3787L18.3181 22.1968C19.3891 23.2678 21.1256 23.2678 22.1968 22.1968Z" fill="#0B111A"/>
</svg>
