<svg width="18" height="18" viewBox="0 0 18 18" fill="none" xmlns="http://www.w3.org/2000/svg">
<g clip-path="url(#clip0)">
<path d="M12.5991 0C11.1731 0 9.87515 0.205313 8.90905 0.55125C8.4253 0.724219 8.03155 0.923906 7.7278 1.18125C7.42405 1.43859 7.19905 1.77469 7.19905 2.16C7.19905 2.23172 7.20749 2.30625 7.22155 2.37375C7.20468 2.42016 7.19624 2.47078 7.19905 2.52V4.68C7.19905 4.75172 7.20749 4.82625 7.22155 4.89375C7.20468 4.94016 7.19624 4.99078 7.19905 5.04V6.2325C6.63515 6.15797 6.03187 6.12 5.39905 6.12C3.97312 6.12 2.67515 6.32531 1.70905 6.67125C1.2253 6.84422 0.831553 7.04391 0.527803 7.30125C0.224053 7.55859 -0.000947133 7.89469 -0.000947133 8.28C-0.000947133 8.35172 0.00749037 8.42625 0.0215529 8.49375C0.00467787 8.54016 -0.00375963 8.59078 -0.000947133 8.64V10.8C-0.000947133 10.8717 0.00749037 10.9462 0.0215529 11.0138C0.00467787 11.0602 -0.00375963 11.1108 -0.000947133 11.16V13.32C-0.000947133 13.3917 0.00749037 13.4663 0.0215529 13.5338C0.00467787 13.5802 -0.00375963 13.6308 -0.000947133 13.68V15.84C-0.000947133 16.2253 0.224053 16.5614 0.527803 16.8188C0.831553 17.0761 1.2253 17.2758 1.70905 17.4488C2.67515 17.7933 3.97171 18 5.39905 18C6.8264 18 8.12296 17.7933 9.08905 17.4488C9.5728 17.2758 9.96655 17.0761 10.2703 16.8188C10.5741 16.5614 10.7991 16.2253 10.7991 15.84V14.2875C11.363 14.362 11.9648 14.4 12.5991 14.4C14.0264 14.4 15.323 14.1933 16.2891 13.8488C16.7728 13.6758 17.1666 13.4761 17.4703 13.2188C17.7741 12.9614 17.9991 12.6253 17.9991 12.24V10.08C18.0019 10.0308 17.9934 9.98016 17.9766 9.93375C17.9906 9.86625 17.9991 9.79172 17.9991 9.72V7.56C18.0019 7.51078 17.9934 7.46016 17.9766 7.41375C17.9906 7.34625 17.9991 7.27172 17.9991 7.2V5.04C18.0019 4.99078 17.9934 4.94016 17.9766 4.89375C17.9906 4.82625 17.9991 4.75172 17.9991 4.68V2.52C17.9976 2.46938 17.9864 2.42016 17.9653 2.37375C17.9808 2.30484 17.9991 2.23312 17.9991 2.16C17.9991 1.77469 17.7741 1.43859 17.4703 1.18125C17.1666 0.923906 16.7728 0.724219 16.2891 0.55125C15.323 0.205313 14.025 0 12.5991 0ZM12.5991 0.72C13.9561 0.72 15.1837 0.919688 16.0416 1.22625C16.4705 1.37953 16.8037 1.55953 17.0091 1.7325C17.2144 1.90547 17.2791 2.0475 17.2791 2.16C17.2791 2.2725 17.2144 2.41453 17.0091 2.5875C16.8037 2.76047 16.4705 2.94047 16.0416 3.09375C15.1837 3.40031 13.9561 3.6 12.5991 3.6C11.242 3.6 10.0144 3.40031 9.15655 3.09375C8.72765 2.94047 8.39437 2.76047 8.18905 2.5875C7.98374 2.41453 7.91905 2.2725 7.91905 2.16C7.91905 2.0475 7.98374 1.90547 8.18905 1.7325C8.39437 1.55953 8.72765 1.37953 9.15655 1.22625C10.0144 0.919688 11.242 0.72 12.5991 0.72ZM7.91905 3.27375C8.19327 3.465 8.51812 3.62953 8.90905 3.76875C9.87515 4.11469 11.1731 4.32 12.5991 4.32C14.025 4.32 15.323 4.11469 16.2891 3.76875C16.68 3.62953 17.0048 3.465 17.2791 3.27375V4.68C17.2791 4.7925 17.2144 4.93453 17.0091 5.1075C16.8037 5.28047 16.4705 5.46047 16.0416 5.61375C15.1837 5.92031 13.9561 6.12 12.5991 6.12C11.242 6.12 10.0144 5.92031 9.15655 5.61375C8.72765 5.46047 8.39437 5.28047 8.18905 5.1075C7.98374 4.93453 7.91905 4.7925 7.91905 4.68V3.27375ZM7.91905 5.79375C8.19327 5.985 8.51812 6.14953 8.90905 6.28875C9.87515 6.63469 11.1717 6.84 12.5991 6.84C14.0264 6.84 15.323 6.63469 16.2891 6.28875C16.68 6.14953 17.0048 5.985 17.2791 5.79375V7.2C17.2791 7.3125 17.2144 7.45453 17.0091 7.6275C16.8037 7.80047 16.4705 7.98047 16.0416 8.13375C15.1837 8.44031 13.9561 8.64 12.5991 8.64C11.9508 8.64 11.3292 8.59641 10.7653 8.51625C10.7653 8.50922 10.7653 8.50078 10.7653 8.49375C10.7808 8.42484 10.7991 8.35313 10.7991 8.28C10.7991 7.89469 10.5741 7.55859 10.2703 7.30125C9.96655 7.04391 9.5728 6.84422 9.08905 6.67125C8.7389 6.54609 8.34515 6.44203 7.91905 6.35625V5.79375ZM5.39905 6.84C6.75608 6.84 7.98374 7.03969 8.84155 7.34625C9.27046 7.49953 9.60374 7.67953 9.80905 7.8525C10.0144 8.02547 10.0791 8.1675 10.0791 8.28C10.0791 8.3925 10.0144 8.53453 9.80905 8.7075C9.60374 8.88047 9.27046 9.06047 8.84155 9.21375C7.98374 9.52031 6.75608 9.72 5.39905 9.72C4.04202 9.72 2.81437 9.52031 1.95655 9.21375C1.52765 9.06047 1.19437 8.88047 0.989053 8.7075C0.783741 8.53453 0.719053 8.3925 0.719053 8.28C0.719053 8.1675 0.783741 8.02547 0.989053 7.8525C1.19437 7.67953 1.52765 7.49953 1.95655 7.34625C2.81437 7.03969 4.04202 6.84 5.39905 6.84ZM17.2791 8.31375V9.72C17.2791 9.8325 17.2144 9.97453 17.0091 10.1475C16.8037 10.3205 16.4705 10.5005 16.0416 10.6538C15.1837 10.9603 13.9561 11.16 12.5991 11.16C11.9522 11.16 11.3376 11.1066 10.7766 11.025C10.7723 11.025 10.7695 11.025 10.7653 11.025C10.7667 11.0208 10.7639 11.018 10.7653 11.0138C10.7808 10.9448 10.7991 10.8731 10.7991 10.8V9.2475C11.3601 9.32063 11.9676 9.36 12.5991 9.36C14.0264 9.36 15.323 9.15469 16.2891 8.80875C16.68 8.66953 17.0048 8.505 17.2791 8.31375ZM0.719053 9.39375C0.993272 9.585 1.31812 9.74953 1.70905 9.88875C2.67515 10.2347 3.97312 10.44 5.39905 10.44C6.82499 10.44 8.12296 10.2347 9.08905 9.88875C9.47999 9.74953 9.80483 9.585 10.0791 9.39375V10.8C10.0791 10.9125 10.0144 11.0545 9.80905 11.2275C9.60374 11.4005 9.27046 11.5805 8.84155 11.7338C7.98374 12.0403 6.75608 12.24 5.39905 12.24C4.04202 12.24 2.81437 12.0403 1.95655 11.7338C1.52765 11.5805 1.19437 11.4005 0.989053 11.2275C0.783741 11.0545 0.719053 10.9125 0.719053 10.8V9.39375ZM17.2791 10.8338V12.24C17.2791 12.3525 17.2144 12.4945 17.0091 12.6675C16.8037 12.8405 16.4705 13.0205 16.0416 13.1738C15.1837 13.4803 13.9561 13.68 12.5991 13.68C11.9466 13.68 11.3306 13.6266 10.7653 13.545C10.7653 13.5408 10.7653 13.538 10.7653 13.5338C10.7808 13.4648 10.7991 13.3931 10.7991 13.32V11.7675C11.3616 11.842 11.9691 11.88 12.5991 11.88C14.0264 11.88 15.323 11.6733 16.2891 11.3288C16.68 11.1895 17.0048 11.025 17.2791 10.8338ZM0.719053 11.9138C0.993272 12.105 1.31812 12.2695 1.70905 12.4088C2.67515 12.7533 3.97171 12.96 5.39905 12.96C6.8264 12.96 8.12296 12.7533 9.08905 12.4088C9.47999 12.2695 9.80483 12.105 10.0791 11.9138V13.32C10.0791 13.4325 10.0144 13.5745 9.80905 13.7475C9.60374 13.9205 9.27046 14.1005 8.84155 14.2538C7.98374 14.5603 6.75608 14.76 5.39905 14.76C4.04202 14.76 2.81437 14.5603 1.95655 14.2538C1.52765 14.1005 1.19437 13.9205 0.989053 13.7475C0.783741 13.5745 0.719053 13.4325 0.719053 13.32V11.9138ZM0.719053 14.4338C0.993272 14.625 1.31812 14.7895 1.70905 14.9288C2.67515 15.2733 3.97171 15.48 5.39905 15.48C6.8264 15.48 8.12296 15.2733 9.08905 14.9288C9.47999 14.7895 9.80483 14.625 10.0791 14.4338V15.84C10.0791 15.9525 10.0144 16.0945 9.80905 16.2675C9.60374 16.4405 9.27046 16.6205 8.84155 16.7738C7.98374 17.0803 6.75608 17.28 5.39905 17.28C4.04202 17.28 2.81437 17.0803 1.95655 16.7738C1.52765 16.6205 1.19437 16.4405 0.989053 16.2675C0.783741 16.0945 0.719053 15.9525 0.719053 15.84V14.4338Z" fill="white"/>
</g>
<defs>
<clipPath id="clip0">
<rect width="18" height="18" fill="white"/>
</clipPath>
</defs>
</svg>
