<svg width="40" height="40" viewBox="0 0 40 40" fill="none" xmlns="http://www.w3.org/2000/svg">
<path d="M18.4 4.80029V7.32686C15.6574 7.76282 13.8799 9.28591 13.0109 10.8065C11.983 12.6055 12 14.4003 12 14.4003C12 16.6744 13.1953 18.4639 14.6938 19.494C16.1922 20.5242 17.9234 21.0269 19.5234 21.5269C21.1234 22.0269 22.5922 22.5242 23.4938 23.144C24.3953 23.7639 24.8 24.2744 24.8 25.6003C24.8 25.6003 24.783 26.6055 24.2109 27.6065C23.6389 28.6076 22.7333 29.6003 20 29.6003C17.3333 29.6003 16.4404 28.503 15.8313 27.2847C15.2221 26.0663 15.2 24.8003 15.2 24.8003H12C12 24.8003 11.9779 26.7343 12.9688 28.7159C13.8089 30.3962 15.6 32.1579 18.4 32.6565V35.2003H21.6V32.6737C24.3426 32.2378 26.1201 30.7147 26.9891 29.194C28.017 27.3951 28 25.6003 28 25.6003C28 23.3262 26.8047 21.5367 25.3063 20.5065C23.8078 19.4764 22.0766 18.9737 20.4766 18.4737C18.8766 17.9737 17.4078 17.4764 16.5063 16.8565C15.6047 16.2367 15.2 15.7262 15.2 14.4003C15.2 14.4003 15.217 13.3951 15.7891 12.394C16.3611 11.393 17.2667 10.4003 20 10.4003C22.6667 10.4003 23.5596 11.4975 24.1688 12.7159C24.7779 13.9343 24.8 15.2003 24.8 15.2003H28C28 15.2003 28.0221 13.2663 27.0313 11.2847C26.1911 9.60439 24.4 7.84271 21.6 7.34404V4.80029H18.4ZM32.7641 7.19248C32.605 7.19808 32.4512 7.251 32.3224 7.34446C32.1936 7.43792 32.0956 7.56769 32.0409 7.71715C31.9862 7.86662 31.9773 8.02901 32.0154 8.18354C32.0535 8.33807 32.1368 8.47774 32.2547 8.58467L36.7703 12.8003H29.2953C29.4297 13.3459 29.5177 13.8835 29.5625 14.4003H36.7703L32.2547 18.6159C32.1725 18.6861 32.1053 18.7721 32.0573 18.8689C32.0093 18.9657 31.9813 19.0713 31.9752 19.1791C31.969 19.287 31.9848 19.3951 32.0216 19.4967C32.0583 19.5983 32.1153 19.6914 32.189 19.7704C32.2627 19.8494 32.3517 19.9127 32.4506 19.9564C32.5494 20.0001 32.6561 20.0233 32.7641 20.0246C32.8722 20.0259 32.9794 20.0054 33.0793 19.9641C33.1792 19.9229 33.2697 19.8618 33.3453 19.7847L39.9719 13.6003L33.3453 7.41592C33.2683 7.34171 33.1772 7.28371 33.0773 7.24533C32.9775 7.20695 32.871 7.18898 32.7641 7.19248ZM1.6 12.8003C1.1576 12.8003 0.8 13.1579 0.8 13.6003C0.8 14.0427 1.1576 14.4003 1.6 14.4003H10.4C10.4 13.8955 10.4592 13.3547 10.5688 12.8003H1.6ZM7.18438 19.9925C6.97654 19.9987 6.77927 20.0855 6.63438 20.2347L0.46875 26.4003L6.63438 32.5659C6.70809 32.6427 6.79639 32.704 6.89409 32.7462C6.99179 32.7884 7.09694 32.8108 7.20337 32.8118C7.3098 32.8129 7.41538 32.7928 7.51392 32.7525C7.61247 32.7123 7.70199 32.6528 7.77725 32.5775C7.85252 32.5023 7.91201 32.4128 7.95224 32.3142C7.99247 32.2157 8.01263 32.1101 8.01155 32.0037C8.01047 31.8972 7.98816 31.7921 7.94593 31.6944C7.9037 31.5967 7.8424 31.5084 7.76563 31.4347L3.53125 27.2003H10.7047C10.5703 26.6547 10.4823 26.1171 10.4375 25.6003H3.53125L7.76563 21.3659C7.88123 21.2535 7.96019 21.1089 7.99215 20.9509C8.02412 20.7928 8.00761 20.6289 7.94477 20.4804C7.88194 20.3319 7.77572 20.2059 7.64003 20.1188C7.50435 20.0318 7.34552 19.9877 7.18438 19.9925ZM29.6 25.6003C29.6 26.1051 29.5409 26.6459 29.4313 27.2003H38.8C39.2424 27.2003 39.6 26.8427 39.6 26.4003C39.6 25.9579 39.2424 25.6003 38.8 25.6003H29.6Z" fill="white" fill-opacity="0.6"/>
</svg>
