<svg width="22" height="22" viewBox="0 0 22 22" fill="none" xmlns="http://www.w3.org/2000/svg">
<path d="M10.9997 5.28027C5.13359 5.28027 0.549687 10.7115 0.549687 10.7115C0.405313 10.8765 0.405313 11.124 0.549687 11.289C0.549687 11.289 5.13359 16.7203 10.9997 16.7203C16.8658 16.7203 21.4497 11.289 21.4497 11.289C21.5941 11.124 21.5941 10.8765 21.4497 10.7115C21.4497 10.7115 16.8658 5.28027 10.9997 5.28027ZM10.9997 6.16027C12.1564 6.16027 13.2616 6.39918 14.2859 6.76527C14.9734 7.54215 15.3997 8.55793 15.3997 9.68027C15.3997 12.1157 13.4352 14.0803 10.9997 14.0803C8.56422 14.0803 6.59969 12.1157 6.59969 9.68027C6.59969 8.55793 7.01219 7.54215 7.69969 6.76527C8.7275 6.39746 9.83953 6.16027 10.9997 6.16027ZM6.24219 7.41152C5.91219 8.09902 5.71969 8.86902 5.71969 9.68027C5.71969 12.5918 8.08813 14.9603 10.9997 14.9603C13.9113 14.9603 16.2797 12.5918 16.2797 9.68027C16.2797 8.87246 16.0958 8.09902 15.7709 7.41152C18.2563 8.6748 20.0438 10.507 20.5009 11.0003C19.7859 11.7737 15.8277 15.8403 10.9997 15.8403C6.17172 15.8403 2.21344 11.7737 1.49844 11.0003C1.95563 10.5053 3.75172 8.6748 6.24219 7.41152ZM10.9997 7.48027C9.78453 7.48027 8.79969 8.46512 8.79969 9.68027C8.79969 10.8954 9.78453 11.8803 10.9997 11.8803C12.2148 11.8803 13.1997 10.8954 13.1997 9.68027C13.1997 8.46512 12.2148 7.48027 10.9997 7.48027Z" fill="#231F20"/>
</svg>
