<svg width="25" height="25" viewBox="0 0 25 25" fill="none" xmlns="http://www.w3.org/2000/svg">
<g opacity="0.5">
<path d="M12.959 1.36304C6.87781 1.36304 1.93774 6.3031 1.93774 12.3843C1.93774 18.4655 6.87781 23.4056 12.959 23.4056C19.0402 23.4056 23.9803 18.4655 23.9803 12.3843C23.9803 6.3031 19.0402 1.36304 12.959 1.36304ZM12.959 2.32141C18.5223 2.32141 23.0219 6.82105 23.0219 12.3843C23.0219 17.9476 18.5223 22.4472 12.959 22.4472C7.39575 22.4472 2.89612 17.9476 2.89612 12.3843C2.89612 6.82105 7.39575 2.32141 12.959 2.32141ZM13.0975 6.39823C11.3102 6.39823 10.1251 7.48125 9.86677 9.13109C9.85 9.23459 9.90085 9.30289 10.0043 9.32014L11.0872 9.51013C11.1907 9.52738 11.259 9.47558 11.2763 9.37255C11.4823 8.32409 12.1007 7.73939 13.0629 7.73939C14.0428 7.73939 14.7298 8.35847 14.7298 9.33792C14.7298 9.92253 14.5239 10.3177 13.923 11.1424L12.7709 12.7231C12.4101 13.2219 12.2561 13.583 12.2561 14.2711V14.9749C12.2561 15.0779 12.3244 15.1472 12.4274 15.1452H13.5617C13.6648 15.1452 13.733 15.077 13.733 14.974V14.4246C13.733 13.8405 13.8368 13.5997 14.1804 13.1358L15.3315 11.5542C15.9162 10.7463 16.2076 10.1453 16.2076 9.32014C16.2076 7.61855 14.9529 6.39823 13.0975 6.39823ZM12.3423 16.4536C12.2387 16.4536 12.17 16.5228 12.17 16.6259V18.1037C12.17 18.2067 12.2383 18.2749 12.3423 18.2749H13.6488C13.7513 18.2749 13.8201 18.2072 13.8201 18.1037V16.6259C13.8201 16.5233 13.7518 16.4536 13.6488 16.4536H12.3423Z" fill="#0B111A"/>
</g>
</svg>
