<svg width="22" height="22" viewBox="0 0 22 22" fill="none" xmlns="http://www.w3.org/2000/svg">
<path d="M10.9999 0.880005C5.41056 0.880005 0.879883 5.41069 0.879883 11C0.879883 16.5893 5.41056 21.12 10.9999 21.12C16.5892 21.12 21.1199 16.5893 21.1199 11C21.1199 5.41069 16.5892 0.880005 10.9999 0.880005ZM10.9999 4.84C11.729 4.84 12.3199 5.43092 12.3199 6.16C12.3199 6.88908 11.729 7.48 10.9999 7.48C10.2708 7.48 9.67988 6.88908 9.67988 6.16C9.67988 5.43092 10.2708 4.84 10.9999 4.84ZM12.7599 16.72H11.8799H10.1199H9.23988V15.84H10.1199V10.12H9.23988V9.24H10.1199H11.8799V10.12V15.84H12.7599V16.72Z" fill="#2864FF"/>
</svg>
