<svg width="26" height="26" viewBox="0 0 26 26" fill="none" xmlns="http://www.w3.org/2000/svg">
<path d="M3.64004 4.68005C2.21004 4.68005 1.04004 5.85005 1.04004 7.28005V18.7201C1.04004 20.1501 2.21004 21.3201 3.64004 21.3201H22.36C23.79 21.3201 24.96 20.1501 24.96 18.7201V7.28005C24.96 5.85005 23.79 4.68005 22.36 4.68005H3.64004ZM3.64004 5.72005H22.36C23.2274 5.72005 23.92 6.41271 23.92 7.28005V18.7201C23.92 19.5874 23.2274 20.2801 22.36 20.2801H3.64004C2.7727 20.2801 2.08004 19.5874 2.08004 18.7201V7.28005C2.08004 6.41271 2.7727 5.72005 3.64004 5.72005ZM14.9988 8.32005C14.8282 8.34646 14.6819 8.45615 14.6088 8.61255L10.4488 16.9326C10.3229 17.1926 10.4325 17.5054 10.6925 17.6313C10.9525 17.7572 11.2654 17.6476 11.3913 17.3876L15.5513 9.06755C15.6407 8.89287 15.6224 8.68162 15.5066 8.52318C15.3888 8.36474 15.1918 8.28755 14.9988 8.32005ZM10.4 8.84005C9.54488 8.84005 8.84004 9.5449 8.84004 10.4001V10.9201C8.84004 11.7752 9.54488 12.4801 10.4 12.4801C11.2552 12.4801 11.96 11.7752 11.96 10.9201V10.4001C11.96 9.5449 11.2552 8.84005 10.4 8.84005ZM10.4 9.88005C10.6946 9.88005 10.92 10.1055 10.92 10.4001V10.9201C10.92 11.2146 10.6946 11.4401 10.4 11.4401C10.1055 11.4401 9.88004 11.2146 9.88004 10.9201V10.4001C9.88004 10.1055 10.1055 9.88005 10.4 9.88005ZM15.6 13.5201C14.7449 13.5201 14.04 14.2249 14.04 15.0801V15.6001C14.04 16.4552 14.7449 17.1601 15.6 17.1601C16.4552 17.1601 17.16 16.4552 17.16 15.6001V15.0801C17.16 14.2249 16.4552 13.5201 15.6 13.5201ZM15.6 14.5601C15.8946 14.5601 16.12 14.7855 16.12 15.0801V15.6001C16.12 15.8946 15.8946 16.1201 15.6 16.1201C15.3055 16.1201 15.08 15.8946 15.08 15.6001V15.0801C15.08 14.7855 15.3055 14.5601 15.6 14.5601Z" fill="#2864FF"/>
</svg>
