<svg width="40" height="40" viewBox="0 0 40 40" fill="none" xmlns="http://www.w3.org/2000/svg">
<path d="M20 0C18.2343 0 16.8 1.43438 16.8 3.2C16.8 4.96562 18.2343 6.4 20 6.4C21.7656 6.4 23.1999 4.96562 23.1999 3.2C23.1999 1.43438 21.7656 0 20 0ZM15.5 4.875C11.8437 6.44062 9.59995 9.96562 9.59995 14.4C9.59995 23.2 6.55933 25.4094 4.74995 26.725C3.94683 27.3063 3.19995 27.8469 3.19995 28.8C3.19995 32.1656 8.22495 33.6 20 33.6C31.775 33.6 36.7999 32.1656 36.7999 28.8C36.7999 27.8469 36.0531 27.3063 35.25 26.725C33.4406 25.4094 30.4 23.2 30.4 14.4C30.4 9.95312 28.1593 6.4375 24.5 4.875C23.8156 6.69375 22.0531 8 20 8C17.9468 8 16.1843 6.69062 15.5 4.875ZM15.2 35.1C15.2 35.1313 15.2 35.1688 15.2 35.2C15.2 37.8469 17.3531 40 20 40C22.6468 40 24.7999 37.8469 24.7999 35.2C24.7999 35.1688 24.7999 35.1313 24.7999 35.1C23.2937 35.1625 21.6937 35.2 20 35.2C18.3062 35.2 16.7062 35.1625 15.2 35.1Z" fill="white" fill-opacity="0.6"/>
</svg>
