<svg width="25" height="25" viewBox="0 0 25 25" fill="none" xmlns="http://www.w3.org/2000/svg">
<path fill-rule="evenodd" clip-rule="evenodd" d="M3 12.526C3 7.26495 7.26495 3 12.526 3C17.7871 3 22.0521 7.26495 22.0521 12.526C22.0521 17.7871 17.7871 22.0521 12.526 22.0521C7.26495 22.0521 3 17.7871 3 12.526ZM12.526 2C6.71267 2 2 6.71267 2 12.526C2 18.3394 6.71267 23.0521 12.526 23.0521C18.3394 23.0521 23.0521 18.3394 23.0521 12.526C23.0521 6.71267 18.3394 2 12.526 2ZM13.5261 15.7344V13.5261H15.7344V11.5261H13.5261V9.31778H11.5261V11.5261H9.31778V13.5261H11.5261V15.7344H13.5261Z" fill="#C4C4C4"/>
</svg>
