<svg width="22" height="22" viewBox="0 0 22 22" fill="none" xmlns="http://www.w3.org/2000/svg">
<g opacity="0.5">
<path d="M4.8125 2.75C3.68156 2.75 2.75 3.68156 2.75 4.8125V8.02083C2.75 9.15177 3.68156 10.0833 4.8125 10.0833H8.02083C9.15177 10.0833 10.0833 9.15177 10.0833 8.02083V4.8125C10.0833 3.68156 9.15177 2.75 8.02083 2.75H4.8125ZM13.9792 2.75C12.8482 2.75 11.9167 3.68156 11.9167 4.8125V8.02083C11.9167 9.15177 12.8482 10.0833 13.9792 10.0833H17.1875C18.3184 10.0833 19.25 9.15177 19.25 8.02083V4.8125C19.25 3.68156 18.3184 2.75 17.1875 2.75H13.9792ZM4.8125 4.125H8.02083C8.40881 4.125 8.70833 4.42452 8.70833 4.8125V8.02083C8.70833 8.40881 8.40881 8.70833 8.02083 8.70833H4.8125C4.42452 8.70833 4.125 8.40881 4.125 8.02083V4.8125C4.125 4.42452 4.42452 4.125 4.8125 4.125ZM13.9792 4.125H17.1875C17.5755 4.125 17.875 4.42452 17.875 4.8125V8.02083C17.875 8.40881 17.5755 8.70833 17.1875 8.70833H13.9792C13.5912 8.70833 13.2917 8.40881 13.2917 8.02083V4.8125C13.2917 4.42452 13.5912 4.125 13.9792 4.125ZM5.5 5.5V7.33333H7.33333V5.5H5.5ZM14.6667 5.5V7.33333H16.5V5.5H14.6667ZM4.8125 11.9167C3.68156 11.9167 2.75 12.8482 2.75 13.9792V17.1875C2.75 18.3184 3.68156 19.25 4.8125 19.25H8.02083C9.15177 19.25 10.0833 18.3184 10.0833 17.1875V13.9792C10.0833 12.8482 9.15177 11.9167 8.02083 11.9167H4.8125ZM11.9167 11.9167V14.4375H14.4375V11.9167H11.9167ZM14.4375 14.4375V16.7292H16.7292V14.4375H14.4375ZM16.7292 14.4375H19.25V11.9167H16.7292V14.4375ZM16.7292 16.7292V19.25H19.25V16.7292H16.7292ZM14.4375 16.7292H11.9167V19.25H14.4375V16.7292ZM4.8125 13.2917H8.02083C8.40881 13.2917 8.70833 13.5912 8.70833 13.9792V17.1875C8.70833 17.5755 8.40881 17.875 8.02083 17.875H4.8125C4.42452 17.875 4.125 17.5755 4.125 17.1875V13.9792C4.125 13.5912 4.42452 13.2917 4.8125 13.2917ZM5.5 14.6667V16.5H7.33333V14.6667H5.5Z" fill="#0B111A"/>
</g>
</svg>
