<svg width="40" height="40" viewBox="0 0 40 40" fill="none" xmlns="http://www.w3.org/2000/svg">
<path d="M39.2712 16.7139L34.1317 15.8739C33.8308 14.8426 33.4194 13.8513 32.9046 12.913L35.9049 8.63739C36.1475 8.29217 36.1057 7.82174 35.8075 7.52261L32.4254 4.14261C32.1237 3.84174 31.6488 3.80261 31.3027 4.05217L27.091 7.07913C26.144 6.55565 25.1439 6.14 24.1064 5.83826L23.2098 0.72C23.1368 0.304348 22.7759 0 22.3532 0H17.5702C17.1441 0 16.7806 0.308696 16.7119 0.729565L15.8805 5.82C14.8369 6.12 13.8351 6.5313 12.8916 7.04783L8.69119 4.04783C8.3442 3.8 7.87199 3.84 7.57022 4.14L4.18993 7.52C3.89164 7.81826 3.8499 8.28783 4.09253 8.63304L7.04844 12.8617C6.52231 13.8139 6.10314 14.8217 5.79789 15.8704L0.72702 16.7148C0.307853 16.7843 0 17.1478 0 17.5722V22.3548C0 22.7765 0.302635 23.1374 0.717453 23.2113L5.78833 24.1104C6.09183 25.1565 6.511 26.1643 7.03887 27.1191L4.04644 31.3043C3.79946 31.6496 3.83859 32.1235 4.13862 32.4252L7.51978 35.8087C7.81807 36.107 8.28855 36.1487 8.63379 35.9061L12.8689 32.94C13.8195 33.4626 14.8239 33.8774 15.8649 34.1783L16.7136 39.2748C16.7823 39.693 17.145 40 17.5702 40H22.3532C22.775 40 23.1359 39.6974 23.209 39.2826L24.1177 34.1609C25.1604 33.8539 26.1597 33.4365 27.1006 32.913L31.3662 35.9052C31.7123 36.1496 32.1819 36.107 32.4811 35.8087L35.8622 32.4252C36.1631 32.1235 36.2023 31.6478 35.9527 31.3017L32.9107 27.0783C33.4264 26.1391 33.836 25.1461 34.1343 24.1148L39.2808 23.2113C39.6974 23.1383 40 22.7765 40 22.3548V17.5722C40.0009 17.1461 39.6921 16.7826 39.2712 16.7139ZM20 26.087C16.638 26.087 13.9125 23.3617 13.9125 20C13.9125 16.6383 16.638 13.913 20 13.913C23.362 13.913 26.0875 16.6383 26.0875 20C26.0875 23.3617 23.362 26.087 20 26.087Z" fill="white"/>
</svg>
