<svg width="32" height="32" viewBox="0 0 32 32" fill="none" xmlns="http://www.w3.org/2000/svg">
<path d="M15.8093 3.65247C9.08495 3.65247 3.61182 9.1256 3.61182 15.8499C3.61182 22.5742 9.08495 28.0474 15.8093 28.0474C18.4062 28.0474 20.8069 27.2153 22.7756 25.8298C22.9962 25.6748 23.1462 25.4384 23.1925 25.1728C23.2389 24.9071 23.1778 24.634 23.0227 24.4133C22.8677 24.1927 22.6313 24.0428 22.3657 23.9964C22.1 23.9501 21.8269 24.0111 21.6062 24.1662C19.9584 25.3259 17.9734 26.0145 15.8093 26.0145C10.1837 26.0145 5.64473 21.4755 5.64473 15.8499C5.64473 10.2243 10.1837 5.68537 15.8093 5.68537C17.9734 5.68537 19.9584 6.37395 21.6062 7.53365C21.7155 7.61043 21.8388 7.66494 21.9691 7.69408C22.0994 7.72321 22.2341 7.72639 22.3657 7.70344C22.4972 7.68048 22.6229 7.63185 22.7357 7.56031C22.8484 7.48877 22.9459 7.39573 23.0227 7.28649C23.0995 7.17725 23.154 7.05396 23.1831 6.92366C23.2123 6.79336 23.2155 6.65859 23.1925 6.52706C23.1696 6.39552 23.1209 6.2698 23.0494 6.15706C22.9778 6.04433 22.8848 5.94678 22.7756 5.87C20.8069 4.48451 18.4062 3.65247 15.8093 3.65247ZM23.931 10.7577C23.7288 10.7578 23.5312 10.8181 23.3635 10.9311C23.1957 11.044 23.0655 11.2044 22.9894 11.3918C22.9133 11.5791 22.8948 11.7849 22.9363 11.9828C22.9778 12.1807 23.0773 12.3617 23.2222 12.5028L25.5529 14.8335H14.7928C14.6581 14.8316 14.5244 14.8564 14.3994 14.9067C14.2744 14.9569 14.1607 15.0315 14.0647 15.126C13.9688 15.2206 13.8926 15.3333 13.8406 15.4576C13.7887 15.5819 13.7619 15.7152 13.7619 15.8499C13.7619 15.9846 13.7887 16.118 13.8406 16.2423C13.8926 16.3665 13.9688 16.4792 14.0647 16.5738C14.1607 16.6684 14.2744 16.7429 14.3994 16.7932C14.5244 16.8434 14.6581 16.8683 14.7928 16.8664H25.5529L23.2222 19.1971C23.1247 19.2907 23.0468 19.4029 22.9932 19.5271C22.9395 19.6512 22.9112 19.7848 22.9098 19.92C22.9084 20.0553 22.934 20.1894 22.9851 20.3146C23.0363 20.4398 23.1118 20.5536 23.2075 20.6492C23.3031 20.7448 23.4168 20.8204 23.542 20.8715C23.6672 20.9226 23.8014 20.9482 23.9366 20.9469C24.0719 20.9455 24.2055 20.9171 24.3296 20.8635C24.4537 20.8098 24.5659 20.732 24.6596 20.6344L28.6361 16.6579C28.7606 16.5629 28.8615 16.4404 28.9309 16.3C29.0003 16.1596 29.0363 16.0051 29.0361 15.8484C29.0359 15.6918 28.9995 15.5373 28.9298 15.3971C28.86 15.2569 28.7588 15.1346 28.6341 15.0399L24.6596 11.0654C24.5649 10.9681 24.4516 10.8907 24.3264 10.8378C24.2013 10.785 24.0668 10.7577 23.931 10.7577Z" fill="white"/>
</svg>
