<svg width="54" height="54" viewBox="0 0 54 54" fill="none" xmlns="http://www.w3.org/2000/svg">
<path d="M27.0003 0.320068C12.2783 0.320068 0.320312 12.2781 0.320312 27.0001C0.320312 41.7221 12.2783 53.6801 27.0003 53.6801C41.7223 53.6801 53.6803 41.7221 53.6803 27.0001C53.6803 12.3409 41.8193 0.439657 27.1838 0.338193C27.1232 0.327292 27.0619 0.321231 27.0003 0.320068ZM27.0003 2.64007C40.4687 2.64007 51.3603 13.5318 51.3603 27.0001C51.3603 40.4684 40.4687 51.3601 27.0003 51.3601C13.532 51.3601 2.64031 40.4684 2.64031 27.0001C2.64031 13.5318 13.532 2.64007 27.0003 2.64007ZM17.7203 18.8801C16.7974 18.8801 15.9122 19.2467 15.2596 19.8994C14.607 20.552 14.2403 21.4372 14.2403 22.3601C14.2403 23.2831 14.607 24.1682 15.2596 24.8208C15.9122 25.4735 16.7974 25.8401 17.7203 25.8401C18.6433 25.8401 19.5284 25.4735 20.181 24.8208C20.8337 24.1682 21.2003 23.2831 21.2003 22.3601C21.2003 21.4372 20.8337 20.552 20.181 19.8994C19.5284 19.2467 18.6433 18.8801 17.7203 18.8801ZM36.2803 18.8801C35.3574 18.8801 34.4722 19.2467 33.8196 19.8994C33.167 20.552 32.8003 21.4372 32.8003 22.3601C32.8003 23.2831 33.167 24.1682 33.8196 24.8208C34.4722 25.4735 35.3574 25.8401 36.2803 25.8401C37.2033 25.8401 38.0884 25.4735 38.741 24.8208C39.3937 24.1682 39.7603 23.2831 39.7603 22.3601C39.7603 21.4372 39.3937 20.552 38.741 19.8994C38.0884 19.2467 37.2033 18.8801 36.2803 18.8801ZM27.0003 31.6401C19.5248 31.6401 14.5802 36.62 14.5802 36.62C14.4688 36.7268 14.3799 36.8549 14.3187 36.9965C14.2575 37.1382 14.2251 37.2907 14.2236 37.445C14.222 37.5993 14.2512 37.7524 14.3096 37.8953C14.3679 38.0382 14.4542 38.168 14.5633 38.2771C14.6724 38.3863 14.8022 38.4725 14.9451 38.5309C15.088 38.5892 15.2411 38.6184 15.3954 38.6169C15.5498 38.6153 15.7022 38.5829 15.8439 38.5217C15.9856 38.4605 16.1136 38.3716 16.2205 38.2603C16.2205 38.2603 20.5559 33.9601 27.0003 33.9601C33.4448 33.9601 37.7802 38.2603 37.7802 38.2603C37.887 38.3716 38.0151 38.4605 38.1567 38.5217C38.2984 38.5829 38.4509 38.6153 38.6052 38.6169C38.7595 38.6184 38.9126 38.5892 39.0555 38.5309C39.1984 38.4725 39.3282 38.3863 39.4373 38.2771C39.5465 38.168 39.6327 38.0382 39.6911 37.8953C39.7494 37.7524 39.7786 37.5993 39.7771 37.445C39.7755 37.2907 39.7431 37.1382 39.6819 36.9965C39.6207 36.8549 39.5318 36.7268 39.4205 36.62C39.4205 36.62 34.4759 31.6401 27.0003 31.6401Z" fill="#0B111A"/>
</svg>
