<svg width="26" height="26" viewBox="0 0 26 26" fill="none" xmlns="http://www.w3.org/2000/svg">
<g clip-path="url(#clip0)">
<path d="M17.1605 0.0324707C16.7867 0.0324707 16.4231 0.190908 16.1367 0.471221L16.1205 0.454971L13.0492 3.49372C12.9659 3.5445 12.8989 3.61763 12.8542 3.70497L0.406719 16.055C0.406719 16.0611 0.406719 16.0651 0.406719 16.0712C-0.168125 16.6461 -0.168125 17.5764 0.406719 18.1512L2.03172 19.76C2.21453 19.9448 2.50703 19.9651 2.71422 19.8087C3.16109 19.4512 3.74406 19.1912 4.32297 19.1912C5.70625 19.1912 6.76047 20.2962 6.76047 21.6287C6.76047 22.232 6.54109 22.7804 6.15922 23.205C5.97844 23.4142 5.99266 23.729 6.19172 23.92L7.80047 25.5287C8.37531 26.1036 9.30563 26.1036 9.88047 25.5287L22.1817 13.2275H22.198C22.397 13.1808 22.5494 13.0223 22.588 12.8212C22.588 12.8151 22.588 12.8111 22.588 12.805L25.4805 9.92872C25.5008 9.9145 25.5109 9.89622 25.5292 9.87997C26.1548 9.35591 26.1528 8.40732 25.5942 7.84872L23.9692 6.23997C23.7864 6.05513 23.4939 6.03481 23.2867 6.19122C22.8419 6.54669 22.3463 6.75997 21.743 6.75997C20.3597 6.75997 19.2892 5.65497 19.2892 4.32247C19.2892 3.71919 19.5025 3.20731 19.858 2.76247C20.0144 2.55528 19.9941 2.26278 19.8092 2.07997L18.2005 0.471221C17.9141 0.184815 17.5383 0.0324707 17.1605 0.0324707ZM17.1605 1.08872C17.2763 1.08872 17.392 1.12528 17.4692 1.20247L18.8017 2.53497C18.4848 3.05497 18.2492 3.65013 18.2492 4.32247C18.2492 6.21356 19.797 7.79997 21.743 7.79997C22.4173 7.79997 22.9942 7.56435 23.5142 7.24747L24.8467 8.57997C25.0011 8.73435 25.0133 8.98825 24.863 9.09997C24.8406 9.11419 24.8183 9.13044 24.798 9.14872L22.0192 11.9275C21.9136 11.832 21.7714 11.7853 21.6292 11.7975C21.4342 11.8158 21.2677 11.9417 21.1945 12.1245C21.1234 12.3053 21.158 12.5125 21.288 12.6587L9.14922 24.7975C8.99484 24.9518 8.68609 24.9518 8.53172 24.7975L7.19922 23.465C7.55266 22.9206 7.80047 22.3031 7.80047 21.6287C7.80047 19.7376 6.26891 18.1512 4.32297 18.1512C3.62625 18.1512 3.01484 18.4193 2.48672 18.7525L1.15422 17.42C0.999844 17.2656 0.999844 16.9568 1.15422 16.8025L13.3255 4.69622C13.5266 4.90341 13.8577 4.90544 14.0648 4.70435C14.272 4.50325 14.2741 4.17216 14.073 3.96497L16.8517 1.20247C16.9289 1.12528 17.0447 1.08872 17.1605 1.08872ZM15.0642 5.26497L14.6742 5.52497L14.658 5.99622L14.7717 6.14247L15.4867 6.87372L15.9417 7.01997L16.3155 6.74372L16.3317 6.28872L16.2342 6.12622L15.503 5.41122L15.0642 5.26497ZM17.2417 7.44247L16.868 7.71872L16.8517 8.17372L16.9492 8.33622L17.6805 9.06747L18.1192 9.21372L18.5092 8.93747L18.5255 8.48247L18.428 8.31997L17.6967 7.58872L17.2417 7.44247ZM19.4355 9.63622L19.0617 9.89622L19.0455 10.3675L19.143 10.5137L19.8742 11.245L20.313 11.3912L20.703 11.1312L20.7192 10.66L20.6055 10.5137L19.8742 9.78247L19.4355 9.63622Z" fill="#2864FF"/>
</g>
<defs>
<clipPath id="clip0">
<rect width="26" height="26" fill="white"/>
</clipPath>
</defs>
</svg>
