<svg width="32" height="33" viewBox="0 0 32 33" fill="none" xmlns="http://www.w3.org/2000/svg">
<path d="M23.3155 0.304097C22.7218 0.313003 22.0657 0.443628 21.2493 0.660347C18.9069 1.27785 5.43178 5.0066 5.43178 5.0066C5.40803 5.01253 5.38428 5.02144 5.36053 5.03035C3.226 5.83488 1.88115 6.59191 1.06178 7.69035C0.24834 8.78285 0.0672459 10.095 0.0642773 11.6566C0.0642773 11.6655 0.0642773 11.6714 0.0642773 11.6803V12.1553C0.0553709 12.2503 0.0405273 12.3453 0.0405273 12.4403V28.6853C0.0405273 31.0336 1.96725 32.9603 4.31553 32.9603H27.6855C30.0338 32.9603 31.9605 31.0336 31.9605 28.6853V12.3216C31.9605 9.8991 29.7933 7.88035 27.4005 7.88035H4.60053C3.7485 7.88035 2.98256 8.12378 2.34428 8.5216C2.89647 7.84175 3.9385 7.2005 5.83553 6.4791C5.85631 6.47019 5.86225 6.46425 5.88303 6.45535C5.96912 6.4316 19.3641 2.72957 21.6293 2.13285C22.3833 1.93394 22.9474 1.83003 23.3393 1.8241C23.7312 1.81816 23.9152 1.87753 24.0043 1.94285C24.0933 2.00816 24.1676 2.13582 24.2418 2.4416C24.316 2.74738 24.3605 3.21347 24.3605 3.8191V6.36035H25.8805V3.8191C25.8805 3.16003 25.839 2.60191 25.7143 2.08535C25.5896 1.56878 25.3462 1.06113 24.9068 0.731597C24.4674 0.402065 23.9093 0.29519 23.3155 0.304097ZM4.60053 9.40035H27.4005C28.8819 9.40035 30.4405 10.8728 30.4405 12.3216V28.6853C30.4405 30.2113 29.2115 31.4403 27.6855 31.4403H4.31553C2.78662 31.4403 1.56053 30.2143 1.56053 28.6853V13.5566L1.58428 12.2978C1.62881 11.7813 1.89303 11.045 2.39178 10.4691C2.93506 9.83972 3.67725 9.40035 4.60053 9.40035ZM26.2605 18.5203C25.2096 18.5203 24.3605 19.3694 24.3605 20.4203C24.3605 21.4713 25.2096 22.3203 26.2605 22.3203C27.3085 22.3203 28.1605 21.4713 28.1605 20.4203C28.1605 19.3694 27.3085 18.5203 26.2605 18.5203Z" fill="#2864FF"/>
</svg>
