<svg width="43" height="25" viewBox="0 0 43 25" fill="none" xmlns="http://www.w3.org/2000/svg">
<path fill-rule="evenodd" clip-rule="evenodd" d="M3.77436 9.36331L9.38182 3.62984V4.09703e-07L2.00316 7.54946C-0.667722 10.2827 -0.667722 14.7152 2.00316 17.4485L9.3798 25V21.3702L3.77436 15.6325C2.08367 13.9021 2.08367 11.0937 3.77436 9.36331ZM8.85859 21.5822L3.40142 15.9964C1.51305 14.0636 1.51304 10.9322 3.40142 8.99946L8.86061 3.41759V1.2787L2.37608 7.91334C-0.0970398 10.4443 -0.0970642 14.5537 2.37608 17.0846L8.85859 23.7208V21.5822Z" fill="#2864FF"/>
<path fill-rule="evenodd" clip-rule="evenodd" d="M40.6277 16.5394L34.1414 22.972V20.9153L39.5947 15.5078C41.4883 13.6304 41.4883 10.5843 39.5947 8.70686L34.1394 3.30325V1.24628L40.6278 7.67741C43.0958 10.1242 43.0957 14.0927 40.6277 16.5394ZM40.9968 7.31354C43.6677 9.9614 43.6677 14.2554 40.9968 16.9032L33.6202 24.2188V20.7023L39.2256 15.144C40.9163 13.4676 40.9163 10.7471 39.2256 9.0707L33.6182 3.5164V4.09703e-07L40.9968 7.31354Z" fill="#2864FF"/>
<path d="M10.9455 20.7155V24.2188L18.3339 16.8863C20.9917 14.2483 20.9917 9.97249 18.3339 7.33245L10.9475 0L10.9475 3.50326L16.5694 9.08512C18.2518 10.7552 18.2518 13.4656 16.5694 15.1357L10.9455 20.7155Z" fill="#2864FF"/>
<path d="M32.0545 20.7155V24.2188L24.6661 16.8863C22.0083 14.2483 22.0083 9.97249 24.6661 7.33245L32.0525 0V3.50326L26.4306 9.08512C24.7482 10.7552 24.7482 13.4656 26.4306 15.1357L32.0545 20.7155Z" fill="#2864FF"/>
</svg>
