<svg width="169" height="65" viewBox="0 0 169 65" fill="none" xmlns="http://www.w3.org/2000/svg">
<path opacity="0.3" fill-rule="evenodd" clip-rule="evenodd" d="M12.5728 54.5181C12.2633 54.3284 11.8754 54.3214 11.5592 54.4996L9.50893 55.6554C9.19451 55.8326 9 56.1656 9 56.5265V59C9 59.5523 9.44772 60 10 60H159C159.552 60 160 59.5523 160 59V18.0209C160 17.938 159.99 17.8554 159.969 17.775L157.925 9.71543C157.733 8.96125 156.792 8.70488 156.245 9.25792L152.445 13.0976C152.212 13.3328 151.878 13.4376 151.552 13.3775L148.871 12.8825C148.598 12.832 148.358 12.67 148.209 12.4353L147.73 11.6816C147.35 11.083 146.485 11.0593 146.072 11.6362L142.643 16.4351C142.286 16.9337 141.569 16.9973 141.131 16.5693L140.233 15.6932C139.905 15.3733 139.402 15.3171 139.011 15.5566L138.978 15.5773C138.653 15.7768 138.242 15.774 137.92 15.5702L137.495 15.3014C136.99 14.9822 136.32 15.1737 136.06 15.7115L131.775 24.5784C131.719 24.6956 131.64 24.8006 131.543 24.8876L130.008 26.2643C129.866 26.3917 129.764 26.5571 129.713 26.7409L127.507 34.6772C127.355 35.2259 126.761 35.5221 126.231 35.314C126.075 35.253 125.906 35.2336 125.741 35.2578L117.929 36.4005C117.833 36.4145 117.74 36.4425 117.652 36.4835L115.641 37.4202C115.438 37.5151 115.208 37.5386 114.99 37.4871L110.539 36.4381C110.492 36.4272 110.445 36.4196 110.397 36.4154L106.885 36.1054C106.744 36.093 106.607 36.0507 106.484 35.9814L104.701 34.9809C104.495 34.8653 104.254 34.8264 104.023 34.871L102.766 35.1127C102.418 35.1797 102.06 35.0572 101.826 34.7908L101.623 34.5597C101.139 34.0095 100.248 34.1485 99.9551 34.8199L98.6746 37.7548C98.6085 37.9063 98.5059 38.039 98.3759 38.1411L95.2878 40.5679C95.1363 40.687 95.0225 40.8472 94.9599 41.0294L94.1331 43.4371C94.1153 43.489 94.1019 43.5422 94.0929 43.5962C93.9101 44.693 92.3369 44.7006 92.1381 43.6066C92.0284 43.0034 91.4034 42.6421 90.8263 42.849L89.6841 43.2585C89.2613 43.4101 88.7893 43.2612 88.53 42.8945L85.1269 38.0806C85.0822 38.0174 85.045 37.9493 85.0161 37.8776L83.2371 33.47C82.9521 32.7637 82.0137 32.6226 81.5336 33.2138L76.9476 38.8607C76.7784 39.069 76.5325 39.2006 76.2653 39.2258L71.1041 39.7128C70.8834 39.7336 70.6758 39.8272 70.5141 39.9789L70.2648 40.2126C69.6978 40.7442 68.7676 40.4541 68.6034 39.6944L67.6363 35.2208L65.2234 25.7098C65.0321 24.9556 64.0907 24.6993 63.5434 25.2523L59.7435 29.092C59.5107 29.3272 59.1766 29.432 58.8511 29.3719L56.1703 28.8769C55.8969 28.8264 55.6568 28.6644 55.5077 28.4297L55.0289 27.6759C54.6487 27.0774 53.7836 27.0537 53.3713 27.6306L49.9413 32.4295C49.585 32.9281 48.868 32.9917 48.4294 32.5637L47.5315 31.6876C47.2037 31.3677 46.7004 31.3114 46.3101 31.551L46.2764 31.5717C45.9514 31.7712 45.5412 31.7684 45.2188 31.5645L44.7939 31.2958C44.2892 30.9766 43.6189 31.1681 43.3591 31.7059L39.0741 40.5727C39.0174 40.69 38.9384 40.795 38.8415 40.882L37.307 42.2587C37.165 42.3861 37.0624 42.5515 37.0114 42.7353L34.7548 50.8553C34.6294 51.3065 34.1423 51.5512 33.7055 51.3824C33.4486 51.2832 33.1587 51.3243 32.9397 51.4911L27.4786 55.6491C27.2353 55.8343 26.9208 55.898 26.6246 55.8222L25.0692 55.4238C24.8955 55.3793 24.7131 55.3823 24.541 55.4325L23.7259 55.6703C23.2066 55.8218 22.661 55.5328 22.4945 55.0182L21.2821 51.2719C21.0196 50.4605 19.927 50.329 19.4795 51.055L16.5597 55.7915C16.2704 56.2607 15.656 56.4074 15.186 56.1194L12.5728 54.5181Z" fill="url(#paint0_linear)"/>
<g filter="url(#filter0_dd)">
<path d="M9 55.311L11.5644 53.8845C11.8779 53.71 12.2609 53.717 12.568 53.9026L15.193 55.49C15.6607 55.7728 16.2689 55.6277 16.5585 55.1641L19.4832 50.4821C19.9326 49.7627 21.0173 49.8943 21.2816 50.7003L22.4931 54.395C22.6607 54.9062 23.2029 55.1932 23.7199 55.0443L24.5442 54.8071C24.7143 54.7581 24.8943 54.7552 25.0659 54.7985L26.63 55.1939C26.9231 55.268 27.234 55.2055 27.4757 55.0238L32.9397 50.9184C33.1591 50.7536 33.4477 50.7129 33.7041 50.8107V50.8107C34.1428 50.978 34.6304 50.7327 34.7577 50.2808L37.0099 42.283C37.0619 42.0983 37.166 41.9325 37.3096 41.8053L38.8401 40.4502C38.9379 40.3636 39.0178 40.2587 39.0753 40.1413L43.3593 31.3932C43.62 30.8608 44.284 30.6708 44.7869 30.9847L45.2238 31.2574C45.5437 31.457 45.9488 31.4598 46.2713 31.2644L46.3162 31.2372C46.704 31.0023 47.2013 31.0577 47.5279 31.3722L48.4349 32.2456C48.8726 32.6671 49.582 32.604 49.9384 32.1118L53.3752 27.3668C53.788 26.7968 54.645 26.8203 55.0259 27.4121L55.5067 28.1591C55.6565 28.3918 55.896 28.5521 56.1683 28.6017L58.8566 29.0915C59.179 29.1503 59.5098 29.0473 59.7419 28.8158L63.5493 25.0192C64.0971 24.4729 65.0313 24.729 65.2239 25.4784L67.6363 34.8624L68.6027 39.2741C68.7682 40.0292 69.6913 40.3191 70.2587 39.7941L70.5147 39.5572C70.6761 39.4079 70.8822 39.3159 71.1012 39.2955L76.2683 38.8144C76.5337 38.7897 76.7783 38.66 76.9477 38.4541L81.5386 32.8757C82.0194 32.2914 82.9499 32.4322 83.2363 33.1326L85.0153 37.4822C85.0448 37.5543 85.0826 37.6227 85.1279 37.686L88.5309 42.4363C88.7903 42.7982 89.2577 42.9451 89.6774 42.7966L90.8327 42.3879C91.4078 42.1844 92.0286 42.5435 92.1391 43.1434V43.1434C92.3401 44.2344 93.9078 44.2234 94.0925 43.1295V43.1295C94.1018 43.0748 94.1156 43.0211 94.1338 42.9687L94.9583 40.599C95.0219 40.4163 95.1371 40.256 95.29 40.1374L98.3743 37.7455C98.5053 37.6439 98.609 37.5113 98.6761 37.3597L99.9561 34.4646C100.25 33.7992 101.134 33.6606 101.618 34.2039L101.827 34.4393C102.061 34.7018 102.415 34.8223 102.76 34.7568L104.027 34.5164C104.256 34.4729 104.494 34.5109 104.698 34.624L106.485 35.6138C106.608 35.6817 106.743 35.723 106.883 35.7352L110.398 36.0413C110.445 36.0454 110.492 36.0528 110.538 36.0635L114.994 37.0998C115.21 37.1501 115.437 37.127 115.638 37.0344L117.653 36.1079C117.74 36.0678 117.833 36.0405 117.928 36.0268L125.742 34.8987C125.907 34.8749 126.075 34.894 126.23 34.954V34.954C126.762 35.1601 127.356 34.8634 127.51 34.3143L129.711 26.4992C129.763 26.3145 129.867 26.1487 130.011 26.0216L131.541 24.6665C131.639 24.5798 131.719 24.4749 131.777 24.3575L136.061 15.6094C136.321 15.077 136.985 14.887 137.488 15.2009L137.925 15.4736C138.245 15.6733 138.65 15.676 138.973 15.4806L139.017 15.4534C139.405 15.2185 139.903 15.274 140.229 15.5884L141.136 16.4618C141.574 16.8833 142.283 16.8202 142.64 16.328L146.076 11.583C146.489 11.013 147.346 11.0365 147.727 11.6284L148.208 12.3753C148.358 12.608 148.597 12.7683 148.87 12.8179L151.558 13.3077C151.88 13.3665 152.211 13.2635 152.443 13.032L156.25 9.23546C156.798 8.68915 157.732 8.94526 157.925 9.69459L160 17.7658" stroke="#0AD1A1"/>
</g>
<defs>
<filter id="filter0_dd" x="0.757812" y="0.442383" width="167.727" height="63.6919" filterUnits="userSpaceOnUse" color-interpolation-filters="sRGB">
<feFlood flood-opacity="0" result="BackgroundImageFix"/>
<feColorMatrix in="SourceAlpha" type="matrix" values="0 0 0 0 0 0 0 0 0 0 0 0 0 0 0 0 0 0 127 0"/>
<feOffset/>
<feGaussianBlur stdDeviation="1"/>
<feColorMatrix type="matrix" values="0 0 0 0 0.0392157 0 0 0 0 0.819608 0 0 0 0 0.631373 0 0 0 0.5 0"/>
<feBlend mode="normal" in2="BackgroundImageFix" result="effect1_dropShadow"/>
<feColorMatrix in="SourceAlpha" type="matrix" values="0 0 0 0 0 0 0 0 0 0 0 0 0 0 0 0 0 0 127 0"/>
<feOffset/>
<feGaussianBlur stdDeviation="4"/>
<feColorMatrix type="matrix" values="0 0 0 0 0.0392157 0 0 0 0 0.819608 0 0 0 0 0.631373 0 0 0 0.5 0"/>
<feBlend mode="normal" in2="effect1_dropShadow" result="effect2_dropShadow"/>
<feBlend mode="normal" in="SourceGraphic" in2="effect2_dropShadow" result="shape"/>
</filter>
<linearGradient id="paint0_linear" x1="120.29" y1="8" x2="120.29" y2="60" gradientUnits="userSpaceOnUse">
<stop stop-color="#0AD1A1"/>
<stop offset="1" stop-color="#0AD1A1" stop-opacity="0"/>
</linearGradient>
</defs>
</svg>
