<svg width="169" height="65" viewBox="0 0 169 65" fill="none" xmlns="http://www.w3.org/2000/svg">
<path opacity="0.3" fill-rule="evenodd" clip-rule="evenodd" d="M12.5728 11.1224C12.2633 11.312 11.8754 11.3191 11.5592 11.1409L10.4911 10.5387C9.82446 10.1629 9 10.6446 9 11.4098V60C9 60.5523 9.44772 61 10 61H159C159.552 61 160 60.5523 160 60V55.7529C160 54.5757 158.32 54.3659 158.031 55.507L157.925 55.925C157.733 56.6792 156.792 56.9356 156.245 56.3825L152.445 52.5429C152.212 52.3076 151.878 52.2028 151.552 52.2629L148.871 52.7579C148.598 52.8084 148.358 52.9704 148.209 53.2051L147.73 53.9589C147.35 54.5575 146.485 54.5811 146.072 54.0042L142.643 49.2054C142.286 48.7068 141.569 48.6431 141.131 49.0711L140.233 49.9472C139.905 50.2671 139.402 50.3234 139.011 50.0838L138.978 50.0632C138.653 49.8637 138.242 49.8664 137.92 50.0703L137.495 50.339C136.99 50.6583 136.32 50.4667 136.06 49.929L131.775 41.0621C131.719 40.9449 131.64 40.8398 131.543 40.7529L130.008 39.3761C129.866 39.2487 129.764 39.0834 129.713 38.8996L127.507 30.9632C127.355 30.4146 126.761 30.1183 126.231 30.3264C126.075 30.3875 125.906 30.4069 125.741 30.3827L117.929 29.24C117.833 29.2259 117.74 29.1979 117.652 29.1569L115.641 28.2202C115.438 28.1254 115.208 28.1018 114.99 28.1533L110.539 29.2023C110.492 29.2133 110.445 29.2209 110.397 29.2251L106.885 29.535C106.744 29.5475 106.607 29.5897 106.484 29.659L104.701 30.6595C104.495 30.7751 104.254 30.814 104.023 30.7694L102.766 30.5278C102.418 30.4608 102.06 30.5833 101.826 30.8497L101.623 31.0808C101.139 31.631 100.248 31.4919 99.9551 30.8206L98.6746 27.8857C98.6085 27.7342 98.5059 27.6014 98.376 27.4993L95.2878 25.0725C95.1363 24.9535 95.0225 24.7932 94.9599 24.611L94.1331 22.2033C94.1153 22.1515 94.1019 22.0983 94.0929 22.0442C93.9101 20.9474 92.3369 20.9398 92.1381 22.0338C92.0284 22.637 91.4034 22.9984 90.8263 22.7915L89.6841 22.3819C89.2613 22.2304 88.7893 22.3792 88.53 22.746L85.1269 27.5598C85.0822 27.623 85.045 27.6911 85.0161 27.7628L83.2371 32.1705C82.9521 32.8767 82.0137 33.0178 81.5336 32.4266L76.9476 26.7798C76.7784 26.5714 76.5325 26.4399 76.2653 26.4146L71.1041 25.9277C70.8834 25.9068 70.6758 25.8132 70.5141 25.6616L70.2648 25.4279C69.6978 24.8962 68.7676 25.1864 68.6034 25.9461L67.6363 30.4196L65.2234 39.9306C65.0321 40.6848 64.0907 40.9412 63.5434 40.3882L59.7435 36.5485C59.5107 36.3133 59.1766 36.2084 58.8511 36.2685L56.1703 36.7635C55.8969 36.814 55.6568 36.9761 55.5077 37.2107L55.0289 37.9645C54.6487 38.5631 53.7836 38.5867 53.3713 38.0098L49.9413 33.211C49.585 32.7124 48.868 32.6487 48.4294 33.0767L47.5315 33.9529C47.2037 34.2727 46.7005 34.329 46.3101 34.0894L46.2764 34.0688C45.9514 33.8693 45.5412 33.872 45.2188 34.0759L44.7939 34.3446C44.2892 34.6639 43.6189 34.4723 43.3591 33.9346L39.0741 25.0677C39.0174 24.9505 38.9384 24.8454 38.8415 24.7585L37.307 23.3818C37.165 23.2544 37.0624 23.089 37.0114 22.9052L34.7548 14.7851C34.6294 14.3339 34.1423 14.0892 33.7055 14.258C33.4486 14.3573 33.1587 14.3161 32.9397 14.1493L27.4786 9.99135C27.2353 9.80616 26.9208 9.7424 26.6246 9.81825L25.0692 10.2167C24.8955 10.2612 24.7131 10.2581 24.541 10.2079L23.7259 9.97016C23.2066 9.81868 22.661 10.1076 22.4945 10.6223L21.2821 14.3686C21.0196 15.18 19.927 15.3114 19.4795 14.5854L16.5597 9.84899C16.2704 9.37974 15.656 9.23308 15.186 9.52109L12.5728 11.1224Z" fill="url(#paint0_linear)"/>
<g filter="url(#filter0_dd)">
<path d="M9 9.68897L11.5644 11.1155C11.8779 11.29 12.2609 11.283 12.568 11.0974L15.193 9.51001C15.6607 9.22715 16.2689 9.37231 16.5585 9.83592L19.4832 14.5179C19.9326 15.2373 21.0173 15.1057 21.2816 14.2997L22.4931 10.605C22.6607 10.0938 23.2029 9.80682 23.7199 9.95567L24.5442 10.1929C24.7143 10.2419 24.8943 10.2448 25.0659 10.2015L26.63 9.80613C26.9231 9.73204 27.234 9.79454 27.4757 9.97616L32.9397 14.0816C33.1591 14.2464 33.4477 14.2871 33.7041 14.1893V14.1893C34.1428 14.022 34.6304 14.2673 34.7577 14.7192L37.0099 22.717C37.0619 22.9017 37.166 23.0675 37.3096 23.1947L38.8401 24.5498C38.9379 24.6364 39.0178 24.7413 39.0753 24.8587L43.3593 33.6068C43.62 34.1392 44.284 34.3292 44.7869 34.0153L45.2238 33.7426C45.5437 33.543 45.9488 33.5402 46.2713 33.7356L46.3162 33.7628C46.704 33.9977 47.2013 33.9423 47.5279 33.6278L48.4349 32.7544C48.8726 32.3329 49.582 32.396 49.9384 32.8882L53.3752 37.6332C53.788 38.2032 54.645 38.1797 55.0259 37.5879L55.5067 36.8409C55.6565 36.6082 55.896 36.4479 56.1683 36.3983L58.8566 35.9085C59.179 35.8497 59.5098 35.9527 59.7419 36.1842L63.5493 39.9808C64.0971 40.5271 65.0313 40.271 65.2239 39.5216L67.6363 30.1376L68.6027 25.7259C68.7682 24.9708 69.6913 24.6809 70.2587 25.2059L70.5147 25.4428C70.6761 25.5921 70.8822 25.6841 71.1012 25.7045L76.2683 26.1856C76.5337 26.2103 76.7783 26.34 76.9477 26.5459L81.5386 32.1243C82.0194 32.7086 82.9499 32.5678 83.2363 31.8674L85.0153 27.5178C85.0448 27.4457 85.0826 27.3773 85.1279 27.314L88.5309 22.5637C88.7903 22.2018 89.2577 22.0549 89.6774 22.2034L90.8327 22.6121C91.4078 22.8156 92.0286 22.4565 92.1391 21.8566V21.8566C92.3401 20.7656 93.9078 20.7766 94.0925 21.8705V21.8705C94.1018 21.9252 94.1156 21.9789 94.1338 22.0313L94.9583 24.401C95.0219 24.5837 95.1371 24.744 95.29 24.8626L98.3743 27.2545C98.5053 27.3561 98.609 27.4887 98.6761 27.6403L99.9561 30.5354C100.25 31.2008 101.134 31.3394 101.618 30.7961L101.827 30.5607C102.061 30.2982 102.415 30.1777 102.76 30.2432L104.027 30.4836C104.256 30.5271 104.494 30.4891 104.698 30.376L106.485 29.3862C106.608 29.3183 106.743 29.277 106.883 29.2648L110.398 28.9587C110.445 28.9546 110.492 28.9472 110.538 28.9365L114.994 27.9002C115.21 27.8499 115.437 27.8729 115.638 27.9656L117.653 28.8921C117.74 28.9322 117.833 28.9595 117.928 28.9732L125.742 30.1013C125.907 30.1251 126.075 30.106 126.23 30.046V30.046C126.762 29.8399 127.356 30.1366 127.51 30.6857L129.711 38.5008C129.763 38.6855 129.867 38.8513 130.011 38.9784L131.541 40.3335C131.639 40.4202 131.719 40.5251 131.777 40.6425L136.061 49.3906C136.321 49.923 136.985 50.113 137.488 49.7991L137.925 49.5264C138.245 49.3267 138.65 49.324 138.973 49.5194L139.017 49.5466C139.405 49.7815 139.903 49.726 140.229 49.4116L141.136 48.5382C141.574 48.1167 142.283 48.1798 142.64 48.672L146.076 53.417C146.489 53.987 147.346 53.9635 147.727 53.3716L148.208 52.6247C148.358 52.392 148.597 52.2317 148.87 52.1821L151.558 51.6923C151.88 51.6335 152.211 51.7365 152.443 51.968L156.25 55.7645C156.798 56.3108 157.732 56.0547 157.925 55.3054L160 47.2342" stroke="#FF4848"/>
</g>
<defs>
<filter id="filter0_dd" x="0.757812" y="0.865723" width="167.727" height="63.6919" filterUnits="userSpaceOnUse" color-interpolation-filters="sRGB">
<feFlood flood-opacity="0" result="BackgroundImageFix"/>
<feColorMatrix in="SourceAlpha" type="matrix" values="0 0 0 0 0 0 0 0 0 0 0 0 0 0 0 0 0 0 127 0"/>
<feOffset/>
<feGaussianBlur stdDeviation="1"/>
<feColorMatrix type="matrix" values="0 0 0 0 1 0 0 0 0 0.282353 0 0 0 0 0.282353 0 0 0 0.5 0"/>
<feBlend mode="normal" in2="BackgroundImageFix" result="effect1_dropShadow"/>
<feColorMatrix in="SourceAlpha" type="matrix" values="0 0 0 0 0 0 0 0 0 0 0 0 0 0 0 0 0 0 127 0"/>
<feOffset/>
<feGaussianBlur stdDeviation="4"/>
<feColorMatrix type="matrix" values="0 0 0 0 1 0 0 0 0 0.282353 0 0 0 0 0.282353 0 0 0 0.5 0"/>
<feBlend mode="normal" in2="effect1_dropShadow" result="effect2_dropShadow"/>
<feBlend mode="normal" in="SourceGraphic" in2="effect2_dropShadow" result="shape"/>
</filter>
<linearGradient id="paint0_linear" x1="120.29" y1="9" x2="120.29" y2="61" gradientUnits="userSpaceOnUse">
<stop stop-color="#FF4848"/>
<stop offset="1" stop-color="#FF4848" stop-opacity="0"/>
</linearGradient>
</defs>
</svg>
