<svg width="22" height="22" viewBox="0 0 22 22" fill="none" xmlns="http://www.w3.org/2000/svg">
<path d="M10.9999 0.879883C5.41936 0.879883 0.879883 5.41936 0.879883 10.9999C0.879883 16.5804 5.41936 21.1199 10.9999 21.1199C16.5804 21.1199 21.1199 16.5804 21.1199 10.9999C21.1199 5.41936 16.5804 0.879883 10.9999 0.879883ZM10.2959 6.46788C10.2959 6.37988 10.3399 6.29188 10.4719 6.29188H11.4839C11.5719 6.29188 11.6599 6.33588 11.6599 6.46788V12.4079C11.6599 12.4959 11.6159 12.5839 11.4839 12.5839H10.4719C10.3839 12.5839 10.2959 12.5399 10.2959 12.4079V6.46788ZM11.7039 15.5319C11.7039 15.6199 11.6599 15.7079 11.5279 15.7079H10.4719C10.3839 15.7079 10.2959 15.6639 10.2959 15.5319V14.3879C10.2959 14.2999 10.3399 14.2119 10.4719 14.2119H11.5279C11.6159 14.2119 11.7039 14.2559 11.7039 14.3879V15.5319Z" fill="white"/>
</svg>
