<svg width="1097" height="202" viewBox="0 0 1097 202" fill="none" xmlns="http://www.w3.org/2000/svg">
<g opacity="0.2">
<path opacity="0.2" d="M1047.17 149.61L1047.17 141.235L1064.74 158.664C1071.1 164.967 1071.1 175.19 1064.74 181.484L1047.17 198.914L1047.17 190.539L1060.52 177.314C1064.54 173.324 1064.54 166.841 1060.52 162.851L1047.17 149.61Z" stroke="url(#paint0_linear)" stroke-width="2" stroke-miterlimit="10"/>
<path opacity="0.2" d="M1096 190.634L1096 199L1078.32 181.468C1071.96 175.156 1071.96 164.941 1078.32 158.639L1095.98 141.115L1095.98 149.481L1082.53 162.817C1078.51 166.807 1078.51 173.29 1082.53 177.28L1096 190.634Z" stroke="url(#paint1_linear)" stroke-width="2" stroke-miterlimit="10"/>
</g>
<g opacity="0.2">
<path opacity="0.2" d="M1047.17 149.61L1047.17 141.235L1064.74 158.664C1071.1 164.967 1071.1 175.19 1064.74 181.484L1047.17 198.914L1047.17 190.539L1060.52 177.314C1064.54 173.324 1064.54 166.841 1060.52 162.851L1047.17 149.61Z" stroke="url(#paint2_linear)" stroke-width="2" stroke-miterlimit="10"/>
<path opacity="0.2" d="M1096 190.634L1096 199L1078.32 181.468C1071.96 175.156 1071.96 164.941 1078.32 158.639L1095.98 141.115L1095.98 149.481L1082.53 162.817C1078.51 166.807 1078.51 173.29 1082.53 177.28L1096 190.634Z" stroke="url(#paint3_linear)" stroke-width="2" stroke-miterlimit="10"/>
</g>
<g opacity="0.2">
<path opacity="0.2" d="M49.8291 149.182L49.8291 140.808L32.2598 158.237C25.8961 164.539 25.8961 174.763 32.2598 181.057L49.8291 198.486L49.8291 190.111L36.4817 176.887C32.4619 172.897 32.4619 166.414 36.4817 162.424L49.8291 149.182Z" stroke="url(#paint4_linear)" stroke-width="2" stroke-miterlimit="10"/>
<path opacity="0.2" d="M0.999864 190.206L0.999864 198.573L18.6784 181.04C25.0421 174.729 25.0421 164.514 18.6784 158.211L1.01535 140.688L1.01535 149.054L14.472 162.39C18.4918 166.38 18.4918 172.863 14.472 176.853L0.999864 190.206Z" stroke="url(#paint5_linear)" stroke-width="2" stroke-miterlimit="10"/>
</g>
<g opacity="0.3">
<path opacity="0.3" d="M1030.5 138.518L1030.5 128.269L1051.99 149.584C1059.77 157.297 1059.77 169.808 1051.99 177.538L1030.5 198.854L1030.5 188.604L1046.82 172.396C1051.74 167.503 1051.74 159.584 1046.82 154.692L1030.5 138.518Z" stroke="url(#paint6_linear)" stroke-width="2" stroke-miterlimit="10"/>
<path opacity="0.3" d="M1077.27 188.742L1077.27 199L1055.63 177.538C1047.85 169.825 1047.85 157.314 1055.63 149.584L1077.25 128.131L1077.25 138.381L1060.78 154.709C1055.86 159.602 1055.86 167.521 1060.78 172.413L1077.27 188.742Z" stroke="url(#paint7_linear)" stroke-width="2" stroke-miterlimit="10"/>
</g>
<g opacity="0.3">
<path opacity="0.3" d="M1030.5 138.518L1030.5 128.269L1051.99 149.584C1059.77 157.297 1059.77 169.808 1051.99 177.538L1030.5 198.854L1030.5 188.604L1046.82 172.396C1051.74 167.503 1051.74 159.584 1046.82 154.692L1030.5 138.518Z" stroke="url(#paint8_linear)" stroke-width="2" stroke-miterlimit="10"/>
<path opacity="0.3" d="M1077.27 188.742L1077.27 199L1055.63 177.538C1047.85 169.825 1047.85 157.314 1055.63 149.584L1077.25 128.131L1077.25 138.381L1060.78 154.709C1055.86 159.602 1055.86 167.521 1060.78 172.413L1077.27 188.742Z" stroke="url(#paint9_linear)" stroke-width="2" stroke-miterlimit="10"/>
</g>
<g opacity="0.3">
<path opacity="0.3" d="M66.5029 138.091L66.5029 127.841L45.0067 149.157C37.2311 156.87 37.2311 169.381 45.0067 177.111L66.5029 198.426L66.5029 188.177L50.1753 171.969C45.2552 167.076 45.2552 159.157 50.1753 154.264L66.5029 138.091Z" stroke="url(#paint10_linear)" stroke-width="2" stroke-miterlimit="10"/>
<path opacity="0.3" d="M19.7339 188.315L19.7339 198.573L41.3695 177.111C49.1451 169.398 49.1451 156.887 41.3695 149.157L19.7494 127.704L19.7494 137.953L36.2164 154.282C41.1364 159.174 41.1364 167.094 36.2164 171.986L19.7339 188.315Z" stroke="url(#paint11_linear)" stroke-width="2" stroke-miterlimit="10"/>
</g>
<g opacity="0.4">
<path opacity="0.4" d="M1008.06 127.271L1008.06 115.147L1033.48 140.375C1042.69 149.507 1042.69 164.305 1033.48 173.436L1008.06 198.656L1008.06 186.532L1027.38 167.366C1033.22 161.579 1033.22 152.198 1027.38 146.42L1008.06 127.271Z" stroke="url(#paint12_linear)" stroke-width="2" stroke-miterlimit="10"/>
<path opacity="0.4" d="M1060.59 186.876L1060.59 199L1035 173.634C1025.79 164.503 1025.79 149.696 1035 140.565L1060.58 115.182L1060.58 127.306L1041.1 146.627C1035.26 152.413 1035.26 161.794 1041.1 167.572L1060.59 186.876Z" stroke="url(#paint13_linear)" stroke-width="2" stroke-miterlimit="10"/>
</g>
<g opacity="0.4">
<path opacity="0.4" d="M1008.06 127.271L1008.06 115.147L1033.48 140.375C1042.69 149.507 1042.69 164.305 1033.48 173.436L1008.06 198.656L1008.06 186.532L1027.38 167.366C1033.22 161.579 1033.22 152.198 1027.38 146.42L1008.06 127.271Z" stroke="url(#paint14_linear)" stroke-width="2" stroke-miterlimit="10"/>
<path opacity="0.4" d="M1060.59 186.876L1060.59 199L1035 173.634C1025.79 164.503 1025.79 149.696 1035 140.565L1060.58 115.182L1060.58 127.306L1041.1 146.627C1035.26 152.413 1035.26 161.794 1041.1 167.572L1060.59 186.876Z" stroke="url(#paint15_linear)" stroke-width="2" stroke-miterlimit="10"/>
</g>
<g opacity="0.4">
<path opacity="0.4" d="M88.9395 126.844L88.9395 114.72L63.5163 139.948C54.3125 149.08 54.3125 163.877 63.5163 173.009L88.9395 198.229L88.9395 186.105L69.6161 166.939C63.7803 161.152 63.7803 151.771 69.6161 145.993L88.9395 126.844Z" stroke="url(#paint16_linear)" stroke-width="2" stroke-miterlimit="10"/>
<path opacity="0.4" d="M36.409 186.449L36.409 198.573L62.0024 173.207C71.2062 164.076 71.2062 149.269 62.0024 140.137L36.4245 114.755L36.4245 126.879L55.9026 146.199C61.7384 151.986 61.7384 161.367 55.9026 167.145L36.409 186.449Z" stroke="url(#paint17_linear)" stroke-width="2" stroke-miterlimit="10"/>
</g>
<g opacity="0.5">
<path opacity="0.5" d="M976.502 116.411L976.502 102.421L1005.87 131.545C1016.5 142.095 1016.5 159.172 1005.87 169.722L976.502 198.843L976.502 184.847L998.805 162.723C1005.54 156.042 1005.54 145.225 998.805 138.535L976.502 116.411Z" stroke="url(#paint18_linear)" stroke-width="2" stroke-miterlimit="10"/>
<path opacity="0.5" d="M1038.16 185.01L1038.16 199L1008.6 169.705C997.973 159.155 997.973 142.078 1008.6 131.528L1038.14 102.215L1038.14 116.205L1015.65 138.527C1008.91 145.208 1008.91 156.025 1015.65 162.706L1038.16 185.01Z" stroke="url(#paint19_linear)" stroke-width="2" stroke-miterlimit="10"/>
</g>
<g opacity="0.5">
<path opacity="0.5" d="M976.502 116.411L976.502 102.421L1005.87 131.545C1016.5 142.095 1016.5 159.172 1005.87 169.722L976.502 198.843L976.502 184.847L998.805 162.723C1005.54 156.042 1005.54 145.225 998.805 138.535L976.502 116.411Z" stroke="url(#paint20_linear)" stroke-width="2" stroke-miterlimit="10"/>
<path opacity="0.5" d="M1038.16 185.01L1038.16 199L1008.6 169.705C997.973 159.155 997.973 142.078 1008.6 131.528L1038.14 102.215L1038.14 116.205L1015.65 138.527C1008.91 145.208 1008.91 156.025 1015.65 162.706L1038.16 185.01Z" stroke="url(#paint21_linear)" stroke-width="2" stroke-miterlimit="10"/>
</g>
<g opacity="0.5">
<path opacity="0.5" d="M120.498 115.984L120.498 101.994L91.1333 131.117C80.5013 141.668 80.5013 158.744 91.1333 169.295L120.498 198.416L120.498 184.419L98.1953 162.295C91.4592 155.614 91.4592 144.798 98.1953 138.108L120.498 115.984Z" stroke="url(#paint22_linear)" stroke-width="2" stroke-miterlimit="10"/>
<path opacity="0.5" d="M58.8445 184.583L58.8445 198.573L88.3958 169.278C99.0269 158.727 99.0269 141.651 88.3958 131.1L58.8599 101.788L58.8599 115.778L81.3493 138.1C88.0853 144.781 88.0853 155.598 81.3493 162.279L58.8445 184.583Z" stroke="url(#paint23_linear)" stroke-width="2" stroke-miterlimit="10"/>
</g>
<g opacity="0.6">
<path opacity="0.6" d="M938 105.317L938 89.4353L971.307 122.454C983.367 134.405 983.367 153.793 971.307 165.745L938.015 198.78L938.015 182.902L963.314 157.813C970.95 150.24 970.95 137.965 963.314 130.39L938 105.317Z" stroke="url(#paint24_linear)" stroke-width="2" stroke-miterlimit="10"/>
<path opacity="0.6" d="M1006.6 183.121L1006.6 199L973.088 165.778C961.028 153.826 961.028 134.44 973.088 122.488L1006.58 89.2549L1006.58 105.128L981.081 130.424C973.444 137.991 973.444 150.273 981.081 157.847L1006.6 183.121Z" stroke="url(#paint25_linear)" stroke-width="2" stroke-miterlimit="10"/>
</g>
<g opacity="0.6">
<path opacity="0.6" d="M938 105.317L938 89.4353L971.307 122.454C983.367 134.405 983.367 153.793 971.307 165.745L938.015 198.78L938.015 182.902L963.314 157.813C970.95 150.24 970.95 137.965 963.314 130.39L938 105.317Z" stroke="url(#paint26_linear)" stroke-width="2" stroke-miterlimit="10"/>
<path opacity="0.6" d="M1006.6 183.121L1006.6 199L973.088 165.778C961.028 153.826 961.028 134.44 973.088 122.488L1006.58 89.2549L1006.58 105.128L981.081 130.424C973.444 137.991 973.444 150.273 981.081 157.847L1006.6 183.121Z" stroke="url(#paint27_linear)" stroke-width="2" stroke-miterlimit="10"/>
</g>
<g opacity="0.6">
<path opacity="0.6" d="M159 104.889L159 89.0081L125.693 122.026C113.633 133.978 113.633 153.366 125.693 165.318L158.985 198.353L158.985 182.475L133.686 157.386C126.05 149.813 126.05 137.538 133.686 129.963L159 104.889Z" stroke="url(#paint28_linear)" stroke-width="2" stroke-miterlimit="10"/>
<path opacity="0.6" d="M90.4033 182.694L90.4033 198.573L123.912 165.351C135.972 153.399 135.972 134.013 123.912 122.061L90.4188 88.8276L90.4188 104.7L115.919 129.997C123.556 137.564 123.556 149.846 115.919 157.419L90.4033 182.694Z" stroke="url(#paint29_linear)" stroke-width="2" stroke-miterlimit="10"/>
</g>
<g opacity="0.7">
<path opacity="0.7" d="M893.556 94.2704L893.556 76.5239L930.79 113.453C944.262 126.823 944.277 148.498 930.79 161.867L893.556 198.799L893.556 181.05L921.834 153.002C930.371 144.54 930.371 130.811 921.834 122.35L893.556 94.2704Z" stroke="url(#paint30_linear)" stroke-width="2" stroke-miterlimit="10"/>
<path opacity="0.7" d="M968.095 181.252L968.095 199L930.627 161.851C917.155 148.481 917.14 126.805 930.627 113.436L968.079 76.2746L968.079 94.0201L939.567 122.302C931.031 130.764 931.031 144.492 939.567 152.953L968.095 181.252Z" stroke="url(#paint31_linear)" stroke-width="2" stroke-miterlimit="10"/>
</g>
<g opacity="0.7">
<path opacity="0.7" d="M893.556 94.2704L893.556 76.5239L930.79 113.453C944.262 126.823 944.277 148.498 930.79 161.867L893.556 198.799L893.556 181.05L921.834 153.002C930.371 144.54 930.371 130.811 921.834 122.35L893.556 94.2704Z" stroke="url(#paint32_linear)" stroke-width="2" stroke-miterlimit="10"/>
<path opacity="0.7" d="M968.095 181.252L968.095 199L930.627 161.851C917.155 148.481 917.14 126.805 930.627 113.436L968.079 76.2746L968.079 94.0201L939.567 122.302C931.031 130.764 931.031 144.492 939.567 152.953L968.095 181.252Z" stroke="url(#paint33_linear)" stroke-width="2" stroke-miterlimit="10"/>
</g>
<g opacity="0.7">
<path opacity="0.7" d="M203.444 93.8432L203.444 76.0967L166.21 113.026C152.738 126.395 152.723 148.07 166.21 161.44L203.444 198.372L203.444 180.623L175.166 152.574C166.629 144.113 166.629 130.384 175.166 121.923L203.444 93.8432Z" stroke="url(#paint34_linear)" stroke-width="2" stroke-miterlimit="10"/>
<path opacity="0.7" d="M128.905 180.825L128.905 198.573L166.373 161.424C179.845 148.054 179.86 126.378 166.373 113.008L128.921 75.8473L128.921 93.5929L157.433 121.875C165.969 130.337 165.969 144.065 157.433 152.526L128.905 180.825Z" stroke="url(#paint35_linear)" stroke-width="2" stroke-miterlimit="10"/>
</g>
<g opacity="0.8">
<path opacity="0.8" d="M839.17 83.2191L839.17 63.6008L880.331 104.427C895.231 119.2 895.231 143.166 880.331 157.954L839.17 198.78L839.17 179.162L870.444 148.137C879.881 138.771 879.881 123.594 870.444 114.244L839.17 83.2191Z" stroke="url(#paint36_linear)" stroke-width="2" stroke-miterlimit="10"/>
<path opacity="0.8" d="M923.65 179.381L923.65 199L882.225 157.924C867.326 143.152 867.326 119.185 882.225 104.398L923.635 63.3063L923.635 82.9246L892.112 114.199C882.676 123.564 882.676 138.742 892.112 148.091L923.65 179.381Z" stroke="url(#paint37_linear)" stroke-width="2" stroke-miterlimit="10"/>
</g>
<g opacity="0.8">
<path opacity="0.8" d="M839.17 83.2191L839.17 63.6008L880.331 104.427C895.231 119.2 895.231 143.166 880.331 157.954L839.17 198.78L839.17 179.162L870.444 148.137C879.881 138.771 879.881 123.594 870.444 114.244L839.17 83.2191Z" stroke="url(#paint38_linear)" stroke-width="2" stroke-miterlimit="10"/>
<path opacity="0.8" d="M923.65 179.381L923.65 199L882.225 157.924C867.326 143.152 867.326 119.185 882.225 104.398L923.635 63.3063L923.635 82.9246L892.112 114.199C882.676 123.564 882.676 138.742 892.112 148.091L923.65 179.381Z" stroke="url(#paint39_linear)" stroke-width="2" stroke-miterlimit="10"/>
</g>
<g opacity="0.8">
<path opacity="0.8" d="M257.83 82.7919L257.83 63.1735L216.669 104C201.769 118.772 201.769 142.739 216.669 157.527L257.83 198.353L257.83 178.735L226.556 147.71C217.119 138.344 217.119 123.167 226.556 113.817L257.83 82.7919Z" stroke="url(#paint40_linear)" stroke-width="2" stroke-miterlimit="10"/>
<path opacity="0.8" d="M173.35 178.954L173.35 198.573L214.775 157.497C229.674 142.725 229.674 118.758 214.775 103.97L173.365 62.8791L173.365 82.4974L204.888 113.772C214.324 123.136 214.324 138.315 204.888 147.664L173.35 178.954Z" stroke="url(#paint41_linear)" stroke-width="2" stroke-miterlimit="10"/>
</g>
<g opacity="0.9">
<path opacity="0.9" d="M776.841 72.1267L776.841 50.6228L821.944 95.3452C838.272 111.535 838.272 137.792 821.944 153.983L776.856 198.72L776.856 177.216L811.11 143.23C821.447 132.977 821.447 116.35 811.11 106.097L776.841 72.1267Z" stroke="url(#paint42_linear)" stroke-width="2" stroke-miterlimit="10"/>
<path opacity="0.9" d="M869.265 177.496L869.265 199L823.882 153.997C807.555 137.806 807.555 111.55 823.882 95.3598L869.25 50.3415L869.25 71.8455L834.716 106.111C824.379 116.365 824.379 132.992 834.716 143.245L869.265 177.496Z" stroke="url(#paint43_linear)" stroke-width="2" stroke-miterlimit="10"/>
</g>
<g opacity="0.9">
<path opacity="0.9" d="M776.841 72.1267L776.841 50.6228L821.944 95.3452C838.272 111.535 838.272 137.792 821.944 153.983L776.856 198.72L776.856 177.216L811.11 143.23C821.447 132.977 821.447 116.35 811.11 106.097L776.841 72.1267Z" stroke="url(#paint44_linear)" stroke-width="2" stroke-miterlimit="10"/>
<path opacity="0.9" d="M869.265 177.496L869.265 199L823.882 153.997C807.555 137.806 807.555 111.55 823.882 95.3598L869.25 50.3415L869.25 71.8455L834.716 106.111C824.379 116.365 824.379 132.992 834.716 143.245L869.265 177.496Z" stroke="url(#paint45_linear)" stroke-width="2" stroke-miterlimit="10"/>
</g>
<g opacity="0.9">
<path opacity="0.9" d="M320.159 71.6995L320.159 50.1955L275.056 94.918C258.728 111.108 258.728 137.364 275.056 153.555L320.144 198.292L320.144 176.789L285.89 142.803C275.553 132.55 275.553 115.923 285.89 105.67L320.159 71.6995Z" stroke="url(#paint46_linear)" stroke-width="2" stroke-miterlimit="10"/>
<path opacity="0.9" d="M227.735 177.069L227.735 198.573L273.118 153.57C289.445 137.379 289.445 111.123 273.118 94.9325L227.75 49.9142L227.75 71.4182L262.284 105.684C272.621 115.938 272.621 132.565 262.284 142.818L227.735 177.069Z" stroke="url(#paint47_linear)" stroke-width="2" stroke-miterlimit="10"/>
</g>
<path opacity="0.95" d="M710.586 61.0819L710.586 37.7078L759.616 86.3408C777.372 103.95 777.372 132.481 759.616 150.09L710.602 198.723L710.602 175.349L747.851 138.403C759.089 127.246 759.089 109.17 747.851 98.0279L710.586 61.0819Z" stroke="url(#paint48_linear)" stroke-width="2" stroke-miterlimit="10"/>
<path opacity="0.95" d="M806.936 175.627L806.936 199L757.595 150.071C739.839 132.462 739.839 103.931 757.595 86.3219L806.92 37.393L806.92 60.7663L769.375 98.009C758.139 109.166 758.139 127.242 769.375 138.384L806.936 175.627Z" stroke="url(#paint49_linear)" stroke-width="2" stroke-miterlimit="10"/>
<path opacity="0.95" d="M710.586 61.0819L710.586 37.7078L759.616 86.3408C777.372 103.95 777.372 132.481 759.616 150.09L710.602 198.723L710.602 175.349L747.851 138.403C759.089 127.246 759.089 109.17 747.851 98.0279L710.586 61.0819Z" stroke="url(#paint50_linear)" stroke-width="2" stroke-miterlimit="10"/>
<path opacity="0.95" d="M806.936 175.627L806.936 199L757.595 150.071C739.839 132.462 739.839 103.931 757.595 86.3219L806.92 37.393L806.92 60.7663L769.375 98.009C758.139 109.166 758.139 127.242 769.375 138.384L806.936 175.627Z" stroke="url(#paint51_linear)" stroke-width="2" stroke-miterlimit="10"/>
<path opacity="0.95" d="M386.414 60.6546L386.414 37.2805L337.384 85.9136C319.628 103.522 319.628 132.054 337.384 149.663L386.398 198.296L386.398 174.922L349.149 137.976C337.911 126.818 337.911 108.743 349.149 97.6006L386.414 60.6546Z" stroke="url(#paint52_linear)" stroke-width="2" stroke-miterlimit="10"/>
<path opacity="0.95" d="M290.064 175.199L290.064 198.573L339.405 149.644C357.161 132.035 357.161 103.504 339.405 85.8947L290.08 36.9658L290.08 60.3391L327.625 97.5818C338.861 108.739 338.861 126.815 327.625 137.957L290.064 175.199Z" stroke="url(#paint53_linear)" stroke-width="2" stroke-miterlimit="10"/>
<path opacity="0.95" d="M740.68 173.756L740.68 199L687.382 146.143C668.214 127.132 668.198 96.2945 687.382 77.2832L740.665 24.4274L740.665 49.6708L700.109 89.9058C687.971 101.951 687.971 121.476 700.109 133.522L740.68 173.756Z" stroke="url(#paint54_linear)" stroke-width="2" stroke-miterlimit="10"/>
<path opacity="0.95" d="M740.68 173.756L740.68 199L687.382 146.143C668.214 127.132 668.198 96.2945 687.382 77.2832L740.665 24.4274L740.665 49.6708L700.109 89.9058C687.971 101.951 687.971 121.476 700.109 133.522L740.68 173.756Z" stroke="url(#paint55_linear)" stroke-width="2" stroke-miterlimit="10"/>
<path opacity="0.95" d="M356.32 173.328L356.32 198.573L409.618 145.716C428.786 126.705 428.802 95.8672 409.618 76.856L356.335 24.0002L356.335 49.2436L396.891 89.4785C409.029 101.523 409.029 121.049 396.891 133.094L356.32 173.328Z" stroke="url(#paint56_linear)" stroke-width="2" stroke-miterlimit="10"/>
<path fill-rule="evenodd" clip-rule="evenodd" d="M407.107 74.5319L451.836 28.8935V3.26124e-06L392.979 60.0937C371.674 81.8506 371.674 117.133 392.979 138.89L451.82 199L451.82 170.106L407.107 124.435C393.621 110.661 393.621 88.3061 407.107 74.5319ZM447.662 171.795L404.132 127.331C389.069 111.946 389.069 87.0205 404.132 71.6357L447.679 27.204V10.1784L395.953 62.9902C376.226 83.1364 376.226 115.848 395.953 135.994L447.662 188.818V171.795Z" fill="url(#paint57_linear)"/>
<path fill-rule="evenodd" clip-rule="evenodd" d="M701.077 131.654L649.338 182.857V166.486L692.837 123.442C707.941 108.498 707.941 84.2513 692.837 69.3066L649.321 26.2939V9.9204L701.077 61.1122C720.764 80.5882 720.764 112.178 701.077 131.654ZM704.021 58.2158C725.326 79.2928 725.326 113.473 704.021 134.55L645.18 192.781V164.791L689.893 120.546C703.379 107.202 703.379 85.5466 689.893 72.2028L645.164 27.9906V3.26124e-06L704.021 58.2158Z" fill="url(#paint58_linear)"/>
<path d="M464.309 164.895V192.781L523.244 134.415C544.445 113.417 544.445 79.381 523.244 58.3663L464.325 0V27.886L509.17 72.3175C522.589 85.6114 522.589 107.186 509.17 120.48L464.309 164.895Z" fill="white"/>
<path d="M632.691 164.895V192.781L573.755 134.415C552.555 113.417 552.555 79.381 573.755 58.3663L632.674 0V27.886L587.83 72.3175C574.41 85.6114 574.41 107.186 587.83 120.48L632.691 164.895Z" fill="white"/>
<defs>
<linearGradient id="paint0_linear" x1="1047.17" y1="170.074" x2="1069.51" y2="170.074" gradientUnits="userSpaceOnUse">
<stop stop-color="#4D7EFF"/>
<stop offset="1" stop-color="#4D7EFF"/>
</linearGradient>
<linearGradient id="paint1_linear" x1="1073.55" y1="170.057" x2="1096" y2="170.057" gradientUnits="userSpaceOnUse">
<stop stop-color="#4D7EFF"/>
<stop offset="1" stop-color="#4D7EFF"/>
</linearGradient>
<linearGradient id="paint2_linear" x1="1047.17" y1="170.074" x2="1069.51" y2="170.074" gradientUnits="userSpaceOnUse">
<stop stop-color="#4D7EFF"/>
<stop offset="1" stop-color="#4D7EFF"/>
</linearGradient>
<linearGradient id="paint3_linear" x1="1073.55" y1="170.057" x2="1096" y2="170.057" gradientUnits="userSpaceOnUse">
<stop stop-color="#4D7EFF"/>
<stop offset="1" stop-color="#4D7EFF"/>
</linearGradient>
<linearGradient id="paint4_linear" x1="49.8291" y1="169.647" x2="27.487" y2="169.647" gradientUnits="userSpaceOnUse">
<stop stop-color="#4D7EFF"/>
<stop offset="1" stop-color="#4D7EFF"/>
</linearGradient>
<linearGradient id="paint5_linear" x1="23.4512" y1="169.63" x2="0.999866" y2="169.63" gradientUnits="userSpaceOnUse">
<stop stop-color="#4D7EFF"/>
<stop offset="1" stop-color="#4D7EFF"/>
</linearGradient>
<linearGradient id="paint6_linear" x1="1030.5" y1="163.561" x2="1057.83" y2="163.561" gradientUnits="userSpaceOnUse">
<stop stop-color="#4D7EFF"/>
<stop offset="1" stop-color="#4D7EFF"/>
</linearGradient>
<linearGradient id="paint7_linear" x1="1049.8" y1="163.566" x2="1077.27" y2="163.566" gradientUnits="userSpaceOnUse">
<stop stop-color="#4D7EFF"/>
<stop offset="1" stop-color="#4D7EFF"/>
</linearGradient>
<linearGradient id="paint8_linear" x1="1030.5" y1="163.561" x2="1057.83" y2="163.561" gradientUnits="userSpaceOnUse">
<stop stop-color="#4D7EFF"/>
<stop offset="1" stop-color="#4D7EFF"/>
</linearGradient>
<linearGradient id="paint9_linear" x1="1049.8" y1="163.566" x2="1077.27" y2="163.566" gradientUnits="userSpaceOnUse">
<stop stop-color="#4D7EFF"/>
<stop offset="1" stop-color="#4D7EFF"/>
</linearGradient>
<linearGradient id="paint10_linear" x1="66.5029" y1="163.134" x2="39.175" y2="163.134" gradientUnits="userSpaceOnUse">
<stop stop-color="#4D7EFF"/>
<stop offset="1" stop-color="#4D7EFF"/>
</linearGradient>
<linearGradient id="paint11_linear" x1="47.2012" y1="163.138" x2="19.7339" y2="163.138" gradientUnits="userSpaceOnUse">
<stop stop-color="#4D7EFF"/>
<stop offset="1" stop-color="#4D7EFF"/>
</linearGradient>
<linearGradient id="paint12_linear" x1="1008.06" y1="156.901" x2="1040.39" y2="156.901" gradientUnits="userSpaceOnUse">
<stop stop-color="#4D7EFF"/>
<stop offset="1" stop-color="#4D7EFF"/>
</linearGradient>
<linearGradient id="paint13_linear" x1="1028.09" y1="157.091" x2="1060.59" y2="157.091" gradientUnits="userSpaceOnUse">
<stop stop-color="#4D7EFF"/>
<stop offset="1" stop-color="#4D7EFF"/>
</linearGradient>
<linearGradient id="paint14_linear" x1="1008.06" y1="156.901" x2="1040.39" y2="156.901" gradientUnits="userSpaceOnUse">
<stop stop-color="#4D7EFF"/>
<stop offset="1" stop-color="#4D7EFF"/>
</linearGradient>
<linearGradient id="paint15_linear" x1="1028.09" y1="157.091" x2="1060.59" y2="157.091" gradientUnits="userSpaceOnUse">
<stop stop-color="#4D7EFF"/>
<stop offset="1" stop-color="#4D7EFF"/>
</linearGradient>
<linearGradient id="paint16_linear" x1="88.9395" y1="156.474" x2="56.6134" y2="156.474" gradientUnits="userSpaceOnUse">
<stop stop-color="#4D7EFF"/>
<stop offset="1" stop-color="#4D7EFF"/>
</linearGradient>
<linearGradient id="paint17_linear" x1="68.9053" y1="156.664" x2="36.409" y2="156.664" gradientUnits="userSpaceOnUse">
<stop stop-color="#4D7EFF"/>
<stop offset="1" stop-color="#4D7EFF"/>
</linearGradient>
<linearGradient id="paint18_linear" x1="976.502" y1="150.632" x2="1013.84" y2="150.632" gradientUnits="userSpaceOnUse">
<stop stop-color="#4D7EFF"/>
<stop offset="1" stop-color="#4D7EFF"/>
</linearGradient>
<linearGradient id="paint19_linear" x1="1000.63" y1="150.608" x2="1038.16" y2="150.608" gradientUnits="userSpaceOnUse">
<stop stop-color="#4D7EFF"/>
<stop offset="1" stop-color="#4D7EFF"/>
</linearGradient>
<linearGradient id="paint20_linear" x1="976.502" y1="150.632" x2="1013.84" y2="150.632" gradientUnits="userSpaceOnUse">
<stop stop-color="#4D7EFF"/>
<stop offset="1" stop-color="#4D7EFF"/>
</linearGradient>
<linearGradient id="paint21_linear" x1="1000.63" y1="150.608" x2="1038.16" y2="150.608" gradientUnits="userSpaceOnUse">
<stop stop-color="#4D7EFF"/>
<stop offset="1" stop-color="#4D7EFF"/>
</linearGradient>
<linearGradient id="paint22_linear" x1="120.498" y1="150.205" x2="83.1593" y2="150.205" gradientUnits="userSpaceOnUse">
<stop stop-color="#4D7EFF"/>
<stop offset="1" stop-color="#4D7EFF"/>
</linearGradient>
<linearGradient id="paint23_linear" x1="96.3691" y1="150.18" x2="58.8445" y2="150.18" gradientUnits="userSpaceOnUse">
<stop stop-color="#4D7EFF"/>
<stop offset="1" stop-color="#4D7EFF"/>
</linearGradient>
<linearGradient id="paint24_linear" x1="938" y1="144.108" x2="980.352" y2="144.108" gradientUnits="userSpaceOnUse">
<stop stop-color="#4D7EFF"/>
<stop offset="1" stop-color="#4D7EFF"/>
</linearGradient>
<linearGradient id="paint25_linear" x1="964.043" y1="144.127" x2="1006.6" y2="144.127" gradientUnits="userSpaceOnUse">
<stop stop-color="#4D7EFF"/>
<stop offset="1" stop-color="#4D7EFF"/>
</linearGradient>
<linearGradient id="paint26_linear" x1="938" y1="144.108" x2="980.352" y2="144.108" gradientUnits="userSpaceOnUse">
<stop stop-color="#4D7EFF"/>
<stop offset="1" stop-color="#4D7EFF"/>
</linearGradient>
<linearGradient id="paint27_linear" x1="964.043" y1="144.127" x2="1006.6" y2="144.127" gradientUnits="userSpaceOnUse">
<stop stop-color="#4D7EFF"/>
<stop offset="1" stop-color="#4D7EFF"/>
</linearGradient>
<linearGradient id="paint28_linear" x1="159" y1="143.68" x2="116.648" y2="143.68" gradientUnits="userSpaceOnUse">
<stop stop-color="#4D7EFF"/>
<stop offset="1" stop-color="#4D7EFF"/>
</linearGradient>
<linearGradient id="paint29_linear" x1="132.957" y1="143.7" x2="90.4033" y2="143.7" gradientUnits="userSpaceOnUse">
<stop stop-color="#4D7EFF"/>
<stop offset="1" stop-color="#4D7EFF"/>
</linearGradient>
<linearGradient id="paint30_linear" x1="893.556" y1="137.661" x2="940.9" y2="137.661" gradientUnits="userSpaceOnUse">
<stop stop-color="#4D7EFF"/>
<stop offset="1" stop-color="#4D7EFF"/>
</linearGradient>
<linearGradient id="paint31_linear" x1="920.518" y1="137.637" x2="968.095" y2="137.637" gradientUnits="userSpaceOnUse">
<stop stop-color="#4D7EFF"/>
<stop offset="1" stop-color="#4D7EFF"/>
</linearGradient>
<linearGradient id="paint32_linear" x1="893.556" y1="137.661" x2="940.9" y2="137.661" gradientUnits="userSpaceOnUse">
<stop stop-color="#4D7EFF"/>
<stop offset="1" stop-color="#4D7EFF"/>
</linearGradient>
<linearGradient id="paint33_linear" x1="920.518" y1="137.637" x2="968.095" y2="137.637" gradientUnits="userSpaceOnUse">
<stop stop-color="#4D7EFF"/>
<stop offset="1" stop-color="#4D7EFF"/>
</linearGradient>
<linearGradient id="paint34_linear" x1="203.444" y1="137.234" x2="156.1" y2="137.234" gradientUnits="userSpaceOnUse">
<stop stop-color="#4D7EFF"/>
<stop offset="1" stop-color="#4D7EFF"/>
</linearGradient>
<linearGradient id="paint35_linear" x1="176.482" y1="137.21" x2="128.905" y2="137.21" gradientUnits="userSpaceOnUse">
<stop stop-color="#4D7EFF"/>
<stop offset="1" stop-color="#4D7EFF"/>
</linearGradient>
<linearGradient id="paint36_linear" x1="839.17" y1="131.191" x2="891.506" y2="131.191" gradientUnits="userSpaceOnUse">
<stop stop-color="#4D7EFF"/>
<stop offset="1" stop-color="#4D7EFF"/>
</linearGradient>
<linearGradient id="paint37_linear" x1="871.051" y1="131.153" x2="923.65" y2="131.153" gradientUnits="userSpaceOnUse">
<stop stop-color="#4D7EFF"/>
<stop offset="1" stop-color="#4D7EFF"/>
</linearGradient>
<linearGradient id="paint38_linear" x1="839.17" y1="131.191" x2="891.506" y2="131.191" gradientUnits="userSpaceOnUse">
<stop stop-color="#4D7EFF"/>
<stop offset="1" stop-color="#4D7EFF"/>
</linearGradient>
<linearGradient id="paint39_linear" x1="871.051" y1="131.153" x2="923.65" y2="131.153" gradientUnits="userSpaceOnUse">
<stop stop-color="#4D7EFF"/>
<stop offset="1" stop-color="#4D7EFF"/>
</linearGradient>
<linearGradient id="paint40_linear" x1="257.83" y1="130.763" x2="205.494" y2="130.763" gradientUnits="userSpaceOnUse">
<stop stop-color="#4D7EFF"/>
<stop offset="1" stop-color="#4D7EFF"/>
</linearGradient>
<linearGradient id="paint41_linear" x1="225.949" y1="130.726" x2="173.35" y2="130.726" gradientUnits="userSpaceOnUse">
<stop stop-color="#4D7EFF"/>
<stop offset="1" stop-color="#4D7EFF"/>
</linearGradient>
<linearGradient id="paint42_linear" x1="776.841" y1="124.671" x2="834.19" y2="124.671" gradientUnits="userSpaceOnUse">
<stop stop-color="#4D7EFF"/>
<stop offset="1" stop-color="#4D7EFF"/>
</linearGradient>
<linearGradient id="paint43_linear" x1="811.637" y1="124.671" x2="869.265" y2="124.671" gradientUnits="userSpaceOnUse">
<stop stop-color="#4D7EFF"/>
<stop offset="1" stop-color="#4D7EFF"/>
</linearGradient>
<linearGradient id="paint44_linear" x1="776.841" y1="124.671" x2="834.19" y2="124.671" gradientUnits="userSpaceOnUse">
<stop stop-color="#4D7EFF"/>
<stop offset="1" stop-color="#4D7EFF"/>
</linearGradient>
<linearGradient id="paint45_linear" x1="811.637" y1="124.671" x2="869.265" y2="124.671" gradientUnits="userSpaceOnUse">
<stop stop-color="#4D7EFF"/>
<stop offset="1" stop-color="#4D7EFF"/>
</linearGradient>
<linearGradient id="paint46_linear" x1="320.159" y1="124.244" x2="262.81" y2="124.244" gradientUnits="userSpaceOnUse">
<stop stop-color="#4D7EFF"/>
<stop offset="1" stop-color="#4D7EFF"/>
</linearGradient>
<linearGradient id="paint47_linear" x1="285.363" y1="124.243" x2="227.735" y2="124.243" gradientUnits="userSpaceOnUse">
<stop stop-color="#4D7EFF"/>
<stop offset="1" stop-color="#4D7EFF"/>
</linearGradient>
<linearGradient id="paint48_linear" x1="710.586" y1="118.215" x2="772.933" y2="118.215" gradientUnits="userSpaceOnUse">
<stop stop-color="#4D7EFF"/>
<stop offset="1" stop-color="#4D7EFF"/>
</linearGradient>
<linearGradient id="paint49_linear" x1="744.278" y1="118.197" x2="806.936" y2="118.197" gradientUnits="userSpaceOnUse">
<stop stop-color="#4D7EFF"/>
<stop offset="1" stop-color="#4D7EFF"/>
</linearGradient>
<linearGradient id="paint50_linear" x1="710.586" y1="118.215" x2="772.933" y2="118.215" gradientUnits="userSpaceOnUse">
<stop stop-color="#4D7EFF"/>
<stop offset="1" stop-color="#4D7EFF"/>
</linearGradient>
<linearGradient id="paint51_linear" x1="744.278" y1="118.197" x2="806.936" y2="118.197" gradientUnits="userSpaceOnUse">
<stop stop-color="#4D7EFF"/>
<stop offset="1" stop-color="#4D7EFF"/>
</linearGradient>
<linearGradient id="paint52_linear" x1="386.414" y1="117.788" x2="324.067" y2="117.788" gradientUnits="userSpaceOnUse">
<stop stop-color="#4D7EFF"/>
<stop offset="1" stop-color="#4D7EFF"/>
</linearGradient>
<linearGradient id="paint53_linear" x1="352.722" y1="117.769" x2="290.064" y2="117.769" gradientUnits="userSpaceOnUse">
<stop stop-color="#4D7EFF"/>
<stop offset="1" stop-color="#4D7EFF"/>
</linearGradient>
<linearGradient id="paint54_linear" x1="673" y1="111.714" x2="740.68" y2="111.714" gradientUnits="userSpaceOnUse">
<stop stop-color="#4D7EFF"/>
<stop offset="1" stop-color="#4D7EFF"/>
</linearGradient>
<linearGradient id="paint55_linear" x1="673" y1="111.714" x2="740.68" y2="111.714" gradientUnits="userSpaceOnUse">
<stop stop-color="#4D7EFF"/>
<stop offset="1" stop-color="#4D7EFF"/>
</linearGradient>
<linearGradient id="paint56_linear" x1="424" y1="111.286" x2="356.32" y2="111.286" gradientUnits="userSpaceOnUse">
<stop stop-color="#4D7EFF"/>
<stop offset="1" stop-color="#4D7EFF"/>
</linearGradient>
<linearGradient id="paint57_linear" x1="548.5" y1="0" x2="548.5" y2="199" gradientUnits="userSpaceOnUse">
<stop stop-color="#4D7EFF"/>
<stop offset="1" stop-color="#4D7EFF"/>
</linearGradient>
<linearGradient id="paint58_linear" x1="548.5" y1="0" x2="548.5" y2="199" gradientUnits="userSpaceOnUse">
<stop stop-color="#4D7EFF"/>
<stop offset="1" stop-color="#4D7EFF"/>
</linearGradient>
</defs>
</svg>
