<svg width="263" height="50" viewBox="0 0 263 50" fill="none" xmlns="http://www.w3.org/2000/svg">
<g opacity="0.2">
<path opacity="0.2" d="M250.361 35.6608L250.361 33.6646L254.549 37.8189C256.066 39.3212 256.066 41.758 254.549 43.2583L250.361 47.4126L250.361 45.4164L253.543 42.2643C254.501 41.3133 254.501 39.768 253.543 38.817L250.361 35.6608Z" stroke="url(#paint0_linear)" stroke-width="2" stroke-miterlimit="10"/>
<path opacity="0.2" d="M262 45.4385L262 47.4326L257.786 43.2537C256.269 41.7494 256.269 39.3146 257.786 37.8123L261.996 33.6354L261.996 35.6296L258.789 38.8083C257.831 39.7593 257.831 41.3046 258.789 42.2556L262 45.4385Z" stroke="url(#paint1_linear)" stroke-width="2" stroke-miterlimit="10"/>
</g>
<g opacity="0.2">
<path opacity="0.2" d="M250.361 35.6608L250.361 33.6646L254.549 37.8189C256.066 39.3212 256.066 41.758 254.549 43.2583L250.361 47.4126L250.361 45.4164L253.543 42.2643C254.501 41.3133 254.501 39.768 253.543 38.817L250.361 35.6608Z" stroke="url(#paint2_linear)" stroke-width="2" stroke-miterlimit="10"/>
<path opacity="0.2" d="M262 45.4385L262 47.4326L257.786 43.2537C256.269 41.7494 256.269 39.3146 257.786 37.8123L261.996 33.6354L261.996 35.6296L258.789 38.8083C257.831 39.7593 257.831 41.3046 258.789 42.2556L262 45.4385Z" stroke="url(#paint3_linear)" stroke-width="2" stroke-miterlimit="10"/>
</g>
<g opacity="0.2">
<path opacity="0.2" d="M12.6396 35.5573L12.6396 33.561L8.45191 37.7154C6.93508 39.2177 6.93508 41.6545 8.45191 43.1547L12.6396 47.3091L12.6396 45.3129L9.45822 42.1607C8.50008 41.2098 8.50008 39.6644 9.45822 38.7135L12.6396 35.5573Z" stroke="url(#paint4_linear)" stroke-width="2" stroke-miterlimit="10"/>
<path opacity="0.2" d="M1.00018 45.3364L1.00018 47.3306L5.21394 43.1516C6.73077 41.6473 6.73077 39.2125 5.21394 37.7102L1.00387 33.5333L1.00387 35.5275L4.21133 38.7063C5.16947 39.6572 5.16947 41.2026 4.21133 42.1535L1.00018 45.3364Z" stroke="url(#paint5_linear)" stroke-width="2" stroke-miterlimit="10"/>
</g>
<g opacity="0.3">
<path opacity="0.3" d="M246.387 33.0161L246.387 30.5732L251.51 35.6538C253.364 37.4922 253.364 40.4743 251.51 42.3168L246.387 47.3975L246.387 44.9545L250.279 41.0912C251.451 39.925 251.451 38.0374 250.279 36.8713L246.387 33.0161Z" stroke="url(#paint6_linear)" stroke-width="2" stroke-miterlimit="10"/>
<path opacity="0.3" d="M257.535 44.9876L257.535 47.4326L252.378 42.3171C250.525 40.4787 250.525 37.4966 252.378 35.6541L257.532 30.5407L257.532 32.9837L253.607 36.8757C252.434 38.0418 252.434 39.9294 253.607 41.0956L257.535 44.9876Z" stroke="url(#paint7_linear)" stroke-width="2" stroke-miterlimit="10"/>
</g>
<g opacity="0.3">
<path opacity="0.3" d="M246.387 33.0161L246.387 30.5732L251.51 35.6538C253.364 37.4922 253.364 40.4743 251.51 42.3168L246.387 47.3975L246.387 44.9545L250.279 41.0912C251.451 39.925 251.451 38.0374 250.279 36.8713L246.387 33.0161Z" stroke="url(#paint8_linear)" stroke-width="2" stroke-miterlimit="10"/>
<path opacity="0.3" d="M257.535 44.9876L257.535 47.4326L252.378 42.3171C250.525 40.4787 250.525 37.4966 252.378 35.6541L257.532 30.5407L257.532 32.9837L253.607 36.8757C252.434 38.0418 252.434 39.9294 253.607 41.0956L257.535 44.9876Z" stroke="url(#paint9_linear)" stroke-width="2" stroke-miterlimit="10"/>
</g>
<g opacity="0.3">
<path opacity="0.3" d="M16.6143 32.9131L16.6143 30.4701L11.4905 35.5508C9.63716 37.3892 9.63716 40.3712 11.4905 42.2137L16.6143 47.2944L16.6143 44.8514L12.7225 40.9881C11.5497 39.822 11.5497 37.9344 12.7225 36.7682L16.6143 32.9131Z" stroke="url(#paint10_linear)" stroke-width="2" stroke-miterlimit="10"/>
<path opacity="0.3" d="M5.46671 44.8855L5.46671 47.3306L10.6237 42.215C12.477 40.3766 12.477 37.3946 10.6237 35.5521L5.4704 30.4386L5.4704 32.8816L9.39539 36.7736C10.5681 37.9398 10.5681 39.8274 9.39539 40.9935L5.46671 44.8855Z" stroke="url(#paint11_linear)" stroke-width="2" stroke-miterlimit="10"/>
</g>
<g opacity="0.4">
<path opacity="0.4" d="M241.038 30.3352L241.038 27.4454L247.098 33.4586C249.292 35.6352 249.292 39.1623 247.098 41.3389L241.038 47.3501L241.038 44.4603L245.644 39.892C247.035 38.5127 247.035 36.2767 245.644 34.8994L241.038 30.3352Z" stroke="url(#paint12_linear)" stroke-width="2" stroke-miterlimit="10"/>
<path opacity="0.4" d="M253.558 44.5428L253.558 47.4326L247.458 41.3866C245.264 39.21 245.264 35.6808 247.458 33.5042L253.554 27.4541L253.554 30.3439L248.912 34.9491C247.521 36.3284 247.521 38.5644 248.912 39.9417L253.558 44.5428Z" stroke="url(#paint13_linear)" stroke-width="2" stroke-miterlimit="10"/>
</g>
<g opacity="0.4">
<path opacity="0.4" d="M241.038 30.3352L241.038 27.4454L247.098 33.4586C249.292 35.6352 249.292 39.1623 247.098 41.3389L241.038 47.3501L241.038 44.4603L245.644 39.892C247.035 38.5127 247.035 36.2767 245.644 34.8994L241.038 30.3352Z" stroke="url(#paint14_linear)" stroke-width="2" stroke-miterlimit="10"/>
<path opacity="0.4" d="M253.558 44.5428L253.558 47.4326L247.458 41.3866C245.264 39.21 245.264 35.6808 247.458 33.5042L253.554 27.4541L253.554 30.3439L248.912 34.9491C247.521 36.3284 247.521 38.5644 248.912 39.9417L253.558 44.5428Z" stroke="url(#paint15_linear)" stroke-width="2" stroke-miterlimit="10"/>
</g>
<g opacity="0.4">
<path opacity="0.4" d="M21.9609 30.2331L21.9609 27.3433L15.9012 33.3566C13.7074 35.5331 13.7074 39.0603 15.9012 41.2369L21.9609 47.248L21.9609 44.3583L17.3551 39.7899C15.9641 38.4106 15.9641 36.1746 17.3551 34.7974L21.9609 30.2331Z" stroke="url(#paint16_linear)" stroke-width="2" stroke-miterlimit="10"/>
<path opacity="0.4" d="M9.44086 44.4408L9.44086 47.3306L15.5412 41.2846C17.735 39.108 17.735 35.5787 15.5412 33.4022L9.44455 27.3521L9.44455 30.2419L14.0873 34.8471C15.4783 36.2264 15.4783 38.4624 14.0873 39.8396L9.44086 44.4408Z" stroke="url(#paint17_linear)" stroke-width="2" stroke-miterlimit="10"/>
</g>
<g opacity="0.5">
<path opacity="0.5" d="M233.517 27.7474L233.517 24.4129L240.516 31.3545C243.05 33.8692 243.05 37.9395 240.516 40.4543L233.517 47.3955L233.517 44.0593L238.833 38.786C240.438 37.1935 240.438 34.6153 238.833 33.0208L233.517 27.7474Z" stroke="url(#paint18_linear)" stroke-width="2" stroke-miterlimit="10"/>
<path opacity="0.5" d="M248.212 44.0981L248.212 47.4326L241.168 40.45C238.634 37.9353 238.634 33.865 241.168 31.3502L248.208 24.3635L248.208 27.698L242.848 33.0185C241.242 34.611 241.242 37.1892 242.848 38.7817L248.212 44.0981Z" stroke="url(#paint19_linear)" stroke-width="2" stroke-miterlimit="10"/>
</g>
<g opacity="0.5">
<path opacity="0.5" d="M233.517 27.7474L233.517 24.4129L240.516 31.3545C243.05 33.8692 243.05 37.9395 240.516 40.4543L233.517 47.3955L233.517 44.0593L238.833 38.786C240.438 37.1935 240.438 34.6153 238.833 33.0208L233.517 27.7474Z" stroke="url(#paint20_linear)" stroke-width="2" stroke-miterlimit="10"/>
<path opacity="0.5" d="M248.212 44.0981L248.212 47.4326L241.168 40.45C238.634 37.9353 238.634 33.865 241.168 31.3502L248.208 24.3635L248.208 27.698L242.848 33.0185C241.242 34.611 241.242 37.1892 242.848 38.7817L248.212 44.0981Z" stroke="url(#paint21_linear)" stroke-width="2" stroke-miterlimit="10"/>
</g>
<g opacity="0.5">
<path opacity="0.5" d="M29.4834 27.6439L29.4834 24.3094L22.4842 31.251C19.95 33.7657 19.95 37.836 22.4842 40.3508L29.4834 47.292L29.4834 43.9558L24.1674 38.6825C22.5618 37.09 22.5618 34.5117 24.1674 32.9172L29.4834 27.6439Z" stroke="url(#paint22_linear)" stroke-width="2" stroke-miterlimit="10"/>
<path opacity="0.5" d="M14.7863 43.996L14.7863 47.3306L21.83 40.3479C24.364 37.8332 24.364 33.7629 21.83 31.2482L14.79 24.2615L14.79 27.596L20.1504 32.9165C21.756 34.5089 21.756 37.0872 20.1504 38.6797L14.7863 43.996Z" stroke="url(#paint23_linear)" stroke-width="2" stroke-miterlimit="10"/>
</g>
<g opacity="0.6">
<path opacity="0.6" d="M224.34 25.1025L224.34 21.3171L232.279 29.1871C235.153 32.0359 235.153 36.6571 232.279 39.5059L224.344 47.3799L224.344 43.5953L230.374 37.6153C232.194 35.8103 232.194 32.8844 230.374 31.0788L224.34 25.1025Z" stroke="url(#paint24_linear)" stroke-width="2" stroke-miterlimit="10"/>
<path opacity="0.6" d="M240.69 43.6478L240.69 47.4326L232.703 39.514C229.828 36.6652 229.828 32.0444 232.703 29.1956L240.686 21.2743L240.686 25.0576L234.608 31.0873C232.788 32.8908 232.788 35.8183 234.608 37.6235L240.69 43.6478Z" stroke="url(#paint25_linear)" stroke-width="2" stroke-miterlimit="10"/>
</g>
<g opacity="0.6">
<path opacity="0.6" d="M224.34 25.1025L224.34 21.3171L232.279 29.1871C235.153 32.0359 235.153 36.6571 232.279 39.5059L224.344 47.3799L224.344 43.5953L230.374 37.6153C232.194 35.8103 232.194 32.8844 230.374 31.0788L224.34 25.1025Z" stroke="url(#paint26_linear)" stroke-width="2" stroke-miterlimit="10"/>
<path opacity="0.6" d="M240.69 43.6478L240.69 47.4326L232.703 39.514C229.828 36.6652 229.828 32.0444 232.703 29.1956L240.686 21.2743L240.686 25.0576L234.608 31.0873C232.788 32.8908 232.788 35.8183 234.608 37.6235L240.69 43.6478Z" stroke="url(#paint27_linear)" stroke-width="2" stroke-miterlimit="10"/>
</g>
<g opacity="0.6">
<path opacity="0.6" d="M38.6602 25.0004L38.6602 21.215L30.7212 29.0851C27.8466 31.9339 27.8466 36.5551 30.7212 39.4039L38.6565 47.2778L38.6565 43.4932L32.6264 37.5132C30.8063 35.7082 30.8063 32.7824 32.6264 30.9768L38.6602 25.0004Z" stroke="url(#paint28_linear)" stroke-width="2" stroke-miterlimit="10"/>
<path opacity="0.6" d="M22.3102 43.5458L22.3102 47.3306L30.2973 39.4119C33.1717 36.5631 33.1717 31.9423 30.2973 29.0935L22.3139 21.1722L22.3139 24.9556L28.3921 30.9852C30.2123 32.7888 30.2123 35.7163 28.3921 37.5215L22.3102 43.5458Z" stroke="url(#paint29_linear)" stroke-width="2" stroke-miterlimit="10"/>
</g>
<g opacity="0.7">
<path opacity="0.7" d="M213.746 22.4694L213.746 18.2394L222.621 27.0416C225.832 30.2284 225.836 35.3947 222.621 38.5815L213.746 47.3843L213.746 43.1537L220.486 36.4683C222.521 34.4513 222.521 31.1791 220.486 29.1624L213.746 22.4694Z" stroke="url(#paint30_linear)" stroke-width="2" stroke-miterlimit="10"/>
<path opacity="0.7" d="M231.513 43.2023L231.513 47.4326L222.583 38.578C219.371 35.3912 219.368 30.2246 222.583 27.0379L231.509 18.1804L231.509 22.4101L224.713 29.1513C222.679 31.1682 222.679 34.4405 224.713 36.4572L231.513 43.2023Z" stroke="url(#paint31_linear)" stroke-width="2" stroke-miterlimit="10"/>
</g>
<g opacity="0.7">
<path opacity="0.7" d="M213.746 22.4694L213.746 18.2394L222.621 27.0416C225.832 30.2284 225.836 35.3947 222.621 38.5815L213.746 47.3843L213.746 43.1537L220.486 36.4683C222.521 34.4513 222.521 31.1791 220.486 29.1624L213.746 22.4694Z" stroke="url(#paint32_linear)" stroke-width="2" stroke-miterlimit="10"/>
<path opacity="0.7" d="M231.513 43.2023L231.513 47.4326L222.583 38.578C219.371 35.3912 219.368 30.2246 222.583 27.0379L231.509 18.1804L231.509 22.4101L224.713 29.1513C222.679 31.1682 222.679 34.4405 224.713 36.4572L231.513 43.2023Z" stroke="url(#paint33_linear)" stroke-width="2" stroke-miterlimit="10"/>
</g>
<g opacity="0.7">
<path opacity="0.7" d="M49.2539 22.3673L49.2539 18.1374L40.379 26.9395C37.1678 30.1263 37.1641 35.2927 40.379 38.4794L49.2539 47.2822L49.2539 43.0517L42.5135 36.3662C40.4788 34.3493 40.4788 31.0771 42.5135 29.0604L49.2539 22.3673Z" stroke="url(#paint34_linear)" stroke-width="2" stroke-miterlimit="10"/>
<path opacity="0.7" d="M31.4869 43.1002L31.4869 47.3306L40.4174 38.4759C43.6286 35.2892 43.6322 30.1226 40.4174 26.9358L31.4906 18.0783L31.4906 22.3081L38.2865 29.0493C40.3213 31.0662 40.3213 34.3384 38.2865 36.3551L31.4869 43.1002Z" stroke="url(#paint35_linear)" stroke-width="2" stroke-miterlimit="10"/>
</g>
<g opacity="0.8">
<path opacity="0.8" d="M200.783 19.8353L200.783 15.1591L210.594 24.8904C214.146 28.4114 214.146 34.1239 210.594 37.6487L200.783 47.3799L200.783 42.7038L208.238 35.3088C210.487 33.0764 210.487 29.4589 208.238 27.2303L200.783 19.8353Z" stroke="url(#paint36_linear)" stroke-width="2" stroke-miterlimit="10"/>
<path opacity="0.8" d="M220.92 42.7563L220.92 47.4326L211.046 37.642C207.495 34.1209 207.495 28.4084 211.046 24.8837L220.917 15.0893L220.917 19.7654L213.403 27.2199C211.154 29.452 211.154 33.0698 213.403 35.2982L220.92 42.7563Z" stroke="url(#paint37_linear)" stroke-width="2" stroke-miterlimit="10"/>
</g>
<g opacity="0.8">
<path opacity="0.8" d="M200.783 19.8353L200.783 15.1591L210.594 24.8904C214.146 28.4114 214.146 34.1239 210.594 37.6487L200.783 47.3799L200.783 42.7038L208.238 35.3088C210.487 33.0764 210.487 29.4589 208.238 27.2303L200.783 19.8353Z" stroke="url(#paint38_linear)" stroke-width="2" stroke-miterlimit="10"/>
<path opacity="0.8" d="M220.92 42.7563L220.92 47.4326L211.046 37.642C207.495 34.1209 207.495 28.4084 211.046 24.8837L220.917 15.0893L220.917 19.7654L213.403 27.2199C211.154 29.452 211.154 33.0698 213.403 35.2982L220.92 42.7563Z" stroke="url(#paint39_linear)" stroke-width="2" stroke-miterlimit="10"/>
</g>
<g opacity="0.8">
<path opacity="0.8" d="M62.2178 19.7332L62.2178 15.0571L52.4067 24.7883C48.8554 28.3093 48.8554 34.0219 52.4067 37.5466L62.2178 47.2778L62.2178 42.6017L54.7634 35.2067C52.5141 32.9744 52.5141 29.3568 54.7635 27.1282L62.2178 19.7332Z" stroke="url(#paint40_linear)" stroke-width="2" stroke-miterlimit="10"/>
<path opacity="0.8" d="M42.0808 42.6542L42.0808 47.3306L51.9546 37.5399C55.506 34.0189 55.506 28.3063 51.9546 24.7816L42.0845 14.9873L42.0845 19.6634L49.5981 27.1178C51.8472 29.3499 51.8472 32.9677 49.5981 35.1961L42.0808 42.6542Z" stroke="url(#paint41_linear)" stroke-width="2" stroke-miterlimit="10"/>
</g>
<g opacity="0.9">
<path opacity="0.9" d="M185.927 17.1906L185.927 12.0651L196.677 22.7249C200.569 26.5839 200.569 32.8422 196.677 36.7014L185.93 47.3647L185.93 42.2392L194.095 34.1385C196.559 31.6947 196.559 27.7316 194.095 25.2876L185.927 17.1906Z" stroke="url(#paint42_linear)" stroke-width="2" stroke-miterlimit="10"/>
<path opacity="0.9" d="M207.958 42.307L207.958 47.4326L197.141 36.706C193.249 32.8468 193.249 26.5884 197.141 22.7294L207.954 11.9991L207.954 17.1247L199.723 25.2921C197.259 27.7361 197.259 31.6992 199.723 34.1431L207.958 42.307Z" stroke="url(#paint43_linear)" stroke-width="2" stroke-miterlimit="10"/>
</g>
<g opacity="0.9">
<path opacity="0.9" d="M185.927 17.1906L185.927 12.0651L196.677 22.7249C200.569 26.5839 200.569 32.8422 196.677 36.7014L185.93 47.3647L185.93 42.2392L194.095 34.1385C196.559 31.6947 196.559 27.7316 194.095 25.2876L185.927 17.1906Z" stroke="url(#paint44_linear)" stroke-width="2" stroke-miterlimit="10"/>
<path opacity="0.9" d="M207.958 42.307L207.958 47.4326L197.141 36.706C193.249 32.8468 193.249 26.5884 197.141 22.7294L207.954 11.9991L207.954 17.1247L199.723 25.2921C197.259 27.7361 197.259 31.6992 199.723 34.1431L207.958 42.307Z" stroke="url(#paint45_linear)" stroke-width="2" stroke-miterlimit="10"/>
</g>
<g opacity="0.9">
<path opacity="0.9" d="M77.0732 17.0896L77.0732 11.964L66.3226 22.6238C62.4308 26.4828 62.4308 32.7411 66.3226 36.6003L77.0695 47.2637L77.0695 42.1381L68.9049 34.0375C66.441 31.5936 66.441 27.6305 68.9049 25.1865L77.0732 17.0896Z" stroke="url(#paint46_linear)" stroke-width="2" stroke-miterlimit="10"/>
<path opacity="0.9" d="M55.0422 42.205L55.0422 47.3306L65.8595 36.6039C69.7513 32.7447 69.7513 26.4864 65.8595 22.6274L55.0459 11.897L55.0459 17.0226L63.2773 25.1901C65.7412 27.6341 65.7412 31.5972 63.2773 34.041L55.0422 42.205Z" stroke="url(#paint47_linear)" stroke-width="2" stroke-miterlimit="10"/>
</g>
<path opacity="0.95" d="M170.134 14.5587L170.134 8.98734L181.82 20.5793C186.053 24.7765 186.053 31.5771 181.82 35.7743L170.137 47.3662L170.137 41.7949L179.016 32.9886C181.695 30.3292 181.695 26.0207 179.016 23.365L170.134 14.5587Z" stroke="url(#paint48_linear)" stroke-width="2" stroke-miterlimit="10"/>
<path opacity="0.95" d="M193.099 41.8615L193.099 47.4326L181.338 35.7702C177.106 31.573 177.106 24.7724 181.338 20.5752L193.095 8.91275L193.095 14.4839L184.146 23.3609C181.468 26.0203 181.468 30.3288 184.146 32.9845L193.099 41.8615Z" stroke="url(#paint49_linear)" stroke-width="2" stroke-miterlimit="10"/>
<path opacity="0.95" d="M170.134 14.5587L170.134 8.98734L181.82 20.5793C186.053 24.7765 186.053 31.5771 181.82 35.7743L170.137 47.3662L170.137 41.7949L179.016 32.9886C181.695 30.3292 181.695 26.0207 179.016 23.365L170.134 14.5587Z" stroke="url(#paint50_linear)" stroke-width="2" stroke-miterlimit="10"/>
<path opacity="0.95" d="M193.099 41.8615L193.099 47.4326L181.338 35.7702C177.106 31.573 177.106 24.7724 181.338 20.5752L193.095 8.91275L193.095 14.4839L184.146 23.3609C181.468 26.0203 181.468 30.3288 184.146 32.9845L193.099 41.8615Z" stroke="url(#paint51_linear)" stroke-width="2" stroke-miterlimit="10"/>
<path opacity="0.95" d="M92.8662 14.4566L92.8662 8.88529L81.1797 20.4772C76.9475 24.6744 76.9475 31.475 81.1797 35.6722L92.8625 47.2642L92.8625 41.6928L83.9838 32.8865C81.3053 30.2271 81.3053 25.9187 83.9838 23.2629L92.8662 14.4566Z" stroke="url(#paint52_linear)" stroke-width="2" stroke-miterlimit="10"/>
<path opacity="0.95" d="M69.9012 41.7594L69.9012 47.3306L81.6618 35.6681C85.894 31.471 85.894 24.6703 81.6618 20.4731L69.9051 8.8107L69.9051 14.3818L78.854 23.2588C81.5323 25.9183 81.5323 30.2267 78.854 32.8824L69.9012 41.7594Z" stroke="url(#paint53_linear)" stroke-width="2" stroke-miterlimit="10"/>
<path opacity="0.95" d="M177.307 41.4155L177.307 47.4326L164.603 34.834C160.034 30.3025 160.03 22.9522 164.603 18.4208L177.303 5.82232L177.303 11.8392L167.636 21.4294C164.743 24.3004 164.743 28.9544 167.636 31.8255L177.307 41.4155Z" stroke="url(#paint54_linear)" stroke-width="2" stroke-miterlimit="10"/>
<path opacity="0.95" d="M177.307 41.4155L177.307 47.4326L164.603 34.834C160.034 30.3025 160.03 22.9522 164.603 18.4208L177.303 5.82232L177.303 11.8392L167.636 21.4294C164.743 24.3004 164.743 28.9544 167.636 31.8255L177.307 41.4155Z" stroke="url(#paint55_linear)" stroke-width="2" stroke-miterlimit="10"/>
<path opacity="0.95" d="M85.6933 41.3135L85.6933 47.3306L98.3971 34.7319C102.966 30.2005 102.97 22.8502 98.3971 18.3187L85.697 5.72027L85.697 11.7372L95.3636 21.3274C98.2567 24.1983 98.2567 28.8523 95.3636 31.7234L85.6933 41.3135Z" stroke="url(#paint56_linear)" stroke-width="2" stroke-miterlimit="10"/>
<path fill-rule="evenodd" clip-rule="evenodd" d="M97.7982 17.7651L108.46 6.88692V7.77334e-07L94.4307 14.3237C89.3525 19.5095 89.3525 27.9193 94.4307 33.1052L108.456 47.4327L108.456 40.5458L97.7982 29.6597C94.5837 26.3765 94.5837 21.0482 97.7982 17.7651ZM107.465 40.9482L97.0892 30.35C93.4988 26.683 93.4988 20.7418 97.0892 17.0747L107.469 6.48422V2.42609L95.1397 15.014C90.4376 19.816 90.4375 27.6129 95.1397 32.4148L107.465 45.0057V40.9482Z" fill="url(#paint57_linear)"/>
<path fill-rule="evenodd" clip-rule="evenodd" d="M167.868 31.3804L155.535 43.5849V39.6828L165.904 29.4231C169.504 25.861 169.504 20.0817 165.904 16.5196L155.531 6.26728V2.36458L167.868 14.5664C172.56 19.2086 172.56 26.7382 167.868 31.3804ZM168.569 13.876C173.647 18.8999 173.647 27.0468 168.569 32.0707L154.544 45.9504V39.2787L165.202 28.7328C168.416 25.5523 168.416 20.3905 165.202 17.2099L154.54 6.6717V7.77334e-07L168.569 13.876Z" fill="url(#paint58_linear)"/>
<path d="M111.433 39.3037V45.9504L125.48 32.0385C130.534 27.0335 130.534 18.9209 125.48 13.9119L111.437 0V6.64677L122.125 17.2373C125.324 20.4059 125.324 25.5484 122.125 28.7171L111.433 39.3037Z" fill="white"/>
<path d="M151.567 39.3037V45.9504L137.52 32.0385C132.467 27.0335 132.467 18.9209 137.52 13.9119L151.563 0V6.64677L140.875 17.2373C137.676 20.4059 137.676 25.5484 140.875 28.7171L151.567 39.3037Z" fill="white"/>
<defs>
<linearGradient id="paint0_linear" x1="250.361" y1="40.5386" x2="255.687" y2="40.5386" gradientUnits="userSpaceOnUse">
<stop stop-color="#4D7EFF"/>
<stop offset="1" stop-color="#4D7EFF"/>
</linearGradient>
<linearGradient id="paint1_linear" x1="256.648" y1="40.534" x2="262" y2="40.534" gradientUnits="userSpaceOnUse">
<stop stop-color="#4D7EFF"/>
<stop offset="1" stop-color="#4D7EFF"/>
</linearGradient>
<linearGradient id="paint2_linear" x1="250.361" y1="40.5386" x2="255.687" y2="40.5386" gradientUnits="userSpaceOnUse">
<stop stop-color="#4D7EFF"/>
<stop offset="1" stop-color="#4D7EFF"/>
</linearGradient>
<linearGradient id="paint3_linear" x1="256.648" y1="40.534" x2="262" y2="40.534" gradientUnits="userSpaceOnUse">
<stop stop-color="#4D7EFF"/>
<stop offset="1" stop-color="#4D7EFF"/>
</linearGradient>
<linearGradient id="paint4_linear" x1="12.6396" y1="40.4351" x2="7.31429" y2="40.4351" gradientUnits="userSpaceOnUse">
<stop stop-color="#4D7EFF"/>
<stop offset="1" stop-color="#4D7EFF"/>
</linearGradient>
<linearGradient id="paint5_linear" x1="6.35156" y1="40.432" x2="1.00018" y2="40.432" gradientUnits="userSpaceOnUse">
<stop stop-color="#4D7EFF"/>
<stop offset="1" stop-color="#4D7EFF"/>
</linearGradient>
<linearGradient id="paint6_linear" x1="246.387" y1="38.9853" x2="252.9" y2="38.9853" gradientUnits="userSpaceOnUse">
<stop stop-color="#4D7EFF"/>
<stop offset="1" stop-color="#4D7EFF"/>
</linearGradient>
<linearGradient id="paint7_linear" x1="250.988" y1="38.9866" x2="257.535" y2="38.9866" gradientUnits="userSpaceOnUse">
<stop stop-color="#4D7EFF"/>
<stop offset="1" stop-color="#4D7EFF"/>
</linearGradient>
<linearGradient id="paint8_linear" x1="246.387" y1="38.9853" x2="252.9" y2="38.9853" gradientUnits="userSpaceOnUse">
<stop stop-color="#4D7EFF"/>
<stop offset="1" stop-color="#4D7EFF"/>
</linearGradient>
<linearGradient id="paint9_linear" x1="250.988" y1="38.9866" x2="257.535" y2="38.9866" gradientUnits="userSpaceOnUse">
<stop stop-color="#4D7EFF"/>
<stop offset="1" stop-color="#4D7EFF"/>
</linearGradient>
<linearGradient id="paint10_linear" x1="16.6143" y1="38.8823" x2="10.1005" y2="38.8823" gradientUnits="userSpaceOnUse">
<stop stop-color="#4D7EFF"/>
<stop offset="1" stop-color="#4D7EFF"/>
</linearGradient>
<linearGradient id="paint11_linear" x1="12.0137" y1="38.8846" x2="5.46671" y2="38.8846" gradientUnits="userSpaceOnUse">
<stop stop-color="#4D7EFF"/>
<stop offset="1" stop-color="#4D7EFF"/>
</linearGradient>
<linearGradient id="paint12_linear" x1="241.038" y1="37.3977" x2="248.743" y2="37.3977" gradientUnits="userSpaceOnUse">
<stop stop-color="#4D7EFF"/>
<stop offset="1" stop-color="#4D7EFF"/>
</linearGradient>
<linearGradient id="paint13_linear" x1="245.812" y1="37.4434" x2="253.558" y2="37.4434" gradientUnits="userSpaceOnUse">
<stop stop-color="#4D7EFF"/>
<stop offset="1" stop-color="#4D7EFF"/>
</linearGradient>
<linearGradient id="paint14_linear" x1="241.038" y1="37.3977" x2="248.743" y2="37.3977" gradientUnits="userSpaceOnUse">
<stop stop-color="#4D7EFF"/>
<stop offset="1" stop-color="#4D7EFF"/>
</linearGradient>
<linearGradient id="paint15_linear" x1="245.812" y1="37.4434" x2="253.558" y2="37.4434" gradientUnits="userSpaceOnUse">
<stop stop-color="#4D7EFF"/>
<stop offset="1" stop-color="#4D7EFF"/>
</linearGradient>
<linearGradient id="paint16_linear" x1="21.9609" y1="37.2957" x2="14.2559" y2="37.2957" gradientUnits="userSpaceOnUse">
<stop stop-color="#4D7EFF"/>
<stop offset="1" stop-color="#4D7EFF"/>
</linearGradient>
<linearGradient id="paint17_linear" x1="17.1865" y1="37.3413" x2="9.44086" y2="37.3413" gradientUnits="userSpaceOnUse">
<stop stop-color="#4D7EFF"/>
<stop offset="1" stop-color="#4D7EFF"/>
</linearGradient>
<linearGradient id="paint18_linear" x1="233.517" y1="35.9042" x2="242.416" y2="35.9042" gradientUnits="userSpaceOnUse">
<stop stop-color="#4D7EFF"/>
<stop offset="1" stop-color="#4D7EFF"/>
</linearGradient>
<linearGradient id="paint19_linear" x1="239.268" y1="35.8981" x2="248.212" y2="35.8981" gradientUnits="userSpaceOnUse">
<stop stop-color="#4D7EFF"/>
<stop offset="1" stop-color="#4D7EFF"/>
</linearGradient>
<linearGradient id="paint20_linear" x1="233.517" y1="35.9042" x2="242.416" y2="35.9042" gradientUnits="userSpaceOnUse">
<stop stop-color="#4D7EFF"/>
<stop offset="1" stop-color="#4D7EFF"/>
</linearGradient>
<linearGradient id="paint21_linear" x1="239.268" y1="35.8981" x2="248.212" y2="35.8981" gradientUnits="userSpaceOnUse">
<stop stop-color="#4D7EFF"/>
<stop offset="1" stop-color="#4D7EFF"/>
</linearGradient>
<linearGradient id="paint22_linear" x1="29.4834" y1="35.8007" x2="20.5835" y2="35.8007" gradientUnits="userSpaceOnUse">
<stop stop-color="#4D7EFF"/>
<stop offset="1" stop-color="#4D7EFF"/>
</linearGradient>
<linearGradient id="paint23_linear" x1="23.7305" y1="35.796" x2="14.7863" y2="35.796" gradientUnits="userSpaceOnUse">
<stop stop-color="#4D7EFF"/>
<stop offset="1" stop-color="#4D7EFF"/>
</linearGradient>
<linearGradient id="paint24_linear" x1="224.34" y1="34.3485" x2="234.435" y2="34.3485" gradientUnits="userSpaceOnUse">
<stop stop-color="#4D7EFF"/>
<stop offset="1" stop-color="#4D7EFF"/>
</linearGradient>
<linearGradient id="paint25_linear" x1="230.547" y1="34.3535" x2="240.69" y2="34.3535" gradientUnits="userSpaceOnUse">
<stop stop-color="#4D7EFF"/>
<stop offset="1" stop-color="#4D7EFF"/>
</linearGradient>
<linearGradient id="paint26_linear" x1="224.34" y1="34.3485" x2="234.435" y2="34.3485" gradientUnits="userSpaceOnUse">
<stop stop-color="#4D7EFF"/>
<stop offset="1" stop-color="#4D7EFF"/>
</linearGradient>
<linearGradient id="paint27_linear" x1="230.547" y1="34.3535" x2="240.69" y2="34.3535" gradientUnits="userSpaceOnUse">
<stop stop-color="#4D7EFF"/>
<stop offset="1" stop-color="#4D7EFF"/>
</linearGradient>
<linearGradient id="paint28_linear" x1="38.6602" y1="34.2464" x2="28.5653" y2="34.2464" gradientUnits="userSpaceOnUse">
<stop stop-color="#4D7EFF"/>
<stop offset="1" stop-color="#4D7EFF"/>
</linearGradient>
<linearGradient id="paint29_linear" x1="32.4531" y1="34.2514" x2="22.3102" y2="34.2514" gradientUnits="userSpaceOnUse">
<stop stop-color="#4D7EFF"/>
<stop offset="1" stop-color="#4D7EFF"/>
</linearGradient>
<linearGradient id="paint30_linear" x1="213.746" y1="32.8118" x2="225.031" y2="32.8118" gradientUnits="userSpaceOnUse">
<stop stop-color="#4D7EFF"/>
<stop offset="1" stop-color="#4D7EFF"/>
</linearGradient>
<linearGradient id="paint31_linear" x1="220.173" y1="32.8065" x2="231.513" y2="32.8065" gradientUnits="userSpaceOnUse">
<stop stop-color="#4D7EFF"/>
<stop offset="1" stop-color="#4D7EFF"/>
</linearGradient>
<linearGradient id="paint32_linear" x1="213.746" y1="32.8118" x2="225.031" y2="32.8118" gradientUnits="userSpaceOnUse">
<stop stop-color="#4D7EFF"/>
<stop offset="1" stop-color="#4D7EFF"/>
</linearGradient>
<linearGradient id="paint33_linear" x1="220.173" y1="32.8065" x2="231.513" y2="32.8065" gradientUnits="userSpaceOnUse">
<stop stop-color="#4D7EFF"/>
<stop offset="1" stop-color="#4D7EFF"/>
</linearGradient>
<linearGradient id="paint34_linear" x1="49.2539" y1="32.7098" x2="37.9692" y2="32.7098" gradientUnits="userSpaceOnUse">
<stop stop-color="#4D7EFF"/>
<stop offset="1" stop-color="#4D7EFF"/>
</linearGradient>
<linearGradient id="paint35_linear" x1="42.8271" y1="32.7044" x2="31.4869" y2="32.7044" gradientUnits="userSpaceOnUse">
<stop stop-color="#4D7EFF"/>
<stop offset="1" stop-color="#4D7EFF"/>
</linearGradient>
<linearGradient id="paint36_linear" x1="200.783" y1="31.2695" x2="213.258" y2="31.2695" gradientUnits="userSpaceOnUse">
<stop stop-color="#4D7EFF"/>
<stop offset="1" stop-color="#4D7EFF"/>
</linearGradient>
<linearGradient id="paint37_linear" x1="208.383" y1="31.261" x2="220.92" y2="31.261" gradientUnits="userSpaceOnUse">
<stop stop-color="#4D7EFF"/>
<stop offset="1" stop-color="#4D7EFF"/>
</linearGradient>
<linearGradient id="paint38_linear" x1="200.783" y1="31.2695" x2="213.258" y2="31.2695" gradientUnits="userSpaceOnUse">
<stop stop-color="#4D7EFF"/>
<stop offset="1" stop-color="#4D7EFF"/>
</linearGradient>
<linearGradient id="paint39_linear" x1="208.383" y1="31.261" x2="220.92" y2="31.261" gradientUnits="userSpaceOnUse">
<stop stop-color="#4D7EFF"/>
<stop offset="1" stop-color="#4D7EFF"/>
</linearGradient>
<linearGradient id="paint40_linear" x1="62.2178" y1="31.1675" x2="49.7432" y2="31.1675" gradientUnits="userSpaceOnUse">
<stop stop-color="#4D7EFF"/>
<stop offset="1" stop-color="#4D7EFF"/>
</linearGradient>
<linearGradient id="paint41_linear" x1="54.6182" y1="31.1589" x2="42.0808" y2="31.1589" gradientUnits="userSpaceOnUse">
<stop stop-color="#4D7EFF"/>
<stop offset="1" stop-color="#4D7EFF"/>
</linearGradient>
<linearGradient id="paint42_linear" x1="185.927" y1="29.7149" x2="199.596" y2="29.7149" gradientUnits="userSpaceOnUse">
<stop stop-color="#4D7EFF"/>
<stop offset="1" stop-color="#4D7EFF"/>
</linearGradient>
<linearGradient id="paint43_linear" x1="194.222" y1="29.7158" x2="207.958" y2="29.7158" gradientUnits="userSpaceOnUse">
<stop stop-color="#4D7EFF"/>
<stop offset="1" stop-color="#4D7EFF"/>
</linearGradient>
<linearGradient id="paint44_linear" x1="185.927" y1="29.7149" x2="199.596" y2="29.7149" gradientUnits="userSpaceOnUse">
<stop stop-color="#4D7EFF"/>
<stop offset="1" stop-color="#4D7EFF"/>
</linearGradient>
<linearGradient id="paint45_linear" x1="194.222" y1="29.7158" x2="207.958" y2="29.7158" gradientUnits="userSpaceOnUse">
<stop stop-color="#4D7EFF"/>
<stop offset="1" stop-color="#4D7EFF"/>
</linearGradient>
<linearGradient id="paint46_linear" x1="77.0732" y1="29.6138" x2="63.4037" y2="29.6138" gradientUnits="userSpaceOnUse">
<stop stop-color="#4D7EFF"/>
<stop offset="1" stop-color="#4D7EFF"/>
</linearGradient>
<linearGradient id="paint47_linear" x1="68.7783" y1="29.6138" x2="55.0422" y2="29.6138" gradientUnits="userSpaceOnUse">
<stop stop-color="#4D7EFF"/>
<stop offset="1" stop-color="#4D7EFF"/>
</linearGradient>
<linearGradient id="paint48_linear" x1="170.134" y1="28.1768" x2="184.994" y2="28.1768" gradientUnits="userSpaceOnUse">
<stop stop-color="#4D7EFF"/>
<stop offset="1" stop-color="#4D7EFF"/>
</linearGradient>
<linearGradient id="paint49_linear" x1="178.164" y1="28.1727" x2="193.099" y2="28.1727" gradientUnits="userSpaceOnUse">
<stop stop-color="#4D7EFF"/>
<stop offset="1" stop-color="#4D7EFF"/>
</linearGradient>
<linearGradient id="paint50_linear" x1="170.134" y1="28.1768" x2="184.994" y2="28.1768" gradientUnits="userSpaceOnUse">
<stop stop-color="#4D7EFF"/>
<stop offset="1" stop-color="#4D7EFF"/>
</linearGradient>
<linearGradient id="paint51_linear" x1="178.164" y1="28.1727" x2="193.099" y2="28.1727" gradientUnits="userSpaceOnUse">
<stop stop-color="#4D7EFF"/>
<stop offset="1" stop-color="#4D7EFF"/>
</linearGradient>
<linearGradient id="paint52_linear" x1="92.8662" y1="28.0747" x2="78.0055" y2="28.0747" gradientUnits="userSpaceOnUse">
<stop stop-color="#4D7EFF"/>
<stop offset="1" stop-color="#4D7EFF"/>
</linearGradient>
<linearGradient id="paint53_linear" x1="84.8359" y1="28.0706" x2="69.9012" y2="28.0706" gradientUnits="userSpaceOnUse">
<stop stop-color="#4D7EFF"/>
<stop offset="1" stop-color="#4D7EFF"/>
</linearGradient>
<linearGradient id="paint54_linear" x1="161.175" y1="26.6275" x2="177.307" y2="26.6275" gradientUnits="userSpaceOnUse">
<stop stop-color="#4D7EFF"/>
<stop offset="1" stop-color="#4D7EFF"/>
</linearGradient>
<linearGradient id="paint55_linear" x1="161.175" y1="26.6275" x2="177.307" y2="26.6275" gradientUnits="userSpaceOnUse">
<stop stop-color="#4D7EFF"/>
<stop offset="1" stop-color="#4D7EFF"/>
</linearGradient>
<linearGradient id="paint56_linear" x1="101.825" y1="26.5254" x2="85.6933" y2="26.5254" gradientUnits="userSpaceOnUse">
<stop stop-color="#4D7EFF"/>
<stop offset="1" stop-color="#4D7EFF"/>
</linearGradient>
<linearGradient id="paint57_linear" x1="131.5" y1="0" x2="131.5" y2="47.4327" gradientUnits="userSpaceOnUse">
<stop stop-color="#4D7EFF"/>
<stop offset="1" stop-color="#4D7EFF"/>
</linearGradient>
<linearGradient id="paint58_linear" x1="131.5" y1="0" x2="131.5" y2="47.4327" gradientUnits="userSpaceOnUse">
<stop stop-color="#4D7EFF"/>
<stop offset="1" stop-color="#4D7EFF"/>
</linearGradient>
</defs>
</svg>
