<svg width="53" height="53" viewBox="0 0 53 53" fill="none" xmlns="http://www.w3.org/2000/svg">
<rect x="1" y="1" width="50.2505" height="50.2505" rx="25.1253" stroke="url(#paint0_linear)" stroke-width="2"/>
<path fill-rule="evenodd" clip-rule="evenodd" d="M8.68659 23.1522L14.1636 17.548L14.1636 14L6.95658 21.3793C4.34781 24.0509 4.34781 28.3835 6.95658 31.0551L14.1617 38.4364L14.1617 34.8884L8.68659 29.2801C7.03521 27.5887 7.03521 24.8436 8.68659 23.1522ZM13.6526 35.0957L8.32232 29.6357C8.32231 29.6357 8.32232 29.6357 8.32232 29.6357C6.47786 27.7465 6.47785 24.6858 8.32232 22.7966L13.6545 17.3405L13.6545 15.2499L7.32082 21.7349C7.32081 21.7349 7.32083 21.7349 7.32082 21.7349C4.90522 24.2088 4.90519 28.2256 7.32082 30.6995L13.6526 37.186L13.6526 35.0957Z" fill="#4D7EFF"/>
<path fill-rule="evenodd" clip-rule="evenodd" d="M44.6829 30.1666L38.3474 36.4541L38.3474 34.4438L43.6739 29.1582C45.5234 27.3231 45.5234 24.3457 43.6739 22.5106L38.3455 17.2288L38.3455 15.2182L44.6829 21.5043C44.683 21.5043 44.6829 21.5043 44.6829 21.5043C47.0935 23.8959 47.0935 27.775 44.6829 30.1666ZM45.0434 21.1487C47.6522 23.7368 47.6522 27.934 45.0434 30.5222L37.8383 37.6727L37.8383 34.2356L43.3134 28.8026C44.9648 27.164 44.9648 24.5048 43.3134 22.8662L37.8364 17.4371L37.8364 14L45.0434 21.1487Z" fill="#4D7EFF"/>
<path d="M15.6909 34.2484L15.6909 37.6727L22.9076 30.5056C25.5036 27.9271 25.5036 23.7477 22.9076 21.1671L15.6929 14L15.6929 17.4243L21.1841 22.8803C22.8274 24.5127 22.8274 27.162 21.1841 28.7945L15.6909 34.2484Z" fill="white"/>
<path d="M36.3091 34.2484L36.3091 37.6727L29.0924 30.5056C26.4964 27.9271 26.4964 23.7477 29.0924 21.1671L36.3071 14L36.3071 17.4243L30.8159 22.8803C29.1726 24.5127 29.1726 27.162 30.8159 28.7945L36.3091 34.2484Z" fill="white"/>
<defs>
<linearGradient id="paint0_linear" x1="26.2505" y1="2.31426e-05" x2="52.2147" y2="27.3641" gradientUnits="userSpaceOnUse">
<stop stop-color="#2864FF"/>
<stop offset="1" stop-color="#2898FF"/>
</linearGradient>
</defs>
</svg>
