<svg width="102" height="50" viewBox="0 0 102 50" fill="none" xmlns="http://www.w3.org/2000/svg">
<rect x="52.5" y="0.5" width="49" height="49" rx="7.5" stroke="url(#paint0_linear)"/>
<path d="M68.932 14.68C68.596 15.016 68.188 15.184 67.708 15.184C67.228 15.184 66.82 15.016 66.484 14.68C66.148 14.344 65.98 13.936 65.98 13.456C65.98 12.976 66.148 12.568 66.484 12.232C66.82 11.896 67.228 11.728 67.708 11.728C68.188 11.728 68.596 11.896 68.932 12.232C69.268 12.568 69.436 12.976 69.436 13.456C69.436 13.936 69.268 14.344 68.932 14.68ZM66.52 37V19H68.896V37H66.52ZM82.362 18.568C84.546 18.568 86.262 19.24 87.51 20.584C88.782 21.904 89.418 23.692 89.418 25.948V37H87.042V25.948C87.042 24.34 86.61 23.092 85.746 22.204C84.906 21.316 83.706 20.872 82.146 20.872C80.418 20.872 79.014 21.424 77.934 22.528C76.854 23.608 76.314 25.288 76.314 27.568V37H73.938V19H76.314V21.808C77.658 19.648 79.674 18.568 82.362 18.568Z" fill="#0B111A"/>
<path d="M12.168 18.568C14.736 18.568 16.92 19.48 18.72 21.304C20.544 23.128 21.456 25.36 21.456 28C21.456 30.64 20.544 32.872 18.72 34.696C16.92 36.52 14.736 37.432 12.168 37.432C8.976 37.432 6.552 36.112 4.896 33.472V37H2.52V11.8H4.896V22.528C6.552 19.888 8.976 18.568 12.168 18.568ZM6.948 33.076C8.316 34.444 9.996 35.128 11.988 35.128C13.98 35.128 15.66 34.444 17.028 33.076C18.396 31.684 19.08 29.992 19.08 28C19.08 26.008 18.396 24.328 17.028 22.96C15.66 21.568 13.98 20.872 11.988 20.872C9.996 20.872 8.316 21.568 6.948 22.96C5.58 24.328 4.896 26.008 4.896 28C4.896 29.992 5.58 31.684 6.948 33.076ZM33.7227 18.568C36.3867 18.568 38.5347 19.516 40.1667 21.412C41.8227 23.284 42.6507 25.504 42.6507 28.072C42.6507 28.336 42.6267 28.708 42.5787 29.188H26.7747C27.0147 31.012 27.7827 32.464 29.0787 33.544C30.3987 34.6 32.0187 35.128 33.9387 35.128C35.3067 35.128 36.4827 34.852 37.4667 34.3C38.4747 33.724 39.2307 32.98 39.7347 32.068L41.8227 33.292C41.0307 34.564 39.9507 35.572 38.5827 36.316C37.2147 37.06 35.6547 37.432 33.9027 37.432C31.0707 37.432 28.7667 36.544 26.9907 34.768C25.2147 32.992 24.3267 30.736 24.3267 28C24.3267 25.312 25.2027 23.068 26.9547 21.268C28.7067 19.468 30.9627 18.568 33.7227 18.568ZM33.7227 20.872C31.8507 20.872 30.2787 21.436 29.0067 22.564C27.7587 23.668 27.0147 25.108 26.7747 26.884H40.2027C39.9627 24.988 39.2307 23.512 38.0067 22.456C36.7827 21.4 35.3547 20.872 33.7227 20.872Z" fill="#0B111A"/>
<defs>
<linearGradient id="paint0_linear" x1="77" y1="0" x2="77" y2="50" gradientUnits="userSpaceOnUse">
<stop stop-color="#2864FF"/>
<stop offset="1" stop-color="#2864FF"/>
</linearGradient>
</defs>
</svg>
