<svg width="53" height="53" viewBox="0 0 53 53" fill="none" xmlns="http://www.w3.org/2000/svg">
<rect x="1" y="1" width="50.2505" height="50.2505" rx="7" stroke="url(#paint0_linear)" stroke-width="2"/>
<path d="M34.0551 29.0874C33.058 28.5158 31.9352 28.3501 30.823 28.3116C29.8899 28.2792 28.4977 27.6855 28.4977 26.0001C28.4977 24.7443 29.523 23.7337 30.8235 23.6886C31.9356 23.6501 33.0583 23.4842 34.0551 22.9127C34.9504 22.3995 35.694 21.6612 36.2109 20.7722C36.7279 19.8831 37 18.8747 37 17.8481C37 16.8215 36.7278 15.813 36.2109 14.924C35.6939 14.035 34.9504 13.2967 34.055 12.7835C33.1596 12.2702 32.1439 12 31.11 12C30.0761 12 29.0605 12.2703 28.1651 12.7836C27.2697 13.2969 26.5262 14.0352 26.0093 14.9242C25.4924 15.8133 25.2203 16.8217 25.2203 17.8483C25.2203 18.9814 25.6262 20.0241 26.1441 20.9912C26.5796 21.8046 26.8 23.3142 25.3061 24.1706C24.1948 24.8076 22.808 24.4042 22.1152 23.3034C21.5301 22.3737 20.8237 21.5025 19.8348 20.9355C18.9394 20.4222 17.9237 20.152 16.8898 20.1519C15.856 20.1519 14.8403 20.4222 13.9449 20.9354C13.0496 21.4487 12.306 22.187 11.7891 23.076C11.2721 23.965 11 24.9735 11 26C11 27.0266 11.2721 28.0351 11.7891 28.9241C12.306 29.8131 13.0496 30.5514 13.9449 31.0646C14.8403 31.5779 15.856 31.8481 16.8898 31.8481C17.9237 31.8481 18.9394 31.5779 19.8348 31.0646C20.8234 30.4978 21.5299 29.6272 22.1146 28.698C22.5948 27.935 23.7941 26.9624 25.3061 27.8297C26.4156 28.4663 26.7587 29.8609 26.1435 31.0097C25.6257 31.9766 25.2204 33.0191 25.2204 34.152C25.2204 35.1785 25.4925 36.187 26.0095 37.076C26.5264 37.965 27.2699 38.7032 28.1653 39.2165C29.0606 39.7298 30.0763 40 31.1101 40C32.144 40 33.1597 39.7298 34.055 39.2165C34.9504 38.7032 35.6939 37.965 36.2108 37.076C36.7278 36.187 36.9999 35.1785 36.9999 34.152C36.9999 33.1254 36.7278 32.117 36.2109 31.228C35.6939 30.3389 34.9504 29.6007 34.0551 29.0874Z" fill="url(#paint1_linear)"/>
<defs>
<linearGradient id="paint0_linear" x1="26.2505" y1="2.31426e-05" x2="52.2147" y2="27.3641" gradientUnits="userSpaceOnUse">
<stop stop-color="#2864FF"/>
<stop offset="1" stop-color="#2898FF"/>
</linearGradient>
<linearGradient id="paint1_linear" x1="24.0623" y1="12" x2="37.9919" y2="25.632" gradientUnits="userSpaceOnUse">
<stop stop-color="#2864FF"/>
<stop offset="1" stop-color="#2898FF"/>
</linearGradient>
</defs>
</svg>
