<svg width="22" height="22" viewBox="0 0 22 22" fill="none" xmlns="http://www.w3.org/2000/svg">
<g opacity="0.5">
<path d="M11.0641 3.52C8.40625 3.52 5.96755 4.59006 4.0834 6.35336C4.03942 6.39238 4.0037 6.43982 3.97836 6.49288C3.95302 6.54593 3.93857 6.60353 3.93587 6.66226C3.93316 6.72099 3.94225 6.77967 3.9626 6.83483C3.98295 6.88999 4.01414 6.94052 4.05435 6.98342C4.09455 7.02632 4.14294 7.06073 4.19667 7.08462C4.25039 7.10851 4.30836 7.12138 4.36714 7.12249C4.42593 7.1236 4.48434 7.11292 4.53892 7.09108C4.59351 7.06923 4.64317 7.03667 4.68496 6.99532C6.42289 5.36886 8.64171 4.4 11.0641 4.4C13.4744 4.4 15.6826 5.35927 17.4166 6.97125C17.4586 7.01204 17.5084 7.04401 17.563 7.06531C17.6176 7.0866 17.6758 7.09679 17.7344 7.09527C17.7929 7.09375 17.8506 7.08055 17.904 7.05646C17.9574 7.03236 18.0054 6.99784 18.0453 6.95493C18.0852 6.91203 18.1161 6.86159 18.1362 6.80658C18.1563 6.75157 18.1653 6.69309 18.1625 6.63458C18.1597 6.57607 18.1453 6.5187 18.1201 6.46583C18.0949 6.41297 18.0593 6.36568 18.0156 6.32672C16.1354 4.57887 13.7086 3.52 11.0641 3.52ZM20.0162 9.2125C19.9248 9.21401 19.8361 9.24394 19.7625 9.29815C19.6889 9.35237 19.634 9.42816 19.6054 9.515C17.8406 12.7916 14.669 14.96 11.0521 14.96C7.44321 14.96 4.278 12.8004 2.51074 9.53563C2.47718 9.43659 2.40945 9.35274 2.31968 9.29911C2.22991 9.24547 2.12398 9.22556 2.02086 9.24293C1.91774 9.26031 1.82418 9.31384 1.75695 9.39393C1.68971 9.47402 1.6532 9.57544 1.65395 9.68V9.70149C1.65373 9.774 1.67145 9.84544 1.70551 9.90946C2.30312 11.0253 3.05904 12.0254 3.9373 12.8734L1.4391 15.5392C1.35933 15.6245 1.31669 15.7379 1.32055 15.8546C1.32442 15.9713 1.37448 16.0816 1.45973 16.1614C1.54497 16.2412 1.65841 16.2838 1.77509 16.28C1.89177 16.2761 2.00214 16.226 2.08191 16.1408L4.59473 13.4587C5.32046 14.0573 6.11399 14.5607 6.9623 14.9463L5.32519 18.2866C5.29979 18.3386 5.28486 18.395 5.28125 18.4527C5.27765 18.5103 5.28545 18.5682 5.3042 18.6228C5.32295 18.6775 5.35228 18.728 5.39053 18.7713C5.42878 18.8146 5.47519 18.85 5.52711 18.8754C5.57903 18.9008 5.63544 18.9157 5.69313 18.9193C5.75082 18.9229 5.80864 18.9151 5.86331 18.8963C5.91798 18.8776 5.96842 18.8482 6.01174 18.81C6.05507 18.7717 6.09044 18.7253 6.11582 18.6734L7.78129 15.2737C8.66463 15.5852 9.59602 15.7738 10.5614 15.822C10.561 15.828 10.5607 15.834 10.5605 15.84V19.36C10.5597 19.4183 10.5705 19.4762 10.5922 19.5303C10.6139 19.5844 10.6462 19.6337 10.6872 19.6752C10.7281 19.7167 10.7769 19.7497 10.8307 19.7722C10.8845 19.7947 10.9422 19.8063 11.0005 19.8063C11.0588 19.8063 11.1165 19.7947 11.1703 19.7722C11.2241 19.7497 11.2729 19.7167 11.3139 19.6752C11.3548 19.6337 11.3871 19.5844 11.4088 19.5303C11.4306 19.4762 11.4413 19.4183 11.4405 19.36V15.84C11.4403 15.8351 11.44 15.8303 11.4396 15.8254C12.4367 15.7862 13.3983 15.5943 14.3091 15.2754L15.8818 18.6648C15.9041 18.7201 15.9374 18.7703 15.9797 18.8124C16.022 18.8545 16.0725 18.8875 16.128 18.9094C16.1834 18.9314 16.2428 18.9418 16.3024 18.9401C16.3621 18.9384 16.4208 18.9246 16.4749 18.8995C16.529 18.8744 16.5775 18.8386 16.6174 18.7942C16.6572 18.7498 16.6876 18.6978 16.7068 18.6412C16.7259 18.5847 16.7333 18.5249 16.7286 18.4654C16.7238 18.4059 16.7071 18.348 16.6793 18.2952L15.1264 14.9463C15.9216 14.5872 16.6696 14.1276 17.3582 13.5798L19.9294 16.1511C19.9754 16.1989 20.0316 16.2358 20.0938 16.2588C20.156 16.2819 20.2226 16.2906 20.2886 16.2843C20.303 16.283 20.3174 16.281 20.3316 16.2783C20.4107 16.2628 20.484 16.2259 20.5435 16.1716C20.603 16.1173 20.6465 16.0477 20.6692 15.9704C20.6919 15.8931 20.6929 15.8111 20.6722 15.7332C20.6514 15.6554 20.6097 15.5847 20.5516 15.5289L18.025 13.0023C18.9687 12.1215 19.7799 11.0708 20.4107 9.88711C20.4449 9.82343 20.4629 9.7523 20.4631 9.68V9.65852C20.4639 9.59965 20.4529 9.54122 20.4307 9.48669C20.4085 9.43215 20.3756 9.38263 20.3339 9.34104C20.2923 9.29945 20.2427 9.26664 20.1881 9.24456C20.1335 9.22249 20.0751 9.21158 20.0162 9.2125Z" fill="#231F20"/>
</g>
</svg>
