<svg width="22" height="22" viewBox="0 0 22 22" fill="none" xmlns="http://www.w3.org/2000/svg">
<path d="M10.9997 5.28C5.13359 5.28 0.549687 10.7112 0.549687 10.7112C0.405313 10.8762 0.405313 11.1237 0.549687 11.2887C0.549687 11.2887 5.13359 16.72 10.9997 16.72C16.8658 16.72 21.4497 11.2887 21.4497 11.2887C21.5941 11.1237 21.5941 10.8762 21.4497 10.7112C21.4497 10.7112 16.8658 5.28 10.9997 5.28ZM10.9997 6.16C12.1564 6.16 13.2616 6.39891 14.2859 6.765C14.9734 7.54187 15.3997 8.55766 15.3997 9.68C15.3997 12.1155 13.4352 14.08 10.9997 14.08C8.56422 14.08 6.59969 12.1155 6.59969 9.68C6.59969 8.55766 7.01219 7.54187 7.69969 6.765C8.7275 6.39719 9.83953 6.16 10.9997 6.16ZM6.24219 7.41125C5.91219 8.09875 5.71969 8.86875 5.71969 9.68C5.71969 12.5916 8.08813 14.96 10.9997 14.96C13.9113 14.96 16.2797 12.5916 16.2797 9.68C16.2797 8.87219 16.0958 8.09875 15.7709 7.41125C18.2563 8.67453 20.0438 10.5067 20.5009 11C19.7859 11.7734 15.8277 15.84 10.9997 15.84C6.17172 15.84 2.21344 11.7734 1.49844 11C1.95563 10.505 3.75172 8.67453 6.24219 7.41125ZM10.9997 7.48C9.78453 7.48 8.79969 8.46484 8.79969 9.68C8.79969 10.8952 9.78453 11.88 10.9997 11.88C12.2148 11.88 13.1997 10.8952 13.1997 9.68C13.1997 8.46484 12.2148 7.48 10.9997 7.48Z" fill="#231F20"/>
</svg>
