<svg width="22" height="13" viewBox="0 0 22 13" fill="none" xmlns="http://www.w3.org/2000/svg">
<path d="M1.17309 8.45563L1.17307 8.45561C-0.124559 7.18711 -0.124564 5.13191 1.17305 3.86341C1.17306 3.8634 1.17306 3.8634 1.17307 3.86339L4.63984 0.475129L4.63984 1.70456L1.80726 4.47116L1.80719 4.47123C0.854731 5.40244 0.854731 6.9155 1.80719 7.84671L4.6388 10.6154L4.6388 11.8447L1.17309 8.45563Z" stroke="white" stroke-width="0.4"/>
<path d="M20.8269 8.45563L20.8269 8.45561C22.1246 7.18711 22.1246 5.13191 20.8269 3.86341C20.8269 3.8634 20.8269 3.8634 20.8269 3.86339L17.3602 0.475129L17.3602 1.70456L20.1927 4.47116L20.1928 4.47123C21.1453 5.40244 21.1453 6.9155 20.1928 7.84671L17.3612 10.6154L17.3612 11.8447L20.8269 8.45563Z" stroke="white" stroke-width="0.4"/>
<path d="M8.76129 7.84245L8.76133 7.84241C9.70938 6.91441 9.70938 5.40666 8.76134 4.47866C8.76134 4.47865 8.76134 4.47865 8.76133 4.47865L5.92113 1.69801L5.92113 0.475638L9.39176 3.87287C9.39177 3.87289 9.39179 3.8729 9.3918 3.87292C10.6829 5.1375 10.6828 7.18362 9.39182 8.44706C9.39182 8.44707 9.39182 8.44707 9.39181 8.44707L5.92006 11.8445L5.92006 10.622L8.76129 7.84245Z" fill="white" stroke="white" stroke-width="0.4"/>
<path d="M13.2387 7.84245L13.2387 7.84241C12.2906 6.91441 12.2906 5.40666 13.2387 4.47866C13.2387 4.47865 13.2387 4.47865 13.2387 4.47865L16.0789 1.69801L16.0789 0.475638L12.6082 3.87287C12.6082 3.87289 12.6082 3.8729 12.6082 3.87292C11.3171 5.1375 11.3172 7.18362 12.6082 8.44706C12.6082 8.44707 12.6082 8.44707 12.6082 8.44707L16.0799 11.8445L16.0799 10.622L13.2387 7.84245Z" fill="white" stroke="white" stroke-width="0.4"/>
</svg>
