<svg width="180" height="180" viewBox="0 0 180 180" fill="none" xmlns="http://www.w3.org/2000/svg">
<path d="M74.3403 23.76C75.0603 23.76 75.6003 23.22 75.6003 22.5V23.76H74.3403Z" fill="#0B111A"/>
<path d="M81.3601 22.5V19.26C81.3601 18.54 80.8201 18 80.1001 18H76.8601C76.1401 18 75.6001 18.54 75.6001 19.26V23.76H81.3601V22.5Z" fill="#0B111A"/>
<path d="M105.66 18H108.9C109.62 18 110.16 18.54 110.16 19.26V22.5C110.16 23.22 109.62 23.76 108.9 23.76H105.66C104.94 23.76 104.4 23.22 104.4 22.5V19.26C104.4 18.54 104.94 18 105.66 18Z" fill="#0B111A"/>
<path d="M65.3398 23.76C64.6198 23.76 64.0798 24.3 64.0798 25.02V29.52H69.8398V23.76H65.3398Z" fill="#0B111A"/>
<path d="M75.6003 23.76H69.8403V29.52H75.6003V23.76Z" fill="#0B111A"/>
<path d="M81.3601 28.26C81.3601 28.98 80.8201 29.52 80.1001 29.52H75.6001V23.76H81.3601V28.26Z" fill="#0B111A"/>
<path d="M97.3799 23.76H94.1399C93.4199 23.76 92.8799 24.3 92.8799 25.02V28.26C92.8799 28.98 93.4199 29.52 94.1399 29.52H98.6399V23.76H97.3799Z" fill="#0B111A"/>
<path d="M99.9001 29.52H103.14C103.86 29.52 104.4 28.98 104.4 28.26V25.02C104.4 24.3 103.86 23.76 103.14 23.76H98.6401V29.52H99.9001Z" fill="#0B111A"/>
<path d="M108.9 29.52C109.62 29.52 110.16 28.98 110.16 28.26V29.52H108.9Z" fill="#0B111A"/>
<path d="M115.92 28.26V25.02C115.92 24.3 115.38 23.76 114.66 23.76H111.42C110.7 23.76 110.16 24.3 110.16 25.02V29.52H115.92V28.26Z" fill="#0B111A"/>
<path d="M64.0798 34.02C64.0798 34.74 64.6198 35.28 65.3398 35.28H68.5798C69.2998 35.28 69.8398 34.74 69.8398 34.02V29.52H64.0798V34.02Z" fill="#0B111A"/>
<path d="M71.1003 29.52H69.8403V30.78C69.8403 30.06 70.3803 29.52 71.1003 29.52Z" fill="#0B111A"/>
<path d="M105.66 29.52C104.94 29.52 104.4 30.06 104.4 30.78V35.28H110.16V29.52H105.66Z" fill="#0B111A"/>
<path d="M115.92 29.52H110.16V35.28H115.92V29.52Z" fill="#0B111A"/>
<path d="M68.5798 41.0398C69.2998 41.0398 69.8398 40.4998 69.8398 39.7798V41.0398H68.5798Z" fill="#0B111A"/>
<path d="M75.6003 39.7798V36.5398C75.6003 35.8198 75.0603 35.2798 74.3403 35.2798H71.1003C70.3803 35.2798 69.8403 35.8198 69.8403 36.5398V41.0398H75.6003V39.7798Z" fill="#0B111A"/>
<path d="M76.8601 41.0398C76.1401 41.0398 75.6001 40.4998 75.6001 39.7798V41.0398H76.8601Z" fill="#0B111A"/>
<path d="M92.8801 39.7798V36.5398C92.8801 35.8198 92.3401 35.2798 91.6201 35.2798H88.3801C87.6601 35.2798 87.1201 35.8198 87.1201 36.5398V41.0398H92.8801V39.7798Z" fill="#0B111A"/>
<path d="M94.1399 41.0398C93.4199 41.0398 92.8799 40.4998 92.8799 39.7798V41.0398H94.1399Z" fill="#0B111A"/>
<path d="M104.4 39.7798C104.4 40.4998 104.94 41.0398 105.66 41.0398H110.16V35.2798H104.4V39.7798Z" fill="#0B111A"/>
<path d="M115.92 35.2798H110.16V41.0398H115.92V35.2798Z" fill="#0B111A"/>
<path d="M65.3398 41.0396C64.6198 41.0396 64.0798 41.5796 64.0798 42.2996V46.7995H69.8398V41.0396H65.3398Z" fill="#0B111A"/>
<path d="M75.6003 41.0396H69.8403V46.7995H75.6003V41.0396Z" fill="#0B111A"/>
<path d="M80.1001 41.0396C80.8201 41.0396 81.3601 41.5796 81.3601 42.2996V46.7995H75.6001V41.0396H80.1001Z" fill="#0B111A"/>
<path d="M92.8801 41.0396H87.1201V46.7995H92.8801V41.0396Z" fill="#0B111A"/>
<path d="M98.6399 41.0396H92.8799V46.7995H98.6399V41.0396Z" fill="#0B111A"/>
<path d="M99.9001 46.7995H103.14C103.86 46.7995 104.4 46.2595 104.4 45.5395V42.2996C104.4 41.5796 103.86 41.0396 103.14 41.0396H98.6401V46.7995H99.9001Z" fill="#0B111A"/>
<path d="M110.16 42.2996V41.0396H108.9C109.62 41.0396 110.16 41.5796 110.16 42.2996Z" fill="#0B111A"/>
<path d="M110.16 45.5395C110.16 46.2595 110.7 46.7995 111.42 46.7995H114.66C115.38 46.7995 115.92 46.2595 115.92 45.5395V41.0396H110.16V45.5395Z" fill="#0B111A"/>
<path d="M69.8398 46.7996H64.0798V52.5596H69.8398V46.7996Z" fill="#0B111A"/>
<path d="M71.1003 46.7996H69.8403V48.0596C69.8403 47.3396 70.3803 46.7996 71.1003 46.7996Z" fill="#0B111A"/>
<path d="M75.6003 48.0596V46.7996H74.3403C75.0603 46.7996 75.6003 47.3396 75.6003 48.0596Z" fill="#0B111A"/>
<path d="M81.3601 46.7996H75.6001V52.5596H81.3601V46.7996Z" fill="#0B111A"/>
<path d="M92.8801 46.7996H87.1201V52.5596H92.8801V46.7996Z" fill="#0B111A"/>
<path d="M94.1399 46.7996H92.8799V48.0596C92.8799 47.3396 93.4199 46.7996 94.1399 46.7996Z" fill="#0B111A"/>
<path d="M105.66 46.7996H108.9C109.62 46.7996 110.16 47.3396 110.16 48.0596V51.2996C110.16 52.0196 109.62 52.5596 108.9 52.5596H105.66C104.94 52.5596 104.4 52.0196 104.4 51.2996V48.0596C104.4 47.3396 104.94 46.7996 105.66 46.7996Z" fill="#0B111A"/>
<path d="M69.8398 52.5605H64.0798V58.3205H69.8398V52.5605Z" fill="#0B111A"/>
<path d="M81.3601 52.5605H75.6001V58.3205H81.3601V52.5605Z" fill="#0B111A"/>
<path d="M82.6199 58.3196C81.8999 58.3196 81.3599 57.7796 81.3599 57.0596V58.3196H82.6199Z" fill="#0B111A"/>
<path d="M87.1201 57.0605C87.1201 57.7805 87.6601 58.3205 88.3801 58.3205H91.6201C92.3401 58.3205 92.8801 57.7805 92.8801 57.0605V52.5605H87.1201V57.0605Z" fill="#0B111A"/>
<path d="M99.9001 52.5605H103.14C103.86 52.5605 104.4 53.1005 104.4 53.8205V57.0605C104.4 57.7805 103.86 58.3205 103.14 58.3205H99.9001C99.1801 58.3205 98.6401 57.7805 98.6401 57.0605V53.8205C98.6401 53.1005 99.1801 52.5605 99.9001 52.5605Z" fill="#0B111A"/>
<path d="M111.42 52.5605H114.66C115.38 52.5605 115.92 53.1005 115.92 53.8205V57.0605C115.92 57.7805 115.38 58.3205 114.66 58.3205H111.42C110.7 58.3205 110.16 57.7805 110.16 57.0605V53.8205C110.16 53.1005 110.7 52.5605 111.42 52.5605Z" fill="#0B111A"/>
<path d="M64.0798 62.8206C64.0798 63.5406 64.6198 64.0806 65.3398 64.0806H68.5798C69.2998 64.0806 69.8398 63.5406 69.8398 62.8206V58.3206H64.0798V62.8206Z" fill="#0B111A"/>
<path d="M75.6001 62.8206C75.6001 63.5406 76.1401 64.0806 76.8601 64.0806H81.3601V58.3206H75.6001V62.8206Z" fill="#0B111A"/>
<path d="M85.8599 58.3206C86.5799 58.3206 87.1199 58.8606 87.1199 59.5806V64.0806H81.3599V58.3206H85.8599Z" fill="#0B111A"/>
<path d="M88.3801 64.0806C87.6601 64.0806 87.1201 63.5406 87.1201 62.8206V64.0806H88.3801Z" fill="#0B111A"/>
<path d="M19.26 64.0803C18.54 64.0803 18 64.6203 18 65.3403V69.8403H23.76V64.0803H19.26Z" fill="#0B111A"/>
<path d="M28.2598 64.0803C28.9798 64.0803 29.5198 64.6203 29.5198 65.3403V69.8403H23.7598V64.0803H28.2598Z" fill="#0B111A"/>
<path d="M34.02 69.8403C34.74 69.8403 35.28 69.3003 35.28 68.5803V69.8403H34.02Z" fill="#0B111A"/>
<path d="M30.78 69.8403C30.06 69.8403 29.52 69.3003 29.52 68.5803V69.8403H30.78Z" fill="#0B111A"/>
<path d="M41.0398 68.5803V65.3403C41.0398 64.6203 40.4998 64.0803 39.7798 64.0803H36.5398C35.8198 64.0803 35.2798 64.6203 35.2798 65.3403V69.8403H41.0398V68.5803Z" fill="#0B111A"/>
<path d="M42.3003 69.8403C41.5803 69.8403 41.0403 69.3003 41.0403 68.5803V69.8403H42.3003Z" fill="#0B111A"/>
<path d="M57.0598 64.0803H53.8198C53.0998 64.0803 52.5598 64.6203 52.5598 65.3403V68.5803C52.5598 69.3003 53.0998 69.8403 53.8198 69.8403H58.3198V64.0803H57.0598Z" fill="#0B111A"/>
<path d="M62.8201 64.0803C63.5401 64.0803 64.0801 64.6203 64.0801 65.3403V69.8403H58.3201V64.0803H62.8201Z" fill="#0B111A"/>
<path d="M65.3398 69.8403C64.6198 69.8403 64.0798 69.3003 64.0798 68.5803V69.8403H65.3398Z" fill="#0B111A"/>
<path d="M81.3601 65.3403V64.0803H80.1001C80.8201 64.0803 81.3601 64.6203 81.3601 65.3403Z" fill="#0B111A"/>
<path d="M87.1199 64.0803H81.3599V69.8403H87.1199V64.0803Z" fill="#0B111A"/>
<path d="M92.8801 64.0803H87.1201V69.8403H92.8801V64.0803Z" fill="#0B111A"/>
<path d="M97.3799 64.0803C98.0999 64.0803 98.6399 64.6203 98.6399 65.3403V69.8403H92.8799V64.0803H97.3799Z" fill="#0B111A"/>
<path d="M108.9 69.8403C109.62 69.8403 110.16 69.3003 110.16 68.5803V69.8403H108.9Z" fill="#0B111A"/>
<path d="M115.92 68.5803V65.3403C115.92 64.6203 115.38 64.0803 114.66 64.0803H111.42C110.7 64.0803 110.16 64.6203 110.16 65.3403V69.8403H115.92V68.5803Z" fill="#0B111A"/>
<path d="M122.94 64.0803C122.22 64.0803 121.68 64.6203 121.68 65.3403V69.8403H127.44V64.0803H122.94Z" fill="#0B111A"/>
<path d="M133.2 64.0803H127.44V69.8403H133.2V64.0803Z" fill="#0B111A"/>
<path d="M137.7 64.0803C138.42 64.0803 138.96 64.6203 138.96 65.3403V69.8403H133.2V64.0803H137.7Z" fill="#0B111A"/>
<path d="M149.22 64.0803H145.98C145.26 64.0803 144.72 64.6203 144.72 65.3403V68.5803C144.72 69.3003 145.26 69.8403 145.98 69.8403H150.48V64.0803H149.22Z" fill="#0B111A"/>
<path d="M154.98 64.0803C155.7 64.0803 156.24 64.6203 156.24 65.3403V69.8403H150.48V64.0803H154.98Z" fill="#0B111A"/>
<path d="M23.76 69.8403H18V75.6003H23.76V69.8403Z" fill="#0B111A"/>
<path d="M29.5198 69.8403H23.7598V75.6003H29.5198V69.8403Z" fill="#0B111A"/>
<path d="M35.28 69.8403H29.52V75.6003H35.28V69.8403Z" fill="#0B111A"/>
<path d="M41.0398 69.8403H35.2798V75.6003H41.0398V69.8403Z" fill="#0B111A"/>
<path d="M42.3003 75.6003H45.5403C46.2603 75.6003 46.8003 75.0603 46.8003 74.3403V71.1003C46.8003 70.3803 46.2603 69.8403 45.5403 69.8403H41.0403V75.6003H42.3003Z" fill="#0B111A"/>
<path d="M58.3198 71.1003V69.8403H57.0598C57.7798 69.8403 58.3198 70.3803 58.3198 71.1003Z" fill="#0B111A"/>
<path d="M58.3201 74.3403C58.3201 75.0603 58.8601 75.6003 59.5801 75.6003H64.0801V69.8403H58.3201V74.3403Z" fill="#0B111A"/>
<path d="M69.8398 69.8403H64.0798V75.6003H69.8398V69.8403Z" fill="#0B111A"/>
<path d="M71.1003 75.6003H74.3403C75.0603 75.6003 75.6003 75.0603 75.6003 74.3403V71.1003C75.6003 70.3803 75.0603 69.8403 74.3403 69.8403H69.8403V75.6003H71.1003Z" fill="#0B111A"/>
<path d="M87.1199 69.8403H81.3599V75.6003H87.1199V69.8403Z" fill="#0B111A"/>
<path d="M92.8801 69.8403H87.1201V75.6003H92.8801V69.8403Z" fill="#0B111A"/>
<path d="M98.6399 74.3403C98.6399 75.0603 98.0999 75.6003 97.3799 75.6003H92.8799V69.8403H98.6399V74.3403Z" fill="#0B111A"/>
<path d="M108.9 69.8403H105.66C104.94 69.8403 104.4 70.3803 104.4 71.1003V74.3403C104.4 75.0603 104.94 75.6003 105.66 75.6003H110.16V69.8403H108.9Z" fill="#0B111A"/>
<path d="M115.92 74.3403C115.92 75.0603 115.38 75.6003 114.66 75.6003H110.16V69.8403H115.92V74.3403Z" fill="#0B111A"/>
<path d="M120.42 75.6003C121.14 75.6003 121.68 75.0603 121.68 74.3403V75.6003H120.42Z" fill="#0B111A"/>
<path d="M127.44 69.8403H121.68V75.6003H127.44V69.8403Z" fill="#0B111A"/>
<path d="M128.7 69.8403H127.44V71.1003C127.44 70.3803 127.98 69.8403 128.7 69.8403Z" fill="#0B111A"/>
<path d="M133.2 71.1003V69.8403H131.94C132.66 69.8403 133.2 70.3803 133.2 71.1003Z" fill="#0B111A"/>
<path d="M128.7 75.6003C127.98 75.6003 127.44 75.0603 127.44 74.3403V75.6003H128.7Z" fill="#0B111A"/>
<path d="M133.2 74.3403C133.2 75.0603 133.74 75.6003 134.46 75.6003H137.7C138.42 75.6003 138.96 75.0603 138.96 74.3403V69.8403H133.2V74.3403Z" fill="#0B111A"/>
<path d="M150.48 71.1003V69.8403H149.22C149.94 69.8403 150.48 70.3803 150.48 71.1003Z" fill="#0B111A"/>
<path d="M150.48 74.3403C150.48 75.0603 151.02 75.6003 151.74 75.6003H154.98C155.7 75.6003 156.24 75.0603 156.24 74.3403V69.8403H150.48V74.3403Z" fill="#0B111A"/>
<path d="M23.76 75.6001H18V81.3601H23.76V75.6001Z" fill="#0B111A"/>
<path d="M25.0198 75.6001H23.7598V76.8601C23.7598 76.1401 24.2998 75.6001 25.0198 75.6001Z" fill="#0B111A"/>
<path d="M29.5198 76.8601V75.6001H28.2598C28.9798 75.6001 29.5198 76.1401 29.5198 76.8601Z" fill="#0B111A"/>
<path d="M29.52 80.1001C29.52 80.8201 30.06 81.3601 30.78 81.3601H34.02C34.74 81.3601 35.28 80.8201 35.28 80.1001V75.6001H29.52V80.1001Z" fill="#0B111A"/>
<path d="M36.5398 75.6001H35.2798V76.8601C35.2798 76.1401 35.8198 75.6001 36.5398 75.6001Z" fill="#0B111A"/>
<path d="M53.8198 75.6001H57.0598C57.7798 75.6001 58.3198 76.1401 58.3198 76.8601V80.1001C58.3198 80.8201 57.7798 81.3601 57.0598 81.3601H53.8198C53.0998 81.3601 52.5598 80.8201 52.5598 80.1001V76.8601C52.5598 76.1401 53.0998 75.6001 53.8198 75.6001Z" fill="#0B111A"/>
<path d="M80.1001 81.3601C80.8201 81.3601 81.3601 80.8201 81.3601 80.1001V81.3601H80.1001Z" fill="#0B111A"/>
<path d="M87.1199 75.6001H81.3599V81.3601H87.1199V75.6001Z" fill="#0B111A"/>
<path d="M92.8801 75.6001H87.1201V81.3601H92.8801V75.6001Z" fill="#0B111A"/>
<path d="M94.1399 75.6001H92.8799V76.8601C92.8799 76.1401 93.4199 75.6001 94.1399 75.6001Z" fill="#0B111A"/>
<path d="M94.1399 81.3601C93.4199 81.3601 92.8799 80.8201 92.8799 80.1001V81.3601H94.1399Z" fill="#0B111A"/>
<path d="M114.66 81.3601C115.38 81.3601 115.92 80.8201 115.92 80.1001V81.3601H114.66Z" fill="#0B111A"/>
<path d="M117.18 75.6001C116.46 75.6001 115.92 76.1401 115.92 76.8601V81.3601H121.68V75.6001H117.18Z" fill="#0B111A"/>
<path d="M127.44 75.6001H121.68V81.3601H127.44V75.6001Z" fill="#0B111A"/>
<path d="M131.94 75.6001C132.66 75.6001 133.2 76.1401 133.2 76.8601V81.3601H127.44V75.6001H131.94Z" fill="#0B111A"/>
<path d="M134.46 81.3601C133.74 81.3601 133.2 80.8201 133.2 80.1001V81.3601H134.46Z" fill="#0B111A"/>
<path d="M143.46 75.6001H140.22C139.5 75.6001 138.96 76.1401 138.96 76.8601V80.1001C138.96 80.8201 139.5 81.3601 140.22 81.3601H144.72V75.6001H143.46Z" fill="#0B111A"/>
<path d="M145.98 81.3601H149.22C149.94 81.3601 150.48 80.8201 150.48 80.1001V76.8601C150.48 76.1401 149.94 75.6001 149.22 75.6001H144.72V81.3601H145.98Z" fill="#0B111A"/>
<path d="M23.76 81.3601H18V87.1201H23.76V81.3601Z" fill="#0B111A"/>
<path d="M41.0398 85.8601V82.6201C41.0398 81.9001 40.4998 81.3601 39.7798 81.3601H36.5398C35.8198 81.3601 35.2798 81.9001 35.2798 82.6201V87.1201H41.0398V85.8601Z" fill="#0B111A"/>
<path d="M52.5601 85.8601V82.6201C52.5601 81.9001 52.0201 81.3601 51.3001 81.3601H48.0601C47.3401 81.3601 46.8 81.9001 46.8 82.6201V87.1201H52.5601V85.8601Z" fill="#0B111A"/>
<path d="M53.8198 87.1201C53.0998 87.1201 52.5598 86.5801 52.5598 85.8601V87.1201H53.8198Z" fill="#0B111A"/>
<path d="M68.5798 81.3601H65.3398C64.6198 81.3601 64.0798 81.9001 64.0798 82.6201V85.8601C64.0798 86.5801 64.6198 87.1201 65.3398 87.1201H69.8398V81.3601H68.5798Z" fill="#0B111A"/>
<path d="M75.6003 81.3601H69.8403V87.1201H75.6003V81.3601Z" fill="#0B111A"/>
<path d="M81.3601 81.3601H75.6001V87.1201H81.3601V81.3601Z" fill="#0B111A"/>
<path d="M87.1199 81.3601H81.3599V87.1201H87.1199V81.3601Z" fill="#0B111A"/>
<path d="M92.8801 81.3601H87.1201V87.1201H92.8801V81.3601Z" fill="#0B111A"/>
<path d="M98.6399 81.3601H92.8799V87.1201H98.6399V81.3601Z" fill="#0B111A"/>
<path d="M99.9001 87.1201H103.14C103.86 87.1201 104.4 86.5801 104.4 85.8601V82.6201C104.4 81.9001 103.86 81.3601 103.14 81.3601H98.6401V87.1201H99.9001Z" fill="#0B111A"/>
<path d="M111.42 81.3601C110.7 81.3601 110.16 81.9001 110.16 82.6201V87.1201H115.92V81.3601H111.42Z" fill="#0B111A"/>
<path d="M121.68 81.3601H115.92V87.1201H121.68V81.3601Z" fill="#0B111A"/>
<path d="M127.44 81.3601H121.68V87.1201H127.44V81.3601Z" fill="#0B111A"/>
<path d="M133.2 81.3601H127.44V87.1201H133.2V81.3601Z" fill="#0B111A"/>
<path d="M134.46 87.1201H137.7C138.42 87.1201 138.96 86.5801 138.96 85.8601V82.6201C138.96 81.9001 138.42 81.3601 137.7 81.3601H133.2V87.1201H134.46Z" fill="#0B111A"/>
<path d="M154.98 87.1201C155.7 87.1201 156.24 86.5801 156.24 85.8601V87.1201H154.98Z" fill="#0B111A"/>
<path d="M162 85.8601V82.6201C162 81.9001 161.46 81.3601 160.74 81.3601H157.5C156.78 81.3601 156.24 81.9001 156.24 82.6201V87.1201H162V85.8601Z" fill="#0B111A"/>
<path d="M18 91.6201C18 92.3401 18.54 92.8801 19.26 92.8801H22.5C23.22 92.8801 23.76 92.3401 23.76 91.6201V87.1201H18V91.6201Z" fill="#0B111A"/>
<path d="M34.02 92.8801C34.74 92.8801 35.28 92.3401 35.28 91.6201V92.8801H34.02Z" fill="#0B111A"/>
<path d="M41.0398 87.1201H35.2798V92.8801H41.0398V87.1201Z" fill="#0B111A"/>
<path d="M46.8 91.6201C46.8 92.3401 47.3401 92.8801 48.0601 92.8801H52.5601V87.1201H46.8V91.6201Z" fill="#0B111A"/>
<path d="M53.8198 92.8801H57.0598C57.7798 92.8801 58.3198 92.3401 58.3198 91.6201V88.3801C58.3198 87.6601 57.7798 87.1201 57.0598 87.1201H52.5598V92.8801H53.8198Z" fill="#0B111A"/>
<path d="M75.6003 88.3801V87.1201H74.3403C75.0603 87.1201 75.6003 87.6601 75.6003 88.3801Z" fill="#0B111A"/>
<path d="M75.6001 91.6201C75.6001 92.3401 76.1401 92.8801 76.8601 92.8801H81.3601V87.1201H75.6001V91.6201Z" fill="#0B111A"/>
<path d="M87.1199 87.1201H81.3599V92.8801H87.1199V87.1201Z" fill="#0B111A"/>
<path d="M88.3801 87.1201H87.1201V88.3801C87.1201 87.6601 87.6601 87.1201 88.3801 87.1201Z" fill="#0B111A"/>
<path d="M92.8801 88.3801V87.1201H91.6201C92.3401 87.1201 92.8801 87.6601 92.8801 88.3801Z" fill="#0B111A"/>
<path d="M92.8799 91.6201C92.8799 92.3401 93.4199 92.8801 94.1399 92.8801H97.3799C98.0999 92.8801 98.6399 92.3401 98.6399 91.6201V87.1201H92.8799V91.6201Z" fill="#0B111A"/>
<path d="M99.9001 87.1201H98.6401V88.3801C98.6401 87.6601 99.1801 87.1201 99.9001 87.1201Z" fill="#0B111A"/>
<path d="M110.16 91.6201C110.16 92.3401 110.7 92.8801 111.42 92.8801H114.66C115.38 92.8801 115.92 92.3401 115.92 91.6201V87.1201H110.16V91.6201Z" fill="#0B111A"/>
<path d="M117.18 87.1201H115.92V88.3801C115.92 87.6601 116.46 87.1201 117.18 87.1201Z" fill="#0B111A"/>
<path d="M121.68 88.3801V87.1201H120.42C121.14 87.1201 121.68 87.6601 121.68 88.3801Z" fill="#0B111A"/>
<path d="M121.68 91.6201C121.68 92.3401 122.22 92.8801 122.94 92.8801H127.44V87.1201H121.68V91.6201Z" fill="#0B111A"/>
<path d="M133.2 87.1201H127.44V92.8801H133.2V87.1201Z" fill="#0B111A"/>
<path d="M134.46 87.1201H133.2V88.3801C133.2 87.6601 133.74 87.1201 134.46 87.1201Z" fill="#0B111A"/>
<path d="M134.46 92.8801C133.74 92.8801 133.2 92.3401 133.2 91.6201V92.8801H134.46Z" fill="#0B111A"/>
<path d="M145.98 87.1201C145.26 87.1201 144.72 87.6601 144.72 88.3801V92.8801H150.48V87.1201H145.98Z" fill="#0B111A"/>
<path d="M156.24 87.1201H150.48V92.8801H156.24V87.1201Z" fill="#0B111A"/>
<path d="M162 87.1201H156.24V92.8801H162V87.1201Z" fill="#0B111A"/>
<path d="M28.2598 92.8799H25.0198C24.2998 92.8799 23.7598 93.4199 23.7598 94.1399V97.3799C23.7598 98.0999 24.2998 98.6399 25.0198 98.6399H29.5198V92.8799H28.2598Z" fill="#0B111A"/>
<path d="M35.28 92.8799H29.52V98.6399H35.28V92.8799Z" fill="#0B111A"/>
<path d="M41.0398 97.3799C41.0398 98.0999 40.4998 98.6399 39.7798 98.6399H35.2798V92.8799H41.0398V97.3799Z" fill="#0B111A"/>
<path d="M62.8201 92.8799H59.5801C58.8601 92.8799 58.3201 93.4199 58.3201 94.1399V97.3799C58.3201 98.0999 58.8601 98.6399 59.5801 98.6399H64.0801V92.8799H62.8201Z" fill="#0B111A"/>
<path d="M68.5798 92.8799C69.2998 92.8799 69.8398 93.4199 69.8398 94.1399V98.6399H64.0798V92.8799H68.5798Z" fill="#0B111A"/>
<path d="M81.3601 94.1399V92.8799H80.1001C80.8201 92.8799 81.3601 93.4199 81.3601 94.1399Z" fill="#0B111A"/>
<path d="M87.1199 92.8799H81.3599V98.6399H87.1199V92.8799Z" fill="#0B111A"/>
<path d="M97.3799 98.6399C98.0999 98.6399 98.6399 98.0999 98.6399 97.3799V98.6399H97.3799Z" fill="#0B111A"/>
<path d="M104.4 97.3799V94.1399C104.4 93.4199 103.86 92.8799 103.14 92.8799H99.9001C99.1801 92.8799 98.6401 93.4199 98.6401 94.1399V98.6399H104.4V97.3799Z" fill="#0B111A"/>
<path d="M105.66 98.6399C104.94 98.6399 104.4 98.0999 104.4 97.3799V98.6399H105.66Z" fill="#0B111A"/>
<path d="M127.44 94.1399V92.8799H126.18C126.9 92.8799 127.44 93.4199 127.44 94.1399Z" fill="#0B111A"/>
<path d="M127.44 97.3799C127.44 98.0999 127.98 98.6399 128.7 98.6399H133.2V92.8799H127.44V97.3799Z" fill="#0B111A"/>
<path d="M137.7 92.8799C138.42 92.8799 138.96 93.4199 138.96 94.1399V98.6399H133.2V92.8799H137.7Z" fill="#0B111A"/>
<path d="M140.22 98.6399C139.5 98.6399 138.96 98.0999 138.96 97.3799V98.6399H140.22Z" fill="#0B111A"/>
<path d="M144.72 97.3799C144.72 98.0999 145.26 98.6399 145.98 98.6399H150.48V92.8799H144.72V97.3799Z" fill="#0B111A"/>
<path d="M156.24 92.8799H150.48V98.6399H156.24V92.8799Z" fill="#0B111A"/>
<path d="M162 92.8799H156.24V98.6399H162V92.8799Z" fill="#0B111A"/>
<path d="M19.26 98.6399H22.5C23.22 98.6399 23.76 99.1799 23.76 99.8999V103.14C23.76 103.86 23.22 104.4 22.5 104.4H19.26C18.54 104.4 18 103.86 18 103.14V99.8999C18 99.1799 18.54 98.6399 19.26 98.6399Z" fill="#0B111A"/>
<path d="M51.3001 98.6399H48.0601C47.3401 98.6399 46.8 99.1799 46.8 99.8999V103.14C46.8 103.86 47.3401 104.4 48.0601 104.4H52.5601V98.6399H51.3001Z" fill="#0B111A"/>
<path d="M53.8198 104.4H57.0598C57.7798 104.4 58.3198 103.86 58.3198 103.14V99.8999C58.3198 99.1799 57.7798 98.6399 57.0598 98.6399H52.5598V104.4H53.8198Z" fill="#0B111A"/>
<path d="M64.0801 99.8999V98.6399H62.8201C63.5401 98.6399 64.0801 99.1799 64.0801 99.8999Z" fill="#0B111A"/>
<path d="M62.8201 104.4C63.5401 104.4 64.0801 103.86 64.0801 103.14V104.4H62.8201Z" fill="#0B111A"/>
<path d="M69.8398 98.6399H64.0798V104.4H69.8398V98.6399Z" fill="#0B111A"/>
<path d="M87.1199 98.6399H81.3599V104.4H87.1199V98.6399Z" fill="#0B111A"/>
<path d="M97.3799 98.6399H94.1399C93.4199 98.6399 92.8799 99.1799 92.8799 99.8999V103.14C92.8799 103.86 93.4199 104.4 94.1399 104.4H98.6399V98.6399H97.3799Z" fill="#0B111A"/>
<path d="M104.4 98.6399H98.6401V104.4H104.4V98.6399Z" fill="#0B111A"/>
<path d="M110.16 98.6399H104.4V104.4H110.16V98.6399Z" fill="#0B111A"/>
<path d="M111.42 104.4H114.66C115.38 104.4 115.92 103.86 115.92 103.14V99.8999C115.92 99.1799 115.38 98.6399 114.66 98.6399H110.16V104.4H111.42Z" fill="#0B111A"/>
<path d="M127.44 103.14V99.8999C127.44 99.1799 126.9 98.6399 126.18 98.6399H122.94C122.22 98.6399 121.68 99.1799 121.68 99.8999V104.4H127.44V103.14Z" fill="#0B111A"/>
<path d="M133.2 99.8999V98.6399H131.94C132.66 98.6399 133.2 99.1799 133.2 99.8999Z" fill="#0B111A"/>
<path d="M128.7 104.4C127.98 104.4 127.44 103.86 127.44 103.14V104.4H128.7Z" fill="#0B111A"/>
<path d="M133.2 103.14C133.2 103.86 133.74 104.4 134.46 104.4H138.96V98.6399H133.2V103.14Z" fill="#0B111A"/>
<path d="M140.22 104.4H143.46C144.18 104.4 144.72 103.86 144.72 103.14V99.8999C144.72 99.1799 144.18 98.6399 143.46 98.6399H138.96V104.4H140.22Z" fill="#0B111A"/>
<path d="M156.24 99.8999V98.6399H154.98C155.7 98.6399 156.24 99.1799 156.24 99.8999Z" fill="#0B111A"/>
<path d="M156.24 103.14C156.24 103.86 156.78 104.4 157.5 104.4H160.74C161.46 104.4 162 103.86 162 103.14V98.6399H156.24V103.14Z" fill="#0B111A"/>
<path d="M22.5 110.16C23.22 110.16 23.76 109.62 23.76 108.9V110.16H22.5Z" fill="#0B111A"/>
<path d="M29.5198 108.9V105.66C29.5198 104.94 28.9798 104.4 28.2598 104.4H25.0198C24.2998 104.4 23.7598 104.94 23.7598 105.66V110.16H29.5198V108.9Z" fill="#0B111A"/>
<path d="M30.78 110.16C30.06 110.16 29.52 109.62 29.52 108.9V110.16H30.78Z" fill="#0B111A"/>
<path d="M39.7798 104.4H36.5398C35.8198 104.4 35.2798 104.94 35.2798 105.66V108.9C35.2798 109.62 35.8198 110.16 36.5398 110.16H41.0398V104.4H39.7798Z" fill="#0B111A"/>
<path d="M45.5403 104.4C46.2603 104.4 46.8003 104.94 46.8003 105.66V110.16H41.0403V104.4H45.5403Z" fill="#0B111A"/>
<path d="M62.8201 104.4H59.5801C58.8601 104.4 58.3201 104.94 58.3201 105.66V108.9C58.3201 109.62 58.8601 110.16 59.5801 110.16H64.0801V104.4H62.8201Z" fill="#0B111A"/>
<path d="M69.8398 104.4H64.0798V110.16H69.8398V104.4Z" fill="#0B111A"/>
<path d="M71.1003 110.16C70.3803 110.16 69.8403 109.62 69.8403 108.9V110.16H71.1003Z" fill="#0B111A"/>
<path d="M81.3599 108.9C81.3599 109.62 81.8999 110.16 82.6199 110.16H85.8599C86.5799 110.16 87.1199 109.62 87.1199 108.9V104.4H81.3599V108.9Z" fill="#0B111A"/>
<path d="M120.42 110.16C121.14 110.16 121.68 109.62 121.68 108.9V110.16H120.42Z" fill="#0B111A"/>
<path d="M127.44 104.4H121.68V110.16H127.44V104.4Z" fill="#0B111A"/>
<path d="M131.94 104.4C132.66 104.4 133.2 104.94 133.2 105.66V110.16H127.44V104.4H131.94Z" fill="#0B111A"/>
<path d="M134.46 110.16C133.74 110.16 133.2 109.62 133.2 108.9V110.16H134.46Z" fill="#0B111A"/>
<path d="M22.5 110.16H19.26C18.54 110.16 18 110.7 18 111.42V114.66C18 115.38 18.54 115.92 19.26 115.92H23.76V110.16H22.5Z" fill="#0B111A"/>
<path d="M29.5198 110.16H23.7598V115.92H29.5198V110.16Z" fill="#0B111A"/>
<path d="M30.78 115.92H34.02C34.74 115.92 35.28 115.38 35.28 114.66V111.42C35.28 110.7 34.74 110.16 34.02 110.16H29.52V115.92H30.78Z" fill="#0B111A"/>
<path d="M41.0398 111.42V110.16H39.7798C40.4998 110.16 41.0398 110.7 41.0398 111.42Z" fill="#0B111A"/>
<path d="M41.0403 114.66C41.0403 115.38 41.5803 115.92 42.3003 115.92H45.5403C46.2603 115.92 46.8003 115.38 46.8003 114.66V110.16H41.0403V114.66Z" fill="#0B111A"/>
<path d="M53.8198 110.16H57.0598C57.7798 110.16 58.3198 110.7 58.3198 111.42V114.66C58.3198 115.38 57.7798 115.92 57.0598 115.92H53.8198C53.0998 115.92 52.5598 115.38 52.5598 114.66V111.42C52.5598 110.7 53.0998 110.16 53.8198 110.16Z" fill="#0B111A"/>
<path d="M64.0801 111.42V110.16H62.8201C63.5401 110.16 64.0801 110.7 64.0801 111.42Z" fill="#0B111A"/>
<path d="M69.8398 110.16H64.0798V115.92H69.8398V110.16Z" fill="#0B111A"/>
<path d="M74.3403 110.16C75.0603 110.16 75.6003 110.7 75.6003 111.42V115.92H69.8403V110.16H74.3403Z" fill="#0B111A"/>
<path d="M92.8801 114.66V111.42C92.8801 110.7 92.3401 110.16 91.6201 110.16H88.3801C87.6601 110.16 87.1201 110.7 87.1201 111.42V115.92H92.8801V114.66Z" fill="#0B111A"/>
<path d="M94.1399 115.92C93.4199 115.92 92.8799 115.38 92.8799 114.66V115.92H94.1399Z" fill="#0B111A"/>
<path d="M111.42 110.16C110.7 110.16 110.16 110.7 110.16 111.42V115.92H115.92V110.16H111.42Z" fill="#0B111A"/>
<path d="M121.68 110.16H115.92V115.92H121.68V110.16Z" fill="#0B111A"/>
<path d="M127.44 110.16H121.68V115.92H127.44V110.16Z" fill="#0B111A"/>
<path d="M133.2 110.16H127.44V115.92H133.2V110.16Z" fill="#0B111A"/>
<path d="M137.7 110.16C138.42 110.16 138.96 110.7 138.96 111.42V115.92H133.2V110.16H137.7Z" fill="#0B111A"/>
<path d="M157.5 110.16H160.74C161.46 110.16 162 110.7 162 111.42V114.66C162 115.38 161.46 115.92 160.74 115.92H157.5C156.78 115.92 156.24 115.38 156.24 114.66V111.42C156.24 110.7 156.78 110.16 157.5 110.16Z" fill="#0B111A"/>
<path d="M69.8398 115.92H64.0798V121.68H69.8398V115.92Z" fill="#0B111A"/>
<path d="M75.6003 120.42C75.6003 121.14 75.0603 121.68 74.3403 121.68H69.8403V115.92H75.6003V120.42Z" fill="#0B111A"/>
<path d="M85.8599 121.68C86.5799 121.68 87.1199 121.14 87.1199 120.42V121.68H85.8599Z" fill="#0B111A"/>
<path d="M92.8801 115.92H87.1201V121.68H92.8801V115.92Z" fill="#0B111A"/>
<path d="M97.3799 115.92C98.0999 115.92 98.6399 116.46 98.6399 117.18V121.68H92.8799V115.92H97.3799Z" fill="#0B111A"/>
<path d="M99.9001 121.68C99.1801 121.68 98.6401 121.14 98.6401 120.42V121.68H99.9001Z" fill="#0B111A"/>
<path d="M108.9 121.68C109.62 121.68 110.16 121.14 110.16 120.42V121.68H108.9Z" fill="#0B111A"/>
<path d="M115.92 115.92H110.16V121.68H115.92V115.92Z" fill="#0B111A"/>
<path d="M117.18 115.92H115.92V117.18C115.92 116.46 116.46 115.92 117.18 115.92Z" fill="#0B111A"/>
<path d="M133.2 117.18V115.92H131.94C132.66 115.92 133.2 116.46 133.2 117.18Z" fill="#0B111A"/>
<path d="M138.96 115.92H133.2V121.68H138.96V115.92Z" fill="#0B111A"/>
<path d="M140.22 121.68C139.5 121.68 138.96 121.14 138.96 120.42V121.68H140.22Z" fill="#0B111A"/>
<path d="M64.0798 126.179C64.0798 126.899 64.6198 127.439 65.3398 127.439H68.5798C69.2998 127.439 69.8398 126.899 69.8398 126.179V121.679H64.0798V126.179Z" fill="#0B111A"/>
<path d="M71.1003 121.679H69.8403V122.939C69.8403 122.219 70.3803 121.679 71.1003 121.679Z" fill="#0B111A"/>
<path d="M85.8599 121.679H82.6199C81.8999 121.679 81.3599 122.219 81.3599 122.939V126.179C81.3599 126.899 81.8999 127.439 82.6199 127.439H87.1199V121.679H85.8599Z" fill="#0B111A"/>
<path d="M92.8801 121.679H87.1201V127.439H92.8801V121.679Z" fill="#0B111A"/>
<path d="M98.6399 121.679H92.8799V127.439H98.6399V121.679Z" fill="#0B111A"/>
<path d="M104.4 121.679H98.6401V127.439H104.4V121.679Z" fill="#0B111A"/>
<path d="M110.16 121.679H104.4V127.439H110.16V121.679Z" fill="#0B111A"/>
<path d="M115.92 121.679H110.16V127.439H115.92V121.679Z" fill="#0B111A"/>
<path d="M122.94 121.679H126.18C126.9 121.679 127.44 122.219 127.44 122.939V126.179C127.44 126.899 126.9 127.439 126.18 127.439H122.94C122.22 127.439 121.68 126.899 121.68 126.179V122.939C121.68 122.219 122.22 121.679 122.94 121.679Z" fill="#0B111A"/>
<path d="M138.96 121.679H133.2V127.439H138.96V121.679Z" fill="#0B111A"/>
<path d="M143.46 121.679C144.18 121.679 144.72 122.219 144.72 122.939V127.439H138.96V121.679H143.46Z" fill="#0B111A"/>
<path d="M149.22 127.439C149.94 127.439 150.48 126.899 150.48 126.179V127.439H149.22Z" fill="#0B111A"/>
<path d="M145.98 127.439C145.26 127.439 144.72 126.899 144.72 126.179V127.439H145.98Z" fill="#0B111A"/>
<path d="M151.74 121.679C151.02 121.679 150.48 122.219 150.48 122.939V127.439H156.24V121.679H151.74Z" fill="#0B111A"/>
<path d="M160.74 121.679C161.46 121.679 162 122.219 162 122.939V127.439H156.24V121.679H160.74Z" fill="#0B111A"/>
<path d="M74.3403 127.44H71.1003C70.3803 127.44 69.8403 127.98 69.8403 128.7V131.94C69.8403 132.66 70.3803 133.2 71.1003 133.2H75.6003V127.44H74.3403Z" fill="#0B111A"/>
<path d="M76.8601 133.2H80.1001C80.8201 133.2 81.3601 132.66 81.3601 131.94V128.7C81.3601 127.98 80.8201 127.44 80.1001 127.44H75.6001V133.2H76.8601Z" fill="#0B111A"/>
<path d="M87.1199 128.7V127.44H85.8599C86.5799 127.44 87.1199 127.98 87.1199 128.7Z" fill="#0B111A"/>
<path d="M92.8801 127.44H87.1201V133.2H92.8801V127.44Z" fill="#0B111A"/>
<path d="M94.1399 127.44H92.8799V128.7C92.8799 127.98 93.4199 127.44 94.1399 127.44Z" fill="#0B111A"/>
<path d="M98.6399 128.7V127.44H97.3799C98.0999 127.44 98.6399 127.98 98.6399 128.7Z" fill="#0B111A"/>
<path d="M98.6401 131.94C98.6401 132.66 99.1801 133.2 99.9001 133.2H103.14C103.86 133.2 104.4 132.66 104.4 131.94V127.44H98.6401V131.94Z" fill="#0B111A"/>
<path d="M105.66 127.44H104.4V128.7C104.4 127.98 104.94 127.44 105.66 127.44Z" fill="#0B111A"/>
<path d="M110.16 128.7V127.44H108.9C109.62 127.44 110.16 127.98 110.16 128.7Z" fill="#0B111A"/>
<path d="M108.9 133.2C109.62 133.2 110.16 132.66 110.16 131.94V133.2H108.9Z" fill="#0B111A"/>
<path d="M115.92 127.44H110.16V133.2H115.92V127.44Z" fill="#0B111A"/>
<path d="M117.18 133.2C116.46 133.2 115.92 132.66 115.92 131.94V133.2H117.18Z" fill="#0B111A"/>
<path d="M131.94 133.2C132.66 133.2 133.2 132.66 133.2 131.94V133.2H131.94Z" fill="#0B111A"/>
<path d="M138.96 127.44H133.2V133.2H138.96V127.44Z" fill="#0B111A"/>
<path d="M144.72 127.44H138.96V133.2H144.72V127.44Z" fill="#0B111A"/>
<path d="M150.48 127.44H144.72V133.2H150.48V127.44Z" fill="#0B111A"/>
<path d="M156.24 127.44H150.48V133.2H156.24V127.44Z" fill="#0B111A"/>
<path d="M162 131.94C162 132.66 161.46 133.2 160.74 133.2H156.24V127.44H162V131.94Z" fill="#0B111A"/>
<path d="M87.1201 137.7C87.1201 138.42 87.6601 138.96 88.3801 138.96H91.6201C92.3401 138.96 92.8801 138.42 92.8801 137.7V133.2H87.1201V137.7Z" fill="#0B111A"/>
<path d="M103.14 138.96C103.86 138.96 104.4 138.42 104.4 137.7V138.96H103.14Z" fill="#0B111A"/>
<path d="M105.66 133.2C104.94 133.2 104.4 133.74 104.4 134.46V138.96H110.16V133.2H105.66Z" fill="#0B111A"/>
<path d="M115.92 133.2H110.16V138.96H115.92V133.2Z" fill="#0B111A"/>
<path d="M121.68 133.2H115.92V138.96H121.68V133.2Z" fill="#0B111A"/>
<path d="M127.44 133.2H121.68V138.96H127.44V133.2Z" fill="#0B111A"/>
<path d="M133.2 133.2H127.44V138.96H133.2V133.2Z" fill="#0B111A"/>
<path d="M138.96 133.2H133.2V138.96H138.96V133.2Z" fill="#0B111A"/>
<path d="M140.22 133.2H138.96V134.46C138.96 133.74 139.5 133.2 140.22 133.2Z" fill="#0B111A"/>
<path d="M144.72 134.46V133.2H143.46C144.18 133.2 144.72 133.74 144.72 134.46Z" fill="#0B111A"/>
<path d="M144.72 137.7C144.72 138.42 145.26 138.96 145.98 138.96H150.48V133.2H144.72V137.7Z" fill="#0B111A"/>
<path d="M156.24 137.7C156.24 138.42 155.7 138.96 154.98 138.96H150.48V133.2H156.24V137.7Z" fill="#0B111A"/>
<path d="M157.5 133.2H156.24V134.46C156.24 133.74 156.78 133.2 157.5 133.2Z" fill="#0B111A"/>
<path d="M65.3398 138.96H68.5798C69.2998 138.96 69.8398 139.5 69.8398 140.22V143.46C69.8398 144.18 69.2998 144.72 68.5798 144.72H65.3398C64.6198 144.72 64.0798 144.18 64.0798 143.46V140.22C64.0798 139.5 64.6198 138.96 65.3398 138.96Z" fill="#0B111A"/>
<path d="M82.6199 138.96H85.8599C86.5799 138.96 87.1199 139.5 87.1199 140.22V143.46C87.1199 144.18 86.5799 144.72 85.8599 144.72H82.6199C81.8999 144.72 81.3599 144.18 81.3599 143.46V140.22C81.3599 139.5 81.8999 138.96 82.6199 138.96Z" fill="#0B111A"/>
<path d="M97.3799 138.96H94.1399C93.4199 138.96 92.8799 139.5 92.8799 140.22V143.46C92.8799 144.18 93.4199 144.72 94.1399 144.72H98.6399V138.96H97.3799Z" fill="#0B111A"/>
<path d="M104.4 138.96H98.6401V144.72H104.4V138.96Z" fill="#0B111A"/>
<path d="M110.16 138.96H104.4V144.72H110.16V138.96Z" fill="#0B111A"/>
<path d="M115.92 138.96H110.16V144.72H115.92V138.96Z" fill="#0B111A"/>
<path d="M121.68 143.46C121.68 144.18 121.14 144.72 120.42 144.72H115.92V138.96H121.68V143.46Z" fill="#0B111A"/>
<path d="M122.94 138.96H121.68V140.22C121.68 139.5 122.22 138.96 122.94 138.96Z" fill="#0B111A"/>
<path d="M127.44 140.22V138.96H126.18C126.9 138.96 127.44 139.5 127.44 140.22Z" fill="#0B111A"/>
<path d="M133.2 138.96H127.44V144.72H133.2V138.96Z" fill="#0B111A"/>
<path d="M138.96 143.46C138.96 144.18 138.42 144.72 137.7 144.72H133.2V138.96H138.96V143.46Z" fill="#0B111A"/>
<path d="M74.3403 144.72H71.1003C70.3803 144.72 69.8403 145.26 69.8403 145.98V149.22C69.8403 149.94 70.3803 150.48 71.1003 150.48H75.6003V144.72H74.3403Z" fill="#0B111A"/>
<path d="M80.1001 144.72C80.8201 144.72 81.3601 145.26 81.3601 145.98V150.48H75.6001V144.72H80.1001Z" fill="#0B111A"/>
<path d="M88.3801 144.72H91.6201C92.3401 144.72 92.8801 145.26 92.8801 145.98V149.22C92.8801 149.94 92.3401 150.48 91.6201 150.48H88.3801C87.6601 150.48 87.1201 149.94 87.1201 149.22V145.98C87.1201 145.26 87.6601 144.72 88.3801 144.72Z" fill="#0B111A"/>
<path d="M104.4 145.98V144.72H103.14C103.86 144.72 104.4 145.26 104.4 145.98Z" fill="#0B111A"/>
<path d="M104.4 149.22C104.4 149.94 104.94 150.48 105.66 150.48H108.9C109.62 150.48 110.16 149.94 110.16 149.22V144.72H104.4V149.22Z" fill="#0B111A"/>
<path d="M111.42 144.72H110.16V145.98C110.16 145.26 110.7 144.72 111.42 144.72Z" fill="#0B111A"/>
<path d="M127.44 149.22C127.44 149.94 127.98 150.48 128.7 150.48H131.94C132.66 150.48 133.2 149.94 133.2 149.22V144.72H127.44V149.22Z" fill="#0B111A"/>
<path d="M134.46 144.72H133.2V145.98C133.2 145.26 133.74 144.72 134.46 144.72Z" fill="#0B111A"/>
<path d="M140.22 144.72C139.5 144.72 138.96 145.26 138.96 145.98V150.48H144.72V144.72H140.22Z" fill="#0B111A"/>
<path d="M145.98 150.48H149.22C149.94 150.48 150.48 149.94 150.48 149.22V145.98C150.48 145.26 149.94 144.72 149.22 144.72H144.72V150.48H145.98Z" fill="#0B111A"/>
<path d="M154.98 150.48C155.7 150.48 156.24 149.94 156.24 149.22V150.48H154.98Z" fill="#0B111A"/>
<path d="M162 149.22V145.98C162 145.26 161.46 144.72 160.74 144.72H157.5C156.78 144.72 156.24 145.26 156.24 145.98V150.48H162V149.22Z" fill="#0B111A"/>
<path d="M69.8398 154.98V151.74C69.8398 151.02 69.2998 150.48 68.5798 150.48H65.3398C64.6198 150.48 64.0798 151.02 64.0798 151.74V156.24H69.8398V154.98Z" fill="#0B111A"/>
<path d="M75.6003 151.74V150.48H74.3403C75.0603 150.48 75.6003 151.02 75.6003 151.74Z" fill="#0B111A"/>
<path d="M74.3403 156.24C75.0603 156.24 75.6003 155.7 75.6003 154.98V156.24H74.3403Z" fill="#0B111A"/>
<path d="M71.1003 156.24C70.3803 156.24 69.8403 155.7 69.8403 154.98V156.24H71.1003Z" fill="#0B111A"/>
<path d="M81.3601 150.48H75.6001V156.24H81.3601V150.48Z" fill="#0B111A"/>
<path d="M99.9001 150.48H103.14C103.86 150.48 104.4 151.02 104.4 151.74V154.98C104.4 155.7 103.86 156.24 103.14 156.24H99.9001C99.1801 156.24 98.6401 155.7 98.6401 154.98V151.74C98.6401 151.02 99.1801 150.48 99.9001 150.48Z" fill="#0B111A"/>
<path d="M111.42 150.48C110.7 150.48 110.16 151.02 110.16 151.74V156.24H115.92V150.48H111.42Z" fill="#0B111A"/>
<path d="M117.18 156.24H120.42C121.14 156.24 121.68 155.7 121.68 154.98V151.74C121.68 151.02 121.14 150.48 120.42 150.48H115.92V156.24H117.18Z" fill="#0B111A"/>
<path d="M137.7 156.24C138.42 156.24 138.96 155.7 138.96 154.98V156.24H137.7Z" fill="#0B111A"/>
<path d="M144.72 150.48H138.96V156.24H144.72V150.48Z" fill="#0B111A"/>
<path d="M145.98 150.48H144.72V151.74C144.72 151.02 145.26 150.48 145.98 150.48Z" fill="#0B111A"/>
<path d="M151.74 150.48C151.02 150.48 150.48 151.02 150.48 151.74V156.24H156.24V150.48H151.74Z" fill="#0B111A"/>
<path d="M162 150.48H156.24V156.24H162V150.48Z" fill="#0B111A"/>
<path d="M64.0798 160.74C64.0798 161.46 64.6198 162 65.3398 162H69.8398V156.24H64.0798V160.74Z" fill="#0B111A"/>
<path d="M75.6003 156.24H69.8403V162H75.6003V156.24Z" fill="#0B111A"/>
<path d="M81.3601 160.74C81.3601 161.46 80.8201 162 80.1001 162H75.6001V156.24H81.3601V160.74Z" fill="#0B111A"/>
<path d="M94.1399 156.24H97.3799C98.0999 156.24 98.6399 156.78 98.6399 157.5V160.74C98.6399 161.46 98.0999 162 97.3799 162H94.1399C93.4199 162 92.8799 161.46 92.8799 160.74V157.5C92.8799 156.78 93.4199 156.24 94.1399 156.24Z" fill="#0B111A"/>
<path d="M110.16 160.74C110.16 161.46 110.7 162 111.42 162H114.66C115.38 162 115.92 161.46 115.92 160.74V156.24H110.16V160.74Z" fill="#0B111A"/>
<path d="M117.18 156.24H115.92V157.5C115.92 156.78 116.46 156.24 117.18 156.24Z" fill="#0B111A"/>
<path d="M137.7 156.24H134.46C133.74 156.24 133.2 156.78 133.2 157.5V160.74C133.2 161.46 133.74 162 134.46 162H138.96V156.24H137.7Z" fill="#0B111A"/>
<path d="M144.72 160.74C144.72 161.46 144.18 162 143.46 162H138.96V156.24H144.72V160.74Z" fill="#0B111A"/>
<path d="M150.48 160.74C150.48 161.46 151.02 162 151.74 162H156.24V156.24H150.48V160.74Z" fill="#0B111A"/>
<path d="M162 160.74C162 161.46 161.46 162 160.74 162H156.24V156.24H162V160.74Z" fill="#0B111A"/>
<path d="M19.26 18C18.54 18 18 18.54 18 19.26V23.76V29.52V35.28V41.04V46.8V52.56V57.06C18 57.78 18.54 58.32 19.26 58.32H57.06C57.78 58.32 58.32 57.78 58.32 57.06V52.56V46.8V41.04V35.28V29.52V23.76V19.26C58.32 18.54 57.78 18 57.06 18C57.06 18 19.26 18 19.26 18ZM52.56 29.52V35.28V41.04V46.8V51.84C52.56 52.2 52.2 52.56 51.84 52.56H24.48C24.12 52.56 23.76 52.2 23.76 51.84V46.8V41.04V35.28V29.52V24.48C23.76 24.12 24.12 23.76 24.48 23.76H51.84C52.2 23.76 52.56 24.12 52.56 24.48V29.52Z" fill="#0B111A"/>
<path d="M46.8 41.04V35.28V30.78C46.8 30.06 46.26 29.52 45.54 29.52H30.78C30.06 29.52 29.52 30.06 29.52 30.78V35.28V41.04V45.54C29.52 46.26 30.06 46.8 30.78 46.8H45.54C46.26 46.8 46.8 46.26 46.8 45.54V41.04Z" fill="#0B111A"/>
<path d="M122.94 18C122.22 18 121.68 18.54 121.68 19.26V23.76V29.52V35.28V41.04V46.8V52.56V57.06C121.68 57.78 122.22 58.32 122.94 58.32H160.74C161.46 58.32 162 57.78 162 57.06V52.56V46.8V41.04V35.28V29.52V23.76V19.26C162 18.54 161.46 18 160.74 18C160.74 18 122.94 18 122.94 18ZM156.24 29.52V35.28V41.04V46.8V51.84C156.24 52.2 155.88 52.56 155.52 52.56H128.16C127.8 52.56 127.44 52.2 127.44 51.84V46.8V41.04V35.28V29.52V24.48C127.44 24.12 127.8 23.76 128.16 23.76H155.52C155.88 23.76 156.24 24.12 156.24 24.48V29.52Z" fill="#0B111A"/>
<path d="M150.48 41.04V35.28V30.78C150.48 30.06 149.94 29.52 149.22 29.52H134.46C133.74 29.52 133.2 30.06 133.2 30.78V35.28V41.04V45.54C133.2 46.26 133.74 46.8 134.46 46.8H149.22C149.94 46.8 150.48 46.26 150.48 45.54V41.04Z" fill="#0B111A"/>
<path d="M19.26 121.679C18.54 121.679 18 122.219 18 122.939V127.439V133.199V138.959V144.719V150.479V156.239V160.739C18 161.459 18.54 161.999 19.26 161.999H57.06C57.78 161.999 58.32 161.459 58.32 160.739V156.239V150.479V144.719V138.959V133.199V127.439V122.939C58.32 122.219 57.78 121.679 57.06 121.679H19.26ZM52.56 133.199V138.959V144.719V150.479V155.519C52.56 155.879 52.2 156.239 51.84 156.239H24.48C24.12 156.239 23.76 155.879 23.76 155.519V150.479V144.719V138.959V133.199V128.159C23.76 127.799 24.12 127.439 24.48 127.439H51.84C52.2 127.439 52.56 127.799 52.56 128.159V133.199Z" fill="#0B111A"/>
<path d="M46.8 144.72V138.96V134.46C46.8 133.74 46.26 133.2 45.54 133.2H30.78C30.06 133.2 29.52 133.74 29.52 134.46V138.96V144.72V149.22C29.52 149.94 30.06 150.48 30.78 150.48H45.54C46.26 150.48 46.8 149.94 46.8 149.22V144.72Z" fill="#0B111A"/>
<rect x="1" y="1" width="178" height="178" rx="10" stroke="#2864FF" stroke-width="2"/>
</svg>
