<svg width="58" height="58" viewBox="0 0 58 58" fill="none" xmlns="http://www.w3.org/2000/svg">
<rect x="4.5" y="4.5" width="49" height="49" rx="24.5" fill="#2C67FF"/>
<rect x="4.5" y="4.5" width="49" height="49" rx="24.5" fill="#0B111A"/>
<rect x="4.5" y="4.5" width="49" height="49" rx="24.5" stroke="white"/>
<path fill-rule="evenodd" clip-rule="evenodd" d="M12.5109 26.0499L17.7272 20.7125L17.7272 17.3335L10.8633 24.3613C8.37879 26.9058 8.37879 31.032 10.8633 33.5764L17.7253 40.6062L17.7253 37.2271L12.5109 31.8859C10.9382 30.275 10.9382 27.6607 12.5109 26.0499ZM17.2405 37.4246L12.164 32.2246C12.164 32.2246 12.164 32.2246 12.164 32.2246C10.4074 30.4254 10.4074 27.5104 12.164 25.7112L17.2423 20.515L17.2423 18.5238L11.2102 24.7001C11.2102 24.7001 11.2102 24.7001 11.2102 24.7001C8.90965 27.0561 8.90963 30.8817 11.2102 33.2377L17.2405 39.4154L17.2405 37.4246Z" fill="#4D7EFF"/>
<path fill-rule="evenodd" clip-rule="evenodd" d="M46.7928 32.7302L40.7591 38.7183L40.7591 36.8037L45.8319 31.7698C47.5933 30.0221 47.5933 27.1865 45.8319 25.4388L40.7572 20.4085L40.7572 18.4937L46.7929 24.4804C46.7929 24.4805 46.7929 24.4804 46.7929 24.4804C49.0887 26.7581 49.0886 30.4525 46.7928 32.7302ZM47.1362 24.1417C49.6207 26.6066 49.6207 30.6039 47.1362 33.0688L40.2742 39.8789L40.2742 36.6054L45.4886 31.4311C47.0613 29.8706 47.0613 27.338 45.4886 25.7775L40.2723 20.6069L40.2723 17.3335L47.1362 24.1417Z" fill="#4D7EFF"/>
<path d="M19.1818 36.6177L19.1818 39.8789L26.0548 33.0531C28.5271 30.5974 28.5271 26.617 26.0548 24.1593L19.1837 17.3335L19.1837 20.5947L24.4134 25.7909C25.9784 27.3456 25.9784 29.8687 24.4134 31.4234L19.1818 36.6177Z" fill="white"/>
<path d="M38.8177 36.6177L38.8177 39.8789L31.9447 33.0531C29.4724 30.5974 29.4724 26.617 31.9447 24.1593L38.8158 17.3335L38.8158 20.5947L33.5861 25.7909C32.0211 27.3456 32.0211 29.8687 33.5861 31.4234L38.8177 36.6177Z" fill="white"/>
<circle opacity="0.1" cx="29" cy="29" r="28.5" stroke="#0B111A"/>
</svg>
