<svg width="30" height="34" viewBox="0 0 30 34" fill="none" xmlns="http://www.w3.org/2000/svg">
<path d="M29.6842 7.64561C29.6809 7.44325 29.6316 7.24429 29.54 7.06381C29.4484 6.88334 29.3169 6.72607 29.1556 6.60395L23.942 1.39041C23.8192 1.26244 23.672 1.16028 23.5092 1.0899C23.3463 1.01952 23.1711 0.982342 22.9937 0.980537C22.8163 0.978733 22.6403 1.01234 22.4761 1.07939C22.3119 1.14645 22.1627 1.24559 22.0372 1.37103C21.9118 1.49647 21.8126 1.64568 21.7456 1.80991C21.6785 1.97415 21.6449 2.15011 21.6467 2.3275C21.6485 2.50488 21.6857 2.68013 21.7561 2.84297C21.8265 3.0058 21.9286 3.15296 22.0566 3.27582L25.1139 6.33311L12.3326 6.33311C12.156 6.33061 11.9805 6.36326 11.8166 6.42914C11.6526 6.49503 11.5034 6.59284 11.3776 6.7169C11.2517 6.84096 11.1518 6.98879 11.0836 7.1518C11.0154 7.31481 10.9803 7.48975 10.9803 7.66645C10.9803 7.84315 11.0154 8.01809 11.0836 8.1811C11.1518 8.3441 11.2517 8.49193 11.3776 8.61599C11.5034 8.74005 11.6526 8.83787 11.8166 8.90375C11.9805 8.96964 12.156 9.00228 12.3326 8.99978L25.1139 8.99978L22.0566 12.0571C21.9286 12.1799 21.8265 12.3271 21.7561 12.4899C21.6857 12.6528 21.6485 12.828 21.6467 13.0054C21.6449 13.1828 21.6785 13.3588 21.7456 13.523C21.8126 13.6872 21.9118 13.8364 22.0372 13.9619C22.1627 14.0873 22.3119 14.1865 22.4761 14.2535C22.6403 14.3206 22.8163 14.3542 22.9937 14.3524C23.1711 14.3506 23.3463 14.3134 23.5092 14.243C23.672 14.1726 23.8192 14.0705 23.942 13.9425L29.1634 8.72114C29.3279 8.59473 29.4606 8.43169 29.551 8.24498C29.6414 8.05827 29.687 7.85304 29.6842 7.64561ZM29.666 26.3331C29.666 25.9795 29.5255 25.6404 29.2754 25.3903C29.0254 25.1403 28.6863 24.9998 28.3326 24.9998C27.979 24.9998 27.6399 25.1403 27.3898 25.3903C27.1398 25.6404 26.9993 25.9795 26.9993 26.3331C26.9993 26.6867 27.1398 27.0259 27.3898 27.2759C27.6399 27.526 27.979 27.6665 28.3326 27.6665C28.6863 27.6665 29.0254 27.526 29.2754 27.2759C29.5255 27.0259 29.666 26.6867 29.666 26.3331ZM24.3326 26.3331C24.3326 25.9795 24.1922 25.6404 23.9421 25.3903C23.6921 25.1403 23.3529 24.9998 22.9993 24.9998C22.6457 24.9998 22.3065 25.1403 22.0565 25.3903C21.8064 25.6404 21.666 25.9795 21.666 26.3331C21.666 26.6867 21.8064 27.0259 22.0565 27.2759C22.3065 27.526 22.6457 27.6665 22.9993 27.6665C23.3529 27.6665 23.6921 27.526 23.9421 27.2759C24.1922 27.0259 24.3326 26.6867 24.3326 26.3331ZM19.0175 26.3123C19.012 25.9591 18.8666 25.6226 18.6132 25.3765C18.3598 25.1304 18.0191 24.9949 17.666 24.9998L4.88471 24.9998L7.94201 21.9425C8.06973 21.8182 8.17126 21.6696 8.24059 21.5055C8.30992 21.3413 8.34564 21.165 8.34565 20.9868C8.34558 20.7215 8.26641 20.4623 8.11826 20.2423C7.97011 20.0223 7.75971 19.8515 7.51396 19.7517C7.26821 19.6518 6.99828 19.6276 6.73867 19.682C6.47907 19.7364 6.24159 19.867 6.05659 20.0571L0.840442 25.2732C0.677609 25.3973 0.545535 25.5572 0.454457 25.7406C0.363379 25.9239 0.315743 26.1258 0.31524 26.3305C0.314736 26.5353 0.361378 26.7374 0.451554 26.9211C0.541728 27.1049 0.673013 27.2655 0.835233 27.3904C0.837832 27.3922 0.840436 27.3939 0.843045 27.3956L6.05659 32.6092C6.17945 32.7371 6.32661 32.8393 6.48945 32.9097C6.65228 32.9801 6.82753 33.0172 7.00492 33.019C7.18231 33.0208 7.35827 32.9872 7.52251 32.9202C7.68675 32.8531 7.83595 32.754 7.96139 32.6285C8.08683 32.5031 8.18598 32.3539 8.25303 32.1897C8.32008 32.0254 8.35369 31.8495 8.35189 31.6721C8.35008 31.4947 8.3129 31.3194 8.24252 31.1566C8.17214 30.9938 8.06997 30.8466 7.94201 30.7237L4.88471 27.6664L17.666 27.6664C17.8444 27.6689 18.0214 27.6355 18.1867 27.5683C18.3519 27.5011 18.502 27.4014 18.628 27.2751C18.7541 27.1488 18.8535 26.9986 18.9204 26.8332C18.9873 26.6678 19.0203 26.4907 19.0175 26.3123ZM8.33263 7.66645C8.33263 7.31282 8.19216 6.97369 7.94211 6.72364C7.69206 6.47359 7.35292 6.33311 6.9993 6.33311C6.64568 6.33311 6.30654 6.47359 6.05649 6.72364C5.80644 6.97369 5.66597 7.31282 5.66597 7.66645C5.66597 8.02007 5.80644 8.35921 6.05649 8.60926C6.30654 8.8593 6.64568 8.99978 6.9993 8.99978C7.35292 8.99978 7.69206 8.8593 7.94211 8.60926C8.19216 8.35921 8.33263 8.02007 8.33263 7.66645ZM2.9993 7.66645C2.9993 7.31282 2.85882 6.97369 2.60877 6.72364C2.35873 6.47359 2.01959 6.33311 1.66596 6.33311C1.31234 6.33311 0.973202 6.47359 0.723154 6.72364C0.473104 6.97369 0.33263 7.31282 0.33263 7.66645C0.33263 8.02007 0.473104 8.35921 0.723154 8.60926C0.973201 8.8593 1.31234 8.99978 1.66596 8.99978C2.01959 8.99978 2.35873 8.8593 2.60877 8.60926C2.85882 8.35921 2.9993 8.02007 2.9993 7.66645Z" fill="white" fill-opacity="0.6"/>
</svg>
