<svg width="22" height="10" viewBox="0 0 22 10" fill="none" xmlns="http://www.w3.org/2000/svg">
<path d="M5.26109 0.154795C5.14765 0.16167 5.04109 0.211514 4.96374 0.295733L0.446869 4.99995L4.96374 9.70417C5.07203 9.81932 5.23359 9.86745 5.38656 9.82964C5.53953 9.79182 5.66156 9.67495 5.70452 9.5237C5.74921 9.37073 5.70796 9.20745 5.59624 9.09573L2.08828 5.43995H21.12C21.2781 5.44167 21.4259 5.35917 21.5067 5.22167C21.5858 5.08417 21.5858 4.91573 21.5067 4.77823C21.4259 4.64073 21.2781 4.55823 21.12 4.55995H2.08828L5.59624 0.90417C5.72515 0.775264 5.76124 0.581045 5.68562 0.416045C5.61171 0.249327 5.44328 0.146202 5.26109 0.154795Z" fill="black"/>
</svg>
