<svg width="28" height="23" viewBox="0 0 28 23" fill="none" xmlns="http://www.w3.org/2000/svg">
<path d="M14 0C13.8327 0.000349519 13.6681 0.0426562 13.5214 0.123047L2.52144 6.12305C2.39982 6.18223 2.29146 6.26547 2.20292 6.36773C2.11438 6.46999 2.04751 6.58915 2.00635 6.71799C1.96518 6.84684 1.95058 6.9827 1.96343 7.11735C1.97628 7.252 2.01631 7.38265 2.0811 7.50138C2.14589 7.62012 2.23409 7.72448 2.34037 7.80815C2.44665 7.89182 2.5688 7.95306 2.69943 7.98817C2.83005 8.02328 2.96644 8.03152 3.10035 8.01241C3.23426 7.99329 3.36289 7.94721 3.47848 7.87695L3.99996 7.5918V17H3.49996C3.36745 16.9981 3.23589 17.0226 3.11292 17.072C2.98995 17.1214 2.87803 17.1948 2.78366 17.2878C2.68929 17.3809 2.61435 17.4918 2.5632 17.614C2.51206 17.7363 2.48572 17.8675 2.48572 18C2.48572 18.1325 2.51206 18.2637 2.5632 18.386C2.61435 18.5082 2.68929 18.6191 2.78366 18.7122C2.87803 18.8052 2.98995 18.8786 3.11292 18.928C3.23589 18.9774 3.36745 19.0019 3.49996 19H3.99996H24H24.5C24.6325 19.0019 24.764 18.9774 24.887 18.928C25.01 18.8786 25.1219 18.8052 25.2163 18.7122C25.3106 18.6191 25.3856 18.5082 25.4367 18.386C25.4879 18.2637 25.5142 18.1325 25.5142 18C25.5142 17.8675 25.4879 17.7363 25.4367 17.614C25.3856 17.4918 25.3106 17.3809 25.2163 17.2878C25.1219 17.1948 25.01 17.1214 24.887 17.072C24.764 17.0226 24.6325 16.9981 24.5 17H24V7.5918L24.5214 7.87695C24.637 7.94721 24.7657 7.99329 24.8996 8.01241C25.0335 8.03152 25.1699 8.02327 25.3005 7.98817C25.4311 7.95306 25.5533 7.89182 25.6595 7.80815C25.7658 7.72448 25.854 7.62012 25.9188 7.50138C25.9836 7.38264 26.0236 7.252 26.0365 7.11735C26.0493 6.9827 26.0347 6.84684 25.9936 6.71799C25.9524 6.58915 25.8855 6.46999 25.797 6.36773C25.7085 6.26547 25.6001 6.18223 25.4785 6.12305L14.4785 0.123047C14.3318 0.0426562 14.1672 0.000349519 14 0ZM13 5H15V6.61523C16.35 6.91723 17.2528 7.83708 17.2968 9.08008H15.6113C15.5283 8.40408 14.8992 7.95312 14.0332 7.95312C13.1372 7.95312 12.5449 8.36848 12.5449 9.02148C12.5449 9.54948 12.952 9.85341 13.955 10.0664L14.9882 10.2852C16.7092 10.6472 17.4492 11.3907 17.4492 12.7188C17.4492 14.1488 16.532 15.1074 15 15.3984V17H13V15.4023C11.529 15.1263 10.6047 14.2233 10.5507 12.9023H12.2812C12.3642 13.5963 13.0652 14.041 14.0742 14.041C15.0052 14.041 15.664 13.5904 15.664 12.9434C15.664 12.3974 15.2375 12.0834 14.1875 11.8574L13.0722 11.6191C11.5122 11.2931 10.7461 10.4808 10.7461 9.17578C10.7461 7.86278 11.615 6.92714 13 6.61914V5ZM1.49996 21C1.36745 20.9981 1.23589 21.0226 1.11292 21.072C0.989949 21.1214 0.878028 21.1948 0.783658 21.2878C0.689289 21.3809 0.614352 21.4918 0.563205 21.614C0.512057 21.7363 0.485718 21.8675 0.485718 22C0.485718 22.1325 0.512057 22.2637 0.563205 22.386C0.614352 22.5082 0.689289 22.6191 0.783658 22.7122C0.878028 22.8052 0.989949 22.8786 1.11292 22.928C1.23589 22.9774 1.36745 23.0019 1.49996 23H26.5C26.6325 23.0019 26.764 22.9774 26.887 22.928C27.01 22.8786 27.1219 22.8052 27.2163 22.7122C27.3106 22.6191 27.3856 22.5082 27.4367 22.386C27.4879 22.2637 27.5142 22.1325 27.5142 22C27.5142 21.8675 27.4879 21.7363 27.4367 21.614C27.3856 21.4918 27.3106 21.3809 27.2163 21.2878C27.1219 21.1948 27.01 21.1214 26.887 21.072C26.764 21.0226 26.6325 20.9981 26.5 21H1.49996Z" fill="#2864FF"/>
</svg>
