<svg width="16" height="16" viewBox="0 0 16 16" fill="none" xmlns="http://www.w3.org/2000/svg">
<path d="M8 0C3.582 0 0 3.582 0 8C0 12.418 3.582 16 8 16C12.418 16 16 12.418 16 8C16 3.582 12.418 0 8 0ZM8.04667 9.88933C8.79933 9.88933 9.30467 9.53533 9.44467 8.95733H10.972C10.864 10.016 10.0993 10.9607 8.66667 11.1833V12.6667H7.33333V11.1747C5.83067 10.9047 4.82333 9.71067 4.82333 7.99133C4.82333 5.73267 6.38133 5.04067 7.33333 4.83667V3.33333H8.66667V4.82467C9.49733 4.982 10.764 5.488 10.972 7.09333H9.44467C9.282 6.498 8.74267 6.116 8.052 6.116C7.16467 6.116 6.474 6.812 6.474 7.99133C6.47467 9.18733 7.16533 9.88933 8.04667 9.88933Z" fill="#0B111A"/>
</svg>
