<svg width="16" height="22" viewBox="0 0 16 22" fill="none" xmlns="http://www.w3.org/2000/svg">
<path d="M6.23999 0.880859C5.5164 0.880859 4.91999 1.47727 4.91999 2.20086V3.08086H1.46874C1.44296 3.07742 1.4189 3.07398 1.39312 3.07398C1.37249 3.0757 1.35015 3.07742 1.32952 3.08086H0.51999C0.361865 3.07914 0.214053 3.16164 0.133272 3.29914C0.0542089 3.43664 0.0542089 3.60508 0.133272 3.74258C0.214053 3.88008 0.361865 3.96258 0.51999 3.96086H0.95999V19.8009C0.95999 20.5245 1.5564 21.1209 2.27999 21.1209H13.72C14.4436 21.1209 15.04 20.5245 15.04 19.8009V3.96086H15.48C15.6381 3.96258 15.7859 3.88008 15.8667 3.74258C15.9458 3.60508 15.9458 3.43664 15.8667 3.29914C15.7859 3.16164 15.6381 3.07914 15.48 3.08086H14.6739C14.6258 3.07227 14.5776 3.07227 14.5312 3.08086H11.08V2.20086C11.08 1.47727 10.4836 0.880859 9.75999 0.880859H6.23999ZM6.23999 1.76086H9.75999C10.0041 1.76086 10.2 1.9568 10.2 2.20086V3.08086H5.79999V2.20086C5.79999 1.9568 5.99593 1.76086 6.23999 1.76086ZM1.83999 3.96086H5.28608C5.33421 3.96945 5.38233 3.96945 5.42874 3.96086H10.5661C10.6142 3.96945 10.6623 3.96945 10.7087 3.96086H14.16V19.8009C14.16 20.0449 13.9641 20.2409 13.72 20.2409H2.27999C2.03593 20.2409 1.83999 20.0449 1.83999 19.8009V3.96086ZM4.91483 8.7957C4.73608 8.79742 4.57624 8.9057 4.50749 9.0707C4.44046 9.23742 4.47999 9.42648 4.6089 9.55195L7.3778 12.3209L4.6089 15.0898C4.49374 15.1998 4.44733 15.3648 4.48858 15.5177C4.52812 15.6724 4.64843 15.7927 4.80312 15.8323C4.95608 15.8735 5.12108 15.8271 5.23108 15.712L7.99999 12.943L10.7689 15.712C10.8789 15.8271 11.0439 15.8735 11.1969 15.8323C11.3516 15.7927 11.4719 15.6724 11.5114 15.5177C11.5526 15.3648 11.5062 15.1998 11.3911 15.0898L8.62218 12.3209L11.3911 9.55195C11.5217 9.42477 11.5595 9.23227 11.4891 9.06555C11.4186 8.89711 11.2536 8.79055 11.0714 8.7957C10.9562 8.79914 10.848 8.84727 10.7689 8.92977L7.99999 11.6987L5.23108 8.92977C5.14858 8.84383 5.03515 8.79742 4.91483 8.7957Z" fill="#0B111A"/>
</svg>
