<svg width="14" height="12" viewBox="0 0 14 12" fill="none" xmlns="http://www.w3.org/2000/svg">
<path d="M1.12 0.120117C0.504219 0.120117 0 0.624336 0 1.24012C0 1.8559 0.504219 2.36012 1.12 2.36012C1.73578 2.36012 2.24 1.8559 2.24 1.24012C2.24 0.624336 1.73578 0.120117 1.12 0.120117ZM3.36 0.680117V1.80012H14V0.680117H3.36ZM1.12 4.88012C0.504219 4.88012 0 5.38434 0 6.00012C0 6.6159 0.504219 7.12012 1.12 7.12012C1.73578 7.12012 2.24 6.6159 2.24 6.00012C2.24 5.38434 1.73578 4.88012 1.12 4.88012ZM3.36 5.44012V6.56012H14V5.44012H3.36ZM1.12 9.64012C0.504219 9.64012 0 10.1443 0 10.7601C0 11.3759 0.504219 11.8801 1.12 11.8801C1.73578 11.8801 2.24 11.3759 2.24 10.7601C2.24 10.1443 1.73578 9.64012 1.12 9.64012ZM3.36 10.2001V11.3201H14V10.2001H3.36Z" fill="#0B111A"/>
</svg>
