<svg width="18" height="18" viewBox="0 0 18 18" fill="none" xmlns="http://www.w3.org/2000/svg">
<path d="M2.03335 0.93335C1.42615 0.93335 0.93335 1.42615 0.93335 2.03335V4.23335C0.93335 4.84055 1.42615 5.33335 2.03335 5.33335H4.23335C4.84055 5.33335 5.33335 4.84055 5.33335 4.23335V2.03335C5.33335 1.42615 4.84055 0.93335 4.23335 0.93335H2.03335ZM13.7667 0.93335C13.1595 0.93335 12.6667 1.42615 12.6667 2.03335V4.23335C12.6667 4.84055 13.1595 5.33335 13.7667 5.33335H15.9667C16.5739 5.33335 17.0667 4.84055 17.0667 4.23335V2.03335C17.0667 1.42615 16.5739 0.93335 15.9667 0.93335H13.7667ZM7.53335 2.40002C7.33886 2.40002 7.15233 2.47728 7.0148 2.6148C6.87728 2.75233 6.80002 2.93886 6.80002 3.13335C6.80002 3.32784 6.87728 3.51437 7.0148 3.65189C7.15233 3.78942 7.33886 3.86668 7.53335 3.86668C7.72784 3.86668 7.91437 3.78942 8.05189 3.65189C8.18942 3.51437 8.26668 3.32784 8.26668 3.13335C8.26668 2.93886 8.18942 2.75233 8.05189 2.6148C7.91437 2.47728 7.72784 2.40002 7.53335 2.40002ZM10.4667 2.40002C10.2722 2.40002 10.0857 2.47728 9.94814 2.6148C9.81061 2.75233 9.73335 2.93886 9.73335 3.13335C9.73335 3.32784 9.81061 3.51437 9.94814 3.65189C10.0857 3.78942 10.2722 3.86668 10.4667 3.86668C10.6612 3.86668 10.8477 3.78942 10.9852 3.65189C11.1228 3.51437 11.2 3.32784 11.2 3.13335C11.2 2.93886 11.1228 2.75233 10.9852 2.6148C10.8477 2.47728 10.6612 2.40002 10.4667 2.40002ZM3.13335 6.80002C2.93886 6.80002 2.75233 6.87728 2.6148 7.0148C2.47728 7.15233 2.40002 7.33886 2.40002 7.53335C2.40002 7.72784 2.47728 7.91437 2.6148 8.05189C2.75233 8.18942 2.93886 8.26668 3.13335 8.26668C3.32784 8.26668 3.51437 8.18942 3.65189 8.05189C3.78942 7.91437 3.86668 7.72784 3.86668 7.53335C3.86668 7.33886 3.78942 7.15233 3.65189 7.0148C3.51437 6.87728 3.32784 6.80002 3.13335 6.80002ZM14.8667 6.80002C14.6722 6.80002 14.4857 6.87728 14.3481 7.0148C14.2106 7.15233 14.1334 7.33886 14.1334 7.53335C14.1334 7.72784 14.2106 7.91437 14.3481 8.05189C14.4857 8.18942 14.6722 8.26668 14.8667 8.26668C15.0612 8.26668 15.2477 8.18942 15.3852 8.05189C15.5228 7.91437 15.6 7.72784 15.6 7.53335C15.6 7.33886 15.5228 7.15233 15.3852 7.0148C15.2477 6.87728 15.0612 6.80002 14.8667 6.80002ZM3.13335 9.73335C2.93886 9.73335 2.75233 9.81061 2.6148 9.94814C2.47728 10.0857 2.40002 10.2722 2.40002 10.4667C2.40002 10.6612 2.47728 10.8477 2.6148 10.9852C2.75233 11.1228 2.93886 11.2 3.13335 11.2C3.32784 11.2 3.51437 11.1228 3.65189 10.9852C3.78942 10.8477 3.86668 10.6612 3.86668 10.4667C3.86668 10.2722 3.78942 10.0857 3.65189 9.94814C3.51437 9.81061 3.32784 9.73335 3.13335 9.73335ZM14.8667 9.73335C14.6722 9.73335 14.4857 9.81061 14.3481 9.94814C14.2106 10.0857 14.1334 10.2722 14.1334 10.4667C14.1334 10.6612 14.2106 10.8477 14.3481 10.9852C14.4857 11.1228 14.6722 11.2 14.8667 11.2C15.0612 11.2 15.2477 11.1228 15.3852 10.9852C15.5228 10.8477 15.6 10.6612 15.6 10.4667C15.6 10.2722 15.5228 10.0857 15.3852 9.94814C15.2477 9.81061 15.0612 9.73335 14.8667 9.73335ZM2.03335 12.6667C1.42615 12.6667 0.93335 13.1595 0.93335 13.7667V15.9667C0.93335 16.5739 1.42615 17.0667 2.03335 17.0667H4.23335C4.84055 17.0667 5.33335 16.5739 5.33335 15.9667V13.7667C5.33335 13.1595 4.84055 12.6667 4.23335 12.6667H2.03335ZM13.7667 12.6667C13.1595 12.6667 12.6667 13.1595 12.6667 13.7667V15.9667C12.6667 16.5739 13.1595 17.0667 13.7667 17.0667H15.9667C16.5739 17.0667 17.0667 16.5739 17.0667 15.9667V13.7667C17.0667 13.1595 16.5739 12.6667 15.9667 12.6667H13.7667ZM7.53335 14.1334C7.33886 14.1334 7.15233 14.2106 7.0148 14.3481C6.87728 14.4857 6.80002 14.6722 6.80002 14.8667C6.80002 15.0612 6.87728 15.2477 7.0148 15.3852C7.15233 15.5228 7.33886 15.6 7.53335 15.6C7.72784 15.6 7.91437 15.5228 8.05189 15.3852C8.18942 15.2477 8.26668 15.0612 8.26668 14.8667C8.26668 14.6722 8.18942 14.4857 8.05189 14.3481C7.91437 14.2106 7.72784 14.1334 7.53335 14.1334ZM10.4667 14.1334C10.2722 14.1334 10.0857 14.2106 9.94814 14.3481C9.81061 14.4857 9.73335 14.6722 9.73335 14.8667C9.73335 15.0612 9.81061 15.2477 9.94814 15.3852C10.0857 15.5228 10.2722 15.6 10.4667 15.6C10.6612 15.6 10.8477 15.5228 10.9852 15.3852C11.1228 15.2477 11.2 15.0612 11.2 14.8667C11.2 14.6722 11.1228 14.4857 10.9852 14.3481C10.8477 14.2106 10.6612 14.1334 10.4667 14.1334Z" fill="#2864FF"/>
</svg>
