<svg width="30" height="31" viewBox="0 0 30 31" fill="none" xmlns="http://www.w3.org/2000/svg">
<path d="M14.9999 -0.000488281L16.4218 2.84587L1.05201 10.8146C0.737751 10.9776 0.501119 11.2588 0.394165 11.5962C0.28721 11.9337 0.318695 12.2998 0.481693 12.6141C0.644691 12.9283 0.925849 13.165 1.26332 13.2719C1.60078 13.3789 1.96692 13.3474 2.28117 13.1844L17.6171 5.23128L18.9999 7.99951L22.9999 0.655762L14.9999 -0.000488281ZM25.6666 9.33284C24.9306 9.33284 24.3333 9.93018 24.3333 10.6662V30.6662H29.6666V10.6662C29.6666 9.93018 29.0693 9.33284 28.3333 9.33284H25.6666ZM17.6666 13.3328C16.9306 13.3328 16.3333 13.9302 16.3333 14.6662V30.6662H21.6666V14.6662C21.6666 13.9302 21.0693 13.3328 20.3333 13.3328H17.6666ZM9.66659 17.3328C8.93059 17.3328 8.33326 17.9302 8.33326 18.6662V30.6662H13.6666V18.6662C13.6666 17.9302 13.0693 17.3328 12.3333 17.3328H9.66659ZM1.66659 21.3328C0.930589 21.3328 0.333255 21.9302 0.333255 22.6662V30.6662H5.66659V22.6662C5.66659 21.9302 5.06926 21.3328 4.33326 21.3328H1.66659Z" fill="white"/>
</svg>
