<svg width="16" height="16" viewBox="0 0 16 16" fill="none" xmlns="http://www.w3.org/2000/svg">
<path d="M8 -0.000177469C3.58969 -0.000177469 0 3.58951 0 7.99982C0 12.4101 3.58969 15.9998 8 15.9998C12.4103 15.9998 16 12.4101 16 7.99982C16 5.24001 14.5986 2.79992 12.4661 1.3618L13.2305 0.381333L10 0.264145L10.9323 3.33316L11.6406 2.423C13.2849 3.49794 14.4262 5.27263 14.6302 7.33446C14.46 7.34378 14.2999 7.41793 14.1826 7.54168C14.0654 7.66543 14.0001 7.82938 14 7.99982C14.0001 8.17091 14.066 8.3354 14.1841 8.45925C14.3021 8.5831 14.4632 8.65683 14.6341 8.66519C14.3229 11.8215 11.8216 14.3227 8.66537 14.6339C8.65701 14.4631 8.58328 14.3019 8.45943 14.1839C8.33558 14.0659 8.17109 14 8 13.9998C7.82891 14 7.66442 14.0659 7.54057 14.1839C7.41672 14.3019 7.34299 14.4631 7.33464 14.6339C4.17837 14.3227 1.67714 11.8215 1.36589 8.66519C1.53677 8.65683 1.6979 8.5831 1.81593 8.45925C1.93397 8.3354 1.99987 8.17091 2 7.99982C1.99987 7.82873 1.93397 7.66425 1.81593 7.54039C1.6979 7.41654 1.53677 7.34281 1.36589 7.33446C1.69875 3.95912 4.53519 1.33316 8 1.33316C8.08834 1.33441 8.17605 1.31808 8.25803 1.28514C8.34001 1.2522 8.41462 1.20329 8.47754 1.14126C8.54045 1.07923 8.59041 1.00532 8.6245 0.923813C8.6586 0.842308 8.67616 0.754839 8.67616 0.666489C8.67616 0.578139 8.6586 0.49067 8.6245 0.409165C8.59041 0.327661 8.54045 0.253745 8.47754 0.191716C8.41462 0.129686 8.34001 0.080779 8.25803 0.0478365C8.17605 0.014894 8.08834 -0.00142683 8 -0.000177469ZM7.98958 3.32404C7.813 3.3268 7.64473 3.39951 7.52169 3.5262C7.39866 3.6529 7.33092 3.82323 7.33333 3.99982V7.66649L4.93359 9.46597C4.79201 9.57199 4.69834 9.72991 4.67318 9.90499C4.64803 10.0801 4.69346 10.258 4.79948 10.3996C4.9055 10.5411 5.06342 10.6348 5.2385 10.66C5.41358 10.6851 5.59149 10.6397 5.73307 10.5337L8.39974 8.53368C8.48265 8.47155 8.54994 8.39095 8.59628 8.29829C8.64261 8.20562 8.66671 8.10343 8.66667 7.99982V3.99982C8.66789 3.91063 8.6512 3.8221 8.61759 3.73947C8.58398 3.65684 8.53413 3.5818 8.47099 3.51879C8.40786 3.45577 8.33272 3.40607 8.25003 3.37262C8.16734 3.33917 8.07877 3.32265 7.98958 3.32404Z" fill="#0B111A"/>
</svg>
