<svg width="22" height="22" viewBox="0 0 22 22" fill="none" xmlns="http://www.w3.org/2000/svg">
<g clip-path="url(#clip0)">
<path d="M16.72 0V1.76H19.0025L14.96 5.8025L13.8187 4.66125L13.2 4.02875L12.5812 4.66125L7.91998 9.3225L6.77873 8.18125L6.15998 7.54875L5.54123 8.18125L0.26123 13.4613L1.49873 14.6987L6.15998 10.0375L7.30123 11.1788L7.91998 11.8112L8.53873 11.1788L13.2 6.5175L14.3412 7.65875L14.96 8.29125L15.5787 7.65875L20.24 2.9975V5.28H22V0H16.72ZM19.36 6.6V22H21.12V6.6H19.36ZM13.2 8.8V22H14.96V8.8H13.2ZM16.28 8.8V22H18.04V8.8H16.28ZM10.12 10.56V22H11.88V10.56H10.12ZM7.03998 13.2V22H8.79998V13.2H7.03998ZM3.95998 13.64V22H5.71998V13.64H3.95998ZM0.87998 16.72V22H2.63998V16.72H0.87998Z" fill="white"/>
</g>
<defs>
<clipPath id="clip0">
<rect width="22" height="22" fill="white"/>
</clipPath>
</defs>
</svg>
