<svg width="40" height="40" viewBox="0 0 40 40" fill="none" xmlns="http://www.w3.org/2000/svg">
<path d="M37.6 17.6002H27.2V9.6002C27.2 8.27832 26.1219 7.2002 24.8 7.2002H15.2C13.8781 7.2002 12.8 8.27832 12.8 9.6002V14.4002H2.4C1.07812 14.4002 0 15.4783 0 16.8002V31.8408C0 32.2814 0.359375 32.6408 0.8 32.6408H39.2C39.6437 32.6408 40 32.2814 40 31.8408V20.0002C40 18.6783 38.9219 17.6002 37.6 17.6002ZM9.6 24.8002H5.6C5.6 24.4814 5.6 24.2408 5.68125 24.0002C5.75938 23.7596 5.84062 23.5189 5.91875 23.2814C6 23.0408 6.15938 22.8002 6.4 22.6408C6.55938 22.4002 6.8 22.2408 7.04063 22.0002L7.6 21.5189C7.75938 21.3596 7.84063 21.2783 7.91875 21.2002C8 21.1221 8.08125 20.9596 8.15938 20.8814C8.24062 20.8002 8.24063 20.6408 8.24063 20.5596C8.24063 20.4002 8.24063 20.3221 8.24063 20.0814C8.24063 19.5221 8 19.2814 7.6 19.2814C7.44062 19.2814 7.28125 19.2814 7.2 19.3596C7.11875 19.4408 7.04062 19.5221 6.95937 19.6002C6.88125 19.6814 6.88125 19.8408 6.88125 20.0002C6.88125 20.1596 6.88125 20.3221 6.88125 20.4814H5.6V20.2408C5.6 19.6002 5.75938 19.2002 6.08125 18.8814C6.4 18.5596 6.88125 18.4002 7.6 18.4002C8.24063 18.4002 8.71875 18.5596 9.04063 18.8814C9.35938 19.2002 9.51875 19.6002 9.51875 20.1596C9.51875 20.4002 9.51875 20.5596 9.44063 20.7221C9.44063 20.8814 9.35938 21.0408 9.28125 21.2002C9.2 21.3627 9.11875 21.5221 8.95938 21.6814C8.8 21.8408 8.64062 22.0002 8.48125 22.1627L7.75938 22.8814C7.6 23.0408 7.44063 23.2002 7.28125 23.3596C7.28125 23.5189 7.2 23.6814 7.2 23.7596H9.6V24.8002ZM20.8 17.6002H19.5188V13.1189H18.2406V12.2408H18.3188C18.7188 12.2408 19.1187 12.1596 19.3594 12.0002C19.6 11.8408 19.7594 11.6002 19.8406 11.2002H20.8V17.6002ZM34.4 26.8814C34.3188 27.1221 34.2406 27.2814 34.0812 27.5221C33.9188 27.6814 33.6813 27.8408 33.4406 28.0002C33.2 28.0814 32.8 28.1596 32.4 28.1596C31.7594 28.1596 31.2813 28.0002 31.0406 27.6783C30.7219 27.3596 30.5594 26.8783 30.5594 26.2408H31.8406C31.6813 26.4783 31.7594 26.7189 31.8406 26.9596C31.9219 27.1189 32.1594 27.2783 32.4 27.2783C32.5594 27.2783 32.7188 27.2783 32.8 27.1971C32.8813 27.1189 32.9594 27.0377 33.0406 26.9596C33.1188 26.8814 33.1188 26.7189 33.1188 26.6408C33.1188 26.4814 33.1188 26.4002 33.1188 26.2408C33.1188 26.0814 33.1188 25.9221 33.1188 25.8408C33.1188 25.6814 33.0406 25.6002 32.9594 25.5221C32.8813 25.4408 32.8 25.3596 32.7188 25.2814C32.6406 25.2002 32.4781 25.2002 32.3188 25.2002H31.9188V24.3189H32.3188C32.4781 24.3189 32.5594 24.3189 32.6406 24.2408C32.7188 24.1596 32.8 24.0783 32.8781 24.0002C32.9594 23.9189 32.9594 23.8408 33.0406 23.6783C33.0406 23.5189 33.1188 23.4408 33.1188 23.2783C33.1188 22.9596 33.0406 22.7189 32.9594 22.6408C32.8781 22.4783 32.7188 22.4783 32.4781 22.4783C32.3188 22.4783 32.2406 22.4783 32.1594 22.5596C32.0781 22.6408 32 22.7189 31.9188 22.8002C31.8406 22.8814 31.8406 23.0408 31.8406 23.1189C31.8406 23.2783 31.8406 23.3596 31.8406 23.5189H30.6406C30.6406 22.8783 30.8 22.4002 31.1219 22.0783C31.4406 21.7596 31.9188 21.6002 32.4813 21.6002C33.0406 21.6002 33.5219 21.7596 33.8406 22.0002C34.1594 22.2408 34.3219 22.6408 34.3219 23.2814C34.3219 23.6814 34.2406 24.0002 34.0812 24.2408C33.9188 24.4814 33.6813 24.6408 33.3594 24.7189C33.7594 24.8002 34.0781 24.9596 34.2406 25.2002C34.4 25.4408 34.4813 25.8408 34.4813 26.2408C34.4813 26.4814 34.4813 26.6408 34.4 26.8814Z" fill="white" fill-opacity="0.6"/>
</svg>
