<svg width="50" height="50" viewBox="0 0 50 50" fill="none" xmlns="http://www.w3.org/2000/svg">
<g opacity="0.5">
<path d="M25 3C18.3633 3 13 8.36328 13 15V20H9C7.35547 20 6 21.3555 6 23V47C6 48.6445 7.35547 50 9 50H41C42.6445 50 44 48.6445 44 47V23C44 21.3555 42.6445 20 41 20H37V15C37 8.36328 31.6367 3 25 3ZM25 5C30.5664 5 35 9.43359 35 15V20H15V15C15 9.43359 19.4336 5 25 5ZM9 22H41C41.5547 22 42 22.4453 42 23V47C42 47.5547 41.5547 48 41 48H9C8.44531 48 8 47.5547 8 47V23C8 22.4453 8.44531 22 9 22ZM25 30C23.3008 30 22 31.3008 22 33C22 33.8984 22.3984 34.6875 23 35.1875V38C23 39.1016 23.8984 40 25 40C26.1016 40 27 39.1016 27 38V35.1875C27.6016 34.6875 28 33.8984 28 33C28 31.3008 26.6992 30 25 30Z" fill="black"/>
</g>
</svg>
