<svg width="18" height="15" viewBox="0 0 18 15" fill="none" xmlns="http://www.w3.org/2000/svg">
<path d="M7.53328 0.666672C7.39197 0.666659 7.25366 0.707476 7.13499 0.784214C7.01633 0.860953 6.92237 0.970342 6.8644 1.09922L6.86297 1.10352C6.84486 1.14414 6.83047 1.18633 6.82 1.22956L6.10529 3.36511V3.36654C6.07984 3.44176 6.06678 3.5206 6.06662 3.6C6.06662 3.7945 6.14388 3.98102 6.28141 4.11855C6.41893 4.25608 6.60546 4.33334 6.79995 4.33334H8.99995H11.2C11.3944 4.33334 11.581 4.25608 11.7185 4.11855C11.856 3.98102 11.9333 3.7945 11.9333 3.6C11.9327 3.52052 11.9191 3.44167 11.8932 3.36654L11.8946 3.36511L11.1785 1.22813C11.1689 1.18796 11.156 1.14867 11.1398 1.11068L11.1355 1.09922L11.1341 1.09779C11.076 0.9694 10.9822 0.860458 10.8638 0.784001C10.7454 0.707544 10.6075 0.66681 10.4666 0.666672H8.99995H7.53328ZM4.59995 5.8C4.45864 5.79999 4.32033 5.84081 4.20166 5.91755C4.083 5.99428 3.98903 6.10367 3.93107 6.23256L3.92964 6.23685C3.91152 6.27748 3.89714 6.31966 3.88667 6.3629L3.17196 8.49844V8.49987C3.14651 8.57509 3.13345 8.65394 3.13328 8.73334C3.13328 8.92783 3.21055 9.11436 3.34807 9.25188C3.4856 9.38941 3.67213 9.46667 3.86662 9.46667H6.06662H8.26662C8.46111 9.46667 8.64764 9.38941 8.78516 9.25188C8.92269 9.11436 8.99995 8.92783 8.99995 8.73334C8.99932 8.65386 8.98578 8.57501 8.95985 8.49987L8.96128 8.49844L8.24513 6.36146C8.23557 6.32129 8.22264 6.28201 8.20646 6.24401L8.20216 6.23256L8.20073 6.23112C8.14266 6.10273 8.04883 5.99379 7.93046 5.91733C7.81209 5.84088 7.6742 5.80014 7.53328 5.8H6.06662H4.59995ZM8.99995 8.73334C8.99995 8.92783 9.07721 9.11436 9.21474 9.25188C9.35227 9.38941 9.53879 9.46667 9.73328 9.46667H11.9333H14.1333C14.3278 9.46667 14.5143 9.38941 14.6518 9.25188C14.7894 9.11436 14.8666 8.92783 14.8666 8.73334C14.866 8.65386 14.8524 8.57501 14.8265 8.49987L14.8279 8.49844L14.1118 6.36146C14.1022 6.32129 14.0893 6.28201 14.0731 6.24401L14.0688 6.23256L14.0674 6.23112C14.0093 6.10273 13.9155 5.99379 13.7971 5.91733C13.6788 5.84088 13.5409 5.80014 13.4 5.8H11.9333H10.4666C10.3253 5.79999 10.187 5.84081 10.0683 5.91755C9.94966 5.99428 9.8557 6.10367 9.79774 6.23256L9.7963 6.23685C9.77819 6.27748 9.76381 6.31966 9.75334 6.3629L9.03862 8.49844V8.49987C9.01318 8.57509 9.00012 8.65394 8.99995 8.73334ZM1.66662 10.9333C1.5253 10.9333 1.38699 10.9741 1.26833 11.0509C1.14966 11.1276 1.0557 11.237 0.997738 11.3659L0.996305 11.3702C0.97819 11.4108 0.963807 11.453 0.953337 11.4962L0.238623 13.6318V13.6332C0.213178 13.7084 0.200118 13.7873 0.199951 13.8667C0.199951 14.0612 0.277213 14.2477 0.414739 14.3852C0.552266 14.5227 0.738792 14.6 0.933284 14.6H3.13328H5.33328C5.52778 14.6 5.7143 14.5227 5.85183 14.3852C5.98936 14.2477 6.06662 14.0612 6.06662 13.8667C6.06599 13.7872 6.05244 13.7083 6.02651 13.6332L6.02795 13.6318L5.3118 11.4948C5.30224 11.4546 5.2893 11.4153 5.27313 11.3773L5.26883 11.3659L5.2674 11.3645C5.20933 11.2361 5.11549 11.1271 4.99712 11.0507C4.87876 10.9742 4.74087 10.9335 4.59995 10.9333H3.13328H1.66662ZM6.06662 13.8667C6.06662 14.0612 6.14388 14.2477 6.28141 14.3852C6.41893 14.5227 6.60546 14.6 6.79995 14.6H8.99995H11.2C11.3944 14.6 11.581 14.5227 11.7185 14.3852C11.856 14.2477 11.9333 14.0612 11.9333 13.8667C11.9327 13.7872 11.9191 13.7083 11.8932 13.6332L11.8946 13.6318L11.1785 11.4948C11.1689 11.4546 11.156 11.4153 11.1398 11.3773L11.1355 11.3659L11.1341 11.3645C11.076 11.2361 10.9822 11.1271 10.8638 11.0507C10.7454 10.9742 10.6075 10.9335 10.4666 10.9333H8.99995H7.53328C7.39197 10.9333 7.25366 10.9741 7.13499 11.0509C7.01633 11.1276 6.92237 11.237 6.8644 11.3659L6.86297 11.3702C6.84486 11.4108 6.83047 11.453 6.82 11.4962L6.10529 13.6318V13.6332C6.07984 13.7084 6.06678 13.7873 6.06662 13.8667ZM11.9333 13.8667C11.9333 14.0612 12.0105 14.2477 12.1481 14.3852C12.2856 14.5227 12.4721 14.6 12.6666 14.6H14.8666H17.0666C17.2611 14.6 17.4476 14.5227 17.5852 14.3852C17.7227 14.2477 17.7999 14.0612 17.7999 13.8667C17.7993 13.7872 17.7858 13.7083 17.7598 13.6332L17.7613 13.6318L17.0451 11.4948C17.0356 11.4546 17.0226 11.4153 17.0065 11.3773L17.0022 11.3659L17.0007 11.3645C16.9427 11.2361 16.8488 11.1271 16.7305 11.0507C16.6121 10.9742 16.4742 10.9335 16.3333 10.9333H14.8666H13.4C13.2586 10.9333 13.1203 10.9741 13.0017 11.0509C12.883 11.1276 12.789 11.237 12.7311 11.3659L12.7296 11.3702C12.7115 11.4108 12.6971 11.453 12.6867 11.4962L11.972 13.6318V13.6332C11.9465 13.7084 11.9334 13.7873 11.9333 13.8667Z" fill="#2864FF"/>
</svg>
