<svg width="36" height="32" viewBox="0 0 36 32" fill="none" xmlns="http://www.w3.org/2000/svg">
<path d="M7.33341 0.000133343C7.15673 -0.00236539 6.98131 0.0302764 6.81736 0.0961614C6.6534 0.162046 6.50417 0.259861 6.37835 0.38392C6.25252 0.507979 6.1526 0.655809 6.08441 0.818819C6.01621 0.981829 5.98109 1.15677 5.98109 1.33347C5.98109 1.51017 6.01621 1.6851 6.08441 1.84811C6.1526 2.01112 6.25252 2.15895 6.37835 2.28301C6.50417 2.40707 6.6534 2.50489 6.81736 2.57077C6.98131 2.63666 7.15673 2.6693 7.33341 2.6668V5.83086C6.74636 5.53084 6.08804 5.33347 5.33341 5.33347C2.77183 5.33347 0.666748 7.43855 0.666748 10.0001C0.666748 11.8017 1.84166 13.2026 3.23446 14.3517C4.62725 15.5008 6.36984 16.4677 8.09383 17.2866C9.62242 18.0127 11.0982 18.5913 12.3178 19.0392C13.9358 21.234 15.3334 22.6668 15.3334 22.6668H18.0001H20.6667C20.6667 22.6668 22.0643 21.234 23.6824 19.0392C24.902 18.5913 26.3777 18.0127 27.9063 17.2866C29.6303 16.4677 31.3729 15.5008 32.7657 14.3517C34.1585 13.2026 35.3334 11.8017 35.3334 10.0001C35.3334 7.43855 33.2283 5.33347 30.6667 5.33347C29.9121 5.33347 29.2538 5.53084 28.6667 5.83086V2.6668C28.8434 2.6693 29.0188 2.63666 29.1828 2.57077C29.3468 2.50489 29.496 2.40707 29.6218 2.28301C29.7476 2.15895 29.8476 2.01112 29.9158 1.84811C29.984 1.6851 30.0191 1.51017 30.0191 1.33347C30.0191 1.15677 29.984 0.981829 29.9158 0.818819C29.8476 0.655809 29.7476 0.507979 29.6218 0.38392C29.496 0.259861 29.3468 0.162046 29.1828 0.0961614C29.0188 0.0302764 28.8434 -0.00236539 28.6667 0.000133343H7.33341ZM5.33341 8.00013C6.28897 8.00013 7.10874 8.83769 7.75529 9.98711C7.76621 10.0065 7.77321 10.025 7.78394 10.0444C8.22722 11.8291 8.95617 13.555 9.80477 15.1277C9.61328 15.0406 9.43158 14.9715 9.23966 14.8803C7.63032 14.1159 6.03958 13.2079 4.93237 12.2944C3.82517 11.381 3.33341 10.5319 3.33341 10.0001C3.33341 8.87905 4.21233 8.00013 5.33341 8.00013ZM30.6667 8.00013C31.7878 8.00013 32.6667 8.87905 32.6667 10.0001C32.6667 10.5319 32.175 11.381 31.0678 12.2944C29.9606 13.2079 28.3698 14.1159 26.7605 14.8803C26.5686 14.9715 26.3869 15.0406 26.1954 15.1277C27.044 13.555 27.7729 11.8291 28.2162 10.0444C28.227 10.025 28.2339 10.0065 28.2449 9.98711C28.8914 8.83769 29.7112 8.00013 30.6667 8.00013ZM14.0001 25.3335C12.5267 25.3335 11.3334 26.5268 11.3334 28.0001V29.3335C11.1567 29.331 10.9813 29.3636 10.8174 29.4295C10.6534 29.4954 10.5042 29.5932 10.3783 29.7173C10.2525 29.8413 10.1526 29.9891 10.0844 30.1522C10.0162 30.3152 9.98109 30.4901 9.98109 30.6668C9.98109 30.8435 10.0162 31.0184 10.0844 31.1814C10.1526 31.3445 10.2525 31.4923 10.3783 31.6163C10.5042 31.7404 10.6534 31.8382 10.8174 31.9041C10.9813 31.97 11.1567 32.0026 11.3334 32.0001H24.6667C24.8434 32.0026 25.0188 31.97 25.1828 31.9041C25.3468 31.8382 25.496 31.7404 25.6218 31.6163C25.7476 31.4923 25.8476 31.3445 25.9158 31.1814C25.984 31.0184 26.0191 30.8435 26.0191 30.6668C26.0191 30.4901 25.984 30.3152 25.9158 30.1522C25.8476 29.9891 25.7476 29.8413 25.6218 29.7173C25.496 29.5932 25.3468 29.4954 25.1828 29.4295C25.0188 29.3636 24.8434 29.331 24.6667 29.3335V28.0001C24.6667 26.5268 23.4734 25.3335 22.0001 25.3335H14.0001Z" fill="white" fill-opacity="0.6"/>
</svg>
