<svg width="14" height="14" viewBox="0 0 14 14" fill="none" xmlns="http://www.w3.org/2000/svg">
<path d="M7 1.40002C5.61465 1.40002 4.34132 1.90563 3.36328 2.74169C3.31426 2.78072 3.2736 2.82922 3.24372 2.8843C3.21384 2.93937 3.19536 2.99991 3.18938 3.06228C3.1834 3.12465 3.19004 3.18759 3.20891 3.24735C3.22777 3.3071 3.25848 3.36244 3.29919 3.41007C3.3399 3.4577 3.38979 3.49665 3.44588 3.52459C3.50197 3.55252 3.56311 3.56888 3.62565 3.57268C3.6882 3.57648 3.75087 3.56765 3.80992 3.54671C3.86898 3.52577 3.92322 3.49316 3.9694 3.45081C4.78523 2.7534 5.84108 2.33336 7 2.33336C9.42506 2.33336 11.4105 4.17106 11.6439 6.53336H10.2667L12.1333 9.33336L14 6.53336H12.5763C12.3377 3.66413 9.92966 1.40002 7 1.40002ZM1.86667 4.66669L0 7.46669H1.4237C1.6623 10.3359 4.07034 12.6 7 12.6C8.38535 12.6 9.65868 12.0944 10.6367 11.2584C10.6857 11.2193 10.7264 11.1708 10.7563 11.1158C10.7862 11.0607 10.8046 11.0001 10.8106 10.9378C10.8166 10.8754 10.81 10.8125 10.7911 10.7527C10.7722 10.6929 10.7415 10.6376 10.7008 10.59C10.6601 10.5423 10.6102 10.5034 10.5541 10.4755C10.498 10.4475 10.4369 10.4312 10.3744 10.4274C10.3118 10.4236 10.2491 10.4324 10.1901 10.4533C10.131 10.4743 10.0768 10.5069 10.0306 10.5492C9.21477 11.2466 8.15892 11.6667 7 11.6667C4.57494 11.6667 2.58954 9.82899 2.35612 7.46669H3.73333L1.86667 4.66669Z" fill="white"/>
</svg>
