<svg width="20" height="19" viewBox="0 0 20 19" fill="none" xmlns="http://www.w3.org/2000/svg">
<path d="M3.8881 0.403069C3.60944 0.375936 3.3865 0.522591 3.24644 0.739658C3.10637 0.956725 3.0912 1.23197 3.20633 1.46297L3.53003 2.11609C1.50164 3.72761 0.199951 6.2126 0.199951 8.99968C0.199951 9.74831 0.303938 10.4664 0.474951 11.1481C0.49625 11.2437 0.536483 11.3341 0.593276 11.4139C0.650069 11.4937 0.722271 11.5613 0.805622 11.6128C0.888973 11.6642 0.981784 11.6984 1.07858 11.7134C1.17537 11.7284 1.27419 11.7238 1.36919 11.7C1.4642 11.6762 1.55347 11.6336 1.63174 11.5747C1.71001 11.5158 1.77569 11.4418 1.8249 11.3572C1.87412 11.2725 1.90587 11.1788 1.91829 11.0816C1.93071 10.9845 1.92355 10.8858 1.89722 10.7915C1.75143 10.2104 1.66662 9.61359 1.66662 8.99968C1.66662 6.78277 2.65175 4.80774 4.20177 3.46674L4.40086 3.86778C4.5138 4.09512 4.73584 4.24892 4.9881 4.27312C5.01157 4.27532 5.03412 4.27599 5.05685 4.27599C5.28565 4.27599 5.50189 4.16787 5.64123 3.9838L7.32847 1.75802C7.42844 1.65647 7.49666 1.52799 7.5248 1.38829C7.55293 1.24859 7.53975 1.10372 7.48688 0.971388C7.43401 0.839055 7.34373 0.724992 7.22708 0.643141C7.11043 0.561289 6.97246 0.515195 6.83003 0.510491C6.8286 0.51001 6.82717 0.509532 6.82573 0.509059L3.8881 0.403069ZM11.1828 0.509059C11.006 0.511401 10.836 0.577531 10.7041 0.695272C10.5722 0.813013 10.4873 0.974439 10.4649 1.14983C10.4426 1.32522 10.4844 1.50277 10.5826 1.64979C10.6808 1.79681 10.8289 1.90341 10.9994 1.94994C13.6396 2.69766 15.6733 4.8802 16.1972 7.61036L15.7432 7.58172C15.4777 7.56632 15.2467 7.68359 15.1001 7.88966C14.9534 8.09719 14.9245 8.36471 15.0227 8.59864L16.0898 11.1324C16.1189 11.2774 16.1912 11.4103 16.2972 11.5136C16.4032 11.6168 16.5379 11.6856 16.6837 11.7108C16.8295 11.7361 16.9795 11.7166 17.1141 11.6551C17.2486 11.5935 17.3614 11.4927 17.4376 11.3658C17.4385 11.3644 17.4395 11.363 17.4404 11.3615L17.4476 11.3486L18.9988 8.87078C19.1359 8.65151 19.1484 8.377 19.0303 8.14747C18.9122 7.91794 18.6811 7.76686 18.423 7.75073L17.6997 7.70489C17.1902 4.26541 14.6893 1.47057 11.4005 0.539137C11.3298 0.518233 11.2564 0.508093 11.1828 0.509059ZM3.36532 14.0428C3.23974 14.0449 3.11683 14.0793 3.00834 14.1426C2.89986 14.2059 2.80945 14.2959 2.74576 14.4042C2.68208 14.5124 2.64726 14.6352 2.64464 14.7608C2.64202 14.8864 2.67169 15.0105 2.73081 15.1213C2.73201 15.1236 2.73245 15.1261 2.73368 15.1285L4.11011 17.7238C4.23184 17.9518 4.46426 18.1002 4.72313 18.1134C4.73486 18.1141 4.74647 18.1134 4.75894 18.1134C5.00387 18.1134 5.23412 17.9914 5.37052 17.7868L5.773 17.1795C6.77315 17.5758 7.86057 17.7997 8.99995 17.7997C11.3805 17.7997 13.5443 16.8464 15.1273 15.3089C15.1979 15.2422 15.2546 15.1622 15.2941 15.0734C15.3335 14.9846 15.3549 14.8889 15.357 14.7918C15.3592 14.6946 15.342 14.5981 15.3065 14.5076C15.271 14.4172 15.2179 14.3347 15.1502 14.265C15.0826 14.1953 15.0018 14.1397 14.9124 14.1014C14.8231 14.0632 14.7271 14.0431 14.63 14.0423C14.5328 14.0415 14.4365 14.0599 14.3466 14.0967C14.2566 14.1334 14.1749 14.1876 14.1061 14.2562C12.7836 15.5406 10.9901 16.333 8.99995 16.333C8.159 16.333 7.35664 16.1851 6.60659 15.9248L6.85581 15.5496C6.99588 15.3376 7.018 15.0687 6.91167 14.8377C6.80607 14.6074 6.58816 14.4481 6.33589 14.4166L3.58159 14.0714C3.57968 14.0709 3.57777 14.0705 3.57586 14.07C3.50737 14.0508 3.43645 14.0416 3.36532 14.0428Z" fill="#2864FF"/>
</svg>
