<svg width="20" height="20" viewBox="0 0 20 20" fill="none" xmlns="http://www.w3.org/2000/svg">
<path d="M8.24001 0.320312C4.1047 0.320312 0.76001 3.665 0.76001 7.80031C0.76001 11.9356 4.1047 15.2803 8.24001 15.2803C9.71642 15.2803 11.0828 14.8472 12.2413 14.1116L17.645 19.5153L19.515 17.6453L14.18 12.3241C15.1391 11.0659 15.72 9.50703 15.72 7.80031C15.72 3.665 12.3753 0.320312 8.24001 0.320312ZM8.24001 2.08031C11.4077 2.08031 13.96 4.63266 13.96 7.80031C13.96 10.968 11.4077 13.5203 8.24001 13.5203C5.07235 13.5203 2.52001 10.968 2.52001 7.80031C2.52001 4.63266 5.07235 2.08031 8.24001 2.08031Z" fill="black"/>
</svg>
