<svg width="104" height="104" viewBox="0 0 104 104" fill="none" xmlns="http://www.w3.org/2000/svg">
    <path opacity="0.5" d="M12.2244 23.3775C19.5673 13.1474 30.3043 6.48048 41.9714 4.03687" stroke="white" stroke-width="5"/>
    <path d="M9.56483 27.5C4.06348 37.0286 1.92918 48.1315 3.50565 59.0207C5.0821 69.9099 10.2776 79.9516 18.2554 87.5288C26.2332 95.106 36.529 99.7776 47.4849 100.791C58.4408 101.805 69.4191 99.1023 78.6519 93.1178C87.8847 87.1333 94.8347 78.2155 98.3826 67.8005C101.931 57.3855 101.87 46.0796 98.2105 35.7032C94.5512 25.3269 87.506 16.4841 78.2096 10.5989C68.9132 4.71366 57.9066 2.12851 46.9622 3.25974" stroke="white" stroke-width="5"/>
</svg>
