<svg width="20" height="23" viewBox="0 0 20 23" fill="none" xmlns="http://www.w3.org/2000/svg">
<path d="M9.99989 0.598633C4.74493 0.598633 0.466553 4.87701 0.466553 10.132V13.0197V13.5986C0.466553 14.5563 1.24222 15.332 2.19989 15.332H3.93322V10.9986C3.93322 10.0584 3.18421 9.29791 2.25067 9.27038C2.67807 5.36051 5.97337 2.33197 9.99989 2.33197C14.0264 2.33197 17.3217 5.36051 17.7491 9.27038C16.8156 9.29791 16.0666 10.0584 16.0666 10.9986V15.332H17.7999C18.7576 15.332 19.5332 14.5563 19.5332 13.5986V10.9986V10.132C19.5332 4.87701 15.2548 0.598633 9.99989 0.598633ZM16.0666 17.0653V17.932C16.0666 18.8997 15.301 19.6653 14.3332 19.6653H11.4979C11.3461 19.4023 11.1277 19.1837 10.8648 19.0316C10.6019 18.8795 10.3036 18.7992 9.99989 18.7986C9.54018 18.7986 9.0993 18.9813 8.77423 19.3063C8.44917 19.6314 8.26655 20.0723 8.26655 20.532C8.26655 20.9917 8.44917 21.4326 8.77423 21.7576C9.0993 22.0827 9.54018 22.2653 9.99989 22.2653C10.3039 22.2651 10.6025 22.1849 10.8658 22.0327C11.129 21.8806 11.3476 21.6619 11.4996 21.3986H14.3332C16.2376 21.3986 17.7999 19.8363 17.7999 17.932V17.0653H16.0666Z" fill="white" fill-opacity="0.6"/>
</svg>
