<svg width="25" height="24" viewBox="0 0 25 24" fill="none" xmlns="http://www.w3.org/2000/svg">
<path d="M12.9983 0C6.37125 0 0.998255 5.373 0.998255 12C0.998255 18.627 6.37125 24 12.9983 24C19.6253 24 24.9983 18.627 24.9983 12C24.9983 5.373 19.6253 0 12.9983 0ZM5.99825 19.141C7.16525 15.641 10.6653 17.007 11.2483 15.111V13.847C10.9863 13.706 10.2353 12.738 10.1563 11.982C9.94925 11.964 9.62525 11.759 9.52925 10.948C9.47825 10.513 9.68225 10.268 9.80525 10.191C9.80525 10.191 9.49725 9.489 9.49725 8.792C9.49825 6.72 10.5243 5 12.9983 5C14.3343 5 14.7483 5.947 14.7483 5.947C15.9423 5.947 16.4983 7.256 16.4983 8.791C16.4983 9.556 16.1903 10.19 16.1903 10.19C16.3143 10.267 16.5183 10.512 16.4673 10.947C16.3713 11.758 16.0473 11.963 15.8403 11.981C15.7613 12.737 15.0113 13.705 14.7483 13.846V15.11C15.3313 17.007 18.8313 15.641 19.9983 19.141C19.9983 19.141 17.3803 22 12.9983 22C8.59125 22 5.99825 19.141 5.99825 19.141Z" fill="white"/>
</svg>
