<svg width="44" height="44" viewBox="0 0 44 44" fill="none" xmlns="http://www.w3.org/2000/svg">
<path d="M4.26227 5.28003C2.87695 5.28003 1.75977 6.4419 1.75977 7.82378V37.84C1.75977 38.3247 2.15508 38.72 2.63977 38.72H41.3598C41.8445 38.72 42.2398 38.3247 42.2398 37.84V7.82378C42.2398 6.4419 41.1226 5.28003 39.7373 5.28003H4.26227ZM4.26227 7.04003H39.7373C40.1463 7.04003 40.4798 7.37003 40.4798 7.82378V15.84H3.51977V7.82378C3.51977 7.37003 3.8532 7.04003 4.26227 7.04003ZM16.7198 8.80003V14.08H37.8398V8.80003H16.7198ZM7.03977 9.68003C6.06695 9.68003 5.27977 10.4672 5.27977 11.44C5.27977 12.4128 6.06695 13.2 7.03977 13.2C8.01258 13.2 8.79977 12.4128 8.79977 11.44C8.79977 10.4672 8.01258 9.68003 7.03977 9.68003ZM12.3198 9.68003C11.347 9.68003 10.5598 10.4672 10.5598 11.44C10.5598 12.4128 11.347 13.2 12.3198 13.2C13.2926 13.2 14.0798 12.4128 14.0798 11.44C14.0798 10.4672 13.2926 9.68003 12.3198 9.68003ZM18.4798 10.56H36.0798V12.32H18.4798V10.56ZM3.51977 17.6H40.4798V36.96H3.51977V17.6ZM6.15977 20.24V26.4H25.5198V20.24H6.15977ZM28.1598 20.24V34.32H37.8398V20.24H28.1598ZM7.91977 22H23.7598V24.64H7.91977V22ZM29.9198 22H36.0798V32.56H29.9198V22ZM6.15977 28.16V34.32H25.5198V28.16H6.15977ZM7.91977 29.92H23.7598V32.56H7.91977V29.92Z" fill="#2864FF"/>
</svg>
