<svg width="22" height="22" viewBox="0 0 22 22" fill="none" xmlns="http://www.w3.org/2000/svg">
<path d="M21.0618 10.7816L20.0208 8.95952L20.151 6.83211C20.1602 6.67943 20.0894 6.53247 19.964 6.44491L18.2278 5.2292L17.4472 3.27648C17.39 3.13392 17.2624 3.03096 17.1106 3.00588L15.0272 2.65872L13.4639 1.22608C13.3495 1.12136 13.1889 1.0844 13.041 1.12884L10.9999 1.73648L8.95872 1.12884C8.81088 1.0844 8.65028 1.12136 8.53588 1.22608L6.97256 2.65916L4.88916 3.00632C4.73736 3.0314 4.60976 3.13436 4.55256 3.27692L3.772 5.22963L2.03576 6.44535C1.91036 6.53335 1.83952 6.67987 1.84876 6.83255L1.979 8.95996L0.937963 10.782C0.860523 10.9171 0.860523 11.0834 0.937963 11.2185L1.979 13.0405L1.84876 15.1679C1.83952 15.3206 1.91036 15.4676 2.03576 15.5551L3.772 16.7708L4.55256 18.7236C4.60976 18.8661 4.73736 18.9691 4.88916 18.9942L6.97256 19.3413L8.53588 20.7744C8.65028 20.8791 8.81088 20.9156 8.95872 20.8716L10.9999 20.2631L13.041 20.8708C13.0824 20.8831 13.1242 20.8892 13.1664 20.8892C13.2751 20.8892 13.3812 20.8492 13.4639 20.7735L15.0272 19.3404L17.1106 18.9933C17.2624 18.9682 17.39 18.8652 17.4472 18.7227L18.2278 16.77L19.964 15.5542C20.0894 15.4662 20.1602 15.3197 20.151 15.167L20.0208 13.0396L21.0618 11.2176C21.1392 11.083 21.1392 10.9166 21.0618 10.7816ZM10.3412 15.193L6.34908 11.5903L6.93868 10.9373L10.1626 13.8466L14.9863 6.36131L15.7264 6.83783L10.3412 15.193Z" fill="white"/>
</svg>
