<svg width="30" height="14" viewBox="0 0 30 14" fill="none" xmlns="http://www.w3.org/2000/svg">
<path d="M7.17422 0.392953C7.01953 0.402328 6.87422 0.470297 6.76875 0.58514L0.609375 6.99998L6.76875 13.4148C6.91641 13.5719 7.13672 13.6375 7.34531 13.5859C7.55391 13.5344 7.72031 13.375 7.77891 13.1687C7.83984 12.9601 7.78359 12.7375 7.63125 12.5851L2.84766 7.59998H28.8C29.0156 7.60233 29.2172 7.48983 29.3273 7.30233C29.4352 7.11483 29.4352 6.88514 29.3273 6.69764C29.2172 6.51014 29.0156 6.39764 28.8 6.39998H2.84766L7.63125 1.41483C7.80703 1.23905 7.85625 0.974203 7.75313 0.749203C7.65234 0.521859 7.42266 0.381234 7.17422 0.392953Z" fill="#17191F"/>
</svg>
