<svg width="26" height="18" viewBox="0 0 26 18" fill="none" xmlns="http://www.w3.org/2000/svg">
<path d="M9.26519 0.427351C9.10769 0.455476 8.96707 0.534226 8.8602 0.652351L1.0077 8.48235L0.512695 8.99985L1.0077 9.51735L8.8602 17.3474C9.03457 17.5611 9.31301 17.6595 9.58301 17.5977C9.85019 17.5358 10.0611 17.3249 10.123 17.0577C10.1849 16.7877 10.0864 16.5092 9.87269 16.3349L3.2577 9.71985H24.5202C24.7789 9.72266 25.0208 9.58766 25.153 9.36266C25.2824 9.13766 25.2824 8.86204 25.153 8.63704C25.0208 8.41204 24.7789 8.27704 24.5202 8.27985H3.2577L9.87269 1.66485C10.1061 1.44829 10.168 1.10516 10.0274 0.821101C9.88957 0.534226 9.57738 0.376726 9.26519 0.427351Z" fill="#0B111A"/>
</svg>
