<svg width="36" height="31" viewBox="0 0 36 31" fill="none" xmlns="http://www.w3.org/2000/svg">
<path d="M20.8695 0.590341C20.8346 0.591097 20.7998 0.594387 20.7654 0.600185H3.6007C2.01862 0.600185 0.720703 1.8981 0.720703 3.48019V26.5202C0.720703 28.1023 2.01862 29.4002 3.6007 29.4002H4.3207V30.1202H7.9207V29.4002H20.7598C20.8375 29.413 20.9169 29.413 20.9946 29.4002H28.0807V30.1202H31.6807V29.4002H32.4007C33.9828 29.4002 35.2807 28.1023 35.2807 26.5202V3.48019C35.2807 1.8981 33.9828 0.600185 32.4007 0.600185H20.9918C20.9514 0.593428 20.9104 0.590134 20.8695 0.590341ZM3.6007 2.04019H20.1607V4.20019H5.0407C4.84975 4.2002 4.66663 4.27607 4.53161 4.41109C4.39658 4.54611 4.32072 4.72924 4.3207 4.92019V25.0802C4.32072 25.2711 4.39658 25.4543 4.53161 25.5893C4.66663 25.7243 4.84975 25.8002 5.0407 25.8002H20.1607V27.9602H7.9207H4.3207H3.6007C2.7967 27.9602 2.1607 27.3242 2.1607 26.5202V3.48019C2.1607 2.67619 2.7967 2.04019 3.6007 2.04019ZM21.6007 2.04019H23.7607V27.9602H21.6007V17.8802V15.0002V12.1202V2.04019ZM21.6007 12.1202C21.6007 12.3111 21.6766 12.4943 21.8116 12.6293C21.9466 12.7643 22.1297 12.8402 22.3207 12.8402C22.5117 12.8402 22.6948 12.7643 22.8298 12.6293C22.9648 12.4943 23.0407 12.3111 23.0407 12.1202C23.0407 11.9292 22.9648 11.7461 22.8298 11.6111C22.6948 11.476 22.5117 11.4002 22.3207 11.4002C22.1297 11.4002 21.9466 11.476 21.8116 11.6111C21.6766 11.7461 21.6007 11.9292 21.6007 12.1202ZM21.6007 15.0002C21.6007 15.1911 21.6766 15.3743 21.8116 15.5093C21.9466 15.6443 22.1297 15.7202 22.3207 15.7202C22.5117 15.7202 22.6948 15.6443 22.8298 15.5093C22.9648 15.3743 23.0407 15.1911 23.0407 15.0002C23.0407 14.8092 22.9648 14.6261 22.8298 14.4911C22.6948 14.356 22.5117 14.2802 22.3207 14.2802C22.1297 14.2802 21.9466 14.356 21.8116 14.4911C21.6766 14.6261 21.6007 14.8092 21.6007 15.0002ZM21.6007 17.8802C21.6007 18.0711 21.6766 18.2543 21.8116 18.3893C21.9466 18.5243 22.1297 18.6002 22.3207 18.6002C22.5117 18.6002 22.6948 18.5243 22.8298 18.3893C22.9648 18.2543 23.0407 18.0711 23.0407 17.8802C23.0407 17.6892 22.9648 17.5061 22.8298 17.3711C22.6948 17.236 22.5117 17.1602 22.3207 17.1602C22.1297 17.1602 21.9466 17.236 21.8116 17.3711C21.6766 17.5061 21.6007 17.6892 21.6007 17.8802ZM27.2609 2.04019H32.4007C33.2047 2.04019 33.8407 2.67619 33.8407 3.48019V26.5202C33.8407 27.3242 33.2047 27.9602 32.4007 27.9602H31.6807H28.0807H27.2609L31.3109 25.7102C31.4231 25.6477 31.5166 25.5563 31.5816 25.4456C31.6466 25.3348 31.6809 25.2086 31.6807 25.0802V19.6605C31.9292 19.0999 32.1718 18.5569 32.2305 18.4188C32.3903 18.3018 32.5042 18.1503 32.5807 18.0208C32.7253 17.7762 32.8131 17.5132 32.8887 17.2108C33.0399 16.606 33.1207 15.8441 33.1207 15.0002C33.1207 14.1563 33.0399 13.3943 32.8887 12.7896C32.8131 12.4872 32.7253 12.2242 32.5807 11.9796C32.5054 11.8522 32.3946 11.7035 32.239 11.5872C32.1451 11.3554 31.9556 10.9056 31.6807 10.271V4.92019C31.6809 4.79173 31.6466 4.66558 31.5816 4.5548C31.5166 4.44403 31.4231 4.35266 31.3109 4.29019L27.2609 2.04019ZM25.2007 2.54503L30.2407 5.34347V7.47253C30.1956 7.4173 30.1553 7.36303 30.0888 7.30519C29.9902 7.2193 29.8482 7.08019 29.5207 7.08019C29.1782 7.08019 28.8943 7.25953 28.7149 7.443C28.5356 7.62646 28.4163 7.82953 28.3085 8.05753C28.0929 8.51353 27.9338 9.08153 27.7966 9.76753C27.5223 11.1395 27.3607 12.973 27.3607 15.0002C27.3607 17.0274 27.5223 18.8608 27.7966 20.2328C27.9338 20.9188 28.0929 21.4868 28.3085 21.9428C28.4163 22.1708 28.5356 22.3739 28.7149 22.5574C28.8943 22.7408 29.1782 22.9202 29.5207 22.9202C29.9295 22.9202 30.0244 22.7454 30.1085 22.6614C30.1662 22.6039 30.2015 22.5525 30.2407 22.4997V24.6569L25.2007 27.4553V2.54503ZM5.7607 5.64019H20.1607V24.3602H5.7607V5.64019ZM29.508 9.02503C29.6946 9.38057 29.9005 9.79962 30.1057 10.2555C30.4166 10.9464 30.6566 11.5197 30.8215 11.9205C30.809 11.94 30.7917 11.9609 30.7807 11.9796C30.6361 12.2242 30.5483 12.4872 30.4727 12.7896C30.3215 13.3943 30.2407 14.1563 30.2407 15.0002C30.2407 15.8441 30.3215 16.606 30.4727 17.2108C30.5483 17.5132 30.6361 17.7762 30.7807 18.0208C30.7891 18.035 30.8024 18.0511 30.8116 18.0658C30.6727 18.3911 30.4568 18.9051 30.072 19.7393C29.8706 20.1758 29.6738 20.5698 29.4926 20.9219C29.3957 20.6457 29.2956 20.3857 29.2085 19.9502C28.9618 18.7163 28.8007 16.9496 28.8007 15.0002C28.8007 13.0508 28.9618 11.284 29.2085 10.0502C29.3004 9.59079 29.4063 9.30542 29.508 9.02503Z" fill="white"/>
</svg>
