<svg width="43" height="41" viewBox="0 0 43 41" fill="none" xmlns="http://www.w3.org/2000/svg">
<path d="M13.1994 0.639999C12.7147 0.639999 12.3194 1.03531 12.3194 1.52C12.3194 2.00469 12.7147 2.4 13.1994 2.4C13.6841 2.4 14.0794 2.00469 14.0794 1.52C14.0794 1.03531 13.6841 0.639999 13.1994 0.639999ZM30.7994 0.639999C30.3147 0.639999 29.9194 1.03531 29.9194 1.52C29.9194 2.00469 30.3147 2.4 30.7994 2.4C31.2841 2.4 31.6794 2.00469 31.6794 1.52C31.6794 1.03531 31.2841 0.639999 30.7994 0.639999ZM13.1994 3.28C12.7147 3.28 12.3194 3.67531 12.3194 4.16C12.3194 4.64469 12.7147 5.04 13.1994 5.04C13.6841 5.04 14.0794 4.64469 14.0794 4.16C14.0794 3.67531 13.6841 3.28 13.1994 3.28ZM30.7994 3.28C30.3147 3.28 29.9194 3.67531 29.9194 4.16C29.9194 4.64469 30.3147 5.04 30.7994 5.04C31.2841 5.04 31.6794 4.64469 31.6794 4.16C31.6794 3.67531 31.2841 3.28 30.7994 3.28ZM40.3419 3.28C39.9913 3.335 39.7094 3.59625 39.6269 3.94C39.6269 3.94 39.1113 5.90969 38.5269 7.8725C38.2347 8.85219 37.9357 9.83188 37.6744 10.54C37.6263 10.6741 37.5816 10.7291 37.5369 10.8425C37.4201 10.7394 37.3135 10.6603 37.1794 10.54C36.9251 10.3166 36.6535 10.0863 36.3544 9.88C36.0554 9.67375 35.7322 9.44 35.1994 9.44C34.4913 9.44 34.2163 9.82156 33.9344 10.1275C33.6526 10.4334 33.381 10.7841 33.1369 11.1175C32.8929 11.4509 32.6763 11.7775 32.5044 11.97C32.4666 12.0147 32.4529 12.0044 32.4219 12.025C32.3188 11.9941 32.1126 11.9356 31.7619 11.695C31.3391 11.4062 30.8269 10.9766 30.3319 10.54C29.8369 10.1034 29.3488 9.66688 28.8744 9.3025C28.4001 8.93813 28.0322 8.56 27.2794 8.56C26.6813 8.56 26.5472 8.78688 26.3169 8.9725C26.0866 9.15812 25.8563 9.39875 25.6019 9.66C25.0932 10.1825 24.4951 10.8425 23.9244 11.5025C23.3538 12.1625 22.8004 12.8191 22.3569 13.29C22.1472 13.5134 21.9582 13.6784 21.8344 13.785C21.7244 13.7472 21.3394 13.6372 20.8994 13.455C20.6416 13.3484 20.3941 13.2453 20.1569 13.1525C19.9197 13.0597 19.7926 12.96 19.3594 12.96C18.971 12.96 18.8988 13.0322 18.7544 13.0975C18.6101 13.1628 18.4794 13.2556 18.3144 13.345C17.9844 13.5203 17.596 13.73 17.2144 13.95C16.8329 14.17 16.4376 14.3763 16.1419 14.5275C16.0044 14.5997 15.891 14.6891 15.8119 14.72C15.8497 14.72 15.8394 14.7234 15.7294 14.6925C15.5885 14.6512 15.3857 14.5791 15.1519 14.5C14.6879 14.3384 14.1001 14.115 13.5019 13.895C12.9038 13.675 12.2885 13.4584 11.7969 13.29C11.5494 13.2041 11.3535 13.125 11.1644 13.07C10.9754 13.015 10.886 12.96 10.5594 12.96C10.1022 12.96 9.94412 13.1388 9.78943 13.2625C9.63474 13.3863 9.50412 13.5306 9.37693 13.675C9.12599 13.9603 8.8613 14.2834 8.60693 14.61C8.35255 14.9366 8.11193 15.2666 7.91943 15.4625C7.84724 15.5381 7.79912 15.5519 7.75443 15.5725C7.66505 15.5588 7.59974 15.5416 7.39693 15.49C7.10474 15.4144 6.74037 15.2975 6.37943 15.1875C6.01849 15.0775 5.66099 14.9744 5.33443 14.885C5.00786 14.7956 4.77068 14.72 4.39943 14.72C3.98349 14.72 3.8288 14.8541 3.65693 14.9675C3.48505 15.0809 3.32005 15.2116 3.16193 15.3525C2.84568 15.6378 2.53286 15.9988 2.22693 16.3425C1.61505 17.0266 1.07193 17.69 1.07193 17.69C0.769427 18.0681 0.827865 18.625 1.20943 18.9275C1.58755 19.23 2.14443 19.1716 2.44693 18.79C2.44693 18.79 2.95224 18.1334 3.51943 17.4975C3.80474 17.1812 4.11068 16.8822 4.34443 16.6725C4.42693 16.5969 4.48193 16.5487 4.53693 16.5075C4.5988 16.5213 4.66755 16.535 4.86693 16.59C5.1488 16.6656 5.49255 16.7825 5.85693 16.8925C6.2213 17.0025 6.61318 17.1056 6.95693 17.195C7.30068 17.2844 7.55849 17.36 7.91943 17.36C8.66537 17.36 8.89568 16.9716 9.18443 16.6725C9.47318 16.3734 9.74818 16.0434 10.0094 15.71C10.2707 15.3766 10.5147 15.0397 10.6969 14.83C10.7244 14.7991 10.7279 14.7991 10.7519 14.775C10.886 14.8162 11.0476 14.8713 11.2469 14.94C11.711 15.1016 12.2988 15.325 12.8969 15.545C13.4951 15.765 14.0794 15.9816 14.5744 16.15C14.8219 16.2359 15.0454 16.315 15.2344 16.37C15.4235 16.425 15.5197 16.48 15.8394 16.48C16.1591 16.48 16.2829 16.4078 16.4444 16.3425C16.606 16.2772 16.7641 16.2119 16.9394 16.1225C17.2901 15.9438 17.706 15.71 18.0944 15.49C18.4829 15.27 18.8507 15.0397 19.1394 14.885C19.2597 14.8197 19.3422 14.7819 19.4144 14.7475C19.4213 14.7544 19.3972 14.7544 19.5244 14.8025C19.7135 14.8747 19.9679 14.9916 20.2394 15.105C20.7826 15.3319 21.2776 15.6 21.9994 15.6C22.3329 15.6 22.4738 15.4866 22.6044 15.4075C22.7351 15.3284 22.8554 15.2528 22.9619 15.16C23.1785 14.9778 23.3779 14.7613 23.6219 14.5C24.1101 13.9809 24.7013 13.3175 25.2719 12.6575C25.8426 11.9975 26.3891 11.3375 26.8394 10.87C27.0491 10.6534 27.2347 10.4816 27.3619 10.375C27.3172 10.3956 27.4754 10.4266 27.8019 10.6775C28.1869 10.9731 28.6682 11.4166 29.1769 11.86C29.476 12.1213 29.7957 12.3825 30.1119 12.63C30.2013 12.7434 30.3354 12.8191 30.4694 12.8775C30.576 12.9566 30.6654 13.0528 30.7719 13.125C31.3116 13.4963 31.841 13.84 32.5594 13.84C33.2985 13.84 33.5254 13.4275 33.7969 13.125C34.0685 12.8225 34.3263 12.4891 34.5669 12.1625C34.8076 11.8359 35.0516 11.5266 35.2269 11.3375C35.2682 11.2928 35.2785 11.3031 35.3094 11.2825C35.3404 11.2997 35.2991 11.2825 35.3369 11.31C35.5157 11.4338 35.7529 11.6434 35.9969 11.86C36.241 12.0766 36.5057 12.2931 36.7669 12.4925C37.0282 12.6919 37.2379 12.96 37.8394 12.96C38.3929 12.96 38.5544 12.685 38.6644 12.5475C38.7744 12.41 38.8157 12.2725 38.8844 12.135C39.0254 11.86 39.1801 11.5334 39.3244 11.145C39.6097 10.3681 39.9054 9.36781 40.2044 8.3675C40.7991 6.37031 41.3319 4.38 41.3319 4.38C41.411 4.09125 41.3388 3.78187 41.136 3.55844C40.9366 3.33844 40.6376 3.23187 40.3419 3.28ZM13.1994 5.92C12.7147 5.92 12.3194 6.31531 12.3194 6.8C12.3194 7.28469 12.7147 7.68 13.1994 7.68C13.6841 7.68 14.0794 7.28469 14.0794 6.8C14.0794 6.31531 13.6841 5.92 13.1994 5.92ZM30.7994 5.92C30.3147 5.92 29.9194 6.31531 29.9194 6.8C29.9194 7.28469 30.3147 7.68 30.7994 7.68C31.2841 7.68 31.6794 7.28469 31.6794 6.8C31.6794 6.31531 31.2841 5.92 30.7994 5.92ZM13.1994 8.56C12.7147 8.56 12.3194 8.95531 12.3194 9.44C12.3194 9.92469 12.7147 10.32 13.1994 10.32C13.6841 10.32 14.0794 9.92469 14.0794 9.44C14.0794 8.95531 13.6841 8.56 13.1994 8.56ZM30.7994 8.56C30.3147 8.56 29.9194 8.95531 29.9194 9.44C29.9194 9.92469 30.3147 10.32 30.7994 10.32C31.2841 10.32 31.6794 9.92469 31.6794 9.44C31.6794 8.95531 31.2841 8.56 30.7994 8.56ZM13.1994 11.2C12.7147 11.2 12.3194 11.5953 12.3194 12.08C12.3194 12.5647 12.7147 12.96 13.1994 12.96C13.6841 12.96 14.0794 12.5647 14.0794 12.08C14.0794 11.5953 13.6841 11.2 13.1994 11.2ZM30.7994 13.84C30.3147 13.84 29.9194 14.2353 29.9194 14.72C29.9194 15.2047 30.3147 15.6 30.7994 15.6C31.2841 15.6 31.6794 15.2047 31.6794 14.72C31.6794 14.2353 31.2841 13.84 30.7994 13.84ZM13.1994 16.48C12.7147 16.48 12.3194 16.8753 12.3194 17.36C12.3194 17.8447 12.7147 18.24 13.1994 18.24C13.6841 18.24 14.0794 17.8447 14.0794 17.36C14.0794 16.8753 13.6841 16.48 13.1994 16.48ZM30.7994 16.48C30.3147 16.48 29.9194 16.8753 29.9194 17.36C29.9194 17.8447 30.3147 18.24 30.7994 18.24C31.2841 18.24 31.6794 17.8447 31.6794 17.36C31.6794 16.8753 31.2841 16.48 30.7994 16.48ZM13.1994 19.12C12.7147 19.12 12.3194 19.5153 12.3194 20C12.3194 20.4847 12.7147 20.88 13.1994 20.88C13.6841 20.88 14.0794 20.4847 14.0794 20C14.0794 19.5153 13.6841 19.12 13.1994 19.12ZM30.7994 19.12C30.3147 19.12 29.9194 19.5153 29.9194 20C29.9194 20.4847 30.3147 20.88 30.7994 20.88C31.2841 20.88 31.6794 20.4847 31.6794 20C31.6794 19.5153 31.2841 19.12 30.7994 19.12ZM13.1994 21.76C12.7147 21.76 12.3194 22.1553 12.3194 22.64C12.3194 23.1247 12.7147 23.52 13.1994 23.52C13.6841 23.52 14.0794 23.1247 14.0794 22.64C14.0794 22.1553 13.6841 21.76 13.1994 21.76ZM30.7994 21.76C30.3147 21.76 29.9194 22.1553 29.9194 22.64C29.9194 23.1247 30.3147 23.52 30.7994 23.52C31.2841 23.52 31.6794 23.1247 31.6794 22.64C31.6794 22.1553 31.2841 21.76 30.7994 21.76ZM13.1994 24.4C12.7147 24.4 12.3194 24.7953 12.3194 25.28C12.3194 25.7647 12.7147 26.16 13.1994 26.16C13.6841 26.16 14.0794 25.7647 14.0794 25.28C14.0794 24.7953 13.6841 24.4 13.1994 24.4ZM30.7994 24.4C30.3147 24.4 29.9194 24.7953 29.9194 25.28C29.9194 25.7647 30.3147 26.16 30.7994 26.16C31.2841 26.16 31.6794 25.7647 31.6794 25.28C31.6794 24.7953 31.2841 24.4 30.7994 24.4ZM13.1994 27.04C12.7147 27.04 12.3194 27.4353 12.3194 27.92C12.3194 28.4047 12.7147 28.8 13.1994 28.8C13.6841 28.8 14.0794 28.4047 14.0794 27.92C14.0794 27.4353 13.6841 27.04 13.1994 27.04ZM30.7994 27.04C30.3147 27.04 29.9194 27.4353 29.9194 27.92C29.9194 28.4047 30.3147 28.8 30.7994 28.8C31.2841 28.8 31.6794 28.4047 31.6794 27.92C31.6794 27.4353 31.2841 27.04 30.7994 27.04ZM13.1994 29.68C12.7147 29.68 12.3194 30.0753 12.3194 30.56C12.3194 31.0447 12.7147 31.44 13.1994 31.44C13.6841 31.44 14.0794 31.0447 14.0794 30.56C14.0794 30.0753 13.6841 29.68 13.1994 29.68ZM30.7994 29.68C30.3147 29.68 29.9194 30.0753 29.9194 30.56C29.9194 31.0447 30.3147 31.44 30.7994 31.44C31.2841 31.44 31.6794 31.0447 31.6794 30.56C31.6794 30.0753 31.2841 29.68 30.7994 29.68ZM13.1994 32.32C12.7147 32.32 12.3194 32.7153 12.3194 33.2C12.3194 33.6847 12.7147 34.08 13.1994 34.08C13.6841 34.08 14.0794 33.6847 14.0794 33.2C14.0794 32.7153 13.6841 32.32 13.1994 32.32ZM30.7994 32.32C30.3147 32.32 29.9194 32.7153 29.9194 33.2C29.9194 33.6847 30.3147 34.08 30.7994 34.08C31.2841 34.08 31.6794 33.6847 31.6794 33.2C31.6794 32.7153 31.2841 32.32 30.7994 32.32ZM13.1994 34.96C12.7147 34.96 12.3194 35.3553 12.3194 35.84C12.3194 36.3247 12.7147 36.72 13.1994 36.72C13.6841 36.72 14.0794 36.3247 14.0794 35.84C14.0794 35.3553 13.6841 34.96 13.1994 34.96ZM30.7994 34.96C30.3147 34.96 29.9194 35.3553 29.9194 35.84C29.9194 36.3247 30.3147 36.72 30.7994 36.72C31.2841 36.72 31.6794 36.3247 31.6794 35.84C31.6794 35.3553 31.2841 34.96 30.7994 34.96ZM13.1994 37.6C12.7147 37.6 12.3194 37.9953 12.3194 38.48H2.63943C2.61193 38.48 2.58443 38.48 2.55693 38.48C2.52943 38.48 2.50193 38.48 2.47443 38.48C1.98974 38.5247 1.63224 38.9578 1.67693 39.4425C1.72161 39.9272 2.15474 40.2847 2.63943 40.24H41.3594C41.6757 40.2434 41.9713 40.0784 42.1329 39.8034C42.291 39.5284 42.291 39.1916 42.1329 38.9166C41.9713 38.6416 41.6757 38.4766 41.3594 38.48H31.6794C31.6794 37.9953 31.2841 37.6 30.7994 37.6C30.3147 37.6 29.9194 37.9953 29.9194 38.48H14.0794C14.0794 37.9953 13.6841 37.6 13.1994 37.6Z" fill="black"/>
<path d="M13.1994 0.639999C12.7147 0.639999 12.3194 1.03531 12.3194 1.52C12.3194 2.00469 12.7147 2.4 13.1994 2.4C13.6841 2.4 14.0794 2.00469 14.0794 1.52C14.0794 1.03531 13.6841 0.639999 13.1994 0.639999ZM30.7994 0.639999C30.3147 0.639999 29.9194 1.03531 29.9194 1.52C29.9194 2.00469 30.3147 2.4 30.7994 2.4C31.2841 2.4 31.6794 2.00469 31.6794 1.52C31.6794 1.03531 31.2841 0.639999 30.7994 0.639999ZM13.1994 3.28C12.7147 3.28 12.3194 3.67531 12.3194 4.16C12.3194 4.64469 12.7147 5.04 13.1994 5.04C13.6841 5.04 14.0794 4.64469 14.0794 4.16C14.0794 3.67531 13.6841 3.28 13.1994 3.28ZM30.7994 3.28C30.3147 3.28 29.9194 3.67531 29.9194 4.16C29.9194 4.64469 30.3147 5.04 30.7994 5.04C31.2841 5.04 31.6794 4.64469 31.6794 4.16C31.6794 3.67531 31.2841 3.28 30.7994 3.28ZM40.3419 3.28C39.9913 3.335 39.7094 3.59625 39.6269 3.94C39.6269 3.94 39.1113 5.90969 38.5269 7.8725C38.2347 8.85219 37.9357 9.83188 37.6744 10.54C37.6263 10.6741 37.5816 10.7291 37.5369 10.8425C37.4201 10.7394 37.3135 10.6603 37.1794 10.54C36.9251 10.3166 36.6535 10.0863 36.3544 9.88C36.0554 9.67375 35.7322 9.44 35.1994 9.44C34.4913 9.44 34.2163 9.82156 33.9344 10.1275C33.6526 10.4334 33.381 10.7841 33.1369 11.1175C32.8929 11.4509 32.6763 11.7775 32.5044 11.97C32.4666 12.0147 32.4529 12.0044 32.4219 12.025C32.3188 11.9941 32.1126 11.9356 31.7619 11.695C31.3391 11.4062 30.8269 10.9766 30.3319 10.54C29.8369 10.1034 29.3488 9.66688 28.8744 9.3025C28.4001 8.93813 28.0322 8.56 27.2794 8.56C26.6813 8.56 26.5472 8.78688 26.3169 8.9725C26.0866 9.15812 25.8563 9.39875 25.6019 9.66C25.0932 10.1825 24.4951 10.8425 23.9244 11.5025C23.3538 12.1625 22.8004 12.8191 22.3569 13.29C22.1472 13.5134 21.9582 13.6784 21.8344 13.785C21.7244 13.7472 21.3394 13.6372 20.8994 13.455C20.6416 13.3484 20.3941 13.2453 20.1569 13.1525C19.9197 13.0597 19.7926 12.96 19.3594 12.96C18.971 12.96 18.8988 13.0322 18.7544 13.0975C18.6101 13.1628 18.4794 13.2556 18.3144 13.345C17.9844 13.5203 17.596 13.73 17.2144 13.95C16.8329 14.17 16.4376 14.3763 16.1419 14.5275C16.0044 14.5997 15.891 14.6891 15.8119 14.72C15.8497 14.72 15.8394 14.7234 15.7294 14.6925C15.5885 14.6512 15.3857 14.5791 15.1519 14.5C14.6879 14.3384 14.1001 14.115 13.5019 13.895C12.9038 13.675 12.2885 13.4584 11.7969 13.29C11.5494 13.2041 11.3535 13.125 11.1644 13.07C10.9754 13.015 10.886 12.96 10.5594 12.96C10.1022 12.96 9.94412 13.1388 9.78943 13.2625C9.63474 13.3863 9.50412 13.5306 9.37693 13.675C9.12599 13.9603 8.8613 14.2834 8.60693 14.61C8.35255 14.9366 8.11193 15.2666 7.91943 15.4625C7.84724 15.5381 7.79912 15.5519 7.75443 15.5725C7.66505 15.5588 7.59974 15.5416 7.39693 15.49C7.10474 15.4144 6.74037 15.2975 6.37943 15.1875C6.01849 15.0775 5.66099 14.9744 5.33443 14.885C5.00786 14.7956 4.77068 14.72 4.39943 14.72C3.98349 14.72 3.8288 14.8541 3.65693 14.9675C3.48505 15.0809 3.32005 15.2116 3.16193 15.3525C2.84568 15.6378 2.53286 15.9988 2.22693 16.3425C1.61505 17.0266 1.07193 17.69 1.07193 17.69C0.769427 18.0681 0.827865 18.625 1.20943 18.9275C1.58755 19.23 2.14443 19.1716 2.44693 18.79C2.44693 18.79 2.95224 18.1334 3.51943 17.4975C3.80474 17.1812 4.11068 16.8822 4.34443 16.6725C4.42693 16.5969 4.48193 16.5487 4.53693 16.5075C4.5988 16.5213 4.66755 16.535 4.86693 16.59C5.1488 16.6656 5.49255 16.7825 5.85693 16.8925C6.2213 17.0025 6.61318 17.1056 6.95693 17.195C7.30068 17.2844 7.55849 17.36 7.91943 17.36C8.66537 17.36 8.89568 16.9716 9.18443 16.6725C9.47318 16.3734 9.74818 16.0434 10.0094 15.71C10.2707 15.3766 10.5147 15.0397 10.6969 14.83C10.7244 14.7991 10.7279 14.7991 10.7519 14.775C10.886 14.8162 11.0476 14.8713 11.2469 14.94C11.711 15.1016 12.2988 15.325 12.8969 15.545C13.4951 15.765 14.0794 15.9816 14.5744 16.15C14.8219 16.2359 15.0454 16.315 15.2344 16.37C15.4235 16.425 15.5197 16.48 15.8394 16.48C16.1591 16.48 16.2829 16.4078 16.4444 16.3425C16.606 16.2772 16.7641 16.2119 16.9394 16.1225C17.2901 15.9438 17.706 15.71 18.0944 15.49C18.4829 15.27 18.8507 15.0397 19.1394 14.885C19.2597 14.8197 19.3422 14.7819 19.4144 14.7475C19.4213 14.7544 19.3972 14.7544 19.5244 14.8025C19.7135 14.8747 19.9679 14.9916 20.2394 15.105C20.7826 15.3319 21.2776 15.6 21.9994 15.6C22.3329 15.6 22.4738 15.4866 22.6044 15.4075C22.7351 15.3284 22.8554 15.2528 22.9619 15.16C23.1785 14.9778 23.3779 14.7613 23.6219 14.5C24.1101 13.9809 24.7013 13.3175 25.2719 12.6575C25.8426 11.9975 26.3891 11.3375 26.8394 10.87C27.0491 10.6534 27.2347 10.4816 27.3619 10.375C27.3172 10.3956 27.4754 10.4266 27.8019 10.6775C28.1869 10.9731 28.6682 11.4166 29.1769 11.86C29.476 12.1213 29.7957 12.3825 30.1119 12.63C30.2013 12.7434 30.3354 12.8191 30.4694 12.8775C30.576 12.9566 30.6654 13.0528 30.7719 13.125C31.3116 13.4963 31.841 13.84 32.5594 13.84C33.2985 13.84 33.5254 13.4275 33.7969 13.125C34.0685 12.8225 34.3263 12.4891 34.5669 12.1625C34.8076 11.8359 35.0516 11.5266 35.2269 11.3375C35.2682 11.2928 35.2785 11.3031 35.3094 11.2825C35.3404 11.2997 35.2991 11.2825 35.3369 11.31C35.5157 11.4338 35.7529 11.6434 35.9969 11.86C36.241 12.0766 36.5057 12.2931 36.7669 12.4925C37.0282 12.6919 37.2379 12.96 37.8394 12.96C38.3929 12.96 38.5544 12.685 38.6644 12.5475C38.7744 12.41 38.8157 12.2725 38.8844 12.135C39.0254 11.86 39.1801 11.5334 39.3244 11.145C39.6097 10.3681 39.9054 9.36781 40.2044 8.3675C40.7991 6.37031 41.3319 4.38 41.3319 4.38C41.411 4.09125 41.3388 3.78187 41.136 3.55844C40.9366 3.33844 40.6376 3.23187 40.3419 3.28ZM13.1994 5.92C12.7147 5.92 12.3194 6.31531 12.3194 6.8C12.3194 7.28469 12.7147 7.68 13.1994 7.68C13.6841 7.68 14.0794 7.28469 14.0794 6.8C14.0794 6.31531 13.6841 5.92 13.1994 5.92ZM30.7994 5.92C30.3147 5.92 29.9194 6.31531 29.9194 6.8C29.9194 7.28469 30.3147 7.68 30.7994 7.68C31.2841 7.68 31.6794 7.28469 31.6794 6.8C31.6794 6.31531 31.2841 5.92 30.7994 5.92ZM13.1994 8.56C12.7147 8.56 12.3194 8.95531 12.3194 9.44C12.3194 9.92469 12.7147 10.32 13.1994 10.32C13.6841 10.32 14.0794 9.92469 14.0794 9.44C14.0794 8.95531 13.6841 8.56 13.1994 8.56ZM30.7994 8.56C30.3147 8.56 29.9194 8.95531 29.9194 9.44C29.9194 9.92469 30.3147 10.32 30.7994 10.32C31.2841 10.32 31.6794 9.92469 31.6794 9.44C31.6794 8.95531 31.2841 8.56 30.7994 8.56ZM13.1994 11.2C12.7147 11.2 12.3194 11.5953 12.3194 12.08C12.3194 12.5647 12.7147 12.96 13.1994 12.96C13.6841 12.96 14.0794 12.5647 14.0794 12.08C14.0794 11.5953 13.6841 11.2 13.1994 11.2ZM30.7994 13.84C30.3147 13.84 29.9194 14.2353 29.9194 14.72C29.9194 15.2047 30.3147 15.6 30.7994 15.6C31.2841 15.6 31.6794 15.2047 31.6794 14.72C31.6794 14.2353 31.2841 13.84 30.7994 13.84ZM13.1994 16.48C12.7147 16.48 12.3194 16.8753 12.3194 17.36C12.3194 17.8447 12.7147 18.24 13.1994 18.24C13.6841 18.24 14.0794 17.8447 14.0794 17.36C14.0794 16.8753 13.6841 16.48 13.1994 16.48ZM30.7994 16.48C30.3147 16.48 29.9194 16.8753 29.9194 17.36C29.9194 17.8447 30.3147 18.24 30.7994 18.24C31.2841 18.24 31.6794 17.8447 31.6794 17.36C31.6794 16.8753 31.2841 16.48 30.7994 16.48ZM13.1994 19.12C12.7147 19.12 12.3194 19.5153 12.3194 20C12.3194 20.4847 12.7147 20.88 13.1994 20.88C13.6841 20.88 14.0794 20.4847 14.0794 20C14.0794 19.5153 13.6841 19.12 13.1994 19.12ZM30.7994 19.12C30.3147 19.12 29.9194 19.5153 29.9194 20C29.9194 20.4847 30.3147 20.88 30.7994 20.88C31.2841 20.88 31.6794 20.4847 31.6794 20C31.6794 19.5153 31.2841 19.12 30.7994 19.12ZM13.1994 21.76C12.7147 21.76 12.3194 22.1553 12.3194 22.64C12.3194 23.1247 12.7147 23.52 13.1994 23.52C13.6841 23.52 14.0794 23.1247 14.0794 22.64C14.0794 22.1553 13.6841 21.76 13.1994 21.76ZM30.7994 21.76C30.3147 21.76 29.9194 22.1553 29.9194 22.64C29.9194 23.1247 30.3147 23.52 30.7994 23.52C31.2841 23.52 31.6794 23.1247 31.6794 22.64C31.6794 22.1553 31.2841 21.76 30.7994 21.76ZM13.1994 24.4C12.7147 24.4 12.3194 24.7953 12.3194 25.28C12.3194 25.7647 12.7147 26.16 13.1994 26.16C13.6841 26.16 14.0794 25.7647 14.0794 25.28C14.0794 24.7953 13.6841 24.4 13.1994 24.4ZM30.7994 24.4C30.3147 24.4 29.9194 24.7953 29.9194 25.28C29.9194 25.7647 30.3147 26.16 30.7994 26.16C31.2841 26.16 31.6794 25.7647 31.6794 25.28C31.6794 24.7953 31.2841 24.4 30.7994 24.4ZM13.1994 27.04C12.7147 27.04 12.3194 27.4353 12.3194 27.92C12.3194 28.4047 12.7147 28.8 13.1994 28.8C13.6841 28.8 14.0794 28.4047 14.0794 27.92C14.0794 27.4353 13.6841 27.04 13.1994 27.04ZM30.7994 27.04C30.3147 27.04 29.9194 27.4353 29.9194 27.92C29.9194 28.4047 30.3147 28.8 30.7994 28.8C31.2841 28.8 31.6794 28.4047 31.6794 27.92C31.6794 27.4353 31.2841 27.04 30.7994 27.04ZM13.1994 29.68C12.7147 29.68 12.3194 30.0753 12.3194 30.56C12.3194 31.0447 12.7147 31.44 13.1994 31.44C13.6841 31.44 14.0794 31.0447 14.0794 30.56C14.0794 30.0753 13.6841 29.68 13.1994 29.68ZM30.7994 29.68C30.3147 29.68 29.9194 30.0753 29.9194 30.56C29.9194 31.0447 30.3147 31.44 30.7994 31.44C31.2841 31.44 31.6794 31.0447 31.6794 30.56C31.6794 30.0753 31.2841 29.68 30.7994 29.68ZM13.1994 32.32C12.7147 32.32 12.3194 32.7153 12.3194 33.2C12.3194 33.6847 12.7147 34.08 13.1994 34.08C13.6841 34.08 14.0794 33.6847 14.0794 33.2C14.0794 32.7153 13.6841 32.32 13.1994 32.32ZM30.7994 32.32C30.3147 32.32 29.9194 32.7153 29.9194 33.2C29.9194 33.6847 30.3147 34.08 30.7994 34.08C31.2841 34.08 31.6794 33.6847 31.6794 33.2C31.6794 32.7153 31.2841 32.32 30.7994 32.32ZM13.1994 34.96C12.7147 34.96 12.3194 35.3553 12.3194 35.84C12.3194 36.3247 12.7147 36.72 13.1994 36.72C13.6841 36.72 14.0794 36.3247 14.0794 35.84C14.0794 35.3553 13.6841 34.96 13.1994 34.96ZM30.7994 34.96C30.3147 34.96 29.9194 35.3553 29.9194 35.84C29.9194 36.3247 30.3147 36.72 30.7994 36.72C31.2841 36.72 31.6794 36.3247 31.6794 35.84C31.6794 35.3553 31.2841 34.96 30.7994 34.96ZM13.1994 37.6C12.7147 37.6 12.3194 37.9953 12.3194 38.48H2.63943C2.61193 38.48 2.58443 38.48 2.55693 38.48C2.52943 38.48 2.50193 38.48 2.47443 38.48C1.98974 38.5247 1.63224 38.9578 1.67693 39.4425C1.72161 39.9272 2.15474 40.2847 2.63943 40.24H41.3594C41.6757 40.2434 41.9713 40.0784 42.1329 39.8034C42.291 39.5284 42.291 39.1916 42.1329 38.9166C41.9713 38.6416 41.6757 38.4766 41.3594 38.48H31.6794C31.6794 37.9953 31.2841 37.6 30.7994 37.6C30.3147 37.6 29.9194 37.9953 29.9194 38.48H14.0794C14.0794 37.9953 13.6841 37.6 13.1994 37.6Z" fill="#2864FF"/>
</svg>
