<svg width="22" height="22" viewBox="0 0 22 22" fill="none" xmlns="http://www.w3.org/2000/svg">
<path d="M10.9999 0.880554C5.41936 0.880554 0.879883 5.42003 0.879883 11.0006C0.879883 16.5811 5.41936 21.1205 10.9999 21.1205C16.5804 21.1205 21.1199 16.5811 21.1199 11.0006C21.1199 8.99415 20.5304 7.12386 19.5197 5.54954L18.9173 6.2611C19.7511 7.64886 20.2399 9.26695 20.2399 11.0006C20.2399 16.0953 16.0946 20.2405 10.9999 20.2405C5.90512 20.2405 1.75988 16.0953 1.75988 11.0006C1.75988 5.90579 5.90512 1.76055 10.9999 1.76055C13.3948 1.76055 15.5732 2.68445 17.2166 4.18485L17.7924 3.50508C15.995 1.87489 13.6113 0.880554 10.9999 0.880554ZM19.0239 3.41227L10.5221 13.4446L6.94363 10.1068L6.34379 10.7505L10.5968 14.7173L19.6959 3.98118L19.0239 3.41227Z" fill="#2C67FF"/>
</svg>
