<svg width="16" height="18" viewBox="0 0 16 18" fill="none" xmlns="http://www.w3.org/2000/svg">
<path opacity="0.3" d="M5.09091 0C4.28727 0 3.63636 0.6444 3.63636 1.44V12.96C3.63636 13.7556 4.28727 14.4 5.09091 14.4H14.5455C15.3491 14.4 16 13.7556 16 12.96V4.68C16 4.4892 15.9237 4.3063 15.7869 4.17094L11.7869 0.210938C11.6502 0.0755774 11.4655 0 11.2727 0H5.09091ZM10.9091 1.37109L14.6151 5.04H11.6364C11.2349 5.04 10.9091 4.71744 10.9091 4.32V1.37109ZM1.45455 3.6C0.650909 3.6 0 4.2444 0 5.04V16.56C0 17.3556 0.650909 18 1.45455 18H10.9091C11.7127 18 12.3636 17.3556 12.3636 16.56V15.84H5.09091C3.48655 15.84 2.18182 14.5483 2.18182 12.96V3.6H1.45455Z" fill="#0B111A"/>
</svg>
