<svg width="44" height="44" viewBox="0 0 44 44" fill="none" xmlns="http://www.w3.org/2000/svg">
<path d="M4.4 0C3.07313 0 1.93531 0.825 1.1825 1.9525C0.429687 3.08 0 4.54781 0 6.16C0 7.77219 0.429687 9.24 1.1825 10.3675C1.93531 11.495 3.07313 12.32 4.4 12.32H7.04V36.08C7.04 40.4319 10.6081 44 14.96 44H26.4C26.7162 44.0034 27.0119 43.8384 27.1734 43.5634C27.3316 43.2884 27.3316 42.9516 27.1734 42.6766C27.0119 42.4016 26.7162 42.2366 26.4 42.24H14.96C11.5672 42.24 8.8 39.4728 8.8 36.08V12.32H29.04V10.56C28.4316 10.56 27.8025 10.1922 27.28 9.405C26.7575 8.61781 26.4 7.4525 26.4 6.16C26.4 4.8675 26.7575 3.70219 27.28 2.915C27.7956 2.14156 28.4109 1.77031 29.0125 1.76C29.0228 1.76 29.0297 1.76 29.04 1.76C30.9856 1.76 33.44 3.88438 33.44 7.92V23.76C33.4366 24.0763 33.6016 24.3719 33.8766 24.5334C34.1516 24.6916 34.4884 24.6916 34.7634 24.5334C35.0384 24.3719 35.2034 24.0763 35.2 23.76V7.92C35.2 3.15563 32.1991 0 29.04 0H4.4ZM4.4 1.76H26.015C25.96 1.83563 25.8741 1.87344 25.8225 1.9525C25.0697 3.08 24.64 4.54781 24.64 6.16C24.64 7.77219 25.0697 9.24 25.8225 10.3675C25.8741 10.4466 25.96 10.4844 26.015 10.56H4.4C3.79156 10.56 3.1625 10.1922 2.64 9.405C2.1175 8.61781 1.76 7.4525 1.76 6.16C1.76 4.8675 2.1175 3.70219 2.64 2.915C3.1625 2.12781 3.79156 1.76 4.4 1.76ZM12.9525 18.48C12.4678 18.5487 12.1275 18.9991 12.1962 19.4837C12.265 19.9684 12.7153 20.3088 13.2 20.24H14.96C15.2762 20.2434 15.5719 20.0784 15.7334 19.8034C15.8916 19.5284 15.8916 19.1916 15.7334 18.9166C15.5719 18.6416 15.2762 18.4766 14.96 18.48H13.2C13.1725 18.48 13.145 18.48 13.1175 18.48C13.09 18.48 13.0625 18.48 13.035 18.48C13.0075 18.48 12.98 18.48 12.9525 18.48ZM18.2325 18.48C17.7478 18.5487 17.4075 18.9991 17.4762 19.4837C17.545 19.9684 17.9953 20.3088 18.48 20.24H29.04C29.3563 20.2434 29.6519 20.0784 29.8134 19.8034C29.9716 19.5284 29.9716 19.1916 29.8134 18.9166C29.6519 18.6416 29.3563 18.4766 29.04 18.48H18.48C18.4525 18.48 18.425 18.48 18.3975 18.48C18.37 18.48 18.3425 18.48 18.315 18.48C18.2875 18.48 18.26 18.48 18.2325 18.48ZM12.9525 23.76C12.4678 23.8288 12.1275 24.2791 12.1962 24.7638C12.265 25.2484 12.7153 25.5887 13.2 25.52H14.96C15.2762 25.5234 15.5719 25.3584 15.7334 25.0834C15.8916 24.8084 15.8916 24.4716 15.7334 24.1966C15.5719 23.9216 15.2762 23.7566 14.96 23.76H13.2C13.1725 23.76 13.145 23.76 13.1175 23.76C13.09 23.76 13.0625 23.76 13.035 23.76C13.0075 23.76 12.98 23.76 12.9525 23.76ZM18.2325 23.76C17.7478 23.8288 17.4075 24.2791 17.4762 24.7638C17.545 25.2484 17.9953 25.5887 18.48 25.52H29.04C29.3563 25.5234 29.6519 25.3584 29.8134 25.0834C29.9716 24.8084 29.9716 24.4716 29.8134 24.1966C29.6519 23.9216 29.3563 23.7566 29.04 23.76H18.48C18.4525 23.76 18.425 23.76 18.3975 23.76C18.37 23.76 18.3425 23.76 18.315 23.76C18.2875 23.76 18.26 23.76 18.2325 23.76ZM35.2 26.4C30.3497 26.4 26.4 30.3497 26.4 35.2C26.4 40.0503 30.3497 44 35.2 44C40.0503 44 44 40.0503 44 35.2C44 30.3497 40.0503 26.4 35.2 26.4ZM35.2 28.16C39.0981 28.16 42.24 31.3019 42.24 35.2C42.24 39.0981 39.0981 42.24 35.2 42.24C31.3019 42.24 28.16 39.0981 28.16 35.2C28.16 31.3019 31.3019 28.16 35.2 28.16ZM12.9525 29.04C12.4678 29.1087 12.1275 29.5591 12.1962 30.0438C12.265 30.5284 12.7153 30.8687 13.2 30.8H14.96C15.2762 30.8034 15.5719 30.6384 15.7334 30.3634C15.8916 30.0884 15.8916 29.7516 15.7334 29.4766C15.5719 29.2016 15.2762 29.0366 14.96 29.04H13.2C13.1725 29.04 13.145 29.04 13.1175 29.04C13.09 29.04 13.0625 29.04 13.035 29.04C13.0075 29.04 12.98 29.04 12.9525 29.04ZM18.2325 29.04C17.7478 29.1087 17.4075 29.5591 17.4762 30.0438C17.545 30.5284 17.9953 30.8687 18.48 30.8H25.52C25.8363 30.8034 26.1319 30.6384 26.2934 30.3634C26.4516 30.0884 26.4516 29.7516 26.2934 29.4766C26.1319 29.2016 25.8363 29.0366 25.52 29.04H18.48C18.4525 29.04 18.425 29.04 18.3975 29.04C18.37 29.04 18.3425 29.04 18.315 29.04C18.2875 29.04 18.26 29.04 18.2325 29.04ZM34.32 30.8V34.32H30.8V36.08H34.32V39.6H36.08V36.08H39.6V34.32H36.08V30.8H34.32ZM12.9525 34.32C12.4678 34.3887 12.1275 34.8391 12.1962 35.3237C12.265 35.8084 12.7153 36.1488 13.2 36.08H14.96C15.2762 36.0834 15.5719 35.9184 15.7334 35.6434C15.8916 35.3684 15.8916 35.0316 15.7334 34.7566C15.5719 34.4816 15.2762 34.3166 14.96 34.32H13.2C13.1725 34.32 13.145 34.32 13.1175 34.32C13.09 34.32 13.0625 34.32 13.035 34.32C13.0075 34.32 12.98 34.32 12.9525 34.32ZM18.2325 34.32C17.7478 34.3887 17.4075 34.8391 17.4762 35.3237C17.545 35.8084 17.9953 36.1488 18.48 36.08H23.76C24.0763 36.0834 24.3719 35.9184 24.5334 35.6434C24.6916 35.3684 24.6916 35.0316 24.5334 34.7566C24.3719 34.4816 24.0763 34.3166 23.76 34.32H18.48C18.4525 34.32 18.425 34.32 18.3975 34.32C18.37 34.32 18.3425 34.32 18.315 34.32C18.2875 34.32 18.26 34.32 18.2325 34.32Z" fill="black"/>
<path d="M4.4 0C3.07313 0 1.93531 0.825 1.1825 1.9525C0.429687 3.08 0 4.54781 0 6.16C0 7.77219 0.429687 9.24 1.1825 10.3675C1.93531 11.495 3.07313 12.32 4.4 12.32H7.04V36.08C7.04 40.4319 10.6081 44 14.96 44H26.4C26.7162 44.0034 27.0119 43.8384 27.1734 43.5634C27.3316 43.2884 27.3316 42.9516 27.1734 42.6766C27.0119 42.4016 26.7162 42.2366 26.4 42.24H14.96C11.5672 42.24 8.8 39.4728 8.8 36.08V12.32H29.04V10.56C28.4316 10.56 27.8025 10.1922 27.28 9.405C26.7575 8.61781 26.4 7.4525 26.4 6.16C26.4 4.8675 26.7575 3.70219 27.28 2.915C27.7956 2.14156 28.4109 1.77031 29.0125 1.76C29.0228 1.76 29.0297 1.76 29.04 1.76C30.9856 1.76 33.44 3.88438 33.44 7.92V23.76C33.4366 24.0763 33.6016 24.3719 33.8766 24.5334C34.1516 24.6916 34.4884 24.6916 34.7634 24.5334C35.0384 24.3719 35.2034 24.0763 35.2 23.76V7.92C35.2 3.15563 32.1991 0 29.04 0H4.4ZM4.4 1.76H26.015C25.96 1.83563 25.8741 1.87344 25.8225 1.9525C25.0697 3.08 24.64 4.54781 24.64 6.16C24.64 7.77219 25.0697 9.24 25.8225 10.3675C25.8741 10.4466 25.96 10.4844 26.015 10.56H4.4C3.79156 10.56 3.1625 10.1922 2.64 9.405C2.1175 8.61781 1.76 7.4525 1.76 6.16C1.76 4.8675 2.1175 3.70219 2.64 2.915C3.1625 2.12781 3.79156 1.76 4.4 1.76ZM12.9525 18.48C12.4678 18.5487 12.1275 18.9991 12.1962 19.4837C12.265 19.9684 12.7153 20.3088 13.2 20.24H14.96C15.2762 20.2434 15.5719 20.0784 15.7334 19.8034C15.8916 19.5284 15.8916 19.1916 15.7334 18.9166C15.5719 18.6416 15.2762 18.4766 14.96 18.48H13.2C13.1725 18.48 13.145 18.48 13.1175 18.48C13.09 18.48 13.0625 18.48 13.035 18.48C13.0075 18.48 12.98 18.48 12.9525 18.48ZM18.2325 18.48C17.7478 18.5487 17.4075 18.9991 17.4762 19.4837C17.545 19.9684 17.9953 20.3088 18.48 20.24H29.04C29.3563 20.2434 29.6519 20.0784 29.8134 19.8034C29.9716 19.5284 29.9716 19.1916 29.8134 18.9166C29.6519 18.6416 29.3563 18.4766 29.04 18.48H18.48C18.4525 18.48 18.425 18.48 18.3975 18.48C18.37 18.48 18.3425 18.48 18.315 18.48C18.2875 18.48 18.26 18.48 18.2325 18.48ZM12.9525 23.76C12.4678 23.8288 12.1275 24.2791 12.1962 24.7638C12.265 25.2484 12.7153 25.5887 13.2 25.52H14.96C15.2762 25.5234 15.5719 25.3584 15.7334 25.0834C15.8916 24.8084 15.8916 24.4716 15.7334 24.1966C15.5719 23.9216 15.2762 23.7566 14.96 23.76H13.2C13.1725 23.76 13.145 23.76 13.1175 23.76C13.09 23.76 13.0625 23.76 13.035 23.76C13.0075 23.76 12.98 23.76 12.9525 23.76ZM18.2325 23.76C17.7478 23.8288 17.4075 24.2791 17.4762 24.7638C17.545 25.2484 17.9953 25.5887 18.48 25.52H29.04C29.3563 25.5234 29.6519 25.3584 29.8134 25.0834C29.9716 24.8084 29.9716 24.4716 29.8134 24.1966C29.6519 23.9216 29.3563 23.7566 29.04 23.76H18.48C18.4525 23.76 18.425 23.76 18.3975 23.76C18.37 23.76 18.3425 23.76 18.315 23.76C18.2875 23.76 18.26 23.76 18.2325 23.76ZM35.2 26.4C30.3497 26.4 26.4 30.3497 26.4 35.2C26.4 40.0503 30.3497 44 35.2 44C40.0503 44 44 40.0503 44 35.2C44 30.3497 40.0503 26.4 35.2 26.4ZM35.2 28.16C39.0981 28.16 42.24 31.3019 42.24 35.2C42.24 39.0981 39.0981 42.24 35.2 42.24C31.3019 42.24 28.16 39.0981 28.16 35.2C28.16 31.3019 31.3019 28.16 35.2 28.16ZM12.9525 29.04C12.4678 29.1087 12.1275 29.5591 12.1962 30.0438C12.265 30.5284 12.7153 30.8687 13.2 30.8H14.96C15.2762 30.8034 15.5719 30.6384 15.7334 30.3634C15.8916 30.0884 15.8916 29.7516 15.7334 29.4766C15.5719 29.2016 15.2762 29.0366 14.96 29.04H13.2C13.1725 29.04 13.145 29.04 13.1175 29.04C13.09 29.04 13.0625 29.04 13.035 29.04C13.0075 29.04 12.98 29.04 12.9525 29.04ZM18.2325 29.04C17.7478 29.1087 17.4075 29.5591 17.4762 30.0438C17.545 30.5284 17.9953 30.8687 18.48 30.8H25.52C25.8363 30.8034 26.1319 30.6384 26.2934 30.3634C26.4516 30.0884 26.4516 29.7516 26.2934 29.4766C26.1319 29.2016 25.8363 29.0366 25.52 29.04H18.48C18.4525 29.04 18.425 29.04 18.3975 29.04C18.37 29.04 18.3425 29.04 18.315 29.04C18.2875 29.04 18.26 29.04 18.2325 29.04ZM34.32 30.8V34.32H30.8V36.08H34.32V39.6H36.08V36.08H39.6V34.32H36.08V30.8H34.32ZM12.9525 34.32C12.4678 34.3887 12.1275 34.8391 12.1962 35.3237C12.265 35.8084 12.7153 36.1488 13.2 36.08H14.96C15.2762 36.0834 15.5719 35.9184 15.7334 35.6434C15.8916 35.3684 15.8916 35.0316 15.7334 34.7566C15.5719 34.4816 15.2762 34.3166 14.96 34.32H13.2C13.1725 34.32 13.145 34.32 13.1175 34.32C13.09 34.32 13.0625 34.32 13.035 34.32C13.0075 34.32 12.98 34.32 12.9525 34.32ZM18.2325 34.32C17.7478 34.3887 17.4075 34.8391 17.4762 35.3237C17.545 35.8084 17.9953 36.1488 18.48 36.08H23.76C24.0763 36.0834 24.3719 35.9184 24.5334 35.6434C24.6916 35.3684 24.6916 35.0316 24.5334 34.7566C24.3719 34.4816 24.0763 34.3166 23.76 34.32H18.48C18.4525 34.32 18.425 34.32 18.3975 34.32C18.37 34.32 18.3425 34.32 18.315 34.32C18.2875 34.32 18.26 34.32 18.2325 34.32Z" fill="#2864FF"/>
</svg>
