<svg width="34" height="24" viewBox="0 0 34 24" fill="none" xmlns="http://www.w3.org/2000/svg">
<path d="M4.04043 0.47998C2.06043 0.47998 0.44043 2.09998 0.44043 4.07998V19.92C0.44043 21.9 2.06043 23.52 4.04043 23.52H29.9604C31.9404 23.52 33.5604 21.9 33.5604 19.92V4.07998C33.5604 2.09998 31.9404 0.47998 29.9604 0.47998H4.04043ZM4.04043 1.91998H29.9604C31.1614 1.91998 32.1204 2.87904 32.1204 4.07998V5.51998H1.88043V4.07998C1.88043 2.87904 2.83949 1.91998 4.04043 1.91998ZM1.88043 9.11998H32.1204V19.92C32.1204 21.1209 31.1614 22.08 29.9604 22.08H4.04043C2.83949 22.08 1.88043 21.1209 1.88043 19.92V9.11998ZM5.48043 11.28V12.72H17.0004V11.28H5.48043Z" fill="white"/>
</svg>
