<svg width="36" height="36" viewBox="0 0 36 36" fill="none" xmlns="http://www.w3.org/2000/svg">
<path d="M11.52 0C5.15531 0 0 5.15531 0 11.52C0 17.8847 5.15531 23.04 11.52 23.04C12.0488 23.04 12.5634 23.0203 13.0725 22.95C13.005 23.4534 12.96 23.9597 12.96 24.48C12.96 30.8334 18.1266 36 24.48 36C30.8334 36 36 30.8334 36 24.48C36 18.1266 30.8334 12.96 24.48 12.96C23.9597 12.96 23.4534 13.005 22.95 13.0725C23.0203 12.5634 23.04 12.0488 23.04 11.52C23.04 5.15531 17.8847 0 11.52 0ZM29.0025 0.2025L25.4025 3.8025L24.9075 4.32L25.4025 4.8375L29.0025 8.4375L30.0375 7.4025L27.675 5.04H30.96C32.9428 5.04 34.56 6.65719 34.56 8.64V12.96H36V8.64C36 5.8725 33.7275 3.6 30.96 3.6H27.675L30.0375 1.2375L29.0025 0.2025ZM11.52 1.44C17.1084 1.44 21.6 5.93156 21.6 11.52C21.6 12.1978 21.5466 12.7969 21.42 13.3875C17.5275 14.4619 14.4619 17.5275 13.3875 21.42C12.7969 21.5466 12.1978 21.6 11.52 21.6C5.93156 21.6 1.44 17.1084 1.44 11.52C1.44 5.93156 5.93156 1.44 11.52 1.44ZM24.48 14.4C30.0544 14.4 34.56 18.9056 34.56 24.48C34.56 30.0544 30.0544 34.56 24.48 34.56C18.9056 34.56 14.4 30.0544 14.4 24.48C14.4 18.9056 18.9056 14.4 24.48 14.4ZM0 23.04V27.36C0 30.1275 2.2725 32.4 5.04 32.4H8.325L5.9625 34.7625L6.9975 35.7975L10.5975 32.1975L11.0925 31.68L10.5975 31.1625L6.9975 27.5625L5.9625 28.5975L8.325 30.96H5.04C3.05719 30.96 1.44 29.3428 1.44 27.36V23.04H0Z" fill="white"/>
</svg>
