<svg width="22" height="22" viewBox="0 0 22 22" fill="none" xmlns="http://www.w3.org/2000/svg">
<path d="M6.13312 3.08002L1.69531 11.0017L6.24828 18.92H15.8681L20.3042 11L15.8681 3.08002H6.13312ZM6.64875 3.96002H15.3525L19.297 11L15.3525 18.04H6.75703L2.70594 10.9983L6.64875 3.96002ZM7.48062 6.16002V15.84H11.0006C13.675 15.84 15.8406 13.6744 15.8406 11C15.8406 8.32564 13.675 6.16002 11.0006 6.16002H7.48062ZM8.36062 7.04002H11.0006C13.1852 7.04002 14.9606 8.81549 14.9606 11C14.9606 13.1845 13.1852 14.96 11.0006 14.96H8.36062V7.04002ZM9.24062 7.92002V14.08H11.1467C12.7641 14.08 14.0806 12.6981 14.0806 11C14.0806 9.30189 12.7641 7.92002 11.1467 7.92002H9.24062ZM10.1206 8.80002H11.1467C12.2794 8.80002 13.2006 9.78658 13.2006 11C13.2006 12.2135 12.2794 13.2 11.1467 13.2H10.1206V8.80002Z" fill="#4D7EFF"/>
</svg>
