<svg width="38" height="38" viewBox="0 0 38 38" fill="none" xmlns="http://www.w3.org/2000/svg">
<path d="M18.999 -0.000488281C16.909 -0.000488281 15.199 1.70951 15.199 3.79951C15.199 4.85639 15.6354 5.81529 16.339 6.50701L10.4965 15.4845C10.0661 15.3153 9.60887 15.1995 9.11902 15.1995C7.02902 15.1995 5.31902 16.9095 5.31902 18.9995C5.31902 20.3829 6.08199 21.5883 7.19527 22.2533L4.34527 30.447C4.16418 30.4203 3.98605 30.3995 3.79902 30.3995C1.70902 30.3995 -0.000976562 32.1095 -0.000976562 34.1995C-0.000976562 36.2895 1.70902 37.9995 3.79902 37.9995C5.88902 37.9995 7.59902 36.2895 7.59902 34.1995C7.59902 32.8369 6.85684 31.6404 5.77027 30.9695L8.64402 22.752C8.80137 22.7728 8.95574 22.7995 9.11902 22.7995C9.2823 22.7995 9.43668 22.7728 9.59402 22.752L12.4915 30.9458C11.3901 31.6137 10.639 32.825 10.639 34.1995C10.639 36.2895 12.349 37.9995 14.439 37.9995C16.529 37.9995 18.239 36.2895 18.239 34.1995C18.239 32.1095 16.529 30.3995 14.439 30.3995C14.2668 30.3995 14.1065 30.4233 13.9403 30.447L11.0428 22.2533C12.1561 21.5883 12.919 20.3829 12.919 18.9995C12.919 17.9426 12.4826 16.9837 11.779 16.292L17.6215 7.31451C18.052 7.48373 18.5092 7.59951 18.999 7.59951C19.4889 7.59951 19.9461 7.48373 20.3765 7.31451L26.219 16.292C25.5154 16.9837 25.079 17.9426 25.079 18.9995C25.079 20.3829 25.842 21.5883 26.9553 22.2533L24.0578 30.447C23.8915 30.4233 23.7312 30.3995 23.559 30.3995C21.469 30.3995 19.759 32.1095 19.759 34.1995C19.759 36.2895 21.469 37.9995 23.559 37.9995C25.649 37.9995 27.359 36.2895 27.359 34.1995C27.359 32.825 26.6079 31.6137 25.5065 30.9458L28.404 22.752C28.5614 22.7728 28.7157 22.7995 28.879 22.7995C29.0423 22.7995 29.1967 22.7728 29.354 22.752L32.2278 30.9695C31.1412 31.6404 30.399 32.8369 30.399 34.1995C30.399 36.2895 32.109 37.9995 34.199 37.9995C36.289 37.9995 37.999 36.2895 37.999 34.1995C37.999 32.1095 36.289 30.3995 34.199 30.3995C34.012 30.3995 33.8339 30.4203 33.6528 30.447L30.8028 22.2533C31.9161 21.5883 32.679 20.3829 32.679 18.9995C32.679 16.9095 30.969 15.1995 28.879 15.1995C28.3892 15.1995 27.932 15.3153 27.5015 15.4845L21.659 6.50701C22.3626 5.81529 22.799 4.85639 22.799 3.79951C22.799 1.70951 21.089 -0.000488281 18.999 -0.000488281ZM18.999 1.51951C20.2667 1.51951 21.279 2.53186 21.279 3.79951C21.279 5.06717 20.2667 6.07951 18.999 6.07951C17.7314 6.07951 16.719 5.06717 16.719 3.79951C16.719 2.53186 17.7314 1.51951 18.999 1.51951ZM9.11902 16.7195C10.3867 16.7195 11.399 17.7319 11.399 18.9995C11.399 20.2672 10.3867 21.2795 9.11902 21.2795C7.85137 21.2795 6.83902 20.2672 6.83902 18.9995C6.83902 17.7319 7.85137 16.7195 9.11902 16.7195ZM28.879 16.7195C30.1467 16.7195 31.159 17.7319 31.159 18.9995C31.159 20.2672 30.1467 21.2795 28.879 21.2795C27.6114 21.2795 26.599 20.2672 26.599 18.9995C26.599 17.7319 27.6114 16.7195 28.879 16.7195ZM3.79902 31.9195C5.06668 31.9195 6.07902 32.9319 6.07902 34.1995C6.07902 35.4672 5.06668 36.4795 3.79902 36.4795C2.53137 36.4795 1.51902 35.4672 1.51902 34.1995C1.51902 32.9319 2.53137 31.9195 3.79902 31.9195ZM14.439 31.9195C15.7067 31.9195 16.719 32.9319 16.719 34.1995C16.719 35.4672 15.7067 36.4795 14.439 36.4795C13.1714 36.4795 12.159 35.4672 12.159 34.1995C12.159 32.9319 13.1714 31.9195 14.439 31.9195ZM23.559 31.9195C24.8267 31.9195 25.839 32.9319 25.839 34.1995C25.839 35.4672 24.8267 36.4795 23.559 36.4795C22.2914 36.4795 21.279 35.4672 21.279 34.1995C21.279 32.9319 22.2914 31.9195 23.559 31.9195ZM34.199 31.9195C35.4667 31.9195 36.479 32.9319 36.479 34.1995C36.479 35.4672 35.4667 36.4795 34.199 36.4795C32.9314 36.4795 31.919 35.4672 31.919 34.1995C31.919 32.9319 32.9314 31.9195 34.199 31.9195Z" fill="#2C67FF"/>
</svg>
