<svg width="36" height="36" viewBox="0 0 36 36" fill="none" xmlns="http://www.w3.org/2000/svg">
<path d="M17.9997 3.6001C10.0556 3.6001 3.59968 10.056 3.59968 18.0001C3.59833 18.0955 3.61596 18.1902 3.65154 18.2788C3.68711 18.3673 3.73993 18.4479 3.80693 18.5158C3.87392 18.5838 3.95375 18.6377 4.04177 18.6746C4.1298 18.7114 4.22426 18.7304 4.31968 18.7304C4.4151 18.7304 4.50957 18.7114 4.59759 18.6746C4.68562 18.6377 4.76544 18.5838 4.83244 18.5158C4.89943 18.4479 4.95225 18.3673 4.98783 18.2788C5.0234 18.1902 5.04103 18.0955 5.03968 18.0001C5.03968 10.8343 10.8339 5.0401 17.9997 5.0401C22.4962 5.0401 26.4439 7.32967 28.7687 10.8001H25.1997C25.1043 10.7987 25.0095 10.8164 24.921 10.852C24.8325 10.8875 24.7519 10.9403 24.6839 11.0073C24.616 11.0743 24.562 11.1542 24.5252 11.2422C24.4884 11.3302 24.4694 11.4247 24.4694 11.5201C24.4694 11.6155 24.4884 11.71 24.5252 11.798C24.562 11.886 24.616 11.9659 24.6839 12.0329C24.7519 12.0998 24.8325 12.1527 24.921 12.1882C25.0095 12.2238 25.1043 12.2414 25.1997 12.2401H31.6797V5.7601C31.681 5.66377 31.663 5.56816 31.6267 5.47892C31.5904 5.38968 31.5365 5.30864 31.4684 5.24058C31.4002 5.17253 31.319 5.11884 31.2297 5.08272C31.1404 5.04659 31.0448 5.02875 30.9484 5.03025C30.7577 5.03323 30.576 5.11176 30.4431 5.24859C30.3102 5.38542 30.2371 5.56938 30.2397 5.7601V10.4148C27.6983 6.32407 23.163 3.6001 17.9997 3.6001ZM21.5645 11.5117C21.4476 11.5184 21.3342 11.5536 21.234 11.6141C21.1337 11.6747 21.0498 11.7587 20.9894 11.859L13.7894 23.379C13.7349 23.4592 13.6971 23.5495 13.6783 23.6446C13.6596 23.7397 13.6602 23.8376 13.6802 23.9324C13.7002 24.0273 13.7391 24.1171 13.7947 24.1965C13.8502 24.276 13.9212 24.3434 14.0034 24.3947C14.0856 24.4461 14.1774 24.4803 14.2731 24.4953C14.3689 24.5103 14.4667 24.5059 14.5607 24.4822C14.6547 24.4585 14.7429 24.4161 14.8201 24.3575C14.8973 24.2989 14.9619 24.2253 15.01 24.1412L22.21 12.6212C22.2787 12.5147 22.318 12.3919 22.324 12.2654C22.3301 12.1388 22.3026 12.0129 22.2444 11.9003C22.1862 11.7877 22.0993 11.6925 21.9925 11.6243C21.8857 11.556 21.7628 11.5172 21.6362 11.5117C21.6124 11.5105 21.5884 11.5105 21.5645 11.5117ZM14.3997 11.5201C13.2153 11.5201 12.2397 12.4957 12.2397 13.6801V15.1201V15.8401H12.5392C12.8585 16.6369 13.4949 17.2801 14.3997 17.2801C15.5841 17.2801 16.5597 16.3045 16.5597 15.1201V13.6801C16.5597 12.4957 15.5841 11.5201 14.3997 11.5201ZM14.3997 12.9601C14.8065 12.9601 15.1197 13.2733 15.1197 13.6801V15.1201C15.1197 15.5269 14.8065 15.8401 14.3997 15.8401C13.9929 15.8401 13.6797 15.5269 13.6797 15.1201V13.6801C13.6797 13.2733 13.9929 12.9601 14.3997 12.9601ZM31.6684 17.2703C31.4777 17.2732 31.296 17.3518 31.1631 17.4886C31.0302 17.6254 30.9571 17.8094 30.9597 18.0001C30.9597 25.1659 25.1655 30.9601 17.9997 30.9601C13.5027 30.9601 9.55486 28.6703 7.23062 25.2001L10.7997 25.2015C10.8951 25.2029 10.9898 25.1852 11.0784 25.1496C11.1669 25.1141 11.2475 25.0612 11.3154 24.9943C11.3834 24.9273 11.4373 24.8474 11.4741 24.7594C11.511 24.6714 11.5299 24.5769 11.5299 24.4815C11.5299 24.3861 11.511 24.2916 11.4741 24.2036C11.4373 24.1156 11.3834 24.0357 11.3154 23.9687C11.2475 23.9018 11.1669 23.8489 11.0784 23.8134C10.9898 23.7778 10.8951 23.7602 10.7997 23.7615L6.08031 23.7601C5.98838 23.742 5.8938 23.742 5.80187 23.7601H5.80046H4.31968V30.2401C4.31833 30.3355 4.33596 30.4302 4.37154 30.5188C4.40711 30.6073 4.45993 30.6879 4.52693 30.7558C4.59392 30.8238 4.67375 30.8777 4.76177 30.9146C4.8498 30.9514 4.94426 30.9704 5.03968 30.9704C5.1351 30.9704 5.22957 30.9514 5.31759 30.9146C5.40562 30.8777 5.48544 30.8238 5.55244 30.7558C5.61943 30.6879 5.67225 30.6073 5.70783 30.5188C5.7434 30.4302 5.76103 30.3355 5.75968 30.2401V25.5826C8.30001 29.6746 12.8348 32.4001 17.9997 32.4001C25.9438 32.4001 32.3997 25.9442 32.3997 18.0001C32.401 17.9038 32.383 17.8082 32.3467 17.7189C32.3104 17.6297 32.2565 17.5486 32.1884 17.4806C32.1202 17.4125 32.039 17.3588 31.9497 17.3227C31.8604 17.2866 31.7648 17.2687 31.6684 17.2703ZM21.5997 18.7201C20.4153 18.7201 19.4397 19.6957 19.4397 20.8801V22.3201V23.0401H19.7392C20.0585 23.8369 20.6949 24.4801 21.5997 24.4801C22.7841 24.4801 23.7597 23.5045 23.7597 22.3201V20.8801C23.7597 19.6957 22.7841 18.7201 21.5997 18.7201ZM21.5997 20.1601C22.0065 20.1601 22.3197 20.4733 22.3197 20.8801V22.3201C22.3197 22.7269 22.0065 23.0401 21.5997 23.0401C21.1929 23.0401 20.8797 22.7269 20.8797 22.3201V20.8801C20.8797 20.4733 21.1929 20.1601 21.5997 20.1601Z" fill="white"/>
</svg>
