<svg width="50" height="50" viewBox="0 0 50 50" fill="none" xmlns="http://www.w3.org/2000/svg">
<path d="M39 0V2H46.5625L34 14.5625L30.7188 11.2812L30 10.5938L29.2812 11.2812L18 22.5625L14.7188 19.2812L14 18.5938L13.2812 19.2812L0.28125 32.2812L1.71875 33.7188L14 21.4375L17.2812 24.7188L18 25.4062L18.7188 24.7188L30 13.4375L33.2812 16.7188L34 17.4062L34.7188 16.7188L48 3.4375V11H50V0H39ZM42 14V50H44V14H42ZM48 15V50H50V15H48ZM30 20V50H32V20H30ZM36 20V50H38V20H36ZM24 24V50H26V24H24ZM12 28V50H14V28H12ZM18 30V50H20V30H18ZM6 34V50H8V34H6ZM0 38V50H2V38H0Z" fill="white"/>
</svg>
