<svg width="36" height="36" viewBox="0 0 36 36" fill="none" xmlns="http://www.w3.org/2000/svg">
<path d="M18.0007 0.720215C17.8097 0.720215 17.6266 0.796072 17.4916 0.931098C17.3566 1.06612 17.2807 1.24926 17.2807 1.44021C17.2807 1.63117 17.3566 1.81431 17.4916 1.94933C17.6266 2.08436 17.8097 2.16021 18.0007 2.16021C18.1917 2.16021 18.3748 2.08436 18.5098 1.94933C18.6448 1.81431 18.7207 1.63117 18.7207 1.44021C18.7207 1.24926 18.6448 1.06612 18.5098 0.931098C18.3748 0.796072 18.1917 0.720215 18.0007 0.720215ZM13.7145 1.28412C13.5235 1.28412 13.3404 1.35998 13.2053 1.495C13.0703 1.63003 12.9945 1.81317 12.9945 2.00412C12.9945 2.19508 13.0703 2.37821 13.2053 2.51324C13.3404 2.64826 13.5235 2.72412 13.7145 2.72412C13.9054 2.72412 14.0885 2.64826 14.2236 2.51324C14.3586 2.37821 14.4345 2.19508 14.4345 2.00412C14.4345 1.81317 14.3586 1.63003 14.2236 1.495C14.0885 1.35998 13.9054 1.28412 13.7145 1.28412ZM22.287 1.28412C22.096 1.28412 21.9129 1.35998 21.7778 1.495C21.6428 1.63003 21.567 1.81317 21.567 2.00412C21.567 2.19508 21.6428 2.37821 21.7778 2.51324C21.9129 2.64826 22.096 2.72412 22.287 2.72412C22.4779 2.72412 22.661 2.64826 22.7961 2.51324C22.9311 2.37821 23.007 2.19508 23.007 2.00412C23.007 1.81317 22.9311 1.63003 22.7961 1.495C22.661 1.35998 22.4779 1.28412 22.287 1.28412ZM9.7207 2.93787C9.52975 2.93787 9.34661 3.01373 9.21159 3.14875C9.07656 3.28378 9.0007 3.46692 9.0007 3.65787C9.0007 3.84883 9.07656 4.03196 9.21159 4.16699C9.34661 4.30201 9.52975 4.37787 9.7207 4.37787C9.91166 4.37787 10.0948 4.30201 10.2298 4.16699C10.3648 4.03196 10.4407 3.84883 10.4407 3.65787C10.4407 3.46692 10.3648 3.28378 10.2298 3.14875C10.0948 3.01373 9.91166 2.93787 9.7207 2.93787ZM26.2807 2.93787C26.0897 2.93787 25.9066 3.01373 25.7716 3.14875C25.6366 3.28378 25.5607 3.46692 25.5607 3.65787C25.5607 3.84883 25.6366 4.03196 25.7716 4.16699C25.9066 4.30201 26.0897 4.37787 26.2807 4.37787C26.4717 4.37787 26.6548 4.30201 26.7898 4.16699C26.9248 4.03196 27.0007 3.84883 27.0007 3.65787C27.0007 3.46692 26.9248 3.28378 26.7898 3.14875C26.6548 3.01373 26.4717 2.93787 26.2807 2.93787ZM18.0007 3.60021C10.0563 3.60021 3.6007 10.0558 3.6007 18.0002C3.6007 25.9446 10.0563 32.4002 18.0007 32.4002C25.9451 32.4002 32.4007 25.9446 32.4007 18.0002C32.4007 10.0558 25.9451 3.60021 18.0007 3.60021ZM18.0007 5.04021C20.5352 5.04021 22.8901 5.77615 24.8857 7.03006C24.7221 7.43036 24.4769 8.01938 24.1404 8.75834C23.8863 9.31622 23.6104 9.88518 23.3655 10.3235C23.2431 10.5427 23.1273 10.73 23.0365 10.8565C22.9457 10.983 22.8544 11.0469 22.9296 10.9999L21.4432 11.9112C21.3952 11.9406 21.3509 11.9755 21.311 12.0152C20.9469 12.3793 20.8075 12.9333 20.9271 13.4116C20.9578 13.5356 21.0209 13.6491 21.1099 13.7407L21.5205 14.1612C21.308 14.2327 21.0926 14.298 20.868 14.4227C20.7193 14.5054 20.5647 14.6089 20.4223 14.7785C20.2798 14.9481 20.1607 15.2102 20.1607 15.4802C20.1607 15.9508 20.3023 16.3564 20.4701 16.8035C20.554 17.027 20.6446 17.237 20.7612 17.4321C20.8195 17.5296 20.881 17.6243 20.9848 17.7288C21.0885 17.8334 21.2566 18.0002 21.6007 18.0002C22.7664 18.0002 23.551 17.4988 23.997 16.9666C24.4429 16.4344 24.6482 16.0042 25.0699 15.7122C25.5539 15.3773 25.8579 15.3365 26.112 15.2707C26.1635 15.3473 26.1608 15.3142 26.2273 15.4422C26.4238 15.821 26.6265 16.4054 26.6365 17.2226C26.6294 17.2148 26.605 17.3209 26.5085 17.4419C26.3768 17.6071 26.1551 17.8186 25.8771 18.0129C25.321 18.4014 24.546 18.7202 23.7607 18.7202C22.3226 18.7202 21.3534 19.1444 20.7991 19.7791C20.2449 20.4138 20.1607 21.1529 20.1607 21.6002C20.1607 22.9864 21.0251 23.9405 21.8341 24.4591C22.2387 24.7185 22.6392 24.8908 22.962 25.0047C23.0929 25.051 23.1536 25.0543 23.2488 25.0821C23.3629 25.294 23.5192 25.6257 23.9477 26.6402C24.1649 27.1553 24.6645 28.2327 24.9785 28.9141C22.9638 30.2037 20.5742 30.9602 18.0007 30.9602C17.2531 30.9602 16.5253 30.883 15.8126 30.7619C15.9612 29.9197 16.242 28.9445 16.5255 28.1097C16.8258 27.2259 17.0638 26.6499 17.1865 26.3055C17.6101 26.024 18.7207 25.1928 18.7207 23.3102C18.7207 22.9306 18.6116 22.6405 18.3565 22.2921C18.1014 21.9437 17.6143 21.6002 17.0107 21.6002C16.6775 21.6002 16.657 21.591 16.5312 21.5144C16.4053 21.4379 16.1507 21.2063 15.693 20.7944C15.6926 20.7944 15.6921 20.7944 15.6916 20.7944C15.0993 20.2618 14.3829 20.1602 13.8607 20.1602H12.7807H10.8907C10.3657 20.1602 10.3014 20.004 10.196 19.7932C10.0906 19.5824 10.0807 19.3502 10.0807 19.3502V18.0002H10.5307C10.629 18.0002 10.5945 17.9958 10.5926 17.9946C10.6117 18.0587 10.6238 18.149 10.7655 18.3307C10.9393 18.5535 11.3168 18.7202 11.6107 18.7202C12.0875 18.7202 12.5696 18.4445 12.768 18.1015C12.9665 17.7585 12.9607 17.4568 12.9607 17.2802C12.9607 16.9181 13.0026 16.5278 13.1505 16.2944C13.2985 16.0611 13.5239 15.8402 14.4007 15.8402C14.8186 15.8402 15.3341 15.7614 15.7929 15.4127C16.2517 15.0641 16.5607 14.4314 16.5607 13.6802V11.1602C16.5607 11.039 16.5694 10.6141 16.3034 10.1744C16.0373 9.73479 15.4307 9.36021 14.6707 9.36021C14.1662 9.36021 13.8286 9.28685 13.7341 9.23787C13.6397 9.1889 13.6807 9.29124 13.6807 9.09021C13.6807 9.10937 13.713 8.83485 13.7932 8.5235C13.8734 8.21214 13.9931 7.82192 14.1391 7.41115C14.3949 6.69193 14.7431 5.91838 15.0743 5.38334C16.0159 5.16627 16.9925 5.04021 18.0007 5.04021ZM6.29086 5.57037C6.0999 5.57037 5.91677 5.64623 5.78174 5.78125C5.64672 5.91628 5.57086 6.09941 5.57086 6.29037C5.57086 6.48133 5.64672 6.66446 5.78174 6.79949C5.91677 6.93451 6.0999 7.01037 6.29086 7.01037C6.48181 7.01037 6.66495 6.93451 6.79998 6.79949C6.935 6.66446 7.01086 6.48133 7.01086 6.29037C7.01086 6.09941 6.935 5.91628 6.79998 5.78125C6.66495 5.64623 6.48181 5.57037 6.29086 5.57037ZM29.7105 5.57037C29.5196 5.57037 29.3365 5.64623 29.2014 5.78125C29.0664 5.91628 28.9905 6.09941 28.9905 6.29037C28.9905 6.48133 29.0664 6.66446 29.2014 6.79949C29.3365 6.93451 29.5196 7.01037 29.7105 7.01037C29.9015 7.01037 30.0846 6.93451 30.2197 6.79949C30.3547 6.66446 30.4305 6.48133 30.4305 6.29037C30.4305 6.09941 30.3547 5.91628 30.2197 5.78125C30.0846 5.64623 29.9015 5.57037 29.7105 5.57037ZM13.1534 5.98381C13.0192 6.29926 12.8923 6.61754 12.7821 6.9274C12.6226 7.37604 12.4916 7.8024 12.3982 8.1649C12.3048 8.5274 12.2407 8.78414 12.2407 9.09021C12.2407 9.66679 12.5866 10.2645 13.0718 10.5162C13.557 10.7678 14.0736 10.8002 14.6707 10.8002C15.0613 10.8002 15.0402 10.868 15.0715 10.9197C15.1028 10.9715 15.1207 11.087 15.1207 11.1602V13.6802C15.1207 14.0991 15.0248 14.1864 14.921 14.2652C14.8173 14.3441 14.6128 14.4002 14.4007 14.4002C13.2039 14.4002 12.3492 14.8701 11.9355 15.5224C11.611 16.0342 11.5584 16.5326 11.5432 16.9399C11.4923 16.8881 11.4924 16.8376 11.4265 16.7937C11.1704 16.6229 10.8626 16.5602 10.5307 16.5602H9.9007C9.44478 16.5602 8.94539 16.8636 8.77711 17.2183C8.60883 17.5731 8.6407 17.8494 8.6407 18.0002V19.301C8.04182 18.8606 7.60798 18.543 7.22602 17.868C7.11494 17.6717 6.9719 17.4736 6.77602 17.2985C6.77555 17.298 6.77508 17.2976 6.77461 17.2971L6.55945 17.1058C6.55898 17.1058 6.55852 17.1058 6.55805 17.1058C6.16433 16.7562 5.65641 16.5616 5.1293 16.5602C5.66181 11.7424 8.82155 7.7297 13.1534 5.98381ZM26.0909 7.88084C29.0576 10.2543 30.9607 13.8988 30.9607 18.0002C30.9607 22.0658 29.0933 25.6857 26.171 28.0605C25.8429 27.3452 25.438 26.4685 25.2738 26.0791C24.7838 24.9189 24.5966 24.4608 24.371 24.0991C24.3146 24.0086 24.2388 23.9318 24.149 23.8741C24.0593 23.8165 23.9579 23.7795 23.8521 23.7658C23.9277 23.7755 23.6817 23.7316 23.4401 23.6463C23.1984 23.561 22.8948 23.4283 22.6118 23.2469C22.0459 22.8841 21.6007 22.415 21.6007 21.6002C21.6007 21.3347 21.6515 20.994 21.8848 20.7269C22.118 20.4598 22.5888 20.1602 23.7607 20.1602C24.9194 20.1602 25.9447 19.7236 26.7026 19.1941C27.0815 18.9294 27.3953 18.6411 27.6349 18.3405C27.8745 18.04 28.0807 17.7489 28.0807 17.2802C28.0807 16.186 27.7977 15.3456 27.5041 14.7799C27.2106 14.2142 26.8657 13.8771 26.8657 13.8771C26.7841 13.8001 26.6857 13.7432 26.5783 13.711C26.4709 13.6788 26.3574 13.6721 26.247 13.6915C26.247 13.6915 25.2171 13.86 24.2515 14.5282C23.5032 15.0462 23.1824 15.696 22.893 16.0413C22.6571 16.3229 22.4203 16.4603 21.9157 16.5124C21.882 16.4399 21.8519 16.3895 21.8173 16.2972C21.7168 16.0295 21.6737 15.7869 21.6457 15.6532C21.7679 15.5949 21.9521 15.5224 22.1885 15.4437C22.2492 15.4233 22.3069 15.3949 22.3601 15.3593C22.7869 15.0747 22.854 14.7448 22.9296 14.5029C23.0052 14.2609 23.0337 14.0515 23.0337 14.0515C23.0492 13.9422 23.0393 13.8309 23.005 13.726C22.9706 13.6212 22.9126 13.5256 22.8354 13.4468L22.4079 13.008L23.6876 12.2233C23.689 12.2224 23.6904 12.2215 23.6918 12.2205C23.947 12.061 24.0659 11.8919 24.2065 11.696C24.347 11.5001 24.4836 11.2757 24.6227 11.0266C24.901 10.5284 25.1876 9.93296 25.451 9.35459C25.7004 8.80709 25.92 8.28971 26.0909 7.88084ZM3.65836 9.00021C3.4674 9.00021 3.28427 9.07607 3.14924 9.2111C3.01422 9.34612 2.93836 9.52926 2.93836 9.72021C2.93836 9.91117 3.01422 10.0943 3.14924 10.2293C3.28427 10.3644 3.4674 10.4402 3.65836 10.4402C3.84932 10.4402 4.03245 10.3644 4.16748 10.2293C4.3025 10.0943 4.37836 9.91117 4.37836 9.72021C4.37836 9.52926 4.3025 9.34612 4.16748 9.2111C4.03245 9.07607 3.84932 9.00021 3.65836 9.00021ZM32.343 9.00021C32.1521 9.00021 31.969 9.07607 31.8339 9.2111C31.6989 9.34612 31.623 9.52926 31.623 9.72021C31.623 9.91117 31.6989 10.0943 31.8339 10.2293C31.969 10.3644 32.1521 10.4402 32.343 10.4402C32.534 10.4402 32.7171 10.3644 32.8522 10.2293C32.9872 10.0943 33.063 9.91117 33.063 9.72021C33.063 9.52926 32.9872 9.34612 32.8522 9.2111C32.7171 9.07607 32.534 9.00021 32.343 9.00021ZM2.00461 12.994C1.81365 12.994 1.63052 13.0698 1.49549 13.2048C1.36047 13.3399 1.28461 13.523 1.28461 13.714C1.28461 13.9049 1.36047 14.0881 1.49549 14.2231C1.63052 14.3581 1.81365 14.434 2.00461 14.434C2.19557 14.434 2.3787 14.3581 2.51373 14.2231C2.64875 14.0881 2.72461 13.9049 2.72461 13.714C2.72461 13.523 2.64875 13.3399 2.51373 13.2048C2.3787 13.0698 2.19557 12.994 2.00461 12.994ZM33.9968 12.994C33.8058 12.994 33.6227 13.0698 33.4877 13.2048C33.3527 13.3399 33.2768 13.523 33.2768 13.714C33.2768 13.9049 33.3527 14.0881 33.4877 14.2231C33.6227 14.3581 33.8058 14.434 33.9968 14.434C34.1878 14.434 34.3709 14.3581 34.5059 14.2231C34.6409 14.0881 34.7168 13.9049 34.7168 13.714C34.7168 13.523 34.6409 13.3399 34.5059 13.2048C34.3709 13.0698 34.1878 12.994 33.9968 12.994ZM1.4407 17.2802C1.24975 17.2802 1.06661 17.3561 0.931586 17.4911C0.79656 17.6261 0.720703 17.8093 0.720703 18.0002C0.720703 18.1912 0.79656 18.3743 0.931586 18.5093C1.06661 18.6444 1.24975 18.7202 1.4407 18.7202C1.63166 18.7202 1.81479 18.6444 1.94982 18.5093C2.08485 18.3743 2.1607 18.1912 2.1607 18.0002C2.1607 17.8093 2.08485 17.6261 1.94982 17.4911C1.81479 17.3561 1.63166 17.2802 1.4407 17.2802ZM34.5607 17.2802C34.3697 17.2802 34.1866 17.3561 34.0516 17.4911C33.9166 17.6261 33.8407 17.8093 33.8407 18.0002C33.8407 18.1912 33.9166 18.3743 34.0516 18.5093C34.1866 18.6444 34.3697 18.7202 34.5607 18.7202C34.7517 18.7202 34.9348 18.6444 35.0698 18.5093C35.2048 18.3743 35.2807 18.1912 35.2807 18.0002C35.2807 17.8093 35.2048 17.6261 35.0698 17.4911C34.9348 17.3561 34.7517 17.2802 34.5607 17.2802ZM5.0407 18.0002H5.12367C5.30015 18.0002 5.46988 18.0645 5.6018 18.1816L5.81695 18.3729C5.86563 18.4167 5.92322 18.4887 5.97305 18.5768C6.57278 19.6365 7.35079 20.1295 8.04445 20.6496C8.42781 20.9371 8.9361 21.1911 9.38039 21.551C9.82468 21.9109 10.0821 22.2769 10.0821 22.5902C10.0821 23.8487 10.476 25.0538 10.8415 26.0946C11.207 27.1354 11.5221 28.0589 11.5221 28.4402V29.2207C7.6466 26.9843 5.0407 22.8036 5.0407 18.0002ZM2.00461 21.5665C1.81365 21.5665 1.63052 21.6423 1.49549 21.7773C1.36047 21.9124 1.28461 22.0955 1.28461 22.2865C1.28461 22.4774 1.36047 22.6606 1.49549 22.7956C1.63052 22.9306 1.81365 23.0065 2.00461 23.0065C2.19557 23.0065 2.3787 22.9306 2.51373 22.7956C2.64875 22.6606 2.72461 22.4774 2.72461 22.2865C2.72461 22.0955 2.64875 21.9124 2.51373 21.7773C2.3787 21.6423 2.19557 21.5665 2.00461 21.5665ZM33.9968 21.5665C33.8058 21.5665 33.6227 21.6423 33.4877 21.7773C33.3527 21.9124 33.2768 22.0955 33.2768 22.2865C33.2768 22.4774 33.3527 22.6606 33.4877 22.7956C33.6227 22.9306 33.8058 23.0065 33.9968 23.0065C34.1878 23.0065 34.3709 22.9306 34.5059 22.7956C34.6409 22.6606 34.7168 22.4774 34.7168 22.2865C34.7168 22.0955 34.6409 21.9124 34.5059 21.7773C34.3709 21.6423 34.1878 21.5665 33.9968 21.5665ZM11.2845 21.6002H12.7807H13.8607C14.2452 21.6002 14.4645 21.6292 14.7284 21.866C15.1707 22.2641 15.4269 22.5276 15.7816 22.7435C16.1364 22.9594 16.5663 23.0402 17.0107 23.0402C17.1271 23.0402 17.135 23.0611 17.1949 23.1429C17.2548 23.2247 17.2807 23.4306 17.2807 23.3102C17.2807 24.8345 16.2387 25.2762 16.2387 25.2762C16.154 25.3184 16.0786 25.3769 16.0166 25.4483C15.9545 25.5197 15.9072 25.6027 15.8773 25.6924C15.8529 25.7654 15.5042 26.6411 15.1629 27.6457C14.8737 28.4969 14.5761 29.4933 14.4035 30.4455C13.9088 30.3031 13.4306 30.1229 12.9621 29.9252V28.4402C12.9621 27.5255 12.5558 26.6259 12.2013 25.6165C11.8468 24.607 11.5221 23.535 11.5221 22.5902C11.5221 22.221 11.4298 21.8923 11.2845 21.6002ZM3.65836 25.5602C3.4674 25.5602 3.28427 25.6361 3.14924 25.7711C3.01422 25.9061 2.93836 26.0893 2.93836 26.2802C2.93836 26.4712 3.01422 26.6543 3.14924 26.7893C3.28427 26.9244 3.4674 27.0002 3.65836 27.0002C3.84932 27.0002 4.03245 26.9244 4.16748 26.7893C4.3025 26.6543 4.37836 26.4712 4.37836 26.2802C4.37836 26.0893 4.3025 25.9061 4.16748 25.7711C4.03245 25.6361 3.84932 25.5602 3.65836 25.5602ZM32.343 25.5602C32.1521 25.5602 31.969 25.6361 31.8339 25.7711C31.6989 25.9061 31.623 26.0893 31.623 26.2802C31.623 26.4712 31.6989 26.6543 31.8339 26.7893C31.969 26.9244 32.1521 27.0002 32.343 27.0002C32.534 27.0002 32.7171 26.9244 32.8522 26.7893C32.9872 26.6543 33.063 26.4712 33.063 26.2802C33.063 26.0893 32.9872 25.9061 32.8522 25.7711C32.7171 25.6361 32.534 25.5602 32.343 25.5602ZM6.29086 28.9901C6.0999 28.9901 5.91677 29.0659 5.78174 29.2009C5.64672 29.336 5.57086 29.5191 5.57086 29.7101C5.57086 29.901 5.64672 30.0841 5.78174 30.2192C5.91677 30.3542 6.0999 30.4301 6.29086 30.4301C6.48181 30.4301 6.66495 30.3542 6.79998 30.2192C6.935 30.0841 7.01086 29.901 7.01086 29.7101C7.01086 29.5191 6.935 29.336 6.79998 29.2009C6.66495 29.0659 6.48181 28.9901 6.29086 28.9901ZM29.7105 28.9901C29.5196 28.9901 29.3365 29.0659 29.2014 29.2009C29.0664 29.336 28.9905 29.5191 28.9905 29.7101C28.9905 29.901 29.0664 30.0841 29.2014 30.2192C29.3365 30.3542 29.5196 30.4301 29.7105 30.4301C29.9015 30.4301 30.0846 30.3542 30.2197 30.2192C30.3547 30.0841 30.4305 29.901 30.4305 29.7101C30.4305 29.5191 30.3547 29.336 30.2197 29.2009C30.0846 29.0659 29.9015 28.9901 29.7105 28.9901ZM9.7207 31.6226C9.52975 31.6226 9.34661 31.6984 9.21159 31.8334C9.07656 31.9685 9.0007 32.1516 9.0007 32.3426C9.0007 32.5335 9.07656 32.7166 9.21159 32.8517C9.34661 32.9867 9.52975 33.0626 9.7207 33.0626C9.91166 33.0626 10.0948 32.9867 10.2298 32.8517C10.3648 32.7166 10.4407 32.5335 10.4407 32.3426C10.4407 32.1516 10.3648 31.9685 10.2298 31.8334C10.0948 31.6984 9.91166 31.6226 9.7207 31.6226ZM26.2807 31.6226C26.0897 31.6226 25.9066 31.6984 25.7716 31.8334C25.6366 31.9685 25.5607 32.1516 25.5607 32.3426C25.5607 32.5335 25.6366 32.7166 25.7716 32.8517C25.9066 32.9867 26.0897 33.0626 26.2807 33.0626C26.4717 33.0626 26.6548 32.9867 26.7898 32.8517C26.9248 32.7166 27.0007 32.5335 27.0007 32.3426C27.0007 32.1516 26.9248 31.9685 26.7898 31.8334C26.6548 31.6984 26.4717 31.6226 26.2807 31.6226ZM13.7145 33.2763C13.5235 33.2763 13.3404 33.3522 13.2053 33.4872C13.0703 33.6222 12.9945 33.8054 12.9945 33.9963C12.9945 34.1873 13.0703 34.3704 13.2053 34.5054C13.3404 34.6404 13.5235 34.7163 13.7145 34.7163C13.9054 34.7163 14.0885 34.6404 14.2236 34.5054C14.3586 34.3704 14.4345 34.1873 14.4345 33.9963C14.4345 33.8054 14.3586 33.6222 14.2236 33.4872C14.0885 33.3522 13.9054 33.2763 13.7145 33.2763ZM22.287 33.2763C22.096 33.2763 21.9129 33.3522 21.7778 33.4872C21.6428 33.6222 21.567 33.8054 21.567 33.9963C21.567 34.1873 21.6428 34.3704 21.7778 34.5054C21.9129 34.6404 22.096 34.7163 22.287 34.7163C22.4779 34.7163 22.661 34.6404 22.7961 34.5054C22.9311 34.3704 23.007 34.1873 23.007 33.9963C23.007 33.8054 22.9311 33.6222 22.7961 33.4872C22.661 33.3522 22.4779 33.2763 22.287 33.2763ZM18.0007 33.8402C17.8097 33.8402 17.6266 33.9161 17.4916 34.0511C17.3566 34.1861 17.2807 34.3693 17.2807 34.5602C17.2807 34.7512 17.3566 34.9343 17.4916 35.0693C17.6266 35.2044 17.8097 35.2802 18.0007 35.2802C18.1917 35.2802 18.3748 35.2044 18.5098 35.0693C18.6448 34.9343 18.7207 34.7512 18.7207 34.5602C18.7207 34.3693 18.6448 34.1861 18.5098 34.0511C18.3748 33.9161 18.1917 33.8402 18.0007 33.8402Z" fill="white"/>
</svg>
