<svg width="28" height="22" viewBox="0 0 28 22" fill="none" xmlns="http://www.w3.org/2000/svg">
<path d="M13.44 0.360107V2.07292C11.3885 2.23506 10.1806 3.25453 9.59328 4.28229C8.95349 5.40193 8.96 6.52011 8.96 6.52011C8.96 7.94603 9.63945 9.01842 10.5667 9.77182C11.494 10.5252 12.6558 11.0231 13.7758 11.5131C14.8958 12.0031 15.974 12.4852 16.7267 13.0968C17.4795 13.7084 17.92 14.386 17.92 15.4801C17.92 15.4801 17.9135 16.3219 17.4333 17.1623C16.9531 18.0027 16.0767 18.8401 14 18.8401C11.9467 18.8401 11.0742 17.8961 10.5809 16.9096C10.0877 15.9232 10.08 14.9201 10.08 14.9201H8.96C8.96 14.9201 8.95228 16.157 9.57906 17.4106C10.1557 18.5638 11.3615 19.7499 13.44 19.9328V21.6401H14.56V19.9273C16.6115 19.7652 17.8194 18.7457 18.4067 17.7179C19.0465 16.5983 19.04 15.4801 19.04 15.4801C19.04 14.0542 18.3605 12.9818 17.4333 12.2284C16.506 11.475 15.3442 10.9771 14.2242 10.4871C13.1042 9.99714 12.026 9.51498 11.2733 8.90339C10.5205 8.29179 10.08 7.61418 10.08 6.52011C10.08 6.52011 10.0865 5.67829 10.5667 4.83792C11.0469 3.99755 11.9233 3.16011 14 3.16011C16.0533 3.16011 16.9258 4.10414 17.4191 5.09058C17.9123 6.07701 17.92 7.08011 17.92 7.08011H19.04C19.04 7.08011 19.0477 5.84321 18.4209 4.58964C17.8443 3.43637 16.6385 2.25035 14.56 2.06745V0.360107H13.44ZM22.9348 2.03464C22.8235 2.03856 22.7159 2.0756 22.6257 2.14102C22.5355 2.20645 22.4669 2.29728 22.4286 2.40191C22.3903 2.50654 22.3841 2.62021 22.4108 2.72838C22.4374 2.83655 22.4958 2.93432 22.5783 3.00917L25.7392 5.96011H20.0517C20.1223 6.34819 20.16 6.72675 20.16 7.08011H25.7392L22.5783 10.031C22.5207 10.0801 22.4737 10.1404 22.4401 10.2081C22.4065 10.2759 22.3869 10.3498 22.3826 10.4253C22.3783 10.5008 22.3894 10.5764 22.4151 10.6476C22.4408 10.7187 22.4807 10.7839 22.5323 10.8392C22.5839 10.8945 22.6462 10.9388 22.7154 10.9694C22.7846 10.9999 22.8592 11.0162 22.9349 11.0171C23.0105 11.0181 23.0856 11.0037 23.1555 10.9748C23.2254 10.9459 23.2888 10.9032 23.3417 10.8492L27.9803 6.52011L23.3417 2.19104C23.2878 2.1391 23.224 2.0985 23.1541 2.07163C23.0842 2.04477 23.0097 2.03219 22.9348 2.03464ZM1.12 5.96011C0.81032 5.96011 0.56 6.21043 0.56 6.52011C0.56 6.82979 0.81032 7.08011 1.12 7.08011H7.87063C7.85326 6.89867 7.84 6.71387 7.84 6.52011C7.84 6.34035 7.85425 6.15163 7.87609 5.96011H1.12ZM5.02906 10.9946C4.88358 10.999 4.74549 11.0598 4.64406 11.1642L0.328125 15.4801L4.64406 19.796C4.69566 19.8498 4.75747 19.8927 4.82586 19.9223C4.89425 19.9518 4.96786 19.9674 5.04236 19.9682C5.11686 19.9689 5.19077 19.9548 5.25975 19.9267C5.32873 19.8985 5.39139 19.8569 5.44408 19.8042C5.49676 19.7515 5.5384 19.6888 5.56657 19.6199C5.59473 19.5509 5.60884 19.477 5.60808 19.4025C5.60733 19.328 5.59171 19.2544 5.56215 19.186C5.53259 19.1176 5.48968 19.0558 5.43594 19.0042L2.47187 16.0401H7.94828C7.87772 15.652 7.84 15.2735 7.84 14.9201H2.47187L5.43594 11.956C5.51686 11.8774 5.57213 11.7761 5.59451 11.6655C5.61688 11.5549 5.60532 11.4401 5.56134 11.3362C5.51736 11.2322 5.443 11.144 5.34802 11.0831C5.25304 11.0221 5.14187 10.9913 5.02906 10.9946ZM20.1294 14.9201C20.1467 15.1015 20.16 15.2863 20.16 15.4801C20.16 15.6599 20.1457 15.8486 20.1239 16.0401H27.16C27.4697 16.0401 27.72 15.7898 27.72 15.4801C27.72 15.1704 27.4697 14.9201 27.16 14.9201H20.1294Z" fill="#0B111A"/>
</svg>
