<svg width="26" height="26" viewBox="0 0 26 26" fill="none" xmlns="http://www.w3.org/2000/svg">
<path d="M13.0001 0.120117C5.89332 0.120117 0.120117 5.89332 0.120117 13.0001C0.120117 20.1069 5.89332 25.8801 13.0001 25.8801C20.1069 25.8801 25.8801 20.1069 25.8801 13.0001C25.8801 5.89332 20.1069 0.120117 13.0001 0.120117ZM12.4401 1.30574V6.26809H8.43262C8.64415 5.64411 8.88314 5.06406 9.14574 4.53887C10.0673 2.69571 11.2351 1.57368 12.4401 1.30574ZM13.5601 1.30574C14.7651 1.57368 15.9329 2.69571 16.8545 4.53887C17.1171 5.06406 17.3561 5.64411 17.5676 6.26809H13.5601V1.30574ZM9.74183 1.69949C9.13826 2.33325 8.60005 3.12555 8.14387 4.03793C7.80582 4.71403 7.5128 5.4659 7.25902 6.26809H3.36199C4.88509 4.09009 7.12267 2.45176 9.74183 1.69949ZM16.2584 1.69949C18.8776 2.45176 21.1151 4.09009 22.6382 6.26809H18.7412C18.4874 5.4659 18.1944 4.71403 17.8564 4.03793C17.4002 3.12555 16.862 2.33325 16.2584 1.69949ZM2.64777 7.41215H6.93746C6.55745 8.94565 6.33676 10.6454 6.29652 12.4401H1.25762C1.3427 10.6261 1.83356 8.91922 2.64777 7.41215ZM8.09355 7.41215H12.4401V12.4401H7.41762C7.46054 10.6274 7.69716 8.9179 8.09355 7.41215ZM13.5601 7.41215H17.9067C18.3031 8.9179 18.5397 10.6274 18.5826 12.4401H13.5601V7.41215ZM19.0628 7.41215H23.3525C24.1667 8.91922 24.6575 10.6261 24.7426 12.4401H19.7037C19.6635 10.6454 19.4428 8.94565 19.0628 7.41215ZM1.26309 13.5601H6.29434C6.33358 15.3565 6.55733 17.0541 6.93746 18.5881H2.64887C1.83437 17.0816 1.34829 15.374 1.26309 13.5601ZM7.41434 13.5601H12.4401V18.5881H8.09355C7.69699 17.0817 7.45656 15.3743 7.41434 13.5601ZM13.5601 13.5601H18.5859C18.5437 15.3743 18.3032 17.0817 17.9067 18.5881H13.5601V13.5601ZM19.7059 13.5601H24.7371C24.6519 15.374 24.1659 17.0816 23.3514 18.5881H19.0628C19.4429 17.0541 19.6667 15.3565 19.7059 13.5601ZM3.36527 19.7321H7.25902C7.5128 20.5343 7.80582 21.2862 8.14387 21.9623C8.60005 22.8747 9.13826 23.667 9.74183 24.3007C7.12358 23.5487 4.88863 21.9082 3.36527 19.7321ZM8.43262 19.7321H12.4401V24.6945C11.2351 24.4265 10.0673 23.3045 9.14574 21.4614C8.88314 20.9362 8.64415 20.3561 8.43262 19.7321ZM13.5601 19.7321H17.5676C17.3561 20.3561 17.1171 20.9362 16.8545 21.4614C15.9329 23.3045 14.7651 24.4265 13.5601 24.6945V19.7321ZM18.7412 19.7321H22.635C21.1116 21.9082 18.8767 23.5487 16.2584 24.3007C16.862 23.667 17.4002 22.8747 17.8564 21.9623C18.1944 21.2862 18.4874 20.5343 18.7412 19.7321Z" fill="#0B111A"/>
</svg>
