<svg width="36" height="36" viewBox="0 0 36 36" fill="none" xmlns="http://www.w3.org/2000/svg">
<path d="M18.0004 1C8.86312 1 1.44043 8.42269 1.44043 17.56C1.44043 26.6973 8.86312 34.12 18.0004 34.12C27.1377 34.12 34.5604 26.6973 34.5604 17.56C34.5604 8.42269 27.1377 1 18.0004 1ZM18.0004 2.44C26.3595 2.44 33.1204 9.20093 33.1204 17.56C33.1204 25.9191 26.3595 32.68 18.0004 32.68C9.64136 32.68 2.88043 25.9191 2.88043 17.56C2.88043 9.20093 9.64136 2.44 18.0004 2.44Z" fill="white"/>
<path fill-rule="evenodd" clip-rule="evenodd" d="M7.12736 20.7712L11.2789 25V22.9673L8.12418 19.7542C7.17267 18.7852 7.17267 17.2125 8.12418 16.2435L11.28 13.0327V11L7.12736 15.2277C5.62421 16.7583 5.62421 19.2405 7.12736 20.7712ZM11.0112 11.6652L7.31526 15.4279C5.91998 16.8487 5.91998 19.1501 7.31526 20.5709L11.0101 24.3346V23.0851L7.93626 19.9544C6.87692 18.8755 6.87691 17.1221 7.93626 16.0432L11.0112 12.9148L11.0112 11.6652Z" fill="white"/>
<path fill-rule="evenodd" clip-rule="evenodd" d="M28.8726 20.7712L24.7211 25V22.9673L27.8758 19.7542C28.8273 18.7852 28.8273 17.2125 27.8758 16.2435L24.72 13.0327V11L28.8726 15.2277C30.3758 16.7583 30.3758 19.2405 28.8726 20.7712ZM24.9888 11.6652L28.6847 15.4279C30.08 16.8487 30.08 19.1501 28.6847 20.5709L24.9899 24.3346V23.0851L28.0637 19.9544C29.1231 18.8755 29.1231 17.1221 28.0637 16.0432L24.9888 12.9148V11.6652Z" fill="white"/>
<path d="M12.24 22.9749V25L16.3982 20.7614C17.8939 19.2365 17.8939 16.7647 16.3982 15.2386L12.2412 11V13.0251L15.4051 16.2518C16.352 17.2172 16.352 18.784 15.4051 19.7494L12.24 22.9749Z" fill="white"/>
<path d="M23.76 22.9749V25L19.6018 20.7614C18.1061 19.2365 18.1061 16.7647 19.6018 15.2386L23.7588 11V13.0251L20.5949 16.2518C19.648 17.2172 19.648 18.784 20.5949 19.7494L23.76 22.9749Z" fill="white"/>
</svg>
