<svg width="22" height="20" viewBox="0 0 22 20" fill="none" xmlns="http://www.w3.org/2000/svg">
<path d="M11 0.76001C10.5147 0.76001 10.0814 1.01432 9.83982 1.43892L0.61873 17.6545C0.37629 18.0808 0.379625 18.589 0.626465 19.0131C0.869345 19.4307 1.30015 19.68 1.77975 19.68H20.2202C20.6998 19.68 21.1306 19.4307 21.3735 19.0131C21.6203 18.589 21.6237 18.0813 21.3812 17.6545L12.1601 1.43892C11.9186 1.01432 11.4853 0.76001 11 0.76001ZM3.96084 1.63485C3.87693 1.63385 3.79449 1.65686 3.72323 1.70117C3.65197 1.74547 3.59486 1.80923 3.55864 1.88492C3.52242 1.96062 3.5086 2.04509 3.5188 2.12837C3.52901 2.21166 3.56281 2.2903 3.61623 2.35501L5.37623 4.55501C5.41234 4.60017 5.45699 4.63777 5.50763 4.66567C5.55827 4.69358 5.61392 4.71123 5.67138 4.71762C5.72885 4.72401 5.78701 4.71902 5.84255 4.70293C5.89808 4.68685 5.94991 4.65997 5.99506 4.62385C6.04021 4.58773 6.0778 4.54307 6.10569 4.49242C6.13357 4.44177 6.15121 4.38612 6.15759 4.32866C6.16396 4.27119 6.15896 4.21303 6.14285 4.1575C6.12675 4.10197 6.09986 4.05015 6.06373 4.00501L4.30373 1.80501C4.26308 1.75265 4.21113 1.71016 4.15176 1.68069C4.09238 1.65123 4.02712 1.63556 3.96084 1.63485ZM18.0262 1.63571C17.9622 1.63821 17.8995 1.65465 17.8425 1.6839C17.7855 1.71314 17.7356 1.75447 17.6962 1.80501L15.9362 4.00501C15.9001 4.05015 15.8732 4.10197 15.8571 4.1575C15.841 4.21303 15.836 4.27119 15.8424 4.32866C15.8488 4.38612 15.8664 4.44177 15.8943 4.49242C15.9222 4.54307 15.9598 4.58773 16.0049 4.62385C16.0501 4.65997 16.1019 4.68685 16.1574 4.70293C16.213 4.71902 16.2711 4.72401 16.3286 4.71762C16.386 4.71123 16.4417 4.69358 16.4923 4.66567C16.543 4.63777 16.5876 4.60017 16.6237 4.55501L18.3837 2.35501C18.4377 2.28944 18.4715 2.20967 18.4811 2.1253C18.4908 2.04094 18.4758 1.95559 18.438 1.87955C18.4002 1.80351 18.3412 1.74003 18.2682 1.69676C18.1951 1.6535 18.1111 1.6323 18.0262 1.63571ZM1.30451 4.71743C1.20576 4.71969 1.11063 4.75511 1.03445 4.818C0.958268 4.88088 0.905461 4.96756 0.884526 5.0641C0.863591 5.16064 0.875747 5.26142 0.919037 5.35021C0.962328 5.439 1.03423 5.51064 1.12318 5.5536L3.76318 6.8736C3.86757 6.9258 3.98842 6.93439 4.09914 6.89748C4.20986 6.86057 4.30138 6.78119 4.35357 6.67681C4.40577 6.57242 4.41436 6.45157 4.37745 6.34085C4.34054 6.23013 4.26116 6.13861 4.15678 6.08642L1.51678 4.76642C1.45125 4.73256 1.37825 4.71571 1.30451 4.71743ZM20.6817 4.71743C20.6126 4.71795 20.5446 4.73473 20.4832 4.76642L17.8432 6.08642C17.7915 6.11225 17.7454 6.14802 17.7075 6.19168C17.6696 6.23533 17.6407 6.28602 17.6225 6.34085C17.6042 6.39568 17.5969 6.45357 17.601 6.51122C17.6051 6.56887 17.6205 6.62515 17.6463 6.67684C17.6722 6.72853 17.7079 6.77463 17.7516 6.81249C17.7953 6.85036 17.846 6.87925 17.9008 6.89752C17.9556 6.9158 18.0135 6.92309 18.0712 6.91898C18.1288 6.91488 18.1851 6.89946 18.2368 6.8736L20.8768 5.5536C20.9667 5.5101 21.0392 5.43727 21.0823 5.3471C21.1253 5.25693 21.1364 5.15479 21.1137 5.05748C21.091 4.96018 21.0359 4.87349 20.9574 4.81169C20.8788 4.74988 20.7816 4.71664 20.6817 4.71743ZM10.5591 6.92001H11.4408C11.6842 6.92001 11.88 7.11713 11.88 7.36001V13.52C11.88 13.7629 11.6829 13.96 11.44 13.96H10.5583C10.3149 13.96 10.12 13.7629 10.12 13.52V7.36001C10.12 7.11713 10.3162 6.92001 10.5591 6.92001ZM0.43998 8.68001C0.381675 8.67918 0.323787 8.68996 0.269681 8.7117C0.215575 8.73344 0.16633 8.76572 0.124807 8.80666C0.0832845 8.8476 0.0503126 8.89638 0.0278076 8.95018C0.00530263 9.00397 -0.00628662 9.0617 -0.00628662 9.12001C-0.00628662 9.17832 0.00530263 9.23605 0.0278076 9.28984C0.0503126 9.34364 0.0832845 9.39242 0.124807 9.43336C0.16633 9.4743 0.215575 9.50658 0.269681 9.52832C0.323787 9.55006 0.381675 9.56083 0.43998 9.56001H3.07998C3.13829 9.56083 3.19617 9.55006 3.25028 9.52832C3.30439 9.50658 3.35363 9.4743 3.39515 9.43336C3.43668 9.39242 3.46965 9.34364 3.49215 9.28984C3.51466 9.23605 3.52625 9.17832 3.52625 9.12001C3.52625 9.0617 3.51466 9.00397 3.49215 8.95018C3.46965 8.89638 3.43668 8.8476 3.39515 8.80666C3.35363 8.76572 3.30439 8.73344 3.25028 8.7117C3.19617 8.68996 3.13829 8.67918 3.07998 8.68001H0.43998ZM18.92 8.68001C18.8617 8.67918 18.8038 8.68996 18.7497 8.7117C18.6956 8.73344 18.6463 8.76572 18.6048 8.80666C18.5633 8.8476 18.5303 8.89638 18.5078 8.95018C18.4853 9.00397 18.4737 9.0617 18.4737 9.12001C18.4737 9.17832 18.4853 9.23605 18.5078 9.28984C18.5303 9.34364 18.5633 9.39242 18.6048 9.43336C18.6463 9.4743 18.6956 9.50658 18.7497 9.52832C18.8038 9.55006 18.8617 9.56083 18.92 9.56001H21.56C21.6183 9.56083 21.6762 9.55006 21.7303 9.52832C21.7844 9.50658 21.8336 9.4743 21.8752 9.43336C21.9167 9.39242 21.9497 9.34364 21.9722 9.28984C21.9947 9.23605 22.0063 9.17832 22.0063 9.12001C22.0063 9.0617 21.9947 9.00397 21.9722 8.95018C21.9497 8.89638 21.9167 8.8476 21.8752 8.80666C21.8336 8.76572 21.7844 8.73344 21.7303 8.7117C21.6762 8.68996 21.6183 8.67918 21.56 8.68001H18.92ZM10.5591 15.28H11.4408C11.6842 15.28 11.88 15.4771 11.88 15.72V16.6C11.88 16.8429 11.6837 17.04 11.4408 17.04H10.5591C10.3162 17.04 10.12 16.8429 10.12 16.6V15.72C10.12 15.4771 10.3162 15.28 10.5591 15.28Z" fill="white"/>
</svg>
