<svg width="34" height="24" viewBox="0 0 34 24" fill="none" xmlns="http://www.w3.org/2000/svg">
<path d="M3.31994 0.47998C1.7365 0.47998 0.439941 1.77654 0.439941 3.35998V20.64C0.439941 22.2234 1.7365 23.52 3.31994 23.52H30.6799C32.2634 23.52 33.5599 22.2234 33.5599 20.64V3.35998C33.5599 1.77654 32.2634 0.47998 30.6799 0.47998H3.31994ZM3.31994 1.91998H30.6799C31.4843 1.91998 32.1199 2.55561 32.1199 3.35998V20.64C32.1199 21.4444 31.4843 22.08 30.6799 22.08H3.31994C2.51557 22.08 1.87994 21.4444 1.87994 20.64V3.35998C1.87994 2.55561 2.51557 1.91998 3.31994 1.91998ZM11.1724 4.79998C9.57494 4.82811 8.44713 5.58467 7.99994 6.64498C7.60338 7.58998 7.68213 8.65592 7.90994 9.68248C7.90432 9.69092 7.91557 9.69654 7.90994 9.70498C7.78338 9.92154 7.67088 10.2422 7.68494 10.6275C7.70463 11.1815 7.90994 11.5978 8.13494 11.865C8.25307 12.0056 8.30369 12.0197 8.40494 12.09C8.52025 12.4472 8.64682 12.81 8.83244 13.0575C8.95619 13.2234 9.09682 13.3022 9.21494 13.4175C9.22338 13.724 9.23182 14.0081 9.21494 14.295C9.15588 14.4103 9.05182 14.534 8.71994 14.7C8.35713 14.8828 7.82838 15.0684 7.27994 15.3075C6.7315 15.5465 6.14932 15.8447 5.65994 16.3425C5.17057 16.8403 4.81338 17.5547 4.75994 18.435C4.74869 18.6347 4.819 18.8287 4.954 18.9722C5.09182 19.1184 5.28025 19.2 5.47994 19.2H16.9999C17.1996 19.2 17.3881 19.1184 17.5259 18.9722C17.6609 18.8287 17.7312 18.6347 17.7199 18.435C17.6665 17.5547 17.3093 16.8403 16.8199 16.3425C16.3306 15.8447 15.7484 15.5465 15.1999 15.3075C14.6515 15.0684 14.1228 14.8828 13.7599 14.7C13.414 14.5256 13.2931 14.3906 13.2424 14.2725C13.2284 13.994 13.2565 13.7156 13.2649 13.4175C13.3999 13.2881 13.5715 13.2065 13.6924 13.035C13.8696 12.779 13.9765 12.4162 14.0749 12.0675C14.3168 11.8875 14.7724 11.4994 14.7724 10.695C14.7724 10.3575 14.6037 10.1522 14.5024 9.90748C14.6712 9.35342 14.8849 8.52654 14.7949 7.63498C14.7443 7.14842 14.6093 6.64779 14.2549 6.21748C13.9624 5.86029 13.4731 5.66342 12.9499 5.58748C12.5337 5.13186 11.9543 4.79998 11.1949 4.79998C11.1865 4.79998 11.1809 4.79998 11.1724 4.79998ZM11.1949 6.23998C11.2062 6.23998 11.2062 6.23998 11.2174 6.23998C11.6731 6.25123 11.9796 6.51561 12.0274 6.59998C12.154 6.81654 12.3846 6.95436 12.6349 6.95998C12.9584 6.95998 13.0371 7.02748 13.1299 7.13998C13.2228 7.25248 13.324 7.48029 13.3549 7.79248C13.4168 8.41686 13.2256 9.28029 13.1074 9.63748C13.0259 9.87654 13.0765 10.1437 13.2424 10.335C13.234 10.3434 13.3324 10.5065 13.3324 10.695C13.3324 10.8272 13.1074 11.0325 13.1074 11.0325C12.9274 11.1394 12.8065 11.3222 12.7699 11.5275C12.7362 11.7637 12.6321 12.014 12.4999 12.2025C12.3678 12.3909 12.1906 12.5372 12.2299 12.5175C11.9881 12.6356 11.8306 12.8775 11.8249 13.1475C11.8249 13.5694 11.7715 13.98 11.8249 14.565C11.8334 14.6269 11.8474 14.6859 11.8699 14.745C12.1062 15.375 12.6321 15.7322 13.1299 15.9825C13.6278 16.2328 14.1368 16.4269 14.6149 16.635C15.0931 16.8431 15.5065 17.0709 15.7849 17.355C15.8806 17.4534 15.8946 17.6419 15.9649 17.76H6.51494C6.58525 17.6419 6.59932 17.4534 6.69494 17.355C6.97338 17.0709 7.38682 16.8431 7.86494 16.635C8.34307 16.4269 8.85213 16.2328 9.34994 15.9825C9.84775 15.7322 10.3765 15.3778 10.6099 14.745C10.6324 14.6859 10.6465 14.6269 10.6549 14.565C10.7084 13.9772 10.6549 13.5694 10.6549 13.1475C10.6578 12.8887 10.5199 12.6469 10.2949 12.5175C10.3062 12.5287 10.3006 12.5315 10.2724 12.5175C10.2303 12.4781 10.0896 12.3487 9.97994 12.2025C9.82525 11.9972 9.69025 11.7187 9.66494 11.5275C9.62838 11.2912 9.4765 11.0887 9.25994 10.9875C9.25994 10.9875 9.28525 10.9987 9.23744 10.9425C9.18963 10.8862 9.13338 10.799 9.12494 10.56C9.12213 10.4869 9.19244 10.38 9.19244 10.38C9.37244 10.1972 9.44275 9.92998 9.37244 9.68248C9.11932 8.70936 9.08557 7.78123 9.32744 7.20748C9.5665 6.63936 9.99119 6.26811 11.1949 6.23998ZM19.7449 7.67998C19.3484 7.71654 19.0559 8.07092 19.0924 8.46748C19.129 8.86404 19.4834 9.15654 19.8799 9.11998H28.5199C28.7787 9.12279 29.0206 8.98779 29.1528 8.76279C29.2821 8.53779 29.2821 8.26217 29.1528 8.03717C29.0206 7.81217 28.7787 7.67717 28.5199 7.67998H19.8799C19.8574 7.67998 19.8349 7.67998 19.8124 7.67998C19.7899 7.67998 19.7674 7.67998 19.7449 7.67998ZM19.7449 11.28C19.3484 11.3165 19.0559 11.6709 19.0924 12.0675C19.129 12.464 19.4834 12.7565 19.8799 12.72H28.5199C28.7787 12.7228 29.0206 12.5878 29.1528 12.3628C29.2821 12.1378 29.2821 11.8622 29.1528 11.6372C29.0206 11.4122 28.7787 11.2772 28.5199 11.28H19.8799C19.8574 11.28 19.8349 11.28 19.8124 11.28C19.7899 11.28 19.7674 11.28 19.7449 11.28ZM19.7449 14.88C19.3484 14.9165 19.0559 15.2709 19.0924 15.6675C19.129 16.064 19.4834 16.3565 19.8799 16.32H28.5199C28.7787 16.3228 29.0206 16.1878 29.1528 15.9628C29.2821 15.7378 29.2821 15.4622 29.1528 15.2372C29.0206 15.0122 28.7787 14.8772 28.5199 14.88H19.8799C19.8574 14.88 19.8349 14.88 19.8124 14.88C19.7899 14.88 19.7674 14.88 19.7449 14.88Z" fill="white"/>
</svg>
