<svg width="24" height="26" viewBox="0 0 24 26" fill="none" xmlns="http://www.w3.org/2000/svg">
<path d="M9.96233 0.120117C6.90961 0.120117 4.94779 1.52998 4.33499 3.04371C1.93064 3.55496 0.23999 6.18533 0.23999 9.07902C0.23999 10.2702 0.585557 11.4627 1.1839 12.7868C0.695157 13.3848 0.23999 14.1346 0.23999 15.2401C0.23999 16.6891 1.18875 18.0851 2.87921 18.8626C2.3483 20.0979 2.46212 21.2895 3.09468 22.1373C3.7517 23.0179 4.85575 23.4762 6.04124 23.5668C6.40062 24.5108 7.04791 25.1665 7.76499 25.4787C8.58168 25.8342 9.41726 25.8801 9.96233 25.8801C10.7957 25.8801 11.5263 25.4873 12.0011 24.8782C12.4756 25.4838 13.204 25.8741 14.0333 25.8801H14.0344C14.5497 25.8838 15.3819 25.8368 16.2055 25.482C16.9162 25.1758 17.5624 24.5311 17.9325 23.6117C18.8277 23.5828 19.7539 23.4502 20.5389 23.0079C21.4209 22.511 22.08 21.5705 22.08 20.2801C22.08 19.7756 21.8981 19.3099 21.683 18.8418C22.4021 18.4843 22.9687 18.0267 23.2787 17.4615C23.6696 16.7491 23.76 15.9681 23.76 15.2401C23.76 14.1239 23.2328 13.4524 22.7209 12.9039C23.3282 11.5799 23.7798 10.3002 23.76 9.07027C23.7079 5.80302 21.5061 3.50944 19.1181 3.03496C18.586 1.63615 17.0728 0.120117 14.0376 0.120117C13.2738 0.120117 12.5316 0.316359 12.0634 0.919648C12.0403 0.949399 12.0216 0.982757 12 1.01371C11.9784 0.982757 11.9596 0.949399 11.9366 0.919648C11.4684 0.316359 10.7262 0.120117 9.96233 0.120117ZM9.96233 1.24012C10.5665 1.24012 10.8429 1.33638 11.0517 1.60543C11.2605 1.87448 11.44 2.47846 11.44 3.58402V6.74605C11.43 6.80653 11.43 6.86824 11.44 6.92871V9.08012H9.75999V6.28012H7.41499C7.18127 5.63201 6.56416 5.16012 5.83999 5.16012C4.91879 5.16012 4.15999 5.91891 4.15999 6.84012C4.15999 7.76132 4.91879 8.52012 5.83999 8.52012C6.56416 8.52012 7.18127 8.04822 7.41499 7.40012H8.63999V10.2001H11.44V14.6801H7.51999V18.1451C6.87189 18.3788 6.39999 18.9959 6.39999 19.7201C6.39999 20.6413 7.15879 21.4001 8.07999 21.4001C9.0012 21.4001 9.75999 20.6413 9.75999 19.7201C9.75999 18.9959 9.2881 18.3788 8.63999 18.1451V15.8001H11.44V19.6261C11.43 19.6865 11.43 19.7482 11.44 19.8087V23.2661C11.44 24.1825 10.8466 24.7601 9.96233 24.7601C9.49045 24.7601 8.79649 24.706 8.21233 24.4517C7.62818 24.1974 7.15441 23.7992 6.94358 22.9456L6.83858 22.5201H6.39999C5.37301 22.5201 4.45883 22.0928 3.99265 21.4679C3.52647 20.8431 3.40307 20.0264 4.08124 18.8867L4.43562 18.2906L3.77827 18.0696C2.0693 17.4953 1.35999 16.3467 1.35999 15.2401C1.35999 14.2771 1.71743 13.7914 2.22296 13.2386L2.44062 13.0001H4.26499C4.49871 13.6482 5.11582 14.1201 5.83999 14.1201C6.7612 14.1201 7.51999 13.3613 7.51999 12.4401C7.51999 11.5189 6.7612 10.7601 5.83999 10.7601C5.11582 10.7601 4.49871 11.232 4.26499 11.8801H1.99437C1.5699 10.8461 1.35999 9.95443 1.35999 9.07902C1.35999 6.50871 2.97025 4.25901 4.7878 4.03574L5.15749 3.9909L5.25812 3.63324C5.50882 2.75161 7.09393 1.24012 9.96233 1.24012ZM14.0376 1.24012C16.9061 1.24012 17.8883 2.60242 18.1819 3.63324L18.2836 3.9909L18.6522 4.03574C20.5404 4.26768 22.5937 6.18476 22.64 9.08887C22.6566 10.1194 22.235 11.3759 21.5747 12.7584L21.4051 13.1139L21.6808 13.3928C22.2645 13.985 22.64 14.3001 22.64 15.2401C22.64 15.8712 22.5539 16.4531 22.2966 16.9223C22.1326 17.2212 21.8848 17.485 21.52 17.7131V15.2401H16.48V13.4551C17.1281 13.2214 17.6 12.6043 17.6 11.8801C17.6 10.9589 16.8412 10.2001 15.92 10.2001C14.9988 10.2001 14.24 10.9589 14.24 11.8801C14.24 12.6043 14.7119 13.2214 15.36 13.4551V16.3601H20.4V18.5203C20.3807 18.6481 20.4062 18.7788 20.4722 18.89C20.4725 18.8903 20.4729 18.8907 20.4733 18.8911C20.7635 19.4835 20.96 19.9859 20.96 20.2801C20.96 21.2298 20.5978 21.6892 19.9887 22.0323C19.3797 22.3754 18.4823 22.5201 17.6 22.5201H17.1614L17.0564 22.9456C16.8471 23.7931 16.3582 24.1972 15.7625 24.4539C15.1668 24.7105 14.4698 24.7632 14.042 24.7601C13.153 24.7537 12.56 24.1825 12.56 23.2661V20.2801H14.905C15.1387 20.9282 15.7558 21.4001 16.48 21.4001C17.4012 21.4001 18.16 20.6413 18.16 19.7201C18.16 18.7989 17.4012 18.0401 16.48 18.0401C15.7558 18.0401 15.1387 18.512 14.905 19.1601H12.56V15.3342C12.57 15.2737 12.57 15.212 12.56 15.1515V9.73418C12.57 9.6737 12.57 9.612 12.56 9.55152V7.40012H17.145C17.3787 8.04822 17.9958 8.52012 18.72 8.52012C19.6412 8.52012 20.4 7.76132 20.4 6.84012C20.4 5.91891 19.6412 5.16012 18.72 5.16012C17.9958 5.16012 17.3787 5.63201 17.145 6.28012H12.56V3.58402C12.56 2.47846 12.7395 1.87448 12.9483 1.60543C13.157 1.33638 13.4335 1.24012 14.0376 1.24012ZM5.83999 6.28012C6.14454 6.28012 6.37671 6.50905 6.39343 6.8084C6.39219 6.82989 6.39219 6.85144 6.39343 6.87293C6.37618 7.17173 6.14416 7.40012 5.83999 7.40012C5.52408 7.40012 5.27999 7.15603 5.27999 6.84012C5.27999 6.52421 5.52408 6.28012 5.83999 6.28012ZM18.72 6.28012C19.0359 6.28012 19.28 6.52421 19.28 6.84012C19.28 7.15603 19.0359 7.40012 18.72 7.40012C18.4154 7.40012 18.1833 7.17118 18.1666 6.87184C18.1678 6.85034 18.1678 6.8288 18.1666 6.8073C18.1838 6.50851 18.4158 6.28012 18.72 6.28012ZM15.92 11.3201C16.2359 11.3201 16.48 11.5642 16.48 11.8801C16.48 12.1847 16.2511 12.4168 15.9517 12.4336C15.9382 12.4327 15.9247 12.4323 15.9112 12.4325C15.9032 12.4327 15.8952 12.433 15.8872 12.4336C15.5884 12.4163 15.36 12.1843 15.36 11.8801C15.36 11.5642 15.6041 11.3201 15.92 11.3201ZM5.83999 11.8801C6.1559 11.8801 6.39999 12.1242 6.39999 12.4401C6.39999 12.756 6.1559 13.0001 5.83999 13.0001C5.53545 13.0001 5.30327 12.7712 5.28655 12.4718C5.28779 12.4503 5.28779 12.4288 5.28655 12.4073C5.3038 12.1085 5.53582 11.8801 5.83999 11.8801ZM16.48 19.1601C16.7959 19.1601 17.04 19.4042 17.04 19.7201C17.04 20.036 16.7959 20.2801 16.48 20.2801C16.1754 20.2801 15.9433 20.0512 15.9266 19.7518C15.9278 19.7303 15.9278 19.7088 15.9266 19.6873C15.9438 19.3885 16.1758 19.1601 16.48 19.1601ZM8.04827 19.1667C8.06977 19.1679 8.09131 19.1679 8.1128 19.1667C8.4116 19.1839 8.63999 19.4159 8.63999 19.7201C8.63999 20.036 8.3959 20.2801 8.07999 20.2801C7.76408 20.2801 7.51999 20.036 7.51999 19.7201C7.51999 19.4156 7.74893 19.1834 8.04827 19.1667Z" fill="#2864FF"/>
</svg>
