<svg width="34" height="34" viewBox="0 0 34 34" fill="none" xmlns="http://www.w3.org/2000/svg">
<path d="M7.50506 0.439941C7.16194 0.504629 6.91444 0.808379 6.92006 1.15994V16.2799H1.16006C0.864751 16.2743 0.591939 16.4487 0.479439 16.7215C0.364126 16.9943 0.428814 17.3121 0.642564 17.5174L16.4826 33.3574C16.6176 33.4981 16.806 33.5768 17.0001 33.5768C17.1941 33.5768 17.3826 33.4981 17.5176 33.3574L33.3576 17.5174C33.5713 17.3121 33.636 16.9943 33.5207 16.7215C33.4082 16.4487 33.1354 16.2743 32.8401 16.2799H27.0801V1.15994C27.0801 0.763379 26.7566 0.439941 26.3601 0.439941H7.64006C7.61756 0.439941 7.59506 0.439941 7.57256 0.439941C7.55006 0.439941 7.52756 0.439941 7.50506 0.439941ZM8.36006 1.87994H25.6401V16.9999C25.6401 17.3965 25.9635 17.7199 26.3601 17.7199H31.0851L17.0001 31.8049L2.91506 17.7199H7.64006C8.03663 17.7199 8.36006 17.3965 8.36006 16.9999V1.87994ZM16.2801 6.91994V8.51744C15.0932 8.65807 13.0176 9.63682 13.0176 12.1174C13.0176 16.7328 19.7451 14.3393 19.7451 17.8324C19.7451 19.0081 19.2276 20.0374 17.0001 20.0374C14.7501 20.0374 14.1398 18.3274 14.1426 17.3599H12.6576C12.8994 20.4734 15.0454 21.1821 16.2801 21.3649V22.7599H17.7201V21.3874C18.7888 21.2834 21.2976 20.5099 21.2976 17.6749C21.2976 15.2928 19.3598 14.6262 17.4951 14.1874C15.9594 13.8274 14.5926 13.4309 14.5926 11.9599C14.5926 11.3046 14.8513 9.86744 17.0001 9.86744C18.4851 9.86744 19.2219 10.7956 19.4526 11.9374H20.9151C20.4819 10.3399 19.8013 8.91119 17.7201 8.56244V6.91994H16.2801Z" fill="white"/>
</svg>
