<svg width="22" height="22" viewBox="0 0 22 22" fill="none" xmlns="http://www.w3.org/2000/svg">
<path d="M11 0.883545C5.41609 0.883545 0.880005 5.41963 0.880005 11.0035C0.880005 16.3295 5.00778 20.6991 10.2343 21.0917C10.2446 21.0926 10.2549 21.0935 10.2652 21.0943C10.5083 21.1118 10.7526 21.1235 11 21.1235C11.2474 21.1235 11.4917 21.1118 11.7348 21.0943C11.7451 21.0935 11.7554 21.0926 11.7657 21.0917C16.9922 20.6991 21.12 16.3295 21.12 11.0035C21.12 5.41963 16.5839 0.883545 11 0.883545ZM11 1.76354C16.1083 1.76354 20.24 5.89522 20.24 11.0035C20.24 13.5255 19.2301 15.8067 17.5957 17.4729C16.8965 16.9637 16.0324 16.66 15.2582 16.3884C14.3412 16.0672 13.4738 15.7627 13.2335 15.2334C13.1957 14.7815 13.1991 14.4286 13.2026 14.0234L13.2034 13.8515C13.5942 13.4797 14.0855 12.695 14.2536 11.9703C14.544 11.8155 14.8991 11.4442 15.0056 10.555C15.0588 10.1136 14.9332 9.77185 14.7572 9.54261C14.9948 8.72641 15.4675 6.66015 14.6395 5.32651C14.2892 4.76287 13.7607 4.40726 13.0659 4.2669C12.6757 3.78378 11.9392 3.52011 10.9545 3.52011C9.45802 3.54783 8.36099 4.00618 7.69571 4.88222C6.91119 5.91622 6.76295 7.47848 7.25399 9.528C7.07227 9.75724 6.9412 10.104 6.99532 10.5541C7.10224 11.4433 7.45601 11.8146 7.74641 11.9695C7.91449 12.695 8.40541 13.4797 8.79657 13.8515L8.79743 14.0191C8.80095 14.4261 8.80433 14.7797 8.76649 15.2334C8.52537 15.764 7.65371 16.0718 6.73235 16.397C5.96283 16.6687 5.10384 16.9729 4.40602 17.4755C2.77034 15.8091 1.76 13.5266 1.76 11.0035C1.76 5.89522 5.89168 1.76354 11 1.76354Z" fill="white"/>
</svg>
