<svg width="22" height="22" viewBox="0 0 22 22" fill="none" xmlns="http://www.w3.org/2000/svg">
<path d="M11.8799 1.76003C9.69884 1.76003 8.11759 2.61597 7.28743 3.87753C6.50712 5.06347 6.4315 6.57081 6.95743 7.96128C6.76321 8.20191 6.59993 8.51472 6.64118 9.00628C6.64118 9.01488 6.64118 9.02519 6.64118 9.03378C6.71509 9.57003 6.87665 9.94816 7.08118 10.2163C7.18087 10.3469 7.32868 10.3503 7.45243 10.4225C7.52634 10.8986 7.66728 11.3816 7.86493 11.77C7.97665 11.99 8.08837 12.1843 8.20868 12.3475C8.26368 12.4232 8.34275 12.4644 8.40118 12.5263C8.40634 13.0952 8.42868 13.5438 8.35993 14.1213C8.22415 14.4805 7.89759 14.7538 7.36993 15.0288C6.81993 15.3141 6.09634 15.5753 5.36243 15.895C4.62853 16.2147 3.88431 16.6032 3.28618 17.215C2.68806 17.8269 2.26009 18.6657 2.19993 19.7725C2.19306 19.8946 2.23603 20.0132 2.31853 20.1008C2.40275 20.1902 2.5179 20.24 2.63993 20.24H19.3599C19.482 20.24 19.5971 20.1902 19.6813 20.1008C19.7638 20.0132 19.8068 19.8946 19.7999 19.7725C19.7398 18.6657 19.3221 17.8269 18.7274 17.215C18.1327 16.6032 17.3851 16.213 16.6512 15.895C15.9173 15.5771 15.1902 15.3382 14.6299 15.0563C14.4048 14.9428 14.2226 14.8208 14.0662 14.6988C14.0576 14.6885 14.049 14.6799 14.0387 14.6713C14.0009 14.6249 13.9545 14.5888 13.9012 14.5613C13.7671 14.4324 13.6623 14.2983 13.5987 14.1488C13.5643 13.5593 13.5574 13.078 13.5574 12.5538C13.6107 12.4919 13.6863 12.4472 13.7362 12.375C13.8531 12.2083 13.9734 12.0038 14.0799 11.7838C14.269 11.3953 14.4168 10.9382 14.5062 10.4913C14.6471 10.4191 14.8087 10.4139 14.9187 10.2713C15.1301 9.99456 15.2538 9.60097 15.3037 9.06128C15.3312 8.7416 15.3088 8.45285 15.2074 8.20878C15.1748 8.13144 15.1198 8.05925 15.0699 7.98878C15.2126 7.68113 15.3037 7.32878 15.3449 6.93003C15.4051 6.35941 15.381 5.72347 15.2212 5.10128C15.0613 4.4791 14.764 3.8741 14.2862 3.41003C13.8737 3.00956 13.2945 2.76378 12.6224 2.69503L12.2787 2.00753C12.2048 1.85456 12.0501 1.75831 11.8799 1.76003ZM11.6187 2.66753L11.9212 3.27253C11.9951 3.4255 12.1498 3.52175 12.3199 3.52003C12.9318 3.52003 13.3546 3.72456 13.6812 4.04253C14.0077 4.3605 14.2381 4.81597 14.3687 5.32128C14.4993 5.8266 14.5268 6.368 14.4787 6.83378C14.4306 7.29956 14.2845 7.68628 14.1762 7.82378C14.0885 7.9355 14.061 8.08503 14.1023 8.22081C14.1435 8.3566 14.2467 8.46488 14.3824 8.51128C14.3807 8.51472 14.3738 8.51988 14.3824 8.53878C14.4134 8.61441 14.4546 8.77081 14.4374 8.97878C14.3979 9.40675 14.2913 9.63878 14.2174 9.73503C14.1435 9.83128 14.1057 9.81753 14.1212 9.81753C13.9081 9.82097 13.7276 9.97738 13.6949 10.1888C13.6382 10.5635 13.4646 11.0258 13.2824 11.3988C13.1913 11.5861 13.102 11.7494 13.0212 11.8663C12.9404 11.9832 12.8545 12.0553 12.8974 12.0313C12.7651 12.1086 12.6809 12.2496 12.6774 12.4025C12.6774 13.0178 12.674 13.5678 12.7187 14.2863C12.7221 14.3293 12.7307 14.3705 12.7462 14.41C12.7943 14.5372 12.8562 14.6575 12.9249 14.7675L11.3849 15.4H10.6149L9.03368 14.7538C9.10759 14.6318 9.16603 14.4977 9.21243 14.355C9.22446 14.3293 9.23306 14.3 9.23993 14.2725C9.33275 13.5266 9.28118 13.0024 9.28118 12.3613C9.2829 12.2032 9.19868 12.0553 9.06118 11.9763C9.09384 11.9952 9.0079 11.9385 8.92368 11.825C8.83946 11.7116 8.73978 11.5535 8.64868 11.3713C8.46478 11.0086 8.29978 10.5428 8.26368 10.1613C8.24478 9.94988 8.07634 9.78144 7.86493 9.76253C7.8804 9.76597 7.87009 9.76253 7.83743 9.76253C7.82025 9.75222 7.79618 9.7316 7.76868 9.69378C7.69134 9.59238 7.58134 9.34316 7.52118 8.93753C7.52118 8.92894 7.52118 8.93238 7.52118 8.92378C7.51946 8.91691 7.5229 8.91691 7.52118 8.91003C7.51431 8.5766 7.72056 8.39097 7.68618 8.41503C7.85806 8.29472 7.92165 8.07128 7.83743 7.87878C7.29775 6.65847 7.37509 5.35222 8.02993 4.35878C8.65212 3.41347 9.82603 2.73456 11.6187 2.66753ZM8.35993 15.4413L10.1612 16.17L10.5599 17.16L9.83118 19.36H3.18993C3.31025 18.7224 3.53025 18.2171 3.90493 17.8338C4.37243 17.3543 5.029 17.0088 5.71993 16.7063C6.41087 16.4038 7.13103 16.1443 7.76868 15.8125C7.97665 15.7043 8.17431 15.5753 8.35993 15.4413ZM13.5849 15.455C13.7843 15.6011 14.0043 15.7266 14.2312 15.84C14.874 16.1632 15.6027 16.4072 16.2937 16.7063C16.9846 17.0053 17.6292 17.356 18.0949 17.8338C18.4662 18.2153 18.6896 18.7224 18.8099 19.36H12.1687L11.4399 17.16L11.8387 16.17L13.5849 15.455Z" fill="#4D7EFF"/>
</svg>
