<svg width="22" height="22" viewBox="0 0 22 22" fill="none" xmlns="http://www.w3.org/2000/svg">
<g clip-path="url(#clip0)">
<path d="M10.9988 0C9.3075 0 7.91875 1.38875 7.91875 3.08H5.63625L5.595 3.465L4.39875 14.025L4.34375 14.52H17.6538L17.5988 14.025L16.4025 3.465L16.3613 3.08H14.0788C14.0788 1.38875 12.69 0 10.9988 0ZM10.9988 0.88C12.2105 0.88 13.1988 1.86828 13.1988 3.08H8.79875C8.79875 1.86828 9.78703 0.88 10.9988 0.88ZM6.42 3.96H7.91875V4.52375C7.65578 4.67672 7.47875 4.95516 7.47875 5.28C7.47875 5.76641 7.87235 6.16 8.35875 6.16C8.84516 6.16 9.23875 5.76641 9.23875 5.28C9.23875 4.95516 9.06172 4.67672 8.79875 4.52375V3.96H13.1988V4.52375C12.9358 4.67672 12.7588 4.95516 12.7588 5.28C12.7588 5.76641 13.1523 6.16 13.6388 6.16C14.1252 6.16 14.5188 5.76641 14.5188 5.28C14.5188 4.95516 14.3417 4.67672 14.0788 4.52375V3.96H15.5775L16.6638 13.64H5.33375L6.42 3.96ZM3.45 11.7838C3.41219 11.7923 3.37438 11.8061 3.34 11.825L0.370004 13.2C0.356254 13.2034 0.342504 13.2086 0.328754 13.2138L0.287504 13.2275C0.242816 13.2395 0.201566 13.2584 0.163754 13.2825C0.15516 13.2859 0.144847 13.2911 0.136254 13.2963C0.136254 13.3014 0.136254 13.3048 0.136254 13.31C-0.0304651 13.4338 -0.0871841 13.6572 -0.00124634 13.8463V15.4C-0.00296509 15.5581 0.0812536 15.7059 0.218754 15.785L10.7788 21.945C10.9145 22.0241 11.083 22.0241 11.2188 21.945L21.7788 15.785C21.9163 15.7059 22.0005 15.5581 21.9988 15.4V13.86C22.095 13.6572 22.0245 13.4148 21.8338 13.2963C21.8045 13.2739 21.7719 13.255 21.7375 13.2413L21.7238 13.2275C21.698 13.2155 21.6688 13.2069 21.6413 13.2L18.6575 11.825C18.5939 11.7941 18.5217 11.7803 18.4513 11.7838C18.2381 11.7855 18.0577 11.9384 18.0198 12.1464C17.9838 12.3561 18.1006 12.5623 18.3 12.6363L20.5963 13.6813L10.9988 19.2913L1.40125 13.6813L3.6975 12.6363C3.91407 12.5641 4.04125 12.3372 3.98625 12.1155C3.93297 11.892 3.71813 11.7477 3.49125 11.7838C3.4775 11.7838 3.46375 11.7838 3.45 11.7838ZM0.878754 14.41L10.7788 20.185C10.9145 20.2641 11.083 20.2641 11.2188 20.185L21.1188 14.41V15.1388L10.9988 21.0513L0.878754 15.1388V14.41Z" fill="#4D7EFF"/>
</g>
<defs>
<clipPath id="clip0">
<rect width="22" height="22" fill="white"/>
</clipPath>
</defs>
</svg>
