<svg width="36" height="28" viewBox="0 0 36 28" fill="none" xmlns="http://www.w3.org/2000/svg">
<path d="M33.84 0.320068C32.8528 0.320068 32.0231 1.00632 31.77 1.91757L4.095 10.2201C3.74906 9.48319 3.02063 8.96007 2.16 8.96007C0.975938 8.96007 0 9.93601 0 11.1201V15.4401C0 16.6241 0.975938 17.6001 2.16 17.6001C3.00656 17.6001 3.74063 17.1023 4.095 16.3851L9.8325 18.3876L9.27 19.8726C9.27 19.881 9.27 19.8866 9.27 19.8951C8.71313 21.5657 9.62438 23.3882 11.295 23.9451L14.2875 24.9576C15.9581 25.5144 17.7806 24.6032 18.3375 22.9326L18.81 21.5151L31.77 26.0601C32.0175 26.9826 32.8472 27.6801 33.84 27.6801C35.0241 27.6801 36 26.7041 36 25.5201V2.48007C36 1.29601 35.0241 0.320068 33.84 0.320068ZM33.84 1.76007C34.245 1.76007 34.56 2.07507 34.56 2.48007V25.5201C34.56 25.9251 34.245 26.2401 33.84 26.2401C33.4406 26.2401 33.1313 25.9391 33.12 25.5426C33.12 25.5341 33.12 25.5285 33.12 25.5201V2.48007C33.12 2.45757 33.12 2.43507 33.12 2.41257C33.1538 2.03851 33.4575 1.76007 33.84 1.76007ZM31.68 3.44757V24.5076L4.32 14.9226V11.6601L31.68 3.44757ZM2.16 10.4001C2.5425 10.4001 2.84625 10.6785 2.88 11.0526C2.88281 11.0751 2.88 11.0976 2.88 11.1201V15.4401C2.88 15.4626 2.88 15.4851 2.88 15.5076C2.84625 15.8816 2.5425 16.1601 2.16 16.1601C1.755 16.1601 1.44 15.8451 1.44 15.4401V11.1201C1.44 10.7151 1.755 10.4001 2.16 10.4001ZM11.1825 18.8601L17.4375 21.0426L16.965 22.4601C16.6556 23.3938 15.6713 23.8973 14.7375 23.5851L11.745 22.5951C10.8225 22.2857 10.3472 21.2929 10.6425 20.3676C10.6453 20.3591 10.6397 20.3535 10.6425 20.3451L11.1825 18.8601Z" fill="white"/>
</svg>
