<svg width="34" height="32" viewBox="0 0 34 32" fill="none" xmlns="http://www.w3.org/2000/svg">
<path d="M10.8798 0.159912C9.49609 0.159912 8.35984 1.29616 8.35984 2.67991V17.4399H7.99984C7.40359 17.4399 6.91984 17.9237 6.91984 18.5199C6.91984 19.1162 7.40359 19.5999 7.99984 19.5999H25.9998C26.5961 19.5999 27.0798 19.1162 27.0798 18.5199C27.0798 17.9237 26.5961 17.4399 25.9998 17.4399H25.6398V2.67991C25.6398 1.29616 24.5036 0.159912 23.1198 0.159912H10.8798ZM10.8798 1.59991H11.9598V18.1599H9.79984V2.67991C9.79984 2.07522 10.2752 1.59991 10.8798 1.59991ZM14.1198 1.59991H23.1198C23.7245 1.59991 24.1998 2.07522 24.1998 2.67991V18.1599H14.1198V1.59991ZM2.59984 5.91991C1.41578 5.91991 0.439844 6.89585 0.439844 8.07991V23.6949C0.397656 23.8355 0.397656 23.9818 0.439844 24.1224V25.3599C0.439844 26.544 1.41578 27.5199 2.59984 27.5199H12.5448L12.0723 30.3999H10.5198C10.4973 30.3999 10.4748 30.3999 10.4523 30.3999C10.0558 30.4196 9.74641 30.7571 9.76609 31.1537C9.78578 31.5502 10.1233 31.8596 10.5198 31.8399H23.4798C23.7386 31.8427 23.9805 31.7077 24.1127 31.4827C24.242 31.2577 24.242 30.9821 24.1127 30.7571C23.9805 30.5321 23.7386 30.3971 23.4798 30.3999H21.9273L21.4548 27.5199H31.3998C32.5839 27.5199 33.5598 26.544 33.5598 25.3599V24.0549C33.5795 23.9593 33.5795 23.858 33.5598 23.7624V8.07991C33.5598 6.89585 32.5839 5.91991 31.3998 5.91991H26.3598V7.35991H31.3998C31.8077 7.35991 32.1198 7.6721 32.1198 8.07991V23.1999H1.87984V8.07991C1.87984 7.6721 2.19203 7.35991 2.59984 7.35991H7.63984V5.91991H2.59984ZM1.87984 24.6399H32.1198V25.3599C32.1198 25.7677 31.8077 26.0799 31.3998 26.0799H2.59984C2.19203 26.0799 1.87984 25.7677 1.87984 25.3599V24.6399ZM14.0298 27.5199H19.9698L20.4648 30.3999H13.5348L14.0298 27.5199Z" fill="white"/>
</svg>
