<svg width="50" height="50" viewBox="0 0 50 50" fill="none" xmlns="http://www.w3.org/2000/svg">
<path d="M48.9065 -3.31863e-05C48.7737 0.0155918 48.6487 0.0585606 48.5315 0.124967L0.531472 26.125C0.183816 26.3125 -0.0193089 26.6875 0.0119412 27.082C0.0470974 27.4765 0.312722 27.8125 0.687722 27.9375L14.3127 32.4062L13.0002 45.9062C12.9455 46.3437 13.1877 46.7656 13.594 46.9414C14.0002 47.1172 14.4729 47 14.7502 46.6562L23.344 36.9375L36.3127 49.7187C36.5666 49.9687 36.9338 50.0625 37.2776 49.9648C37.6213 49.8672 37.883 49.5976 37.969 49.25L49.969 1.24997C50.0588 0.933561 49.9807 0.593717 49.7698 0.343717C49.5549 0.0937168 49.2346 -0.0351895 48.9065 -3.31863e-05ZM47.469 2.93747L36.4377 47.0625L24.594 35.375L41.8127 11.5937C42.1916 11.1953 42.1799 10.5664 41.7815 10.1875C41.383 9.80856 40.7541 9.82028 40.3752 10.2187L15.219 30.5937L3.50022 26.7812L47.469 2.93747ZM35.7815 16.5L22.6565 34.7187C22.6213 34.7578 22.5901 34.8007 22.5627 34.8437L22.5002 34.9062C22.4768 34.9375 22.4573 34.9687 22.4377 35L15.2815 43.0312L16.344 32.2187L35.7815 16.5Z" fill="#2C67FF"/>
</svg>
