<svg width="21" height="19" viewBox="0 0 21 19" fill="none" xmlns="http://www.w3.org/2000/svg">
<path d="M2.08001 0.0800781C1.35225 0.0800781 0.76001 0.672318 0.76001 1.40008V14.6001C0.76001 15.3278 1.35225 15.9201 2.08001 15.9201H9.94329L10.8233 15.0401H2.08001C1.83713 15.0401 1.64001 14.8425 1.64001 14.6001V3.60008H18.36V8.08859C18.3609 8.08859 18.3617 8.08901 18.3626 8.08945C18.5126 8.12025 18.6596 8.15885 18.8034 8.20461C18.8254 8.21165 18.8468 8.22163 18.8688 8.22867C18.9902 8.26915 19.1097 8.31299 19.2263 8.36359C19.2307 8.36535 19.2348 8.36699 19.2392 8.36875V1.40008C19.2396 0.672318 18.6478 0.0800781 17.92 0.0800781H2.08001ZM2.52001 1.40008C2.76289 1.40008 2.96001 1.5972 2.96001 1.84008C2.96001 2.08296 2.76289 2.28008 2.52001 2.28008C2.27713 2.28008 2.08001 2.08296 2.08001 1.84008C2.08001 1.5972 2.27713 1.40008 2.52001 1.40008ZM3.84001 1.40008C4.08289 1.40008 4.28001 1.5972 4.28001 1.84008C4.28001 2.08296 4.08289 2.28008 3.84001 2.28008C3.59713 2.28008 3.40001 2.08296 3.40001 1.84008C3.40001 1.5972 3.59713 1.40008 3.84001 1.40008ZM5.16001 1.40008C5.40289 1.40008 5.60001 1.5972 5.60001 1.84008C5.60001 2.08296 5.40289 2.28008 5.16001 2.28008C4.91713 2.28008 4.72001 2.08296 4.72001 1.84008C4.72001 1.5972 4.91713 1.40008 5.16001 1.40008ZM17.7 8.83625C15.896 8.83625 14.4 10.3322 14.4 12.1362C14.4 13.9402 15.896 15.4362 17.7 15.4362C19.504 15.4362 21 13.9402 21 12.1362C21 10.3322 19.548 8.83625 17.7 8.83625ZM4.28001 10.2001C4.04662 10.2001 3.82279 10.2928 3.65776 10.4578C3.49272 10.6229 3.40001 10.8467 3.40001 11.0801C3.40001 11.3135 3.49272 11.5373 3.65776 11.7023C3.82279 11.8674 4.04662 11.9601 4.28001 11.9601C4.5134 11.9601 4.73723 11.8674 4.90226 11.7023C5.0673 11.5373 5.16001 11.3135 5.16001 11.0801C5.16001 10.8467 5.0673 10.6229 4.90226 10.4578C4.73723 10.2928 4.5134 10.2001 4.28001 10.2001ZM7.80001 10.2001C7.56662 10.2001 7.34279 10.2928 7.17776 10.4578C7.01272 10.6229 6.92001 10.8467 6.92001 11.0801C6.92001 11.3135 7.01272 11.5373 7.17776 11.7023C7.34279 11.8674 7.56662 11.9601 7.80001 11.9601C8.0334 11.9601 8.25723 11.8674 8.42226 11.7023C8.5873 11.5373 8.68001 11.3135 8.68001 11.0801C8.68001 10.8467 8.5873 10.6229 8.42226 10.4578C8.25723 10.2928 8.0334 10.2001 7.80001 10.2001ZM11.32 10.2001C11.0866 10.2001 10.8628 10.2928 10.6978 10.4578C10.5327 10.6229 10.44 10.8467 10.44 11.0801C10.44 11.3135 10.5327 11.5373 10.6978 11.7023C10.8628 11.8674 11.0866 11.9601 11.32 11.9601C11.5534 11.9601 11.7772 11.8674 11.9423 11.7023C12.1073 11.5373 12.2 11.3135 12.2 11.0801C12.2 10.8467 12.1073 10.6229 11.9423 10.4578C11.7772 10.2928 11.5534 10.2001 11.32 10.2001ZM18.36 10.5962C18.844 10.5962 19.24 10.9922 19.24 11.4762C19.24 11.9602 18.844 12.3562 18.36 12.3562C17.876 12.3562 17.48 11.9602 17.48 11.4762C17.48 10.9922 17.876 10.5962 18.36 10.5962ZM13.6962 13.3677L11.0124 16.0524C10.9244 16.1404 10.88 16.2281 10.88 16.3601V18.5601C10.88 18.8241 11.056 19.0001 11.32 19.0001H13.4762C13.6082 19.0001 13.6958 18.9557 13.7838 18.8677L14.0924 18.5601H15.3238C15.5878 18.5601 15.7638 18.3841 15.7638 18.1201V17.2401H16.6438C16.9078 17.2401 17.0838 17.0641 17.0838 16.8001V16.3162C16.3798 16.1402 15.7197 15.8763 15.1477 15.4362L13.4324 17.0639C13.3444 17.1519 13.2118 17.1962 13.1238 17.1962C12.9918 17.1962 12.9042 17.1519 12.8162 17.0639C12.6402 16.8879 12.6402 16.6237 12.8162 16.4477L14.5324 14.8201C14.1804 14.3801 13.8722 13.8957 13.6962 13.3677Z" fill="white"/>
</svg>
