<svg width="22" height="24" viewBox="0 0 22 24" fill="none" xmlns="http://www.w3.org/2000/svg">
<path d="M3.79922 0.47998C2.66297 0.47998 1.74328 1.27592 1.14422 2.32498C0.545156 3.37404 0.199219 4.73811 0.199219 6.23998C0.199219 7.74186 0.545156 9.10592 1.14422 10.155C1.74328 11.204 2.66297 12 3.79922 12C4.93547 12 5.85516 11.204 6.45422 10.155C7.05328 9.10592 7.39922 7.74186 7.39922 6.23998C7.39922 4.73811 7.05328 3.37404 6.45422 2.32498C5.85516 1.27592 4.93547 0.47998 3.79922 0.47998ZM17.4117 0.54748L2.85422 23.4525H4.51922L19.0542 0.54748H17.4117ZM3.79922 1.91998C4.25484 1.91998 4.77516 2.24623 5.21672 3.02248C5.65828 3.79873 5.95922 4.96029 5.95922 6.23998C5.95922 7.51967 5.65828 8.68123 5.21672 9.45748C4.77516 10.2337 4.25484 10.56 3.79922 10.56C3.34359 10.56 2.82328 10.2337 2.38172 9.45748C1.94016 8.68123 1.63922 7.51967 1.63922 6.23998C1.63922 4.96029 1.94016 3.79873 2.38172 3.02248C2.82328 2.24623 3.34359 1.91998 3.79922 1.91998ZM18.1992 12C17.063 12 16.1433 12.7959 15.5442 13.845C14.9452 14.894 14.5992 16.2581 14.5992 17.76C14.5992 19.2619 14.9452 20.6259 15.5442 21.675C16.1433 22.724 17.063 23.52 18.1992 23.52C19.3355 23.52 20.2552 22.724 20.8542 21.675C21.4533 20.6259 21.7992 19.2619 21.7992 17.76C21.7992 16.2581 21.4533 14.894 20.8542 13.845C20.2552 12.7959 19.3355 12 18.1992 12ZM18.1992 13.44C18.6548 13.44 19.1752 13.7662 19.6167 14.5425C20.0583 15.3187 20.3592 16.4803 20.3592 17.76C20.3592 19.0397 20.0583 20.2012 19.6167 20.9775C19.1752 21.7537 18.6548 22.08 18.1992 22.08C17.7436 22.08 17.2233 21.7537 16.7817 20.9775C16.3402 20.2012 16.0392 19.0397 16.0392 17.76C16.0392 16.4803 16.3402 15.3187 16.7817 14.5425C17.2233 13.7662 17.7436 13.44 18.1992 13.44Z" fill="white"/>
</svg>
