<svg width="44" height="44" viewBox="0 0 44 44" fill="none" xmlns="http://www.w3.org/2000/svg">
<g clip-path="url(#clip0)">
<path d="M21.8901 6.15995C21.7938 6.1737 21.701 6.2012 21.6151 6.24245L0.495078 16.8024C0.185704 16.9468 -0.0136719 17.2596 -0.0136719 17.5999C-0.0136719 17.9403 0.185704 18.2531 0.495078 18.3974L3.52008 19.9099V32.7249C2.50258 33.0928 1.76008 34.0621 1.76008 35.1999C1.76008 35.7087 1.93195 36.0971 2.11758 36.5199C2.3032 36.9428 2.51977 37.3587 2.75008 37.7574C3.2107 38.5515 3.68508 39.2149 3.68508 39.2149L4.40008 40.2599L5.11508 39.2149C5.11508 39.2149 5.58945 38.5515 6.05008 37.7574C6.28039 37.3587 6.49695 36.9428 6.68258 36.5199C6.8682 36.0971 7.04008 35.7087 7.04008 35.1999C7.04008 34.0621 6.29758 33.0928 5.28008 32.7249V20.7899L8.80008 22.5499V25.5199C8.80008 26.0562 9.15414 26.3965 9.43258 26.5924C9.71102 26.7884 10.0101 26.9121 10.3676 27.0324C11.0826 27.2731 12.0279 27.4724 13.1726 27.6374C15.4654 27.964 18.5626 28.1599 22.0001 28.1599C25.4376 28.1599 28.5348 27.964 30.8276 27.6374C31.9723 27.4724 32.9176 27.2731 33.6326 27.0324C33.9901 26.9121 34.2891 26.7884 34.5676 26.5924C34.846 26.3965 35.2001 26.0562 35.2001 25.5199V22.5499L43.5051 18.3974C43.8145 18.2531 44.0138 17.9403 44.0138 17.5999C44.0138 17.2596 43.8145 16.9468 43.5051 16.8024L22.3851 6.24245C22.2304 6.16682 22.0585 6.13932 21.8901 6.15995ZM22.0001 8.02995L41.1401 17.5999L35.2001 20.5699V19.3599C35.2001 18.8203 34.846 18.4799 34.5676 18.2874C34.2891 18.0949 33.9901 17.9678 33.6326 17.8474C32.9141 17.6068 31.9757 17.4074 30.8276 17.2424C28.5313 16.9159 25.4238 16.7199 22.0001 16.7199C18.5763 16.7199 15.4688 16.9159 13.1726 17.2424C12.0245 17.4074 11.086 17.6068 10.3676 17.8474C10.0101 17.9678 9.71102 18.0949 9.43258 18.2874C9.15414 18.4799 8.80008 18.8203 8.80008 19.3599V20.5699L2.86008 17.5999L22.0001 8.02995ZM22.0001 18.4799C25.3551 18.4799 28.4076 18.6656 30.5801 18.9749C31.6663 19.1296 32.5223 19.3187 33.0551 19.4974C33.251 19.5628 33.3541 19.6178 33.4401 19.6624V23.9524C32.7491 23.7359 31.8829 23.5537 30.8276 23.4024C28.5348 23.0759 25.4376 22.8799 22.0001 22.8799C18.5626 22.8799 15.4654 23.0759 13.1726 23.4024C12.1173 23.5537 11.251 23.7359 10.5601 23.9524V19.6624C10.646 19.6178 10.7491 19.5628 10.9451 19.4974C11.4779 19.3187 12.3338 19.1296 13.4201 18.9749C15.5926 18.6656 18.6451 18.4799 22.0001 18.4799ZM22.0001 24.6399C25.3688 24.6399 28.411 24.8256 30.5801 25.1349C31.3776 25.2484 31.907 25.3859 32.4226 25.5199C31.907 25.654 31.3776 25.7915 30.5801 25.9049C28.411 26.2143 25.3688 26.3999 22.0001 26.3999C18.6313 26.3999 15.5891 26.2143 13.4201 25.9049C12.6226 25.7915 12.0932 25.654 11.5776 25.5199C12.0932 25.3859 12.6226 25.2484 13.4201 25.1349C15.5891 24.8256 18.6313 24.6399 22.0001 24.6399ZM4.40008 34.3199C4.8882 34.3199 5.28008 34.7118 5.28008 35.1999C5.28008 35.1759 5.23195 35.4784 5.08758 35.8049C4.9432 36.1315 4.71977 36.5165 4.51008 36.8774C4.45164 36.9806 4.45852 36.9737 4.40008 37.0699C4.34164 36.9737 4.34852 36.9806 4.29008 36.8774C4.08039 36.5165 3.85695 36.1315 3.71258 35.8049C3.5682 35.4784 3.52008 35.1759 3.52008 35.1999C3.52008 34.7118 3.91195 34.3199 4.40008 34.3199Z" fill="#2864FF"/>
</g>
<defs>
<clipPath id="clip0">
<rect width="44" height="44" fill="white"/>
</clipPath>
</defs>
</svg>
