<svg width="46" height="46" viewBox="0 0 46 46" fill="none" xmlns="http://www.w3.org/2000/svg">
<path d="M23 0C21.9399 0 20.8906 0.086735 19.8652 0.226562C19.735 0.244225 19.6096 0.287364 19.4961 0.353515C19.3825 0.419666 19.2832 0.507533 19.2036 0.612098C19.1241 0.716662 19.0659 0.835876 19.0324 0.962929C18.9989 1.08998 18.9908 1.22239 19.0085 1.35258C19.0262 1.48277 19.0694 1.6082 19.1356 1.7217C19.2017 1.83521 19.2896 1.93456 19.3942 2.01409C19.4988 2.09362 19.618 2.15176 19.7451 2.1852C19.8722 2.21864 20.0046 2.22672 20.1348 2.20898C21.0894 2.07881 22.0501 2 23 2C30.5757 2 37.1475 6.01487 40.8477 12H34C33.8675 11.9981 33.7359 12.0226 33.613 12.072C33.49 12.1214 33.3781 12.1948 33.2837 12.2878C33.1893 12.3809 33.1144 12.4918 33.0632 12.614C33.0121 12.7363 32.9858 12.8675 32.9858 13C32.9858 13.1325 33.0121 13.2637 33.0632 13.386C33.1144 13.5082 33.1893 13.6191 33.2837 13.7122C33.3781 13.8052 33.49 13.8786 33.613 13.928C33.7359 13.9774 33.8675 14.0019 34 14H43C43.2652 14 43.5195 13.8946 43.7071 13.7071C43.8946 13.5195 44 13.2652 44 13V4C44.0018 3.86621 43.9768 3.73341 43.9264 3.60947C43.876 3.48553 43.8012 3.37297 43.7065 3.27845C43.6118 3.18393 43.4991 3.10937 43.375 3.05919C43.251 3.00902 43.1182 2.98424 42.9844 2.98633C42.7195 2.99047 42.4671 3.09953 42.2825 3.28957C42.098 3.47962 41.9964 3.73512 42 4V10.1074C37.8647 4.02587 30.9226 0 23 0ZM4 2C3.86749 1.99813 3.73593 2.02261 3.61296 2.07202C3.48999 2.12143 3.37807 2.1948 3.2837 2.28784C3.18933 2.38088 3.11439 2.49176 3.06324 2.61401C3.0121 2.73627 2.98576 2.86747 2.98576 3C2.98576 3.13253 3.0121 3.26373 3.06324 3.38599C3.11439 3.50824 3.18933 3.61912 3.2837 3.71216C3.37807 3.8052 3.48999 3.87857 3.61296 3.92798C3.73593 3.97739 3.86749 4.00187 4 4H10.0234C3.94926 8.15276 0 15.1587 0 23C0 24.083 0.063322 25.1098 0.189453 26.123C0.202564 26.2558 0.242117 26.3847 0.30578 26.5019C0.369443 26.6192 0.45593 26.7225 0.560147 26.8059C0.664364 26.8892 0.784203 26.9508 0.912605 26.9871C1.04101 27.0235 1.17538 27.0337 1.3078 27.0173C1.44022 27.0009 1.56802 26.9581 1.68366 26.8915C1.79931 26.825 1.90046 26.7359 1.98116 26.6297C2.06187 26.5234 2.12049 26.402 2.15358 26.2728C2.18667 26.1435 2.19355 26.0089 2.17383 25.877C2.05796 24.9462 2 24.005 2 23C2 15.468 5.98088 8.78749 12 5.0918V12C11.9981 12.1325 12.0226 12.2641 12.072 12.387C12.1214 12.51 12.1948 12.6219 12.2878 12.7163C12.3809 12.8107 12.4918 12.8856 12.614 12.9368C12.7363 12.9879 12.8675 13.0142 13 13.0142C13.1325 13.0142 13.2637 12.9879 13.386 12.9368C13.5082 12.8856 13.6191 12.8107 13.7122 12.7163C13.8052 12.6219 13.8786 12.51 13.928 12.387C13.9774 12.2641 14.0019 12.1325 14 12V3C14 2.73479 13.8946 2.48045 13.7071 2.29292C13.5195 2.10539 13.2652 2.00003 13 2H4ZM44.748 18.9863C44.6085 18.9925 44.4717 19.0279 44.3467 19.0902C44.2216 19.1525 44.111 19.2403 44.0219 19.3479C43.9329 19.4556 43.8674 19.5807 43.8296 19.7152C43.7918 19.8497 43.7827 19.9906 43.8027 20.1289C43.9261 21.0759 44 22.0429 44 23C44 30.9894 39.5329 37.8587 33 41.4238V34C33.0018 33.8662 32.9768 33.7334 32.9264 33.6095C32.876 33.4855 32.8012 33.373 32.7065 33.2785C32.6118 33.1839 32.4991 33.1094 32.375 33.0592C32.251 33.009 32.1182 32.9842 31.9844 32.9863C31.7195 32.9905 31.4671 33.0995 31.2825 33.2896C31.098 33.4796 30.9964 33.7351 31 34V43C31 43.2652 31.1054 43.5195 31.2929 43.7071C31.4805 43.8946 31.7348 44 32 44H41C41.1325 44.0019 41.2641 43.9774 41.387 43.928C41.51 43.8786 41.6219 43.8052 41.7163 43.7122C41.8107 43.6191 41.8856 43.5082 41.9368 43.386C41.9879 43.2637 42.0142 43.1325 42.0142 43C42.0142 42.8675 41.9879 42.7363 41.9368 42.614C41.8856 42.4918 41.8107 42.3809 41.7163 42.2878C41.6219 42.1948 41.51 42.1214 41.387 42.072C41.2641 42.0226 41.1325 41.9981 41 42H35.8926C41.9741 37.8647 46 30.9226 46 23C46 21.9411 45.9198 20.8901 45.7871 19.8711C45.7582 19.6194 45.6348 19.3882 45.4419 19.2239C45.2491 19.0597 45.0011 18.9748 44.748 18.9863ZM3 32C2.73479 32 2.48045 32.1054 2.29292 32.2929C2.10539 32.4805 2.00003 32.7348 2 33V42C1.99813 42.1325 2.02261 42.2641 2.07202 42.387C2.12143 42.51 2.1948 42.6219 2.28784 42.7163C2.38088 42.8107 2.49176 42.8856 2.61401 42.9368C2.73627 42.9879 2.86747 43.0142 3 43.0142C3.13253 43.0142 3.26373 42.9879 3.38599 42.9368C3.50824 42.8856 3.61912 42.8107 3.71216 42.7163C3.8052 42.6219 3.87857 42.51 3.92798 42.387C3.97739 42.2641 4.00187 42.1325 4 42V35.9199C8.1498 42.0059 15.135 46 23 46C23.7132 46 24.4036 45.9733 25.082 45.918C25.2131 45.9073 25.3407 45.8709 25.4577 45.8109C25.5746 45.7509 25.6786 45.6684 25.7637 45.5682C25.8488 45.468 25.9132 45.352 25.9535 45.2268C25.9937 45.1017 26.0088 44.9698 25.998 44.8388C25.9873 44.7078 25.9508 44.5802 25.8906 44.4633C25.8305 44.3464 25.7479 44.2424 25.6476 44.1575C25.5473 44.0725 25.4312 44.0081 25.306 43.968C25.1808 43.9279 25.049 43.9129 24.918 43.9238C24.2964 43.9745 23.6628 44 23 44C15.4731 44 8.84044 40.001 5.13477 34H12C12.1325 34.0019 12.2641 33.9774 12.387 33.928C12.51 33.8786 12.6219 33.8052 12.7163 33.7122C12.8107 33.6191 12.8856 33.5082 12.9368 33.386C12.9879 33.2637 13.0142 33.1325 13.0142 33C13.0142 32.8675 12.9879 32.7363 12.9368 32.614C12.8856 32.4918 12.8107 32.3809 12.7163 32.2878C12.6219 32.1948 12.51 32.1214 12.387 32.072C12.2641 32.0226 12.1325 31.9981 12 32H3Z" fill="#2C67FF"/>
</svg>
