<svg width="34" height="32" viewBox="0 0 34 32" fill="none" xmlns="http://www.w3.org/2000/svg">
<path d="M1.88 0.879883C1.08584 0.879883 0.440002 1.52572 0.440002 2.31988V23.9199C0.440002 24.714 1.08584 25.3599 1.88 25.3599H12.68V27.5199H10.52C9.32912 27.5199 8.36 28.489 8.36 29.6799V31.1199H25.64V29.6799C25.64 28.489 24.6709 27.5199 23.48 27.5199H21.32V25.3599H32.12C32.9142 25.3599 33.56 24.714 33.56 23.9199V2.31988C33.56 1.52572 32.9142 0.879883 32.12 0.879883H1.88ZM1.88 2.31988H32.12L32.1214 23.9199H1.88V21.0399H32.12V19.5999H1.88V2.31988ZM16.28 3.03988V4.54176C15.0487 4.73799 14.2466 5.41526 13.8556 6.09707C13.3926 6.9046 13.4 7.71144 13.4 7.71144C13.4 8.82049 13.9813 9.68101 14.7134 10.2047C15.4455 10.7284 16.3067 11.0186 17.1111 11.3143C17.9155 11.61 18.6591 11.9097 19.1403 12.2902C19.6215 12.6707 19.88 13.0553 19.88 13.8399C19.88 13.8399 19.8753 14.3617 19.5397 14.8988C19.204 15.4358 18.608 15.9999 17 15.9999C15.44 15.9999 14.8582 15.3261 14.4941 14.5979C14.1299 13.8696 14.12 13.1199 14.12 13.1199H12.68C12.68 13.1199 12.6701 14.1702 13.2059 15.2419C13.6755 16.181 14.669 17.1608 16.28 17.3893V18.8799H17.72V17.3991C19.2866 17.2169 20.2676 16.4493 20.7603 15.661C21.3247 14.758 21.32 13.8399 21.32 13.8399C21.32 12.6596 20.7685 11.7413 20.0347 11.161C19.3009 10.5807 18.4245 10.2627 17.6089 9.96285C16.7933 9.66302 16.0345 9.37876 15.5516 9.03332C15.0687 8.68788 14.84 8.38404 14.84 7.71144C14.84 7.71144 14.8474 7.26241 15.1044 6.81426C15.3613 6.3661 15.7693 5.91988 17 5.91988C18.2 5.91988 18.6018 6.41364 18.8759 6.96191C19.1501 7.51018 19.16 8.07988 19.16 8.07988H20.6C20.6 8.07988 20.6099 7.20958 20.1641 6.31785C19.7863 5.56227 18.9784 4.77385 17.72 4.54879V3.03988H16.28ZM28.52 21.7599V23.1999H29.96V21.7599H28.52ZM14.12 25.3599H19.88V27.5199H14.12V25.3599ZM10.52 28.9599H23.48C23.8767 28.9599 24.2 29.2832 24.2 29.6799H9.8C9.8 29.2832 10.1233 28.9599 10.52 28.9599Z" fill="white"/>
</svg>
