<svg width="32" height="36" viewBox="0 0 32 36" fill="none" xmlns="http://www.w3.org/2000/svg">
<path d="M16.0002 0C14.2339 0 12.7433 0.975938 10.5327 2.115C8.32203 3.25406 5.35484 4.62937 0.722656 5.6475L0.160156 5.7825V6.345C0.160156 17.3756 4.02734 24.7472 7.90016 29.3175C11.773 33.8878 15.7077 35.7075 15.7077 35.7075L16.0227 35.865L16.3377 35.7075C16.3377 35.7075 31.8402 27.6975 31.8402 6.345V5.7825L31.2777 5.6475C26.6455 4.62937 23.6783 3.25406 21.4677 2.115C19.257 0.975938 17.7664 0 16.0002 0ZM16.0002 1.44C17.1842 1.44 18.5567 2.23594 20.8152 3.3975C22.9611 4.5 25.9789 5.85281 30.3552 6.885C30.0908 26.4094 16.903 33.7331 15.9777 34.2225C15.5305 34.0059 12.4142 32.4478 8.98016 28.395C5.36047 24.1228 1.77734 17.2519 1.64516 6.885C6.02141 5.85281 9.03922 4.5 11.1852 3.3975C13.4436 2.23594 14.8161 1.44 16.0002 1.44ZM21.5352 10.53L21.1527 11.1375L15.3027 20.2275L11.4327 16.74L10.9152 16.2675L9.94766 17.325L10.4877 17.82L14.9427 21.87L15.5727 22.4325L16.0452 21.7125L22.3677 11.9025L22.7502 11.295L21.5352 10.53Z" fill="white"/>
</svg>
