<svg width="48" height="44" viewBox="0 0 48 44" fill="none" xmlns="http://www.w3.org/2000/svg">
<path d="M23.9999 0C11.8552 0 1.99989 9.85529 1.99989 22C1.99989 27.0331 3.67343 31.6402 6.47255 35.3438L1.29286 33.7598C1.03904 33.6821 0.764752 33.7084 0.530331 33.8329C0.295911 33.9574 0.120563 34.17 0.0428631 34.4238C-0.034837 34.6776 -0.00852505 34.9519 0.116011 35.1864C0.240547 35.4208 0.453105 35.5961 0.706925 35.6738L9.64443 38.4043L10.8866 29.209C10.9077 29.0684 10.8986 28.9249 10.8599 28.7881C10.8212 28.6513 10.7537 28.5243 10.6621 28.4156C10.5704 28.3069 10.4566 28.219 10.3283 28.1578C10.1999 28.0966 10.06 28.0634 9.91786 28.0605C9.66972 28.0554 9.42854 28.1427 9.24119 28.3055C9.05385 28.4683 8.93373 28.695 8.90419 28.9414L8.18349 34.2852C5.56546 30.8901 3.99989 26.6598 3.99989 22C3.99989 10.9347 12.9346 2 23.9999 2V0ZM26.1112 0.0761719L25.828 2.05273L26.8222 2.19922C27.8152 2.33522 26.8213 2.19894 27.8143 2.33594L28.0975 0.359375L27.1034 0.212891L26.1112 0.0761719ZM30.2304 0.875L29.5761 2.76367L30.5194 3.08594C31.4634 3.40794 30.5207 3.0852 31.4647 3.4082L32.119 1.51953L30.2304 0.875ZM34.1093 2.43555L33.1132 4.16211L33.9765 4.66406C34.8505 5.16706 33.9765 4.66497 34.8515 5.16797L35.8475 3.42969L34.1093 2.43555ZM38.3554 5.5957L37.1132 14.791C37.0956 14.9212 37.1038 15.0536 37.1373 15.1806C37.1709 15.3076 37.2291 15.4268 37.3088 15.5313C37.3884 15.6358 37.4878 15.7236 37.6014 15.7896C37.7149 15.8557 37.8404 15.8988 37.9706 15.9163C38.1007 15.9339 38.2331 15.9256 38.3601 15.8921C38.4871 15.8585 38.6063 15.8002 38.7108 15.7205C38.8152 15.6409 38.903 15.5414 38.969 15.4278C39.0351 15.3143 39.0781 15.1888 39.0956 15.0586L39.8163 9.71484C42.4343 13.1099 43.9999 17.3402 43.9999 22C43.9999 33.0653 35.0652 42 23.9999 42V44C36.1446 44 45.9999 34.1447 45.9999 22C45.9999 16.9669 44.3264 12.3598 41.5272 8.65625L46.7069 10.2402C46.9607 10.3179 47.235 10.2916 47.4695 10.1671C47.7039 10.0426 47.8792 9.82999 47.9569 9.57617C48.0346 9.32235 48.0083 9.04806 47.8838 8.81364C47.7592 8.57922 47.5467 8.40387 47.2929 8.32617L38.3554 5.5957ZM13.08 38.7891L12.078 40.5215L13.8124 41.5234L14.8163 39.8008L13.08 38.7891ZM16.4608 40.5625L15.7987 42.4473L17.6835 43.0996L18.3456 41.2148L17.4042 40.8887L16.4608 40.5625ZM20.1054 41.6484L19.8163 43.625L20.8085 43.7754L21.8007 43.9141L22.0917 41.9395L21.0975 41.7891L20.1054 41.6484Z" fill="white"/>
</svg>
