<svg width="35" height="33" viewBox="0 0 35 33" fill="none" xmlns="http://www.w3.org/2000/svg">
<path d="M3.31994 0.160156V2.32016H0.439941V21.0402H13.3999V23.9202H8.89994L9.97994 25.1127L15.7399 31.5702L16.2799 32.1552L16.8199 31.5702L22.5799 25.1127L23.6599 23.9202H19.1599V21.0402H32.1199V18.8802H34.2799V0.160156H3.31994ZM4.75994 1.60016H32.8399V17.4402H32.1199V2.32016H4.75994V1.60016ZM1.87994 3.76016H3.54494C3.39025 4.04422 3.27494 4.31703 3.18494 4.52516C3.08369 4.75578 2.974 4.91609 3.00494 4.88516C3.03588 4.85422 2.88682 4.95266 2.66744 5.04266C2.45088 5.12984 2.17525 5.22547 1.87994 5.35766V3.76016ZM5.88494 3.76016H26.6749C27.3106 3.76016 27.4709 3.97953 27.7099 4.39016C27.8281 4.59547 27.9378 4.85703 28.0474 5.11016C28.1571 5.36328 28.2443 5.62203 28.5199 5.89766C28.7928 6.17047 29.0853 6.26328 29.3524 6.37016C29.6196 6.47703 29.8699 6.58391 30.0949 6.68516C30.3199 6.78641 30.5084 6.89609 30.5899 6.97766C30.6715 7.05922 30.6799 7.07891 30.6799 7.18016V16.1802C30.6799 16.2814 30.6715 16.3011 30.5899 16.3827C30.5084 16.4642 30.3199 16.5739 30.0949 16.6752C29.8699 16.7764 29.6196 16.8833 29.3524 16.9902C29.0853 17.097 28.7928 17.1898 28.5199 17.4627C28.2443 17.7383 28.1571 17.997 28.0474 18.2502C27.9378 18.5033 27.8281 18.7648 27.7099 18.9702C27.4709 19.3808 27.3106 19.6002 26.6749 19.6002H14.2774C14.2043 19.5805 14.1284 19.572 14.0524 19.5777C14.0299 19.5833 14.0074 19.5917 13.9849 19.6002H5.88494C5.24932 19.6002 5.089 19.3808 4.84994 18.9702C4.73182 18.7648 4.62213 18.5061 4.51244 18.2502C4.40557 18.0055 4.31557 17.7495 4.06244 17.4852L4.03994 17.4627C3.76713 17.1898 3.47463 17.097 3.20744 16.9902C2.94025 16.8833 2.68994 16.7764 2.46494 16.6752C2.23994 16.5739 2.0515 16.4642 1.96994 16.3827C1.88838 16.3011 1.87994 16.2814 1.87994 16.1802V7.18016C1.87994 7.12953 1.89119 7.09578 1.90244 7.06766C1.91369 7.03953 1.92775 7.01984 1.96994 6.97766C2.0515 6.89609 2.23994 6.78641 2.46494 6.68516C2.68994 6.58391 2.94025 6.47703 3.20744 6.37016C3.47463 6.26328 3.76713 6.17047 4.03994 5.89766C4.31557 5.62203 4.40275 5.36609 4.51244 5.11016C4.62213 4.85422 4.73182 4.59547 4.84994 4.39016C4.909 4.28891 4.97088 4.19891 5.02994 4.12016C5.089 4.04141 5.134 3.97109 5.20994 3.91766C5.359 3.81078 5.56713 3.76016 5.88494 3.76016ZM29.0149 3.76016H30.6799V5.35766C30.3846 5.22547 30.109 5.12984 29.8924 5.04266C29.6703 4.95266 29.524 4.85422 29.5549 4.88516C29.5859 4.91609 29.4762 4.75578 29.3749 4.52516C29.2849 4.31703 29.1696 4.04422 29.0149 3.76016ZM16.2799 4.48016C12.6603 4.48016 9.79994 7.75672 9.79994 11.6802C9.79994 15.6036 12.6603 18.8802 16.2799 18.8802C19.8996 18.8802 22.7599 15.6036 22.7599 11.6802C22.7599 7.75672 19.8996 4.48016 16.2799 4.48016ZM16.2799 5.92016C19.0221 5.92016 21.3199 8.44859 21.3199 11.6802C21.3199 14.9117 19.0221 17.4402 16.2799 17.4402C13.5378 17.4402 11.2399 14.9117 11.2399 11.6802C11.2399 8.44859 13.5378 5.92016 16.2799 5.92016ZM5.83994 10.2402C4.85557 10.2402 4.03994 11.0558 4.03994 12.0402C4.03994 13.0245 4.85557 13.8402 5.83994 13.8402C6.82432 13.8402 7.63994 13.0245 7.63994 12.0402C7.63994 11.0558 6.82432 10.2402 5.83994 10.2402ZM26.7199 10.2402C25.7356 10.2402 24.9199 11.0558 24.9199 12.0402C24.9199 13.0245 25.7356 13.8402 26.7199 13.8402C27.7043 13.8402 28.5199 13.0245 28.5199 12.0402C28.5199 11.0558 27.7043 10.2402 26.7199 10.2402ZM5.83994 11.6802C6.04807 11.6802 6.19994 11.832 6.19994 12.0402C6.19994 12.2483 6.04807 12.4002 5.83994 12.4002C5.63182 12.4002 5.47994 12.2483 5.47994 12.0402C5.47994 11.832 5.63182 11.6802 5.83994 11.6802ZM26.7199 11.6802C26.9281 11.6802 27.0799 11.832 27.0799 12.0402C27.0799 12.2483 26.9281 12.4002 26.7199 12.4002C26.5118 12.4002 26.3599 12.2483 26.3599 12.0402C26.3599 11.832 26.5118 11.6802 26.7199 11.6802ZM1.87994 18.0027C2.17525 18.1348 2.45088 18.2305 2.66744 18.3177C2.88682 18.4077 3.03588 18.5061 3.00494 18.4752C2.974 18.4442 3.08369 18.6045 3.18494 18.8352C3.27494 19.0433 3.39025 19.3161 3.54494 19.6002H1.87994V18.0027ZM30.6799 18.0027V19.6002H29.0149C29.1696 19.3161 29.2849 19.0433 29.3749 18.8352C29.4762 18.6045 29.5859 18.4442 29.5549 18.4752C29.524 18.5061 29.6703 18.4077 29.8924 18.3177C30.109 18.2305 30.3846 18.1348 30.6799 18.0027ZM14.8399 21.0402H17.7199V25.3602H20.4424L16.2799 29.9952L12.1174 25.3602H14.8399V21.0402Z" fill="white"/>
</svg>
