<svg width="26" height="28" viewBox="0 0 26 28" fill="none" xmlns="http://www.w3.org/2000/svg">
<path d="M12.9999 0.0546875C11.6268 0.0546875 10.4666 0.819084 8.74634 1.70406C7.02604 2.58904 4.7225 3.65726 1.11962 4.44828L0.679932 4.54453V4.99516C0.679932 13.5746 3.6798 19.3032 6.69228 22.8583C9.70475 26.4134 12.7648 27.8316 12.7648 27.8316L13.012 27.9453L13.2537 27.8217C13.2537 27.8217 25.3199 21.603 25.3199 4.99516V4.54453L24.8802 4.44828C21.2774 3.65726 18.9738 2.58904 17.2535 1.70406C15.5332 0.819084 14.3731 0.0546875 12.9999 0.0546875ZM12.9999 1.17469C13.9217 1.17469 14.9845 1.79653 16.7416 2.70047C18.4095 3.55848 20.7624 4.5989 24.1638 5.40094C23.9654 20.5946 13.7156 26.2845 12.9912 26.6667C12.6414 26.4968 10.2174 25.2849 7.54759 22.1342C4.73099 18.8103 1.93451 13.4725 1.83493 5.40094C5.23706 4.59887 7.59015 3.55858 9.25821 2.70047C11.0154 1.79653 12.0782 1.17469 12.9999 1.17469ZM12.9999 6.16C11.1519 6.16 9.63993 7.72756 9.63993 9.63156V10.64H9.02415C8.40815 10.64 7.95993 11.1442 7.95993 11.7042V17.36C7.95993 17.976 8.40815 18.48 9.02415 18.48H16.9757C17.5357 18.48 18.0399 17.9758 18.0399 17.4158V11.7042C18.0399 11.1442 17.5917 10.64 16.9757 10.64H16.3599V9.63156C16.3599 7.72756 14.8479 6.16 12.9999 6.16ZM12.9999 7.28C14.2319 7.28 15.2399 8.34356 15.2399 9.63156V10.64H10.7599V9.63156C10.7599 8.34356 11.7679 7.28 12.9999 7.28ZM9.07993 11.76H16.9199V17.36H9.07993V11.76ZM12.9999 13.44C12.5519 13.44 12.2157 13.7762 12.2157 14.2242C12.2157 14.4482 12.3277 14.6162 12.4957 14.7842V15.5116C12.4957 15.7916 12.7199 16.0158 12.9999 16.0158C13.2799 16.0158 13.5042 15.7916 13.5042 15.5116V14.7842C13.6722 14.6162 13.7842 14.4482 13.7842 14.2242C13.7842 13.7762 13.4479 13.44 12.9999 13.44Z" fill="white"/>
</svg>
