<svg width="28" height="28" viewBox="0 0 28 28" fill="none" xmlns="http://www.w3.org/2000/svg">
<path d="M26.8799 14.0001C26.8799 6.89332 21.1067 1.12012 13.9999 1.12012C6.89309 1.12012 1.11988 6.89332 1.11988 14.0001C1.11988 21.1069 6.89309 26.8801 13.9999 26.8801C21.1067 26.8801 26.8799 21.1069 26.8799 14.0001ZM25.7599 14.0001C25.7599 20.5016 20.5014 25.7601 13.9999 25.7601C7.49838 25.7601 2.23988 20.5016 2.23988 14.0001C2.23989 7.49861 7.49838 2.24012 13.9999 2.24012C20.5014 2.24012 25.7599 7.49861 25.7599 14.0001ZM21.8475 13.9914C21.8462 13.907 21.8259 13.8241 21.788 13.7487C21.7501 13.6733 21.6957 13.6075 21.6288 13.5561C21.6277 13.5553 21.6266 13.5546 21.6255 13.5539L16.0758 8.00418C16.0242 7.95043 15.9624 7.90752 15.894 7.87796C15.8256 7.8484 15.752 7.83279 15.6775 7.83203C15.603 7.83127 15.5291 7.84539 15.4601 7.87355C15.3912 7.90171 15.3285 7.94335 15.2758 7.99604C15.2231 8.04872 15.1815 8.11139 15.1533 8.18037C15.1252 8.24935 15.111 8.32325 15.1118 8.39776C15.1126 8.47226 15.1282 8.54586 15.1577 8.61425C15.1873 8.68265 15.2302 8.74445 15.2839 8.79605L19.928 13.4401L6.71988 13.4401C6.64568 13.4391 6.572 13.4528 6.50314 13.4804C6.43428 13.5081 6.3716 13.5492 6.31876 13.6013C6.26591 13.6534 6.22394 13.7155 6.1953 13.784C6.16666 13.8524 6.15191 13.9259 6.15191 14.0001C6.15191 14.0743 6.16666 14.1478 6.1953 14.2163C6.22394 14.2847 6.26591 14.3468 6.31876 14.3989C6.3716 14.451 6.43428 14.4921 6.50314 14.5198C6.572 14.5475 6.64568 14.5612 6.71988 14.5601L19.928 14.5601L15.2839 19.2042C15.2302 19.2558 15.1873 19.3176 15.1577 19.386C15.1282 19.4544 15.1126 19.528 15.1118 19.6025C15.111 19.677 15.1252 19.7509 15.1533 19.8199C15.1815 19.8888 15.2231 19.9515 15.2758 20.0042C15.3285 20.0569 15.3912 20.0985 15.4601 20.1267C15.5291 20.1548 15.603 20.169 15.6775 20.1682C15.752 20.1674 15.8256 20.1518 15.894 20.1223C15.9624 20.0927 16.0242 20.0498 16.0758 19.9961L21.6266 14.4453C21.6964 14.3922 21.7527 14.3235 21.7911 14.2446C21.8295 14.1658 21.8488 14.079 21.8475 13.9914Z" fill="#0B111A"/>
</svg>
