<svg width="47" height="46" viewBox="0 0 47 46" fill="none" xmlns="http://www.w3.org/2000/svg">
<path d="M22.5978 3.25862e-05C22.1134 -0.00387341 21.6954 0.343783 21.6095 0.820346L21.0626 3.81253C20.5939 3.96488 20.1408 4.14847 19.6954 4.36722L17.2384 2.59378C16.8439 2.30863 16.297 2.34769 15.9533 2.69535L13.8165 4.79691C13.4728 5.14066 13.422 5.67972 13.6993 6.07816L15.4259 8.57816C15.1993 9.01956 15.0079 9.47269 14.8556 9.93753L11.8595 10.4219C11.379 10.4961 11.0236 10.9102 11.0197 11.4024L11.0001 14.4024C10.9962 14.8868 11.3439 15.3047 11.8204 15.3907L14.8243 15.9375C14.9728 16.4024 15.1603 16.8516 15.379 17.293L13.5939 19.7618C13.3087 20.1563 13.3478 20.7032 13.6915 21.0508L15.8009 23.1836C16.1408 23.5274 16.6798 23.5782 17.0783 23.3008L19.6095 21.5586C20.047 21.7813 20.4962 21.9649 20.9572 22.1172L21.4728 25.1485C21.5548 25.6289 21.965 25.9805 22.4533 25.9844L25.4493 26C25.9415 26.0039 26.3595 25.6485 26.4415 25.168L26.9533 22.1407C27.4103 21.9922 27.8556 21.8125 28.2892 21.5938L30.8009 23.3789C31.1993 23.6602 31.7384 23.6133 32.0822 23.2735L34.2189 21.168C34.5665 20.8243 34.6134 20.2774 34.3283 19.875L32.547 17.375C32.7697 16.9414 32.9572 16.5 33.1095 16.0469L36.1525 15.5313C36.629 15.4493 36.9806 15.0352 36.9845 14.5469L37.0001 11.5508C37.004 11.0625 36.6525 10.6446 36.1681 10.5625L33.1525 10.0508C33.004 9.58988 32.8204 9.14066 32.6056 8.69925L34.379 6.19535C34.6642 5.80081 34.6212 5.26175 34.2775 4.9141L32.1681 2.78128C31.8243 2.43753 31.2775 2.38675 30.879 2.67191L28.4025 4.42972C27.965 4.20706 27.5197 4.01956 27.0626 3.86722L26.5783 0.859408C26.5001 0.375033 26.0861 0.0195636 25.5939 0.0156576L22.5978 3.25862e-05ZM23.4259 2.00394L24.7384 2.01175L25.172 4.71488C25.2345 5.10941 25.5275 5.42581 25.9103 5.52347C26.6447 5.71097 27.3517 6.01175 28.0158 6.4141C28.3556 6.62503 28.7892 6.60941 29.1134 6.37894L31.3439 4.79691L32.2658 5.7266L30.6603 7.9766C30.4337 8.30081 30.4142 8.7266 30.6173 9.06644C31.0118 9.73441 31.3009 10.4453 31.4728 11.1758C31.5665 11.5664 31.8829 11.8633 32.2814 11.9336L34.9962 12.3907L34.9884 13.6993L32.2462 14.1602C31.8556 14.2266 31.5392 14.5196 31.4415 14.9024C31.2579 15.6289 30.965 16.3321 30.5626 16.9883C30.3556 17.3321 30.3712 17.7657 30.6056 18.0899L32.2033 20.3438L31.2775 21.2618L29.0079 19.6524C28.6837 19.4219 28.2579 19.4063 27.9181 19.6094C27.254 20.0039 26.5509 20.2852 25.8204 20.4649C25.4298 20.5586 25.1368 20.875 25.0704 21.2696L24.6095 23.9961L23.3048 23.9844L22.8439 21.25C22.7775 20.8594 22.4845 20.543 22.0939 20.4493C21.3712 20.2696 20.6603 19.9727 19.9962 19.5743C19.6603 19.3711 19.2345 19.3828 18.9103 19.6094L16.6329 21.1797L15.7111 20.2461L17.3165 18.0274C17.5509 17.7032 17.5704 17.2696 17.3634 16.9258C16.9689 16.2578 16.6798 15.5469 16.5001 14.8125C16.4064 14.4297 16.0978 14.1368 15.7072 14.0625L13.004 13.5743L13.0158 12.2618L15.7072 11.8282C16.1017 11.7657 16.422 11.4727 16.5197 11.086C16.7072 10.3477 17.0001 9.63675 17.4064 8.97269C17.6134 8.63675 17.6017 8.20706 17.3751 7.88285L15.8243 5.63285L16.754 4.71097L18.965 6.30472C19.2853 6.5391 19.715 6.55863 20.0587 6.35941C20.7306 5.95706 21.4454 5.67191 22.1837 5.49222C22.5704 5.40238 22.8634 5.08988 22.9337 4.70316L23.4259 2.00394ZM23.9884 8.03519C22.7033 8.02738 21.4142 8.50784 20.4337 9.4805C18.4728 11.418 18.4572 14.6094 20.3947 16.5743C22.3322 18.5352 25.5275 18.5508 27.4884 16.6133C29.4493 14.6758 29.465 11.4805 27.5275 9.51956C26.5587 8.5391 25.2736 8.043 23.9884 8.03519ZM23.9806 10.0235C24.7501 10.0274 25.5158 10.3282 26.1056 10.9258C27.2853 12.1172 27.2736 14.0118 26.0822 15.1875C24.8908 16.3672 22.9962 16.3594 21.8165 15.168C20.6368 13.9727 20.6486 12.0782 21.84 10.9024C22.4376 10.3125 23.2072 10.0196 23.9806 10.0235ZM13.422 26C10.8126 26 9.6095 26.625 8.31263 27.125C8.31263 27.1289 8.31263 27.1289 8.31263 27.1289C5.82435 28.0977 1.56653 30.1055 1.56653 30.1055C1.06653 30.3399 0.851691 30.9375 1.08607 31.4375C1.32435 31.9375 1.922 32.1524 2.422 31.918C2.422 31.918 6.70716 29.8985 9.03528 28.9922C10.4728 28.4336 11.0978 28 13.422 28C18.5509 28 18.3439 30.2266 20.5079 31.5C20.5392 31.5196 20.5743 31.5391 20.6095 31.5508C23.2931 32.7539 26.1759 33 28.5001 33C29.5275 33 30.1759 33.2383 30.5275 33.5039C30.8751 33.7735 31.0001 34.0508 31.0001 34.5C31.0001 35.0274 30.8673 35.2774 30.5197 35.5313C30.1759 35.7813 29.5118 36 28.5001 36H23.2501C21.047 36 17.254 35.0313 17.254 35.0313C16.9103 34.9375 16.5392 35.0391 16.2853 35.293C16.0314 35.5469 15.9337 35.918 16.0275 36.2618C16.1251 36.6094 16.3986 36.8789 16.7462 36.9688C16.7462 36.9688 20.5079 38 23.2501 38H28.5001C29.5197 38 30.4064 37.8321 31.1486 37.4649C31.2462 37.4375 31.34 37.3946 31.422 37.336L40.9064 31.1133C42.3322 30.2891 43.3048 30.0586 43.8751 30.0664C44.4454 30.0782 44.6408 30.25 44.8126 30.4688C45.0665 30.7969 45.0822 30.9219 44.9181 31.3008C44.7501 31.6836 44.2618 32.2735 43.3829 32.8828C43.3829 32.8828 43.3829 32.8828 43.379 32.8828C42.2931 33.6407 30.1486 41.5547 28.7462 42.3516C27.6876 42.9532 26.8478 43.586 25.8908 43.8555C24.9337 44.1211 23.8048 44.1211 21.9376 43.2305C20.6915 42.6328 15.3868 39.9141 13.6681 39.043C12.7111 38.5586 11.8947 38.2852 11.0626 38.3321C10.2267 38.3789 9.51966 38.7344 8.78919 39.1953C8.78528 39.1953 8.78138 39.1993 8.78138 39.2032L6.30482 40.7852C5.99232 40.9727 5.80872 41.3164 5.82044 41.6797C5.83216 42.043 6.0431 42.3711 6.36732 42.5352C6.69544 42.6993 7.08216 42.6758 7.38294 42.4688L9.84778 40.8907C10.4845 40.4922 10.8439 40.3477 11.172 40.3282C11.5001 40.3086 11.9493 40.4141 12.7658 40.8282C14.4689 41.6914 19.6915 44.3711 21.0783 45.0313C23.254 46.0743 25.0158 46.1719 26.4259 45.7813C27.8361 45.3868 28.84 44.5977 29.7345 44.0899C31.6642 42.9922 43.129 35.4922 44.5236 34.5235C45.5822 33.7852 46.3595 33.0157 46.754 32.0938C47.1486 31.1719 47.0197 30.0469 46.3908 29.2422C46.3908 29.2422 46.3908 29.2422 46.3908 29.2383C45.8947 28.6055 45.0158 28.0899 43.9103 28.0664C43.2814 28.0547 42.5822 28.1993 41.8048 28.4844C41.6603 28.293 41.4415 28.043 41.1408 27.8243C40.5587 27.3907 39.6329 27 38.3751 27C37.7306 27 37.2033 27.1485 36.7814 27.3243C36.1798 26.75 35.1134 26.0196 33.5626 26.0196C32.3048 26.0196 31.1251 26.4414 30.3048 26.9258C30.1525 27.0157 29.7853 27.2461 29.1603 27.6368C28.5353 28.0274 27.7189 28.5313 26.9142 29.0352C25.629 29.836 24.8322 30.336 24.3712 30.625C23.3908 30.4297 22.4103 30.1524 21.4845 29.7461C20.6954 29.2383 19.1759 26 13.422 26ZM33.5626 28.0196C34.1954 28.0196 34.6486 28.1797 34.9689 28.3672L30.3439 31.2344C29.7931 31.0782 29.1759 31 28.5001 31C28.2111 31 27.8947 30.9805 27.5939 30.9688C27.7814 30.8516 27.7814 30.8516 27.9728 30.7344C28.7775 30.2305 29.59 29.7227 30.2189 29.3321C30.8439 28.9453 31.3556 28.6289 31.3204 28.6485C31.7931 28.3672 32.8204 28.0196 33.5626 28.0196ZM38.3751 29C39.1876 29 39.6251 29.2071 39.8908 29.3907C39.8751 29.3985 39.8634 29.4063 39.8478 29.418L32.9376 33.9493C32.8439 33.3907 32.6134 32.8555 32.2462 32.4102L37.0783 29.4141L37.0822 29.4063C37.1212 29.3868 37.9572 29 38.3751 29Z" fill="white"/>
</svg>
