<svg width="50" height="50" viewBox="0 0 50 50" fill="none" xmlns="http://www.w3.org/2000/svg">
<path d="M25 0C22.5469 0 20.4766 1.35547 17.4062 2.9375C14.3359 4.51953 10.2148 6.42969 3.78125 7.84375L3 8.03125V8.8125C3 24.1328 8.37109 34.3711 13.75 40.7188C19.1289 47.0664 24.5938 49.5938 24.5938 49.5938L25.0312 49.8125L25.4688 49.5938C25.4688 49.5938 47 38.4688 47 8.8125V8.03125L46.2188 7.84375C39.7852 6.42969 35.6641 4.51953 32.5938 2.9375C29.5234 1.35547 27.4531 0 25 0ZM25 2C26.6445 2 28.5508 3.10547 31.6875 4.71875C34.668 6.25 38.8594 8.12891 44.9375 9.5625C44.5703 36.6797 26.2539 46.8516 24.9688 47.5312C24.3477 47.2305 20.0195 45.0664 15.25 39.4375C10.2227 33.5039 5.24609 23.9609 5.0625 9.5625C11.1406 8.12891 15.332 6.25 18.3125 4.71875C21.4492 3.10547 23.3555 2 25 2Z" fill="white"/>
<path d="M24 8V10.8008C18.4 11.1008 17.4492 15.2992 17.4492 17.1992C17.4492 26.5992 31.1504 21.5992 31.1504 28.6992C31.1504 29.5992 30.9508 33.5996 25.0508 33.5996C24.8508 33.5996 18.7492 33.6008 18.9492 27.3008H16.8496C17.0496 34.0008 21.3 34.8992 24 35.1992V38H26V35.1992C32.7 34.6992 33.1504 29.6992 33.1504 28.6992C33.1504 19.6992 19.4492 24.3004 19.4492 17.4004C19.4492 15.1004 20.3508 12.4004 25.0508 12.4004C29.8508 12.4004 30.4508 16.2004 30.5508 17.9004H32.6504C32.8504 15.1004 30.8508 11.0008 26.0508 10.8008V8H24Z" fill="white"/>
</svg>
