<svg width="70" height="70" viewBox="0 0 70 70" fill="none" xmlns="http://www.w3.org/2000/svg">
<g clip-path="url(#clip0)">
<path d="M5.6 1.3999C2.52109 1.3999 0 3.921 0 6.9999V60.1999C0 63.2788 2.52109 65.7999 5.6 65.7999H35V62.9999H5.6C4.03594 62.9999 2.8 61.764 2.8 60.1999V6.9999C2.8 5.43584 4.03594 4.1999 5.6 4.1999H44.8C46.3641 4.1999 47.6 5.43584 47.6 6.9999V19.5999H50.4V6.9999C50.4 3.921 47.8789 1.3999 44.8 1.3999H5.6ZM6.7375 6.9999C6.07031 7.12568 5.58906 7.71631 5.6 8.3999V54.5999C5.6 55.371 6.22891 55.9999 7 55.9999H35V53.1999H8.4V9.7999H42V19.5999H44.8V8.3999C44.8 7.62881 44.1711 6.9999 43.4 6.9999H7C6.95625 6.9999 6.9125 6.9999 6.86875 6.9999C6.825 6.9999 6.78125 6.9999 6.7375 6.9999ZM40.6 20.9999C38.2977 20.9999 36.4 22.8976 36.4 25.1999V65.7999C36.4 68.1022 38.2977 69.9999 40.6 69.9999H65.8C68.1023 69.9999 70 68.1022 70 65.7999V25.1999C70 22.8976 68.1023 20.9999 65.8 20.9999H40.6ZM40.6 23.7999H65.8C66.593 23.7999 67.2 24.4069 67.2 25.1999V65.7999C67.2 66.5929 66.593 67.1999 65.8 67.1999H40.6C39.807 67.1999 39.2 66.5929 39.2 65.7999V25.1999C39.2 24.4069 39.807 23.7999 40.6 23.7999ZM43.1375 26.5999C42.4703 26.7257 41.9891 27.3163 42 27.9999V58.7999C42 59.571 42.6289 60.1999 43.4 60.1999H63C63.7711 60.1999 64.4 59.571 64.4 58.7999V27.9999C64.4 27.2288 63.7711 26.5999 63 26.5999H43.4C43.3563 26.5999 43.3125 26.5999 43.2687 26.5999C43.225 26.5999 43.1812 26.5999 43.1375 26.5999ZM44.8 29.3999H61.6V57.3999H44.8V29.3999ZM25.2 57.3999C24.0406 57.3999 23.1 58.3405 23.1 59.4999C23.1 60.6593 24.0406 61.5999 25.2 61.5999C26.3594 61.5999 27.3 60.6593 27.3 59.4999C27.3 58.3405 26.3594 57.3999 25.2 57.3999ZM53.2 61.5999C52.0406 61.5999 51.1 62.5405 51.1 63.6999C51.1 64.8593 52.0406 65.7999 53.2 65.7999C54.3594 65.7999 55.3 64.8593 55.3 63.6999C55.3 62.5405 54.3594 61.5999 53.2 61.5999Z" fill="#4D7EFF"/>
</g>
<defs>
<clipPath id="clip0">
<rect width="70" height="70" fill="white"/>
</clipPath>
</defs>
</svg>
