<svg width="36" height="36" viewBox="0 0 36 36" fill="none" xmlns="http://www.w3.org/2000/svg">
<path d="M22.32 0C18.6469 0 15.3394 1.43156 12.8925 3.735C14.0456 3.375 15.2016 3.09094 16.425 2.9475C18.1519 2.01094 20.16 1.44 22.32 1.44C29.0869 1.44 34.56 6.91313 34.56 13.68C34.56 15.84 33.9891 17.8481 33.0525 19.575C32.9091 20.7984 32.625 21.9544 32.265 23.1075C34.5684 20.6606 36 17.3531 36 13.68C36 6.12 29.88 0 22.32 0ZM18 4.32C14.3269 4.32 11.0194 5.75156 8.5725 8.055C9.72563 7.695 10.8816 7.41094 12.105 7.2675C13.8319 6.33094 15.84 5.76 18 5.76C24.7669 5.76 30.24 11.2331 30.24 18C30.24 20.16 29.6691 22.1681 28.7325 23.895C28.5891 25.1184 28.305 26.2744 27.945 27.4275C30.2484 24.9806 31.68 21.6731 31.68 18C31.68 10.44 25.56 4.32 18 4.32ZM13.68 8.64C6.13406 8.64 0 14.7741 0 22.32C0 29.8659 6.13406 36 13.68 36C21.2259 36 27.36 29.8659 27.36 22.32C27.36 14.7741 21.2259 8.64 13.68 8.64ZM13.68 10.08C20.4497 10.08 25.92 15.5503 25.92 22.32C25.92 29.0897 20.4497 34.56 13.68 34.56C6.91031 34.56 1.44 29.0897 1.44 22.32C1.44 15.5503 6.91031 10.08 13.68 10.08Z" fill="white"/>
</svg>
