<svg width="42" height="42" viewBox="0 0 42 42" fill="none" xmlns="http://www.w3.org/2000/svg">
<path d="M20.9999 0.732498C20.5599 0.732498 20.1165 0.845935 19.7246 1.07625C19.7177 1.07625 19.7143 1.07969 19.7074 1.08312C19.7074 1.08312 15.0771 3.90187 10.4399 6.78594C8.12302 8.22969 5.80615 9.68719 4.05302 10.825C3.1799 11.3956 2.44771 11.8837 1.92177 12.255C1.65709 12.4441 1.44396 12.5987 1.27552 12.7362C1.19302 12.805 1.12084 12.8669 1.04177 12.9494C1.00052 12.9906 0.959274 13.0353 0.904274 13.1144C0.852712 13.1934 0.749586 13.2931 0.732399 13.6094C0.701462 14.1594 0.863025 14.1869 0.945524 14.3175C1.02459 14.4481 1.1174 14.565 1.22396 14.7025C1.44052 14.9706 1.7224 15.2903 2.05927 15.6547C2.17959 15.7819 2.35834 15.9606 2.4924 16.1016C2.4924 19.02 2.49927 25.1181 2.50271 26.5275C1.9699 26.8437 1.6399 27.4178 1.6399 28.04C1.6399 28.2428 1.67771 28.4456 1.74646 28.6381C1.15177 29.1194 0.759899 29.8378 0.759899 30.6525C0.759899 31.6906 1.29959 32.5741 1.76709 33.3509C2.23459 34.1312 2.70209 34.7362 2.70209 34.7362C2.86709 34.9528 3.1249 35.08 3.39646 35.08C3.66802 35.08 3.92584 34.9562 4.09427 34.7431C4.09427 34.7431 4.56177 34.145 5.03271 33.3716C5.50365 32.5947 6.0399 31.7009 6.0399 30.6525C6.0399 29.8378 5.64802 29.1194 5.05334 28.6381C5.12209 28.4456 5.1599 28.2428 5.1599 28.04C5.1599 27.4281 4.84021 26.8609 4.32115 26.5412C4.32115 25.4 4.31427 21.3506 4.31084 17.9784C4.37959 18.0472 4.43459 18.1091 4.50677 18.1778C6.13959 19.8141 7.52834 21.1478 7.7724 21.385C6.88896 21.8525 6.0399 22.9628 6.0399 24.7159C6.0399 26.5206 7.15709 28.2359 8.90334 28.7309C10.0274 31.5806 11.4574 34.5712 13.3515 36.9362C15.2971 39.3666 17.7996 41.1747 20.8521 41.2297C20.9002 41.2366 20.9449 41.24 20.993 41.24H20.9965C20.9999 41.24 20.9999 41.24 21.0033 41.24C21.0068 41.24 21.0102 41.24 21.0136 41.24C21.048 41.24 21.0858 41.2366 21.1236 41.2297C24.1865 41.185 26.6958 39.3734 28.6483 36.9362C30.5424 34.5712 31.9724 31.5806 33.0965 28.7309C34.8427 28.2359 35.9599 26.5206 35.9599 24.7159C35.9599 22.9628 35.1108 21.8525 34.2274 21.385C34.4715 21.1478 35.8602 19.8141 37.4965 18.1778C38.3799 17.2909 39.2668 16.3834 39.9405 15.6547C40.2774 15.2903 40.5593 14.9706 40.7758 14.7025C40.8824 14.565 40.9752 14.4481 41.0577 14.3175C41.1368 14.1869 41.2983 14.1594 41.2674 13.6094C41.2502 13.2897 41.1471 13.19 41.0921 13.1109C41.0405 13.0353 40.9993 12.9906 40.958 12.9494C40.879 12.8669 40.8068 12.805 40.7208 12.7362C40.5558 12.5987 40.3427 12.4441 40.078 12.255C39.5521 11.8837 38.8199 11.3956 37.9433 10.825C36.1936 9.68719 33.8768 8.22969 31.5599 6.78594C26.9227 3.90187 22.2924 1.08312 22.2924 1.08312C22.2855 1.07969 22.2821 1.07625 22.2752 1.07625C21.8833 0.845935 21.4399 0.732498 20.9999 0.732498ZM20.9999 2.5475C21.1236 2.5475 21.2474 2.58187 21.3608 2.64719C21.378 2.6575 25.9808 5.45562 30.5974 8.32937C32.9108 9.76969 35.2243 11.2272 36.9533 12.3512C37.8196 12.915 38.538 13.3962 39.0296 13.74C39.0777 13.7744 39.0915 13.7881 39.1327 13.8191C38.978 14.0012 38.8302 14.1766 38.6033 14.4206C37.9605 15.1184 37.0874 16.0122 36.2074 16.8922C34.7808 18.3222 33.8355 19.2297 33.3474 19.6972V15.72C33.3474 15.4037 33.1858 15.1116 32.9143 14.9466C32.9143 14.9466 28.339 12.1725 20.9999 12.1725C13.6608 12.1725 9.08552 14.9466 9.08552 14.9466C8.81396 15.1116 8.6524 15.4037 8.6524 15.72V19.6972C8.16427 19.2297 7.21896 18.3222 5.7924 16.8922C5.19427 16.2975 4.68552 15.7612 4.16302 15.2147C4.10115 15.115 4.01521 15.0291 3.91896 14.9637C3.7574 14.7919 3.53396 14.5753 3.39302 14.4241C3.16959 14.1766 3.02177 13.9978 2.86365 13.8191C2.90834 13.7847 2.92209 13.7744 2.97021 13.74C3.46177 13.3928 4.18021 12.9116 5.04646 12.3512C6.77552 11.2237 9.08896 9.76969 11.4024 8.32937C16.019 5.45562 20.6218 2.6575 20.639 2.64719C20.7524 2.58187 20.8761 2.5475 20.9999 2.5475ZM20.9999 13.9875C27.373 13.9875 30.9721 15.9847 31.5324 16.3078V19.8037C30.1471 19.3431 26.7543 18.3325 20.9999 18.3325C15.2455 18.3325 11.8527 19.3431 10.4674 19.8037V16.3078C11.0277 15.9847 14.6268 13.9875 20.9999 13.9875ZM20.9999 20.1475C26.6236 20.1475 30.3602 21.2509 31.5599 21.66V22.8597L32.5361 22.7566C32.5361 22.7566 32.9693 22.7222 33.3749 22.9216C33.784 23.1175 34.1999 23.4028 34.1999 24.7159C34.1999 25.95 33.4024 27.0569 32.3505 27.1634L31.8108 27.2184L31.6183 27.7237C30.5115 30.5906 29.0608 33.6019 27.2733 35.8362C25.4858 38.0672 23.4371 39.48 21.0033 39.48C20.9999 39.48 20.9999 39.48 20.9965 39.48C18.5627 39.48 16.514 38.0672 14.7265 35.8362C12.939 33.6019 11.4883 30.5906 10.3815 27.7237L10.189 27.2184L9.64927 27.1634C8.5974 27.0569 7.7999 25.95 7.7999 24.7159C7.7999 23.4028 8.21584 23.1175 8.6249 22.9216C9.03052 22.7222 9.46365 22.7566 9.46365 22.7566L10.4399 22.8597V21.66C11.6396 21.2509 15.3761 20.1475 20.9999 20.1475ZM3.3999 29.8C3.90521 29.8 4.2799 30.1816 4.2799 30.6525C4.2799 30.9034 3.93615 31.78 3.52709 32.4537C3.46521 32.5569 3.46521 32.5431 3.40334 32.6359C3.34146 32.5362 3.33802 32.55 3.27271 32.4434C2.86021 31.7628 2.5199 30.8691 2.5199 30.6525C2.5199 30.1816 2.89459 29.8 3.3999 29.8Z" fill="black"/>
<path d="M20.9999 0.732498C20.5599 0.732498 20.1165 0.845935 19.7246 1.07625C19.7177 1.07625 19.7143 1.07969 19.7074 1.08312C19.7074 1.08312 15.0771 3.90187 10.4399 6.78594C8.12302 8.22969 5.80615 9.68719 4.05302 10.825C3.1799 11.3956 2.44771 11.8837 1.92177 12.255C1.65709 12.4441 1.44396 12.5987 1.27552 12.7362C1.19302 12.805 1.12084 12.8669 1.04177 12.9494C1.00052 12.9906 0.959274 13.0353 0.904274 13.1144C0.852712 13.1934 0.749586 13.2931 0.732399 13.6094C0.701462 14.1594 0.863025 14.1869 0.945524 14.3175C1.02459 14.4481 1.1174 14.565 1.22396 14.7025C1.44052 14.9706 1.7224 15.2903 2.05927 15.6547C2.17959 15.7819 2.35834 15.9606 2.4924 16.1016C2.4924 19.02 2.49927 25.1181 2.50271 26.5275C1.9699 26.8437 1.6399 27.4178 1.6399 28.04C1.6399 28.2428 1.67771 28.4456 1.74646 28.6381C1.15177 29.1194 0.759899 29.8378 0.759899 30.6525C0.759899 31.6906 1.29959 32.5741 1.76709 33.3509C2.23459 34.1312 2.70209 34.7362 2.70209 34.7362C2.86709 34.9528 3.1249 35.08 3.39646 35.08C3.66802 35.08 3.92584 34.9562 4.09427 34.7431C4.09427 34.7431 4.56177 34.145 5.03271 33.3716C5.50365 32.5947 6.0399 31.7009 6.0399 30.6525C6.0399 29.8378 5.64802 29.1194 5.05334 28.6381C5.12209 28.4456 5.1599 28.2428 5.1599 28.04C5.1599 27.4281 4.84021 26.8609 4.32115 26.5412C4.32115 25.4 4.31427 21.3506 4.31084 17.9784C4.37959 18.0472 4.43459 18.1091 4.50677 18.1778C6.13959 19.8141 7.52834 21.1478 7.7724 21.385C6.88896 21.8525 6.0399 22.9628 6.0399 24.7159C6.0399 26.5206 7.15709 28.2359 8.90334 28.7309C10.0274 31.5806 11.4574 34.5712 13.3515 36.9362C15.2971 39.3666 17.7996 41.1747 20.8521 41.2297C20.9002 41.2366 20.9449 41.24 20.993 41.24H20.9965C20.9999 41.24 20.9999 41.24 21.0033 41.24C21.0068 41.24 21.0102 41.24 21.0136 41.24C21.048 41.24 21.0858 41.2366 21.1236 41.2297C24.1865 41.185 26.6958 39.3734 28.6483 36.9362C30.5424 34.5712 31.9724 31.5806 33.0965 28.7309C34.8427 28.2359 35.9599 26.5206 35.9599 24.7159C35.9599 22.9628 35.1108 21.8525 34.2274 21.385C34.4715 21.1478 35.8602 19.8141 37.4965 18.1778C38.3799 17.2909 39.2668 16.3834 39.9405 15.6547C40.2774 15.2903 40.5593 14.9706 40.7758 14.7025C40.8824 14.565 40.9752 14.4481 41.0577 14.3175C41.1368 14.1869 41.2983 14.1594 41.2674 13.6094C41.2502 13.2897 41.1471 13.19 41.0921 13.1109C41.0405 13.0353 40.9993 12.9906 40.958 12.9494C40.879 12.8669 40.8068 12.805 40.7208 12.7362C40.5558 12.5987 40.3427 12.4441 40.078 12.255C39.5521 11.8837 38.8199 11.3956 37.9433 10.825C36.1936 9.68719 33.8768 8.22969 31.5599 6.78594C26.9227 3.90187 22.2924 1.08312 22.2924 1.08312C22.2855 1.07969 22.2821 1.07625 22.2752 1.07625C21.8833 0.845935 21.4399 0.732498 20.9999 0.732498ZM20.9999 2.5475C21.1236 2.5475 21.2474 2.58187 21.3608 2.64719C21.378 2.6575 25.9808 5.45562 30.5974 8.32937C32.9108 9.76969 35.2243 11.2272 36.9533 12.3512C37.8196 12.915 38.538 13.3962 39.0296 13.74C39.0777 13.7744 39.0915 13.7881 39.1327 13.8191C38.978 14.0012 38.8302 14.1766 38.6033 14.4206C37.9605 15.1184 37.0874 16.0122 36.2074 16.8922C34.7808 18.3222 33.8355 19.2297 33.3474 19.6972V15.72C33.3474 15.4037 33.1858 15.1116 32.9143 14.9466C32.9143 14.9466 28.339 12.1725 20.9999 12.1725C13.6608 12.1725 9.08552 14.9466 9.08552 14.9466C8.81396 15.1116 8.6524 15.4037 8.6524 15.72V19.6972C8.16427 19.2297 7.21896 18.3222 5.7924 16.8922C5.19427 16.2975 4.68552 15.7612 4.16302 15.2147C4.10115 15.115 4.01521 15.0291 3.91896 14.9637C3.7574 14.7919 3.53396 14.5753 3.39302 14.4241C3.16959 14.1766 3.02177 13.9978 2.86365 13.8191C2.90834 13.7847 2.92209 13.7744 2.97021 13.74C3.46177 13.3928 4.18021 12.9116 5.04646 12.3512C6.77552 11.2237 9.08896 9.76969 11.4024 8.32937C16.019 5.45562 20.6218 2.6575 20.639 2.64719C20.7524 2.58187 20.8761 2.5475 20.9999 2.5475ZM20.9999 13.9875C27.373 13.9875 30.9721 15.9847 31.5324 16.3078V19.8037C30.1471 19.3431 26.7543 18.3325 20.9999 18.3325C15.2455 18.3325 11.8527 19.3431 10.4674 19.8037V16.3078C11.0277 15.9847 14.6268 13.9875 20.9999 13.9875ZM20.9999 20.1475C26.6236 20.1475 30.3602 21.2509 31.5599 21.66V22.8597L32.5361 22.7566C32.5361 22.7566 32.9693 22.7222 33.3749 22.9216C33.784 23.1175 34.1999 23.4028 34.1999 24.7159C34.1999 25.95 33.4024 27.0569 32.3505 27.1634L31.8108 27.2184L31.6183 27.7237C30.5115 30.5906 29.0608 33.6019 27.2733 35.8362C25.4858 38.0672 23.4371 39.48 21.0033 39.48C20.9999 39.48 20.9999 39.48 20.9965 39.48C18.5627 39.48 16.514 38.0672 14.7265 35.8362C12.939 33.6019 11.4883 30.5906 10.3815 27.7237L10.189 27.2184L9.64927 27.1634C8.5974 27.0569 7.7999 25.95 7.7999 24.7159C7.7999 23.4028 8.21584 23.1175 8.6249 22.9216C9.03052 22.7222 9.46365 22.7566 9.46365 22.7566L10.4399 22.8597V21.66C11.6396 21.2509 15.3761 20.1475 20.9999 20.1475ZM3.3999 29.8C3.90521 29.8 4.2799 30.1816 4.2799 30.6525C4.2799 30.9034 3.93615 31.78 3.52709 32.4537C3.46521 32.5569 3.46521 32.5431 3.40334 32.6359C3.34146 32.5362 3.33802 32.55 3.27271 32.4434C2.86021 31.7628 2.5199 30.8691 2.5199 30.6525C2.5199 30.1816 2.89459 29.8 3.3999 29.8Z" fill="#2864FF"/>
</svg>
