<svg width="44" height="43" viewBox="0 0 44 43" fill="none" xmlns="http://www.w3.org/2000/svg">
<path d="M22 0.879883C13.8084 0.879883 7.05375 7.11894 6.2425 15.0974C5.43813 15.3586 4.79875 15.998 4.5375 16.8024C3.28281 17.0533 2.19313 17.9127 1.43 19.0574C0.519063 20.4221 0 22.2199 0 24.1999C0 26.1799 0.519063 27.9777 1.43 29.3424C2.19313 30.4871 3.28281 31.3464 4.5375 31.5974C4.88125 32.6561 5.87125 33.4399 7.04 33.4399C8.48719 33.4399 9.68 32.2471 9.68 30.7999V17.5999C9.68 16.5068 8.98906 15.5786 8.03 15.1799C8.8 8.12613 14.74 2.63988 22 2.63988C29.26 2.63988 35.2 8.12613 35.97 15.1799C35.0109 15.5786 34.32 16.5068 34.32 17.5999V30.7999C34.32 31.9239 35.0522 32.8693 36.0525 33.2474C35.9322 34.9283 35.3616 36.1933 34.4575 37.0974C33.4366 38.1183 31.9447 38.7199 29.92 38.7199H27.115C26.7472 37.7024 25.7778 36.9599 24.64 36.9599H20.24C18.7928 36.9599 17.6 38.1527 17.6 39.5999C17.6 41.0471 18.7928 42.2399 20.24 42.2399H24.64C25.7778 42.2399 26.7472 41.4974 27.115 40.4799H29.92C32.2953 40.4799 34.3234 39.7614 35.7225 38.3624C36.9806 37.1043 37.6819 35.3443 37.8125 33.2749C38.5894 33.0033 39.2081 32.3811 39.4625 31.5974C40.7172 31.3464 41.8069 30.4871 42.57 29.3424C43.4809 27.9777 44 26.1799 44 24.1999C44 22.2199 43.4809 20.4221 42.57 19.0574C41.8069 17.9127 40.7172 17.0533 39.4625 16.8024C39.2012 15.998 38.5619 15.3586 37.7575 15.0974C36.9463 7.11894 30.1916 0.879883 22 0.879883ZM7.04 16.7199C7.535 16.7199 7.92 17.1049 7.92 17.5999V30.7999C7.92 31.2949 7.535 31.6799 7.04 31.6799C6.545 31.6799 6.16 31.2949 6.16 30.7999V17.5999C6.16 17.1049 6.545 16.7199 7.04 16.7199ZM36.96 16.7199C37.455 16.7199 37.84 17.1049 37.84 17.5999V30.7999C37.84 31.2949 37.455 31.6799 36.96 31.6799C36.465 31.6799 36.08 31.2949 36.08 30.7999V17.5999C36.08 17.1049 36.465 16.7199 36.96 16.7199ZM4.4 18.6724V29.7274C3.85344 29.4936 3.33438 29.0502 2.8875 28.3799C2.20688 27.3589 1.76 25.8636 1.76 24.1999C1.76 22.5361 2.20688 21.0408 2.8875 20.0199C3.33438 19.3496 3.85344 18.9061 4.4 18.6724ZM39.6 18.6724C40.1466 18.9061 40.6656 19.3496 41.1125 20.0199C41.7931 21.0408 42.24 22.5361 42.24 24.1999C42.24 25.8636 41.7931 27.3589 41.1125 28.3799C40.6656 29.0502 40.1466 29.4936 39.6 29.7274V18.6724ZM20.24 38.7199H24.64C25.135 38.7199 25.52 39.1049 25.52 39.5999C25.52 40.0949 25.135 40.4799 24.64 40.4799H20.24C19.745 40.4799 19.36 40.0949 19.36 39.5999C19.36 39.1049 19.745 38.7199 20.24 38.7199Z" fill="#2864FF"/>
</svg>
