<svg width="38" height="38" viewBox="0 0 38 38" fill="none" xmlns="http://www.w3.org/2000/svg">
<path d="M18.9999 3.80054C10.6144 3.80054 3.79988 10.6151 3.79988 19.0005C3.79846 19.1012 3.81706 19.2012 3.85462 19.2947C3.89217 19.3881 3.94793 19.4732 4.01864 19.5449C4.08935 19.6166 4.17362 19.6736 4.26653 19.7125C4.35945 19.7513 4.45916 19.7714 4.55988 19.7714C4.6606 19.7714 4.76031 19.7513 4.85323 19.7125C4.94615 19.6736 5.03041 19.6166 5.10112 19.5449C5.17184 19.4732 5.22759 19.3881 5.26514 19.2947C5.3027 19.2012 5.32131 19.1012 5.31988 19.0005C5.31988 11.4366 11.436 5.32054 18.9999 5.32054C24.0674 5.32054 28.4773 8.07467 30.8422 12.1605H27.3599C27.2592 12.1591 27.1592 12.1777 27.0657 12.2153C26.9723 12.2528 26.8872 12.3086 26.8155 12.3793C26.7438 12.45 26.6868 12.5343 26.6479 12.6272C26.6091 12.7201 26.5891 12.8198 26.5891 12.9205C26.5891 13.0213 26.6091 13.121 26.6479 13.2139C26.6868 13.3068 26.7438 13.3911 26.8155 13.4618C26.8872 13.5325 26.9723 13.5882 27.0657 13.6258C27.1592 13.6634 27.2592 13.682 27.3599 13.6805H32.0743H33.4399V7.60054C33.4413 7.49886 33.4223 7.39793 33.3839 7.30374C33.3456 7.20954 33.2888 7.12399 33.2168 7.05216C33.1448 6.98032 33.0592 6.92366 32.9649 6.88552C32.8706 6.84739 32.7697 6.82856 32.668 6.83015C32.4667 6.83329 32.2749 6.91618 32.1346 7.06061C31.9944 7.20505 31.9171 7.39923 31.9199 7.60054V11.0027C29.2378 6.68101 24.4526 3.80054 18.9999 3.80054ZM17.4799 10.6405L17.0242 13.0719C16.7962 13.1479 16.4922 13.2242 16.2642 13.3762L14.2113 11.9319L11.9313 14.2119L13.2999 16.1119C13.2239 16.4159 13.0716 16.6451 12.9956 16.9491L10.6399 17.3291V20.5205L12.9956 20.9005C13.0716 21.1285 13.1479 21.4325 13.2999 21.6605L11.9313 23.7119L14.2113 25.9919L16.2642 24.6248C16.5682 24.7768 16.7959 24.8531 17.0999 24.9291L17.4799 27.3605H20.5956L21.0513 25.0048C21.2793 24.9288 21.5073 24.8525 21.8113 24.7005L23.8642 26.0691L26.1442 23.7891L24.6999 21.8119C24.8519 21.5079 24.9282 21.2042 25.0042 20.9762L27.3599 20.5205V17.3291L24.9285 16.9491C24.8525 16.7211 24.7762 16.4171 24.6242 16.1891L25.9913 14.1362L23.7885 11.9319L21.8113 13.3762C21.5833 13.2242 21.2793 13.1479 21.0513 13.0719L20.6713 10.6405H17.4799ZM18.7713 12.1605H19.3799L19.6842 14.2119L20.1399 14.3648C20.5959 14.5168 21.0513 14.6682 21.4313 14.8962L23.6356 13.9091L24.0156 14.2891L22.7999 16.0362L23.0285 16.4162C23.2565 16.8722 23.4079 17.3288 23.5599 17.7848L23.7113 18.2405L25.8399 18.5448V19.1519L23.7885 19.6091L23.6356 20.0648C23.4836 20.5208 23.3322 20.9762 23.1042 21.3562L22.7999 21.8119L24.0913 23.5605L23.6356 24.0162L21.8885 22.8005L21.5085 23.0291C21.0525 23.2571 20.5959 23.4085 20.1399 23.5605L19.6842 23.7119L19.3042 25.8405H18.6956L18.3913 23.7891L17.9356 23.6362C17.4796 23.4842 17.0242 23.3328 16.6442 23.1048L16.1885 22.8005L14.3642 24.0162L13.9085 23.5605L15.1242 21.8119L14.8956 21.4319C14.6676 20.9759 14.5162 20.4448 14.3642 20.0648L14.2113 19.6091L12.1599 19.2291V18.6205L14.2885 18.2405L14.3642 17.7091C14.4402 17.3291 14.5919 16.8719 14.8199 16.4919L15.1242 16.1119L13.9085 14.3648L14.3642 13.9091L16.1113 15.1248L16.4913 14.9719C17.0233 14.7439 17.4796 14.5168 17.9356 14.3648L18.3913 14.2891L18.7713 12.1605ZM18.9999 15.8848C17.3279 15.8848 15.9599 17.2528 15.9599 18.9248C15.9599 20.5968 17.3279 21.9648 18.9999 21.9648C20.6719 21.9648 22.0399 20.6728 22.0399 18.9248C22.0399 17.2528 20.6719 15.8848 18.9999 15.8848ZM18.9999 17.4805C19.8359 17.4805 20.5199 18.0885 20.5199 19.0005C20.5199 19.8365 19.8359 20.5205 18.9999 20.5205C18.1639 20.5205 17.4799 19.8365 17.4799 19.0005C17.4799 18.1645 18.1639 17.4805 18.9999 17.4805ZM33.428 18.2301C33.2267 18.2333 33.0349 18.3162 32.8946 18.4606C32.7544 18.605 32.6771 18.7992 32.6799 19.0005C32.6799 26.5644 26.5638 32.6805 18.9999 32.6805C13.9327 32.6805 9.52405 29.926 7.15902 25.8405L10.6399 25.842C10.7406 25.8434 10.8406 25.8248 10.934 25.7873C11.0275 25.7497 11.1125 25.694 11.1843 25.6233C11.256 25.5525 11.3129 25.4683 11.3518 25.3754C11.3907 25.2825 11.4107 25.1827 11.4107 25.082C11.4107 24.9813 11.3907 24.8816 11.3518 24.7887C11.3129 24.6958 11.256 24.6115 11.1843 24.5408C11.1125 24.4701 11.0275 24.4143 10.934 24.3768C10.8406 24.3392 10.7406 24.3206 10.6399 24.322L4.55988 24.3205V30.4005C4.55846 30.5012 4.57706 30.6012 4.61462 30.6947C4.65217 30.7881 4.70793 30.8732 4.77864 30.9449C4.84935 31.0166 4.93362 31.0736 5.02653 31.1125C5.11945 31.1513 5.21916 31.1714 5.31988 31.1714C5.4206 31.1714 5.52031 31.1513 5.61323 31.1125C5.70615 31.0736 5.79041 31.0166 5.86112 30.9449C5.93184 30.8732 5.98759 30.7881 6.02514 30.6947C6.0627 30.6012 6.08131 30.5012 6.07988 30.4005V26.9983C8.76192 31.3201 13.5471 34.2005 18.9999 34.2005C27.3853 34.2005 34.1999 27.386 34.1999 19.0005C34.2013 18.8989 34.1822 18.7979 34.1439 18.7037C34.1056 18.6095 34.0488 18.524 33.9768 18.4522C33.9048 18.3803 33.8192 18.3237 33.7249 18.2855C33.6306 18.2474 33.5297 18.2286 33.428 18.2301Z" fill="#2C67FF"/>
</svg>
