<svg width="34" height="34" viewBox="0 0 34 34" fill="none" xmlns="http://www.w3.org/2000/svg">
<path d="M16.9995 0.439941C7.86164 0.439941 0.439453 7.86213 0.439453 16.9999C0.439453 26.1378 7.86164 33.5599 16.9995 33.5599C26.1373 33.5599 33.5595 26.1378 33.5595 16.9999C33.5595 7.86213 26.1373 0.439941 16.9995 0.439941ZM16.9995 1.87994C25.3582 1.87994 32.1195 8.64119 32.1195 16.9999C32.1195 25.3587 25.3582 32.1199 16.9995 32.1199C8.6407 32.1199 1.87945 25.3587 1.87945 16.9999C1.87945 13.4646 3.09164 10.2134 5.11945 7.63994H16.9995V6.19994H6.42445C6.95883 5.67682 7.52695 5.19869 8.13445 4.75994H16.9995V3.31994H10.587C12.536 2.40588 14.7016 1.87994 16.9995 1.87994ZM6.13195 9.07994L7.99945 10.4524L7.57195 11.0374L15.5595 16.8649C15.5566 16.9099 15.5595 16.9549 15.5595 16.9999C15.5595 17.7959 16.2035 18.4399 16.9995 18.4399C17.7026 18.4399 18.2904 17.9365 18.417 17.2699L25.212 15.0199L24.762 13.6474L17.9445 15.9424C17.6885 15.7146 17.3679 15.5599 16.9995 15.5599V14.8399H15.2445L13.2645 13.3999H16.9995V11.9599H11.2845L9.32695 10.5199H16.9995V9.07994H6.13195Z" fill="white"/>
</svg>
