<svg width="34" height="34" viewBox="0 0 34 34" fill="none" xmlns="http://www.w3.org/2000/svg">
<path d="M16.28 11.2402V12.8377C15.0931 12.9784 13.0175 13.9571 13.0175 16.4377C13.0175 21.053 19.745 18.6596 19.745 22.1527C19.745 23.3284 19.2275 24.3577 17 24.3577C14.75 24.3577 14.1397 22.6477 14.1425 21.6802H12.6575C12.8993 24.7937 15.0453 25.5024 16.28 25.6852V27.0802H17.72V25.7077C18.7887 25.6037 21.2975 24.8302 21.2975 21.9952C21.2975 19.613 19.3597 18.9465 17.495 18.5077C15.9593 18.1477 14.5925 17.7512 14.5925 16.2802C14.5925 15.6249 14.8512 14.1877 17 14.1877C18.485 14.1877 19.2218 15.1159 19.4525 16.2577H20.915C20.4818 14.6602 19.8012 13.2315 17.72 12.8827V11.2402H16.28Z" fill="white"/>
<path d="M7.50488 33.5768C7.16176 33.5121 6.91426 33.2084 6.91988 32.8568V17.7368H1.15988C0.864568 17.7424 0.591756 17.5681 0.479256 17.2953C0.363943 17.0224 0.428631 16.7046 0.642381 16.4993L16.4824 0.659316C16.6174 0.518691 16.8058 0.439941 16.9999 0.439941C17.1939 0.439941 17.3824 0.518691 17.5174 0.659316L33.3574 16.4993C33.5711 16.7046 33.6358 17.0224 33.5205 17.2953C33.408 17.5681 33.1352 17.7424 32.8399 17.7368H27.0799V32.8568C27.0799 33.2534 26.7564 33.5768 26.3599 33.5768H7.63988C7.61738 33.5768 7.59488 33.5768 7.57238 33.5768C7.54988 33.5768 7.52738 33.5768 7.50488 33.5768ZM8.35988 32.1368H25.6399V17.0168C25.6399 16.6203 25.9633 16.2968 26.3599 16.2968H31.0849L16.9999 2.21182L2.91488 16.2968H7.63988C8.03644 16.2968 8.35988 16.6203 8.35988 17.0168V32.1368Z" fill="white"/>
</svg>
