<svg width="18" height="18" viewBox="0 0 18 18" fill="none" xmlns="http://www.w3.org/2000/svg">
<path d="M11.2002 11.9328V10.4661C11.5302 10.3026 12.474 9.17913 12.573 8.30133C12.8326 8.28153 13.2403 8.0432 13.3606 7.10233C13.4251 6.59706 13.1685 6.31326 13.013 6.2238C13.013 6.2238 13.4002 5.48826 13.4002 4.6002C13.4002 2.81966 12.7013 1.3002 11.2002 1.3002C11.2002 1.3002 10.6788 0.200195 9.00019 0.200195C5.88939 0.200195 4.60019 2.1956 4.60019 4.6002C4.60019 5.4098 4.98739 6.2238 4.98739 6.2238C4.83193 6.31326 4.57526 6.5978 4.63979 7.10233C4.76006 8.0432 5.1678 8.28153 5.4274 8.30133C5.5264 9.17913 6.47019 10.3026 6.80019 10.4661V11.9328C6.06686 14.1328 0.200195 12.6661 0.200195 17.7995H17.8002C17.8002 12.6661 11.9335 14.1328 11.2002 11.9328Z" fill="#3D4C6A"/>
</svg>
