<svg width="20" height="22" viewBox="0 0 20 22" fill="none" xmlns="http://www.w3.org/2000/svg">
<path d="M9.99995 0C9.12854 0 8.33963 0.415938 7.24995 0.99C5.84573 1.72906 3.92073 2.73625 0.663696 3.45125L0.319946 3.53375V3.8775C0.319946 17.282 9.72667 21.7783 9.8212 21.8212L10.0137 21.9175L10.1924 21.8212C10.287 21.7731 19.6799 16.8352 19.6799 3.8775V3.53375L19.3362 3.45125C16.0792 2.73625 14.1542 1.72906 12.7499 0.99C11.6603 0.415938 10.8714 0 9.99995 0ZM9.99995 5.72C12.4303 5.72 14.3999 7.68969 14.3999 10.12C14.3999 12.5503 12.4303 14.52 9.99995 14.52C7.56963 14.52 5.59995 12.5503 5.59995 10.12C5.59995 7.68969 7.56963 5.72 9.99995 5.72ZM9.9862 6.88875C8.3637 6.91797 8.15917 8.11766 8.51495 9.4875C8.45135 9.52703 8.35167 9.64047 8.37745 9.85875C8.42557 10.2644 8.58885 10.3727 8.6937 10.3813C8.73495 10.7594 8.98588 11.2045 9.11995 11.275C9.11995 11.5448 9.1337 11.7494 9.1062 12.045C8.95151 12.4592 8.37229 12.6328 7.79995 12.87C8.40323 13.3547 9.16807 13.64 9.99995 13.64C10.8335 13.64 11.5967 13.3409 12.1999 12.8562C11.631 12.6191 11.0604 12.4592 10.9074 12.045C10.8799 11.7494 10.8937 11.5448 10.8937 11.275C11.0278 11.2045 11.2667 10.7594 11.3062 10.3813C11.411 10.3727 11.5743 10.2644 11.6224 9.85875C11.6482 9.64047 11.5485 9.52703 11.4849 9.4875C11.6568 8.97188 12.0092 7.38375 10.8249 7.21875C10.7029 7.00391 10.3918 6.88875 9.9862 6.88875Z" fill="white"/>
</svg>
