<svg width="32" height="32" viewBox="0 0 32 32" fill="none" xmlns="http://www.w3.org/2000/svg">
<path d="M22.9299 0.18261C22.3674 0.191048 21.7458 0.314798 20.9724 0.52011C18.7533 1.10511 5.98738 4.63761 5.98738 4.63761C5.96488 4.64324 5.94238 4.65167 5.91988 4.66011C3.8977 5.4223 2.62363 6.13949 1.84738 7.18011C1.07676 8.21511 0.905195 9.45823 0.902383 10.9376C0.902383 10.946 0.902383 10.9517 0.902383 10.9601V11.4101C0.893945 11.5001 0.879883 11.5901 0.879883 11.6801V27.0701C0.879883 29.2948 2.7052 31.1201 4.92988 31.1201H27.0699C29.2946 31.1201 31.1199 29.2948 31.1199 27.0701V11.5676C31.1199 9.27261 29.0668 7.36011 26.7999 7.36011H5.19988C4.39269 7.36011 3.66707 7.59074 3.06238 7.96761C3.58551 7.32355 4.5727 6.71605 6.36988 6.03261C6.38957 6.02417 6.3952 6.01855 6.41488 6.01011C6.49644 5.98761 19.1864 2.48042 21.3324 1.91511C22.0468 1.72667 22.5811 1.62824 22.9524 1.62261C23.3236 1.61699 23.498 1.67324 23.5824 1.73511C23.6668 1.79699 23.7371 1.91792 23.8074 2.20761C23.8777 2.4973 23.9199 2.93886 23.9199 3.51261V5.92011H25.3599V3.51261C25.3599 2.88824 25.3205 2.35949 25.2024 1.87011C25.0843 1.38074 24.8536 0.899798 24.4374 0.58761C24.0211 0.275422 23.4924 0.174172 22.9299 0.18261ZM5.19988 8.80011H26.7999C28.2033 8.80011 29.6799 10.1951 29.6799 11.5676V27.0701C29.6799 28.5157 28.5155 29.6801 27.0699 29.6801H4.92988C3.48145 29.6801 2.31988 28.5185 2.31988 27.0701V12.7376L2.34238 11.5451C2.38457 11.0557 2.63488 10.3582 3.10738 9.81261C3.62207 9.21636 4.3252 8.80011 5.19988 8.80011ZM25.7199 17.4401C24.7243 17.4401 23.9199 18.2445 23.9199 19.2401C23.9199 20.2357 24.7243 21.0401 25.7199 21.0401C26.7127 21.0401 27.5199 20.2357 27.5199 19.2401C27.5199 18.2445 26.7127 17.4401 25.7199 17.4401Z" fill="white"/>
</svg>
