<svg width="120" height="120" viewBox="0 0 120 120" fill="none" xmlns="http://www.w3.org/2000/svg">
<path d="M49.5601 15.84C50.0401 15.84 50.4001 15.48 50.4001 15V15.84H49.5601Z" fill="#2864FF"/>
<path d="M54.2399 15V12.84C54.2399 12.36 53.8799 12 53.3999 12H51.2399C50.7599 12 50.3999 12.36 50.3999 12.84V15.84H54.2399V15Z" fill="#2864FF"/>
<path d="M70.4401 12H72.6001C73.0801 12 73.4401 12.36 73.4401 12.84V15C73.4401 15.48 73.0801 15.84 72.6001 15.84H70.4401C69.9601 15.84 69.6001 15.48 69.6001 15V12.84C69.6001 12.36 69.9601 12 70.4401 12Z" fill="#2864FF"/>
<path d="M43.5597 15.84C43.0797 15.84 42.7197 16.2 42.7197 16.68V19.68H46.5597V15.84H43.5597Z" fill="#2864FF"/>
<path d="M50.4001 15.84H46.5601V19.68H50.4001V15.84Z" fill="#2864FF"/>
<path d="M54.2399 18.84C54.2399 19.32 53.8799 19.68 53.3999 19.68H50.3999V15.84H54.2399V18.84Z" fill="#2864FF"/>
<path d="M64.9199 15.84H62.7599C62.2799 15.84 61.9199 16.2 61.9199 16.68V18.84C61.9199 19.32 62.2799 19.68 62.7599 19.68H65.7599V15.84H64.9199Z" fill="#2864FF"/>
<path d="M66.6003 19.68H68.7603C69.2403 19.68 69.6003 19.32 69.6003 18.84V16.68C69.6003 16.2 69.2403 15.84 68.7603 15.84H65.7603V19.68H66.6003Z" fill="#2864FF"/>
<path d="M72.6001 19.68C73.0801 19.68 73.4401 19.32 73.4401 18.84V19.68H72.6001Z" fill="#2864FF"/>
<path d="M77.2799 18.84V16.68C77.2799 16.2 76.9199 15.84 76.4399 15.84H74.2799C73.7999 15.84 73.4399 16.2 73.4399 16.68V19.68H77.2799V18.84Z" fill="#2864FF"/>
<path d="M42.7197 22.6801C42.7197 23.1601 43.0797 23.5201 43.5597 23.5201H45.7197C46.1997 23.5201 46.5597 23.1601 46.5597 22.6801V19.6801H42.7197V22.6801Z" fill="#2864FF"/>
<path d="M47.4001 19.6801H46.5601V20.5201C46.5601 20.0401 46.9201 19.6801 47.4001 19.6801Z" fill="#2864FF"/>
<path d="M70.4401 19.6801C69.9601 19.6801 69.6001 20.0401 69.6001 20.5201V23.5201H73.4401V19.6801H70.4401Z" fill="#2864FF"/>
<path d="M77.2799 19.6801H73.4399V23.5201H77.2799V19.6801Z" fill="#2864FF"/>
<path d="M45.7197 27.3599C46.1997 27.3599 46.5597 26.9999 46.5597 26.5199V27.3599H45.7197Z" fill="#2864FF"/>
<path d="M50.4001 26.5199V24.3599C50.4001 23.8799 50.0401 23.5199 49.5601 23.5199H47.4001C46.9201 23.5199 46.5601 23.8799 46.5601 24.3599V27.3599H50.4001V26.5199Z" fill="#2864FF"/>
<path d="M51.2399 27.3599C50.7599 27.3599 50.3999 26.9999 50.3999 26.5199V27.3599H51.2399Z" fill="#2864FF"/>
<path d="M61.9201 26.5199V24.3599C61.9201 23.8799 61.5601 23.5199 61.0801 23.5199H58.9201C58.4401 23.5199 58.0801 23.8799 58.0801 24.3599V27.3599H61.9201V26.5199Z" fill="#2864FF"/>
<path d="M62.7599 27.3599C62.2799 27.3599 61.9199 26.9999 61.9199 26.5199V27.3599H62.7599Z" fill="#2864FF"/>
<path d="M69.6001 26.5199C69.6001 26.9999 69.9601 27.3599 70.4401 27.3599H73.4401V23.5199H69.6001V26.5199Z" fill="#2864FF"/>
<path d="M77.2799 23.5199H73.4399V27.3599H77.2799V23.5199Z" fill="#2864FF"/>
<path d="M43.5597 27.36C43.0797 27.36 42.7197 27.72 42.7197 28.2V31.2H46.5597V27.36H43.5597Z" fill="#2864FF"/>
<path d="M50.4001 27.36H46.5601V31.2H50.4001V27.36Z" fill="#2864FF"/>
<path d="M53.3999 27.36C53.8799 27.36 54.2399 27.72 54.2399 28.2V31.2H50.3999V27.36H53.3999Z" fill="#2864FF"/>
<path d="M61.9201 27.36H58.0801V31.2H61.9201V27.36Z" fill="#2864FF"/>
<path d="M65.7599 27.36H61.9199V31.2H65.7599V27.36Z" fill="#2864FF"/>
<path d="M66.6003 31.2H68.7603C69.2403 31.2 69.6003 30.84 69.6003 30.36V28.2C69.6003 27.72 69.2403 27.36 68.7603 27.36H65.7603V31.2H66.6003Z" fill="#2864FF"/>
<path d="M73.4401 28.2V27.36H72.6001C73.0801 27.36 73.4401 27.72 73.4401 28.2Z" fill="#2864FF"/>
<path d="M73.4399 30.36C73.4399 30.84 73.7999 31.2 74.2799 31.2H76.4399C76.9199 31.2 77.2799 30.84 77.2799 30.36V27.36H73.4399V30.36Z" fill="#2864FF"/>
<path d="M46.5597 31.2H42.7197V35.04H46.5597V31.2Z" fill="#2864FF"/>
<path d="M47.4001 31.2H46.5601V32.04C46.5601 31.56 46.9201 31.2 47.4001 31.2Z" fill="#2864FF"/>
<path d="M50.4001 32.04V31.2H49.5601C50.0401 31.2 50.4001 31.56 50.4001 32.04Z" fill="#2864FF"/>
<path d="M54.2399 31.2H50.3999V35.04H54.2399V31.2Z" fill="#2864FF"/>
<path d="M61.9201 31.2H58.0801V35.04H61.9201V31.2Z" fill="#2864FF"/>
<path d="M62.7599 31.2H61.9199V32.04C61.9199 31.56 62.2799 31.2 62.7599 31.2Z" fill="#2864FF"/>
<path d="M70.4401 31.2H72.6001C73.0801 31.2 73.4401 31.56 73.4401 32.04V34.2C73.4401 34.68 73.0801 35.04 72.6001 35.04H70.4401C69.9601 35.04 69.6001 34.68 69.6001 34.2V32.04C69.6001 31.56 69.9601 31.2 70.4401 31.2Z" fill="#2864FF"/>
<path d="M46.5597 35.04H42.7197V38.88H46.5597V35.04Z" fill="#2864FF"/>
<path d="M54.2399 35.04H50.3999V38.88H54.2399V35.04Z" fill="#2864FF"/>
<path d="M55.0797 38.88C54.5997 38.88 54.2397 38.52 54.2397 38.04V38.88H55.0797Z" fill="#2864FF"/>
<path d="M58.0801 38.04C58.0801 38.52 58.4401 38.88 58.9201 38.88H61.0801C61.5601 38.88 61.9201 38.52 61.9201 38.04V35.04H58.0801V38.04Z" fill="#2864FF"/>
<path d="M66.6003 35.04H68.7603C69.2403 35.04 69.6003 35.4 69.6003 35.88V38.04C69.6003 38.52 69.2403 38.88 68.7603 38.88H66.6003C66.1203 38.88 65.7603 38.52 65.7603 38.04V35.88C65.7603 35.4 66.1203 35.04 66.6003 35.04Z" fill="#2864FF"/>
<path d="M74.2799 35.04H76.4399C76.9199 35.04 77.2799 35.4 77.2799 35.88V38.04C77.2799 38.52 76.9199 38.88 76.4399 38.88H74.2799C73.7999 38.88 73.4399 38.52 73.4399 38.04V35.88C73.4399 35.4 73.7999 35.04 74.2799 35.04Z" fill="#2864FF"/>
<path d="M42.7197 41.8801C42.7197 42.3601 43.0797 42.7201 43.5597 42.7201H45.7197C46.1997 42.7201 46.5597 42.3601 46.5597 41.8801V38.8801H42.7197V41.8801Z" fill="#2864FF"/>
<path d="M50.3999 41.8801C50.3999 42.3601 50.7599 42.7201 51.2399 42.7201H54.2399V38.8801H50.3999V41.8801Z" fill="#2864FF"/>
<path d="M57.2397 38.8801C57.7197 38.8801 58.0797 39.2401 58.0797 39.7201V42.7201H54.2397V38.8801H57.2397Z" fill="#2864FF"/>
<path d="M58.9201 42.7201C58.4401 42.7201 58.0801 42.3601 58.0801 41.8801V42.7201H58.9201Z" fill="#2864FF"/>
<path d="M12.84 42.7199C12.36 42.7199 12 43.0799 12 43.5599V46.5599H15.84V42.7199H12.84Z" fill="#2864FF"/>
<path d="M18.8398 42.7199C19.3198 42.7199 19.6798 43.0799 19.6798 43.5599V46.5599H15.8398V42.7199H18.8398Z" fill="#2864FF"/>
<path d="M22.6802 46.5599C23.1602 46.5599 23.5202 46.1999 23.5202 45.7199V46.5599H22.6802Z" fill="#2864FF"/>
<path d="M20.5202 46.5599C20.0402 46.5599 19.6802 46.1999 19.6802 45.7199V46.5599H20.5202Z" fill="#2864FF"/>
<path d="M27.36 45.7199V43.5599C27.36 43.0799 27 42.7199 26.52 42.7199H24.36C23.88 42.7199 23.52 43.0799 23.52 43.5599V46.5599H27.36V45.7199Z" fill="#2864FF"/>
<path d="M28.2004 46.5599C27.7204 46.5599 27.3604 46.1999 27.3604 45.7199V46.5599H28.2004Z" fill="#2864FF"/>
<path d="M38.04 42.7199H35.88C35.4 42.7199 35.04 43.0799 35.04 43.5599V45.7199C35.04 46.1999 35.4 46.5599 35.88 46.5599H38.88V42.7199H38.04Z" fill="#2864FF"/>
<path d="M41.8799 42.7199C42.3599 42.7199 42.7199 43.0799 42.7199 43.5599V46.5599H38.8799V42.7199H41.8799Z" fill="#2864FF"/>
<path d="M43.5597 46.5599C43.0797 46.5599 42.7197 46.1999 42.7197 45.7199V46.5599H43.5597Z" fill="#2864FF"/>
<path d="M54.2399 43.5599V42.7199H53.3999C53.8799 42.7199 54.2399 43.0799 54.2399 43.5599Z" fill="#2864FF"/>
<path d="M58.0797 42.7199H54.2397V46.5599H58.0797V42.7199Z" fill="#2864FF"/>
<path d="M61.9201 42.7199H58.0801V46.5599H61.9201V42.7199Z" fill="#2864FF"/>
<path d="M64.9199 42.7199C65.3999 42.7199 65.7599 43.0799 65.7599 43.5599V46.5599H61.9199V42.7199H64.9199Z" fill="#2864FF"/>
<path d="M72.6001 46.5599C73.0801 46.5599 73.4401 46.1999 73.4401 45.7199V46.5599H72.6001Z" fill="#2864FF"/>
<path d="M77.2799 45.7199V43.5599C77.2799 43.0799 76.9199 42.7199 76.4399 42.7199H74.2799C73.7999 42.7199 73.4399 43.0799 73.4399 43.5599V46.5599H77.2799V45.7199Z" fill="#2864FF"/>
<path d="M81.9601 42.7199C81.4801 42.7199 81.1201 43.0799 81.1201 43.5599V46.5599H84.9601V42.7199H81.9601Z" fill="#2864FF"/>
<path d="M88.8 42.7199H84.96V46.5599H88.8V42.7199Z" fill="#2864FF"/>
<path d="M91.7998 42.7199C92.2798 42.7199 92.6398 43.0799 92.6398 43.5599V46.5599H88.7998V42.7199H91.7998Z" fill="#2864FF"/>
<path d="M99.48 42.7199H97.32C96.84 42.7199 96.48 43.0799 96.48 43.5599V45.7199C96.48 46.1999 96.84 46.5599 97.32 46.5599H100.32V42.7199H99.48Z" fill="#2864FF"/>
<path d="M103.32 42.7199C103.8 42.7199 104.16 43.0799 104.16 43.5599V46.5599H100.32V42.7199H103.32Z" fill="#2864FF"/>
<path d="M15.84 46.5599H12V50.3999H15.84V46.5599Z" fill="#2864FF"/>
<path d="M19.6798 46.5599H15.8398V50.3999H19.6798V46.5599Z" fill="#2864FF"/>
<path d="M23.5202 46.5599H19.6802V50.3999H23.5202V46.5599Z" fill="#2864FF"/>
<path d="M27.36 46.5599H23.52V50.3999H27.36V46.5599Z" fill="#2864FF"/>
<path d="M28.2004 50.3999H30.3604C30.8404 50.3999 31.2004 50.0399 31.2004 49.5599V47.3999C31.2004 46.9199 30.8404 46.5599 30.3604 46.5599H27.3604V50.3999H28.2004Z" fill="#2864FF"/>
<path d="M38.88 47.3999V46.5599H38.04C38.52 46.5599 38.88 46.9199 38.88 47.3999Z" fill="#2864FF"/>
<path d="M38.8799 49.5599C38.8799 50.0399 39.2399 50.3999 39.7199 50.3999H42.7199V46.5599H38.8799V49.5599Z" fill="#2864FF"/>
<path d="M46.5597 46.5599H42.7197V50.3999H46.5597V46.5599Z" fill="#2864FF"/>
<path d="M47.4001 50.3999H49.5601C50.0401 50.3999 50.4001 50.0399 50.4001 49.5599V47.3999C50.4001 46.9199 50.0401 46.5599 49.5601 46.5599H46.5601V50.3999H47.4001Z" fill="#2864FF"/>
<path d="M58.0797 46.5599H54.2397V50.3999H58.0797V46.5599Z" fill="#2864FF"/>
<path d="M61.9201 46.5599H58.0801V50.3999H61.9201V46.5599Z" fill="#2864FF"/>
<path d="M65.7599 49.5599C65.7599 50.0399 65.3999 50.3999 64.9199 50.3999H61.9199V46.5599H65.7599V49.5599Z" fill="#2864FF"/>
<path d="M72.6001 46.5599H70.4401C69.9601 46.5599 69.6001 46.9199 69.6001 47.3999V49.5599C69.6001 50.0399 69.9601 50.3999 70.4401 50.3999H73.4401V46.5599H72.6001Z" fill="#2864FF"/>
<path d="M77.2799 49.5599C77.2799 50.0399 76.9199 50.3999 76.4399 50.3999H73.4399V46.5599H77.2799V49.5599Z" fill="#2864FF"/>
<path d="M80.2803 50.3999C80.7603 50.3999 81.1203 50.0399 81.1203 49.5599V50.3999H80.2803Z" fill="#2864FF"/>
<path d="M84.9601 46.5599H81.1201V50.3999H84.9601V46.5599Z" fill="#2864FF"/>
<path d="M85.8 46.5599H84.96V47.3999C84.96 46.9199 85.32 46.5599 85.8 46.5599Z" fill="#2864FF"/>
<path d="M88.8 47.3999V46.5599H87.96C88.44 46.5599 88.8 46.9199 88.8 47.3999Z" fill="#2864FF"/>
<path d="M85.8 50.3999C85.32 50.3999 84.96 50.0399 84.96 49.5599V50.3999H85.8Z" fill="#2864FF"/>
<path d="M88.7998 49.5599C88.7998 50.0399 89.1598 50.3999 89.6398 50.3999H91.7998C92.2798 50.3999 92.6398 50.0399 92.6398 49.5599V46.5599H88.7998V49.5599Z" fill="#2864FF"/>
<path d="M100.32 47.3999V46.5599H99.48C99.96 46.5599 100.32 46.9199 100.32 47.3999Z" fill="#2864FF"/>
<path d="M100.32 49.5599C100.32 50.0399 100.68 50.3999 101.16 50.3999H103.32C103.8 50.3999 104.16 50.0399 104.16 49.5599V46.5599H100.32V49.5599Z" fill="#2864FF"/>
<path d="M15.84 50.4H12V54.24H15.84V50.4Z" fill="#2864FF"/>
<path d="M16.6798 50.4H15.8398V51.24C15.8398 50.76 16.1998 50.4 16.6798 50.4Z" fill="#2864FF"/>
<path d="M19.6798 51.24V50.4H18.8398C19.3198 50.4 19.6798 50.76 19.6798 51.24Z" fill="#2864FF"/>
<path d="M19.6802 53.4C19.6802 53.88 20.0402 54.24 20.5202 54.24H22.6802C23.1602 54.24 23.5202 53.88 23.5202 53.4V50.4H19.6802V53.4Z" fill="#2864FF"/>
<path d="M24.36 50.4H23.52V51.24C23.52 50.76 23.88 50.4 24.36 50.4Z" fill="#2864FF"/>
<path d="M35.88 50.4H38.04C38.52 50.4 38.88 50.76 38.88 51.24V53.4C38.88 53.88 38.52 54.24 38.04 54.24H35.88C35.4 54.24 35.04 53.88 35.04 53.4V51.24C35.04 50.76 35.4 50.4 35.88 50.4Z" fill="#2864FF"/>
<path d="M53.3999 54.24C53.8799 54.24 54.2399 53.88 54.2399 53.4V54.24H53.3999Z" fill="#2864FF"/>
<path d="M58.0797 50.4H54.2397V54.24H58.0797V50.4Z" fill="#2864FF"/>
<path d="M61.9201 50.4H58.0801V54.24H61.9201V50.4Z" fill="#2864FF"/>
<path d="M62.7599 50.4H61.9199V51.24C61.9199 50.76 62.2799 50.4 62.7599 50.4Z" fill="#2864FF"/>
<path d="M62.7599 54.24C62.2799 54.24 61.9199 53.88 61.9199 53.4V54.24H62.7599Z" fill="#2864FF"/>
<path d="M76.4399 54.24C76.9199 54.24 77.2799 53.88 77.2799 53.4V54.24H76.4399Z" fill="#2864FF"/>
<path d="M78.1203 50.4C77.6403 50.4 77.2803 50.76 77.2803 51.24V54.24H81.1203V50.4H78.1203Z" fill="#2864FF"/>
<path d="M84.9601 50.4H81.1201V54.24H84.9601V50.4Z" fill="#2864FF"/>
<path d="M87.96 50.4C88.44 50.4 88.8 50.76 88.8 51.24V54.24H84.96V50.4H87.96Z" fill="#2864FF"/>
<path d="M89.6398 54.24C89.1598 54.24 88.7998 53.88 88.7998 53.4V54.24H89.6398Z" fill="#2864FF"/>
<path d="M95.6396 50.4H93.4797C92.9997 50.4 92.6396 50.76 92.6396 51.24V53.4C92.6396 53.88 92.9997 54.24 93.4797 54.24H96.4796V50.4H95.6396Z" fill="#2864FF"/>
<path d="M97.32 54.24H99.48C99.96 54.24 100.32 53.88 100.32 53.4V51.24C100.32 50.76 99.96 50.4 99.48 50.4H96.48V54.24H97.32Z" fill="#2864FF"/>
<path d="M15.84 54.2401H12V58.0801H15.84V54.2401Z" fill="#2864FF"/>
<path d="M27.36 57.2401V55.0801C27.36 54.6001 27 54.2401 26.52 54.2401H24.36C23.88 54.2401 23.52 54.6001 23.52 55.0801V58.0801H27.36V57.2401Z" fill="#2864FF"/>
<path d="M35.0402 57.2401V55.0801C35.0402 54.6001 34.6802 54.2401 34.2002 54.2401H32.0402C31.5602 54.2401 31.2002 54.6001 31.2002 55.0801V58.0801H35.0402V57.2401Z" fill="#2864FF"/>
<path d="M35.88 58.0801C35.4 58.0801 35.04 57.7201 35.04 57.2401V58.0801H35.88Z" fill="#2864FF"/>
<path d="M45.7197 54.2401H43.5597C43.0797 54.2401 42.7197 54.6001 42.7197 55.0801V57.2401C42.7197 57.7201 43.0797 58.0801 43.5597 58.0801H46.5597V54.2401H45.7197Z" fill="#2864FF"/>
<path d="M50.4001 54.2401H46.5601V58.0801H50.4001V54.2401Z" fill="#2864FF"/>
<path d="M54.2399 54.2401H50.3999V58.0801H54.2399V54.2401Z" fill="#2864FF"/>
<path d="M58.0797 54.2401H54.2397V58.0801H58.0797V54.2401Z" fill="#2864FF"/>
<path d="M61.9201 54.2401H58.0801V58.0801H61.9201V54.2401Z" fill="#2864FF"/>
<path d="M65.7599 54.2401H61.9199V58.0801H65.7599V54.2401Z" fill="#2864FF"/>
<path d="M66.6003 58.0801H68.7603C69.2403 58.0801 69.6003 57.7201 69.6003 57.2401V55.0801C69.6003 54.6001 69.2403 54.2401 68.7603 54.2401H65.7603V58.0801H66.6003Z" fill="#2864FF"/>
<path d="M74.2799 54.2401C73.7999 54.2401 73.4399 54.6001 73.4399 55.0801V58.0801H77.2799V54.2401H74.2799Z" fill="#2864FF"/>
<path d="M81.1203 54.2401H77.2803V58.0801H81.1203V54.2401Z" fill="#2864FF"/>
<path d="M84.9601 54.2401H81.1201V58.0801H84.9601V54.2401Z" fill="#2864FF"/>
<path d="M88.8 54.2401H84.96V58.0801H88.8V54.2401Z" fill="#2864FF"/>
<path d="M89.6398 58.0801H91.7998C92.2798 58.0801 92.6398 57.7201 92.6398 57.2401V55.0801C92.6398 54.6001 92.2798 54.2401 91.7998 54.2401H88.7998V58.0801H89.6398Z" fill="#2864FF"/>
<path d="M103.32 58.0801C103.8 58.0801 104.16 57.7201 104.16 57.2401V58.0801H103.32Z" fill="#2864FF"/>
<path d="M108 57.2401V55.0801C108 54.6001 107.64 54.2401 107.16 54.2401H105C104.52 54.2401 104.16 54.6001 104.16 55.0801V58.0801H108V57.2401Z" fill="#2864FF"/>
<path d="M12 61.0801C12 61.5601 12.36 61.9201 12.84 61.9201H15C15.48 61.9201 15.84 61.5601 15.84 61.0801V58.0801H12V61.0801Z" fill="#2864FF"/>
<path d="M22.6802 61.9201C23.1602 61.9201 23.5202 61.5601 23.5202 61.0801V61.9201H22.6802Z" fill="#2864FF"/>
<path d="M27.36 58.0801H23.52V61.9201H27.36V58.0801Z" fill="#2864FF"/>
<path d="M31.2002 61.0801C31.2002 61.5601 31.5602 61.9201 32.0402 61.9201H35.0402V58.0801H31.2002V61.0801Z" fill="#2864FF"/>
<path d="M35.88 61.9201H38.04C38.52 61.9201 38.88 61.5601 38.88 61.0801V58.9201C38.88 58.4401 38.52 58.0801 38.04 58.0801H35.04V61.9201H35.88Z" fill="#2864FF"/>
<path d="M50.4001 58.9201V58.0801H49.5601C50.0401 58.0801 50.4001 58.4401 50.4001 58.9201Z" fill="#2864FF"/>
<path d="M50.3999 61.0801C50.3999 61.5601 50.7599 61.9201 51.2399 61.9201H54.2399V58.0801H50.3999V61.0801Z" fill="#2864FF"/>
<path d="M58.0797 58.0801H54.2397V61.9201H58.0797V58.0801Z" fill="#2864FF"/>
<path d="M58.9201 58.0801H58.0801V58.9201C58.0801 58.4401 58.4401 58.0801 58.9201 58.0801Z" fill="#2864FF"/>
<path d="M61.9201 58.9201V58.0801H61.0801C61.5601 58.0801 61.9201 58.4401 61.9201 58.9201Z" fill="#2864FF"/>
<path d="M61.9199 61.0801C61.9199 61.5601 62.2799 61.9201 62.7599 61.9201H64.9199C65.3999 61.9201 65.7599 61.5601 65.7599 61.0801V58.0801H61.9199V61.0801Z" fill="#2864FF"/>
<path d="M66.6003 58.0801H65.7603V58.9201C65.7603 58.4401 66.1203 58.0801 66.6003 58.0801Z" fill="#2864FF"/>
<path d="M73.4399 61.0801C73.4399 61.5601 73.7999 61.9201 74.2799 61.9201H76.4399C76.9199 61.9201 77.2799 61.5601 77.2799 61.0801V58.0801H73.4399V61.0801Z" fill="#2864FF"/>
<path d="M78.1203 58.0801H77.2803V58.9201C77.2803 58.4401 77.6403 58.0801 78.1203 58.0801Z" fill="#2864FF"/>
<path d="M81.1203 58.9201V58.0801H80.2803C80.7603 58.0801 81.1203 58.4401 81.1203 58.9201Z" fill="#2864FF"/>
<path d="M81.1201 61.0801C81.1201 61.5601 81.4801 61.9201 81.9601 61.9201H84.9601V58.0801H81.1201V61.0801Z" fill="#2864FF"/>
<path d="M88.8 58.0801H84.96V61.9201H88.8V58.0801Z" fill="#2864FF"/>
<path d="M89.6398 58.0801H88.7998V58.9201C88.7998 58.4401 89.1598 58.0801 89.6398 58.0801Z" fill="#2864FF"/>
<path d="M89.6398 61.9201C89.1598 61.9201 88.7998 61.5601 88.7998 61.0801V61.9201H89.6398Z" fill="#2864FF"/>
<path d="M97.32 58.0801C96.84 58.0801 96.48 58.4401 96.48 58.9201V61.9201H100.32V58.0801H97.32Z" fill="#2864FF"/>
<path d="M104.16 58.0801H100.32V61.9201H104.16V58.0801Z" fill="#2864FF"/>
<path d="M108 58.0801H104.16V61.9201H108V58.0801Z" fill="#2864FF"/>
<path d="M18.8398 61.9199H16.6798C16.1998 61.9199 15.8398 62.2799 15.8398 62.7599V64.9199C15.8398 65.3999 16.1998 65.7599 16.6798 65.7599H19.6798V61.9199H18.8398Z" fill="#2864FF"/>
<path d="M23.5202 61.9199H19.6802V65.7599H23.5202V61.9199Z" fill="#2864FF"/>
<path d="M27.36 64.9199C27.36 65.3999 27 65.7599 26.52 65.7599H23.52V61.9199H27.36V64.9199Z" fill="#2864FF"/>
<path d="M41.8799 61.9199H39.7199C39.2399 61.9199 38.8799 62.2799 38.8799 62.7599V64.9199C38.8799 65.3999 39.2399 65.7599 39.7199 65.7599H42.7199V61.9199H41.8799Z" fill="#2864FF"/>
<path d="M45.7197 61.9199C46.1997 61.9199 46.5597 62.2799 46.5597 62.7599V65.7599H42.7197V61.9199H45.7197Z" fill="#2864FF"/>
<path d="M54.2399 62.7599V61.9199H53.3999C53.8799 61.9199 54.2399 62.2799 54.2399 62.7599Z" fill="#2864FF"/>
<path d="M58.0797 61.9199H54.2397V65.7599H58.0797V61.9199Z" fill="#2864FF"/>
<path d="M64.9199 65.7599C65.3999 65.7599 65.7599 65.3999 65.7599 64.9199V65.7599H64.9199Z" fill="#2864FF"/>
<path d="M69.6003 64.9199V62.7599C69.6003 62.2799 69.2403 61.9199 68.7603 61.9199H66.6003C66.1203 61.9199 65.7603 62.2799 65.7603 62.7599V65.7599H69.6003V64.9199Z" fill="#2864FF"/>
<path d="M70.4401 65.7599C69.9601 65.7599 69.6001 65.3999 69.6001 64.9199V65.7599H70.4401Z" fill="#2864FF"/>
<path d="M84.9601 62.7599V61.9199H84.1201C84.6001 61.9199 84.9601 62.2799 84.9601 62.7599Z" fill="#2864FF"/>
<path d="M84.96 64.9199C84.96 65.3999 85.32 65.7599 85.8 65.7599H88.8V61.9199H84.96V64.9199Z" fill="#2864FF"/>
<path d="M91.7998 61.9199C92.2798 61.9199 92.6398 62.2799 92.6398 62.7599V65.7599H88.7998V61.9199H91.7998Z" fill="#2864FF"/>
<path d="M93.4796 65.7599C92.9997 65.7599 92.6396 65.3999 92.6396 64.9199V65.7599H93.4796Z" fill="#2864FF"/>
<path d="M96.48 64.9199C96.48 65.3999 96.84 65.7599 97.32 65.7599H100.32V61.9199H96.48V64.9199Z" fill="#2864FF"/>
<path d="M104.16 61.9199H100.32V65.7599H104.16V61.9199Z" fill="#2864FF"/>
<path d="M108 61.9199H104.16V65.7599H108V61.9199Z" fill="#2864FF"/>
<path d="M12.84 65.7599H15C15.48 65.7599 15.84 66.1199 15.84 66.6V68.76C15.84 69.24 15.48 69.6 15 69.6H12.84C12.36 69.6 12 69.24 12 68.76V66.6C12 66.1199 12.36 65.7599 12.84 65.7599Z" fill="#2864FF"/>
<path d="M34.2002 65.7599H32.0402C31.5602 65.7599 31.2002 66.1199 31.2002 66.6V68.76C31.2002 69.24 31.5602 69.6 32.0402 69.6H35.0402V65.7599H34.2002Z" fill="#2864FF"/>
<path d="M35.88 69.6H38.04C38.52 69.6 38.88 69.24 38.88 68.76V66.6C38.88 66.1199 38.52 65.7599 38.04 65.7599H35.04V69.6H35.88Z" fill="#2864FF"/>
<path d="M42.7199 66.6V65.7599H41.8799C42.3599 65.7599 42.7199 66.12 42.7199 66.6Z" fill="#2864FF"/>
<path d="M41.8799 69.5999C42.3599 69.5999 42.7199 69.2399 42.7199 68.7599V69.5999H41.8799Z" fill="#2864FF"/>
<path d="M46.5597 65.7599H42.7197V69.6H46.5597V65.7599Z" fill="#2864FF"/>
<path d="M58.0797 65.7599H54.2397V69.6H58.0797V65.7599Z" fill="#2864FF"/>
<path d="M64.9199 65.7599H62.7599C62.2799 65.7599 61.9199 66.1199 61.9199 66.6V68.76C61.9199 69.24 62.2799 69.6 62.7599 69.6H65.7599V65.7599H64.9199Z" fill="#2864FF"/>
<path d="M69.6003 65.7599H65.7603V69.6H69.6003V65.7599Z" fill="#2864FF"/>
<path d="M73.4401 65.7599H69.6001V69.6H73.4401V65.7599Z" fill="#2864FF"/>
<path d="M74.2799 69.6H76.4399C76.9199 69.6 77.2799 69.24 77.2799 68.76V66.6C77.2799 66.1199 76.9199 65.7599 76.4399 65.7599H73.4399V69.6H74.2799Z" fill="#2864FF"/>
<path d="M84.9601 68.76V66.6C84.9601 66.1199 84.6001 65.7599 84.1201 65.7599H81.9601C81.4801 65.7599 81.1201 66.1199 81.1201 66.6V69.6H84.9601V68.76Z" fill="#2864FF"/>
<path d="M88.8 66.6V65.7599H87.96C88.44 65.7599 88.8 66.12 88.8 66.6Z" fill="#2864FF"/>
<path d="M85.8 69.5999C85.32 69.5999 84.96 69.2399 84.96 68.7599V69.5999H85.8Z" fill="#2864FF"/>
<path d="M88.7998 68.76C88.7998 69.24 89.1598 69.6 89.6398 69.6H92.6398V65.7599H88.7998V68.76Z" fill="#2864FF"/>
<path d="M93.4797 69.6H95.6396C96.1196 69.6 96.4796 69.24 96.4796 68.76V66.6C96.4796 66.1199 96.1196 65.7599 95.6396 65.7599H92.6396V69.6H93.4797Z" fill="#2864FF"/>
<path d="M104.16 66.6V65.7599H103.32C103.8 65.7599 104.16 66.12 104.16 66.6Z" fill="#2864FF"/>
<path d="M104.16 68.76C104.16 69.24 104.52 69.6 105 69.6H107.16C107.64 69.6 108 69.24 108 68.76V65.7599H104.16V68.76Z" fill="#2864FF"/>
<path d="M15 73.44C15.48 73.44 15.84 73.08 15.84 72.6V73.44H15Z" fill="#2864FF"/>
<path d="M19.6798 72.6V70.44C19.6798 69.96 19.3198 69.6 18.8398 69.6H16.6798C16.1998 69.6 15.8398 69.96 15.8398 70.44V73.44H19.6798V72.6Z" fill="#2864FF"/>
<path d="M20.5202 73.44C20.0402 73.44 19.6802 73.08 19.6802 72.6V73.44H20.5202Z" fill="#2864FF"/>
<path d="M26.52 69.6H24.36C23.88 69.6 23.52 69.96 23.52 70.44V72.6C23.52 73.08 23.88 73.44 24.36 73.44H27.36V69.6H26.52Z" fill="#2864FF"/>
<path d="M30.3604 69.6C30.8404 69.6 31.2004 69.96 31.2004 70.44V73.44H27.3604V69.6H30.3604Z" fill="#2864FF"/>
<path d="M41.8799 69.6H39.7199C39.2399 69.6 38.8799 69.96 38.8799 70.44V72.6C38.8799 73.08 39.2399 73.44 39.7199 73.44H42.7199V69.6H41.8799Z" fill="#2864FF"/>
<path d="M46.5597 69.6H42.7197V73.44H46.5597V69.6Z" fill="#2864FF"/>
<path d="M47.4001 73.44C46.9201 73.44 46.5601 73.08 46.5601 72.6V73.44H47.4001Z" fill="#2864FF"/>
<path d="M54.2397 72.6C54.2397 73.08 54.5997 73.44 55.0797 73.44H57.2397C57.7197 73.44 58.0797 73.08 58.0797 72.6V69.6H54.2397V72.6Z" fill="#2864FF"/>
<path d="M80.2803 73.44C80.7603 73.44 81.1203 73.08 81.1203 72.6V73.44H80.2803Z" fill="#2864FF"/>
<path d="M84.9601 69.6H81.1201V73.44H84.9601V69.6Z" fill="#2864FF"/>
<path d="M87.96 69.6C88.44 69.6 88.8 69.96 88.8 70.44V73.44H84.96V69.6H87.96Z" fill="#2864FF"/>
<path d="M89.6398 73.44C89.1598 73.44 88.7998 73.08 88.7998 72.6V73.44H89.6398Z" fill="#2864FF"/>
<path d="M15 73.4401H12.84C12.36 73.4401 12 73.8001 12 74.2801V76.4401C12 76.9201 12.36 77.2801 12.84 77.2801H15.84V73.4401H15Z" fill="#2864FF"/>
<path d="M19.6798 73.4401H15.8398V77.2801H19.6798V73.4401Z" fill="#2864FF"/>
<path d="M20.5202 77.2801H22.6802C23.1602 77.2801 23.5202 76.9201 23.5202 76.4401V74.2801C23.5202 73.8001 23.1602 73.4401 22.6802 73.4401H19.6802V77.2801H20.5202Z" fill="#2864FF"/>
<path d="M27.36 74.2801V73.4401H26.52C27 73.4401 27.36 73.8001 27.36 74.2801Z" fill="#2864FF"/>
<path d="M27.3604 76.4401C27.3604 76.9201 27.7204 77.2801 28.2004 77.2801H30.3604C30.8404 77.2801 31.2004 76.9201 31.2004 76.4401V73.4401H27.3604V76.4401Z" fill="#2864FF"/>
<path d="M35.88 73.4401H38.04C38.52 73.4401 38.88 73.8001 38.88 74.2801V76.4401C38.88 76.9201 38.52 77.2801 38.04 77.2801H35.88C35.4 77.2801 35.04 76.9201 35.04 76.4401V74.2801C35.04 73.8001 35.4 73.4401 35.88 73.4401Z" fill="#2864FF"/>
<path d="M42.7199 74.2801V73.4401H41.8799C42.3599 73.4401 42.7199 73.8001 42.7199 74.2801Z" fill="#2864FF"/>
<path d="M46.5597 73.4401H42.7197V77.2801H46.5597V73.4401Z" fill="#2864FF"/>
<path d="M49.5601 73.4401C50.0401 73.4401 50.4001 73.8001 50.4001 74.2801V77.2801H46.5601V73.4401H49.5601Z" fill="#2864FF"/>
<path d="M61.9201 76.4401V74.2801C61.9201 73.8001 61.5601 73.4401 61.0801 73.4401H58.9201C58.4401 73.4401 58.0801 73.8001 58.0801 74.2801V77.2801H61.9201V76.4401Z" fill="#2864FF"/>
<path d="M62.7599 77.2801C62.2799 77.2801 61.9199 76.9201 61.9199 76.4401V77.2801H62.7599Z" fill="#2864FF"/>
<path d="M74.2799 73.4401C73.7999 73.4401 73.4399 73.8001 73.4399 74.2801V77.2801H77.2799V73.4401H74.2799Z" fill="#2864FF"/>
<path d="M81.1203 73.4401H77.2803V77.2801H81.1203V73.4401Z" fill="#2864FF"/>
<path d="M84.9601 73.4401H81.1201V77.2801H84.9601V73.4401Z" fill="#2864FF"/>
<path d="M88.8 73.4401H84.96V77.2801H88.8V73.4401Z" fill="#2864FF"/>
<path d="M91.7998 73.4401C92.2798 73.4401 92.6398 73.8001 92.6398 74.2801V77.2801H88.7998V73.4401H91.7998Z" fill="#2864FF"/>
<path d="M105 73.4401H107.16C107.64 73.4401 108 73.8001 108 74.2801V76.4401C108 76.9201 107.64 77.2801 107.16 77.2801H105C104.52 77.2801 104.16 76.9201 104.16 76.4401V74.2801C104.16 73.8001 104.52 73.4401 105 73.4401Z" fill="#2864FF"/>
<path d="M46.5597 77.2801H42.7197V81.1201H46.5597V77.2801Z" fill="#2864FF"/>
<path d="M50.4001 80.2801C50.4001 80.7601 50.0401 81.1201 49.5601 81.1201H46.5601V77.2801H50.4001V80.2801Z" fill="#2864FF"/>
<path d="M57.2397 81.1201C57.7197 81.1201 58.0797 80.7601 58.0797 80.2801V81.1201H57.2397Z" fill="#2864FF"/>
<path d="M61.9201 77.2801H58.0801V81.1201H61.9201V77.2801Z" fill="#2864FF"/>
<path d="M64.9199 77.2801C65.3999 77.2801 65.7599 77.6401 65.7599 78.1201V81.1201H61.9199V77.2801H64.9199Z" fill="#2864FF"/>
<path d="M66.6003 81.1201C66.1203 81.1201 65.7603 80.7601 65.7603 80.2801V81.1201H66.6003Z" fill="#2864FF"/>
<path d="M72.6001 81.1201C73.0801 81.1201 73.4401 80.7601 73.4401 80.2801V81.1201H72.6001Z" fill="#2864FF"/>
<path d="M77.2799 77.2801H73.4399V81.1201H77.2799V77.2801Z" fill="#2864FF"/>
<path d="M78.1203 77.2801H77.2803V78.1201C77.2803 77.6401 77.6403 77.2801 78.1203 77.2801Z" fill="#2864FF"/>
<path d="M88.8 78.1201V77.2801H87.96C88.44 77.2801 88.8 77.6401 88.8 78.1201Z" fill="#2864FF"/>
<path d="M92.6398 77.2801H88.7998V81.1201H92.6398V77.2801Z" fill="#2864FF"/>
<path d="M93.4796 81.1201C92.9997 81.1201 92.6396 80.7601 92.6396 80.2801V81.1201H93.4796Z" fill="#2864FF"/>
<path d="M42.7197 84.1199C42.7197 84.5999 43.0797 84.9599 43.5597 84.9599H45.7197C46.1997 84.9599 46.5597 84.5999 46.5597 84.1199V81.1199H42.7197V84.1199Z" fill="#2864FF"/>
<path d="M47.4001 81.1199H46.5601V81.9599C46.5601 81.4799 46.9201 81.1199 47.4001 81.1199Z" fill="#2864FF"/>
<path d="M57.2397 81.1199H55.0797C54.5997 81.1199 54.2397 81.4799 54.2397 81.9599V84.1199C54.2397 84.5999 54.5997 84.9599 55.0797 84.9599H58.0797V81.1199H57.2397Z" fill="#2864FF"/>
<path d="M61.9201 81.1199H58.0801V84.9599H61.9201V81.1199Z" fill="#2864FF"/>
<path d="M65.7599 81.1199H61.9199V84.9599H65.7599V81.1199Z" fill="#2864FF"/>
<path d="M69.6003 81.1199H65.7603V84.9599H69.6003V81.1199Z" fill="#2864FF"/>
<path d="M73.4401 81.1199H69.6001V84.9599H73.4401V81.1199Z" fill="#2864FF"/>
<path d="M77.2799 81.1199H73.4399V84.9599H77.2799V81.1199Z" fill="#2864FF"/>
<path d="M81.9601 81.1199H84.1201C84.6001 81.1199 84.9601 81.4799 84.9601 81.9599V84.1199C84.9601 84.5999 84.6001 84.9599 84.1201 84.9599H81.9601C81.4801 84.9599 81.1201 84.5999 81.1201 84.1199V81.9599C81.1201 81.4799 81.4801 81.1199 81.9601 81.1199Z" fill="#2864FF"/>
<path d="M92.6398 81.1199H88.7998V84.9599H92.6398V81.1199Z" fill="#2864FF"/>
<path d="M95.6396 81.1199C96.1196 81.1199 96.4796 81.4799 96.4796 81.9599V84.9599H92.6396V81.1199H95.6396Z" fill="#2864FF"/>
<path d="M99.48 84.9599C99.96 84.9599 100.32 84.5999 100.32 84.1199V84.9599H99.48Z" fill="#2864FF"/>
<path d="M97.32 84.9599C96.84 84.9599 96.48 84.5999 96.48 84.1199V84.9599H97.32Z" fill="#2864FF"/>
<path d="M101.16 81.1199C100.68 81.1199 100.32 81.4799 100.32 81.9599V84.9599H104.16V81.1199H101.16Z" fill="#2864FF"/>
<path d="M107.16 81.1199C107.64 81.1199 108 81.4799 108 81.9599V84.9599H104.16V81.1199H107.16Z" fill="#2864FF"/>
<path d="M49.5601 84.96H47.4001C46.9201 84.96 46.5601 85.32 46.5601 85.8V87.96C46.5601 88.44 46.9201 88.8 47.4001 88.8H50.4001V84.96H49.5601Z" fill="#2864FF"/>
<path d="M51.2399 88.8H53.3999C53.8799 88.8 54.2399 88.44 54.2399 87.96V85.8C54.2399 85.32 53.8799 84.96 53.3999 84.96H50.3999V88.8H51.2399Z" fill="#2864FF"/>
<path d="M58.0797 85.8V84.96H57.2397C57.7197 84.96 58.0797 85.32 58.0797 85.8Z" fill="#2864FF"/>
<path d="M61.9201 84.96H58.0801V88.8H61.9201V84.96Z" fill="#2864FF"/>
<path d="M62.7599 84.96H61.9199V85.8C61.9199 85.32 62.2799 84.96 62.7599 84.96Z" fill="#2864FF"/>
<path d="M65.7599 85.8V84.96H64.9199C65.3999 84.96 65.7599 85.32 65.7599 85.8Z" fill="#2864FF"/>
<path d="M65.7603 87.96C65.7603 88.44 66.1203 88.8 66.6003 88.8H68.7603C69.2403 88.8 69.6003 88.44 69.6003 87.96V84.96H65.7603V87.96Z" fill="#2864FF"/>
<path d="M70.4401 84.96H69.6001V85.8C69.6001 85.32 69.9601 84.96 70.4401 84.96Z" fill="#2864FF"/>
<path d="M73.4401 85.8V84.96H72.6001C73.0801 84.96 73.4401 85.32 73.4401 85.8Z" fill="#2864FF"/>
<path d="M72.6001 88.8C73.0801 88.8 73.4401 88.44 73.4401 87.96V88.8H72.6001Z" fill="#2864FF"/>
<path d="M77.2799 84.96H73.4399V88.8H77.2799V84.96Z" fill="#2864FF"/>
<path d="M78.1203 88.8C77.6403 88.8 77.2803 88.44 77.2803 87.96V88.8H78.1203Z" fill="#2864FF"/>
<path d="M87.96 88.8C88.44 88.8 88.8 88.44 88.8 87.96V88.8H87.96Z" fill="#2864FF"/>
<path d="M92.6398 84.96H88.7998V88.8H92.6398V84.96Z" fill="#2864FF"/>
<path d="M96.4796 84.96H92.6396V88.8H96.4796V84.96Z" fill="#2864FF"/>
<path d="M100.32 84.96H96.48V88.8H100.32V84.96Z" fill="#2864FF"/>
<path d="M104.16 84.96H100.32V88.8H104.16V84.96Z" fill="#2864FF"/>
<path d="M108 87.96C108 88.44 107.64 88.8 107.16 88.8H104.16V84.96H108V87.96Z" fill="#2864FF"/>
<path d="M58.0801 91.8C58.0801 92.28 58.4401 92.64 58.9201 92.64H61.0801C61.5601 92.64 61.9201 92.28 61.9201 91.8V88.8H58.0801V91.8Z" fill="#2864FF"/>
<path d="M68.7603 92.64C69.2403 92.64 69.6003 92.28 69.6003 91.8V92.64H68.7603Z" fill="#2864FF"/>
<path d="M70.4401 88.8C69.9601 88.8 69.6001 89.16 69.6001 89.64V92.64H73.4401V88.8H70.4401Z" fill="#2864FF"/>
<path d="M77.2799 88.8H73.4399V92.64H77.2799V88.8Z" fill="#2864FF"/>
<path d="M81.1203 88.8H77.2803V92.64H81.1203V88.8Z" fill="#2864FF"/>
<path d="M84.9601 88.8H81.1201V92.64H84.9601V88.8Z" fill="#2864FF"/>
<path d="M88.8 88.8H84.96V92.64H88.8V88.8Z" fill="#2864FF"/>
<path d="M92.6398 88.8H88.7998V92.64H92.6398V88.8Z" fill="#2864FF"/>
<path d="M93.4796 88.8H92.6396V89.64C92.6396 89.16 92.9997 88.8 93.4796 88.8Z" fill="#2864FF"/>
<path d="M96.4797 89.64V88.8H95.6396C96.1196 88.8 96.4797 89.16 96.4797 89.64Z" fill="#2864FF"/>
<path d="M96.48 91.8C96.48 92.28 96.84 92.64 97.32 92.64H100.32V88.8H96.48V91.8Z" fill="#2864FF"/>
<path d="M104.16 91.8C104.16 92.28 103.8 92.64 103.32 92.64H100.32V88.8H104.16V91.8Z" fill="#2864FF"/>
<path d="M105 88.8H104.16V89.64C104.16 89.16 104.52 88.8 105 88.8Z" fill="#2864FF"/>
<path d="M43.5597 92.64H45.7197C46.1997 92.64 46.5597 93 46.5597 93.48V95.64C46.5597 96.12 46.1997 96.48 45.7197 96.48H43.5597C43.0797 96.48 42.7197 96.12 42.7197 95.64V93.48C42.7197 93 43.0797 92.64 43.5597 92.64Z" fill="#2864FF"/>
<path d="M55.0797 92.64H57.2397C57.7197 92.64 58.0797 93 58.0797 93.48V95.64C58.0797 96.12 57.7197 96.48 57.2397 96.48H55.0797C54.5997 96.48 54.2397 96.12 54.2397 95.64V93.48C54.2397 93 54.5997 92.64 55.0797 92.64Z" fill="#2864FF"/>
<path d="M64.9199 92.64H62.7599C62.2799 92.64 61.9199 93 61.9199 93.48V95.64C61.9199 96.12 62.2799 96.48 62.7599 96.48H65.7599V92.64H64.9199Z" fill="#2864FF"/>
<path d="M69.6003 92.64H65.7603V96.48H69.6003V92.64Z" fill="#2864FF"/>
<path d="M73.4401 92.64H69.6001V96.48H73.4401V92.64Z" fill="#2864FF"/>
<path d="M77.2799 92.64H73.4399V96.48H77.2799V92.64Z" fill="#2864FF"/>
<path d="M81.1203 95.64C81.1203 96.12 80.7603 96.48 80.2803 96.48H77.2803V92.64H81.1203V95.64Z" fill="#2864FF"/>
<path d="M81.9601 92.64H81.1201V93.48C81.1201 93 81.4801 92.64 81.9601 92.64Z" fill="#2864FF"/>
<path d="M84.9601 93.48V92.64H84.1201C84.6001 92.64 84.9601 93 84.9601 93.48Z" fill="#2864FF"/>
<path d="M88.8 92.64H84.96V96.48H88.8V92.64Z" fill="#2864FF"/>
<path d="M92.6398 95.64C92.6398 96.12 92.2798 96.48 91.7998 96.48H88.7998V92.64H92.6398V95.64Z" fill="#2864FF"/>
<path d="M49.5601 96.4801H47.4001C46.9201 96.4801 46.5601 96.8401 46.5601 97.3201V99.4801C46.5601 99.9601 46.9201 100.32 47.4001 100.32H50.4001V96.4801H49.5601Z" fill="#2864FF"/>
<path d="M53.3999 96.4801C53.8799 96.4801 54.2399 96.8401 54.2399 97.3201V100.32H50.3999V96.4801H53.3999Z" fill="#2864FF"/>
<path d="M58.9201 96.4801H61.0801C61.5601 96.4801 61.9201 96.8401 61.9201 97.3201V99.4801C61.9201 99.9601 61.5601 100.32 61.0801 100.32H58.9201C58.4401 100.32 58.0801 99.9601 58.0801 99.4801V97.3201C58.0801 96.8401 58.4401 96.4801 58.9201 96.4801Z" fill="#2864FF"/>
<path d="M69.6003 97.3201V96.4801H68.7603C69.2403 96.4801 69.6003 96.8401 69.6003 97.3201Z" fill="#2864FF"/>
<path d="M69.6001 99.4801C69.6001 99.9601 69.9601 100.32 70.4401 100.32H72.6001C73.0801 100.32 73.4401 99.9601 73.4401 99.4801V96.4801H69.6001V99.4801Z" fill="#2864FF"/>
<path d="M74.2799 96.4801H73.4399V97.3201C73.4399 96.8401 73.7999 96.4801 74.2799 96.4801Z" fill="#2864FF"/>
<path d="M84.96 99.4801C84.96 99.9601 85.32 100.32 85.8 100.32H87.96C88.44 100.32 88.8 99.9601 88.8 99.4801V96.4801H84.96V99.4801Z" fill="#2864FF"/>
<path d="M89.6398 96.4801H88.7998V97.3201C88.7998 96.8401 89.1598 96.4801 89.6398 96.4801Z" fill="#2864FF"/>
<path d="M93.4797 96.4801C92.9997 96.4801 92.6396 96.8401 92.6396 97.3201V100.32H96.4796V96.4801H93.4797Z" fill="#2864FF"/>
<path d="M97.32 100.32H99.48C99.96 100.32 100.32 99.9601 100.32 99.4801V97.3201C100.32 96.8401 99.96 96.4801 99.48 96.4801H96.48V100.32H97.32Z" fill="#2864FF"/>
<path d="M103.32 100.32C103.8 100.32 104.16 99.9601 104.16 99.4801V100.32H103.32Z" fill="#2864FF"/>
<path d="M108 99.4801V97.3201C108 96.8401 107.64 96.4801 107.16 96.4801H105C104.52 96.4801 104.16 96.8401 104.16 97.3201V100.32H108V99.4801Z" fill="#2864FF"/>
<path d="M46.5597 103.32V101.16C46.5597 100.68 46.1997 100.32 45.7197 100.32H43.5597C43.0797 100.32 42.7197 100.68 42.7197 101.16V104.16H46.5597V103.32Z" fill="#2864FF"/>
<path d="M50.4001 101.16V100.32H49.5601C50.0401 100.32 50.4001 100.68 50.4001 101.16Z" fill="#2864FF"/>
<path d="M49.5601 104.16C50.0401 104.16 50.4001 103.8 50.4001 103.32V104.16H49.5601Z" fill="#2864FF"/>
<path d="M47.4001 104.16C46.9201 104.16 46.5601 103.8 46.5601 103.32V104.16H47.4001Z" fill="#2864FF"/>
<path d="M54.2399 100.32H50.3999V104.16H54.2399V100.32Z" fill="#2864FF"/>
<path d="M66.6003 100.32H68.7603C69.2403 100.32 69.6003 100.68 69.6003 101.16V103.32C69.6003 103.8 69.2403 104.16 68.7603 104.16H66.6003C66.1203 104.16 65.7603 103.8 65.7603 103.32V101.16C65.7603 100.68 66.1203 100.32 66.6003 100.32Z" fill="#2864FF"/>
<path d="M74.2799 100.32C73.7999 100.32 73.4399 100.68 73.4399 101.16V104.16H77.2799V100.32H74.2799Z" fill="#2864FF"/>
<path d="M78.1203 104.16H80.2803C80.7603 104.16 81.1203 103.8 81.1203 103.32V101.16C81.1203 100.68 80.7603 100.32 80.2803 100.32H77.2803V104.16H78.1203Z" fill="#2864FF"/>
<path d="M91.7998 104.16C92.2798 104.16 92.6398 103.8 92.6398 103.32V104.16H91.7998Z" fill="#2864FF"/>
<path d="M96.4796 100.32H92.6396V104.16H96.4796V100.32Z" fill="#2864FF"/>
<path d="M97.32 100.32H96.48V101.16C96.48 100.68 96.84 100.32 97.32 100.32Z" fill="#2864FF"/>
<path d="M101.16 100.32C100.68 100.32 100.32 100.68 100.32 101.16V104.16H104.16V100.32H101.16Z" fill="#2864FF"/>
<path d="M108 100.32H104.16V104.16H108V100.32Z" fill="#2864FF"/>
<path d="M42.7197 107.16C42.7197 107.64 43.0797 108 43.5597 108H46.5597V104.16H42.7197V107.16Z" fill="#2864FF"/>
<path d="M50.4001 104.16H46.5601V108H50.4001V104.16Z" fill="#2864FF"/>
<path d="M54.2399 107.16C54.2399 107.64 53.8799 108 53.3999 108H50.3999V104.16H54.2399V107.16Z" fill="#2864FF"/>
<path d="M62.7599 104.16H64.9199C65.3999 104.16 65.7599 104.52 65.7599 105V107.16C65.7599 107.64 65.3999 108 64.9199 108H62.7599C62.2799 108 61.9199 107.64 61.9199 107.16V105C61.9199 104.52 62.2799 104.16 62.7599 104.16Z" fill="#2864FF"/>
<path d="M73.4399 107.16C73.4399 107.64 73.7999 108 74.2799 108H76.4399C76.9199 108 77.2799 107.64 77.2799 107.16V104.16H73.4399V107.16Z" fill="#2864FF"/>
<path d="M78.1203 104.16H77.2803V105C77.2803 104.52 77.6403 104.16 78.1203 104.16Z" fill="#2864FF"/>
<path d="M91.7998 104.16H89.6398C89.1598 104.16 88.7998 104.52 88.7998 105V107.16C88.7998 107.64 89.1598 108 89.6398 108H92.6398V104.16H91.7998Z" fill="#2864FF"/>
<path d="M96.4796 107.16C96.4796 107.64 96.1196 108 95.6396 108H92.6396V104.16H96.4796V107.16Z" fill="#2864FF"/>
<path d="M100.32 107.16C100.32 107.64 100.68 108 101.16 108H104.16V104.16H100.32V107.16Z" fill="#2864FF"/>
<path d="M108 107.16C108 107.64 107.64 108 107.16 108H104.16V104.16H108V107.16Z" fill="#2864FF"/>
<path d="M12.84 12C12.36 12 12 12.36 12 12.84V15.84V19.68V23.52V27.36V31.2V35.04V38.04C12 38.52 12.36 38.88 12.84 38.88H38.04C38.52 38.88 38.88 38.52 38.88 38.04V35.04V31.2V27.36V23.52V19.68V15.84V12.84C38.88 12.36 38.52 12 38.04 12C38.04 12 12.84 12 12.84 12ZM35.04 19.68V23.52V27.36V31.2V34.56C35.04 34.8 34.8 35.04 34.56 35.04H16.32C16.08 35.04 15.84 34.8 15.84 34.56V31.2V27.36V23.52V19.68V16.32C15.84 16.08 16.08 15.84 16.32 15.84H34.56C34.8 15.84 35.04 16.08 35.04 16.32V19.68Z" fill="#2864FF"/>
<path d="M31.2002 27.3601V23.5201V20.5201C31.2002 20.0401 30.8402 19.6801 30.3602 19.6801H20.5202C20.0402 19.6801 19.6802 20.0401 19.6802 20.5201V23.5201V27.3601V30.3601C19.6802 30.8401 20.0402 31.2001 20.5202 31.2001H30.3602C30.8402 31.2001 31.2002 30.8401 31.2002 30.3601V27.3601Z" fill="#2864FF"/>
<path d="M81.9601 12C81.4801 12 81.1201 12.36 81.1201 12.84V15.84V19.68V23.52V27.36V31.2V35.04V38.04C81.1201 38.52 81.4801 38.88 81.9601 38.88H107.16C107.64 38.88 108 38.52 108 38.04V35.04V31.2V27.36V23.52V19.68V15.84V12.84C108 12.36 107.64 12 107.16 12C107.16 12 81.9601 12 81.9601 12ZM104.16 19.68V23.52V27.36V31.2V34.56C104.16 34.8 103.92 35.04 103.68 35.04H85.4401C85.2001 35.04 84.9601 34.8 84.9601 34.56V31.2V27.36V23.52V19.68V16.32C84.9601 16.08 85.2001 15.84 85.4401 15.84H103.68C103.92 15.84 104.16 16.08 104.16 16.32V19.68Z" fill="#2864FF"/>
<path d="M100.32 27.3601V23.5201V20.5201C100.32 20.0401 99.9598 19.6801 99.4798 19.6801H89.6398C89.1598 19.6801 88.7998 20.0401 88.7998 20.5201V23.5201V27.3601V30.3601C88.7998 30.8401 89.1598 31.2001 89.6398 31.2001H99.4798C99.9598 31.2001 100.32 30.8401 100.32 30.3601V27.3601Z" fill="#2864FF"/>
<path d="M12.84 81.1199C12.36 81.1199 12 81.4799 12 81.9599V84.9599V88.7999V92.6399V96.4799V100.32V104.16V107.16C12 107.64 12.36 108 12.84 108H38.04C38.52 108 38.88 107.64 38.88 107.16V104.16V100.32V96.4799V92.6399V88.7999V84.9599V81.9599C38.88 81.4799 38.52 81.1199 38.04 81.1199H12.84ZM35.04 88.7999V92.6399V96.4799V100.32V103.68C35.04 103.92 34.8 104.16 34.56 104.16H16.32C16.08 104.16 15.84 103.92 15.84 103.68V100.32V96.4799V92.6399V88.7999V85.4399C15.84 85.1999 16.08 84.9599 16.32 84.9599H34.56C34.8 84.9599 35.04 85.1999 35.04 85.4399V88.7999Z" fill="#2864FF"/>
<path d="M31.2002 96.48V92.64V89.64C31.2002 89.16 30.8402 88.8 30.3602 88.8H20.5202C20.0402 88.8 19.6802 89.16 19.6802 89.64V92.64V96.48V99.48C19.6802 99.96 20.0402 100.32 20.5202 100.32H30.3602C30.8402 100.32 31.2002 99.96 31.2002 99.48V96.48Z" fill="#2864FF"/>
<rect x="1" y="1" width="118" height="118" rx="14" stroke="#2864FF" stroke-width="2"/>
</svg>
