<?xml version="1.0" standalone="no"?>
<!DOCTYPE svg PUBLIC "-//W3C//DTD SVG 20010904//EN"
 "http://www.w3.org/TR/2001/REC-SVG-20010904/DTD/svg10.dtd">
<svg version="1.0" xmlns="http://www.w3.org/2000/svg"
 width="700.000000pt" height="700.000000pt" viewBox="0 0 700.000000 700.000000"
 preserveAspectRatio="xMidYMid meet">
<metadata>
Created by potrace 1.14, written by Peter Selinger 2001-2017
</metadata>
<g transform="translate(0.000000,700.000000) scale(0.100000,-0.100000)"
fill="#000000" stroke="none">
<path d="M858 6980 c-204 -43 -342 -111 -506 -249 -59 -49 -166 -178 -198
-238 -11 -21 -32 -59 -47 -85 -23 -41 -69 -176 -94 -273 -11 -43 -14 -5057 -3
-5130 70 -472 449 -841 925 -900 53 -6 4954 -6 5025 0 30 3 93 15 139 26 337
84 619 336 735 657 66 185 61 -52 61 2762 0 2396 -1 2549 -18 2618 -36 149
-75 240 -154 360 -123 187 -320 340 -528 412 -167 58 42 54 -2720 56 -2423 3
-2534 2 -2617 -16z m5135 -258 c15 -6 27 -10 27 -7 0 9 109 -29 172 -60 211
-105 360 -288 421 -518 l22 -82 -1 -2490 c0 -1369 -3 -2511 -7 -2537 -23 -143
-105 -310 -204 -415 -86 -90 -221 -176 -334 -212 -115 -37 -113 -37 -2659 -36
-1361 1 -2493 5 -2515 9 -119 22 -261 88 -354 164 -81 66 -171 174 -204 245
-46 98 -58 131 -74 198 -16 69 -17 226 -17 2544 0 1359 3 2498 7 2531 14 116
73 261 146 359 130 172 320 284 531 313 95 13 5011 7 5043 -6z"/>
<path d="M4010 5408 c-259 -37 -471 -184 -590 -411 -78 -151 -106 -325 -76
-476 17 -84 58 -198 101 -281 40 -78 49 -111 48 -179 0 -115 -61 -209 -170
-262 -39 -20 -64 -24 -133 -24 -135 1 -188 35 -307 201 -74 104 -107 141 -177
198 -299 243 -769 208 -1039 -78 -141 -150 -209 -320 -210 -526 -1 -165 36
-291 122 -422 208 -313 588 -433 942 -297 147 57 257 153 383 332 96 138 201
200 317 184 55 -7 139 -49 181 -90 61 -59 82 -110 85 -207 2 -83 1 -87 -48
-190 -83 -176 -103 -255 -103 -395 0 -85 6 -139 19 -185 127 -454 600 -695
1037 -528 421 161 613 652 413 1055 -127 256 -356 406 -655 428 -128 9 -163
16 -215 41 -64 31 -108 70 -134 120 -64 125 -41 270 59 365 63 61 129 85 253
93 131 9 281 42 330 73 7 4 15 8 18 8 22 0 142 89 202 150 198 199 269 481
191 755 -102 357 -477 600 -844 548z"/>
</g>
</svg>
