<svg width="22" height="22" viewBox="0 0 22 22" fill="none" xmlns="http://www.w3.org/2000/svg">
<path d="M9.53328 3.66667C9.39197 3.66666 9.25366 3.70748 9.13499 3.78421C9.01633 3.86095 8.92237 3.97034 8.8644 4.09922L8.86297 4.10352C8.84486 4.14414 8.83047 4.18633 8.82 4.22956L8.10529 6.36511V6.36654C8.07984 6.44176 8.06678 6.5206 8.06662 6.6C8.06662 6.7945 8.14388 6.98102 8.28141 7.11855C8.41893 7.25608 8.60546 7.33334 8.79995 7.33334H11H13.2C13.3944 7.33334 13.581 7.25608 13.7185 7.11855C13.856 6.98102 13.9333 6.7945 13.9333 6.6C13.9327 6.52052 13.9191 6.44167 13.8932 6.36654L13.8946 6.36511L13.1785 4.22813C13.1689 4.18796 13.156 4.14867 13.1398 4.11068L13.1355 4.09922L13.1341 4.09779C13.076 3.9694 12.9822 3.86046 12.8638 3.784C12.7454 3.70754 12.6075 3.66681 12.4666 3.66667H11H9.53328ZM6.59995 8.8C6.45864 8.79999 6.32033 8.84081 6.20166 8.91755C6.083 8.99428 5.98903 9.10367 5.93107 9.23256L5.92964 9.23685C5.91152 9.27748 5.89714 9.31966 5.88667 9.3629L5.17196 11.4984V11.4999C5.14651 11.5751 5.13345 11.6539 5.13328 11.7333C5.13328 11.9278 5.21055 12.1144 5.34807 12.2519C5.4856 12.3894 5.67213 12.4667 5.86662 12.4667H8.06662H10.2666C10.4611 12.4667 10.6476 12.3894 10.7852 12.2519C10.9227 12.1144 11 11.9278 11 11.7333C10.9993 11.6539 10.9858 11.575 10.9598 11.4999L10.9613 11.4984L10.2451 9.36146C10.2356 9.32129 10.2226 9.28201 10.2065 9.24401L10.2022 9.23256L10.2007 9.23112C10.1427 9.10273 10.0488 8.99379 9.93046 8.91733C9.81209 8.84088 9.6742 8.80014 9.53328 8.8H8.06662H6.59995ZM11 11.7333C11 11.9278 11.0772 12.1144 11.2147 12.2519C11.3523 12.3894 11.5388 12.4667 11.7333 12.4667H13.9333H16.1333C16.3278 12.4667 16.5143 12.3894 16.6518 12.2519C16.7894 12.1144 16.8666 11.9278 16.8666 11.7333C16.866 11.6539 16.8524 11.575 16.8265 11.4999L16.8279 11.4984L16.1118 9.36146C16.1022 9.32129 16.0893 9.28201 16.0731 9.24401L16.0688 9.23256L16.0674 9.23112C16.0093 9.10273 15.9155 8.99379 15.7971 8.91733C15.6788 8.84088 15.5409 8.80014 15.4 8.8H13.9333H12.4666C12.3253 8.79999 12.187 8.84081 12.0683 8.91755C11.9497 8.99428 11.8557 9.10367 11.7977 9.23256L11.7963 9.23685C11.7782 9.27748 11.7638 9.31966 11.7533 9.3629L11.0386 11.4984V11.4999C11.0132 11.5751 11.0001 11.6539 11 11.7333ZM3.66662 13.9333C3.5253 13.9333 3.38699 13.9741 3.26833 14.0509C3.14966 14.1276 3.0557 14.237 2.99774 14.3659L2.99631 14.3702C2.97819 14.4108 2.96381 14.453 2.95334 14.4962L2.23862 16.6318V16.6332C2.21318 16.7084 2.20012 16.7873 2.19995 16.8667C2.19995 17.0612 2.27721 17.2477 2.41474 17.3852C2.55227 17.5227 2.73879 17.6 2.93328 17.6H5.13328H7.33328C7.52778 17.6 7.7143 17.5227 7.85183 17.3852C7.98936 17.2477 8.06662 17.0612 8.06662 16.8667C8.06599 16.7872 8.05244 16.7083 8.02651 16.6332L8.02795 16.6318L7.3118 14.4948C7.30224 14.4546 7.2893 14.4153 7.27313 14.3773L7.26883 14.3659L7.2674 14.3645C7.20933 14.2361 7.11549 14.1271 6.99712 14.0507C6.87876 13.9742 6.74087 13.9335 6.59995 13.9333H5.13328H3.66662ZM8.06662 16.8667C8.06662 17.0612 8.14388 17.2477 8.28141 17.3852C8.41893 17.5227 8.60546 17.6 8.79995 17.6H11H13.2C13.3944 17.6 13.581 17.5227 13.7185 17.3852C13.856 17.2477 13.9333 17.0612 13.9333 16.8667C13.9327 16.7872 13.9191 16.7083 13.8932 16.6332L13.8946 16.6318L13.1785 14.4948C13.1689 14.4546 13.156 14.4153 13.1398 14.3773L13.1355 14.3659L13.1341 14.3645C13.076 14.2361 12.9822 14.1271 12.8638 14.0507C12.7454 13.9742 12.6075 13.9335 12.4666 13.9333H11H9.53328C9.39197 13.9333 9.25366 13.9741 9.13499 14.0509C9.01633 14.1276 8.92237 14.237 8.8644 14.3659L8.86297 14.3702C8.84486 14.4108 8.83047 14.453 8.82 14.4962L8.10529 16.6318V16.6332C8.07984 16.7084 8.06678 16.7873 8.06662 16.8667ZM13.9333 16.8667C13.9333 17.0612 14.0105 17.2477 14.1481 17.3852C14.2856 17.5227 14.4721 17.6 14.6666 17.6H16.8666H19.0666C19.2611 17.6 19.4476 17.5227 19.5852 17.3852C19.7227 17.2477 19.7999 17.0612 19.7999 16.8667C19.7993 16.7872 19.7858 16.7083 19.7598 16.6332L19.7613 16.6318L19.0451 14.4948C19.0356 14.4546 19.0226 14.4153 19.0065 14.3773L19.0022 14.3659L19.0007 14.3645C18.9427 14.2361 18.8488 14.1271 18.7305 14.0507C18.6121 13.9742 18.4742 13.9335 18.3333 13.9333H16.8666H15.4C15.2586 13.9333 15.1203 13.9741 15.0017 14.0509C14.883 14.1276 14.789 14.237 14.7311 14.3659L14.7296 14.3702C14.7115 14.4108 14.6971 14.453 14.6867 14.4962L13.972 16.6318V16.6332C13.9465 16.7084 13.9334 16.7873 13.9333 16.8667Z" fill="#2864FF"/>
</svg>
