<svg width="22" height="22" viewBox="0 0 22 22" fill="none" xmlns="http://www.w3.org/2000/svg">
<path d="M4.03335 2.93335C3.42615 2.93335 2.93335 3.42615 2.93335 4.03335V6.23335C2.93335 6.84055 3.42615 7.33335 4.03335 7.33335H6.23335C6.84055 7.33335 7.33335 6.84055 7.33335 6.23335V4.03335C7.33335 3.42615 6.84055 2.93335 6.23335 2.93335H4.03335ZM15.7667 2.93335C15.1595 2.93335 14.6667 3.42615 14.6667 4.03335V6.23335C14.6667 6.84055 15.1595 7.33335 15.7667 7.33335H17.9667C18.5739 7.33335 19.0667 6.84055 19.0667 6.23335V4.03335C19.0667 3.42615 18.5739 2.93335 17.9667 2.93335H15.7667ZM9.53335 4.40002C9.33886 4.40002 9.15233 4.47728 9.0148 4.6148C8.87728 4.75233 8.80002 4.93886 8.80002 5.13335C8.80002 5.32784 8.87728 5.51437 9.0148 5.65189C9.15233 5.78942 9.33886 5.86668 9.53335 5.86668C9.72784 5.86668 9.91437 5.78942 10.0519 5.65189C10.1894 5.51437 10.2667 5.32784 10.2667 5.13335C10.2667 4.93886 10.1894 4.75233 10.0519 4.6148C9.91437 4.47728 9.72784 4.40002 9.53335 4.40002ZM12.4667 4.40002C12.2722 4.40002 12.0857 4.47728 11.9481 4.6148C11.8106 4.75233 11.7333 4.93886 11.7333 5.13335C11.7333 5.32784 11.8106 5.51437 11.9481 5.65189C12.0857 5.78942 12.2722 5.86668 12.4667 5.86668C12.6612 5.86668 12.8477 5.78942 12.9852 5.65189C13.1228 5.51437 13.2 5.32784 13.2 5.13335C13.2 4.93886 13.1228 4.75233 12.9852 4.6148C12.8477 4.47728 12.6612 4.40002 12.4667 4.40002ZM5.13335 8.80002C4.93886 8.80002 4.75233 8.87728 4.6148 9.0148C4.47728 9.15233 4.40002 9.33886 4.40002 9.53335C4.40002 9.72784 4.47728 9.91437 4.6148 10.0519C4.75233 10.1894 4.93886 10.2667 5.13335 10.2667C5.32784 10.2667 5.51437 10.1894 5.65189 10.0519C5.78942 9.91437 5.86668 9.72784 5.86668 9.53335C5.86668 9.33886 5.78942 9.15233 5.65189 9.0148C5.51437 8.87728 5.32784 8.80002 5.13335 8.80002ZM16.8667 8.80002C16.6722 8.80002 16.4857 8.87728 16.3481 9.0148C16.2106 9.15233 16.1334 9.33886 16.1334 9.53335C16.1334 9.72784 16.2106 9.91437 16.3481 10.0519C16.4857 10.1894 16.6722 10.2667 16.8667 10.2667C17.0612 10.2667 17.2477 10.1894 17.3852 10.0519C17.5228 9.91437 17.6 9.72784 17.6 9.53335C17.6 9.33886 17.5228 9.15233 17.3852 9.0148C17.2477 8.87728 17.0612 8.80002 16.8667 8.80002ZM5.13335 11.7333C4.93886 11.7333 4.75233 11.8106 4.6148 11.9481C4.47728 12.0857 4.40002 12.2722 4.40002 12.4667C4.40002 12.6612 4.47728 12.8477 4.6148 12.9852C4.75233 13.1228 4.93886 13.2 5.13335 13.2C5.32784 13.2 5.51437 13.1228 5.65189 12.9852C5.78942 12.8477 5.86668 12.6612 5.86668 12.4667C5.86668 12.2722 5.78942 12.0857 5.65189 11.9481C5.51437 11.8106 5.32784 11.7333 5.13335 11.7333ZM16.8667 11.7333C16.6722 11.7333 16.4857 11.8106 16.3481 11.9481C16.2106 12.0857 16.1334 12.2722 16.1334 12.4667C16.1334 12.6612 16.2106 12.8477 16.3481 12.9852C16.4857 13.1228 16.6722 13.2 16.8667 13.2C17.0612 13.2 17.2477 13.1228 17.3852 12.9852C17.5228 12.8477 17.6 12.6612 17.6 12.4667C17.6 12.2722 17.5228 12.0857 17.3852 11.9481C17.2477 11.8106 17.0612 11.7333 16.8667 11.7333ZM4.03335 14.6667C3.42615 14.6667 2.93335 15.1595 2.93335 15.7667V17.9667C2.93335 18.5739 3.42615 19.0667 4.03335 19.0667H6.23335C6.84055 19.0667 7.33335 18.5739 7.33335 17.9667V15.7667C7.33335 15.1595 6.84055 14.6667 6.23335 14.6667H4.03335ZM15.7667 14.6667C15.1595 14.6667 14.6667 15.1595 14.6667 15.7667V17.9667C14.6667 18.5739 15.1595 19.0667 15.7667 19.0667H17.9667C18.5739 19.0667 19.0667 18.5739 19.0667 17.9667V15.7667C19.0667 15.1595 18.5739 14.6667 17.9667 14.6667H15.7667ZM9.53335 16.1334C9.33886 16.1334 9.15233 16.2106 9.0148 16.3481C8.87728 16.4857 8.80002 16.6722 8.80002 16.8667C8.80002 17.0612 8.87728 17.2477 9.0148 17.3852C9.15233 17.5228 9.33886 17.6 9.53335 17.6C9.72784 17.6 9.91437 17.5228 10.0519 17.3852C10.1894 17.2477 10.2667 17.0612 10.2667 16.8667C10.2667 16.6722 10.1894 16.4857 10.0519 16.3481C9.91437 16.2106 9.72784 16.1334 9.53335 16.1334ZM12.4667 16.1334C12.2722 16.1334 12.0857 16.2106 11.9481 16.3481C11.8106 16.4857 11.7333 16.6722 11.7333 16.8667C11.7333 17.0612 11.8106 17.2477 11.9481 17.3852C12.0857 17.5228 12.2722 17.6 12.4667 17.6C12.6612 17.6 12.8477 17.5228 12.9852 17.3852C13.1228 17.2477 13.2 17.0612 13.2 16.8667C13.2 16.6722 13.1228 16.4857 12.9852 16.3481C12.8477 16.2106 12.6612 16.1334 12.4667 16.1334Z" fill="#2864FF"/>
</svg>
