<svg width="22" height="22" viewBox="0 0 22 22" fill="none" xmlns="http://www.w3.org/2000/svg">
<path d="M11.0353 0.879997C5.45137 0.879997 0.915283 5.41609 0.915283 11C0.915283 16.5839 5.45137 21.12 11.0353 21.12C16.6192 21.12 21.1553 16.5839 21.1553 11C21.1553 5.41609 16.6192 0.879997 11.0353 0.879997ZM11.0353 1.76C16.1436 1.76 20.2753 5.89167 20.2753 11C20.2753 16.1083 16.1436 20.24 11.0353 20.24C5.92696 20.24 1.79528 16.1083 1.79528 11C1.79528 5.89167 5.92696 1.76 11.0353 1.76ZM10.5953 2.69843C9.4548 2.97915 8.44557 4.33009 7.80317 6.24937C8.68889 6.43065 9.62948 6.5371 10.5953 6.56218V2.69843ZM11.4753 2.69843V6.56218C12.4508 6.53754 13.3917 6.43401 14.27 6.25625C13.6276 4.33345 12.6166 2.97915 11.4753 2.69843ZM8.57919 3.00953C7.16855 3.44381 5.9223 4.24686 4.93802 5.2989C5.53686 5.59678 6.20923 5.84556 6.93435 6.04312C7.34487 4.79044 7.90775 3.75137 8.57919 3.00953ZM13.4914 3.00953C14.1641 3.75269 14.7283 4.7951 15.1388 6.05086C15.8705 5.85154 16.5426 5.59905 17.1308 5.29633C16.147 4.24517 14.9007 3.44337 13.4914 3.00953ZM17.7066 5.98383C17.0264 6.35299 16.2426 6.6585 15.382 6.8939C15.664 8.00226 15.8329 9.24 15.8641 10.56H19.3729C19.2832 8.84752 18.6781 7.27259 17.7066 5.98383ZM4.35966 5.98898C3.39034 7.27686 2.78739 8.84972 2.69763 10.56H6.20646C6.2377 9.23736 6.40692 7.99715 6.69028 6.88703C5.83756 6.65383 5.05178 6.35198 4.35966 5.98898ZM7.55138 7.09414C7.28078 8.14354 7.11858 9.32184 7.08645 10.56H10.5953V7.44218C9.54456 7.41579 8.51762 7.29698 7.55138 7.09414ZM14.52 7.10101C13.5617 7.30033 12.5357 7.41667 11.4753 7.44218V10.56H14.9841C14.952 9.32448 14.7898 8.14865 14.52 7.10101ZM2.69763 11.44C2.78739 13.1525 3.39244 14.7274 4.36396 16.0162C5.0442 15.647 5.82792 15.3415 6.68856 15.1061C6.40652 13.9977 6.2377 12.76 6.20646 11.44H2.69763ZM7.08645 11.44C7.11858 12.6755 7.2808 13.8513 7.55052 14.899C8.50884 14.6997 9.53488 14.5833 10.5953 14.5578V11.44H7.08645ZM11.4753 11.44V14.5578C12.526 14.5842 13.5521 14.703 14.5183 14.9059C14.7889 13.8565 14.952 12.6782 14.9841 11.44H11.4753ZM15.8641 11.44C15.8329 12.7626 15.6636 14.0028 15.3803 15.113C16.233 15.3462 17.0188 15.648 17.7109 16.011C18.6802 14.7231 19.2832 13.1503 19.3729 11.44H15.8641ZM10.5953 15.4378C9.6198 15.4624 8.67884 15.566 7.8006 15.7437C8.443 17.6665 9.45392 19.0208 10.5953 19.3016V15.4378ZM11.4753 15.4378V19.3016C12.6158 19.0208 13.625 17.6699 14.2674 15.7506C13.3817 15.5693 12.4411 15.4629 11.4753 15.4378ZM6.93177 15.9491C6.20005 16.1485 5.52802 16.4009 4.93974 16.7037C5.92358 17.7548 7.16987 18.5566 8.57919 18.9905C7.90643 18.2473 7.34229 17.2049 6.93177 15.9491ZM15.1362 15.9569C14.7257 17.2096 14.162 18.2486 13.4905 18.9905C14.9012 18.5562 16.1483 17.7531 17.1325 16.7011C16.5337 16.4032 15.8613 16.1544 15.1362 15.9569Z" fill="#2864FF"/>
</svg>
