<svg width="22" height="22" viewBox="0 0 22 22" fill="none" xmlns="http://www.w3.org/2000/svg">
<path d="M9.24001 1.32C5.1047 1.32 1.76001 4.66469 1.76001 8.8C1.76001 12.9353 5.1047 16.28 9.24001 16.28C10.7164 16.28 12.0828 15.8469 13.2413 15.1112L18.645 20.515L20.515 18.645L15.18 13.3237C16.1391 12.0656 16.72 10.5067 16.72 8.8C16.72 4.66469 13.3753 1.32 9.24001 1.32ZM9.24001 3.08C12.4077 3.08 14.96 5.63234 14.96 8.8C14.96 11.9677 12.4077 14.52 9.24001 14.52C6.07235 14.52 3.52001 11.9677 3.52001 8.8C3.52001 5.63234 6.07235 3.08 9.24001 3.08Z" fill="#2864FF"/>
</svg>
