<svg width="22" height="22" viewBox="0 0 22 22" fill="none" xmlns="http://www.w3.org/2000/svg">
<path d="M5.8881 2.40307C5.60944 2.37594 5.3865 2.52259 5.24644 2.73966C5.10637 2.95672 5.0912 3.23197 5.20633 3.46297L5.53003 4.11609C3.50164 5.72761 2.19995 8.2126 2.19995 10.9997C2.19995 11.7483 2.30394 12.4664 2.47495 13.1481C2.49625 13.2437 2.53648 13.3341 2.59328 13.4139C2.65007 13.4937 2.72227 13.5613 2.80562 13.6128C2.88897 13.6642 2.98178 13.6984 3.07858 13.7134C3.17537 13.7284 3.27419 13.7238 3.36919 13.7C3.4642 13.6762 3.55347 13.6336 3.63174 13.5747C3.71001 13.5158 3.77569 13.4418 3.8249 13.3572C3.87412 13.2725 3.90587 13.1788 3.91829 13.0816C3.93071 12.9845 3.92355 12.8858 3.89722 12.7915C3.75143 12.2104 3.66662 11.6136 3.66662 10.9997C3.66662 8.78277 4.65175 6.80774 6.20177 5.46674L6.40086 5.86778C6.5138 6.09512 6.73584 6.24892 6.9881 6.27312C7.01157 6.27532 7.03412 6.27599 7.05685 6.27599C7.28565 6.27599 7.50189 6.16787 7.64123 5.9838L9.32847 3.75802C9.42844 3.65647 9.49666 3.52799 9.5248 3.38829C9.55293 3.24859 9.53975 3.10372 9.48688 2.97139C9.43401 2.83906 9.34373 2.72499 9.22708 2.64314C9.11043 2.56129 8.97246 2.51519 8.83003 2.51049C8.8286 2.51001 8.82717 2.50953 8.82573 2.50906L5.8881 2.40307ZM13.1828 2.50906C13.006 2.5114 12.836 2.57753 12.7041 2.69527C12.5722 2.81301 12.4873 2.97444 12.4649 3.14983C12.4426 3.32522 12.4844 3.50277 12.5826 3.64979C12.6808 3.79681 12.8289 3.90341 12.9994 3.94994C15.6396 4.69766 17.6733 6.8802 18.1972 9.61036L17.7432 9.58172C17.4777 9.56632 17.2467 9.68359 17.1001 9.88966C16.9534 10.0972 16.9245 10.3647 17.0227 10.5986L18.0898 13.1324C18.1189 13.2774 18.1912 13.4103 18.2972 13.5136C18.4032 13.6168 18.5379 13.6856 18.6837 13.7108C18.8295 13.7361 18.9795 13.7166 19.1141 13.6551C19.2486 13.5935 19.3614 13.4927 19.4376 13.3658C19.4385 13.3644 19.4395 13.363 19.4404 13.3615L19.4476 13.3486L20.9988 10.8708C21.1359 10.6515 21.1484 10.377 21.0303 10.1475C20.9122 9.91794 20.6811 9.76686 20.423 9.75073L19.6997 9.70489C19.1902 6.26541 16.6893 3.47057 13.4005 2.53914C13.3298 2.51823 13.2564 2.50809 13.1828 2.50906ZM5.36532 16.0428C5.23974 16.0449 5.11683 16.0793 5.00834 16.1426C4.89986 16.2059 4.80945 16.2959 4.74576 16.4042C4.68208 16.5124 4.64726 16.6352 4.64464 16.7608C4.64202 16.8864 4.67169 17.0105 4.73081 17.1213C4.73201 17.1236 4.73245 17.1261 4.73368 17.1285L6.11011 19.7238C6.23184 19.9518 6.46426 20.1002 6.72313 20.1134C6.73486 20.1141 6.74647 20.1134 6.75894 20.1134C7.00387 20.1134 7.23412 19.9914 7.37052 19.7868L7.773 19.1795C8.77315 19.5758 9.86057 19.7997 11 19.7997C13.3805 19.7997 15.5443 18.8464 17.1273 17.3089C17.1979 17.2422 17.2546 17.1622 17.2941 17.0734C17.3335 16.9846 17.3549 16.8889 17.357 16.7918C17.3592 16.6946 17.342 16.5981 17.3065 16.5076C17.271 16.4172 17.2179 16.3347 17.1502 16.265C17.0826 16.1953 17.0018 16.1397 16.9124 16.1014C16.8231 16.0632 16.7271 16.0431 16.63 16.0423C16.5328 16.0415 16.4365 16.0599 16.3466 16.0967C16.2566 16.1334 16.1749 16.1876 16.1061 16.2562C14.7836 17.5406 12.9901 18.333 11 18.333C10.159 18.333 9.35664 18.1851 8.60659 17.9248L8.85581 17.5496C8.99588 17.3376 9.018 17.0687 8.91167 16.8377C8.80607 16.6074 8.58816 16.4481 8.33589 16.4166L5.58159 16.0714C5.57968 16.0709 5.57777 16.0705 5.57586 16.07C5.50737 16.0508 5.43645 16.0416 5.36532 16.0428Z" fill="#2864FF"/>
</svg>
