<svg width="22" height="22" viewBox="0 0 22 22" fill="none" xmlns="http://www.w3.org/2000/svg">
<path d="M11.0003 1.46667C10.8058 1.46667 10.6192 1.54394 10.4817 1.68146C10.3442 1.81899 10.2669 2.00552 10.2669 2.20001C10.2669 2.3945 10.3442 2.58103 10.4817 2.71855C10.6192 2.85608 10.8058 2.93334 11.0003 2.93334C11.1948 2.93334 11.3813 2.85608 11.5188 2.71855C11.6563 2.58103 11.7336 2.3945 11.7336 2.20001C11.7336 2.00552 11.6563 1.81899 11.5188 1.68146C11.3813 1.54394 11.1948 1.46667 11.0003 1.46667ZM11.0003 4.40001C10.8058 4.40001 10.6192 4.47727 10.4817 4.6148C10.3442 4.75232 10.2669 4.93885 10.2669 5.13334C10.2669 5.32783 10.3442 5.51436 10.4817 5.65189C10.6192 5.78941 10.8058 5.86667 11.0003 5.86667C11.1948 5.86667 11.3813 5.78941 11.5188 5.65189C11.6563 5.51436 11.7336 5.32783 11.7336 5.13334C11.7336 4.93885 11.6563 4.75232 11.5188 4.6148C11.3813 4.47727 11.1948 4.40001 11.0003 4.40001ZM10.9888 7.32332C10.7946 7.32635 10.6095 7.40633 10.4741 7.54569C10.3388 7.68506 10.2643 7.87243 10.2669 8.06667V13.6297L8.58542 11.9482C8.51708 11.8779 8.43536 11.8221 8.34507 11.784C8.25479 11.7458 8.15778 11.7262 8.05977 11.7262C7.91389 11.7262 7.77133 11.7698 7.65032 11.8512C7.52931 11.9327 7.43535 12.0484 7.38046 12.1836C7.32556 12.3188 7.31223 12.4672 7.34215 12.61C7.37207 12.7528 7.4439 12.8834 7.54844 12.9852L11.0003 16.437L14.4521 12.9852C14.5225 12.9176 14.5787 12.8367 14.6174 12.7471C14.6561 12.6575 14.6765 12.5611 14.6775 12.4636C14.6785 12.366 14.66 12.2692 14.6232 12.1789C14.5863 12.0886 14.5317 12.0065 14.4627 11.9375C14.3938 11.8685 14.3117 11.814 14.2214 11.7771C14.131 11.7402 14.0343 11.7218 13.9367 11.7228C13.8391 11.7237 13.7427 11.7442 13.6532 11.7829C13.5636 11.8216 13.4827 11.8778 13.4151 11.9482L11.7336 13.6297V8.06667C11.7349 7.96856 11.7166 7.87118 11.6796 7.78029C11.6426 7.6894 11.5878 7.60685 11.5184 7.53754C11.4489 7.46822 11.3663 7.41355 11.2753 7.37675C11.1843 7.33995 11.0869 7.32178 10.9888 7.32332ZM2.92214 13.19C2.7279 13.193 2.5428 13.273 2.40746 13.4124C2.27212 13.5517 2.1976 13.7391 2.20026 13.9333V18.3333C2.20026 19.1349 2.86535 19.8 3.66693 19.8H18.3336C19.1352 19.8 19.8003 19.1349 19.8003 18.3333V13.9333C19.8016 13.8362 19.7837 13.7397 19.7474 13.6495C19.7112 13.5593 19.6574 13.4773 19.5892 13.4081C19.5209 13.3388 19.4396 13.2839 19.35 13.2464C19.2603 13.2089 19.1641 13.1896 19.0669 13.1896C18.9697 13.1896 18.8735 13.2089 18.7839 13.2464C18.6942 13.2839 18.6129 13.3388 18.5447 13.4081C18.4764 13.4773 18.4226 13.5593 18.3864 13.6495C18.3502 13.7397 18.3322 13.8362 18.3336 13.9333V18.3333H3.66693V13.9333C3.66827 13.8352 3.64992 13.7378 3.61295 13.647C3.57597 13.5561 3.52114 13.4735 3.45169 13.4042C3.38224 13.3349 3.29959 13.2802 3.20863 13.2434C3.11767 13.2066 3.02025 13.1884 2.92214 13.19Z" fill="#2864FF"/>
</svg>
