<svg width="18" height="18" viewBox="0 0 18 18" fill="none" xmlns="http://www.w3.org/2000/svg">
<path d="M17.0763 3.85516C17.0745 3.74386 17.0474 3.63443 16.997 3.53517C16.9467 3.43591 16.8744 3.34941 16.7856 3.28225L13.9181 0.414796C13.8506 0.344416 13.7696 0.288227 13.6801 0.249519C13.5905 0.21081 13.4941 0.190361 13.3966 0.189369C13.299 0.188377 13.2022 0.206861 13.1119 0.24374C13.0216 0.280618 12.9395 0.33515 12.8705 0.404141C12.8015 0.473132 12.747 0.555195 12.7101 0.645525C12.6732 0.735854 12.6547 0.832634 12.6557 0.930197C12.6567 1.02776 12.6772 1.12414 12.7159 1.2137C12.7546 1.30327 12.8108 1.3842 12.8812 1.45178L14.5627 3.13329L7.53298 3.13329C7.43581 3.13191 7.33933 3.14986 7.24915 3.1861C7.15898 3.22234 7.0769 3.27614 7.0077 3.34437C6.93849 3.4126 6.88354 3.49391 6.84603 3.58356C6.80852 3.67322 6.78921 3.76943 6.78921 3.86662C6.78921 3.96381 6.80852 4.06002 6.84603 4.14968C6.88354 4.23933 6.93849 4.32064 7.0077 4.38887C7.0769 4.4571 7.15898 4.5109 7.24915 4.54714C7.33933 4.58338 7.43581 4.60133 7.53298 4.59995L14.5627 4.59995L12.8812 6.28146C12.8108 6.34904 12.7546 6.42998 12.7159 6.51954C12.6772 6.6091 12.6567 6.70548 12.6557 6.80305C12.6547 6.90061 12.6732 6.99739 12.7101 7.08772C12.747 7.17805 12.8015 7.26011 12.8705 7.3291C12.9395 7.39809 13.0216 7.45263 13.1119 7.48951C13.2022 7.52638 13.299 7.54487 13.3966 7.54388C13.4941 7.54288 13.5905 7.52243 13.6801 7.48372C13.7696 7.44502 13.8506 7.38883 13.9181 7.31844L16.7899 4.4467C16.8804 4.37718 16.9534 4.28751 17.0031 4.18482C17.0528 4.08213 17.0779 3.96925 17.0763 3.85516ZM17.0663 14.1333C17.0663 13.9388 16.9891 13.7523 16.8515 13.6147C16.714 13.4772 16.5275 13.4 16.333 13.4C16.1385 13.4 15.952 13.4772 15.8144 13.6147C15.6769 13.7523 15.5997 13.9388 15.5997 14.1333C15.5997 14.3278 15.6769 14.5143 15.8144 14.6518C15.952 14.7894 16.1385 14.8666 16.333 14.8666C16.5275 14.8666 16.714 14.7894 16.8515 14.6518C16.9891 14.5143 17.0663 14.3278 17.0663 14.1333ZM14.133 14.1333C14.133 13.9388 14.0557 13.7523 13.9182 13.6147C13.7807 13.4772 13.5941 13.4 13.3997 13.4C13.2052 13.4 13.0186 13.4772 12.8811 13.6147C12.7436 13.7523 12.6663 13.9388 12.6663 14.1333C12.6663 14.3278 12.7436 14.5143 12.8811 14.6518C13.0186 14.7894 13.2052 14.8666 13.3997 14.8666C13.5941 14.8666 13.7807 14.7894 13.9182 14.6518C14.0557 14.5143 14.133 14.3278 14.133 14.1333ZM11.2097 14.1218C11.2066 13.9276 11.1267 13.7425 10.9873 13.6072C10.8479 13.4718 10.6606 13.3973 10.4663 13.4L3.43663 13.4L5.11814 11.7184C5.18839 11.6501 5.24423 11.5684 5.28236 11.4781C5.32049 11.3878 5.34014 11.2908 5.34014 11.1928C5.34011 11.0469 5.29656 10.9044 5.21508 10.7833C5.1336 10.6623 5.01788 10.5684 4.88271 10.5135C4.74755 10.4586 4.59909 10.4453 4.45631 10.4752C4.31352 10.5051 4.18291 10.5769 4.08116 10.6815L1.21228 13.5503C1.12272 13.6186 1.05008 13.7066 0.999988 13.8074C0.949895 13.9082 0.923694 14.0193 0.923417 14.1319C0.923141 14.2445 0.948795 14.3556 0.99839 14.4567C1.04799 14.5578 1.12019 14.6461 1.20941 14.7148C1.21084 14.7158 1.21228 14.7167 1.21371 14.7177L4.08116 17.5851C4.14873 17.6555 4.22967 17.7117 4.31923 17.7504C4.40879 17.7891 4.50518 17.8096 4.60274 17.8106C4.7003 17.8115 4.79708 17.7931 4.88742 17.7562C4.97775 17.7193 5.05981 17.6648 5.1288 17.5958C5.19779 17.5268 5.25232 17.4447 5.2892 17.3544C5.32608 17.2641 5.34457 17.1673 5.34357 17.0697C5.34258 16.9722 5.32213 16.8758 5.28342 16.7862C5.24471 16.6966 5.18852 16.6157 5.11814 16.5481L3.43663 14.8666L10.4663 14.8666C10.5644 14.868 10.6618 14.8496 10.7527 14.8126C10.8436 14.7757 10.9261 14.7208 10.9955 14.6514C11.0648 14.5819 11.1194 14.4993 11.1562 14.4083C11.193 14.3174 11.2112 14.2199 11.2097 14.1218ZM5.33298 3.86662C5.33298 3.67213 5.25572 3.4856 5.1182 3.34807C4.98067 3.21055 4.79414 3.13329 4.59965 3.13329C4.40516 3.13329 4.21863 3.21055 4.0811 3.34807C3.94358 3.4856 3.86632 3.67213 3.86632 3.86662C3.86632 4.06111 3.94358 4.24764 4.0811 4.38517C4.21863 4.52269 4.40516 4.59995 4.59965 4.59995C4.79414 4.59995 4.98067 4.52269 5.1182 4.38517C5.25572 4.24764 5.33298 4.06111 5.33298 3.86662ZM2.39965 3.86662C2.39965 3.67213 2.32239 3.4856 2.18486 3.34807C2.04733 3.21055 1.86081 3.13329 1.66632 3.13329C1.47182 3.13329 1.2853 3.21055 1.14777 3.34807C1.01024 3.4856 0.932983 3.67213 0.932983 3.86662C0.932983 4.06111 1.01024 4.24764 1.14777 4.38516C1.2853 4.52269 1.47182 4.59995 1.66632 4.59995C1.86081 4.59995 2.04733 4.52269 2.18486 4.38517C2.32239 4.24764 2.39965 4.06111 2.39965 3.86662Z" fill="#0B111A"/>
</svg>
