<svg width="27" height="27" viewBox="0 0 27 27" fill="none" xmlns="http://www.w3.org/2000/svg">
<path d="M13.2246 0.144897C5.96589 0.144897 0.0612793 6.04951 0.0612793 13.3082C0.0612793 20.567 5.96589 26.4716 13.2246 26.4716C20.4833 26.4716 26.3879 20.567 26.3879 13.3082C26.3879 6.04951 20.4833 0.144897 13.2246 0.144897ZM17.2308 13.8806H13.7969V17.3145C13.7969 17.631 13.5411 17.8868 13.2246 17.8868C12.9081 17.8868 12.6523 17.631 12.6523 17.3145V13.8806H9.21838C8.90189 13.8806 8.64606 13.6247 8.64606 13.3082C8.64606 12.9917 8.90189 12.7359 9.21838 12.7359H12.6523V9.302C12.6523 8.98551 12.9081 8.72968 13.2246 8.72968C13.5411 8.72968 13.7969 8.98551 13.7969 9.302V12.7359H17.2308C17.5473 12.7359 17.8032 12.9917 17.8032 13.3082C17.8032 13.6247 17.5473 13.8806 17.2308 13.8806Z" fill="#B3BDD7"/>
</svg>
