<svg width="24" height="24" viewBox="0 0 24 24" fill="none" xmlns="http://www.w3.org/2000/svg">
<path d="M11.5002 0.867371C5.18995 0.867371 0.053833 6.00349 0.053833 12.3137C0.053833 18.624 5.18995 23.7601 11.5002 23.7601C13.9373 23.7601 16.1901 22.9793 18.0375 21.6791C18.2446 21.5336 18.3853 21.3118 18.4288 21.0625C18.4723 20.8132 18.415 20.5569 18.2695 20.3499C18.124 20.1428 17.9022 20.0021 17.6529 19.9586C17.4036 19.9151 17.1472 19.9724 16.9402 20.1179C15.3938 21.2062 13.5311 21.8524 11.5002 21.8524C6.22101 21.8524 1.96156 17.5929 1.96156 12.3137C1.96156 7.03455 6.22101 2.7751 11.5002 2.7751C13.5311 2.7751 15.3938 3.42127 16.9402 4.50957C17.0427 4.58162 17.1584 4.63277 17.2807 4.66011C17.403 4.68745 17.5295 4.69043 17.6529 4.66889C17.7763 4.64736 17.8943 4.60172 18.0001 4.53458C18.1059 4.46745 18.1974 4.38013 18.2695 4.27762C18.3415 4.17511 18.3927 4.05941 18.42 3.93713C18.4474 3.81485 18.4503 3.68839 18.4288 3.56495C18.4073 3.44152 18.3616 3.32354 18.2945 3.21774C18.2274 3.11195 18.14 3.02041 18.0375 2.94836C16.1901 1.64818 13.9373 0.867371 11.5002 0.867371ZM14.3696 7.53511C14.5594 7.53516 14.7448 7.5918 14.9022 7.69778C15.0596 7.80377 15.1818 7.95429 15.2532 8.1301C15.3246 8.30591 15.342 8.49902 15.303 8.68474C15.2641 8.87046 15.1707 9.04035 15.0347 9.1727L12.8475 11.3599H22.9451C23.0715 11.3581 23.197 11.3814 23.3143 11.4286C23.4316 11.4757 23.5383 11.5457 23.6283 11.6344C23.7184 11.7232 23.7898 11.829 23.8386 11.9456C23.8874 12.0622 23.9125 12.1873 23.9125 12.3137C23.9125 12.4402 23.8874 12.5653 23.8386 12.6819C23.7898 12.7985 23.7184 12.9043 23.6283 12.9931C23.5383 13.0818 23.4316 13.1518 23.3143 13.1989C23.197 13.246 23.0715 13.2694 22.9451 13.2676H12.8475L15.0347 15.4548C15.1263 15.5427 15.1994 15.648 15.2497 15.7645C15.3001 15.8809 15.3267 16.0063 15.3279 16.1332C15.3292 16.2601 15.3052 16.386 15.2572 16.5035C15.2093 16.621 15.1383 16.7277 15.0486 16.8175C14.9588 16.9072 14.8521 16.9782 14.7346 17.0261C14.6171 17.0741 14.4912 17.0981 14.3643 17.0968C14.2374 17.0956 14.1121 17.069 13.9956 17.0186C13.8791 16.9683 13.7738 16.8952 13.6859 16.8036L9.95427 13.072C9.83741 12.9828 9.74273 12.8679 9.67762 12.7361C9.6125 12.6044 9.57872 12.4593 9.5789 12.3124C9.57908 12.1654 9.61322 12.0204 9.67866 11.8888C9.74409 11.7572 9.83906 11.6425 9.95613 11.5536L13.6859 7.82388C13.7748 7.7325 13.8811 7.65987 13.9985 7.61027C14.116 7.56067 14.2421 7.53511 14.3696 7.53511Z" fill="#B3BDD7"/>
</svg>
