<svg width="25" height="24" viewBox="0 0 25 24" fill="none" xmlns="http://www.w3.org/2000/svg">
<path d="M12.1667 0.509949C5.85645 0.509949 0.720337 5.64606 0.720337 11.9563C0.720337 18.2666 5.85645 23.4027 12.1667 23.4027C14.6038 23.4027 16.8566 22.6219 18.704 21.3217C18.9111 21.1762 19.0518 20.9544 19.0953 20.7051C19.1388 20.4558 19.0815 20.1995 18.936 19.9924C18.7905 19.7854 18.5687 19.6447 18.3194 19.6012C18.0701 19.5577 17.8138 19.615 17.6067 19.7605C16.0603 20.8488 14.1976 21.495 12.1667 21.495C6.88752 21.495 2.62807 17.2355 2.62807 11.9563C2.62807 6.67713 6.88752 2.41768 12.1667 2.41768C14.1976 2.41768 16.0603 3.06385 17.6067 4.15215C17.7092 4.2242 17.8249 4.27535 17.9472 4.30269C18.0695 4.33003 18.196 4.33301 18.3194 4.31147C18.4428 4.28993 18.5608 4.2443 18.6666 4.17716C18.7724 4.11003 18.8639 4.02271 18.936 3.9202C19.008 3.81769 19.0592 3.70199 19.0865 3.57971C19.1139 3.45743 19.1169 3.33097 19.0953 3.20753C19.0738 3.0841 19.0281 2.96612 18.961 2.86032C18.8939 2.75453 18.8066 2.66299 18.704 2.59094C16.8566 1.29076 14.6038 0.509949 12.1667 0.509949ZM19.7883 7.17769C19.5986 7.17774 19.4131 7.23437 19.2557 7.34036C19.0983 7.44635 18.9761 7.59687 18.9047 7.77268C18.8333 7.94849 18.816 8.14159 18.8549 8.32732C18.8938 8.51304 18.9872 8.68293 19.1232 8.81528L21.3104 11.0025H11.2129C11.0865 11.0007 10.961 11.024 10.8437 11.0712C10.7264 11.1183 10.6196 11.1883 10.5296 11.277C10.4396 11.3658 10.3681 11.4715 10.3193 11.5881C10.2705 11.7048 10.2454 11.8299 10.2454 11.9563C10.2454 12.0827 10.2705 12.2079 10.3193 12.3245C10.3681 12.4411 10.4396 12.5469 10.5296 12.6356C10.6196 12.7244 10.7264 12.7944 10.8437 12.8415C10.961 12.8886 11.0865 12.912 11.2129 12.9102H21.3104L19.1232 15.0974C19.0317 15.1853 18.9586 15.2905 18.9082 15.407C18.8579 15.5235 18.8313 15.6489 18.83 15.7758C18.8287 15.9027 18.8527 16.0286 18.9007 16.1461C18.9487 16.2636 19.0196 16.3703 19.1094 16.4601C19.1991 16.5498 19.3058 16.6207 19.4233 16.6687C19.5408 16.7167 19.6667 16.7407 19.7936 16.7394C19.9205 16.7381 20.0459 16.7115 20.1624 16.6612C20.2789 16.6108 20.3842 16.5377 20.472 16.4462L24.2037 12.7146C24.3205 12.6254 24.4152 12.5105 24.4803 12.3787C24.5454 12.2469 24.5792 12.1019 24.579 11.9549C24.5789 11.808 24.5447 11.663 24.4793 11.5314C24.4138 11.3998 24.3189 11.2851 24.2018 11.1962L20.472 7.46645C20.3832 7.37508 20.2769 7.30245 20.1594 7.25285C20.042 7.20325 19.9158 7.17769 19.7883 7.17769Z" fill="#B3BDD7"/>
</svg>
