<svg width="18" height="18" viewBox="0 0 18 18" fill="none" xmlns="http://www.w3.org/2000/svg">
<path d="M9.00007 0.199872C4.14873 0.199872 0.200073 4.14853 0.200073 8.99987C0.200073 13.8512 4.14873 17.7999 9.00007 17.7999C13.8514 17.7999 17.8001 13.8512 17.8001 8.99987C17.8001 5.96408 16.2585 3.27998 13.9128 1.69805L14.7536 0.619533L11.2001 0.490627L12.2256 3.86654L13.0048 2.86537C14.8135 4.0478 16.0689 5.99996 16.2933 8.26797C16.1061 8.27822 15.9299 8.35979 15.801 8.49592C15.6721 8.63204 15.6002 8.81238 15.6001 8.99987C15.6002 9.18807 15.6727 9.36901 15.8025 9.50524C15.9324 9.64148 16.1096 9.72258 16.2976 9.73177C15.9552 13.2037 13.2039 15.955 9.73197 16.2974C9.72278 16.1094 9.64168 15.9322 9.50544 15.8023C9.36921 15.6725 9.18827 15.6 9.00007 15.5999C8.81188 15.6 8.63094 15.6725 8.4947 15.8023C8.35847 15.9322 8.27736 16.1094 8.26817 16.2974C4.79628 15.955 2.04493 13.2037 1.70255 9.73177C1.89052 9.72258 2.06776 9.64148 2.1976 9.50524C2.32744 9.36901 2.39993 9.18807 2.40007 8.99987C2.39993 8.81167 2.32744 8.63074 2.1976 8.4945C2.06776 8.35826 1.89052 8.27716 1.70255 8.26797C2.0687 4.5551 5.18878 1.66654 9.00007 1.66654C9.09725 1.66791 9.19373 1.64996 9.28391 1.61372C9.37408 1.57749 9.45616 1.52369 9.52536 1.45546C9.59457 1.38722 9.64952 1.30592 9.68703 1.21626C9.72454 1.12661 9.74385 1.03039 9.74385 0.933205C9.74385 0.83602 9.72454 0.739804 9.68703 0.650149C9.64952 0.560494 9.59457 0.479187 9.52536 0.410954C9.45616 0.342722 9.37408 0.288924 9.28391 0.252687C9.19373 0.216451 9.09725 0.198498 9.00007 0.199872ZM8.98862 3.85651C8.79437 3.85955 8.60927 3.93953 8.47393 4.07889C8.3386 4.21826 8.26408 4.40562 8.26674 4.59987V8.6332L5.62703 10.6126C5.47128 10.7292 5.36824 10.903 5.34058 11.0956C5.31291 11.2881 5.36288 11.4838 5.4795 11.6396C5.59612 11.7953 5.76983 11.8984 5.96242 11.926C6.15501 11.9537 6.35071 11.9037 6.50645 11.7871L9.43979 9.58711C9.53099 9.51877 9.60501 9.43012 9.65598 9.32818C9.70695 9.22625 9.73346 9.11384 9.73341 8.99987V4.59987C9.73475 4.50176 9.71639 4.40437 9.67942 4.31349C9.64245 4.2226 9.58762 4.14005 9.51817 4.07073C9.44872 4.00142 9.36607 3.94674 9.2751 3.90995C9.18414 3.87315 9.08672 3.85498 8.98862 3.85651Z" fill="#0B111A"/>
</svg>
