<svg width="26" height="26" viewBox="0 0 26 26" fill="none" xmlns="http://www.w3.org/2000/svg">
<path d="M6.06667 3.46667C5.84492 3.46667 5.62291 3.55115 5.45391 3.72058L3.72058 5.45391C3.38171 5.79278 3.38171 6.34143 3.72058 6.67944L10.0412 13L3.72058 19.3206C3.38171 19.6594 3.38171 20.2081 3.72058 20.5461L5.45391 22.2794C5.79278 22.6183 6.34144 22.6183 6.67944 22.2794L13 15.9589L19.3206 22.2794C19.6586 22.6183 20.2081 22.6183 20.5461 22.2794L22.2794 20.5461C22.6183 20.2072 22.6183 19.6586 22.2794 19.3206L15.9589 13L22.2794 6.67944C22.6183 6.34143 22.6183 5.79191 22.2794 5.45391L20.5461 3.72058C20.2072 3.38171 19.6586 3.38171 19.3206 3.72058L13 10.0412L6.67944 3.72058C6.51 3.55115 6.28843 3.46667 6.06667 3.46667Z" fill="white" fill-opacity="0.6"/>
</svg>
