<svg width="70" height="70" viewBox="0 0 70 70" fill="none" xmlns="http://www.w3.org/2000/svg">
<path d="M34.9998 2.79999C17.2332 2.79999 2.7998 17.2333 2.7998 35C2.7998 52.7666 17.2332 67.2 34.9998 67.2C52.7665 67.2 67.1998 52.7666 67.1998 35C67.1998 17.2333 52.7665 2.79999 34.9998 2.79999ZM34.9998 5.59999C51.2531 5.59999 64.3998 18.7466 64.3998 35C64.3998 51.2533 51.2531 64.4 34.9998 64.4C18.7465 64.4 5.5998 51.2533 5.5998 35C5.5998 18.7466 18.7465 5.59999 34.9998 5.59999ZM46.1861 22.3808C45.8168 22.3896 45.466 22.5439 45.21 22.8101L34.9998 33.0203L24.7896 22.8101C24.6592 22.676 24.5032 22.5694 24.3308 22.4966C24.1584 22.4238 23.9732 22.3863 23.7861 22.3863C23.5076 22.3864 23.2355 22.4695 23.0045 22.6251C22.7734 22.7806 22.5941 23.0016 22.4893 23.2596C22.3845 23.5176 22.359 23.8011 22.4161 24.0736C22.4733 24.3462 22.6104 24.5956 22.81 24.7898L33.0201 35L22.81 45.2101C22.6756 45.3391 22.5683 45.4937 22.4944 45.6646C22.4205 45.8356 22.3815 46.0196 22.3796 46.2059C22.3777 46.3921 22.413 46.5769 22.4834 46.7494C22.5538 46.9218 22.6579 47.0785 22.7896 47.2102C22.9213 47.3419 23.078 47.446 23.2504 47.5164C23.4229 47.5868 23.6076 47.6221 23.7939 47.6202C23.9802 47.6183 24.1642 47.5793 24.3351 47.5054C24.5061 47.4315 24.6606 47.3242 24.7896 47.1898L34.9998 36.9797L45.21 47.1898C45.339 47.3242 45.4935 47.4315 45.6645 47.5054C45.8354 47.5793 46.0194 47.6183 46.2057 47.6202C46.392 47.6221 46.5767 47.5868 46.7492 47.5164C46.9216 47.446 47.0783 47.3419 47.21 47.2102C47.3417 47.0785 47.4458 46.9218 47.5162 46.7494C47.5866 46.5769 47.6219 46.3921 47.62 46.2059C47.6181 46.0196 47.5791 45.8356 47.5052 45.6646C47.4313 45.4937 47.324 45.3391 47.1896 45.2101L36.9795 35L47.1896 24.7898C47.393 24.5943 47.5325 24.342 47.5899 24.0658C47.6474 23.7896 47.6201 23.5026 47.5116 23.2422C47.4032 22.9818 47.2186 22.7603 46.9821 22.6066C46.7455 22.4529 46.4681 22.3742 46.1861 22.3808Z" fill="#FF5A6B"/>
</svg>
