<svg width="202" height="202" viewBox="0 0 202 202" fill="none" xmlns="http://www.w3.org/2000/svg">
<circle opacity="0.8" cx="101.001" cy="101" r="67.1339" stroke="#2864FF"/>
<circle opacity="0.5" cx="101.001" cy="101" r="82.4643" stroke="#2864FF"/>
<circle opacity="0.2" cx="101" cy="101" r="100.5" stroke="#2864FF"/>
<circle cx="101" cy="101" r="54.1071" fill="#2864FF"/>
<path d="M100.999 79.3571C90.0218 79.3571 80.9436 87.5694 79.5608 98.1854C79.5217 98.4241 79.531 98.6682 79.5882 98.9032C79.6454 99.1383 79.7492 99.3594 79.8936 99.5534C80.038 99.7475 80.2199 99.9105 80.4286 100.033C80.6372 100.155 80.8683 100.234 81.1082 100.265C81.3481 100.297 81.5917 100.279 81.8247 100.214C82.0577 100.15 82.2753 100.038 82.4645 99.8878C82.6537 99.7371 82.8107 99.5499 82.9261 99.3373C83.0415 99.1248 83.1129 98.8911 83.1362 98.6504C84.2892 89.7986 91.8165 82.9643 100.999 82.9643C105.99 82.9643 110.469 84.9997 113.73 88.2693L110.017 91.9821L120.839 93.7857L119.035 82.9643L116.277 85.7225C112.363 81.8055 106.968 79.3571 100.999 79.3571ZM120.68 101.754C120.233 101.747 119.8 101.907 119.464 102.202C119.128 102.497 118.914 102.906 118.862 103.35C117.709 112.201 110.182 119.036 100.999 119.036C95.5487 119.036 90.7167 116.601 87.4091 112.787L90.1779 110.018L79.3564 108.214L81.16 119.036L84.8552 115.34C88.8167 119.798 94.5715 122.643 100.999 122.643C111.977 122.643 121.055 114.431 122.438 103.815C122.474 103.561 122.456 103.302 122.385 103.056C122.314 102.81 122.191 102.582 122.025 102.387C121.859 102.192 121.653 102.034 121.421 101.925C121.189 101.816 120.936 101.758 120.68 101.754Z" fill="white"/>
</svg>
