<svg width="16" height="16" viewBox="0 0 16 16" fill="none" xmlns="http://www.w3.org/2000/svg">
<circle cx="8" cy="8" r="8" fill="#FF5A6B"/>
<path d="M11.1663 9.89976C11.516 10.2495 11.516 10.8165 11.1663 11.1663C10.8165 11.516 10.2495 11.516 9.89974 11.1663L4.83371 6.10024C4.48398 5.7505 4.48398 5.18347 4.83371 4.83373C5.18345 4.48399 5.75048 4.48399 6.10022 4.83373L11.1663 9.89976Z" fill="white"/>
<path d="M6.10022 11.1663C5.75048 11.516 5.18345 11.516 4.83371 11.1663C4.48398 10.8165 4.48398 10.2495 4.83371 9.89976L9.89974 4.83373C10.2495 4.48399 10.8165 4.48399 11.1663 4.83373C11.516 5.18347 11.516 5.7505 11.1663 6.10024L6.10022 11.1663Z" fill="white"/>
</svg>
