<svg width="28" height="28" viewBox="0 0 28 28" fill="none" xmlns="http://www.w3.org/2000/svg">
<path d="M14 2.79999C13.2239 2.79999 12.559 3.27293 12.2774 3.9466L2.14743 21.4174V21.4193C1.96461 21.7138 1.8674 22.0534 1.8667 22.4C1.8667 22.8951 2.06337 23.3699 2.41343 23.7199C2.7635 24.07 3.23829 24.2667 3.73337 24.2667C3.77717 24.2664 3.82094 24.2645 3.86462 24.2612L3.86826 24.2667H14H24.1318L24.1354 24.2594C24.1791 24.2633 24.2229 24.2658 24.2667 24.2667C24.7618 24.2667 25.2366 24.07 25.5866 23.7199C25.9367 23.3699 26.1334 22.8951 26.1334 22.4C26.133 22.0527 26.0358 21.7125 25.8526 21.4174L25.8381 21.3919C25.8374 21.3913 25.8368 21.3907 25.8362 21.3901L15.7227 3.9466C15.441 3.27293 14.7762 2.79999 14 2.79999ZM12.868 10.6021H15.1321L14.9443 16.6432H13.0558L12.868 10.6021ZM14.0037 18.4898C14.7709 18.4898 15.2305 18.9026 15.2305 19.6073C15.2305 20.2989 14.7709 20.7101 14.0037 20.7101C13.2309 20.7101 12.7677 20.2989 12.7677 19.6073C12.7677 18.9026 13.2299 18.4898 14.0037 18.4898Z" fill="#FF5A6B"/>
</svg>
