<svg width="26" height="26" viewBox="0 0 26 26" fill="none" xmlns="http://www.w3.org/2000/svg">
<g clip-path="url(#clip0)">
<path d="M5.20001 3.46667C4.24234 3.46667 3.46667 4.24234 3.46667 5.20001V7.80001C3.46667 8.27841 3.85494 8.66667 4.33334 8.66667H21.6667C22.1451 8.66667 22.5333 8.27841 22.5333 7.80001V5.20001C22.5333 4.24234 21.7577 3.46667 20.8 3.46667H5.20001ZM4.33334 10.4C3.85494 10.4 3.46667 10.7883 3.46667 11.2667V14.7333C3.46667 15.2117 3.85494 15.6 4.33334 15.6H19.0684V14.735C19.0684 13.3016 20.2349 12.135 21.6684 12.135C21.9734 12.135 22.2612 12.1971 22.5333 12.2941V11.2667C22.5333 10.7883 22.1451 10.4 21.6667 10.4H4.33334ZM21.6684 13.8684C21.1891 13.8684 20.8017 14.2558 20.8017 14.735V23.0428L18.8128 21.0556C18.4739 20.7167 17.9278 20.7167 17.5889 21.0556C17.2501 21.3945 17.2501 21.9406 17.5889 22.2794L21.0539 25.7461C21.1345 25.8267 21.23 25.8898 21.3366 25.934C21.5481 26.0215 21.787 26.0215 21.9984 25.934C22.105 25.8898 22.2014 25.8267 22.2811 25.7461L25.7461 22.2794C25.9151 22.1104 26.0017 21.8902 26.0017 21.6684C26.0017 21.4465 25.9151 21.2246 25.7461 21.0556C25.4072 20.7167 24.8611 20.7167 24.5223 21.0556L22.535 23.0428V14.735C22.535 14.2558 22.1468 13.8684 21.6684 13.8684ZM4.33334 17.3333C3.85494 17.3333 3.46667 17.7216 3.46667 18.2V20.8C3.46667 21.7577 4.24234 22.5333 5.20001 22.5333H15.7574C15.6604 22.2577 15.6017 21.9691 15.6017 21.6684C15.6017 20.9742 15.872 20.3206 16.3634 19.8301C16.8548 19.3387 17.5075 19.0684 18.2017 19.0684C18.5016 19.0684 18.7936 19.1186 19.0684 19.2156V17.3333H4.33334Z" fill="white" fill-opacity="0.6"/>
</g>
<defs>
<clipPath id="clip0">
<rect width="26" height="26" fill="white"/>
</clipPath>
</defs>
</svg>
