<svg width="22" height="22" viewBox="0 0 22 22" fill="none" xmlns="http://www.w3.org/2000/svg">
<path d="M11.0002 5.28C5.13408 5.28 0.550176 10.7112 0.550176 10.7112C0.405801 10.8762 0.405801 11.1237 0.550176 11.2887C0.550176 11.2887 5.13408 16.72 11.0002 16.72C16.8663 16.72 21.4502 11.2887 21.4502 11.2887C21.5946 11.1237 21.5946 10.8762 21.4502 10.7112C21.4502 10.7112 16.8663 5.28 11.0002 5.28ZM11.0002 6.16C12.1569 6.16 13.2621 6.39891 14.2864 6.765C14.9739 7.54187 15.4002 8.55766 15.4002 9.68C15.4002 12.1155 13.4356 14.08 11.0002 14.08C8.56471 14.08 6.60018 12.1155 6.60018 9.68C6.60018 8.55766 7.01268 7.54187 7.70018 6.765C8.72799 6.39719 9.84002 6.16 11.0002 6.16ZM6.24268 7.41125C5.91268 8.09875 5.72018 8.86875 5.72018 9.68C5.72018 12.5916 8.08861 14.96 11.0002 14.96C13.9117 14.96 16.2802 12.5916 16.2802 9.68C16.2802 8.87219 16.0963 8.09875 15.7714 7.41125C18.2567 8.67453 20.0442 10.5067 20.5014 11C19.7864 11.7734 15.8281 15.84 11.0002 15.84C6.17221 15.84 2.21393 11.7734 1.49893 11C1.95611 10.505 3.75221 8.67453 6.24268 7.41125ZM11.0002 7.48C9.78502 7.48 8.80018 8.46484 8.80018 9.68C8.80018 10.8952 9.78502 11.88 11.0002 11.88C12.2153 11.88 13.2002 10.8952 13.2002 9.68C13.2002 8.46484 12.2153 7.48 11.0002 7.48Z" fill="#231F20"/>
</svg>
