<svg width="22" height="22" viewBox="0 0 22 22" fill="none" xmlns="http://www.w3.org/2000/svg">
<g opacity="0.5">
<path d="M11.0636 3.51999C8.40576 3.51999 5.96706 4.59005 4.08291 6.35335C4.03893 6.39237 4.00321 6.43981 3.97788 6.49286C3.95254 6.54592 3.93809 6.60351 3.93538 6.66224C3.93267 6.72098 3.94176 6.77966 3.96211 6.83482C3.98246 6.88998 4.01366 6.9405 4.05386 6.9834C4.09406 7.02631 4.14245 7.06072 4.19618 7.0846C4.2499 7.10849 4.30787 7.12137 4.36665 7.12248C4.42544 7.12359 4.48385 7.1129 4.53844 7.09106C4.59302 7.06922 4.64268 7.03666 4.68447 6.9953C6.4224 5.36884 8.64122 4.39999 11.0636 4.39999C13.4739 4.39999 15.6821 5.35925 17.4161 6.97124C17.4582 7.01202 17.5079 7.044 17.5625 7.06529C17.6171 7.08659 17.6753 7.09677 17.7339 7.09525C17.7925 7.09373 17.8501 7.08054 17.9035 7.05644C17.9569 7.03234 18.0049 6.99783 18.0448 6.95492C18.0847 6.91201 18.1156 6.86157 18.1357 6.80656C18.1559 6.75155 18.1648 6.69308 18.162 6.63457C18.1593 6.57605 18.1448 6.51868 18.1196 6.46582C18.0944 6.41296 18.0588 6.36566 18.0151 6.32671C16.1349 4.57885 13.7081 3.51999 11.0636 3.51999ZM20.0157 9.21249C19.9243 9.21399 19.8356 9.24393 19.762 9.29814C19.6884 9.35235 19.6335 9.42814 19.6049 9.51499C17.8401 12.7916 14.6685 14.96 11.0516 14.96C7.44272 14.96 4.27751 12.8003 2.51025 9.53561C2.47669 9.43658 2.40896 9.35273 2.31919 9.29909C2.22942 9.24546 2.12349 9.22554 2.02037 9.24292C1.91725 9.26029 1.8237 9.31382 1.75646 9.39391C1.68923 9.474 1.65271 9.57542 1.65346 9.67999V9.70147C1.65325 9.77399 1.67096 9.84543 1.70502 9.90944C2.30263 11.0253 3.05856 12.0254 3.93682 12.8734L1.43861 15.5392C1.35884 15.6244 1.3162 15.7379 1.32007 15.8546C1.32393 15.9713 1.374 16.0816 1.45924 16.1614C1.54448 16.2412 1.65792 16.2838 1.7746 16.2799C1.89129 16.2761 2.00165 16.226 2.08143 16.1408L4.59424 13.4587C5.31998 14.0573 6.1135 14.5607 6.96182 14.9462L5.32471 18.2866C5.2993 18.3385 5.28437 18.395 5.28077 18.4526C5.27716 18.5103 5.28496 18.5682 5.30371 18.6228C5.32246 18.6775 5.3518 18.7279 5.39004 18.7713C5.42829 18.8146 5.4747 18.85 5.52662 18.8754C5.57854 18.9008 5.63495 18.9157 5.69264 18.9193C5.75033 18.9229 5.80816 18.9151 5.86282 18.8963C5.91749 18.8775 5.96793 18.8482 6.01126 18.8099C6.05458 18.7717 6.08995 18.7253 6.11533 18.6733L7.7808 15.2737C8.66414 15.5852 9.59554 15.7738 10.5609 15.8219C10.5605 15.828 10.5602 15.834 10.56 15.84V19.36C10.5592 19.4183 10.57 19.4762 10.5917 19.5303C10.6135 19.5844 10.6457 19.6336 10.6867 19.6752C10.7276 19.7167 10.7764 19.7497 10.8302 19.7722C10.884 19.7947 10.9417 19.8063 11 19.8063C11.0583 19.8063 11.1161 19.7947 11.1699 19.7722C11.2236 19.7497 11.2724 19.7167 11.3134 19.6752C11.3543 19.6336 11.3866 19.5844 11.4083 19.5303C11.4301 19.4762 11.4408 19.4183 11.44 19.36V15.84C11.4398 15.8351 11.4395 15.8302 11.4392 15.8254C12.4362 15.7861 13.3978 15.5943 14.3086 15.2754L15.8813 18.6648C15.9036 18.7201 15.9369 18.7703 15.9792 18.8124C16.0215 18.8544 16.072 18.8875 16.1275 18.9094C16.1829 18.9314 16.2423 18.9418 16.302 18.9401C16.3616 18.9384 16.4203 18.9246 16.4744 18.8995C16.5286 18.8744 16.577 18.8386 16.6169 18.7942C16.6567 18.7498 16.6871 18.6977 16.7063 18.6412C16.7254 18.5847 16.7328 18.5249 16.7281 18.4654C16.7233 18.4059 16.7066 18.348 16.6788 18.2952L15.1259 14.9462C15.9212 14.5871 16.6692 14.1275 17.3577 13.5798L19.9289 16.1511C19.9749 16.1989 20.0311 16.2358 20.0933 16.2588C20.1555 16.2819 20.2221 16.2906 20.2881 16.2843C20.3026 16.283 20.3169 16.281 20.3311 16.2783C20.4102 16.2628 20.4835 16.2259 20.543 16.1716C20.6025 16.1173 20.646 16.0477 20.6687 15.9704C20.6914 15.8931 20.6924 15.811 20.6717 15.7332C20.651 15.6553 20.6093 15.5847 20.5511 15.5289L18.0245 13.0023C18.9682 12.1215 19.7794 11.0708 20.4102 9.8871C20.4444 9.82342 20.4624 9.75228 20.4626 9.67999V9.6585C20.4634 9.59964 20.4524 9.54121 20.4302 9.48667C20.408 9.43214 20.3751 9.38261 20.3335 9.34102C20.2918 9.29943 20.2422 9.26663 20.1876 9.24455C20.133 9.22247 20.0746 9.21157 20.0157 9.21249Z" fill="#0B111A"/>
</g>
</svg>
