<svg width="30" height="30" viewBox="0 0 30 30" fill="none" xmlns="http://www.w3.org/2000/svg">
<path d="M24.707 7.793L19.207 2.293C19.019 2.105 18.765 2 18.5 2H7C5.895 2 5 2.895 5 4V26C5 27.105 5.895 28 7 28H23C24.105 28 25 27.105 25 26V8.5C25 8.235 24.895 7.981 24.707 7.793ZM11.832 20.445C12.139 20.904 12.015 21.526 11.555 21.832C11.384 21.946 11.191 22 11.001 22C10.678 22 10.36 21.844 10.168 21.555L8.168 18.555C7.944 18.219 7.944 17.782 8.168 17.446L10.168 14.446C10.473 13.987 11.093 13.861 11.555 14.169C12.015 14.475 12.139 15.096 11.832 15.556L10.202 18L11.832 20.445ZM14.98 23.196C14.886 23.671 14.468 24 14.001 24C13.936 24 13.87 23.994 13.804 23.98C13.263 23.872 12.911 23.345 13.02 22.803L15.02 12.803C15.127 12.261 15.657 11.912 16.197 12.019C16.738 12.127 17.09 12.654 16.981 13.196L14.98 23.196ZM21.832 18.555L19.832 21.555C19.64 21.844 19.322 22 18.999 22C18.809 22 18.616 21.946 18.445 21.832C17.985 21.526 17.861 20.905 18.168 20.445L19.798 18L18.168 15.555C17.861 15.096 17.985 14.474 18.445 14.168C18.905 13.86 19.525 13.986 19.832 14.445L21.832 17.445C22.056 17.781 22.056 18.219 21.832 18.555ZM19 9C18.448 9 18 8.552 18 8V3.904L23.096 9H19Z" fill="#2864FF"/>
</svg>
