<svg width="30" height="30" viewBox="0 0 30 30" fill="none" xmlns="http://www.w3.org/2000/svg">
<path d="M6 4C4.895 4 4 4.895 4 6V10C4 11.105 4.895 12 6 12H10C11.105 12 12 11.105 12 10V6C12 4.895 11.105 4 10 4H6ZM20 4C18.895 4 18 4.895 18 6V10C18 11.105 18.895 12 20 12H24C25.105 12 26 11.105 26 10V6C26 4.895 25.105 4 24 4H20ZM6 6H10V10H6V6ZM14 6V8H16V6H14ZM20 6H24V10H20V6ZM7 7V9H9V7H7ZM21 7V9H23V7H21ZM14 10V12H16V10H14ZM6 14V16H8V14H6ZM10 14V16H12V14H10ZM14 14V16H16V14H14ZM16 16V18H18V16H16ZM18 16H20V14H18V16ZM20 16V18H22V16H20ZM22 16H24V14H22V16ZM24 16V18H26V16H24ZM24 18H22V20H24V18ZM24 20V22H26V20H24ZM24 22H22V24H24V22ZM22 24H20V26H22V24ZM20 24V22H18V24H20ZM18 24H16V26H18V24ZM16 24V22H14V24H16ZM16 22H18V20H16V22ZM16 20V18H14V20H16ZM18 20H20V18H18V20ZM20 20V22H22V20H20ZM6 18C4.895 18 4 18.895 4 20V24C4 25.105 4.895 26 6 26H10C11.105 26 12 25.105 12 24V20C12 18.895 11.105 18 10 18H6ZM6 20H10V24H6V20ZM7 21V23H9V21H7Z" fill="#2864FF"/>
</svg>
