<svg width="58" height="58" viewBox="0 0 58 58" fill="none" xmlns="http://www.w3.org/2000/svg">
<g opacity="0.5">
<path d="M29 2.31999C14.278 2.31999 2.32001 14.278 2.32001 29C2.32001 43.722 14.278 55.68 29 55.68C43.722 55.68 55.68 43.722 55.68 29C55.68 14.3408 43.819 2.43958 29.1835 2.33812C29.1229 2.32722 29.0616 2.32115 29 2.31999ZM29 4.63999C42.4683 4.63999 53.36 15.5317 53.36 29C53.36 42.4683 42.4683 53.36 29 53.36C15.5317 53.36 4.64001 42.4683 4.64001 29C4.64001 15.5317 15.5317 4.63999 29 4.63999ZM19.72 20.88C18.7971 20.88 17.9119 21.2466 17.2593 21.8993C16.6066 22.5519 16.24 23.437 16.24 24.36C16.24 25.2829 16.6066 26.1681 17.2593 26.8207C17.9119 27.4734 18.7971 27.84 19.72 27.84C20.643 27.84 21.5281 27.4734 22.1807 26.8207C22.8334 26.1681 23.2 25.2829 23.2 24.36C23.2 23.437 22.8334 22.5519 22.1807 21.8993C21.5281 21.2466 20.643 20.88 19.72 20.88ZM38.28 20.88C37.3571 20.88 36.4719 21.2466 35.8193 21.8993C35.1667 22.5519 34.8 23.437 34.8 24.36C34.8 25.2829 35.1667 26.1681 35.8193 26.8207C36.4719 27.4734 37.3571 27.84 38.28 27.84C39.203 27.84 40.0881 27.4734 40.7407 26.8207C41.3934 26.1681 41.76 25.2829 41.76 24.36C41.76 23.437 41.3934 22.5519 40.7407 21.8993C40.0881 21.2466 39.203 20.88 38.28 20.88ZM29 33.64C21.5245 33.64 16.5799 38.6198 16.5799 38.6198C16.4685 38.7267 16.3796 38.8548 16.3184 38.9964C16.2572 39.1381 16.2248 39.2906 16.2233 39.4449C16.2217 39.5992 16.2509 39.7523 16.3093 39.8952C16.3676 40.0381 16.4539 40.1679 16.563 40.277C16.6721 40.3861 16.8019 40.4724 16.9448 40.5307C17.0877 40.5891 17.2408 40.6183 17.3951 40.6167C17.5494 40.6152 17.7019 40.5828 17.8436 40.5216C17.9852 40.4604 18.1133 40.3715 18.2202 40.2601C18.2202 40.2601 22.5556 35.96 29 35.96C35.4445 35.96 39.7799 40.2601 39.7799 40.2601C39.8867 40.3715 40.0148 40.4604 40.1564 40.5216C40.2981 40.5828 40.4506 40.6152 40.6049 40.6167C40.7592 40.6183 40.9123 40.5891 41.0552 40.5307C41.1981 40.4724 41.3279 40.3861 41.437 40.277C41.5462 40.1679 41.6324 40.0381 41.6908 39.8952C41.7491 39.7523 41.7783 39.5992 41.7768 39.4449C41.7752 39.2906 41.7428 39.1381 41.6816 38.9964C41.6204 38.8548 41.5315 38.7267 41.4202 38.6198C41.4202 38.6198 36.4756 33.64 29 33.64Z" fill="#0B111A"/>
</g>
</svg>
