<svg width="30" height="30" viewBox="0 0 30 30" fill="none" xmlns="http://www.w3.org/2000/svg">
<rect width="30" height="30" rx="15" transform="matrix(-1 0 0 1 30 0)" fill="#B3BDD7" fill-opacity="0.2"/>
<path d="M15.0515 8.14392C12.2184 8.14392 10.6118 9.73125 10.566 12.029V12.1439H13.0672V12.029C13.122 11.0141 13.8241 10.3593 14.8852 10.3593C15.9372 10.3593 16.6386 10.9676 16.6386 11.8258C16.6386 12.6841 16.2786 13.1273 15.0884 13.8381C13.8146 14.5855 13.3065 15.4162 13.4265 16.8928L13.441 17.2868H15.8908V16.9118C15.8908 16.0261 16.2326 15.573 17.46 14.8627C18.7612 14.0964 19.4343 13.1278 19.4343 11.7433C19.4343 9.61125 17.691 8.14392 15.0515 8.14392ZM14.7189 19.0011C13.7801 19.0011 13.1944 19.5461 13.1944 20.4341C13.1944 21.3141 13.7807 21.8582 14.7189 21.8582C15.6572 21.8582 16.2357 21.3141 16.2357 20.4341C16.2357 19.5461 15.6578 19.0011 14.7189 19.0011Z" fill="#B3BDD7"/>
</svg>
