<svg width="20" height="20" viewBox="0 0 20 20" fill="none" xmlns="http://www.w3.org/2000/svg">
<g clip-path="url(#clip0)">
<path d="M10 2.36377C8.11093 2.36377 6.37457 3.05323 5.04088 4.19331C4.97403 4.24653 4.91858 4.31267 4.87784 4.38777C4.8371 4.46288 4.8119 4.54543 4.80375 4.63048C4.79559 4.71554 4.80464 4.80136 4.83037 4.88285C4.8561 4.96433 4.89797 5.03979 4.95349 5.10474C5.009 5.1697 5.07703 5.2228 5.15352 5.2609C5.23 5.299 5.31337 5.3213 5.39866 5.32648C5.48395 5.33167 5.56941 5.31962 5.64994 5.29107C5.73047 5.26252 5.80443 5.21804 5.86741 5.16029C6.97991 4.20928 8.4197 3.6365 10 3.6365C13.3069 3.6365 16.0143 6.14245 16.3326 9.36377H14.4546L17 13.182L19.5455 9.36377H17.6041C17.2787 5.45119 13.995 2.36377 10 2.36377ZM3.00004 6.81831L0.45459 10.6365H2.396C2.72136 14.5491 6.00506 17.6365 10 17.6365C11.8892 17.6365 13.6255 16.947 14.9592 15.8069C15.0261 15.7537 15.0815 15.6876 15.1222 15.6125C15.163 15.5374 15.1882 15.4548 15.1963 15.3698C15.2045 15.2847 15.1954 15.1989 15.1697 15.1174C15.144 15.0359 15.1021 14.9605 15.0466 14.8955C14.9911 14.8306 14.9231 14.7775 14.8466 14.7394C14.7701 14.7013 14.6867 14.679 14.6014 14.6738C14.5161 14.6686 14.4307 14.6806 14.3502 14.7092C14.2696 14.7377 14.1957 14.7822 14.1327 14.84C13.0202 15.791 11.5804 16.3638 10 16.3638C6.69314 16.3638 3.98578 13.8578 3.66748 10.6365H5.5455L3.00004 6.81831Z" fill="#B3BDD7"/>
</g>
<defs>
<clipPath id="clip0">
<rect width="19.0909" height="19.0909" fill="white" transform="translate(0.45459 0.454529)"/>
</clipPath>
</defs>
</svg>
